<?xml version="1.0" encoding="utf-8"?>
<!-- Generator: Adobe Illustrator 25.2.1, SVG Export Plug-In . SVG Version: 6.00 Build 0)  -->
<svg version="1.1" id="Calque_1" xmlns="http://www.w3.org/2000/svg" xmlns:xlink="http://www.w3.org/1999/xlink" x="0px" y="0px"
	 viewBox="0 0 432 432" style="enable-background:new 0 0 432 432;" xml:space="preserve">
<style type="text/css">
	.st0{fill:#E0AAAF;}
	.st1{fill:#F9D53D;}
	.st2{fill:#FBB03B;}
	.st3{fill:#CCCCCC;}
	.st4{fill:#8CC63F;}
	.st5{fill:#C5D8A7;}
	.st6{fill:#C44750;}
	.st7{fill:#998675;}
	.st8{fill:#C7B299;}
	.st9{fill:none;}
	.st10{fill:#29ABE2;}
	.st11{fill:#B3B3B3;}
	.st12{fill:#C79C52;}
	.st13{fill:#65C8D0;}
	.st14{fill:#BA9BC9;}
	.st15{fill:#A57A7F;}
	.st16{fill:#FFFFFF;}
</style>
<g>
	<g>
		<path d="M224.85,125.7c0.1,9.43,0.19,18.86,0.29,28.29c0.04,3.54-0.02,3.31-3.2,3.3c-1.56,0-3.13,0.01-4.69,0
			c-1.83-0.01-2.07-0.23-2.09-2.08c-0.08-7.71-0.16-15.42-0.23-23.13c-0.1-11.57-0.19-23.13-0.28-34.7c0-0.31,0-0.63-0.01-0.94
			c-0.07-2.05-0.72-2.42-2.43-2.38c-2.66,0.07-5.31-0.02-7.97-0.04c-0.42,0-0.83-0.02-1.25-0.05c-0.77-0.07-1.27-0.44-1.32-1.26
			c-0.09-1.25-0.2-2.49-0.25-3.74c-0.05-1.09-0.08-2.19-0.03-3.28c0.06-1.22,0.45-1.55,1.63-1.63c0.31-0.02,0.63-0.01,0.94-0.01
			c10.94,0.09,21.88,0.17,32.83,0.27c2.77,0.02,2.92,0.16,3.02,2.88c0.06,1.72,0.05,3.44,0,5.16c-0.05,1.61-0.35,1.91-1.98,1.92
			c-3.39,0.01-6.77-0.07-10.16-0.1c-2.94-0.03-3.06,0.09-3.03,3.08c0.09,9.48,0.19,18.97,0.28,28.45
			C224.89,125.7,224.87,125.7,224.85,125.7z"/>
		<path d="M287.39,90.35c-0.03-3.2,1.1-4.75,4.12-5.91c3.94-1.51,8.05-1.85,12.2-1.83c5.69,0.02,11.26,0.83,16.43,3.33
			c9.9,4.79,15.53,12.6,16.08,23.52c0.57,11.11-6.2,18.66-13.73,22.18c-0.75,0.35-1.54,0.6-2.29,0.95
			c-0.97,0.44-1.11,0.83-0.47,1.63c2.28,2.86,3.58,6.19,4.82,9.56c0.55,1.48,1.17,2.94,1.83,4.38c0.51,1.12,1.44,1.7,2.7,1.75
			c1.19,0.04,2.38,0.08,3.57,0.14c1.31,0.06,1.52,0.15,1.61,1.36c0.15,2.19,0.21,4.39,0.19,6.58c-0.01,1.06-0.33,1.34-1.41,1.49
			c-6.5,0.92-12.09-0.56-15.51-6.89c-0.92-1.7-1.55-3.56-2.29-5.36c-0.66-1.61-1.25-3.25-1.96-4.84c-0.99-2.2-2.71-3.69-4.93-4.66
			c-2.8-1.22-5.71-1.76-8.77-1.52c-1.52,0.12-1.8,0.35-1.8,1.87c-0.01,3.12,0.03,9.42,0.04,12.54c0.01,1.79,0.04,3.58,0.03,5.37
			c0,1.34-0.14,1.64-1.41,1.72c-2.37,0.15-4.75,0.12-7.12,0.14c-0.74,0.01-1.14-0.4-1.21-1.12c-0.06-0.71-0.16-1.42-0.17-2.13
			C287.87,144.47,287.49,100.58,287.39,90.35z M297.61,123.32c0,1.81,0.12,1.94,1.9,2.04c3.84,0.22,7.66,0.02,11.45-0.53
			c2.77-0.4,5.5-1.05,7.97-2.4c4.85-2.64,7.55-6.69,7.4-12.2c-0.18-6.81-3.52-11.88-9.6-15.03c-5.61-2.91-11.69-3.19-17.85-2.51
			c-0.91,0.1-1.38,0.61-1.5,1.49c-0.05,0.4-0.02,0.82-0.02,1.23C297.36,100,297.59,118.61,297.61,123.32z"/>
		<path d="M148.08,133.85c-0.31,8.16-0.55,14.81-0.82,21.45c-0.07,1.72-0.25,1.93-1.92,1.97c-2.25,0.05-4.51,0.02-6.76-0.03
			c-1.17-0.03-1.35-0.21-1.34-1.43c0.01-1.83,0.11-3.67,0.16-5.5c0.18-6.13,0.37-12.25,0.55-18.38c0.01-0.37,0.01-0.73-0.01-1.1
			c-0.08-1.31-0.43-1.67-1.71-1.73c-0.26-0.01-0.52-0.01-0.79-0.01c-9.17-0.01-18.34-0.02-27.51-0.02c-0.42,0-0.88-0.08-1.25,0.05
			c-0.33,0.12-0.66,0.46-0.82,0.78c-0.14,0.3-0.08,0.72-0.07,1.08c0.17,6.28,0.34,12.57,0.52,18.85c0.05,1.89,0.16,3.77,0.2,5.65
			c0.03,1.39-0.15,1.57-1.51,1.57c-2.25,0-4.51-0.03-6.76-0.11c-1.53-0.06-1.7-0.25-1.77-1.77c-0.16-3.82-0.27-7.64-0.44-11.46
			c-0.41-9.17-0.44-18.33,0.07-27.49c0.28-5.08,0.88-10.14,2.45-15c3.02-9.32,9.36-14.85,19.07-16.53c3.8-0.66,7.55-0.46,11.21,0.56
			c8.25,2.3,13.68,7.65,16.29,15.78c1.58,4.92,2.26,10.02,2.48,15.15C147.9,122.57,147.96,128.97,148.08,133.85z M122.03,119.03
			c0,0,0,0.01,0,0.01c4.51,0,9.02,0,13.52,0c2.13,0,2.19-0.05,2.07-2.24c-0.08-1.36-0.19-2.72-0.35-4.07
			c-0.37-3.12-0.82-6.24-1.87-9.22c-1.53-4.35-4.51-7.24-8.96-8.52c-2.03-0.58-4.13-0.67-6.23-0.5c-5.95,0.48-10.45,4.1-12.11,9.83
			c-1.17,4.05-1.7,8.2-1.94,12.39c-0.11,1.98,0.24,2.32,2.19,2.32C112.91,119.04,117.47,119.03,122.03,119.03z"/>
		<path d="M280.04,84.48c-0.29-0.02-0.59-0.01-0.89-0.01c-8.96,0-17.92,0-26.88,0.01c-0.79,0-1.58,0.02-2.35,0.14
			c-2.45,0.38-4.08,2.15-4.27,4.58c-0.03,0.44-0.04,0.89-0.04,1.33c-0.07,20.08-0.13,40.17-0.19,60.25c0,0.74,0.04,1.48,0.15,2.21
			c0.32,2.2,1.71,3.65,3.89,4.07c0.62,0.12,1.27,0.15,1.91,0.16c9.01,0.04,18.02,0.06,27.03,0.08c0.4,0,0.81,0.01,1.21-0.03
			c0.68-0.08,1.19-0.67,1.21-1.36c0.03-1.02,0.03-2.04-0.02-3.05c-0.06-1.18-0.12-2.36-0.31-3.52c-0.16-1-0.6-1.32-1.6-1.42
			c-0.44-0.04-0.89-0.02-1.33-0.03c-6.84-0.02-13.68-0.05-20.53-0.07c-0.39,0-0.79-0.01-1.18-0.02c-0.52-0.01-0.83-0.29-0.92-0.79
			c-0.06-0.34-0.08-0.68-0.08-1.03c0.01-5.86,0.03-11.72,0.06-17.57c0.01-1.64,0.23-1.84,1.91-1.82c4.92,0.05,9.84,0.12,14.77,0.18
			c0.49,0.01,0.98,0,1.48-0.03c0.69-0.03,1.12-0.4,1.13-1.1c0.02-2.22,0.06-4.43,0-6.65c-0.02-0.85-0.69-1.54-1.54-1.61
			c-0.43-0.04-0.87-0.02-1.3-0.03c-4.97-0.06-9.94-0.12-14.91-0.19c-1.36-0.02-1.42-0.09-1.44-1.42c-0.01-0.98,0.01-1.97,0.01-2.95
			c0.02-5.76,0.03-11.52,0.05-17.28c0.01-1.45,0.15-1.58,1.62-1.61c0.3-0.01,0.59,0,0.89,0c7.19,0,14.37-0.01,21.56-0.01
			c0.27,0,0.54,0,0.81,0c0.92,0,1.72-0.7,1.75-1.62c0,0,0-0.01,0-0.01c0.05-2.02,0.08-4.04,0.06-6.05
			C281.72,84.92,281.33,84.57,280.04,84.48z"/>
		<path d="M194.72,85.62c0-0.82-0.47-1.24-1.26-1.34c-0.36-0.04-0.73-0.06-1.1-0.06c-10.01,0-20.02,0.01-30.03-0.01
			c-3.99-0.01-6.64,2.11-6.38,6.53c0.02,0.31,0,0.63,0,0.94c0,10.22-0.2,51.94-0.19,62.58c0,0.63,0.04,1.25,0.1,1.88
			c0.07,0.74,0.52,1.15,1.25,1.15c2.51,0.01,5.03,0,7.54-0.02c0.77-0.01,1.12-0.46,1.12-1.21c0-0.42,0.02-0.84,0.02-1.26
			c0.01-4.82,0.02-9.64,0.03-14.47c0.01-3.25,0.01-6.5,0.05-9.75c0.01-1.4,0.17-1.54,1.54-1.54c1.94,0,3.88,0.03,5.82,0.06
			c3.51,0.04,7.02,0.1,10.53,0.13c2.08,0.01,2.45-0.38,2.46-2.49c0.01-1.73,0.01-3.46-0.03-5.19c-0.05-2.2-0.16-2.3-2.33-2.33
			c-5.4-0.07-10.8-0.12-16.19-0.2c-1.58-0.02-1.73-0.17-1.72-1.71c0.01-7.08,0.03-14.15,0.06-21.23c0.01-1.71,0.15-1.83,1.93-1.83
			c3.56-0.01,7.13-0.01,10.69-0.01c4.61,0,9.23,0.01,13.84-0.01c1.53-0.01,2.14-0.46,2.2-1.84
			C194.76,90.13,194.72,87.87,194.72,85.62z"/>
	</g>
	<g>
		<g>
			<path class="st6" d="M269.78,189.78c-0.72-1.9-1.58-3.77-2.94-5.5c-0.95-1.21-2.11-2.31-3.72-3.13
				c-2.27-1.17-4.77-1.43-7.39-0.68c-1.15,0.33-2.22,0.81-3.26,1.29c-0.79,0.36-1.48,0.83-2.22,1.24c-1.14,0.62-2.25,1.26-3.43,1.82
				c-1.31,0.62-2.73,0.74-4.17,0.18c-0.63-0.25-1.29-0.5-1.87-0.81c-1.29-0.69-2.5-1.44-3.8-2.12c-0.98-0.51-2.01-0.98-3.08-1.38
				c-1.2-0.45-2.52-0.65-3.91-0.61c-2.08,0.06-3.77,0.69-5.23,1.66c-1.35,0.89-2.34,1.96-3.16,3.12c-1.69,2.4-2.66,4.95-3.34,7.56
				c-0.92,3.54-1.15,7.11-0.79,10.7c0.36,3.56,1.06,7.08,2.26,10.54c1.13,3.27,2.6,6.44,4.78,9.44c1.46,2.01,3.22,3.88,5.41,5.53
				c1.4,1.06,2.97,1.96,4.88,2.56c2.3,0.72,4.52,0.65,6.71-0.19c0.59-0.23,1.2-0.43,1.82-0.62c0.73-0.21,1.5-0.21,2.24,0.01
				c0.67,0.21,1.33,0.43,1.98,0.67c2.02,0.74,4.1,0.88,6.2,0.21c1.04-0.34,2.09-0.74,2.99-1.23c1.07-0.59,2.06-1.28,2.96-2.01
				c2.72-2.17,4.72-4.67,6.26-7.33c3.82-6.61,5.38-13.52,5.67-20.48C271.52,196.62,271.07,193.16,269.78,189.78z"/>
			<path class="st7" d="M241.57,171.17c1.22-0.05,1.89,0.25,2.3,0.85c0.33,0.48,0.61,0.99,0.82,1.51c1.13,2.78,1.78,5.64,2.17,8.55
				c0.13,0.99-0.85,1.46-1.96,1.63c-0.2,0.03-0.42,0-0.63-0.01c-0.68-0.02-1.11-0.29-1.3-0.84c-0.24-0.7-0.51-1.39-0.8-2.07
				c-0.76-1.76-1.91-3.36-3.19-4.89c-0.4-0.48-0.79-0.95-1.13-1.46c-0.51-0.77-0.39-1.42,0.38-2.03
				C239.26,171.64,240.55,171.3,241.57,171.17z"/>
			<path class="st4" d="M248.03,180.07c-0.47-0.44-0.5-0.97-0.57-1.46c-0.2-1.49,0.24-2.83,1.52-3.95c0.37-0.33,0.76-0.66,1.19-0.93
				c1.41-0.88,2.85-1.73,4.28-2.6c0.1-0.06,0.21-0.13,0.33-0.18c0.55-0.23,0.95-0.13,1.21,0.34c0.53,0.96,0.68,1.97,0.48,3
				c-0.12,0.58-0.33,1.16-0.59,1.71c-0.55,1.14-1.52,1.98-2.92,2.46c-0.74,0.26-1.53,0.43-2.28,0.67c-0.72,0.24-1.42,0.52-2.14,0.78
				C248.37,179.98,248.2,180.02,248.03,180.07z"/>
		</g>
		<g>
			<path class="st6" d="M329.35,189.78c-0.72-1.9-1.58-3.77-2.94-5.5c-0.95-1.21-2.11-2.31-3.72-3.13
				c-2.27-1.17-4.77-1.43-7.39-0.68c-1.15,0.33-2.22,0.81-3.26,1.29c-0.79,0.36-1.48,0.83-2.22,1.24c-1.14,0.62-2.25,1.26-3.43,1.82
				c-1.31,0.62-2.73,0.74-4.17,0.18c-0.63-0.25-1.29-0.5-1.87-0.81c-1.29-0.69-2.5-1.44-3.8-2.12c-0.98-0.51-2.01-0.98-3.08-1.38
				c-1.2-0.45-2.52-0.65-3.91-0.61c-2.08,0.06-3.77,0.69-5.23,1.66c-1.35,0.89-2.34,1.96-3.16,3.12c-1.69,2.4-2.66,4.95-3.34,7.56
				c-0.92,3.54-1.15,7.11-0.79,10.7c0.36,3.56,1.06,7.08,2.26,10.54c1.13,3.27,2.6,6.44,4.78,9.44c1.46,2.01,3.22,3.88,5.41,5.53
				c1.4,1.06,2.97,1.96,4.88,2.56c2.3,0.72,4.52,0.65,6.71-0.19c0.59-0.23,1.2-0.43,1.82-0.62c0.73-0.21,1.5-0.21,2.24,0.01
				c0.67,0.21,1.33,0.43,1.98,0.67c2.02,0.74,4.1,0.88,6.2,0.21c1.04-0.34,2.09-0.74,2.99-1.23c1.07-0.59,2.06-1.28,2.96-2.01
				c2.72-2.17,4.72-4.67,6.26-7.33c3.82-6.61,5.38-13.52,5.67-20.48C331.08,196.62,330.63,193.16,329.35,189.78z"/>
			<path class="st7" d="M301.13,171.17c1.22-0.05,1.89,0.25,2.3,0.85c0.33,0.48,0.61,0.99,0.82,1.51c1.13,2.78,1.78,5.64,2.17,8.55
				c0.13,0.99-0.85,1.46-1.96,1.63c-0.2,0.03-0.42,0-0.63-0.01c-0.68-0.02-1.11-0.29-1.3-0.84c-0.24-0.7-0.51-1.39-0.8-2.07
				c-0.76-1.76-1.91-3.36-3.19-4.89c-0.4-0.48-0.79-0.95-1.13-1.46c-0.51-0.77-0.39-1.42,0.38-2.03
				C298.83,171.64,300.11,171.3,301.13,171.17z"/>
			<path class="st4" d="M307.59,180.07c-0.47-0.44-0.5-0.97-0.57-1.46c-0.2-1.49,0.24-2.83,1.52-3.95c0.37-0.33,0.76-0.66,1.19-0.93
				c1.41-0.88,2.85-1.73,4.28-2.6c0.1-0.06,0.21-0.13,0.33-0.18c0.55-0.23,0.95-0.13,1.21,0.34c0.53,0.96,0.68,1.97,0.48,3
				c-0.12,0.58-0.33,1.16-0.59,1.71c-0.55,1.14-1.52,1.98-2.92,2.46c-0.74,0.26-1.53,0.43-2.28,0.67c-0.72,0.24-1.42,0.52-2.14,0.78
				C307.93,179.98,307.76,180.02,307.59,180.07z"/>
		</g>
		<path class="st6" d="M210.29,205.93c-0.12,3.22-0.22,7.94-0.5,12.65c-0.13,2.27-0.58,4.51-0.94,6.76
			c-0.1,0.65-0.35,1.27-0.58,1.89c-1.15,3.23-3.9,5.63-7.26,6.31c-3.43,0.69-6.78,0.47-10.1-0.55c-2.04-0.63-3.28-1.9-3.44-4.09
			c-0.06-0.81-0.11-1.62-0.14-2.44c-0.08-1.83-0.12-3.66-0.22-5.49c-0.03-0.56-0.14-1.13-0.28-1.68c-0.17-0.66-0.6-1.16-1.23-1.43
			c-1.3-0.56-2.62-0.45-3.94-0.04c-0.54,0.17-0.75,0.63-0.8,1.13c-0.07,0.81-0.08,1.63-0.13,2.44c-0.14,1.95-0.28,3.89-0.46,5.84
			c-0.05,0.52-0.23,1.03-0.39,1.53c-0.84,2.66-2.68,4.05-5.44,4.37c-1.97,0.23-3.9,0.13-5.82-0.29c-2.66-0.59-4.51-2.17-5.48-4.73
			c-1-2.64-1.5-5.41-1.93-8.18c-1.07-6.92-1.78-13.89-2.24-20.87c-0.36-5.44-0.5-10.9-0.69-16.35c-0.08-2.28,0.16-4.56,0.69-6.78
			c0.12-0.51,0.28-1.02,0.48-1.52c0.54-1.35,1.71-2.35,3.13-2.65c0.94-0.2,1.9-0.39,2.86-0.42c3.05-0.09,6.11-0.11,9.14,0.4
			c1.19,0.2,2.36,0.6,3.52,0.95c1.79,0.54,2.71,1.89,3.1,3.61c0.19,0.87,0.27,1.77,0.28,2.66c0.04,3.13,0,6.27,0.03,9.41
			c0.01,0.81,0.07,1.63,0.23,2.42c0.29,1.44,1.24,2.25,2.6,2.33c1.35,0.09,2.39-0.61,2.84-2.02c0.23-0.73,0.38-1.51,0.4-2.27
			c0.07-2.28,0.04-4.56,0.08-6.84c0.03-1.55,0.04-3.1,0.17-4.63c0.24-2.85,1.66-4.43,4.43-5.1c2.42-0.59,4.85-0.4,7.29-0.16
			c0.81,0.08,1.61,0.25,2.41,0.36c2.32,0.32,3.83,1.69,4.77,3.74c0.35,0.77,0.63,1.59,0.84,2.41c1.3,5.06,2.04,10.21,2.25,15.43
			C209.98,197.51,210.11,200.96,210.29,205.93z M164.14,186.29c-0.09,1.29-0.12,2.59-0.05,3.89c0.18,3.91,0.53,7.81,1.06,11.68
			c0.04,0.28,0.11,0.56,0.22,0.82c0.21,0.47,0.74,0.74,1.25,0.65c0.52-0.09,0.81-0.43,0.9-0.94c0.05-0.32,0.02-0.65-0.01-0.97
			c-0.25-2.55-0.58-5.09-0.76-7.65c-0.32-4.67-0.35-9.35,0.25-14.01c0.03-0.2,0.06-0.41,0.03-0.61c-0.07-0.58-0.39-0.99-1.03-1.06
			c-0.46-0.05-0.89,0.19-1.1,0.61c-0.16,0.31-0.26,0.67-0.29,1.01C164.44,181.91,164.29,184.1,164.14,186.29z"/>
		<path class="st6" d="M77.88,234.23c-4.26-0.01-8.14-0.23-11.96-1.04c-1.12-0.24-2.22-0.56-3.3-0.95
			c-4.31-1.54-6.74-4.66-7.37-9.13c-0.41-2.95-0.18-5.89,0.9-8.71c1.67-4.38,5.22-5.85,9.47-3.86c1,0.47,1.91,1.11,2.87,1.65
			c1.92,1.09,3.8,2.26,5.79,3.21c2.01,0.95,4.15,1.5,6.43,1.13c1.86-0.3,2.62-1.64,1.74-3.29c-0.35-0.66-0.93-1.24-1.52-1.72
			c-1.19-0.99-2.64-1.47-4.1-1.88c-2.44-0.68-4.91-1.28-7.34-1.99c-3.41-0.99-6.61-2.44-9.3-4.82c-3.84-3.4-6.03-7.66-6.17-12.79
			c-0.17-6.2,2.41-11.09,7.61-14.53c2.98-1.98,6.34-3.03,9.83-3.66c5.97-1.08,11.97-1.22,17.95-0.06c1.23,0.24,2.45,0.67,3.6,1.18
			c1.94,0.85,3.28,2.37,3.83,4.4c1.36,5.01,0.92,9.82-1.99,14.24c-0.47,0.71-1.06,1.36-1.69,1.93c-1.58,1.41-3.41,1.75-5.36,0.87
			c-1.04-0.47-2.01-1.09-3.01-1.65c-1.5-0.83-2.97-1.72-4.5-2.5c-1.44-0.73-3-1.09-4.61-1.17c-0.72-0.04-1.49,0.03-2.17,0.25
			c-1.38,0.44-1.64,1.68-0.55,2.63c0.57,0.5,1.26,0.92,1.97,1.21c1.85,0.77,3.71,1.51,5.61,2.15c2.77,0.93,5.38,2.2,7.88,3.67
			c1.4,0.83,2.74,1.8,3.98,2.86c3.89,3.29,5.74,7.67,6.51,12.58c0.58,3.71-0.06,7.27-1.48,10.69c-1.63,3.93-4.48,6.56-8.61,7.78
			C85.11,234,81.34,234.33,77.88,234.23z M59.64,190.35c0,0.53-0.04,1.07,0.01,1.59c0.09,1.1,0.56,1.68,1.28,1.65
			c0.73-0.03,1.09-0.63,1.13-1.74c0.06-1.51-0.01-3.05,0.28-4.52c0.84-4.23,3.12-7.41,7.16-9.18c0.22-0.1,0.46-0.2,0.64-0.35
			c0.38-0.3,0.56-0.71,0.41-1.2c-0.17-0.52-0.56-0.83-1.09-0.83c-0.36,0-0.75,0.08-1.06,0.25c-0.94,0.5-1.91,0.97-2.74,1.6
			C61.46,180.84,59.7,185.21,59.64,190.35z"/>
		<path class="st6" d="M104.24,200.63c0.38-11.73,6.72-20.65,18.21-25.99c5.9-2.74,12.19-4.17,18.73-4.29
			c1.55-0.03,3.12,0.15,4.65,0.39c2.22,0.35,3.72,1.69,4.59,3.74c0.95,2.23,1.41,4.59,1.76,6.97c0.27,1.83,0.48,3.68,0.67,5.52
			c0.27,2.69-0.03,5.31-1.19,7.78c-1.39,2.95-3.65,4.61-7.01,4.39c-2.23-0.14-4.44-0.43-6.67-0.66c-2.27-0.24-4.54-0.35-6.8,0.13
			c-4.49,0.96-7.58,4.24-7.99,8.81c-0.49,5.48,3.94,10.37,10.02,8.99c2.18-0.49,3.94-1.67,5.51-3.18c0.79-0.76,1.53-1.57,2.34-2.31
			c2.44-2.2,4.94-2.38,7.55-0.37c3.05,2.35,4.92,5.41,4.81,9.41c-0.04,1.5-0.51,2.9-1.15,4.24c-2.32,4.83-6.04,8.1-11.18,9.55
			c-6.64,1.86-13.18,1.48-19.49-1.49c-5.92-2.79-10.14-7.34-13.1-13.07C105.69,213.74,104.36,207.9,104.24,200.63z M139.89,176.63
			c-1.06,0.12-2.24,0.19-3.41,0.38c-5.1,0.81-9.8,2.74-14.32,5.17c-0.22,0.12-0.44,0.25-0.63,0.41c-0.52,0.44-0.66,1.07-0.38,1.58
			c0.29,0.51,0.89,0.71,1.55,0.48c0.28-0.09,0.52-0.28,0.79-0.4c2.22-1.01,4.41-2.12,6.68-3.01c3.31-1.29,6.75-2.14,10.35-2.1
			c1.76,0.02,3.16,0.55,3.59,2.49c0.02,0.08,0.05,0.16,0.08,0.24c0.36,0.8,0.93,1.14,1.56,0.93c0.7-0.23,0.97-0.87,0.74-1.76
			c-0.67-2.62-2.15-3.92-4.85-4.26C141.1,176.71,140.55,176.69,139.89,176.63z"/>
		<path class="st6" d="M337.23,197.93c0.15-3.49,0.34-9.18,0.69-14.85c0.15-2.39,0.65-4.76,1-7.14c0.04-0.29,0.14-0.56,0.21-0.84
			c0.6-2.52,2.19-3.92,4.76-4.21c0.16-0.02,0.33-0.04,0.5-0.04c4.36-0.07,8.71,0.11,13.04,0.69c0.37,0.05,0.73,0.15,1.09,0.25
			c3.17,0.92,4.85,3.2,4.58,6.5c-0.16,1.89-0.53,3.78-0.94,5.64c-0.93,4.26-1.88,8.51-2.24,12.86c-0.39,4.69-0.42,9.38,0.63,14
			c0.2,0.88,0.57,1.73,0.98,2.54c0.52,1.03,1.4,1.65,2.57,1.71c1.03,0.06,2.07,0.06,3.11,0c1.82-0.11,3.64-0.3,5.46-0.45
			c0.45-0.04,0.91-0.05,1.37-0.01c1.75,0.15,2.93,1.06,3.49,2.73c0.68,2.04,0.54,4.08,0.09,6.14c-0.59,2.72-2.12,4.72-4.55,6.07
			c-2.71,1.51-5.63,2.44-8.62,3.16c-4.69,1.14-9.44,1.89-14.29,1.68c-1.75-0.08-3.46-0.41-5.1-1.03c-2.6-0.98-4.38-2.77-5.33-5.39
			c-0.72-2.01-1.06-4.09-1.33-6.19C337.46,214.57,337.33,207.35,337.23,197.93z M341.3,195.17c0,0.04,0,0.29,0,0.54
			c0,0.75-0.05,1.5,0.01,2.24c0.06,0.68,0.54,1.08,1.14,1.09c0.6,0.01,1.04-0.38,1.17-1.07c0.05-0.24,0.03-0.5,0.05-0.74
			c0.23-3.23,0.39-6.46,0.71-9.68c0.22-2.27,0.59-4.53,1.49-6.66c0.82-1.94,2.14-3.24,4.32-3.48c0.21-0.02,0.41-0.06,0.61-0.11
			c0.78-0.19,1.16-0.62,1.11-1.26c-0.05-0.68-0.59-1.14-1.41-1.08c-2.24,0.17-4.2,0.93-5.61,2.8c-1.02,1.35-1.66,2.87-2.05,4.5
			C341.84,186.43,341.48,190.68,341.3,195.17z"/>
	</g>
	<g>
		<path d="M329.55,303.85c0.06,0.79,0.04,1.37,0.17,1.92c1.65,7.33,3.48,14.62,6.35,21.59c1.5,3.66,3.11,7.28,5.62,10.38
			c1.08,1.33,2.36,2.52,3.64,3.68c0.63,0.57,1.42,1.03,2.46,0.75c1.25-0.98,1.72-2.5,2-3.98c0.53-2.74,1.04-5.5,1.17-8.28
			c0.23-4.71,0.15-9.44,0.22-14.16c0.01-0.96-0.01-1.94,0.14-2.88c0.25-1.59,1.34-2.53,2.93-2.72c1.5-0.18,2.36,0.43,2.65,1.96
			c0.16,0.85,0.28,1.72,0.32,2.58c0.29,6.26,0.49,12.53-0.42,18.76c-0.28,1.9-0.71,3.78-1.18,5.65c-0.45,1.79-1.26,3.43-2.39,4.91
			c-2.96,3.87-7.2,5.14-11.83,3.58c-2.32-0.78-4.33-2.09-6.17-3.67c-2.87-2.47-5.33-5.29-7.32-8.52c-2.03-3.29-3.74-6.73-5.26-10.28
			c-0.37-0.86-0.78-1.7-1.18-2.56c-0.8,0.26-0.58,0.84-0.58,1.24c-0.05,4.05-0.03,8.1-0.1,12.14c-0.04,2.21-0.2,4.43-0.33,6.64
			c-0.12,1.98-1.14,3.46-2.76,4.52c-2.6,1.7-5.41,1.77-7.64-0.54c-1.8-1.86-3.48-3.87-5.04-5.95c-2.66-3.56-4.81-7.44-6.66-11.48
			c-0.35-0.76-0.76-1.5-1.28-2.52c-0.63,1.09-1.12,1.88-1.57,2.7c-1.72,3.13-3.53,6.22-5.96,8.85c-1.5,1.62-3.08,3.23-4.89,4.47
			c-6.05,4.14-12.43,4.15-18.9,0.97c-2.62-1.29-4.86-3.12-6.89-5.2c-3.12-3.2-5.6-6.86-7.64-10.82c-0.38-0.74-0.79-1.47-1.42-2.65
			c-0.27,1.09-0.47,1.7-0.56,2.32c-0.59,4-1.1,8.02-1.75,12.01c-0.26,1.6-0.64,3.23-1.25,4.73c-2.11,5.15-7.63,6.69-12.16,3.45
			c-2.15-1.54-3.75-3.59-5.15-5.8c-3.18-5-5.44-10.4-6.87-16.15c-0.54-2.14-0.98-4.31-1.53-6.77c-0.35,0.48-0.65,0.73-0.72,1.03
			c-0.82,3.47-1.58,6.95-2.41,10.41c-0.69,2.91-1.56,5.76-2.87,8.47c-0.84,1.75-1.85,3.38-3.26,4.74c-3.19,3.07-7.47,3.9-11.46,1.99
			c-1.72-0.82-3.34-1.93-4.8-3.16c-4.34-3.65-7.57-8.19-10.05-13.27c-0.29-0.59-0.66-1.15-1.01-1.71c-0.03-0.05-0.18-0.02-0.46-0.04
			c-0.44,2.1-0.89,4.23-1.34,6.36c-0.42,1.98-0.75,3.98-1.27,5.93c-0.42,1.57-0.9,3.17-1.65,4.61c-2.28,4.39-7.3,5.55-11.27,2.59
			c-1.3-0.97-2.47-2.17-3.51-3.42c-5.11-6.18-8.1-13.26-8.95-21.25c-1-9.41-1.12-18.84-0.9-28.29c0.15-6.65,0.25-13.3,0.14-19.94
			c-0.06-3.65-0.54-7.3-0.98-10.93c-0.17-1.41-0.73-2.78-1.16-4.16c-0.1-0.33-0.41-0.61-0.66-0.97c-1.17,0.63-1.73,1.65-2.34,2.6
			c-2.12,3.27-3.42,6.89-4.45,10.62c-1.46,5.31-2.25,10.75-2.87,16.2c-1.31,11.51-1.65,23.07-1.16,34.64
			c0.18,4.43,0.58,8.84,0.88,13.27c0.09,1.35,0.15,2.69,0.24,4.04c0.23,3.63-4.62,6.07-7.19,5.16c-1.15-0.41-2.05-1.09-2.6-2.16
			c-0.83-1.63-1.66-3.26-2.38-4.94c-2.03-4.72-3.08-9.72-4-14.75c-1.2-6.55-1.73-13.18-2.35-19.79c-0.29-3.07-0.47-6.15-0.71-9.22
			c-0.04-0.45-0.16-0.9-0.29-1.59c-1.62,0.8-2.46,2.11-3.56,3.11c-1.07,0.97-2.08,2-3.14,2.99c-1.13,1.05-2.27,2.09-3.41,3.13
			c-1.06,0.96-2.13,1.92-3.33,3c0.66,0.85,1.22,1.6,1.82,2.33c2.84,3.43,5.32,7.09,7.08,11.2c1.15,2.67,2.02,5.42,2.05,8.36
			c0.06,6.62-2.46,12.19-6.98,16.91c-2.29,2.39-4.96,4.26-8.09,5.44c-4.58,1.73-9.07,1.59-13.38-0.81
			c-7.05-3.94-10.68-10.11-11.29-18.05c-0.29-3.76,0.97-7.22,3.07-10.35c1.63-2.42,3.66-4.47,5.99-6.21
			c1.46-1.09,2.96-2.14,4.61-3.32c-0.46-0.64-0.85-1.27-1.32-1.82c-2.64-3.07-5.34-6.08-7.93-9.19c-2.34-2.82-4.43-5.84-6.14-9.09
			c-2.59-4.92-4.41-10.07-4.26-15.72c0.05-1.82,0.2-3.68,0.64-5.43c1.63-6.54,5.02-12.07,10.05-16.54
			c3.12-2.77,6.79-4.33,11.04-4.36c2.78-0.02,5.36,0.71,7.61,2.33c5.73,4.13,8.19,9.79,7.6,16.78c-0.09,1.03-0.43,2.09-0.89,3.02
			c-0.31,0.64-0.92,1.28-1.56,1.59c-1.51,0.73-2.66-0.22-2.64-1.54c0.04-2.53-0.41-4.99-1.22-7.38c-0.98-2.87-2.47-5.44-4.76-7.48
			c-3.3-2.94-5.97-2.59-8.34,1.11c-1.42,2.22-2.28,4.68-2.81,7.24c-1.31,6.22-0.81,12.27,2.01,18.04c0.72,1.47,1.49,2.92,2.35,4.31
			c3.49,5.59,8.03,10.32,12.45,15.15c0.37-0.14,0.69-0.18,0.89-0.35c4.95-4.16,9.69-8.53,14.15-13.21c1.08-1.14,1.46-2.31,1.43-3.86
			c-0.13-5.88-0.15-11.75-0.17-17.63c0-1.25,0.08-2.51,0.26-3.75c0.67-4.7,5.41-7.28,9.78-5.38c1.71,0.74,2.83,2.04,3.32,3.78
			c0.39,1.38,0.59,2.82,0.76,4.25c0.2,1.61,0.27,3.24,0.89,4.87c0.26-0.98,0.49-1.97,0.77-2.94c0.82-2.77,1.5-5.59,2.54-8.27
			c0.79-2.04,1.92-4,3.14-5.83c4.77-7.14,14.76-6.96,20.08-1.17c1.72,1.88,2.89,4.08,3.72,6.47c0.98,2.84,1.48,5.79,1.74,8.77
			c0.59,6.83,0.57,13.66,0.41,20.51c-0.18,7.71-0.29,15.42-0.24,23.12c0.03,5.11,0.75,10.18,1.39,15.25
			c0.48,3.83,1.05,7.64,2.26,11.31c0.32,0.97,0.53,2.01,1.36,2.89c0.87-0.62,0.92-1.56,1.11-2.32c1.04-4.21,2.02-8.43,2.98-12.65
			c0.55-2.44,1.06-4.9,1.48-7.36c0.18-1.02,0.29-2.13,0.11-3.14c-1.54-8.78-1.93-17.62-1.51-26.5c0.28-5.79,1.12-11.51,2.89-17.05
			c1.18-3.68,2.68-7.22,4.95-10.4c2.87-4.02,6.67-6.62,11.52-7.62c4.41-0.91,8.61-0.26,12.63,1.72c2.79,1.38,5.22,3.26,7.48,5.38
			c0.62,0.58,1.25,1.13,2.1,1.89c0.24-1.01,0.41-1.74,0.58-2.47c0.27-1.12,0.43-2.28,0.83-3.36c1.84-4.96,8.18-5.04,10.88-2.61
			c0.81,0.73,1.44,1.59,1.64,2.66c0.26,1.32,0.53,2.66,0.54,3.99c0.04,2.89-0.05,5.78-0.15,8.67c-0.24,6.84-0.57,13.67-0.76,20.51
			c-0.26,9.07,0.25,18.1,1.33,27.12c0.63,5.27,1.29,10.52,2.51,15.68c0.58,2.43,1.45,4.78,2.24,7.16c0.17,0.52,0.54,0.97,1.02,1.82
			c0.33-1.19,0.63-1.99,0.77-2.82c1.15-6.54,2.2-13.11,3.44-19.63c0.68-3.57,0.46-6.99-0.3-10.55c-1.81-8.45-2.1-17.01-0.83-25.58
			c0.68-4.6,1.98-9.03,4.05-13.21c1.12-2.26,2.47-4.37,4.28-6.14c2.76-2.71,5.99-4.5,9.9-4.89c4.99-0.49,9.12,1.24,12.29,5.06
			c1.28,1.54,2.35,3.31,3.2,5.13c3.11,6.67,4.5,13.69,3.97,21.06c-0.03,0.38-0.06,0.77-0.09,1.15c-0.06,0.9-0.29,1.73-1.1,2.24
			c-0.9,0.56-1.82,0.57-2.73-0.09c-0.69-1.19-0.7-2.55-0.83-3.89c-0.4-3.94-1.06-7.83-2.32-11.59c-1.08-3.22-2.45-6.3-4.53-8.99
			c-0.81-1.05-1.84-1.96-2.87-2.8c-0.7-0.57-1.47-0.43-2.03,0.32c-0.75,1-1.46,2.04-2.03,3.14c-2.07,3.96-3.39,8.18-4.15,12.57
			c-1.75,10.07-0.75,19.97,1.98,29.74c1.53,5.49,3.61,10.77,6.07,15.9c1.3,2.7,2.8,5.28,4.8,7.53c1.29,1.45,2.75,2.67,4.54,3.5
			c1.64,0.76,3.23,0.72,4.63-0.39c1.27-1.02,2.49-2.13,3.55-3.36c2.28-2.64,4.02-5.65,5.65-8.71c1.04-1.96,1.94-3.98,2.98-5.94
			c0.64-1.2,0.62-2.32,0.2-3.6c-1.83-5.69-3.23-11.49-4.51-17.33c-1.71-7.82-3.02-15.7-3.67-23.68c-0.46-5.59-0.4-11.17,0.98-16.66
			c0.93-3.7,2.46-7.1,5.06-9.94c2.3-2.52,5.06-4.11,8.57-4.19c3.52-0.09,6.36,1.3,8.63,3.92c1.48,1.7,2.51,3.68,3.11,5.82
			c0.68,2.4,1.31,4.85,1.66,7.31c0.76,5.47,0.61,10.95-0.18,16.42c-1.23,8.52-3.65,16.73-6.32,24.89c-0.89,2.71-0.98,2.73-0.14,5.28
			c1.9,5.76,3.89,11.49,5.85,17.23c0.12,0.35,0.32,0.66,0.47,0.97c0.68-0.11,0.52-0.58,0.54-0.89c0.38-5.29,0.67-10.58,1.11-15.86
			c1.16-13.66,3.36-27.14,7.45-40.26c1.35-4.33,3.02-8.53,5.35-12.45c1.28-2.16,2.76-4.19,4.6-5.92c3.42-3.22,7.47-4.66,12.16-4.19
			c4.55,0.45,7.98,2.68,10.25,6.62c1.92,3.33,2.72,6.98,2.9,10.78c0.18,3.88-0.37,7.69-1.37,11.43c-0.88,3.26-2.12,6.39-3.55,9.45
			c-3.96,8.42-10.42,14.19-18.87,17.88C332.3,302.79,331.04,303.25,329.55,303.85z M206.93,340.02c1.23-0.76,1.8-2.13,2.31-3.45
			c0.9-2.33,1.81-4.68,2.4-7.1c2.38-9.72,4.63-19.47,6.95-29.2c0.38-1.61,0.5-3.22,0.5-4.86c-0.02-3.76-0.01-7.51,0.08-11.27
			c0.11-4.23,0.33-8.47,0.49-12.7c0.04-0.95,0.12-1.88-0.55-2.75c-2.68-3.45-5.69-6.55-9.59-8.63c-1.09-0.58-2.3-0.99-3.5-1.28
			c-1.61-0.39-3.08,0.09-4.18,1.35c-0.69,0.79-1.32,1.66-1.87,2.55c-1.48,2.39-2.48,4.99-3.37,7.64c-2.67,7.96-3.27,16.2-3.17,24.51
			c0.11,8.99,1.49,17.84,3.29,26.62c0.87,4.25,2.14,8.39,4.19,12.26c0.95,1.79,1.99,3.53,3.45,4.96
			C205.05,339.35,205.72,340.08,206.93,340.02z M340.15,255.16c-1.95,0.74-3.13,2.01-4.27,3.3c-2.18,2.47-3.83,5.29-5.17,8.29
			c-3.94,8.85-6.1,18.19-7.52,27.72c-0.06,0.43,0.05,0.88,0.08,1.34c1.19,0.06,2-0.5,2.81-0.97c4.06-2.35,7.49-5.4,10.02-9.36
			c2.88-4.5,4.69-9.44,5.68-14.69c0.48-2.57,0.68-5.15,0.49-7.75C342.08,260.37,341.78,257.7,340.15,255.16z M97.25,313.3
			c-2.35,1.51-4.76,3.09-6.74,5.23c-2.18,2.35-3.51,5.08-3.49,8.32c0.05,7.52,5,12.68,10.15,14.37c3.52,1.15,6.02,0.24,7.77-2.97
			c0.41-0.75,0.69-1.59,0.94-2.41c0.62-2.07,0.63-4.2,0.29-6.3c-1.03-6.3-4.22-11.49-8.51-16.08
			C97.61,313.39,97.49,313.38,97.25,313.3z M303.31,291.3c1.44-4.98,2.46-9.58,3.12-14.25c0.66-4.69,0.82-9.4,0.06-14.11
			c-0.51-3.15-1.28-6.22-2.84-9.04c-0.25-0.45-0.39-1.09-1.25-1.01c-0.17,0.4-0.38,0.83-0.53,1.27c-1.56,4.62-2.02,9.39-1.91,14.24
			c0.16,7.34,1.31,14.57,2.65,21.77C302.65,290.42,302.89,290.63,303.31,291.3z"/>
	</g>
</g>
</svg>
