<?xml version="1.0" encoding="utf-8"?>
<!-- Generator: Adobe Illustrator 25.2.1, SVG Export Plug-In . SVG Version: 6.00 Build 0)  -->
<svg version="1.1" id="Calque_1" xmlns="http://www.w3.org/2000/svg" xmlns:xlink="http://www.w3.org/1999/xlink" x="0px" y="0px"
	 viewBox="0 0 432 432" style="enable-background:new 0 0 432 432;" xml:space="preserve">
<style type="text/css">
	.st0{fill:#E0AAAF;}
	.st1{fill:#F9D53D;}
	.st2{fill:#FBB03B;}
	.st3{fill:#CCCCCC;}
	.st4{fill:#8CC63F;}
	.st5{fill:#C5D8A7;}
	.st6{fill:#C44750;}
	.st7{fill:#998675;}
	.st8{fill:#C7B299;}
	.st9{fill:none;}
	.st10{fill:#29ABE2;}
	.st11{fill:#B3B3B3;}
	.st12{fill:#C79C52;}
	.st13{fill:#65C8D0;}
	.st14{fill:#BA9BC9;}
	.st15{fill:#A57A7F;}
	.st16{fill:#FFFFFF;}
</style>
<g>
	<path class="st3" d="M324.9,357.55c-0.14-0.21-0.33-0.39-0.5-0.57c-8.24-8.69-16.48-17.38-24.71-26.08
		c-5.21-5.5-10.42-10.99-15.63-16.49c-0.23-0.23-0.44-0.48-0.7-0.69c-0.43-0.36-0.92-0.49-1.47-0.26c-0.58,0.23-0.86,0.65-0.82,1.32
		c0.02,0.1,0.04,0.27,0.08,0.44c0.3,1.23,0.6,2.46,0.9,3.68c0.31,1.25,0.62,2.5,0.92,3.75l2.89-0.5c0.58-0.1,1.15,0.25,1.25,0.78
		c0.01,0.05,0.02,0.1,0.02,0.15c0.02,0.48-0.35,0.91-0.88,1l-2.82,0.49c0.41,1.63,0.8,3.24,1.2,4.87l3.28-0.57
		c0.58-0.1,1.15,0.25,1.26,0.78c0.01,0.05,0.01,0.1,0.01,0.15c0.02,0.48-0.35,0.91-0.88,1l-3.21,0.56c0.45,1.83,0.9,3.65,1.34,5.47
		l3.41-0.59c0.58-0.1,1.15,0.25,1.26,0.78c0.01,0.05,0.01,0.1,0.02,0.15c0.02,0.48-0.34,0.91-0.88,1l-3.34,0.58
		c0.22,0.88,0.43,1.76,0.64,2.64c0.2,0.8,0.39,1.61,0.59,2.41l3.78-0.65c0.58-0.1,1.15,0.25,1.26,0.78c0.01,0.05,0.01,0.1,0.02,0.15
		c0.02,0.48-0.35,0.91-0.88,1l-3.71,0.64c0.43,1.74,0.86,3.49,1.29,5.23l3.66-0.63c0.58-0.1,1.15,0.25,1.25,0.78
		c0.01,0.05,0.02,0.1,0.02,0.15c0.02,0.48-0.35,0.91-0.88,1l-3.59,0.62c0.44,1.78,0.87,3.54,1.31,5.32l3.99-0.69
		c0.58-0.1,1.15,0.25,1.25,0.78c0.01,0.05,0.02,0.1,0.02,0.15c0.02,0.48-0.35,0.91-0.88,1l-3.92,0.68c0.37,1.53,0.74,3.06,1.12,4.58
		c0.04,0.17,0.1,0.34,0.17,0.5c0.26,0.6,0.72,0.88,1.42,0.85c0.27-0.01,0.53-0.07,0.78-0.13c3.12-0.72,6.23-1.43,9.35-2.14
		c6.12-1.4,12.23-2.81,18.35-4.21c0.33-0.08,0.68-0.15,0.99-0.27C325.11,358.98,325.35,358.22,324.9,357.55z M299.36,357.41
		c-0.1-0.17-0.22-0.27-0.24-0.39c-1.83-7.21-3.64-14.41-5.46-21.62c-0.01-0.03,0.02-0.07,0.04-0.12c0.35,0.02,0.47,0.3,0.65,0.49
		c3.07,3.25,6.13,6.51,9.2,9.77c2.49,2.65,4.99,5.29,7.47,7.94c0.24,0.27,0.47,0.54,0.83,0.94
		C307.58,355.45,303.49,356.45,299.36,357.41z"/>
	<path d="M268.71,295.97c0.4-1.73,0.79-3.47,1.21-5.19c1.93-7.81,4.51-15.39,8.07-22.62c0.98-1.99,2.14-3.91,3.34-5.78
		c1.17-1.83,2.67-3.4,4.46-4.67c2.18-1.54,4.58-2.19,7.23-1.86c2.85,0.36,4.96,1.85,6.4,4.32c1.2,2.07,1.77,4.35,2.23,6.67
		c0.68,3.44,1,6.93,1.11,10.43c0.12,3.88,0.1,7.77,0.17,11.65c0.06,3.44,0.1,6.88,0.26,10.31c0.17,3.83,0.91,7.58,1.86,11.29
		c0.43,1.7,1.18,3.22,2.96,4.15c0.33-0.24,0.79-0.43,0.99-0.76c0.55-0.92,1.08-1.88,1.47-2.88c0.94-2.45,1.43-5.02,1.86-7.59
		c0.8-4.78,1.33-9.58,1.63-14.42c0.13-2.16,0.26-4.32,0.41-6.48c0.05-0.7,0.16-1.39,0.24-2.09c0.15-1.33,1.61-2.06,2.91-1.72
		c0.54,0.14,0.89,0.5,0.96,1.06c0.05,0.44,0.07,0.89,0.06,1.33c-0.24,8.28-0.69,16.54-2.36,24.69c-0.41,1.99-0.93,3.97-1.54,5.9
		c-0.36,1.14-0.91,2.25-1.55,3.26c-2.16,3.4-7.23,5.97-12.36,2.44c-3.14-2.16-4.99-5.22-5.95-8.84c-0.7-2.66-1.02-5.39-1.12-8.12
		c-0.18-5.35-0.29-10.69-0.36-16.04c-0.06-4.53-0.25-9.04-0.8-13.53c-0.27-2.15-0.65-4.28-1.34-6.34c-0.24-0.72-0.48-1.45-1.08-2.07
		c-0.7,0.17-1.25,0.61-1.7,1.12c-1.05,1.19-2.11,2.39-3.03,3.68c-1.44,2.03-2.54,4.26-3.58,6.52c-3.93,8.5-6.52,17.39-7.69,26.68
		c-0.41,3.22-0.7,6.45-1.05,9.68c-0.04,0.38-0.05,0.76-0.1,1.14c-0.32,2.75-2.74,4.3-5.04,4.32c-1.56,0.02-2.66-0.76-3.39-2.09
		c-1.17-2.12-2.33-4.25-3.03-6.58c-0.93-3.04-1.77-6.11-2.65-9.17c-0.17-0.58-0.33-1.16-0.59-2.08c-0.25,0.82-0.42,1.29-0.54,1.77
		c-0.77,3.15-1.48,6.32-2.3,9.46c-0.4,1.53-0.97,3.03-1.55,4.5c-0.47,1.19-1.18,2.26-2.09,3.17c-2.07,2.11-5.42,3.28-8.91,1.24
		c-1.56-0.92-2.84-2.15-3.96-3.55c-2.02-2.51-3.41-5.37-4.53-8.36c-1.43-3.83-2.35-7.79-3.05-11.81c-0.13-0.73-0.23-1.47-0.61-2.43
		c-0.33,1.24-0.59,2.22-0.84,3.19c-1.3,4.92-2.57,9.85-3.91,14.76c-0.37,1.34-0.91,2.64-1.45,3.93c-0.5,1.19-1.29,2.2-2.33,2.98
		c-2.2,1.63-4.54,1.86-7,0.6c-1.33-0.68-2.38-1.7-3.33-2.83c-2.43-2.85-4.13-6.11-5.37-9.62c-0.88-2.47-1.45-5.01-1.93-7.58
		c-0.12-0.68-0.27-1.35-0.48-2.4c-0.35,0.8-0.57,1.25-0.75,1.71c-1.24,3.2-2.46,6.42-3.73,9.61c-0.42,1.06-0.95,2.09-1.5,3.09
		c-0.68,1.24-1.57,2.32-2.68,3.21c-2.73,2.19-5.71,2.67-8.94,1.25c-1.47-0.64-2.77-1.57-3.96-2.63c-3.05-2.71-5.35-5.96-7.02-9.67
		c-0.42-0.93-0.77-1.89-1.17-2.82c-0.12-0.27-0.31-0.51-0.59-0.94c-0.33,1.12-0.6,2.02-0.87,2.93c-0.91,2.98-1.8,5.97-2.73,8.94
		c-0.54,1.71-1.25,3.34-2.26,4.83c-0.61,0.91-1.33,1.71-2.23,2.34c-1.8,1.26-4.37,1.47-6.38-0.2c-1.34-1.11-2.43-2.43-3.32-3.91
		c-2.25-3.75-3.76-7.79-4.54-12.09c-0.81-4.47-1-8.99-1.01-13.51c-0.01-4.84,0.16-9.68,0.23-14.52c0.06-3.69,0.1-7.39-0.36-11.07
		c-0.21-1.64-0.51-3.27-0.8-4.89c-0.07-0.37-0.26-0.71-0.44-1.2c-0.34,0.3-0.66,0.49-0.87,0.77c-1.59,2.1-2.73,4.44-3.65,6.9
		c-1.5,4.01-2.41,8.18-3.05,12.4c-1.61,10.69-1.77,21.43-1.29,32.21c0.05,1.15,0.04,2.3,0.17,3.43c0.31,2.86-2.77,4.86-4.92,4.67
		c-0.96-0.08-1.73-0.46-2.25-1.25c-0.35-0.53-0.6-1.12-0.87-1.69c-1.6-3.44-2.43-7.09-3.06-10.8c-1.19-6.97-1.9-14-2.37-21.06
		c-0.36-5.34-0.9-10.66-2.21-15.87c-0.12-0.46-0.3-0.9-0.57-1.68c-0.43,0.94-0.74,1.55-1,2.19c-1.37,3.45-2.14,7.06-2.65,10.73
		c-1.05,7.66-1.35,15.35-0.9,23.06c0.23,4.07,0.45,8.14,0.68,12.21c0.14,2.49-1.12,4.19-3.5,4.71c-1.33,0.29-2.39-0.12-3.15-1.24
		c-0.32-0.47-0.58-0.99-0.84-1.5c-2.34-4.58-3.74-9.43-4.56-14.51c-1.64-10.18-1.75-20.41-1.52-30.67
		c0.09-3.89,0.26-7.77,0.77-11.62c0.11-0.82,0.24-1.64,0.47-2.43c0.79-2.69,3.38-4.19,6.11-3.59c1.22,0.27,2.08,0.98,2.34,2.23
		c0.14,0.68,0.23,1.39,0.22,2.08c-0.05,2.29-0.18,4.58-0.24,6.87c-0.04,1.52-0.01,3.04-0.01,4.75c0.4-0.51,0.45-1.01,0.6-1.46
		c0.56-1.62,1.04-3.28,1.66-4.88c0.39-1,0.91-1.96,1.47-2.88c1.75-2.86,5.5-3.82,8.22-2.91c1.45,0.49,2.59,1.33,3.46,2.57
		c0.78,1.1,1.29,2.33,1.72,3.61c0.93,2.79,1.47,5.66,1.89,8.56c0.18,1.25,0.33,2.51,0.53,4c0.42-0.76,0.51-1.37,0.62-1.99
		c0.65-3.57,1.5-7.1,2.7-10.53c0.91-2.59,2.05-5.07,3.56-7.38c0.91-1.39,1.96-2.68,3.33-3.65c1.6-1.14,3.37-1.76,5.37-1.66
		c2.38,0.12,4.28,1.12,5.67,3.06c0.95,1.31,1.51,2.8,1.91,4.35c0.72,2.79,1.1,5.64,1.14,8.5c0.05,4.52,0.01,9.04-0.12,13.56
		c-0.17,5.67-0.36,11.34,0.2,16.99c0.42,4.24,0.65,8.51,1.52,12.7c0.29,1.43,0.74,2.83,1.19,4.22c0.18,0.58,0.38,1.2,1.06,1.65
		c0.25-0.31,0.54-0.56,0.7-0.88c0.65-1.31,1.37-2.6,1.88-3.96c2.02-5.43,3.6-11,5.12-16.6c0.21-0.76,0.18-1.49,0.02-2.25
		c-0.78-3.88-1.21-7.8-1.35-11.75c-0.19-5.65,0.45-11.19,2.13-16.59c0.84-2.69,1.98-5.24,3.65-7.53c2.06-2.82,4.7-4.81,8.17-5.6
		c2.36-0.53,4.68-0.41,6.97,0.35c2.33,0.78,4.39,2.02,6.26,3.6c1.96,1.65,3.64,3.56,5.2,5.59c0.33,0.43,0.71,0.83,1.23,1.45
		c0.25-0.96,0.42-1.68,0.62-2.39c0.34-1.25,0.86-2.4,1.84-3.29c0.89-0.8,1.93-1.25,3.13-1.21c1.63,0.06,3.06,1.2,3.42,2.85
		c0.24,1.11,0.31,2.27,0.28,3.41c-0.07,2.42-0.25,4.83-0.39,7.25c-0.39,7.06-0.4,14.13,0.03,21.19c0.43,6.99,2.02,13.71,4.37,20.27
		c0.51,1.43,1.19,2.81,1.85,4.19c0.23,0.49,0.62,0.89,1.05,1.49c0.36-0.6,0.67-1,0.85-1.46c0.56-1.42,1.13-2.84,1.6-4.29
		c2.65-8.25,4.8-16.63,6.79-25.05c0.24-1,0.26-1.99,0.2-3.03c-0.16-2.86-0.21-5.73-0.31-8.59c-0.02-0.69-0.06-1.39-0.09-2
		c-0.53-0.49-1.06-0.32-1.54-0.26c-1.64,0.23-3.25,0.64-4.77,1.31c-0.58,0.26-1.17,0.52-1.79,0.66c-0.41,0.09-0.89,0.02-1.29-0.11
		c-0.63-0.2-0.85-0.86-0.45-1.39c0.38-0.5,0.82-0.97,1.32-1.35c1.86-1.42,4.03-2.15,6.29-2.62c0.68-0.14,1.37-0.26,2.15-0.41
		c0.06-0.53,0.13-1.02,0.17-1.51c0.18-2.8,0.28-5.6,0.54-8.38c0.14-1.51,0.42-3.03,0.82-4.5c0.8-2.88,3.31-4.25,6.23-3.54
		c1.62,0.39,2.59,1.41,2.59,3.09c0.01,2.03-0.19,4.07-0.28,6.1c-0.11,2.8-0.21,5.6-0.3,8.4c-0.01,0.25,0.06,0.5,0.08,0.73
		c1.57,0.68,13.99,3.07,16.36,3.14c0.06-0.34,0.16-0.7,0.19-1.06c0.25-3.37,0.56-6.73,1.44-10c0.75-2.77,1.68-5.48,3.08-8
		c0.96-1.74,2.08-3.36,3.58-4.69c2.73-2.42,5.92-3.46,9.53-3.03c2.73,0.33,4.95,1.64,6.51,3.92c2.37,3.46,3.1,7.25,1.92,11.28
		c-2.15,7.32-6.93,12.15-14.19,14.52c-0.66,0.22-1.34,0.38-2.1,0.6c-0.06,0.35-0.19,0.72-0.18,1.07c0.19,8.42,1.03,16.77,3.05,24.97
		c0.07,0.3,0.22,0.58,0.33,0.88C268.52,295.94,268.61,295.95,268.71,295.97z M192.12,307.09c0.69-0.31,1.11-0.88,1.46-1.47
		c0.61-1.04,1.22-2.09,1.71-3.19c2.92-6.51,5.33-13.2,7.41-20.02c0.22-0.71,0.32-1.49,0.32-2.24c-0.02-5.28-0.18-10.56,0.22-15.83
		c0.04-0.6-0.08-1.11-0.43-1.61c-2-2.8-4.09-5.52-6.64-7.86c-1.27-1.16-2.6-2.26-4.18-2.99c-0.97-0.45-2.01-0.76-3.04-1.06
		c-0.86-0.25-1.66,0-2.29,0.62c-0.63,0.63-1.28,1.26-1.77,1.99c-0.67,1-1.27,2.06-1.77,3.16c-1.68,3.68-2.63,7.57-3.04,11.57
		c-0.47,4.58-0.2,9.15,0.44,13.7c0.91,6.49,3.07,12.58,6.02,18.41c0.92,1.82,1.99,3.55,3.33,5.1
		C190.5,306.08,191.13,306.81,192.12,307.09z M239.05,266.98c-0.37,0.67-0.2,1.38-0.2,2.07c0.07,6.5,0.56,12.96,1.56,19.38
		c1.07,6.82,3.08,13.37,5.54,19.79c0.23,0.59,0.51,1.16,0.82,1.72c0.28,0.5,0.58,0.99,0.95,1.42c0.22,0.26,0.57,0.41,0.88,0.62
		c0.73-0.82,1.14-1.68,1.47-2.57c0.65-1.79,1.35-3.57,1.85-5.41c1.34-4.9,2.55-9.84,3.87-14.75c0.55-2.05,0.95-4.08,0.41-6.19
		c-0.05-0.18-0.04-0.38-0.05-0.57c-0.25-4.06-0.5-8.12-0.76-12.18c-0.02-0.24-0.1-0.48-0.17-0.84c-4.95-0.55-9.81-1.45-14.67-2.41
		c-0.31-0.06-0.63-0.1-0.95-0.12C239.43,266.91,239.25,266.96,239.05,266.98z M265.13,265.19c0.27,0.1,0.34,0.14,0.39,0.13
		c5.77-1.14,10.93-6.28,11.96-12.02c0.5-2.78,0.17-5.45-1.39-7.89c-0.48-0.76-1.06-1.43-1.85-1.89c-0.75-0.44-1.5-0.44-2.1,0.17
		c-0.67,0.67-1.3,1.4-1.82,2.19c-1.67,2.51-2.76,5.28-3.61,8.16C265.66,257.68,265.22,261.38,265.13,265.19z"/>
	<g>
		<path d="M179.67,234.06c-0.53-0.03-1.07-0.04-1.6-0.06c-0.56-0.02-0.98-0.29-1.21-0.79c-0.3-0.65-0.58-1.32-0.82-1.99
			c-0.56-1.53-1.14-3.04-2.16-4.34c-0.29-0.36-0.22-0.54,0.21-0.74c0.34-0.16,0.69-0.27,1.03-0.43c3.38-1.6,6.42-5.03,6.16-10.07
			c-0.25-4.96-2.78-8.51-7.22-10.68c-2.32-1.14-4.82-1.5-7.37-1.51c-1.86-0.01-3.71,0.15-5.48,0.83c-1.36,0.53-1.86,1.23-1.85,2.69
			c0.05,4.65,0.21,24.43,0.25,29.03c0,0.32,0.05,0.65,0.08,0.97c0.03,0.33,0.21,0.51,0.54,0.51c1.07-0.01,2.13,0,3.2-0.06
			c0.57-0.04,0.63-0.17,0.63-0.78c0-0.81-0.01-1.63-0.01-2.44c-0.01-1.42-0.02-4.13-0.02-5.55c0-0.69,0.13-0.79,0.81-0.85
			c1.37-0.11,2.68,0.14,3.94,0.69c1,0.44,1.77,1.12,2.21,2.12c0.32,0.72,0.58,1.47,0.88,2.2c0.33,0.82,0.61,1.66,1.03,2.43
			c1.54,2.87,4.04,3.54,6.96,3.13c0.48-0.07,0.63-0.2,0.63-0.68c0.01-1-0.02-2-0.09-2.99C180.35,234.13,180.25,234.09,179.67,234.06
			z M169.93,222.61c-1.7,0.25-3.42,0.34-5.14,0.24c-0.8-0.05-0.85-0.1-0.85-0.93c0-2.14-0.11-10.59-0.11-12.68
			c0-0.19-0.02-0.37,0.01-0.56c0.05-0.4,0.26-0.63,0.67-0.68c2.77-0.31,5.49-0.18,8.01,1.14c2.73,1.43,4.23,3.73,4.31,6.82
			c0.06,2.5-1.14,4.34-3.32,5.54C172.39,222.13,171.17,222.43,169.93,222.61z"/>
		<path d="M157.11,219.72c-0.13-1.87-0.5-3.7-1.14-5.46c-1.03-2.85-2.61-5.32-5-7.23c-4.34-3.47-9.92-3.32-14.07,0.37
			c-1.68,1.49-2.92,3.3-3.77,5.37c-2.06,4.98-2.1,10.02-0.29,15.08c1.03,2.88,2.69,5.33,5.13,7.21c4.36,3.34,9.99,3.07,14.01-0.66
			c1.28-1.19,2.31-2.58,3.1-4.13C156.77,226.94,157.37,223.41,157.11,219.72z M151.52,227.73c-0.68,1.49-1.6,2.81-2.9,3.84
			c-2.43,1.93-5.33,2.01-7.85,0.19c-1.67-1.21-2.82-2.83-3.6-4.71c-1.63-3.92-1.76-7.9-0.35-11.91c0.61-1.74,1.56-3.29,2.95-4.53
			c2.57-2.28,5.78-2.37,8.49-0.24c1.49,1.17,2.5,2.69,3.27,4.39c0.76,1.68,1.14,3.45,1.3,5.23
			C152.99,222.7,152.64,225.29,151.52,227.73z"/>
		<path d="M131.54,205.18c0-0.37-0.21-0.56-0.56-0.6c-0.16-0.02-0.33-0.03-0.49-0.03c-4.49,0-8.99,0-13.48,0
			c-1.79,0-2.98,0.95-2.86,2.93c0.01,0.14,0,0.28,0,0.42c0,4.59-0.09,23.31-0.09,28.08c0,0.28,0.02,0.56,0.04,0.84
			c0.03,0.33,0.23,0.51,0.56,0.52c1.13,0,2.26,0,3.39-0.01c0.35,0,0.5-0.21,0.5-0.54c0-0.19,0.01-0.38,0.01-0.56
			c0.01-2.16,0.01-4.33,0.02-6.49c0-1.46,0.01-2.92,0.02-4.37c0.01-0.63,0.07-0.69,0.69-0.69c0.87,0,1.74,0.02,2.61,0.03
			c1.58,0.02,3.15,0.05,4.73,0.06c0.93,0.01,1.1-0.17,1.1-1.12c0-0.78,0-1.55-0.01-2.33c-0.02-0.99-0.07-1.03-1.05-1.05
			c-2.42-0.03-4.85-0.06-7.27-0.09c-0.71-0.01-0.77-0.07-0.77-0.77c0-3.18,0.01-6.35,0.03-9.53c0-0.77,0.07-0.82,0.87-0.82
			c1.6,0,3.2-0.01,4.8-0.01c2.07,0,4.14,0,6.21,0c0.68,0,0.96-0.21,0.99-0.83C131.55,207.21,131.54,206.19,131.54,205.18z"/>
	</g>
	<g>
		<path d="M143.39,111.03c-0.88-3.91-3.28-6.7-6.65-8.74c-0.34-0.2-0.68-0.4-1.18-0.69c0.41-0.34,0.68-0.57,0.95-0.8
			c1.62-1.4,2.85-3.07,3.31-5.17c1.11-4.99-0.36-9.21-4.1-12.62c-1.66-1.52-3.7-2.42-5.85-3.04c-4.92-1.4-9.94-1.63-15-1.23
			c-0.81,0.06-1.94,0.59-2.48,1.2c-0.83,0.94-1.03,2.06-1.03,3.29c0.06,9.45,0.08,18.91,0.13,28.37c0.02,4.1,0.11,8.2,0.07,12.3
			c-0.02,1.91,1.38,3.73,3.59,3.87c0.2,0.01,0.4,0.03,0.59,0.03c4.3,0.01,8.6,0.05,12.88-0.4c2.5-0.26,4.96-0.75,7.29-1.77
			C141.57,123.12,144.73,116.99,143.39,111.03z M117.78,97.41c-0.02-3.7-0.04-7.41-0.05-11.11c0-0.17-0.01-0.33,0-0.5
			c0.04-0.76,0.14-0.88,0.87-0.89c3.25-0.03,6.47,0.22,9.61,1.17c0.54,0.16,1.06,0.38,1.57,0.6c2.38,1,3.66,2.86,4.04,5.36
			c0.26,1.67-0.27,3.06-1.63,4.11c-1.07,0.82-2.29,1.33-3.58,1.63c-1.22,0.28-2.47,0.51-3.71,0.6c-1.98,0.13-3.97,0.13-5.95,0.18
			c-0.01,0-0.02,0-0.03,0C118.29,98.56,117.79,98.05,117.78,97.41C117.78,97.42,117.78,97.42,117.78,97.41z M133.71,119.65
			c-1.25,0.63-2.61,0.94-3.98,1.17c-3.64,0.61-7.31,0.6-10.98,0.63c-0.48,0-0.76-0.15-0.79-0.65c-0.02-0.36-0.08-0.72-0.08-1.09
			c-0.01-1.98-0.06-10.05-0.05-12.11c0-1.23,0.2-1.48,1.41-1.51c2.51-0.07,5.02-0.16,7.53-0.12c1.89,0.03,3.74,0.43,5.5,1.15
			c1.24,0.51,2.34,1.22,3.27,2.2C138.56,112.52,137.65,117.66,133.71,119.65z"/>
		<path d="M183.03,111.99c-0.21,5.51-0.37,10-0.56,14.49c-0.05,1.16-0.17,1.31-1.3,1.33c-1.52,0.03-3.04,0.01-4.57-0.02
			c-0.79-0.02-0.91-0.14-0.91-0.97c0.01-1.24,0.07-2.48,0.11-3.71c0.12-4.14,0.25-8.28,0.37-12.42c0.01-0.25,0.01-0.5-0.01-0.74
			c-0.05-0.89-0.29-1.13-1.15-1.17c-0.18-0.01-0.35,0-0.53,0c-6.19-0.01-12.39-0.01-18.58-0.02c-0.28,0-0.59-0.06-0.84,0.04
			c-0.22,0.08-0.45,0.31-0.55,0.53c-0.1,0.21-0.05,0.49-0.05,0.73c0.11,4.25,0.23,8.49,0.35,12.74c0.04,1.27,0.11,2.55,0.13,3.82
			c0.02,0.94-0.1,1.06-1.02,1.06c-1.52,0-3.04-0.02-4.56-0.08c-1.03-0.04-1.15-0.17-1.19-1.19c-0.11-2.58-0.18-5.16-0.3-7.75
			c-0.28-6.19-0.3-12.39,0.05-18.58c0.19-3.43,0.59-6.85,1.66-10.13c2.04-6.3,6.33-10.03,12.88-11.17c2.57-0.45,5.1-0.31,7.57,0.38
			c5.57,1.56,9.24,5.17,11.01,10.66c1.07,3.32,1.53,6.77,1.68,10.24C182.9,104.37,182.95,108.69,183.03,111.99z M165.42,101.97
			C165.42,101.98,165.42,101.98,165.42,101.97c3.05,0.01,6.09,0.01,9.14,0.01c1.44,0,1.48-0.03,1.4-1.51
			c-0.05-0.92-0.13-1.84-0.24-2.75c-0.25-2.11-0.55-4.22-1.26-6.23c-1.03-2.94-3.05-4.89-6.06-5.76c-1.37-0.39-2.79-0.46-4.21-0.34
			c-4.02,0.33-7.06,2.77-8.18,6.64c-0.79,2.73-1.15,5.54-1.31,8.37c-0.08,1.34,0.16,1.56,1.48,1.57
			C159.26,101.98,162.34,101.97,165.42,101.97z"/>
		<path d="M225.57,95.98c0.33-0.28,0.67-0.55,1-0.84c6.24-5.51,12.48-11.03,18.72-16.54c0.36-0.32,0.76-0.6,1.16-0.86
			c0.54-0.35,1.06-0.3,1.52,0.16c1.13,1.14,2.28,2.26,3.38,3.43c0.48,0.51,0.46,0.83-0.01,1.37c-0.26,0.31-0.58,0.58-0.89,0.85
			c-4.78,4.23-9.57,8.46-14.35,12.69c-0.35,0.31-0.67,0.65-0.97,0.95c0.24,0.67,0.72,0.5,1.1,0.53c2.6,0.19,5.06,0.89,7.37,2.1
			c4.18,2.19,6.8,5.74,8.56,9.99c1.25,3.02,1.84,6.22,2.18,9.46c0.23,2.26,0.35,4.54,0.51,6.81c0.02,0.26,0.03,0.52,0.03,0.78
			c0.02,1.66-0.28,1.96-1.93,1.97c-1.27,0-2.54,0.01-3.81-0.01c-1.05-0.02-1.24-0.19-1.33-1.22c-0.21-2.57-0.36-5.14-0.6-7.7
			c-0.23-2.42-0.63-4.83-1.58-7.08c-0.58-1.36-1.26-2.73-2.15-3.9c-2.42-3.18-5.73-4.38-9.67-3.96c-2.32,0.24-4.53,0.9-6.71,1.7
			c-1.51,0.56-1.66,0.78-1.64,2.37c0.08,5.97,0.17,11.95,0.25,17.92c0.02,1.62-0.15,1.79-1.77,1.79c-1.31,0-2.61,0-3.92-0.05
			c-1.08-0.04-1.29-0.27-1.43-1.32c-0.03-0.26-0.03-0.52-0.04-0.78c-0.22-14.75-0.45-29.5-0.67-44.24c0-0.3-0.01-0.6-0.01-0.9
			c-0.01-1.74,0.09-1.87,1.79-1.91c1.38-0.03,2.76-0.03,4.14-0.01c0.91,0.01,1.11,0.22,1.2,1.11c0.03,0.26,0.02,0.52,0.02,0.78
			c0.07,4.48,0.14,8.96,0.21,13.44c0.01,0.32,0.04,0.65,0.06,0.97C225.41,95.88,225.49,95.93,225.57,95.98z"/>
		<path d="M187,103.19c0.16-5.69,1.82-11.64,5.92-16.75c2.4-2.99,5.32-5.3,8.96-6.69c1.88-0.72,3.78-1.06,5.76-1.14
			c1.68-0.07,3.34,0.05,4.95,0.58c0.19,0.06,0.38,0.12,0.57,0.19c1.01,0.39,1.12,0.63,0.73,1.64c-0.44,1.15-0.88,2.31-1.35,3.45
			c-0.5,1.2-0.64,1.26-1.87,0.94c-1.71-0.45-3.45-0.6-5.15-0.11c-2.14,0.61-4.12,1.58-5.76,3.13c-2.59,2.44-4.35,5.4-5.35,8.8
			c-1.54,5.25-1.33,10.43,0.84,15.48c1.01,2.33,2.45,4.37,4.45,5.97c3.14,2.5,6.63,3.32,10.53,2.15c2.03-0.61,2.23-0.52,3.32,1.27
			c0.43,0.71,0.88,1.42,1.29,2.15c0.56,0.99,0.45,1.4-0.6,1.88c-2.88,1.32-5.91,1.91-9.07,1.54c-6.1-0.71-10.61-3.95-13.92-8.97
			C188.29,114.22,187.04,109.26,187,103.19z"/>
	</g>
	<g>
		<path class="st6" d="M294.5,122.21c0.14,0.35,0.03,0.57-0.37,0.73c-0.93,0.38-1.91,0.6-2.99,0.64c-1.71-0.07-3.22-0.6-4.4-1.74
			c-0.63-0.6-0.88-1.35-0.96-2.14c-0.16-1.77,0.43-3.36,1.6-4.82c0.28-0.34,0.57-0.67,0.88-0.98c0.44-0.43,0.63-0.42,0.96,0.07
			c0.17,0.26,0.33,0.52,0.51,0.79c1.51,2.34,3.02,4.69,4.53,7.04C294.35,121.93,294.45,122.06,294.5,122.21z"/>
		<path class="st6" d="M288.94,101.01c-0.24-0.85-0.29-1.74-0.44-2.61c0.05-1.04,0.21-2.03,0.68-2.99c0.46-0.96,1.28-1.52,2.47-1.76
			c1.32-0.26,2.36,0.11,3.17,0.99c0.65,0.71,1,1.54,1.11,2.44c0.16,1.36-0.09,2.66-0.81,3.9c-0.92,1.6-2.27,2.91-3.81,4.09
			c-0.53,0.41-0.82,0.38-1.04-0.21C289.77,103.59,289.31,102.3,288.94,101.01z"/>
		<path class="st6" d="M323.29,87.76c-0.87-2.3-1.92-4.56-3.57-6.66c-1.15-1.47-2.56-2.8-4.51-3.8c-2.76-1.41-5.79-1.73-8.96-0.82
			c-1.4,0.4-2.69,0.98-3.96,1.56c-0.96,0.43-1.79,1-2.69,1.5c-1.38,0.75-2.73,1.53-4.16,2.2c-1.58,0.75-3.31,0.91-5.05,0.22
			c-0.77-0.3-1.56-0.6-2.26-0.99c-1.56-0.83-3.03-1.75-4.6-2.57c-1.19-0.61-2.44-1.18-3.74-1.67c-1.45-0.55-3.06-0.78-4.74-0.73
			c-2.51,0.07-4.56,0.84-6.34,2.02c-1.64,1.08-2.84,2.38-3.83,3.78c-2.04,2.91-3.22,6-4.05,9.16c-1.12,4.29-1.4,8.61-0.96,12.97
			c0.43,4.31,1.29,8.57,2.74,12.78c1.36,3.96,3.15,7.8,5.8,11.45c1.76,2.44,3.89,4.7,6.56,6.71c1.7,1.28,3.6,2.38,5.92,3.1
			c2.79,0.87,5.48,0.78,8.13-0.23c0.72-0.28,1.45-0.52,2.2-0.75c0.89-0.26,1.82-0.26,2.71,0.01c0.82,0.25,1.62,0.52,2.4,0.82
			c2.45,0.9,4.97,1.07,7.51,0.25c1.27-0.41,2.54-0.89,3.62-1.49c1.3-0.72,2.5-1.56,3.58-2.43c3.3-2.64,5.71-5.66,7.58-8.89
			c4.63-8.02,6.52-16.39,6.87-24.83C325.39,96.05,324.85,91.86,323.29,87.76z M306.6,113.16c-0.2,3.67-1.24,7.12-4.04,10.05
			c-0.51,0.53-0.51,0.58-0.12,1.14c0.33,0.47,0.67,0.92,0.97,1.4c0.26,0.41,0.22,0.56-0.28,0.78c-1.17,0.52-2.35,1.03-3.54,1.52
			c-0.69,0.29-0.83,0.23-1.23-0.32c-0.72-0.96-0.72-0.97-1.92-0.5c-1.33,0.51-2.73,0.86-4.18,1c-4.87,0.45-10.39-2.22-11.64-6.42
			c-0.86-2.9-0.32-5.66,1.27-8.29c0.85-1.39,2.01-2.6,3.28-3.72c0.18-0.16,0.35-0.31,0.53-0.47c0.35-0.29,0.4-0.61,0.21-1
			c-0.47-0.96-0.92-1.92-1.31-2.9c-1.11-2.76-1.8-5.58-1.49-8.51c0.2-1.95,0.88-3.76,2.35-5.31c2.94-3.1,9.66-4.21,13.67,0.07
			c1.4,1.49,2.15,3.22,2.34,5.12c0.36,3.49-1.04,6.49-3.54,9.18c-1.2,1.3-2.63,2.41-4.08,3.49c-0.76,0.56-0.78,0.62-0.3,1.36
			c1.65,2.58,3.31,5.16,4.96,7.74c0.12,0.2,0.29,0.38,0.51,0.67c0.24-0.31,0.41-0.51,0.55-0.73c0.79-1.28,1.13-2.67,1.35-4.09
			c0.07-0.45,0.11-0.9,0.16-1.36c0.06-0.5,0.13-0.57,0.69-0.56c1.38,0.01,2.75,0.02,4.13,0.05
			C306.51,112.56,306.62,112.65,306.6,113.16z"/>
		<path class="st7" d="M289.09,65.21c1.48-0.06,2.29,0.3,2.79,1.04c0.39,0.58,0.74,1.2,1,1.83c1.37,3.37,2.16,6.84,2.63,10.36
			c0.16,1.2-1.03,1.78-2.37,1.98c-0.24,0.04-0.51,0-0.76-0.01c-0.83-0.02-1.35-0.35-1.58-1.01c-0.29-0.84-0.61-1.68-0.97-2.51
			c-0.92-2.13-2.31-4.07-3.86-5.93c-0.48-0.58-0.96-1.16-1.37-1.77c-0.62-0.93-0.47-1.72,0.46-2.46
			C286.3,65.77,287.85,65.36,289.09,65.21z"/>
		<path class="st4" d="M296.92,75.99c-0.56-0.54-0.6-1.18-0.68-1.77c-0.25-1.8,0.29-3.44,1.84-4.79c0.45-0.4,0.92-0.8,1.44-1.12
			c1.71-1.07,3.45-2.1,5.18-3.15c0.13-0.08,0.26-0.15,0.4-0.21c0.67-0.28,1.15-0.16,1.46,0.41c0.64,1.16,0.83,2.39,0.58,3.64
			c-0.14,0.71-0.4,1.41-0.72,2.08c-0.67,1.38-1.84,2.41-3.53,2.99c-0.9,0.31-1.86,0.52-2.77,0.81c-0.88,0.29-1.73,0.63-2.59,0.94
			C297.34,75.88,297.13,75.93,296.92,75.99z"/>
	</g>
	<g>
		<path d="M226.62,196.56c-1.74-0.07-3.45-0.2-5.14-0.6c-0.35-0.08-0.7-0.19-1.04-0.31c-1.35-0.48-2.29-1.39-2.58-2.81
			c-0.3-1.48-0.49-2.98-0.72-4.48c-0.13-0.84-0.2-1.69-0.38-2.51c-0.28-1.3-0.97-1.69-2.25-1.42c-1.15,0.24-2,0.86-2.46,1.94
			c-0.38,0.89-0.67,1.82-1.07,2.7c-0.46,1.02-0.91,2.05-1.49,3c-0.94,1.53-2.34,2.48-4.07,3c-2.28,0.68-4.59,0.74-6.93,0.59
			c-0.54-0.03-1.09-0.1-1.62-0.21c-2.55-0.52-4.25-2.38-4.64-4.95c-0.24-1.52-0.1-3.02,0.11-4.52c0.4-2.8,1.25-5.49,2.17-8.15
			c2.34-6.76,5.1-13.35,8.56-19.62c0.82-1.48,1.75-2.91,2.71-4.3c0.47-0.69,1.1-1.29,1.72-1.86c1.04-0.95,2.29-1.46,3.7-1.56
			c2.73-0.2,5.45-0.06,8.13,0.54c2.1,0.47,3.74,1.62,4.7,3.54c1.25,2.49,2.45,5.01,3.53,7.57c2.58,6.09,4.75,12.31,6.24,18.76
			c0.68,2.93,1.21,5.88,0.96,8.91c-0.09,1.04-0.29,2.11-0.64,3.09c-0.7,2.01-2.22,3.13-4.31,3.42
			C228.73,196.44,227.67,196.47,226.62,196.56z M215.08,174.13c1.12-0.23,1.61-0.91,1.34-2.04c-0.24-1.02-0.59-2.03-0.97-3
			c-0.17-0.43-0.5-0.83-0.86-1.14c-0.7-0.61-1.53-0.53-2.05,0.23c-0.96,1.41-1.35,3.02-1.4,4.7c-0.02,0.72,0.36,1.11,1.07,1.26
			C212.67,174.24,214.61,174.23,215.08,174.13z"/>
		<path d="M236.74,153.45c0-0.34,0.01-0.67,0.05-1c0.08-0.78,0.48-1.32,1.26-1.49c0.65-0.14,1.32-0.28,1.98-0.31
			c5.86-0.26,11.65,0.27,17.27,2c3.73,1.15,7.16,2.91,10.17,5.44c3.46,2.91,5.53,6.61,6.4,11c0.95,4.81,0.65,9.54-1.2,14.1
			c-1.43,3.53-3.73,6.4-6.88,8.59c-3.77,2.62-7.93,4.08-12.5,4.46c-2.97,0.25-5.9,0.08-8.82-0.51c-1.92-0.39-3.21-1.46-3.77-3.31
			c-0.57-1.86-1.11-3.74-1.51-5.65c-1-4.72-1.66-9.48-1.9-14.31C237.09,168.6,236.73,155.92,236.74,153.45z M251.08,171.99
			c0.08,0.51,0.19,1.51,0.39,2.5c0.09,0.47,0.3,0.93,0.54,1.35c0.46,0.81,1.09,1.05,2.01,0.83c1.05-0.25,2.01-0.72,2.85-1.39
			c2.1-1.7,1.71-4.57-0.81-5.58c-0.8-0.32-1.71-0.47-2.58-0.53C251.82,169.06,251.06,169.85,251.08,171.99z"/>
		<path d="M110.41,162.68c0.06-1.28,0.12-3.17,0.26-5.07c0.1-1.42,0.61-2.72,1.44-3.89c1-1.42,2.36-2.34,4.03-2.68
			c1.79-0.36,3.62-0.67,5.44-0.75c4.39-0.19,8.78-0.02,13.12,0.72c1.74,0.3,3.47,0.73,5.16,1.24c4.85,1.48,7.35,4.98,8.16,9.82
			c0.39,2.32,0.39,4.64-0.32,6.93c-0.98,3.14-2.9,5.54-5.67,7.27c-0.82,0.51-1.69,0.94-2.57,1.32c-1.34,0.59-1.16,1.9-0.39,2.57
			c0.39,0.34,0.83,0.68,1.31,0.88c1.17,0.51,2.37,0.92,3.56,1.39c1.24,0.49,2.5,0.95,3.7,1.53c1.01,0.48,1.53,1.38,1.43,2.52
			c-0.06,0.64-0.19,1.3-0.43,1.9c-0.88,2.24-2,4.37-3.46,6.28c-1.48,1.92-3.75,2.84-6.25,1.16c-2.57-1.73-4.86-3.79-6.82-6.19
			c-0.73-0.89-1.41-1.82-2.11-2.73c-0.17-0.22-0.72-1.27-1.24-1.15c-0.45-0.02-0.48,0.54-0.5,0.82c-0.09,1.24-0.11,2.48-0.11,3.72
			c0,0.78,0.13,1.55,0.12,2.33c-0.04,2-0.84,2.99-2.77,3.41c-2.33,0.51-4.69,0.6-7.05,0.2c-1.7-0.28-3.02-1.18-3.78-2.74
			c-0.42-0.86-0.75-1.78-1-2.7c-0.8-2.98-1.2-6.04-1.68-9.08C111.03,175.62,110.87,169.45,110.41,162.68z M126.22,165.74
			c0.05,0.47,0.08,0.93,0.16,1.39c0.29,1.63,1.21,2.28,2.85,2.04c0.12-0.02,0.25-0.02,0.37-0.05c1.23-0.26,2.41-0.63,3.34-1.53
			c1.03-0.99,1.2-2.17,0.44-3.37c-0.95-1.5-2.39-2.12-4.13-2.05c-1.77,0.07-2.72,0.97-2.94,2.73
			C126.28,165.19,126.25,165.46,126.22,165.74z"/>
		<path d="M151.89,165.96c0.09-2.02,0.15-4.17,0.28-6.32c0.05-0.75,0.22-1.5,0.43-2.23c0.68-2.43,2.2-4.14,4.54-5.12
			c2.38-1,4.88-1.44,7.43-1.64c4.9-0.38,9.76-0.08,14.6,0.73c1.53,0.26,3.03,0.6,4.45,1.25c2.12,0.97,3.29,2.62,3.56,4.91
			c0.26,2.23,0.4,4.48-0.03,6.71c-0.14,0.71-0.36,1.41-0.65,2.07c-0.44,1.01-1.25,1.68-2.35,1.79c-1.23,0.12-2.48,0.18-3.71,0.11
			c-2.12-0.12-4.23-0.38-6.35-0.54c-0.93-0.07-1.88-0.11-2.82-0.03c-1.24,0.1-1.86,1.01-1.65,2.23c0.13,0.75,0.51,1.14,1.28,1.16
			c0.76,0.02,1.51-0.06,2.27-0.1c0.91-0.05,1.81-0.12,2.72-0.13c0.91-0.01,1.47,0.5,1.75,1.33c0.47,1.37,0.59,2.79,0.38,4.22
			c-0.18,1.22-0.79,1.87-2.01,1.99c-1.29,0.12-2.6,0.1-3.9,0.15c-0.36,0.01-0.73,0.02-1.07,0.12c-0.51,0.15-0.66,0.45-0.62,0.97
			c0.07,0.82,0.69,1.44,1.6,1.43c0.88-0.01,1.75-0.14,2.63-0.21c2.39-0.21,4.77-0.45,7.16-0.61c0.87-0.06,1.76,0.02,2.63,0.12
			c2.33,0.27,3.81,1.67,4.22,3.97c0.35,2,0.27,3.99-0.23,5.96c-0.52,2.04-1.72,3.49-3.7,4.32c-1.67,0.7-3.43,1.04-5.2,1.23
			c-2.62,0.28-5.25,0.55-7.88,0.65c-3.37,0.13-6.73-0.08-10.04-0.8c-0.59-0.13-1.16-0.34-1.73-0.55c-1.55-0.56-2.68-1.61-3.48-3.05
			c-0.91-1.66-1.51-3.44-1.94-5.28c-0.91-3.87-1.53-7.8-1.87-11.76C152.29,172.03,152.11,169.06,151.89,165.96z"/>
		<path d="M291.51,196.13c-0.42-0.06-0.83-0.23-1.24-0.38c-1.6-0.61-2.47-1.77-2.61-3.49c-0.17-2.19-0.33-4.38-0.56-6.56
			c-0.18-1.69-0.37-3.38-0.7-5.05c-0.51-2.58-1.73-4.79-3.68-6.62c-1.37-1.29-2.71-2.63-3.95-4.04c-1.43-1.63-2.27-3.6-2.69-5.73
			c-0.63-3.19-0.65-6.39-0.13-9.59c0.04-0.24,0.11-0.48,0.18-0.72c0.66-2.22,1.88-3.19,4.18-3.19c1.42-0.01,2.84,0.09,4.26,0.21
			c1.11,0.09,2.21,0.25,3.3,0.46c1.73,0.33,2.7,1.47,2.84,3.09c0.16,1.94,0.29,3.89,0.5,5.82c0.19,1.72,0.41,3.44,0.75,5.13
			c0.18,0.89,0.59,1.76,1.03,2.56c0.42,0.77,1.06,1.36,2.01,1.5c1.12,0.17,1.89-0.2,2.29-1.26c0.28-0.74,0.45-1.54,0.55-2.33
			c0.14-1.13,0.16-2.28,0.22-3.42c0.13-2.35,0.22-4.7,0.39-7.04c0.06-0.79,0.26-1.59,0.51-2.34c0.4-1.2,1.29-1.93,2.49-2.29
			c1.97-0.58,3.97-0.59,5.97-0.29c0.7,0.11,1.39,0.28,2.07,0.48c1.78,0.52,2.94,1.71,3.37,3.5c0.29,1.23,0.5,2.49,0.56,3.75
			c0.15,3.14-0.31,6.23-0.97,9.29c-0.6,2.79-2.25,4.91-4.33,6.75c-0.69,0.61-1.42,1.2-2.17,1.75c-2.42,1.77-3.56,4.25-3.79,7.14
			c-0.2,2.43-0.2,4.88-0.28,7.32c-0.04,1.05-0.04,2.1-0.11,3.15c-0.1,1.5-0.7,2.25-2.16,2.62c-0.68,0.17-1.4,0.22-2.11,0.28
			C297.04,196.62,293.04,196.35,291.51,196.13z"/>
	</g>
	<g>
		<circle cx="118.48" cy="139.92" r="5.22"/>
		<circle cx="133.88" cy="139.92" r="5.22"/>
		<circle cx="149.29" cy="139.92" r="5.22"/>
		<circle cx="164.64" cy="139.92" r="5.22"/>
		<circle cx="180.04" cy="139.92" r="5.22"/>
		<circle cx="195.45" cy="139.92" r="5.22"/>
		<circle cx="210.85" cy="139.92" r="5.22"/>
		<circle cx="226.2" cy="139.92" r="5.22"/>
		<circle cx="241.61" cy="139.92" r="5.22"/>
		<circle cx="257.02" cy="139.92" r="5.22"/>
	</g>
	<g>
		<path class="st2" d="M280.48,207.09c0,8.4,0,16.68,0,25.06c-0.4,0.01-0.77,0.04-1.15,0.04c-14.57,0.02-29.14,0.05-43.72,0.07
			c-4.07,0.01-8.14,0.01-12.21,0c-0.37,0-0.85,0.14-1.05-0.3c-0.22-0.49,0.22-0.76,0.51-1.04c1.24-1.21,2.49-2.42,3.74-3.62
			c0.15-0.15,0.31-0.29,0.45-0.44c0.59-0.65,0.59-1.2-0.05-1.78c-0.62-0.56-1.27-1.09-1.91-1.63c-1.16-0.99-2.33-1.97-3.49-2.96
			c-0.74-0.63-0.77-1.02-0.07-1.69c0.61-0.58,1.26-1.1,1.9-1.64c1.14-0.97,2.29-1.93,3.42-2.9c0.84-0.72,0.86-1.25,0.08-2.02
			c-1.3-1.28-2.63-2.53-3.93-3.82c-0.32-0.32-0.89-0.59-0.65-1.16c0.22-0.52,0.79-0.32,1.21-0.32c16.97,0.02,33.93,0.05,50.9,0.07
			c1.68,0,3.35,0.01,5.03,0.02C279.79,207.04,280.08,207.07,280.48,207.09z"/>
		<path class="st0" d="M293.77,232.16c0-8.43,0-16.7,0-25.03c0.31-0.02,0.57-0.06,0.83-0.06c3.95,0,7.9,0.01,11.85,0.02
			c0.18,0,0.36,0.03,0.54,0.01c1.62-0.12,2.57,0.77,3.21,2.12c0.68,1.44,1.07,2.97,1.41,4.52c1.14,5.27,0.67,10.4-1.17,15.43
			c-0.2,0.56-0.46,1.1-0.75,1.62c-0.48,0.84-1.22,1.29-2.2,1.3c-0.51,0-1.02,0.03-1.52,0.04c-3.68,0.01-7.36,0.02-11.04,0.03
			C294.55,232.16,294.19,232.16,293.77,232.16z"/>
		<path class="st8" d="M199.05,216.53c-0.04-0.72,0.18-1.09,0.89-1.39c5.01-2.1,10-4.26,15-6.4c0.69-0.29,1.37-0.59,2.06-0.88
			c1.08-0.45,2.04-0.26,2.88,0.57c1.34,1.32,2.8,2.55,4.05,3.95c0.6,0.67,0.59,1.07-0.09,1.66c-1.74,1.51-3.53,2.96-5.27,4.47
			c-0.91,0.79-0.92,1.44-0.01,2.22c1.7,1.46,3.4,2.93,5.14,4.34c0.75,0.61,0.89,1.15,0.1,1.92c-1.33,1.29-2.66,2.59-3.99,3.88
			c-0.88,0.86-1.89,0.92-2.98,0.45c-2.85-1.23-5.71-2.45-8.57-3.67c-2.83-1.21-5.65-2.44-8.49-3.61c-0.61-0.25-0.79-0.58-0.76-1.2
			C199.06,221.74,199.1,217.55,199.05,216.53z"/>
		<path class="st3" d="M282.85,207.1c2.85,0,5.65,0,8.44,0c0,2.88,0.06,22.15,0.06,24.91c-3.72,0-5.7,0.04-8.5,0.04
			C282.85,223.76,282.85,215.46,282.85,207.1z"/>
		<path d="M196.69,216.22c0,2.3,0,4.47,0,6.71c-0.25-0.07-0.45-0.11-0.63-0.19c-1.87-0.79-3.73-1.59-5.6-2.39
			c-0.08-0.04-0.18-0.05-0.24-0.11c-0.2-0.2-0.52-0.42-0.52-0.64c0-0.21,0.29-0.51,0.52-0.61c1.61-0.72,3.23-1.41,4.85-2.1
			C195.58,216.67,196.1,216.47,196.69,216.22z"/>
	</g>
	<g>
		<path d="M238.52,345.61c-1.74-1.58-3.84-3.03-6.62-4.57c-0.66-0.36-1.32-0.72-1.98-1.08c-1.17-0.63-2.38-1.28-3.53-1.96
			c-1.06-0.63-2.04-1.42-2.78-2.03c-0.86-0.72-1.49-1.7-1.88-2.93c-0.6-1.87-0.08-3.47,1.48-4.63c0.85-0.63,1.87-1.04,3.02-1.22
			c2.92-0.46,5.76,0.14,8.66,1.82c2.11,1.22,3.61,3.01,4.46,5.3c0.07,0.19,0.15,0.4,0.28,0.59c0.46,0.69,1.37,1.03,2.22,0.81
			c0.74-0.19,1.22-0.79,1.32-1.64c0.03-0.22,0.03-0.44,0.02-0.63l-0.02-1.11c-0.03-1.68-0.05-3.35-0.09-5.03
			c-0.01-0.49-0.08-0.9-0.2-1.24c-0.25-0.7-0.93-1.12-1.72-1.08c-0.75,0.04-1.3,0.45-1.56,1.16c-0.11,0.29-0.13,0.61-0.15,0.91
			l-0.01,0.16c-0.02,0.2-0.01,0.4-0.01,0.6c0,0.01,0,0.02,0,0.03h0c-0.13-0.09-0.26-0.18-0.38-0.28c-3.63-3.06-7.86-4.43-12.55-4.07
			c-2.18,0.17-4.1,0.9-5.69,2.19c-2.14,1.72-3.12,3.92-2.91,6.54c0.18,2.27,1.18,4.34,2.96,6.16c1.09,1.11,2.41,2.08,4.01,2.97
			c0.72,0.4,1.45,0.79,2.17,1.19c1.22,0.66,2.44,1.33,3.65,2.01c2.23,1.25,3.94,2.45,5.39,3.77c1.45,1.32,2.43,2.56,3.08,3.92
			c0.32,0.66,0.69,1.54,0.75,2.5c0.17,2.5-0.75,4.57-2.71,6.15c-2.44,1.97-5.35,2.69-8.88,2.21c-2.33-0.32-4.25-1.44-5.72-3.33
			c-0.47-0.61-0.91-1.27-1.33-1.91c-0.18-0.27-0.36-0.54-0.54-0.81c-0.07-0.1-0.13-0.2-0.19-0.3c-0.1-0.17-0.2-0.34-0.33-0.5
			c-0.58-0.72-1.43-0.92-2.28-0.52c-0.79,0.37-1.21,1.04-1.2,1.92c0.03,2.33,0.06,5.03,0.13,7.67c0.01,0.56,0.23,1.05,0.6,1.4
			c0.32,0.3,0.74,0.46,1.19,0.46c0.02,0,0.05,0,0.07,0c0.99-0.04,1.68-0.8,1.72-1.88c0.01-0.26,0.01-0.53,0-0.79
			c-0.01-0.28-0.01-0.55,0.01-0.85c0.01-0.15,0.03-0.55,0.1-0.62c0.05-0.03,0.09-0.04,0.3,0.21c0.05,0.06,0.1,0.12,0.15,0.16
			c1.58,1.56,3.49,2.59,5.66,3.06c0.75,0.16,1.41,0.27,2.04,0.33c4.22,0.39,7.91-0.7,10.98-3.24c3.15-2.62,5.35-7.78,2.72-12.93
			C241.5,348.78,240.22,347.14,238.52,345.61z"/>
		<path d="M271.58,350.61c-0.93-1.83-2.21-3.47-3.91-5.01c-1.74-1.58-3.84-3.03-6.62-4.57c-0.66-0.36-1.32-0.72-1.98-1.08
			c-1.17-0.63-2.37-1.28-3.53-1.96c-1.06-0.63-2.04-1.41-2.78-2.03c-0.86-0.72-1.49-1.7-1.88-2.93c-0.6-1.87-0.09-3.47,1.48-4.63
			c0.85-0.63,1.87-1.04,3.02-1.22c2.92-0.46,5.76,0.14,8.66,1.82c2.11,1.22,3.61,3,4.46,5.3c0.07,0.2,0.16,0.4,0.28,0.59
			c0.46,0.69,1.37,1.03,2.22,0.81c0.74-0.19,1.22-0.79,1.32-1.64c0.03-0.22,0.03-0.44,0.02-0.63l-0.02-1.19
			c-0.03-1.65-0.05-3.3-0.09-4.95c-0.01-0.49-0.08-0.9-0.2-1.24c-0.25-0.7-0.93-1.12-1.72-1.08c-0.75,0.04-1.3,0.45-1.56,1.16
			c-0.11,0.29-0.13,0.6-0.15,0.9l-0.01,0.16c-0.02,0.2-0.01,0.4-0.01,0.6c0,0.01,0,0.02,0,0.03l0,0c-0.13-0.09-0.26-0.18-0.37-0.28
			c-3.63-3.06-7.85-4.43-12.55-4.07c-2.18,0.17-4.1,0.9-5.69,2.19c-2.14,1.72-3.12,3.92-2.91,6.54c0.18,2.27,1.18,4.34,2.96,6.16
			c1.09,1.11,2.41,2.08,4.01,2.97c0.73,0.4,1.45,0.79,2.18,1.19c1.22,0.66,2.43,1.32,3.64,2c2.23,1.25,3.94,2.45,5.39,3.77
			c1.45,1.32,2.43,2.56,3.08,3.92c0.32,0.66,0.69,1.54,0.75,2.5c0.17,2.5-0.75,4.57-2.71,6.15c-2.44,1.97-5.35,2.69-8.88,2.21
			c-2.33-0.32-4.25-1.44-5.72-3.33c-0.47-0.61-0.91-1.27-1.33-1.91c-0.18-0.27-0.36-0.54-0.54-0.81c-0.07-0.1-0.13-0.2-0.19-0.3
			c-0.1-0.17-0.2-0.34-0.33-0.5c-0.58-0.72-1.43-0.92-2.28-0.52c-0.79,0.37-1.21,1.04-1.2,1.92c0.03,2.33,0.06,5.03,0.13,7.67
			c0.01,0.56,0.23,1.05,0.6,1.4c0.32,0.3,0.74,0.46,1.19,0.46c0.02,0,0.05,0,0.07,0c0.98-0.04,1.68-0.8,1.72-1.88
			c0.01-0.26,0.01-0.53,0-0.79c-0.01-0.28-0.01-0.55,0-0.85c0.01-0.15,0.03-0.55,0.1-0.62c0.05-0.03,0.08-0.04,0.3,0.21
			c0.05,0.06,0.1,0.12,0.15,0.16c1.58,1.56,3.49,2.59,5.66,3.06c0.75,0.16,1.41,0.27,2.04,0.33c4.22,0.39,7.91-0.7,10.98-3.24
			C272.02,360.93,274.21,355.77,271.58,350.61z"/>
		<path d="M166.95,357.73c-0.01,0-0.02,0-0.02,0c-0.89,0-1.6,0.58-1.79,1.46c-0.06,0.28-0.06,0.56-0.07,0.84l0,0.08
			c-0.01,0.34-0.01,0.68-0.01,1.03c0,0.54-0.01,1.07-0.02,1.61c-0.02,0.48-0.15,0.62-0.64,0.67c-0.16,0.02-0.32,0.01-0.48,0.01
			l-11.82-0.01c-0.59,0-0.97,0-1.08-0.11c-0.11-0.11-0.11-0.51-0.11-1.11l-0.06-33.65l0-0.12c0-0.1,0-0.2,0-0.31
			c0.05-0.83,0.16-0.92,1.02-0.95l0.4-0.01c0.54-0.01,1.1-0.02,1.64-0.12c0.77-0.13,1.36-0.84,1.4-1.68
			c0.04-0.77-0.43-1.49-1.15-1.76c-0.33-0.12-0.71-0.18-1.11-0.19c-2.72-0.01-5.26-0.01-7.75,0.01c-0.47,0-0.88,0.07-1.2,0.21
			c-0.55,0.23-0.95,0.71-1.07,1.28c-0.12,0.56,0.03,1.11,0.4,1.52c0.37,0.4,0.94,0.59,1.24,0.67c0.34,0.09,0.69,0.08,1.03,0.07
			c0.11,0,0.23,0,0.34,0c1.08,0.01,1.08,0.01,1.09,1.05v0.26c0,2.75,0.01,9.54,0.01,16.44c0.01,7.23,0.01,14.57,0.01,17.47
			c0,0.23,0,0.47,0,0.7c0,0.23-0.09,0.3-0.31,0.3c-0.3,0-0.59,0-0.89,0c-0.1,0-0.21,0-0.31,0c-0.28,0-0.57,0-0.86,0.05
			c-0.89,0.15-1.52,0.85-1.56,1.73c-0.05,0.95,0.5,1.68,1.44,1.91c0.29,0.07,0.61,0.1,1.02,0.1c0.41,0,0.83,0,1.24,0
			c6.4,0,12.8,0,19.19-0.01c0.33,0,0.63-0.03,0.92-0.07c0.98-0.17,1.61-0.81,1.65-1.67c0.09-1.95,0.11-3.97,0.05-6.18
			C168.69,358.31,167.8,357.74,166.95,357.73z"/>
		<path d="M212.18,363.36c-0.5-0.06-0.99-0.06-1.41-0.05c-0.44,0.02-0.77-0.2-1-0.66c-0.09-0.17-0.15-0.35-0.22-0.53l-13.92-35.52
			c-0.23-0.58-0.45-1.16-0.69-1.74c-0.35-0.86-1.01-1.29-1.96-1.29c0,0-0.01,0-0.01,0c-0.93,0-1.58,0.45-1.95,1.32
			c-0.05,0.12-0.1,0.24-0.14,0.36l-14.52,37.06c-0.39,0.99-0.39,0.99-1.48,1.01l-0.14,0c-0.42,0.01-0.85,0.01-1.27,0.1
			c-0.85,0.17-1.44,0.9-1.44,1.77c0,0.86,0.59,1.59,1.44,1.78c0.31,0.07,0.63,0.07,0.91,0.07c2.5,0.01,5,0.01,7.49,0.01
			c0.02,0,0.04,0,0.05,0c0.18,0,0.38,0,0.58-0.03c0.96-0.12,1.64-0.86,1.67-1.78c0.02-0.93-0.67-1.72-1.61-1.83
			c-0.39-0.05-0.78-0.05-1.16-0.05c-0.19,0-0.39,0-0.58-0.01c-0.2-0.01-0.41-0.02-0.65-0.04l-0.1-0.01
			c0.01-0.04,0.02-0.09,0.03-0.13c0.05-0.24,0.1-0.44,0.17-0.62c1.53-3.93,3.07-7.86,4.61-11.78c0.35-0.89,0.37-0.9,1.29-0.9
			c4.54,0.01,9.07,0.02,13.61,0.04c0.97,0,0.99,0.02,1.35,0.94c1.53,3.9,3.05,7.8,4.57,11.7c0.07,0.18,0.13,0.37,0.21,0.6
			c0.01,0.04,0.03,0.09,0.04,0.13l-0.15,0.01c-0.27,0.02-0.49,0.04-0.7,0.05c-0.19,0.01-0.39,0.01-0.58,0.01
			c-0.38,0-0.77,0.01-1.16,0.06c-0.89,0.13-1.54,0.88-1.53,1.8c0.01,0.91,0.64,1.65,1.54,1.79c0.3,0.05,0.6,0.05,0.89,0.05h0.09
			c2.35,0,4.71-0.01,7.06-0.01l0.1,0c0.2,0,0.4,0,0.61-0.02c1.07-0.09,1.83-0.83,1.85-1.81
			C213.99,364.23,213.27,363.48,212.18,363.36z M199.15,346.09c-0.01,0.01-0.05,0.05-0.23,0.08c-0.11,0.01-0.23,0.01-0.34,0.01
			l-1.71,0c-3.12,0-6.25-0.01-9.37-0.01c-0.19,0-0.38-0.02-0.55-0.03l-0.09-0.01c-0.09-0.21-0.03-0.37,0.09-0.62
			c0.03-0.06,0.06-0.13,0.08-0.19c1.07-2.76,2.16-5.51,3.24-8.27l1.4-3.58c0.33-0.86,0.67-1.71,1.01-2.57
			c0.08-0.19,0.16-0.39,0.25-0.58l0.05-0.1c0.01,0.02,0.02,0.03,0.03,0.05c0.09,0.15,0.18,0.29,0.24,0.44
			c1.82,4.63,3.63,9.26,5.45,13.89l0.33,0.85c0.05,0.14,0.1,0.26,0.13,0.37C199.19,346.01,199.16,346.07,199.15,346.09z"/>
		<path d="M140.13,326.84l0-0.12c0-0.14,0-0.29-0.01-0.43c-0.02-0.19-0.05-0.42-0.12-0.64c-0.26-0.87-0.98-1.41-1.86-1.37
			c-0.91,0.04-1.65,0.72-1.75,1.63c-0.04,0.37-0.04,0.75-0.04,1.11c0,0.24,0,0.49-0.01,0.73c0,0.09-0.04,0.22-0.06,0.29
			c-0.11-0.01-0.25-0.06-0.34-0.13c-0.27-0.2-0.53-0.41-0.79-0.61c-0.32-0.26-0.66-0.53-1.01-0.78c-6.14-4.24-13.66-3.72-19.15,1.33
			c-2.02,1.86-3.58,4.05-4.61,6.52c-3.19,7.6-2.86,15.2,0.99,22.59c1.61,3.09,3.88,5.58,6.77,7.43c5.48,3.5,11.91,3.33,17.21-0.47
			c0.04-0.03,0.08-0.06,0.13-0.09c0.07-0.05,0.14-0.11,0.21-0.15c0.19-0.11,0.26-0.11,0.28-0.11c0,0,0,0,0,0
			c0,0,0.06,0.05,0.08,0.32c0.01,0.17,0.01,0.34,0.02,0.51c0,0.27,0.01,0.54,0.05,0.82c0.16,1.03,0.9,1.72,1.84,1.72
			c0.05,0,0.1,0,0.14-0.01c0.99-0.07,1.71-0.86,1.72-1.88c0.02-1.89,0.01-3.89-0.03-6.29c-0.02-0.89-0.47-1.53-1.29-1.83
			c-0.79-0.28-1.57-0.03-2.19,0.72c-0.15,0.18-0.29,0.36-0.44,0.55c-0.18,0.23-0.36,0.45-0.54,0.67c-4.49,5.14-11.3,5.69-16.56,1.34
			c-1.69-1.4-3.06-3.09-4.1-5.04c-2.66-5.02-3.32-10.4-1.97-15.99c0.81-3.33,2.36-6.12,4.62-8.31c4.13-4.01,9.68-4.53,14.49-1.37
			c1.47,0.96,2.74,2.18,3.89,3.72c0.07,0.1,0.14,0.19,0.21,0.29c0.14,0.19,0.27,0.38,0.42,0.56c0.62,0.73,1.64,1.02,2.56,0.71
			c0.86-0.29,1.3-0.99,1.31-2.08c0.01-0.6-0.01-2.2-0.03-3.62C140.14,328.1,140.13,327.22,140.13,326.84z"/>
	</g>
</g>
</svg>
