<?xml version="1.0" encoding="utf-8"?>
<!-- Generator: Adobe Illustrator 25.2.1, SVG Export Plug-In . SVG Version: 6.00 Build 0)  -->
<svg version="1.1" id="Calque_1" xmlns="http://www.w3.org/2000/svg" xmlns:xlink="http://www.w3.org/1999/xlink" x="0px" y="0px"
	 viewBox="0 0 432 432" style="enable-background:new 0 0 432 432;" xml:space="preserve">
<style type="text/css">
	.st0{fill:#F9D53D;}
	.st1{fill:#D3B844;}
	.st2{fill:#E0AAAF;}
	.st3{fill:#BA9196;}
	.st4{fill:#EAB978;}
	.st5{fill:#FBB03B;}
	.st6{fill:#A1C3CE;}
	.st7{fill:#8CC63F;}
	.st8{fill:#C7B299;}
	.st9{fill:#CCCCCC;}
	.st10{fill:#C44750;}
	.st11{fill:#998675;}
	.st12{fill:#29ABE2;}
	.st13{fill:#C79C52;}
	.st14{fill:#766FBF;}
	.st15{fill:#E8A3AB;}
</style>
<g>
	<g>
		<path class="st7" d="M174.86,64.92c5.19-0.21,10.37-0.12,15.56,0.06c3.31,0.12,6.6,0.44,9.79,1.38c1.32,0.39,2.62,0.84,3.9,1.33
			c2.73,1.04,5.54,1.55,8.46,1.5c2.33-0.04,4.66-0.04,6.99,0c2.87,0.05,5.63-0.46,8.3-1.48c2.4-0.91,4.83-1.72,7.37-2.13
			c2.54-0.42,5.1-0.55,7.66-0.65c6.59-0.25,13.18-0.12,19.76,0.18c4.84,0.22,9.67,0.5,14.5,0.81c1.66,0.11,3.31,0.37,4.96,0.61
			c0.54,0.08,1.08,0.26,1.61,0.42c1.04,0.32,1.77,1.02,2.08,2.02c0.67,2.16,1.03,4.38,0.78,6.65c-0.15,1.36-0.82,2.43-1.97,3.2
			c-0.62,0.41-1.2,0.87-1.8,1.3c-0.81,0.57-1.25,1.37-1.37,2.32c-0.12,0.97-0.24,1.94-0.27,2.92c-0.1,2.62-0.13,5.24-0.23,7.85
			c-0.07,1.91-0.35,3.79-0.85,5.64c-1.19,4.39-3.82,7.73-7.52,10.28c-3.45,2.38-7.31,3.78-11.41,4.54c-3.89,0.73-7.81,1-11.77,0.8
			c-4.21-0.22-8.29-1.04-12.16-2.72c-5.5-2.38-9.08-6.6-11.34-12.04c-1.19-2.87-1.87-5.89-2.58-8.9c-0.43-1.85-0.9-3.7-1.42-5.53
			c-0.21-0.73-0.54-1.44-0.91-2.1c-1.3-2.33-3.82-2.97-5.99-2.63c-1.92,0.3-3.36,1.31-4.15,3.08c-0.54,1.22-0.96,2.52-1.3,3.82
			c-0.69,2.63-1.23,5.31-1.94,7.93c-0.43,1.6-0.96,3.2-1.61,4.72c-2.75,6.47-7.45,10.78-14.24,12.8c-4,1.18-8.06,1.71-12.22,1.63
			c-4.03-0.07-8.02-0.51-11.91-1.63c-3.44-0.99-6.63-2.48-9.44-4.73c-3.86-3.09-6.09-7.09-6.78-11.98
			c-0.37-2.58-0.34-5.17-0.45-7.76c-0.06-1.56-0.1-3.12-0.18-4.68c-0.02-0.5-0.11-1-0.2-1.49c-0.16-0.86-0.57-1.59-1.3-2.11
			c-0.58-0.41-1.14-0.87-1.74-1.25c-1.41-0.91-2.08-2.23-2.15-3.86c-0.09-1.94,0.21-3.85,0.72-5.72c0.34-1.26,1.17-2.17,2.47-2.45
			c1.57-0.34,3.16-0.65,4.76-0.8C160.47,65.4,167.67,65.2,174.86,64.92z"/>
		<g>
			<path class="st0" d="M164.13,351.65c0.88-0.86,0.39-2.36-0.82-2.53l-7.34-1.07c-0.48-0.07-0.9-0.37-1.12-0.81l-3.28-6.66
				c-0.54-1.1-2.12-1.1-2.66,0l-3.28,6.66c-0.22,0.44-0.63,0.74-1.12,0.81l-7.34,1.07c-1.22,0.18-1.7,1.67-0.82,2.53l5.31,5.18
				c0.35,0.34,0.51,0.83,0.43,1.31l-1.25,7.32c-0.21,1.21,1.06,2.14,2.15,1.56l6.57-3.45c0.43-0.23,0.95-0.23,1.38,0l6.57,3.45
				c1.09,0.57,2.36-0.35,2.15-1.56l-1.25-7.32c-0.08-0.48,0.08-0.97,0.43-1.31L164.13,351.65z"/>
			<path class="st7" d="M197.21,351.65c0.88-0.86,0.39-2.36-0.82-2.53l-7.34-1.07c-0.48-0.07-0.9-0.37-1.12-0.81l-3.28-6.66
				c-0.54-1.1-2.12-1.1-2.66,0l-3.28,6.66c-0.22,0.44-0.63,0.74-1.12,0.81l-7.34,1.07c-1.22,0.18-1.7,1.67-0.82,2.53l5.31,5.18
				c0.35,0.34,0.51,0.83,0.43,1.31l-1.25,7.32c-0.21,1.21,1.06,2.14,2.15,1.56l6.57-3.45c0.43-0.23,0.95-0.23,1.38,0l6.57,3.45
				c1.09,0.57,2.36-0.35,2.15-1.56l-1.25-7.32c-0.08-0.48,0.08-0.97,0.43-1.31L197.21,351.65z"/>
			<path class="st0" d="M229.83,351.65c0.88-0.86,0.39-2.36-0.82-2.53l-7.34-1.07c-0.48-0.07-0.9-0.37-1.12-0.81l-3.28-6.66
				c-0.54-1.1-2.12-1.1-2.66,0l-3.28,6.66c-0.22,0.44-0.63,0.74-1.12,0.81l-7.34,1.07c-1.22,0.18-1.7,1.67-0.82,2.53l5.31,5.18
				c0.35,0.34,0.51,0.83,0.43,1.31l-1.25,7.32c-0.21,1.21,1.06,2.14,2.15,1.56l6.57-3.45c0.43-0.23,0.95-0.23,1.38,0l6.57,3.45
				c1.09,0.57,2.36-0.35,2.15-1.56l-1.25-7.32c-0.08-0.48,0.08-0.97,0.43-1.31L229.83,351.65z"/>
			<path class="st7" d="M263.05,351.65c0.88-0.86,0.39-2.36-0.82-2.53l-7.34-1.07c-0.48-0.07-0.9-0.37-1.12-0.81l-3.28-6.66
				c-0.54-1.1-2.12-1.1-2.66,0l-3.28,6.66c-0.22,0.44-0.63,0.74-1.12,0.81l-7.34,1.07c-1.22,0.18-1.7,1.67-0.82,2.53l5.31,5.18
				c0.35,0.34,0.51,0.83,0.43,1.31l-1.25,7.32c-0.21,1.21,1.06,2.14,2.15,1.56l6.57-3.45c0.43-0.23,0.95-0.23,1.38,0l6.57,3.45
				c1.09,0.57,2.36-0.35,2.15-1.56l-1.25-7.32c-0.08-0.48,0.08-0.97,0.43-1.31L263.05,351.65z"/>
			<path class="st0" d="M295.68,351.65c0.88-0.86,0.39-2.36-0.82-2.53l-7.34-1.07c-0.48-0.07-0.9-0.37-1.12-0.81l-3.28-6.66
				c-0.54-1.1-2.12-1.1-2.66,0l-3.28,6.66c-0.22,0.44-0.63,0.74-1.12,0.81l-7.34,1.07c-1.22,0.18-1.7,1.67-0.82,2.53l5.31,5.18
				c0.35,0.34,0.51,0.83,0.43,1.31l-1.25,7.32c-0.21,1.21,1.06,2.14,2.15,1.56l6.57-3.45c0.43-0.23,0.95-0.23,1.38,0l6.57,3.45
				c1.09,0.57,2.36-0.35,2.15-1.56l-1.25-7.32c-0.08-0.48,0.08-0.97,0.43-1.31L295.68,351.65z"/>
		</g>
	</g>
	<g>
		<g>
			<g>
				<path d="M111.82,155.16c2.59,1.24,4.73,2.93,6.15,4.97c1.97,2.83,2.25,6.08,0.77,8.91c-3.11,5.94-12.96,8.96-29.28,8.96v-7.15
					c0.88,0,1.72-0.01,2.53-0.03l-0.94-38.5c-0.82,0.05-1.66,0.1-2.53,0.16l-0.52-7.13c11.42-0.83,20.3-0.28,26.38,1.63
					c7.9,2.48,9.99,6.89,10.36,10.15C125.47,143.65,119.55,150.57,111.82,155.16z M117.64,137.91c-0.26-2.33-4.85-5.71-19.45-5.79
					l0.5,20.67C108.66,150.73,118.16,142.6,117.64,137.91z M98.87,160.06l0.25,10.31c8.84-0.97,12.51-3.19,13.27-4.65
					c0.11-0.22,0.32-0.62-0.3-1.52C110.59,162.04,105.52,159.39,98.87,160.06z"/>
				<path d="M163.24,179.07l-7.14,0.27c-0.2-5.28-0.61-10.79-1.19-16.14l-20.75,1.43c-0.46,5.08-0.69,10.1-0.69,14.58l-7.15,0
					c0-0.34,0.01-6.25,0.66-14.08l-3.51,0.24l-0.49-7.13l4.74-0.33c0.11-0.91,0.23-1.84,0.37-2.77
					c2.51-17.69,7.16-27.77,14.21-30.81c2.6-1.12,5.32-0.92,7.66,0.55c3.27,2.07,7.99,7.48,11.17,30.54
					c0.01,0.06,0.02,0.12,0.03,0.19l3.39-0.23l0.49,7.13l-3.03,0.21C162.95,171.64,163.22,178.7,163.24,179.07z M154.01,156.1
					c-1.82-12.65-4.62-23.12-7.88-25.17c-0.3-0.19-0.5-0.25-1.01-0.03c-5.08,2.19-8.4,13.76-10.15,26.51L154.01,156.1z"/>
				<path d="M206.34,160.32l7.14-0.16c0.12,5.64-2.34,10.88-6.93,14.77c-4.09,3.47-9.58,5.53-15.06,5.68
					c-0.2,0.01-0.39,0.01-0.59,0.01c-9.71,0-20.94-6.26-21.49-24.08c-0.26-8.65,0.9-29.24,17.36-33.54
					c9.27-2.42,19.83,2.02,24.04,10.1l-6.34,3.3c-2.35-4.52-9.3-8.2-15.9-6.48c-8.09,2.11-12.47,11.74-12.02,26.4
					c0.5,16.26,11.4,17.22,14.75,17.15C198.7,173.27,206.51,167.94,206.34,160.32z"/>
				<path d="M247.35,179.62l-22.31-22.24v19.71h-7.15V125.5h7.15v16.61l14.31-18.77l5.68,4.33l-17.25,22.62l0.13-0.13l24.48,24.4
					L247.35,179.62z"/>
			</g>
			<g>
				<path d="M290.13,155.16c2.59,1.24,4.73,2.93,6.15,4.97c1.97,2.83,2.25,6.08,0.77,8.91c-3.11,5.94-12.96,8.96-29.28,8.96v-7.15
					c0.88,0,1.72-0.01,2.53-0.03l-0.94-38.5c-0.82,0.05-1.66,0.1-2.53,0.16l-0.52-7.13c11.42-0.83,20.3-0.28,26.38,1.63
					c7.9,2.48,9.99,6.89,10.36,10.15C303.78,143.65,297.86,150.57,290.13,155.16z M295.95,137.91c-0.26-2.33-4.85-5.71-19.45-5.79
					l0.5,20.67C286.97,150.73,296.47,142.6,295.95,137.91z M277.18,160.06l0.25,10.31c8.84-0.97,12.51-3.19,13.27-4.65
					c0.11-0.22,0.32-0.62-0.3-1.52C288.9,162.04,283.83,159.39,277.18,160.06z"/>
				<path d="M343.89,128.84c0.62,17.44-1.16,39.75-13.1,47.03c-2.34,1.43-4.91,2.14-7.53,2.14c-2.62,0-5.28-0.71-7.82-2.14
					c-5.69-3.2-9.52-9.31-9.52-15.21h7.15c0,3.29,2.47,7.06,5.87,8.97c1.62,0.91,4.83,2.13,8.13,0.12c2.8-1.71,8.71-7.8,9.66-28.87
					c-3.29,5.81-8.48,11.74-15.97,11.74c-3.16,0-5.98-1.24-8.14-3.58c-6.48-7.01-5.47-22.37-5.34-24.1l3.56,0.28l3.56,0.28
					c0,0,0,0,0,0c-0.41,5.33,0.17,15.12,3.47,18.69c0.82,0.88,1.71,1.28,2.89,1.28c7.38,0,12.42-12.9,13.61-17.42l0.7-2.67h8.71
					L343.89,128.84z"/>
			</g>
		</g>
		<g>
			<path d="M118.78,312.32c-6.49,11.93-21.07,18.77-40.02,18.77v-7.15c1.57,0,3.1-0.06,4.59-0.16l-0.62-44.48
				c-1.19,0.03-2.42,0.09-3.7,0.19l-0.55-7.13c18.13-1.39,32.52,3.96,39.47,14.7C122.91,294.72,123.22,304.16,118.78,312.32z
				 M111.96,290.95c-2.11-3.26-8.08-9.93-22.07-11.38l0.6,43.27c10.33-2.07,18.23-6.96,22.02-13.93
				C115.72,303,115.52,296.45,111.96,290.95z"/>
			<path d="M133.44,322.65h24.42v7.15h-31.57v-3.58c0-0.44,0-48.73,0-48.73v-3.72l27.28-0.33v7.17l-20.13,0.6v25.92l8.09-0.57
				l0.5,7.13l-8.59,0.6V322.65z"/>
			<path d="M209,275.43l1.05,52.23l-7.15,0.14l-0.71-35.47L190.2,318.7h-5.59l-15.2-28.07v37.11h-7.15v-52.31h7.04l17.79,32.84
				l14.95-32.84H209z"/>
			<path d="M254.67,329.22l-7.14,0.27c-0.2-5.28-0.61-10.79-1.19-16.14l-20.75,1.43c-0.46,5.08-0.69,10.1-0.69,14.58l-7.15,0
				c0-0.34,0.01-6.25,0.66-14.08l-3.51,0.24l-0.49-7.13l4.74-0.33c0.11-0.91,0.23-1.84,0.37-2.77c2.51-17.69,7.16-27.77,14.21-30.81
				c2.6-1.12,5.32-0.92,7.66,0.55c3.27,2.07,7.99,7.48,11.17,30.54c0.01,0.06,0.02,0.12,0.03,0.19l3.39-0.23l0.49,7.13l-3.03,0.21
				C254.38,321.79,254.65,328.85,254.67,329.22z M245.44,306.25c-1.82-12.65-4.62-23.12-7.88-25.17c-0.3-0.19-0.5-0.25-1.01-0.03
				c-5.08,2.19-8.4,13.76-10.15,26.51L245.44,306.25z"/>
			<path d="M297.01,275.8h7.15v51.59h-7.08l-28.87-39.25l0.75,39.18l-7.14,0.14l-0.99-51.62l7.17-0.05l29.02,39.45V275.8z"/>
			<path d="M350.39,312.32c-6.49,11.93-21.07,18.77-40.02,18.77v-7.15c1.57,0,3.1-0.06,4.59-0.16l-0.62-44.48
				c-1.19,0.03-2.42,0.09-3.7,0.19l-0.55-7.13c18.13-1.39,32.52,3.96,39.47,14.7C354.52,294.72,354.83,304.16,350.39,312.32z
				 M343.57,290.95c-2.11-3.26-8.08-9.93-22.07-11.38l0.6,43.27c10.33-2.07,18.23-6.96,22.02-13.93
				C347.33,303,347.13,296.45,343.57,290.95z"/>
		</g>
		<path d="M127.02,225.48c-2.85,1.05-5.4,1.99-8.13,2.99c-0.22,0.69-0.49,1.51-0.75,2.34c-1.39,4.47-3.7,8.38-7.14,11.59
			c-3.81,3.54-8.34,5.35-13.52,5.52c-2.07,0.07-4.09-0.22-5.99-1.11c-0.43-0.2-0.86-0.38-1.54-0.67c-0.06,0.68-0.17,1.13-0.12,1.55
			c0.35,2.91,0.73,5.81,1.1,8.72c0.1,0.77,0.17,1.55,0.28,2.33c0.37,2.66-2.53,4.15-4.38,3.93c-1.04-0.13-1.87-0.65-2.29-1.61
			c-0.59-1.34-1.15-2.69-1.59-4.08c-1.34-4.2-2.11-8.52-2.74-12.87c-1.79-12.51-2.39-25.08-1.83-37.7c0.09-1.95,0.29-3.9,0.63-5.82
			c0.21-1.23,0.69-2.44,1.19-3.6c0.52-1.23,1.54-2,2.81-2.39c2.2-0.68,4.21,0.4,4.68,2.67c0.31,1.52,0.38,3.1,0.47,4.65
			c0.08,1.36,0.01,2.73,0.03,4.1c0,0.18,0.12,0.36,0.18,0.54c0.53,0.09,0.61-0.35,0.77-0.67c0.69-1.29,1.26-2.65,2.07-3.86
			c3.41-5.1,9.09-6.95,14.9-4.95c3.06,1.05,5.47,2.97,7.47,5.45c3.48,4.31,5.36,9.27,5.79,14.77c0.14,1.85,0.08,3.71,0.1,5.56
			c0.01,0.77,0,1.54,0,2.43c2.93-0.35,5.35-1.52,7.85-3.02c0.16-1.59,0.32-3.22,0.49-4.86c0.09-0.89-0.54-1.43-0.98-2.06
			c-2.17-3.13-3.37-6.59-3.52-10.4c-0.15-3.83,0.73-7.36,3.08-10.46c3.26-4.31,8.09-5.6,13.03-3.47c2.09,0.9,3.87,2.25,5.49,3.84
			c3.9,3.85,6.6,8.45,8.4,13.58c0.71,2.02,1.22,4.11,1.8,6.18c0.26,0.93,0.48,1.88,0.74,2.93c2.28-0.84,3.87-2.41,5.67-3.96
			c0.03-1.09,0.02-2.26,0.1-3.41c0.15-2.43,0.28-4.87,0.54-7.3c0.1-0.95,0.38-1.93,0.79-2.8c0.36-0.78,0.89-1.54,1.54-2.1
			c2.16-1.89,5.19-1.09,6.16,1.6c0.23,0.63,0.31,1.33,0.44,1.99c0.14,0.75,0.27,1.51,0.47,2.68c0.48-0.64,0.75-0.95,0.98-1.3
			c0.59-0.9,1.08-1.87,1.75-2.7c3.99-4.99,10.71-5.64,15.6-1.54c1.9,1.59,3.32,3.57,4.45,5.76c2.02,3.89,2.86,8.07,2.96,12.42
			c0.04,1.74,0.01,3.49,0.01,5.22c2.08,0.37,2.52,0.08,2.61-1.78c0.12-2.44,0.16-4.88,0.32-7.32c0.17-2.63,0.36-5.26,0.71-7.87
			c0.2-1.43,0.65-2.85,1.18-4.2c0.53-1.37,1.7-2.11,3.13-2.38c1.84-0.36,3.66,0.54,4.24,2.31c0.41,1.28,0.64,2.67,0.65,4.02
			c0.03,2.93-0.07,5.86-0.21,8.78c-0.48,9.7,0.07,19.34,2.12,28.84c0.59,2.75,1.54,5.44,2.47,8.1c0.44,1.25,1.06,2.5,2.31,3.35
			c1.21-1.22,1.75-2.69,2.19-4.15c1.03-3.46,1.95-6.95,2.88-10.44c0.33-1.22,0.5-2.49,0.86-3.71c1.37-4.65,1.7-9.36,1.3-14.19
			c-0.5-5.95-0.21-11.91,0.3-17.85c0.13-1.45,0.39-2.92,0.84-4.3c0.78-2.39,2.78-3.54,5.25-3.25c1.83,0.22,3.04,1.31,3.29,3.18
			c0.17,1.25,0.18,2.53,0.17,3.8c-0.03,3.91-0.16,7.81-0.16,11.72c0,6.94,0.34,13.87,1.14,20.76c0.47,4.08,1.29,8.1,2.51,12.02
			c0.46,1.48,1.11,2.92,1.79,4.32c0.42,0.87,0.99,1.69,1.63,2.42c1.72,1.96,2.79,1.97,4.6,0.12c0.48-0.49,0.91-1.02,1.31-1.57
			c0.46-0.63,0.85-1.3,1.32-2.01c-0.27-0.75-0.51-1.48-0.8-2.2c-2.23-5.67-3.56-11.57-4.19-17.61c-0.45-4.27-0.77-8.56-0.91-12.85
			c-0.18-5.48,0.14-10.94,1.47-16.29c0.59-2.38,1.5-4.64,2.8-6.73c0.99-1.6,2.2-2.98,3.73-4.08c3.36-2.41,8.91-2.68,11.76,2.61
			c1.94,3.61,2.62,7.54,2.82,11.57c0.26,5.4-0.43,10.72-1.43,16.01c-1.47,7.79-3.49,15.42-6.49,22.77
			c-0.34,0.83-0.59,1.63-0.31,2.54c1.07,3.46,2.23,6.87,4.16,9.97c0.35,0.56,0.84,1.02,1.33,1.62c0.89-0.91,1.2-1.94,1.62-2.89
			c1.85-4.21,3.19-8.6,4.42-13.02c0.33-1.17,0.27-2.29-0.01-3.46c-1.3-5.55-1.87-11.17-1.5-16.86c0.29-4.51,1.12-8.92,2.94-13.08
			c0.74-1.69,1.67-3.31,2.63-4.89c0.97-1.6,2.3-2.91,3.8-4.03c4.28-3.2,9.47-3.43,13.97-0.55c1.22,0.78,2.3,1.8,3.42,2.74
			c0.59,0.49,1.13,1.04,1.66,1.54c0.88-0.46,1.64-0.9,2.43-1.24c1.12-0.48,2.27-0.46,3.43-0.06c1.53,0.53,2.47,1.53,2.66,3.15
			c0.1,0.87,0.15,1.75,0.15,2.63c0,2.34-0.03,4.69-0.08,7.03c-0.16,8.32,0.24,16.6,1.66,24.81c0.84,4.82,2.15,9.52,4.07,14.03
			c0.64,1.51,1.3,3.03,2.54,4.28c1.06-0.76,1.39-1.79,1.67-2.79c0.77-2.72,1.61-5.43,2.14-8.21c1.36-7.1,2.15-14.28,2.53-21.51
			c0.3-5.56,0.57-11.12,0.05-16.68c-0.05-0.56-0.15-1.12-0.25-1.81c-1.11-0.03-2.06-0.07-3.02-0.09c-2.3-0.04-4.41-0.72-6.37-1.91
			c-3.82-2.34-5.75-7.89-4.56-11.78c1.46-4.75,6.32-6.86,10.75-4.57c1.99,1.03,3.44,2.62,4.38,4.58c0.92,1.93,1.59,3.98,2.32,5.99
			c0.27,0.72,0.42,1.49,0.67,2.38c0.74-0.1,1.41-0.15,2.04-0.29c2.11-0.48,4.22-0.73,6.39-0.36c3.57,0.6,6.06,2.55,7.41,5.91
			c1.22,3.04,1.59,6.25,1.65,9.48c0.07,4.29,0.03,8.6-0.14,12.89c-0.26,6.95-0.11,13.87,0.89,20.75c0.22,1.53,0.62,3.06,1.1,4.54
			c0.46,1.4,1.26,2.64,2.7,3.36c1.29-0.36,1.81-1.44,2.33-2.46c1.17-2.28,1.85-4.73,2.09-7.28c0.44-4.86,0.79-9.73,1.19-14.59
			c0.07-0.87,0.12-1.75,0.3-2.61c0.17-0.81,0.72-1.36,1.53-1.63c1.19-0.4,2.16,0.24,2.26,1.5c0.04,0.49,0.03,0.98,0,1.46
			c-0.39,5.36-0.73,10.71-1.2,16.06c-0.22,2.53-0.93,4.99-1.89,7.35c-0.7,1.73-1.65,3.32-3.02,4.63c-3.08,2.96-7.54,3.28-11,0.79
			c-2.21-1.59-3.65-3.76-4.66-6.26c-1.4-3.48-2.1-7.13-2.24-10.85c-0.17-4.78-0.15-9.57-0.17-14.35c-0.01-3.91,0.07-7.81,0.05-11.72
			c-0.02-3.13-0.37-6.24-1.2-9.27c-0.85-3.11-1.32-3.38-4.57-2.91c-0.28,0.04-0.54,0.17-1.01,0.33c-0.01,0.63-0.07,1.28-0.01,1.93
			c0.66,7.12,0.6,14.24,0.05,21.36c-0.38,4.96-0.85,9.92-1.42,14.87c-0.44,3.78-1.18,7.53-2.38,11.15
			c-0.46,1.38-1.04,2.73-1.67,4.05c-0.63,1.34-1.58,2.46-2.77,3.36c-2.7,2.05-5.92,2.17-8.73,0.3c-1.9-1.27-3.37-2.96-4.65-4.82
			c-2.02-2.92-3.42-6.14-4.34-9.56c-0.5-1.88-0.86-3.81-1.31-5.7c-0.17-0.71-0.42-1.41-0.79-2.62c-0.74,2.48-1.32,4.43-1.91,6.38
			c-0.65,2.15-1.22,4.33-1.98,6.44c-0.52,1.46-1.15,2.93-1.99,4.22c-2.15,3.3-5.89,4.05-9.21,1.95c-2.44-1.55-4.29-3.69-5.82-6.11
			c-1.09-1.72-2.05-3.53-3.2-5.54c-0.32,0.62-0.61,1.06-0.79,1.54c-1,2.75-1.96,5.52-2.98,8.26c-0.34,0.91-0.76,1.81-1.26,2.64
			c-1.73,2.87-4.87,3.8-7.86,2.29c-2.13-1.07-3.81-2.71-5.31-4.54c-0.61-0.74-1.2-1.51-1.73-2.18c-0.86-0.03-1.08,0.6-1.49,0.98
			c-0.58,0.53-1.1,1.12-1.7,1.61c-4.13,3.33-9.38,3.38-13.44-0.05c-1.4-1.18-2.59-2.65-3.67-4.15c-1.96-2.72-3.14-5.83-3.99-9.06
			c-0.27-1.03-0.54-2.07-0.91-3.48c-0.37,0.68-0.66,1.05-0.77,1.46c-0.63,2.46-1.15,4.94-1.85,7.38c-0.4,1.4-0.96,2.77-1.63,4.07
			c-0.48,0.94-1.15,1.83-1.91,2.56c-1.99,1.9-4.97,2.28-7.3,0.8c-1.3-0.82-2.47-1.91-3.5-3.07c-1.96-2.21-3.31-4.82-4.42-7.55
			c-2.36-5.74-3.65-11.73-4.08-17.91c-0.09-1.35-0.16-2.7-0.25-4.07c-1.43-0.41-2.44,0.23-3.6,0.61c-0.3,0.94-0.57,1.87-0.89,2.78
			c-1.42,4.01-3.45,7.65-6.6,10.58c-4.12,3.83-8.8,5.73-14.68,4.15c-0.05,0.62-0.2,1.16-0.13,1.67c0.54,3.87,1.13,7.73,1.7,11.59
			c0.07,0.48,0.17,0.97,0.17,1.45c-0.04,2.24-2.49,4.19-4.67,3.74c-1.03-0.21-1.77-0.84-2.19-1.78c-0.98-2.23-2.08-4.42-2.86-6.72
			c-1.54-4.55-2.31-9.27-2.92-14.02c-0.86-6.69-1.4-13.4-1.68-20.14c-0.02-0.37-0.11-0.74-0.19-1.23c-1.16,0.13-1.7,1.05-2.49,1.55
			c-0.82,0.52-1.61,1.1-2.43,1.67c0.17,2.75,0.39,5.46,0.48,8.18c0.24,7.26-0.34,14.44-2.47,21.44c-0.72,2.34-1.58,4.62-2.98,6.66
			c-1.54,2.25-3.52,3.94-6.24,4.55c-2.92,0.65-5.62,0.03-8.06-1.7c-2.46-1.74-4.21-4.06-5.51-6.73c-1.94-3.99-3.03-8.23-3.62-12.61
			c-0.63-4.65-0.93-9.33-1-14.02C127.13,226.76,127.08,226.28,127.02,225.48z M284.92,256.06c1.69-2.29,2.48-4.61,3.19-6.92
			c1.74-5.69,3.34-11.42,5.04-17.13c0.62-2.09,0.74-4.18,0.66-6.35c-0.14-3.9-0.18-7.81-0.03-11.71c0.19-4.99,0.29-4.98-3.41-8.3
			c-1.24-1.11-2.57-2.08-4.12-2.75c-1.15-0.49-2.11-0.31-2.94,0.54c-0.61,0.62-1.23,1.28-1.68,2.01c-0.82,1.32-1.62,2.68-2.26,4.09
			c-2.38,5.26-3.19,10.82-3.05,16.56c0.12,5.01,1.12,9.88,2.21,14.74c0.79,3.53,1.81,6.99,3.27,10.31
			C282.53,252.84,283.33,254.51,284.92,256.06z M137.23,222.89c-0.08,0.8-0.24,1.55-0.21,2.3c0.18,4.19,0.22,8.39,0.65,12.56
			c0.46,4.46,1.24,8.9,2.78,13.14c0.56,1.54,1.27,3.09,2.23,4.41c1.94,2.68,3.25,2.52,4.94-0.37c1.29-2.21,2.09-4.63,2.67-7.1
			c1.85-7.87,2.08-15.84,1.19-23.85c-0.03-0.24-0.27-0.46-0.34-0.59c-2.35,0.12-4.59,0.4-6.82,0.31
			C142.01,223.62,139.71,223.19,137.23,222.89z M150.87,219.34c-0.17-1.01-0.29-1.88-0.48-2.73c-1-4.69-2.35-9.27-4.69-13.49
			c-1.48-2.66-3.25-5.1-5.54-7.13c-1.18-1.04-2.46-1.88-3.98-2.4c-1.66-0.57-3.11-0.25-4.34,0.9c-0.7,0.66-1.3,1.45-1.82,2.27
			c-1.02,1.59-1.44,3.41-1.69,5.25c-0.44,3.24,0.55,7.09,2.47,9.71c0.53-0.11,1.08-0.28,1.65-0.35c3.16-0.36,4.56,0.78,4.87,3.94
			c0.09,0.95,0.12,1.91,0.17,2.76C142.19,220.35,147.15,220.84,150.87,219.34z M109.41,223.66c0.09-0.67,0.28-1.32,0.26-1.97
			c-0.06-1.56-0.12-3.13-0.34-4.67c-0.66-4.43-2.28-8.47-5.21-11.9c-0.81-0.95-1.77-1.82-2.78-2.57c-1.17-0.87-2.06-0.85-3.19,0.12
			c-0.94,0.82-1.8,1.79-2.5,2.82c-1.27,1.87-2.03,3.99-2.66,6.15c-1.31,4.51-2.11,9.11-2.54,13.78c-0.03,0.32,0.1,0.66,0.17,1.05
			c7.01-3.3,9.98-3.38,16.6-2.83C107.91,223.71,108.58,223.66,109.41,223.66z M181.35,201.52c-1.52,0.49-2.44,1.52-3.13,2.69
			c-0.88,1.5-1.73,3.05-2.35,4.68c-1.47,3.83-2.21,7.85-2.58,11.93c-0.14,1.52-0.47,3.06-0.2,4.84c0.67-0.28,1.19-0.47,1.68-0.7
			c1.68-0.81,3.43-1.39,5.3-1.48c1.74-0.08,3.49-0.07,5.24-0.13c0.55-0.02,1.11-0.12,1.8-0.2c0.4-2.34,0.33-4.56,0.23-6.77
			c-0.19-4.25-1.36-8.23-3.41-11.95C183.32,203.33,182.75,202.17,181.35,201.52z M256.3,194.11c-1.27,0.83-1.68,1.96-2.03,3.05
			c-0.53,1.66-1.01,3.37-1.29,5.09c-1.82,11-1.1,21.96,0.72,32.88c0.06,0.36,0.4,0.68,0.75,1.25c0.26-0.67,0.41-1.02,0.53-1.39
			c2.53-8.02,4.27-16.2,4.89-24.6c0.29-3.91,0.07-7.8-0.99-11.6C258.4,197.11,257.86,195.44,256.3,194.11z M109.11,227.95
			c-3.76-1.09-8.62-1.13-11.76-0.01c-1.18,0.42-2.36,1-3.34,1.76c-2.77,2.15-3.35,6.28-1.42,9.24c1.75,2.68,4.98,3.33,8.31,1.65
			c1.95-0.98,3.55-2.4,4.82-4.17C107.52,233.92,108.65,231.15,109.11,227.95z M186.23,227.24c-2.48-0.29-4.61-0.39-6.74-0.07
			c-3.51,0.51-5.82,3.2-5.79,6.58c0.02,2.12,1.17,3.44,2.96,4.28c1.04,0.49,2.1,0.42,3-0.36
			C182.82,234.93,185.09,231.64,186.23,227.24z M317.48,203.07c-0.56-3.05-1.16-5.87-2.43-8.51c-0.37-0.78-0.85-1.54-1.43-2.18
			c-1.74-1.95-3.78-1.58-4.72,0.86c-0.31,0.8-0.47,1.7-0.47,2.55c0,1.68,0.49,3.25,1.41,4.68
			C311.52,203.07,313.88,203.94,317.48,203.07z"/>
	</g>
</g>
</svg>
