<?xml version="1.0" encoding="utf-8"?>
<!-- Generator: Adobe Illustrator 25.2.1, SVG Export Plug-In . SVG Version: 6.00 Build 0)  -->
<svg version="1.1" id="Calque_1" xmlns="http://www.w3.org/2000/svg" xmlns:xlink="http://www.w3.org/1999/xlink" x="0px" y="0px"
	 viewBox="0 0 432 432" style="enable-background:new 0 0 432 432;" xml:space="preserve">
<style type="text/css">
	.st0{fill:#E0AAAF;}
	.st1{fill:#F9D53D;}
	.st2{fill:#FBB03B;}
	.st3{fill:#CCCCCC;}
	.st4{fill:#8CC63F;}
	.st5{fill:#C5D8A7;}
	.st6{fill:#C44750;}
	.st7{fill:#998675;}
	.st8{fill:#C7B299;}
	.st9{fill:none;}
	.st10{fill:#29ABE2;}
	.st11{fill:#B3B3B3;}
	.st12{fill:#C79C52;}
	.st13{fill:#65C8D0;}
	.st14{fill:#BA9BC9;}
	.st15{fill:#A57A7F;}
	.st16{fill:#FFFFFF;}
</style>
<g>
	<g>
		<g>
			<path class="st0" d="M123.73,335.93c-3.52-0.76-6.46,0.71-8.88,3.62c-3.25,3.9-1.17,3.83-4.72,0.18
				c-2.64-2.72-5.68-3.96-9.13-2.93c-3.51,1.05-5.21,4.21-4.64,8.4c0.44,3.28,2.32,7,4.04,9.67c4.07,6.31,11.22,14.4,13.21,14.32
				c2.05-0.08,8.51-8.66,12.11-15.29c1.51-2.79,3.1-6.65,3.29-9.95C129.25,339.73,127.31,336.7,123.73,335.93z"/>
			<path class="st0" d="M314.08,262.68c-6.6-1.43-12.09,1.32-16.63,6.78c-6.08,7.31-2.19,7.18-8.84,0.34
				c-4.95-5.1-10.63-7.42-17.1-5.49c-6.57,1.96-9.75,7.89-8.69,15.74c0.83,6.14,4.34,13.11,7.56,18.11
				c7.62,11.81,21.02,26.97,24.74,26.83c3.84-0.15,15.95-16.22,22.68-28.64c2.83-5.23,5.8-12.45,6.15-18.63
				C324.41,269.8,320.78,264.13,314.08,262.68z"/>
			<path class="st0" d="M86.94,277.71c-2.87-0.74-5.32,0.38-7.4,2.69c-2.79,3.1-1.08,3.11-3.87,0c-2.08-2.31-4.53-3.43-7.4-2.69
				c-2.91,0.75-4.4,3.29-4.07,6.75c0.26,2.7,1.68,5.81,3.01,8.05c3.14,5.3,8.75,12.16,10.38,12.16c1.68,0,7.25-6.83,10.41-12.16
				c1.33-2.24,2.75-5.35,3.01-8.05C91.35,281,89.85,278.46,86.94,277.71z"/>
			<path class="st0" d="M247.63,262.74c-2.87-0.74-5.32,0.38-7.4,2.69c-2.79,3.1-1.08,3.11-3.87,0c-2.08-2.31-4.53-3.43-7.4-2.69
				c-2.91,0.75-4.4,3.29-4.07,6.75c0.26,2.7,1.68,5.81,3.01,8.05c3.14,5.3,8.75,12.16,10.38,12.16c1.68,0,7.25-6.83,10.41-12.16
				c1.33-2.24,2.75-5.35,3.01-8.05C252.03,266.03,250.54,263.48,247.63,262.74z"/>
			<path class="st0" d="M335.12,316.47c-1.64-0.42-3.04,0.22-4.23,1.54c-1.59,1.77-0.62,1.78-2.22,0c-1.19-1.32-2.59-1.96-4.23-1.54
				c-1.66,0.43-2.52,1.88-2.33,3.86c0.15,1.54,0.96,3.33,1.72,4.61c1.8,3.03,5.01,6.96,5.94,6.96c0.96,0,4.15-3.91,5.95-6.96
				c0.76-1.28,1.57-3.06,1.72-4.61C337.63,318.35,336.78,316.9,335.12,316.47z"/>
			<path class="st0" d="M275.74,62.94c-1.64-0.42-3.04,0.22-4.23,1.54c-1.59,1.77-0.62,1.78-2.22,0c-1.19-1.32-2.59-1.96-4.23-1.54
				c-1.66,0.43-2.52,1.88-2.33,3.86c0.15,1.54,0.96,3.33,1.72,4.61c1.8,3.03,5.01,6.96,5.94,6.96c0.96,0,4.15-3.91,5.95-6.96
				c0.76-1.28,1.57-3.06,1.72-4.61C278.26,64.82,277.41,63.37,275.74,62.94z"/>
			<path class="st0" d="M371.58,269.9c-4.47-1.15-8.29,0.59-11.54,4.2c-4.35,4.83-1.69,4.85-6.04,0c-3.24-3.61-7.07-5.35-11.54-4.2
				c-4.54,1.17-6.87,5.13-6.35,10.52c0.41,4.21,2.62,9.07,4.69,12.57c4.9,8.27,13.65,18.97,16.2,18.97
				c2.62,0,11.32-10.66,16.24-18.97c2.07-3.5,4.29-8.35,4.69-12.57C378.45,275.03,376.12,271.07,371.58,269.9z"/>
			<path class="st0" d="M266.29,313.86c-2.87-0.74-5.32,0.38-7.4,2.69c-2.79,3.1-1.08,3.11-3.87,0c-2.08-2.31-4.53-3.43-7.4-2.69
				c-2.91,0.75-4.4,3.29-4.07,6.75c0.26,2.7,1.68,5.81,3.01,8.05c3.14,5.3,8.75,12.16,10.38,12.16c1.68,0,7.25-6.83,10.41-12.16
				c1.33-2.24,2.75-5.35,3.01-8.05C270.69,317.15,269.2,314.61,266.29,313.86z"/>
		</g>
		<path class="st15" d="M135.41,320.11c-4.59,1.3-9.01,1.03-13.09-1.64c-0.41,0.17-0.76,0.31-1.1,0.45
			c-5.47,2.29-10.35-0.22-12.81-4.26c-1.85-3.03-2.04-6.26-0.88-9.58c0.14-0.4,0.29-0.81,0.51-1.18c0.42-0.71,0.36-1.38,0.08-2.14
			c-0.71-1.93-1.02-3.93-1-5.99c0.03-3,0.99-5.67,2.85-8.02c1.42-1.79,3.12-3.27,5.21-4.2c1.67-0.74,2.77-1.91,3.56-3.51
			c0.97-1.98,2.22-3.78,3.68-5.44c3.02-3.44,6.82-5.46,11.28-6.32c2.38-0.46,4.77-0.7,7.19-0.51c1.13,0.09,2.11-0.19,3.02-0.84
			c0.7-0.5,1.42-0.97,2.15-1.42c2.69-1.66,5.61-2.63,8.75-2.94c3.07-0.3,5.96,0.33,8.69,1.75c0.8,0.42,1.61,0.84,2.46,1.28
			c0.5-0.23,0.98-0.45,1.45-0.68c2.45-1.18,5.03-1.82,7.75-1.81c3.81,0.03,7.11,1.37,9.89,3.97c0.39,0.37,0.77,0.74,1.16,1.11
			c0.04,0.03,0.1,0.04,0.26,0.12c0.25-0.06,0.61-0.14,0.97-0.22c1.15-0.24,2.29-0.61,3.46-0.7c4.14-0.3,7.7,1.01,10.55,4.08
			c1,1.07,1.77,2.29,2.23,3.68c0.13,0.4,0.29,0.79,0.46,1.25c0.6,0.08,1.18,0.14,1.75,0.23c3.05,0.48,5.74,1.67,7.9,3.95
			c2.04,2.15,3.12,4.72,3.28,7.66c0.05,1.01,0.04,2.04-0.09,3.05c-0.15,1.19,0.24,2.08,1.11,2.85c0.72,0.64,1.42,1.3,2.1,1.98
			c1.15,1.15,2.05,2.46,2.67,3.97c0.88,2.13,0.78,4.18-0.43,6.15c-0.36,0.59-0.73,1.19-1.13,1.76c-0.93,1.35-1.18,2.85-0.94,4.45
			c0.13,0.85,0.26,1.69,0.4,2.54c0.56,3.39,0.13,6.61-1.5,9.66c-1.26,2.37-2.7,4.62-4.6,6.55c-2.39,2.43-5.2,4.1-8.51,4.93
			c-0.42,0.1-0.83,0.22-1.25,0.31c-1.57,0.36-2.87,1.16-3.93,2.36c-0.43,0.48-0.82,0.99-1.23,1.48c-2.31,2.79-5.24,4.53-8.8,5.21
			c-0.74,0.14-1.48,0.25-2.21,0.43c-1.19,0.3-1.64,0.82-1.66,2.03c-0.01,0.79,0.09,1.6,0.25,2.38c0.4,1.96,1.27,3.74,2.22,5.49
			c0.41,0.75,0.77,1.53,1.13,2.31c0.62,1.37,0.21,2.5-0.84,3.47c-0.76,0.7-1.65,1.19-2.63,1.51c-1.33,0.45-2.71,0.63-4.11,0.68
			c-1.28,0.05-2.33-0.42-3.05-1.46c-0.79-1.15-1.54-2.32-2.19-3.55c-1.36-2.55-2.59-5.17-3.99-7.7c-1.69-3.04-3.48-6.03-5.25-9.03
			c-0.46-0.78-1.01-1.52-1.55-2.25c-0.87-1.17-2.02-1.89-3.48-2.1c-1.38-0.19-2.76-0.37-4.13-0.6c-0.74-0.12-1.47-0.3-2.19-0.5
			c-2.47-0.69-4.43-2.11-5.86-4.24c-0.36-0.53-0.71-1.07-1.09-1.59c-0.5-0.69-1.18-1.07-2.05-1.07c-0.75,0-1.5-0.02-2.25-0.03
			c-1.29-0.01-2.56-0.22-3.79-0.6c-1.87-0.58-3.32-1.7-4.32-3.38c-0.69-1.16-1.2-2.39-1.65-3.65
			C136.05,321.42,135.94,320.71,135.41,320.11z M170.72,291.08c0.35-0.13,0.87-0.26,1.34-0.51c0.49-0.26,0.84-0.7,0.79-1.3
			c-0.05-0.61-0.49-0.92-1.05-1.07c-0.36-0.1-0.73-0.17-1.09-0.28c-0.72-0.22-1.45-0.39-2.14-0.68c-3.73-1.59-6.21-4.29-7.17-8.28
			c-0.27-1.14-0.42-2.31-0.64-3.47c-0.12-0.63-0.19-1.28-0.42-1.87c-0.37-0.96-1.59-1.09-2.2-0.25c-0.22,0.29-0.38,0.66-0.47,1.01
			c-0.29,1.2-0.5,2.41-0.38,3.66c0.23,2.33,0.93,4.49,2.28,6.43c2.56,3.68,6.17,5.67,10.48,6.54
			C170.22,291.04,170.38,291.04,170.72,291.08z M183.07,312.47c1.3,0.02,2.98-0.31,4.61-0.86c0.45-0.15,0.89-0.37,1.28-0.64
			c0.42-0.29,0.62-0.74,0.49-1.26c-0.13-0.53-0.53-0.84-1.03-0.88c-0.58-0.05-1.17,0-1.75,0.08c-0.47,0.07-0.92,0.28-1.39,0.38
			c-3.4,0.75-6.36-0.04-8.77-2.61c-1.07-1.14-1.87-2.47-2.52-3.89c-0.29-0.63-0.55-1.28-0.91-1.87c-0.21-0.35-0.54-0.66-0.89-0.87
			c-0.53-0.31-1.24-0.05-1.48,0.52c-0.14,0.33-0.21,0.72-0.19,1.08c0.03,0.53,0.13,1.06,0.25,1.58c0.83,3.66,2.83,6.42,6.27,8.03
			C178.81,312.1,180.69,312.5,183.07,312.47z M129.07,300.55c1.75,0.02,3.6-0.21,5.41-0.75c5.52-1.66,9.28-5.14,10.96-10.73
			c0.09-0.31,0.19-0.61,0.23-0.93c0.06-0.47-0.15-0.84-0.54-1.09c-1.15-0.72-2.73-0.21-3.2,1.06c-0.26,0.7-0.42,1.43-0.65,2.15
			c-0.75,2.39-2.24,4.23-4.25,5.67c-1.23,0.88-2.59,1.5-4.03,1.94c-2.61,0.8-5.26,0.84-7.95,0.51c-0.64-0.08-1.28-0.14-1.92-0.18
			c-0.26-0.02-0.55,0.01-0.78,0.1c-0.17,0.07-0.36,0.28-0.38,0.45c-0.02,0.16,0.11,0.44,0.25,0.52c0.37,0.21,0.77,0.38,1.17,0.5
			C125.21,300.31,127.05,300.62,129.07,300.55z M159.83,316.19c-0.01-3.02-0.61-5.38-1.84-7.57c-1.08-1.92-2.68-3.31-4.58-4.38
			c-0.56-0.31-1.16-0.56-1.83-0.42c-0.95,0.19-1.22,0.84-0.65,1.61c0.22,0.3,0.47,0.58,0.71,0.87c0.44,0.53,0.91,1.05,1.33,1.61
			c2.32,3.09,3.43,6.5,2.74,10.38c-0.06,0.32-0.1,0.64-0.11,0.96c-0.03,0.81,0.4,1.3,1.2,1.43c1.18,0.18,2.4-0.6,2.65-1.81
			C159.65,317.81,159.75,316.74,159.83,316.19z M196.67,326.48c0.88-0.09,2.05-0.17,3.22-0.33c2.01-0.27,4.02-0.6,5.94-1.28
			c2.34-0.83,4.49-1.99,6.31-3.71c0.9-0.85,1.67-1.82,2.07-3.01c0.15-0.45,0.25-0.93,0.27-1.4c0.03-0.59-0.42-0.99-1.02-1
			c-0.51-0.01-0.95,0.16-1.28,0.56c-0.31,0.37-0.6,0.75-0.89,1.14c-0.86,1.18-1.91,2.16-3.1,2.99c-1.92,1.33-4.05,2.16-6.35,2.51
			c-1.79,0.27-3.6,0.45-5.41,0.65c-0.77,0.08-1.48,0.25-2.02,0.83c-0.55,0.59-0.42,1.34,0.27,1.76
			C195.21,326.53,195.79,326.51,196.67,326.48z M195.36,296.87c-0.86,0-1.72-0.05-2.57,0.02c-0.46,0.04-0.96,0.18-1.35,0.42
			c-0.86,0.54-0.77,1.62,0.17,2.04c0.48,0.21,1.03,0.31,1.55,0.35c2.9,0.22,5.78,0.1,8.62-0.56c2.69-0.63,5.19-1.68,7.31-3.5
			c0.82-0.7,1.58-1.46,2.1-2.41c0.25-0.46,0.41-0.99,0.49-1.5c0.08-0.51-0.35-0.92-0.86-0.96c-0.45-0.04-0.85,0.07-1.19,0.37
			c-0.32,0.28-0.62,0.59-0.96,0.86c-0.91,0.74-1.79,1.54-2.77,2.19C202.71,296.29,199.14,297.02,195.36,296.87z M180.29,338.23
			c0.9,0,1.69-0.36,2.17-0.96c0.65-0.82,0.41-1.7-0.58-2.01c-0.51-0.16-1.04-0.24-1.55-0.4c-2.28-0.68-3.96-2.09-4.94-4.26
			c-0.57-1.27-1.05-2.57-1.56-3.87c-0.12-0.3-0.19-0.61-0.32-0.91c-0.18-0.43-0.52-0.69-0.99-0.69c-0.45-0.01-0.85,0.16-1.08,0.58
			c-0.15,0.28-0.28,0.58-0.35,0.89c-0.08,0.36-0.12,0.74-0.13,1.11c-0.23,5.22,3.71,9.85,8.91,10.48
			C180.02,338.2,180.18,338.21,180.29,338.23z M190.36,286.35c0.24-0.07,0.78-0.14,1.23-0.38c0.93-0.51,0.93-1.48,0.06-2.04
			c-0.27-0.17-0.57-0.29-0.87-0.41c-0.4-0.16-0.8-0.3-1.21-0.43c-2.54-0.83-4.28-2.52-5.35-4.94c-0.22-0.49-0.4-0.99-0.6-1.48
			c-0.12-0.29-0.22-0.6-0.39-0.87c-0.29-0.47-0.84-0.67-1.39-0.55c-0.52,0.11-0.87,0.43-0.98,0.94c-0.07,0.36-0.1,0.75-0.04,1.11
			c0.35,2.21,1.12,4.24,2.74,5.84c1.72,1.69,3.86,2.63,6.18,3.18C189.86,286.33,189.97,286.32,190.36,286.35z"/>
	</g>
	<g>
		<g>
			<path d="M336.22,206.22c-0.27-0.05-0.55-0.05-0.82-0.05c-2.42-0.02-4.84-0.04-7.26-0.05c-0.34,0-0.68,0.01-1.01,0.06
				c-0.96,0.15-1.63,0.88-1.68,1.79c-0.06,0.91,0.51,1.71,1.46,1.96c0.41,0.11,0.85,0.12,1.27,0.13c1.03,0.03,1.14,0.11,1.21,1.14
				c0.01,0.12-0.02,25.82-0.07,26.14c-0.09,0-0.19,0.01-0.28,0.01c-0.11-0.27-0.22-0.54-0.32-0.82c-1.59-4.57-7.93-22.91-9.53-27.51
				c-0.67-1.93-1.37-2.42-3.38-2.41c-4.9,0.03-9.8,0.07-14.71,0.1c-0.25,0-0.49,0-0.73,0.02c-1.12,0.09-1.87,0.86-1.85,1.89
				c0.01,0.99,0.74,1.73,1.82,1.83c0.37,0.04,0.73,0.06,1.1,0.1c0.43,0.04,0.66,0.28,0.67,0.72c0.01,0.49,0.15,23.65,0.2,34.75
				c0,0.25,0.01,0.49-0.01,0.74c-0.04,0.91-0.23,1.09-1.16,1.16c-0.15,0.01-0.31,0.01-0.46,0.04c-0.93,0.16-1.58,0.94-1.56,1.87
				c0.01,0.89,0.64,1.64,1.55,1.79c0.33,0.05,0.67,0.04,1.01,0.04c4.84,0,9.68,0,14.52,0c0.28,0,0.55,0.01,0.83-0.03
				c0.95-0.12,1.63-0.87,1.65-1.79c0.02-0.98-0.64-1.75-1.64-1.89c-0.33-0.04-0.67-0.02-1.01-0.05c-0.85-0.06-1.01-0.23-1.05-1.06
				c0-0.12,0-0.25,0-0.37c-0.08-11.55-0.29-35.03-0.24-35.2c0.06-0.22,0.2-0.41,0.3-0.61c0.22,0.13,0.53,0.22,0.63,0.41
				c0.25,0.48,9.06,25.95,13.28,38.16c0.15,0.43,0.29,0.87,0.51,1.28c0.45,0.85,1.39,1.25,2.34,1.04c0.94-0.2,1.52-0.87,1.61-1.87
				c0.04-0.46,0.03-0.92,0.02-1.38c-0.03-12.19-0.09-37.2-0.05-37.5c0.09-0.58,0.24-0.71,0.85-0.73c0.64-0.02,1.29,0.03,1.93-0.03
				c1.01-0.1,1.76-0.97,1.75-1.93C337.89,207.19,337.19,206.39,336.22,206.22z M311.17,246.92c-0.08,0.68-0.25,0.91-0.9,0.95
				c-1.1,0.06-2.2,0.05-3.31,0.03c-0.45-0.01-0.71-0.35-0.8-0.77c-0.06-0.27-0.06-0.55-0.06-0.82c0-5.73-0.18-28.41-0.18-34.02
				c0-0.15,0-0.31,0-0.46c0.01-1.24,0.14-1.37,1.38-1.38c0.89-0.01,1.78-0.02,2.67,0c0.67,0.02,0.86,0.22,0.92,0.89
				c0.03,0.37,0.03,0.73,0.03,1.1c0.1,11.06,0.19,22.12,0.29,33.19C311.21,246.06,311.22,246.49,311.17,246.92z"/>
			<path d="M226.01,246.83c-0.1-1.46-0.77-2.6-1.99-3.41c-1.45-0.96-3.31-0.72-4.49,0.56c-0.96,1.04-1.01,1.06-1.63-0.27
				c-1.45-3.12-2.85-6.27-4.25-9.41c-0.51-1.15-0.42-1.33,0.77-1.77c0.15-0.05,0.3-0.1,0.44-0.15c1.51-0.57,2.96-1.28,4.27-2.24
				c2.13-1.56,3.56-3.6,4.29-6.14c0.77-2.69,0.82-5.41,0.1-8.09c-1.31-4.86-4.26-8.2-9.24-9.5c-1.96-0.51-3.97-0.69-6-0.68
				c-5.15,0.03-10.31,0.06-15.46,0.1c-0.34,0-0.69,0.02-1.02,0.09c-0.27,0.06-0.54,0.16-0.77,0.32c-0.61,0.43-0.89,1.03-0.79,1.77
				c0.1,0.74,0.53,1.29,1.23,1.49c0.53,0.15,1.1,0.14,1.65,0.18c0.58,0.05,0.7,0.15,0.77,0.71c0.02,0.15,0.02,0.31,0.02,0.47
				c0.06,11.73,0.12,23.47,0.18,35.2c0,0.46-0.08,0.91-0.13,1.41c-0.7,0.09-1.26,0.11-1.79,0.25c-0.83,0.22-1.36,0.98-1.35,1.8
				c0.01,0.78,0.52,1.51,1.31,1.74c0.38,0.11,0.79,0.15,1.19,0.15c4.97,0.01,9.93,0,14.9,0c0.16,0,0.31,0.01,0.47-0.01
				c0.21-0.03,0.43-0.06,0.64-0.12c0.81-0.25,1.36-1,1.35-1.81c-0.01-0.78-0.52-1.52-1.31-1.74c-0.47-0.13-0.98-0.13-1.47-0.17
				c-0.85-0.06-0.93-0.14-0.97-1.01c0-0.06,0-0.12,0-0.19c-0.03-3.54-0.07-7.08-0.09-10.62c0-0.37,0.02-0.75,0.07-1.11
				c0.12-0.79,0.29-0.92,1.06-1.03c0.6-0.08,1.04,0.11,1.3,0.66c0.16,0.34,0.31,0.67,0.46,1.02c1.32,2.98,2.61,5.97,3.95,8.94
				c0.85,1.87,1.86,3.65,3.11,5.28c0.77,1.01,1.71,1.8,2.9,2.25c1.02,0.39,2.05,0.45,3.1,0.12
				C224.83,251.2,226.16,249.14,226.01,246.83z M201.93,247.55c-1.02,0.01-2.05,0.01-3.07,0c-0.72-0.01-0.87-0.17-0.93-0.86
				c-0.02-0.22-0.01-0.43-0.01-0.65c0-5.83-0.18-28.73-0.18-34.34c0-0.28-0.01-0.56,0-0.84c0.02-1.02,0.11-1.14,1.1-1.17
				c0.93-0.03,1.86-0.05,2.79,0c0.84,0.04,1.02,0.24,1.12,1.06c0.05,0.4,0.09,0.8,0.1,1.2c0.09,11.39,0.17,22.77,0.26,34.16
				c0,0.09,0,0.19,0,0.28C203.09,247.45,203,247.54,201.93,247.55z M207.62,229.62c-0.7,0.02-0.8-0.08-0.82-0.8
				c-0.02-0.99-0.02-1.99-0.02-2.98c0-2.05-0.14-11.92-0.14-14.8c0-1.15,0.15-1.3,1.26-1.32c1.49-0.03,2.97,0.1,4.44,0.34
				c4.93,0.8,6.86,4.39,7.47,7.51c0.33,1.7,0.29,3.39-0.14,5.07c-0.47,1.81-1.45,3.27-2.99,4.35c-2.03,1.42-4.31,2.16-6.75,2.45
				C209.16,229.52,208.39,229.59,207.62,229.62z"/>
			<path d="M365.11,236.98c-0.72-4.56-2.67-8.45-6.22-11.46c-1.19-1.01-2.44-1.96-3.63-2.96c-1.22-1.03-2.43-2.06-3.58-3.15
				c-1.01-0.96-1.75-2.13-2.15-3.49c-0.26-0.89-0.28-1.77-0.01-2.66c0.93-3.09,4.31-3.28,6.2-2.25c0.29,0.16,0.63,0.47,0.67,0.75
				c0.07,0.47-0.46,0.46-0.78,0.57c-2.64,0.91-3.34,4.37-1.26,6.23c1.94,1.73,4.9,1.34,6.37-0.86c0.56-0.84,0.86-1.78,0.98-2.78
				c0.4-3.26-1.71-6.68-5.03-7.94c-3.09-1.17-6.21-1.18-9.33,0c-5.81,2.2-8.88,7.63-7.75,13.73c0.55,2.97,1.81,5.6,3.81,7.84
				c1.62,1.81,3.35,3.53,5.05,5.27c1,1.03,2.05,2.03,3.04,3.07c1.4,1.48,2.22,3.27,2.66,5.24c0.14,0.61,0.18,1.26,0.12,1.87
				c-0.14,1.43-0.85,2.48-2.26,2.97c-1.62,0.57-3.28,0.73-4.97,0.34c-1.06-0.25-2.07-0.64-2.92-1.34c-0.4-0.34-0.37-0.56,0.06-0.83
				c0.15-0.1,0.32-0.17,0.47-0.26c2.16-1.31,2.73-3.81,1.36-5.94c-1.36-2.11-3.79-2.66-5.87-1.24c-2.03,1.38-2.84,3.38-2.55,5.78
				c0.41,3.4,2.31,5.72,5.41,7.09c1.96,0.86,4.04,1.13,5.93,1.12c3.46,0.02,6.55-0.66,9.48-2.01c3.2-1.47,5.41-3.84,6.4-7.26
				C365.34,240.63,365.39,238.82,365.11,236.98z M358.73,244.97c-0.11,0.09-0.24,0.15-0.58,0.36c-0.02-0.48-0.03-0.76-0.04-1.04
				c-0.04-0.87,0.04-1.75-0.13-2.59c-0.53-2.63-1.57-5.05-3.38-7.06c-1.06-1.18-2.22-2.28-3.33-3.42c-1.59-1.63-3.22-3.23-4.76-4.91
				c-1.65-1.81-2.78-3.91-3.15-6.36c-0.33-2.2-0.17-4.32,1.16-6.21c0.3-0.42,0.3-0.42,0.87-0.62c0.02,0.24,0.07,0.47,0.06,0.69
				c-0.18,2.59,0.67,4.88,2.24,6.86c0.98,1.24,2.14,2.35,3.33,3.4c1.48,1.31,3.05,2.53,4.61,3.74c3.44,2.68,5.32,6.22,5.74,10.51
				C361.65,240.95,360.81,243.23,358.73,244.97z"/>
			<path d="M186.64,229.85c-1.83-2.26-4.24-3.66-6.96-4.57c-0.23-0.08-0.47-0.14-0.7-0.22c-0.36-0.14-0.33-0.41-0.15-0.66
				c0.1-0.14,0.27-0.24,0.42-0.35c3.09-2.13,3.98-5.56,3.05-8.92c-1.28-4.59-4.36-7.35-8.93-8.41c-1.68-0.39-3.45-0.55-5.18-0.57
				c-3.95-0.05-7.9,0.05-11.84,0.1c-0.34,0-0.68,0.01-1.01,0.07c-0.85,0.16-1.48,0.88-1.53,1.72c-0.04,0.81,0.46,1.55,1.26,1.83
				c0.2,0.07,0.42,0.1,0.63,0.12c0.95,0.09,1.02,0.17,1.04,1.11c0.01,0.24,0,0.49,0,0.73c0,5.75-0.16,31.96-0.17,34.89
				c0,0.18-0.01,0.37-0.01,0.55c0,0.37-0.18,0.55-0.56,0.58c-0.33,0.03-0.67,0.06-0.99,0.16c-0.81,0.24-1.32,0.97-1.31,1.79
				c0.02,0.8,0.51,1.48,1.3,1.7c0.4,0.11,0.84,0.13,1.27,0.13c2.02-0.02,4.04-0.07,6.06-0.08c3.73-0.02,7.47,0,11.19-0.41
				c2.59-0.29,5.14-0.75,7.59-1.68c1.7-0.64,3.31-1.46,4.6-2.78C190.95,241.36,190.31,234.37,186.64,229.85z M163.9,247.81
				c-0.89,0.01-1.78-0.01-2.66,0.02c-0.5,0.02-0.74-0.21-0.8-0.67c-0.04-0.33-0.07-0.67-0.07-1.01c0.05-11.54,0.1-23.08,0.16-34.61
				c0-0.21,0-0.43,0.03-0.64c0.09-0.71,0.27-0.88,1.01-0.9c0.7-0.02,1.41-0.03,2.11-0.03c0.79,0,0.87,0.06,1,0.87
				c0.08,0.48,0.11,0.97,0.12,1.46c0.07,5.66,0.14,11.32,0.21,16.98c0,0,0,0,0,0c0.06,5.75,0.13,11.51,0.19,17.26
				C165.21,247.77,165.18,247.8,163.9,247.81z M168.55,211.09c-0.01-1.08,0.09-1.17,1.36-1.11c1.56,0.14,3.32,0.37,4.91,1.25
				c2.4,1.33,3.76,3.35,4.02,6.08c0.13,1.41-0.37,2.57-1.5,3.46c-1.37,1.06-2.96,1.57-4.63,1.86c-0.99,0.18-2,0.26-3.01,0.35
				c-0.88,0.08-1-0.04-1.01-0.97C168.64,218.37,168.59,214.73,168.55,211.09z M185.55,239.42c-0.5,2.56-1.9,4.61-4.3,5.86
				c-1.84,0.96-3.82,1.48-5.85,1.79c-1.66,0.26-3.34,0.4-5.01,0.55c-1.12,0.1-1.36-0.12-1.38-1.27c-0.07-3.61-0.11-7.22-0.16-10.83
				c-0.03-1.99-0.04-3.98-0.05-5.96c0-0.34-0.01-0.67,0.03-1.01c0.07-0.58,0.23-0.75,0.81-0.78c0.58-0.03,1.16-0.01,1.74-0.01
				c2.45,0.08,4.87,0.38,7.22,1.14c1.53,0.5,2.94,1.22,4.13,2.31C185.13,233.44,186.17,236.2,185.55,239.42z"/>
			<path d="M272.59,247.91c-0.42-0.06-0.86-0.05-1.28-0.05c-1.2-0.01-1.4-0.14-1.81-1.27c-0.05-0.14-10.11-36.13-9.96-36.46
				c0.1-0.22,0.68-0.25,1.05-0.33c0.93-0.2,1.61-1,1.57-1.89c-0.04-0.91-0.74-1.67-1.68-1.78c-0.27-0.03-0.55-0.03-0.83-0.02
				c-4.97,0.03-9.93,0.07-14.9,0.11c-0.4,0-0.8,0.02-1.19,0.09c-0.68,0.12-1.16,0.53-1.41,1.18c-0.43,1.17,0.36,2.35,1.69,2.49
				c0.39,0.04,0.78,0.04,1.29,0.07c-0.1,0.42-6.98,24.12-10.36,35.7c-0.12,0.41-0.27,0.81-0.42,1.21c-0.21,0.55-0.6,0.83-1.2,0.82
				c-0.58,0-1.17-0.01-1.75,0c-0.34,0-0.68,0.01-1.01,0.06c-0.92,0.15-1.57,0.85-1.63,1.73c-0.06,0.85,0.54,1.66,1.44,1.89
				c0.29,0.08,0.6,0.1,0.91,0.1c6.53,0.04,13.06,0.07,19.59,0.09c0.37,0,0.74-0.01,1.1-0.1c0.84-0.2,1.39-0.88,1.43-1.7
				c0.04-0.85-0.43-1.54-1.26-1.83c-0.28-0.1-0.6-0.13-0.9-0.14c-0.58-0.02-1.16,0-1.75-0.01c-0.87-0.02-1.01-0.2-0.81-1.07
				c0.14-0.6,1.84-7.12,2.54-9.78c0.28-1.04,0.41-1.13,1.44-1.14c3.04-0.01,6.07-0.02,9.11-0.02c1.06,0,1.06,0,1.36,1.06
				c0.85,2.97,2.64,9.81,2.68,9.96c0.19,0.78,0.07,0.94-0.7,1.01c-0.24,0.02-0.49,0.01-0.73,0.04c-1,0.14-1.68,0.92-1.67,1.88
				c0.02,0.93,0.68,1.66,1.64,1.81c0.24,0.04,0.49,0.04,0.73,0.04c2.36-0.01,4.72-0.03,7.08-0.05c0.18,0,0.37,0,0.55-0.02
				c0.98-0.14,1.68-0.93,1.67-1.89C274.21,248.79,273.56,248.05,272.59,247.91z M252.01,218.41c-2.43,9.33-4.87,18.66-7.3,27.99
				c-0.38,1.47-0.38,1.47-1.89,1.47c-0.52,0-1.04,0-1.56,0c0-0.01,0-0.01,0-0.02c-0.7,0-1.41,0.01-2.11,0
				c-0.84-0.02-0.98-0.2-0.75-1.01c0.57-2,1.16-4,1.74-6c2.87-9.84,5.74-19.69,8.61-29.53c0.07-0.23,0.14-0.47,0.22-0.7
				c0.17-0.46,0.51-0.64,1-0.64c1.07,0.01,2.14-0.02,3.22-0.01c0.86,0.01,0.98,0.16,0.76,0.99
				C253.31,213.43,252.66,215.92,252.01,218.41z M260.67,232.08c-2.48,0.02-4.96,0.02-7.44,0.02c-0.75,0-0.84-0.12-0.64-0.9
				c0.7-2.75,1.42-5.51,2.14-8.26c0.53-2.04,1.06-4.08,1.61-6.12c0.09-0.32,0.05-0.74,0.57-0.95c0.11,0.3,0.23,0.57,0.31,0.85
				c1.34,4.7,2.68,9.41,4.02,14.11c0.03,0.12,0.06,0.24,0.09,0.36C261.51,231.95,261.43,232.07,260.67,232.08z"/>
			<path d="M294.27,247.88c-0.36-0.06-0.74-0.07-1.11-0.07c-0.47-0.01-0.77-0.22-0.82-0.7c-0.07-0.61-0.16-1.23-0.17-1.84
				c-0.09-11.27-0.17-22.54-0.25-33.81c0-0.19-0.01-0.37,0-0.56c0.05-0.69,0.27-0.92,0.98-0.97c0.46-0.03,0.93,0,1.39-0.06
				c0.92-0.12,1.58-0.86,1.61-1.76c0.04-0.94-0.59-1.75-1.54-1.93c-0.33-0.06-0.68-0.05-1.02-0.05c-2.51,0-5.02,0-7.52,0
				c0,0.02,0,0.03,0,0.05c-2.57,0-5.14-0.01-7.71,0.01c-0.4,0-0.81,0.03-1.19,0.13c-0.85,0.22-1.38,0.91-1.4,1.75
				c-0.02,0.88,0.51,1.6,1.41,1.83c0.38,0.1,0.79,0.1,1.19,0.12c0.79,0.04,0.96,0.19,1.03,0.99c0.03,0.28,0.02,0.56,0.02,0.84
				c0.06,10.96,0.12,21.92,0.17,32.88c0,0.74-0.01,1.49-0.07,2.23c-0.05,0.71-0.2,0.82-0.92,0.88c-0.28,0.02-0.56,0.04-0.82,0.12
				c-0.88,0.24-1.42,0.95-1.41,1.84c0.01,0.84,0.53,1.53,1.39,1.75c0.35,0.09,0.73,0.12,1.1,0.12c4.95,0.01,9.91,0,14.86,0
				c0.25,0,0.5,0,0.74-0.04c1.04-0.18,1.69-0.93,1.68-1.9C295.91,248.77,295.28,248.06,294.27,247.88z M286.63,247.82
				c-0.77,0-1.55,0.01-2.32-0.02c-0.7-0.03-0.87-0.19-1.01-0.85c-0.06-0.3-0.07-0.61-0.08-0.92c-0.06-11.37-0.12-22.73-0.18-34.1
				c0-0.25,0-0.5,0.02-0.74c0.08-0.79,0.46-1.16,1.26-1.19c0.84-0.03,1.67-0.03,2.51-0.01c0.9,0.02,1.14,0.25,1.23,1.15
				c0.03,0.31,0.03,0.62,0.03,0.93c0.05,5.67,0.24,28.34,0.29,34.01C288.4,247.66,288.25,247.81,286.63,247.82z"/>
		</g>
		<g>
			<path d="M100.67,232.97c-0.62-0.31-1.11-0.17-1.54,0.38c-0.42,0.54-0.57,1.18-0.57,1.56c-0.02,1.11,0.29,1.69,0.94,2.06
				c0.88,0.52,2.33,0.37,3.09-0.31c0.57-0.51,0.68-1.12,0.26-1.76C102.29,234.07,101.56,233.41,100.67,232.97z"/>
			<path d="M104.46,216.34c-0.58-0.35-1.19-0.39-1.8-0.06c-0.69,0.38-1.08,0.96-1.09,1.7c0.03,0.95,0.32,1.74,0.85,2.43
				c0.36,0.47,0.78,0.54,1.28,0.24c0.71-0.42,1.24-1.03,1.55-1.79C105.61,217.99,105.22,216.8,104.46,216.34z"/>
			<path d="M134.17,184.5c-9.09-2.34-16.86,1.19-23.46,8.53c-8.83,9.83-3.43,9.85-12.29,0c-6.6-7.34-14.37-10.87-23.46-8.53
				c-9.22,2.37-13.96,10.43-12.91,21.39c0.82,8.56,5.33,18.43,9.54,25.54c9.95,16.8,27.75,38.57,32.93,38.57
				c5.34,0,23-21.67,33.01-38.57c4.21-7.11,8.71-16.98,9.54-25.54C148.13,194.93,143.39,186.87,134.17,184.5z M121.53,242.39
				c-0.54,1-1.2,1.89-2.14,2.55c-0.87,0.6-1.79,0.88-2.83,0.57c-0.7-0.21-1.39-0.44-2.09-0.67c-0.37-0.12-0.74-0.25-1.1-0.39
				c-0.55-0.2-1.07-0.1-1.52,0.25c-1.74,1.33-3.76,1.93-5.89,2.2c-3.29,0.42-6.52,0.14-9.66-0.99c-1.86-0.68-3.53-1.67-4.8-3.23
				c-2.41-2.98-2.85-6.34-1.79-9.93c0.57-1.92,1.62-3.58,2.98-5.06c0.53-0.57,1.01-1.19,1.47-1.82c0.5-0.68,0.6-1.43,0.25-2.21
				c-0.19-0.42-0.36-0.86-0.59-1.25c-1-1.68-1.34-3.49-1.08-5.41c0.13-0.99,0.28-1.97,0.68-2.91c1.01-2.36,2.73-3.93,5.15-4.76
				c1.69-0.58,3.42-0.75,5.49-0.66c1.61,0.04,3.47,0.34,5.26,1.09c4.14,1.75,5.42,6.3,4.4,9.6c-0.69,2.24-1.95,4.07-3.76,5.55
				c-1,0.82-2.01,1.62-3.01,2.45c-0.65,0.54-0.69,0.81-0.16,1.46c0.41,0.51,0.87,0.99,1.36,1.42s0.69,0.41,1.22-0.01
				c0.3-0.24,0.57-0.53,0.84-0.82c0.5-0.53,0.98-1.09,1.5-1.6c0.33-0.32,0.72-0.58,1.12-0.81c0.51-0.29,1.08-0.33,1.63-0.11
				c0.52,0.21,1.05,0.42,1.51,0.73c1.31,0.87,2.48,1.9,3.36,3.22c0.85,1.27,0.91,2.59,0.18,3.94c-0.16,0.3-0.35,0.59-0.52,0.88
				c-0.33,0.56-0.26,1.08,0.16,1.55c0.24,0.27,0.52,0.52,0.78,0.77c0.42,0.41,0.87,0.79,1.24,1.24
				C121.98,240.17,122.15,241.24,121.53,242.39z"/>
		</g>
		<g>
			<path d="M85.33,137.86c0.13,6.15,5.15,22,8.78,27.77c0.42-0.04,0.31-0.38,0.33-0.62c0.21-2.49,0.32-5,0.64-7.48
				c1.21-9.19,4.14-17.74,9.62-25.32c2.1-2.9,4.53-5.49,7.52-7.52c2.29-1.55,4.75-2.68,7.53-2.98c5.42-0.59,10.01,1.02,13.5,5.3
				c2.19,2.68,3.42,5.84,4.22,9.17c0.73,3.05,0.91,6.16,0.89,9.28c0,0.39-0.03,0.78-0.03,1.17c0,0.1,0.08,0.2,0.12,0.3
				c1.09,0.29,4.32,0.36,6.13,0.13c0.27-0.39,0.1-0.83,0.07-1.25c-0.72-10.43,0.25-20.67,3.52-30.65c1.03-3.13,2.28-6.16,4.03-8.96
				c0.89-1.41,1.85-2.79,2.94-4.04c2.61-2.98,5.87-4.88,9.84-5.52c2.72-0.44,5.34-0.1,7.83,1.02c6.64,3,10.99,7.96,12.76,15.11
				c1.02,4.12,0.71,8.17-0.42,12.2c-0.92,3.28-2.2,6.42-3.85,9.4c-1.13,2.06-2.49,3.95-4.04,5.71c-2.86,3.24-6.37,5.53-10.4,7.04
				c-2.98,1.11-6.04,1.91-9.17,2.44c-0.59,0.1-1.18,0.24-1.8,0.37c-0.13,1.22,0.19,2.3,0.38,3.37c1.6,8.63,4.29,16.92,7.94,24.89
				c0.97,2.13,2.11,4.17,3.43,6.11c0.82,1.2,1.71,2.34,2.8,3.3c0.84,0.73,1.72,1.41,2.83,1.61c0.91-0.38,1.44-1.11,1.99-1.8
				c0.98-1.23,1.76-2.58,2.36-4.02c1.11-2.67,2.23-5.34,3.24-8.05c2.15-5.79,4.23-11.6,6.37-17.39c0.34-0.92,0.45-1.82,0.35-2.78
				c-0.39-3.55-0.45-7.11-0.28-10.67c0.34-6.75,1.41-13.38,3.66-19.79c1.08-3.07,2.58-5.91,4.63-8.45c0.52-0.65,1.07-1.29,1.68-1.86
				c3.33-3.12,7.2-4.02,11.58-2.7c2.22,0.67,4.14,1.88,5.9,3.37c0.42,0.35,0.84,0.71,1.22,1.03c0.48-0.07,0.39-0.42,0.47-0.65
				c0.07-0.21,0.1-0.43,0.15-0.65c0.25-1.03,0.46-2.06,0.77-3.07c0.19-0.63,0.48-1.25,0.81-1.83c0.81-1.47,2.14-2.09,3.76-1.98
				c1.63,0.1,2.87,0.9,3.44,2.48c0.3,0.83,0.56,1.7,0.64,2.58c0.14,1.49,0.2,3,0.14,4.5c-0.25,7.12-0.62,14.23-0.81,21.35
				c-0.21,7.8,0.25,15.58,0.93,23.34c0.34,3.88,0.76,7.75,1.41,11.59c0.51,2.97,1.22,5.88,2.33,8.69c0.39,0.98,0.88,1.92,1.36,2.86
				c0.14,0.27,0.4,0.47,0.6,0.69c0.17-0.14,0.3-0.18,0.33-0.26c0.15-0.48,0.33-0.95,0.41-1.44c0.43-2.52,0.92-5.04,1.24-7.57
				c0.56-4.36,1.03-8.73,1.52-13.1c0.05-0.49,0.06-1.01-0.04-1.48c-1.42-6.92-1.58-13.92-1.49-20.94
				c0.09-6.91,0.54-13.79,1.17-20.66c0.5-5.43,1.16-10.84,2.27-16.19c0.45-2.18,1.03-4.33,2.12-6.3c0.37-0.68,0.79-1.36,1.31-1.92
				c1.85-2,4.87-1.39,5.79,1.18c0.65,1.8,0.76,3.7,0.63,5.6c-0.16,2.39-0.34,4.77-0.57,7.16c-0.44,4.71-0.98,9.41-1.37,14.12
				c-0.38,4.66-0.7,9.32-0.89,13.99c-0.23,5.73-0.11,11.47,0.36,17.19c0.41,5.05,0.93,10.09,2.27,15c0.47,1.71,1.05,3.4,1.7,5.05
				c0.38,0.97,0.97,1.87,1.53,2.76c0.38,0.61,0.89,1.14,1.62,1.32c0.76-0.31,1.17-0.92,1.51-1.55c0.62-1.18,1.23-2.37,1.72-3.61
				c1.3-3.27,2.1-6.68,2.91-10.09c1.48-6.22,2.89-12.46,4.29-18.7c0.23-1.02,0.34-2.09,0.35-3.14c0.07-5.01,0.35-10.01,0.81-15
				c0.45-4.93,1-9.85,1.95-14.72c0.29-1.48,0.63-2.94,1.29-4.3c0.75-1.57,1.97-2.51,3.71-2.77c2.73-0.41,4.86,1.28,5.01,4.04
				c0.07,1.27,0.04,2.56-0.08,3.84c-0.31,3.49-0.7,6.98-1.03,10.47c-0.3,3.1-0.61,6.2-0.82,9.31c-0.51,7.39-0.59,14.8-0.33,22.2
				c0.14,4,0.53,7.99,0.82,11.99c0.26,3.55,0.74,7.09,1.48,10.57c0.43,2.01,1.03,3.98,1.57,5.96c0.08,0.3,0.27,0.57,0.51,1.05
				c0.35-0.68,0.47-1.19,0.58-1.71c0.88-4.25,1.81-8.49,2.63-12.75c1.1-5.68,2.09-11.38,3.17-17.06c0.21-1.11,0.25-2.2,0.14-3.32
				c-0.92-9.21-1.2-18.44-1.01-27.68c0.11-5.01,0.24-10.02,0.47-15.02c0.19-4.22,0.55-8.44,0.83-12.66c0.03-0.43,0-0.87,0-1.42
				c-0.47-0.03-0.89-0.08-1.32-0.08c-3.67,0.03-7.35,0.13-11.02,0.08c-4.79-0.06-9.56-0.45-14.32-0.9
				c-4.38-0.41-8.74-0.91-13.07-1.72c-5.52-1.03-11.03-2.1-16.53-3.24c-6.64-1.38-13.26-2.89-19.9-4.27
				c-5.45-1.13-10.94-2-16.47-2.65c-3.54-0.42-7.09-0.68-10.65-0.78c-3.73-0.1-7.45,0.1-11.17,0.46
				c-5.56,0.54-10.99,1.67-16.29,3.43c-3.55,1.18-6.93,2.73-10.16,4.61c-3.11,1.81-5.8,4.12-8.21,6.77
				c-0.52,0.58-1.04,1.17-1.63,1.67c-0.88,0.75-2.05,0.83-2.96,0.3c-0.58-0.34-0.94-0.83-0.85-1.5c0.08-0.6,0.18-1.24,0.46-1.76
				c0.61-1.12,1.25-2.24,2.02-3.25c1.77-2.32,3.92-4.25,6.3-5.93c4.97-3.5,10.45-5.89,16.25-7.59c5.51-1.61,11.14-2.61,16.87-3.12
				c5.39-0.48,10.79-0.55,16.18-0.2c3.66,0.24,7.31,0.67,10.96,1.12c10.89,1.35,21.56,3.83,32.24,6.29
				c6.99,1.61,13.98,3.23,21.06,4.42c4.72,0.79,9.46,1.39,14.22,1.89c5.55,0.58,11.1,0.71,16.67,0.57c0.55-0.01,1.11-0.05,1.56-0.07
				c0.55-0.44,0.46-0.98,0.51-1.46c0.44-3.76,0.88-7.52,1.66-11.22c0.19-0.92,0.42-1.85,0.74-2.73c0.24-0.67,0.58-1.33,1-1.91
				c1.88-2.62,5.77-2.06,7.05,0.63c0.61,1.29,0.84,2.67,0.8,4.06c-0.07,2.39-0.26,4.78-0.41,7.16c-0.08,1.22-0.2,2.44-0.29,3.66
				c-0.01,0.1,0.06,0.2,0.13,0.4c0.63,0.08,1.26-0.16,1.89-0.29c1.41-0.31,2.8-0.72,4.22-1.01c0.75-0.15,1.54-0.23,2.31-0.18
				c0.98,0.07,1.81,0.55,2.4,1.35c0.7,0.94,0.53,1.96-0.46,2.59c-0.37,0.24-0.79,0.4-1.21,0.54c-2.64,0.88-5.31,1.65-8.04,2.18
				c-0.54,0.11-1.08,0.23-1.65,0.36c-0.27,0.9-0.31,1.79-0.37,2.67c-0.29,4.44-0.59,8.89-0.8,13.33c-0.25,5.39-0.45,10.79-0.6,16.18
				c-0.16,5.79,0.06,11.58,0.39,17.36c0.33,5.72,0.97,11.42,1.82,17.09c0.7,4.68,1.42,9.35,2.44,13.97c0.69,3.1,1.53,6.15,2.66,9.12
				c0.6,1.56,1.28,3.08,2.21,4.48c0.21,0.31,0.48,0.58,0.76,0.92c0.46-0.35,0.51-0.82,0.59-1.21c0.5-2.28,1.05-4.56,1.39-6.86
				c0.94-6.38,1.84-12.78,2.64-19.18c0.59-4.69,0.99-9.41,1.48-14.11c0.14-1.38,0.26-2.77,0.47-4.15c0.17-1.11,0.87-1.68,1.93-1.69
				c0.87-0.01,1.33,0.44,1.33,1.32c0,0.22-0.03,0.44-0.04,0.67c-0.47,7-1.01,13.99-1.82,20.95c-0.8,6.85-1.72,13.69-2.64,20.53
				c-0.21,1.54-0.59,3.06-0.99,4.56c-0.21,0.79-0.57,1.58-1.01,2.28c-1.4,2.23-4.35,3.34-6.98,1.66c-0.98-0.62-1.9-1.37-2.74-2.16
				c-1.97-1.84-3.48-4.05-4.76-6.41c-2.51-4.63-4.25-9.54-5.51-14.64c-0.4-1.6-0.75-3.21-1.2-5.16c-0.21,0.67-0.36,1.02-0.43,1.38
				c-1.24,6.67-2.47,13.34-3.72,20.01c-0.17,0.93-0.4,1.85-0.71,2.74c-0.23,0.68-0.54,1.36-0.96,1.93
				c-1.47,2.04-4.09,2.53-6.23,1.22c-1.01-0.62-1.82-1.46-2.55-2.38c-1.17-1.5-2.12-3.13-2.95-4.84c-2.37-4.84-3.81-9.97-4.59-15.28
				c-0.35-2.36-0.5-4.76-0.75-7.13c-0.03-0.31-0.09-0.61-0.19-1.3c-0.24,0.53-0.36,0.69-0.4,0.87c-0.89,3.73-1.77,7.47-2.67,11.2
				c-0.5,2.06-1.17,4.06-2.09,5.98c-0.71,1.46-1.57,2.82-2.78,3.93c-1.26,1.16-2.71,1.93-4.45,2.06c-1.43,0.11-2.76-0.2-3.99-0.94
				c-1.36-0.81-2.46-1.9-3.46-3.11c-1.64-1.98-2.93-4.19-4-6.53c-0.23-0.5-0.46-1-0.71-1.53c-0.45,0.62-0.46,0.62-0.49,0.93
				c-0.36,2.87-0.71,5.74-1.09,8.61c-0.18,1.32-0.4,2.64-0.68,3.94c-0.16,0.75-0.43,1.5-0.74,2.21c-0.39,0.88-1,1.6-1.82,2.13
				c-1.37,0.88-2.82,1.07-4.27,0.3c-0.77-0.41-1.5-0.97-2.14-1.57c-1.51-1.42-2.65-3.15-3.67-4.94c-2.61-4.58-4.39-9.48-5.7-14.56
				c-0.25-0.97-0.45-1.95-0.68-2.92c-0.05-0.2-0.14-0.38-0.19-0.54c-0.42-0.02-0.41,0.26-0.45,0.45c-0.68,3.49-1.32,7-2.05,10.48
				c-0.35,1.68-0.83,3.35-1.34,4.99c-0.44,1.39-1.11,2.68-2.08,3.78c-1.76,2.02-3.96,3.04-6.66,2.73c-1.77-0.2-3.26-1.07-4.61-2.19
				c-1.47-1.21-2.72-2.63-3.81-4.19c-1.7-2.43-3.11-5.02-4.15-7.79c-0.78-2.08-1.37-4.23-2.05-6.34c-0.12-0.36-0.23-0.73-0.43-1.35
				c-0.25,0.58-0.44,0.94-0.57,1.31c-1.22,3.52-2.42,7.05-3.64,10.57c-0.87,2.53-1.84,5.01-3.07,7.39c-0.87,1.68-1.85,3.3-3.08,4.76
				c-0.94,1.11-2,2.09-3.27,2.83c-2.03,1.18-4.18,1.42-6.44,0.83c-1.69-0.44-3.2-1.27-4.61-2.28c-2.38-1.69-4.4-3.76-6.2-6.04
				c-4.19-5.29-7.31-11.16-9.36-17.58c-1.58-4.93-2.79-9.96-3.5-15.1c-0.09-0.66-0.23-1.31-0.34-1.95
				c-1.27-0.28-5.53-0.25-7.09,0.05c-0.16,0.87-0.32,1.79-0.49,2.71c-0.66,3.74-1.72,7.36-3.34,10.81c-0.95,2.02-2.06,3.95-3.5,5.67
				c-2.68,3.21-6.01,5.44-10.12,6.38c-2.31,0.53-4.63,0.51-6.93-0.14c-2.56-0.73-4.42-2.29-5.57-4.68c-1.54-3.2-1.72-6.53-0.77-9.92
				c1.2-4.32,3.85-7.6,7.5-10.1c2.57-1.76,5.44-2.77,8.47-3.36c1.42-0.27,2.85-0.48,4.33-0.73c0.06-0.21,0.17-0.41,0.17-0.61
				c0.11-3.35-0.14-6.67-0.96-9.94c-0.45-1.79-1.13-3.49-2.08-5.08c-0.52-0.86-1.14-1.65-1.93-2.29c-0.87-0.7-1.85-0.98-2.96-0.87
				c-1.13,0.11-2.16,0.5-3.15,1.03c-1.68,0.91-3.15,2.09-4.51,3.42c-3.02,2.96-5.3,6.43-7.07,10.25
				c-2.26,4.88-3.64,10.02-4.39,15.34c-0.6,4.26-0.61,8.54-0.53,12.83c0.02,1.06-0.03,2.11-0.02,3.17c0.02,3.03-3.91,5.06-6.57,3.39
				c-0.79-0.5-1.55-1.11-2.18-1.8c-1.6-1.77-3.23-3.54-4.66-5.45c-4.81-6.4-8.06-13.56-10.04-21.3c-0.26-1.02-0.48-2.06-0.73-3.08
				c-0.09-0.37-0.23-0.72-0.38-1.15c-0.26,0.15-0.46,0.25-0.62,0.38c-4.08,3.32-7.73,7.05-10.7,11.41
				c-3.02,4.42-5.12,9.22-6.13,14.5c-0.56,2.92-0.65,5.86-0.37,8.81c0.03,0.33,0.11,0.66,0.11,0.99c0.01,1.15-0.87,1.84-2,1.61
				c-0.41-0.08-0.73-0.28-0.89-0.68c-0.14-0.36-0.27-0.73-0.36-1.11c-0.58-2.34-0.74-4.72-0.56-7.13c0.39-5.25,1.9-10.14,4.49-14.72
				c2.62-4.65,5.91-8.76,9.83-12.37c1.88-1.73,3.87-3.35,5.81-5.02c0.25-0.21,0.48-0.44,0.72-0.66c-0.23-1.76-0.45-3.47-0.67-5.17
				c-0.88-7.04-1.12-14.09-0.5-21.16c0.64-7.3,2.13-14.41,4.99-21.19c1.59-3.77,3.57-7.3,6.26-10.4c2.17-2.51,4.67-4.62,7.63-6.14
				c5.32-2.75,10.76-2.94,16.26-0.59c3.02,1.29,5.29,3.45,6.93,6.28c1.5,2.59,2.32,5.41,2.63,8.37c0.58,5.57-0.52,10.85-2.85,15.9
				c-2.09,4.54-5.02,8.53-8.35,12.23c-3.21,3.57-6.78,6.76-10.57,9.7c-3.25,2.53-6.56,4.99-9.84,7.47
				C86.33,137.11,85.8,137.5,85.33,137.86z M84.81,133.85c0.3-0.17,0.55-0.28,0.76-0.44c3.45-2.63,6.94-5.21,10.33-7.92
				c3.92-3.14,7.48-6.65,10.47-10.71c2.89-3.92,5.21-8.15,6.53-12.87c1.16-4.14,1.51-8.31,0.53-12.53c-0.53-2.3-1.42-4.45-2.97-6.27
				c-1.52-1.81-3.45-2.73-5.84-2.71c-1.72,0.01-3.28,0.47-4.76,1.32c-1.76,1.01-3.23,2.36-4.55,3.87c-2.52,2.87-4.42,6.12-5.96,9.6
				c-3.43,7.74-4.92,15.9-5.26,24.31c-0.16,4.12-0.02,8.23,0.35,12.34C84.49,132.47,84.54,133.13,84.81,133.85z M207.11,183.25
				c0.82-0.76,0.88-0.74,1.21-1.75c0.48-1.48,0.95-2.97,1.28-4.49c1.71-7.83,3.35-15.66,5.05-23.49c0.25-1.16,0.33-2.3,0.3-3.47
				c-0.08-3.45-0.21-6.9-0.16-10.35c0.08-5.62,0.2-11.24,0.76-16.84c0.07-0.67-0.11-1.17-0.55-1.66c-1.39-1.53-2.89-2.94-4.67-4.01
				c-0.8-0.48-1.68-0.86-2.56-1.2c-1.16-0.45-2.22-0.22-2.96,0.83c-0.67,0.95-1.35,1.91-1.89,2.94c-1.22,2.33-2,4.83-2.64,7.37
				c-1.05,4.16-1.7,8.39-2.16,12.66c-0.53,4.89-0.49,9.78-0.03,14.67c0.37,3.88,1.12,7.71,1.92,11.52c0.8,3.81,1.75,7.59,3.21,11.21
				c0.56,1.39,1.25,2.73,1.97,4.04C205.64,182.05,206.23,182.81,207.11,183.25z M155.53,146.51c0.29,0,0.63,0.04,0.94-0.01
				c2.97-0.47,5.87-1.21,8.69-2.27c4.39-1.65,7.74-4.5,10.13-8.52c2.06-3.48,3.46-7.2,4.29-11.15c0.57-2.74,0.78-5.5,0.34-8.28
				c-0.49-3.12-1.55-6.02-3.39-8.61c-1.42-2-3.31-3.41-5.53-4.43c-1.41-0.65-2.7-0.54-3.91,0.4c-0.79,0.61-1.61,1.21-2.27,1.94
				c-0.93,1.03-1.77,2.14-2.55,3.29c-1.16,1.71-2.01,3.58-2.78,5.5c-2.47,6.2-3.76,12.66-4.29,19.29c-0.3,3.72-0.23,7.44,0.01,11.17
				C155.24,145.37,155.18,145.94,155.53,146.51z M127.42,151.38c-1.98,0.13-3.69,0.53-5.37,1.1c-2.14,0.72-4.04,1.84-5.61,3.48
				c-2.55,2.68-3.77,5.85-3.38,9.57c0.16,1.53,0.69,2.92,1.77,4.05c0.94,0.98,2.06,1.24,3.35,0.79c0.75-0.26,1.38-0.72,1.94-1.25
				c1.22-1.16,2.24-2.47,3.08-3.92C125.67,160.99,126.81,156.39,127.42,151.38z"/>
			<path d="M351.23,151.47c-0.47-17.59-2.24-34.99-5.74-52.24c-0.51,0.17-0.5,0.59-0.57,0.94c-0.79,3.87-1.57,7.74-2.37,11.6
				c-1.01,4.9-2.11,9.79-3.66,14.55c-0.81,2.49-1.74,4.93-2.94,7.26c-0.82,1.59-1.75,3.1-2.88,4.49c-1,1.22-2.13,2.28-3.51,3.05
				c-3.7,2.09-7.32,1.96-10.83-0.47c-1.34-0.93-2.46-2.09-3.46-3.36c-2.13-2.7-3.58-5.75-4.65-9c-1.01-3.08-1.57-6.25-1.85-9.48
				c-0.42-4.83-0.43-9.68-0.24-14.51c0.21-5.39,0.64-10.78,1.64-16.09c0.25-1.31,0.58-2.61,0.98-3.87c0.23-0.73,0.59-1.45,1.03-2.08
				c1.33-1.89,3.84-2.53,5.95-1.6c1.47,0.65,2.27,1.81,2.35,3.37c0.06,1.33,0.01,2.67-0.12,4c-0.69,6.76-1.29,13.52-1.35,20.31
				c-0.05,5.63,0.26,11.24,1.19,16.79c0.45,2.69,1.16,5.32,2.3,7.82c0.56,1.22,1.18,2.4,2.07,3.41c1.35,1.52,2.1,1.57,3.64,0.24
				c0.93-0.81,1.67-1.79,2.33-2.82c1.08-1.7,1.93-3.51,2.68-5.37c2.08-5.18,3.51-10.55,4.63-16c0.9-4.36,1.49-8.77,2.05-13.19
				c0.44-3.42,0.86-6.84,1.3-10.26c0.07-0.55,0.2-1.09,0.33-1.63c0.39-1.61,1.46-2.6,2.98-3.1c2.92-0.96,5.98,0.17,7.57,2.43
				c0.81,1.15,1.41,2.41,1.8,3.74c0.71,2.4,1.43,4.8,1.98,7.24c1.49,6.68,2.59,13.43,3.44,20.22c0.8,6.35,1.38,12.72,1.84,19.1
				c0.12,1.66,0.14,3.34,0.21,5c0.01,0.32,0.06,0.63,0.09,0.91c0.48,0.12,0.59-0.2,0.73-0.4c1.48-2.13,2.46-4.48,3.05-7
				c0.6-2.55,1.02-5.13,1.1-7.75c0.01-0.39,0.02-0.78,0.09-1.16c0.23-1.18,1.13-1.79,2.48-1.73c1.23,0.06,1.91,0.73,2,2.01
				c0.04,0.5,0.02,1-0.01,1.5c-0.39,7.99-3.13,14.96-8.86,20.66c-0.12,0.12-0.22,0.25-0.44,0.51c0,0.42-0.01,0.97,0,1.52
				c0.11,5.52-0.29,11.01-1.04,16.48c-0.69,5.04-1.94,9.93-4.3,14.48c-0.87,1.68-1.81,3.32-2.98,4.82c-3.83,4.9-8.9,7.62-15.03,8.38
				c-2.5,0.31-4.87-0.32-7.1-1.44c-5.93-2.97-9.69-7.68-11.31-14.11c-0.96-3.81-0.9-7.6,0.31-11.36c1.19-3.7,3.45-6.56,6.72-8.64
				c1.89-1.2,3.94-2.08,6.08-2.7c2.88-0.84,5.8-1.55,8.68-2.37c2.57-0.73,5.11-1.52,7.66-2.31
				C349.93,152.07,350.53,151.76,351.23,151.47z M351.17,155.83c-0.33,0.05-0.6,0.05-0.86,0.13c-4.61,1.44-9.23,2.85-13.82,4.34
				c-1.63,0.53-3.25,1.15-4.8,1.88c-2.89,1.35-4.65,3.68-5.53,6.73c-1.76,6.1,0.71,12.75,4.73,16.29c1.48,1.3,3.14,2.28,5.03,2.86
				c1.56,0.48,3.06,0.39,4.55-0.28c1.33-0.6,2.51-1.41,3.56-2.43c1.58-1.54,2.71-3.38,3.55-5.4c1.51-3.66,2.48-7.48,2.99-11.41
				c0.49-3.81,0.63-7.64,0.67-11.48C351.23,156.68,351.19,156.3,351.17,155.83z"/>
		</g>
	</g>
</g>
</svg>
