<?xml version="1.0" encoding="utf-8"?>
<!-- Generator: Adobe Illustrator 25.2.1, SVG Export Plug-In . SVG Version: 6.00 Build 0)  -->
<svg version="1.1" id="Calque_1" xmlns="http://www.w3.org/2000/svg" xmlns:xlink="http://www.w3.org/1999/xlink" x="0px" y="0px"
	 viewBox="0 0 432 432" style="enable-background:new 0 0 432 432;" xml:space="preserve">
<style type="text/css">
	.st0{fill:#F9D53D;}
	.st1{fill:#D3B844;}
	.st2{fill:#E0AAAF;}
	.st3{fill:#BA9196;}
	.st4{fill:#EAB978;}
	.st5{fill:#FBB03B;}
	.st6{fill:#A1C3CE;}
	.st7{fill:#8CC63F;}
	.st8{fill:#C7B299;}
	.st9{fill:#CCCCCC;}
	.st10{fill:#C44750;}
	.st11{fill:#998675;}
	.st12{fill:#29ABE2;}
	.st13{fill:#C79C52;}
	.st14{fill:#766FBF;}
	.st15{fill:#E8A3AB;}
</style>
<g>
	<g>
		<path d="M185.12,227.59c-0.28,0.19-0.59,0.35-0.85,0.57c-0.51,0.43-0.98,0.92-1.5,1.34c-2.45,1.98-5.24,3.05-8.4,3.18
			c-2.12,0.09-4.22,0-6.28-0.6c-3.44-0.99-5.87-3.12-7.28-6.41c-1.07-2.49-1.57-5.13-1.76-7.81c-0.21-3.08-0.35-6.16-0.41-9.24
			c-0.13-6.74-0.19-13.48-0.27-20.21c0-0.07,0-0.13,0-0.2c-0.03-1.6-0.2-1.77-1.8-1.81c-0.23-0.01-0.47,0-0.7-0.05
			c-0.89-0.19-1.5-0.9-1.52-1.76c-0.02-0.93,0.55-1.64,1.51-1.85c0.29-0.06,0.6-0.09,0.9-0.1c2.41-0.02,4.83-0.03,7.24-0.03
			c0.33,0,0.67,0.05,0.99,0.14c0.82,0.24,1.3,0.89,1.31,1.7c0.02,0.8-0.44,1.51-1.25,1.75c-0.47,0.14-0.99,0.15-1.49,0.16
			c-1.21,0.04-1.51,0.3-1.5,1.48c0.14,8.72,0.26,17.43,0.44,26.15c0.06,2.64,0.26,5.29,0.93,7.87c0.14,0.55,0.32,1.09,0.5,1.63
			c1.05,3.11,3.27,4.79,6.46,5.32c1.81,0.3,3.62,0.33,5.4-0.04c3.34-0.7,5.9-2.51,7.38-5.64c1.12-2.39,1.73-4.94,1.96-7.55
			c0.23-2.6,0.36-5.22,0.38-7.83c0.06-6.44,0.03-12.87,0.03-19.31c0-0.23,0.01-0.47-0.01-0.7c-0.05-0.93-0.28-1.13-1.24-1.18
			c-0.43-0.02-0.88-0.04-1.29-0.15c-0.81-0.23-1.29-0.91-1.3-1.71c-0.01-0.81,0.46-1.48,1.26-1.75c0.25-0.08,0.52-0.14,0.79-0.14
			c2.48-0.03,4.96-0.04,7.44-0.05c0.26,0,0.54,0.06,0.78,0.15c0.76,0.29,1.25,1.04,1.2,1.8c-0.05,0.82-0.65,1.53-1.49,1.68
			c-0.43,0.08-0.87,0.07-1.3,0.1c-0.77,0.05-1,0.25-1.12,1.01c-0.04,0.26-0.03,0.53-0.03,0.8c-0.04,12.81-0.07,25.61-0.11,38.42
			c0,0.4-0.01,0.81,0.04,1.2c0.09,0.72,0.32,0.9,1.05,0.93c0.73,0.04,1.48,0.01,2.19,0.16c0.81,0.17,1.32,0.91,1.35,1.68
			c0.02,0.81-0.52,1.54-1.34,1.8c-0.16,0.05-0.32,0.11-0.49,0.11c-1.54,0.01-3.09,0.06-4.62-0.02c-1.18-0.06-1.82-0.77-1.9-1.95
			c-0.05-0.63-0.02-1.27-0.02-1.91c0-0.33,0-0.66,0-0.98C185.31,227.7,185.21,227.64,185.12,227.59z"/>
		<path d="M151.14,185.1c-0.02-1.55-0.73-2.24-2.3-2.29c-0.17-0.01-0.34,0-0.5,0c-8.68-0.06-17.36-0.12-26.05-0.18
			c-1.34-0.01-2.68-0.03-4.02-0.01c-1.39,0.02-2.25,0.75-2.32,2.12c-0.08,1.57-0.08,3.15-0.02,4.72c0.04,1.13,0.84,1.88,1.84,1.88
			c0.97,0,1.69-0.67,1.83-1.78c0.07-0.6,0.04-1.2,0.06-1.81c0.03-1.18,0.26-1.43,1.42-1.43c2.95,0.01,5.9,0.03,8.85,0.06
			c0,0,0.01,0,0.01,0c0.6,0.01,1.07,0.52,1.07,1.12c0,0.12,0,0.24,0,0.36c0.02,11.4,0.05,22.79,0.07,34.19c0,1.64,0,3.29,0.01,4.93
			c0.02,2.27,0.07,1.95-1.92,1.99c-0.43,0.01-0.88,0.03-1.29,0.13c-0.87,0.21-1.39,0.89-1.4,1.73c-0.01,0.85,0.49,1.53,1.37,1.76
			c0.38,0.1,0.79,0.13,1.19,0.12c3.05-0.02,6.1-0.06,9.15-0.1c0.3,0,0.61-0.01,0.9-0.07c0.67-0.14,1.14-0.55,1.36-1.21
			c0.39-1.16-0.4-2.3-1.7-2.39c-0.9-0.06-1.81,0-2.71-0.02c-0.8-0.01-1.14-0.34-1.23-1.14c-0.02-0.17-0.01-0.33-0.01-0.5
			c-0.01-13.17-0.03-26.35-0.04-39.52c0-0.73,0.59-1.32,1.32-1.32c3.35,0.01,6.71,0.03,10.06,0.04c0.2,0,0.4,0.01,0.6,0.02
			c0.48,0.02,0.73,0.25,0.72,0.76c-0.01,0.7-0.03,1.41,0.03,2.11c0.09,0.99,0.87,1.69,1.8,1.71c0.92,0.01,1.69-0.68,1.83-1.67
			c0.03-0.2,0.03-0.4,0.04-0.6C151.15,187.58,151.16,186.34,151.14,185.1z"/>
		<path d="M349.96,185.1c-0.02-1.55-0.73-2.24-2.3-2.29c-0.17-0.01-0.34,0-0.5,0c-8.68-0.06-17.36-0.12-26.05-0.18
			c-1.34-0.01-2.68-0.03-4.02-0.01c-1.39,0.02-2.25,0.75-2.32,2.12c-0.08,1.57-0.08,3.15-0.02,4.72c0.04,1.13,0.84,1.88,1.84,1.88
			c0.97,0,1.69-0.67,1.83-1.78c0.07-0.6,0.04-1.2,0.06-1.81c0.03-1.18,0.26-1.43,1.42-1.43c2.95,0.01,5.9,0.03,8.85,0.06
			c0,0,0.01,0,0.01,0c0.6,0.01,1.07,0.52,1.07,1.12c0,0.12,0,0.24,0,0.36c0.02,11.4,0.05,22.79,0.07,34.19c0,1.64,0,3.29,0.01,4.93
			c0.02,2.27,0.07,1.95-1.92,1.99c-0.43,0.01-0.88,0.03-1.29,0.13c-0.87,0.21-1.39,0.89-1.4,1.73c-0.01,0.85,0.49,1.53,1.37,1.76
			c0.38,0.1,0.79,0.13,1.19,0.12c3.05-0.02,6.1-0.06,9.15-0.1c0.3,0,0.61-0.01,0.9-0.07c0.67-0.14,1.14-0.55,1.36-1.21
			c0.39-1.16-0.4-2.3-1.7-2.39c-0.9-0.06-1.81,0-2.71-0.02c-0.8-0.01-1.14-0.34-1.23-1.14c-0.02-0.17-0.01-0.33-0.01-0.5
			c-0.01-13.17-0.03-26.35-0.04-39.52c0-0.73,0.59-1.32,1.32-1.32c3.35,0.01,6.71,0.03,10.06,0.04c0.2,0,0.4,0.01,0.6,0.02
			c0.48,0.02,0.73,0.25,0.72,0.76c-0.01,0.7-0.03,1.41,0.03,2.11c0.09,0.99,0.87,1.69,1.8,1.71c0.92,0.01,1.69-0.68,1.83-1.67
			c0.03-0.2,0.03-0.4,0.04-0.6C349.96,187.58,349.98,186.34,349.96,185.1z"/>
		<path d="M310.1,229.09c-0.59-0.07-1.2-0.03-1.8-0.05c-0.26-0.01-0.52-0.03-0.79-0.05c-0.19-0.01-0.33-0.17-0.33-0.35v-41.51
			c0-0.44,0.36-0.8,0.8-0.8c0.11,0,0.23,0,0.34,0c0.57,0,1.14,0.02,1.7-0.02c0.99-0.08,1.69-0.82,1.73-1.75
			c0.03-0.92-0.65-1.7-1.62-1.85c-0.26-0.04-0.53-0.04-0.8-0.04c-2.6,0-5.2-0.01-7.8-0.01c-0.27,0-0.54-0.01-0.8,0.03
			c-0.91,0.15-1.57,0.91-1.56,1.8c0.01,0.85,0.61,1.61,1.49,1.76c0.49,0.08,1,0.05,1.49,0.07c0.18,0,0.37,0,0.56,0
			c0.38,0,0.69,0.31,0.69,0.69c0,0.22,0,0.42,0,0.62c0.01,11.53,0.03,23.06,0.04,34.6c0,0.37,0.02,0.73-0.01,1.1
			c-0.01,0.17,0.03,0.73-0.24,0.7c-0.34-0.48-0.61-0.8-0.82-1.16c-4.61-7.76-9.21-15.53-13.81-23.3c-2.38-4.01-4.76-8.02-7.12-12.04
			c-0.08-0.13-0.17-0.26-0.25-0.4c-0.22-0.4,0.06-0.9,0.52-0.93c0.14-0.01,0.29-0.02,0.43-0.03c0.57-0.03,1.14,0,1.69-0.08
			c0.83-0.13,1.43-0.84,1.49-1.65c0.06-0.77-0.41-1.51-1.18-1.78c-0.37-0.13-0.78-0.16-1.17-0.16c-3.23,0-6.47,0.02-9.7,0.05
			c-0.4,0-0.8,0.05-1.18,0.15c-0.79,0.22-1.3,0.92-1.31,1.7c-0.01,0.75,0.44,1.44,1.17,1.7c0.34,0.12,0.71,0.17,1.07,0.18
			c1.96,0.06,2.02,0.1,2.02,2.03c0.05,13.13,0.09,26.26,0.13,39.39c0,0.2-0.01,0.4,0,0.6c0.02,0.49-0.24,0.75-0.7,0.79
			c-0.43,0.04-0.87,0.01-1.3,0.04c-0.43,0.03-0.87,0.05-1.28,0.18c-0.79,0.25-1.22,0.95-1.19,1.77c0.03,0.8,0.55,1.46,1.36,1.64
			c0.42,0.09,0.86,0.11,1.29,0.11c2.7-0.02,5.4-0.06,8.1-0.1c0.3,0,0.6,0.01,0.9-0.03c1.04-0.13,1.72-0.9,1.68-1.89
			c-0.03-0.95-0.71-1.64-1.73-1.73c-0.5-0.04-1-0.02-1.5-0.02c-1.86,0.01-1.94-0.07-1.95-1.87c-0.03-9.33-0.05-18.66-0.07-28
			c-0.01-2.3-0.01-4.6-0.01-6.9c0-0.34,0.06-0.68,0.09-1.02c0.11-0.04,0.22-0.07,0.32-0.11c1.2,1.67,2.15,3.5,3.21,5.26
			c1.07,1.77,2.11,3.55,3.16,5.33c1.07,1.81,2.14,3.61,3.21,5.42c1.07,1.81,2.14,3.61,3.21,5.42c1.07,1.81,2.14,3.61,3.21,5.42
			c1.05,1.78,2.12,3.54,3.15,5.33c1.04,1.8,2.27,3.51,3.23,5.47c0.03,0.34-0.63,0.2-0.85,0.23c-0.3,0.04-0.6,0.01-0.9,0.06
			c-0.89,0.15-1.51,0.84-1.55,1.7c-0.04,0.8,0.49,1.56,1.31,1.8c0.34,0.1,0.72,0.11,1.08,0.12c2.9,0.01,5.8,0.01,8.7,0.01
			c0.27,0,0.54,0.01,0.8-0.04c0.96-0.15,1.64-0.95,1.61-1.87C311.71,229.93,311.05,229.2,310.1,229.09z"/>
		<path d="M108.51,187.53c0-0.33-0.02-0.65,0.01-0.98c0.03-0.39,0.04-0.81,0.17-1.17c0.26-0.71,0.79-1.13,1.57-1.17
			c0.77-0.04,1.47,0.36,1.73,1.08c0.15,0.43,0.21,0.9,0.22,1.36c0.06,2.39,0.09,4.77,0.13,7.16c0,0.23,0,0.46-0.03,0.69
			c-0.11,0.88-0.59,1.48-1.33,1.67c-0.86,0.22-1.82-0.12-2.28-0.83c-0.13-0.19-0.21-0.41-0.29-0.63c-1.02-2.75-2.8-4.88-5.33-6.34
			c-3.19-1.84-6.6-2.74-10.3-2.16c-1.33,0.21-2.56,0.67-3.65,1.48c-1.92,1.42-2.56,3.44-1.83,5.72c0.44,1.39,1.17,2.62,2.28,3.55
			c1.04,0.87,2.12,1.71,3.28,2.4c2.11,1.25,4.3,2.36,6.44,3.55c2.73,1.51,5.35,3.19,7.68,5.29c1.83,1.66,3.37,3.54,4.5,5.76
			c2.88,5.65,0.75,11.56-3.11,14.76c-3.66,3.03-7.92,4.16-12.62,3.73c-0.79-0.07-1.58-0.21-2.35-0.38c-2.49-0.54-4.65-1.7-6.47-3.5
			c-0.24-0.24-0.49-0.72-0.87-0.47c-0.21,0.14-0.23,0.64-0.25,0.98c-0.03,0.63,0.02,1.26-0.01,1.89c-0.05,1.13-0.76,1.89-1.75,1.93
			c-1.01,0.04-1.85-0.75-1.88-1.9c-0.08-2.98-0.12-5.97-0.15-8.95c-0.01-0.9,0.4-1.59,1.24-1.99c0.86-0.41,1.72-0.22,2.32,0.53
			c0.23,0.28,0.39,0.62,0.59,0.92c0.72,1.07,1.4,2.17,2.19,3.19c1.74,2.24,4.02,3.61,6.86,3.99c3.88,0.53,7.48-0.14,10.58-2.64
			c2.34-1.89,3.47-4.38,3.27-7.42c-0.07-1.08-0.45-2.07-0.91-3.03c-0.88-1.82-2.18-3.32-3.66-4.66c-1.92-1.75-4.08-3.17-6.34-4.44
			c-2.25-1.27-4.53-2.48-6.8-3.73c-1.69-0.93-3.26-2.03-4.62-3.42c-1.92-1.95-3.16-4.25-3.38-7.01c-0.25-3.05,0.94-5.5,3.29-7.39
			c1.89-1.52,4.1-2.31,6.49-2.49c5.45-0.42,10.27,1.16,14.45,4.68c0.21,0.18,0.45,0.33,0.68,0.5
			C108.36,187.62,108.44,187.57,108.51,187.53z"/>
		<path d="M206.07,232.74c-2.76-0.07-4.89-0.12-7.02-0.19c-0.37-0.01-0.75-0.06-1.09-0.19c-0.75-0.27-1.2-0.97-1.2-1.72
			c0-0.79,0.51-1.52,1.3-1.75c0.38-0.11,0.8-0.12,1.2-0.16c0.74-0.07,1.11-0.38,1.21-1.12c0.06-0.43,0.05-0.88,0.05-1.32
			c0.14-12.71,0.27-25.43,0.41-38.14c0-0.03,0-0.07,0-0.1c0.01-1.56-0.04-1.6-1.57-1.64c-0.47-0.01-0.95-0.02-1.41-0.11
			c-0.97-0.19-1.54-0.93-1.52-1.87c0.02-0.92,0.66-1.64,1.61-1.8c0.2-0.03,0.4-0.04,0.61-0.04c4.53,0.01,9.06-0.03,13.59,0.06
			c3.29,0.07,6.51,0.64,9.62,1.81c4.25,1.61,7.48,4.4,9.74,8.32c1.69,2.93,2.72,6.1,3.34,9.41c0.91,4.89,0.8,9.74-0.68,14.53
			c-1.95,6.31-6.09,10.65-12.02,13.37c-3.3,1.51-6.83,2.13-10.41,2.41C209.7,232.69,207.56,232.69,206.07,232.74z M204.77,186.53
			c0,0.43,0,0.83,0,1.22c-0.08,7.1-0.15,14.2-0.23,21.3c-0.07,6.12-0.13,12.24-0.19,18.35c-0.01,1.42,0.04,1.49,1.48,1.47
			c1.99-0.04,3.99-0.04,5.98-0.19c3.04-0.24,6.04-0.77,8.84-2.05c4.93-2.25,8.37-5.83,9.98-11.08c1.2-3.93,1.33-7.91,0.68-11.93
			c-0.5-3.08-1.4-6.05-2.95-8.79c-1.82-3.21-4.4-5.54-7.9-6.77c-1.11-0.39-2.25-0.75-3.4-0.98c-3.8-0.78-7.66-0.74-11.51-0.73
			C205.31,186.34,205.09,186.45,204.77,186.53z"/>
		<path d="M240.26,188.2c0-0.27,0.01-0.54,0-0.81c-0.03-0.91-0.14-1.03-1.08-1.04c-0.74-0.01-1.49,0-2.24-0.01
			c-0.27,0-0.54,0-0.81-0.02c-1.13-0.1-1.91-0.85-1.92-1.85c-0.02-1.04,0.79-1.83,1.97-1.91c0.3-0.02,0.61-0.01,0.91-0.01
			c9.01,0.01,18.02,0.05,27.03,0c2.26-0.01,3.09,1.01,3.01,2.96c-0.05,1.22,0.02,2.44,0.03,3.66c0,0.34,0,0.68-0.05,1.01
			c-0.14,0.96-0.86,1.61-1.78,1.63c-0.97,0.02-1.78-0.62-1.91-1.61c-0.09-0.7-0.06-1.42-0.08-2.13c-0.04-1.38-0.28-1.65-1.69-1.68
			c-1.56-0.03-3.12-0.01-4.67-0.02c-3.73-0.01-7.45-0.01-11.18-0.02c-0.27,0-0.54-0.01-0.81,0.02c-0.63,0.08-0.82,0.28-0.88,0.91
			c-0.02,0.2-0.01,0.41-0.01,0.61c-0.01,5.49-0.01,10.97-0.02,16.46c0,0.17-0.01,0.34,0,0.51c0.05,0.71,0.22,0.9,0.9,0.98
			c0.2,0.02,0.41,0.02,0.61,0.02c2.88-0.01,5.76-0.01,8.64-0.03c1.1-0.01,1.21-0.13,1.26-1.22c0.02-0.34,0.03-0.68,0.12-1
			c0.24-0.81,0.92-1.31,1.72-1.33c0.86-0.02,1.57,0.47,1.83,1.32c0.11,0.35,0.15,0.73,0.15,1.1c0.02,2.03,0.03,4.06,0.03,6.1
			c0,0.37-0.04,0.75-0.16,1.09c-0.26,0.76-0.92,1.22-1.69,1.23c-0.81,0.02-1.54-0.45-1.79-1.24c-0.14-0.44-0.15-0.93-0.19-1.4
			c-0.06-0.71-0.1-0.8-0.76-0.8c-3.25-0.01-6.5,0-9.75,0.02c-0.69,0-0.88,0.24-0.93,0.93c0,0.07,0,0.14,0,0.2
			c-0.01,5.69-0.03,11.38-0.03,17.07c0,0.95,0.11,1.06,1.05,1.06c5.62,0,11.25,0,16.87-0.01c1.13,0,1.33-0.22,1.37-1.39
			c0.03-0.78-0.01-1.56,0.07-2.33c0.16-1.41,1.62-2.16,2.79-1.46c0.56,0.33,0.92,0.84,0.92,1.49c0.01,1.86,0.02,3.73-0.06,5.59
			c-0.04,0.99-0.74,1.68-1.72,1.87c-0.39,0.08-0.81,0.07-1.21,0.07c-9.04,0.01-18.09,0.01-27.13,0.01c-0.3,0-0.61,0.01-0.91-0.02
			c-1.1-0.12-1.88-0.93-1.86-1.92c0.01-0.95,0.76-1.75,1.81-1.86c0.57-0.06,1.15-0.03,1.73-0.03c0.41,0,0.81,0.01,1.22,0
			c0.91-0.03,1.18-0.3,1.24-1.23c0.02-0.37,0.01-0.74,0.01-1.12C240.22,220.21,240.26,194.6,240.26,188.2z"/>
	</g>
	<path d="M358.63,253.75c-0.36-0.23-0.78-0.44-1.31-0.65c-6.95-2.75-13.9-5.5-20.85-8.25c-0.4-0.16-0.75-0.25-1.08-0.28
		c-0.53-0.05-0.99,0.1-1.32,0.42c-0.23,0.23-0.49,0.64-0.43,1.32c0.03,0.36,0.14,0.74,0.3,1.07c0.29,0.58,0.61,1.18,0.96,1.77
		c0.37,0.63,0.74,1.25,1.12,1.87c0.31,0.52,0.63,1.04,0.94,1.56c0.11,0.19,0.2,0.35,0.27,0.5c-0.1,0-0.2,0-0.31,0l-0.21,0
		c-12.42,0.02-82.05,0.04-112.71,0.06c-41.19,0.03-87.88,0.06-104.61,0.1c0,0-0.01,0-0.01,0c-0.78,0-1.29-0.23-1.72-0.75
		c-0.21-0.26-0.44-0.5-0.66-0.75l-1.71-1.89c-1.25-1.4-2.51-2.79-3.75-4.19c-0.66-0.74-1.43-1.11-2.37-1.12
		c-0.3,0-0.6-0.02-0.9-0.04c-0.35-0.02-0.7-0.04-1.06-0.04c0,0,0,0-0.01,0c-9.25,0-18.51,0.01-27.76,0.03
		c-1.58,0-3.16,0.01-4.74,0.02c-0.05,0-0.11,0-0.17,0c-0.4-0.01-1.23-0.03-1.69,0.79c-0.47,0.84-0.03,1.55,0.2,1.93l0.09,0.14
		c0.19,0.32,0.38,0.64,0.57,0.95l1.21,2.01c0.8,1.32,1.59,2.65,2.4,3.96c0.32,0.52,0.33,0.97,0.03,1.52
		c-0.15,0.28-0.31,0.55-0.48,0.82l-2,3.32l-1.78,2.95c-0.1,0.16-0.21,0.34-0.3,0.55c-0.22,0.52-0.21,1.04,0.04,1.46
		c0.24,0.42,0.67,0.69,1.21,0.77c0.26,0.04,0.52,0.03,0.74,0.03l0.18,0l6.22,0.02c7.26,0.02,14.52,0.04,21.78,0.05
		c0.03,0,0.06,0,0.1,0c1.08,0,2.17-0.02,3.23-0.05c0.88-0.02,1.76-0.04,2.64-0.04c1.09-0.01,2-0.44,2.78-1.33
		c0.97-1.11,1.96-2.21,2.95-3.31c0.96-1.07,1.92-2.13,2.86-3.21c0.48-0.55,0.93-0.76,1.65-0.76c0,0,0,0,0.01,0
		c10.59,0.02,83.98-0.05,127.83-0.08c16.56-0.01,69.33-0.03,71.7-0.03l8.53,0c3.31,0,6.63,0,9.94,0c-0.2,0.38-0.42,0.75-0.65,1.13
		l-0.23,0.39c-0.24,0.41-0.48,0.82-0.72,1.23c-0.51,0.86-1.01,1.72-1.51,2.59c-0.22,0.39-0.38,0.85-0.43,1.29
		c-0.07,0.57,0.1,1.09,0.48,1.44c0.38,0.34,0.91,0.48,1.48,0.36c0.4-0.08,0.76-0.23,1.1-0.36l0.1-0.04c4-1.57,7.99-3.15,11.99-4.73
		c2.88-1.14,5.76-2.28,8.64-3.42c0.38-0.15,0.78-0.32,1.16-0.55c0.68-0.42,0.78-0.97,0.79-1.25
		C359.38,254.73,359.29,254.18,358.63,253.75z"/>
	<path d="M73.37,166.91c0.36,0.23,0.78,0.44,1.31,0.65c6.95,2.75,13.9,5.5,20.85,8.25c0.4,0.16,0.75,0.25,1.08,0.28
		c0.53,0.05,0.99-0.1,1.32-0.42c0.23-0.23,0.49-0.64,0.43-1.32c-0.03-0.36-0.14-0.74-0.3-1.07c-0.29-0.58-0.61-1.18-0.96-1.77
		c-0.37-0.63-0.74-1.25-1.12-1.87c-0.31-0.52-0.63-1.04-0.94-1.56c-0.11-0.19-0.2-0.35-0.27-0.5c0.1,0,0.2,0,0.31,0l0.21,0
		c12.42-0.02,82.05-0.04,112.71-0.06c41.19-0.03,87.88-0.06,104.61-0.1c0,0,0.01,0,0.01,0c0.78,0,1.29,0.23,1.72,0.75
		c0.21,0.26,0.44,0.5,0.66,0.75l1.71,1.89c1.25,1.4,2.51,2.79,3.75,4.19c0.66,0.74,1.43,1.11,2.37,1.12c0.3,0,0.6,0.02,0.9,0.04
		c0.35,0.02,0.7,0.04,1.06,0.04c0,0,0,0,0.01,0c9.25,0,18.51-0.01,27.76-0.03c1.58,0,3.16-0.01,4.74-0.02c0.05,0,0.11,0,0.17,0
		c0.4,0.01,1.23,0.03,1.69-0.79c0.47-0.84,0.03-1.55-0.2-1.93l-0.09-0.14c-0.19-0.32-0.38-0.64-0.57-0.95l-1.21-2.01
		c-0.8-1.32-1.59-2.65-2.4-3.96c-0.32-0.52-0.33-0.97-0.03-1.52c0.15-0.28,0.31-0.55,0.48-0.82l2-3.32l1.78-2.95
		c0.1-0.16,0.21-0.34,0.3-0.55c0.22-0.52,0.21-1.04-0.04-1.46c-0.24-0.42-0.67-0.69-1.21-0.77c-0.26-0.04-0.52-0.03-0.74-0.03
		l-0.18,0l-6.22-0.02c-7.26-0.02-14.52-0.04-21.78-0.05c-0.03,0-0.06,0-0.1,0c-1.08,0-2.17,0.02-3.23,0.05
		c-0.88,0.02-1.76,0.04-2.64,0.04c-1.09,0.01-2,0.44-2.78,1.33c-0.97,1.11-1.96,2.21-2.95,3.31c-0.96,1.07-1.92,2.13-2.86,3.21
		c-0.48,0.55-0.93,0.76-1.65,0.76c0,0,0,0-0.01,0c-10.59-0.02-83.98,0.05-127.83,0.08c-16.56,0.01-69.33,0.03-71.7,0.03l-8.53,0
		c-3.31,0-6.63,0-9.94,0c0.2-0.38,0.42-0.75,0.65-1.13l0.23-0.39c0.24-0.41,0.48-0.82,0.72-1.23c0.51-0.86,1.01-1.72,1.51-2.59
		c0.22-0.39,0.38-0.85,0.43-1.29c0.07-0.57-0.1-1.09-0.48-1.44c-0.38-0.34-0.91-0.48-1.48-0.36c-0.4,0.08-0.76,0.23-1.1,0.36
		l-0.1,0.04c-4,1.57-7.99,3.15-11.99,4.73c-2.88,1.14-5.76,2.28-8.64,3.42c-0.38,0.15-0.78,0.32-1.16,0.55
		c-0.68,0.42-0.78,0.97-0.79,1.25C72.62,165.94,72.71,166.48,73.37,166.91z"/>
	<path d="M191.34,319.18c-0.71-0.56-1.33-1.05-1.95-1.55c-8.1-6.48-12.87-14.94-14.86-25.04c-0.71-3.63-0.91-7.28-0.35-10.96
		c0.54-3.5,1.64-6.77,3.71-9.68c0.79-1.11,1.7-2.09,2.77-2.92c3.97-3.09,9.35-2.99,13.22,0.23c1.48,1.23,2.6,2.76,3.52,4.44
		c1.67,3.04,2.65,6.32,3.21,9.72c0.77,4.67,0.87,9.37,0.56,14.1c-0.36,5.38-1.04,10.72-1.91,16.04c-0.1,0.59-0.12,1.2-0.17,1.73
		c2.85,2.29,8.7,5.14,11.12,5.41c0.01-0.68,0.02-1.34,0.04-2.01c0.15-5.8,1.08-11.45,3.25-16.86c0.92-2.28,1.99-4.48,3.44-6.47
		c2.91-4.02,6.71-6.74,11.61-7.81c2.25-0.49,4.51-0.5,6.75-0.04c3.79,0.78,6.74,2.82,8.78,6.12c2.55,4.14,3.31,8.65,2.69,13.41
		c-0.62,4.73-2.8,8.7-6.15,12.04c-4.09,4.09-9,6.71-14.63,7.98c-0.66,0.15-1.31,0.29-1.97,0.45c-0.05,0.01-0.09,0.08-0.23,0.21
		c0.03,0.33,0.01,0.75,0.12,1.15c1.88,6.99,4.8,13.49,9.2,19.26c3.16,4.14,7.31,7.01,12.04,9.09c0.94,0.42,1.97,0.68,2.97,0.92
		c1.95,0.46,3.77,0.11,5.43-1.02c1.69-1.15,3.09-2.59,4.31-4.23c1.87-2.52,3.32-5.28,4.57-8.16c2.18-5.02,3.67-10.25,4.9-15.56
		c2.26-9.83,3.42-19.78,3.12-29.88c-0.11-3.56-0.55-7.08-1.18-10.58c-0.1-0.53-0.26-1.05-0.37-1.51c-0.66-0.31-1.19-0.1-1.72,0
		c-4.23,0.78-8.48,1.24-12.79,0.92c-2.15-0.16-4.24-0.59-6.21-1.52c-1.69-0.8-3.13-1.93-4.19-3.48c-1.64-2.41-1.94-4.98-0.84-7.68
		c0.99-2.41,2.62-4.3,4.86-5.58c4.56-2.61,9.27-2.88,14.06-0.6c1.9,0.91,3.53,2.2,5.04,3.64c1.69,1.62,3.15,3.43,4.37,5.42
		c0.29,0.47,0.57,0.93,0.85,1.38c0.69,0.16,1.25-0.12,1.84-0.26c3.85-0.98,7.7-2.01,11.57-2.9c3.57-0.83,7.16-0.88,10.72,0.17
		c5.18,1.54,8.71,4.82,10.39,10c0.93,2.88,1.32,5.84,1.5,8.85c0.42,6.79,0.31,13.59,0.31,20.39c0,5.39-0.04,10.78,0.1,16.17
		c0.14,5.14,0.63,10.26,1.76,15.31c0.61,2.7,1.45,5.31,2.66,7.8c0.45,0.93,1,1.82,1.58,2.69c0.4,0.6,0.87,1.17,1.64,1.49
		c0.72-0.56,1.1-1.33,1.5-2.07c1.22-2.29,1.98-4.74,2.51-7.26c0.87-4.14,1.5-8.31,1.92-12.52c0.23-2.31,0.55-4.62,0.72-6.94
		c0.28-3.97,0.45-7.95,0.68-11.92c0.04-0.67,0.09-1.35,0.25-2c0.39-1.51,1.66-2.33,3.18-2.16c0.75,0.08,1.29,0.46,1.43,1.21
		c0.14,0.78,0.25,1.58,0.22,2.37c-0.09,2.75-0.23,5.51-0.39,8.26c-0.15,2.63-0.37,5.25-0.55,7.88c-0.32,4.71-0.76,9.4-1.54,14.05
		c-0.55,3.26-1.27,6.49-2.53,9.56c-0.61,1.48-1.3,2.91-2.25,4.2c-2.02,2.75-4.7,4.4-8.11,4.85c-1.82,0.24-3.54-0.07-5.2-0.79
		c-3.61-1.58-6.04-4.32-7.53-7.91c-1.07-2.55-1.71-5.23-2.29-7.93c-0.77-3.6-1.18-7.25-1.51-10.91c-0.54-6.11-0.65-12.23-0.64-18.35
		c0.01-5.08-0.02-10.17-0.11-15.25c-0.06-3.92-0.14-7.84-0.67-11.73c-0.19-1.39-0.5-2.77-0.82-4.14c-0.15-0.65-0.41-1.28-0.68-1.9
		c-1.06-2.5-2.95-3.8-5.68-3.95c-2.34-0.12-4.65,0.06-6.95,0.46c-1.93,0.33-3.85,0.71-5.77,1.08c-0.23,0.04-0.44,0.17-0.73,0.29
		c0.02,0.33-0.01,0.63,0.06,0.91c1.81,7.83,2.12,15.75,1.52,23.74c-0.78,10.49-2.71,20.75-5.98,30.75
		c-1.33,4.08-2.94,8.05-5.12,11.76c-1.81,3.08-3.91,5.92-6.55,8.35c-2.51,2.31-5.35,4.08-8.65,5.03c-4.13,1.19-8.23,0.93-12.31-0.25
		c-4.77-1.38-8.76-4.02-12.21-7.53c-2.07-2.1-3.88-4.42-5.44-6.92c-3.99-6.38-6.97-13.2-8.64-20.55c-0.27-1.19-0.48-2.4-0.73-3.66
		c-0.18-0.1-0.37-0.29-0.59-0.33c-4.11-0.8-8.01-2.21-11.81-3.93c-0.16-0.07-0.34-0.11-0.63-0.21c-0.14,0.4-0.32,0.78-0.4,1.17
		c-1.74,8.59-4,17.04-6.97,25.29c-0.77,2.13-1.66,4.21-2.6,6.27c-0.87,1.91-2.08,3.6-3.62,5.04c-1.18,1.1-2.53,1.93-4.08,2.39
		c-2.24,0.66-4.36,0.4-6.31-0.94c-1.17-0.81-2.18-1.81-2.97-2.97c-1-1.46-2-2.94-2.86-4.49c-4.87-8.76-8.58-18-11.35-27.62
		c-0.29-1-0.53-2.01-0.81-3.01c-0.13-0.44-0.3-0.87-0.57-1.64c-0.23,0.85-0.39,1.37-0.51,1.89c-1.97,8.41-4.14,16.75-6.93,24.93
		c-0.38,1.1-0.76,2.2-1.19,3.28c-0.65,1.66-1.45,3.25-2.56,4.65c-2.94,3.74-6.74,5.59-11.55,5.06c-2.29-0.25-4.34-1.2-6.3-2.38
		c-5.98-3.58-10.47-8.6-13.97-14.55c-2.5-4.25-4.22-8.83-5.57-13.55c-2.56-8.96-3.77-18.09-3.3-27.41
		c0.32-6.47,1.5-12.76,4.08-18.74c1.57-3.63,3.57-6.97,6.34-9.82c4.23-4.35,9.38-6.58,15.46-6.5c8.94,0.12,15.51,5.56,17.61,13.66
		c2.36,9.11-1.89,20-11.5,24.38c-5.38,2.45-10.79,2.46-16.12-0.23c-0.81-0.41-1.55-0.98-2.32-1.47c-0.24-0.15-0.49-0.28-0.72-0.41
		c-0.46,0.42-0.31,0.88-0.32,1.28c-0.09,7.09,0.9,14.04,2.74,20.87c1.69,6.25,4.29,12.11,7.55,17.68c1.58,2.71,3.46,5.2,5.7,7.4
		c1.15,1.13,2.46,2.02,3.92,2.69c1.35,0.63,1.92,0.48,2.9-0.63c0.9-1.02,1.56-2.2,2.08-3.44c0.81-1.92,1.59-3.85,2.28-5.81
		c3.47-9.89,6.17-20,8.41-30.23c0.34-1.55,0.62-3.12,0.96-4.68c0.23-1.03,0.22-2.05,0.1-3.1c-0.32-2.8-0.63-5.6-0.9-8.4
		c-0.17-1.83-0.09-3.67,0.2-5.49c0.44-2.74,2.17-4.56,4.91-4.96c0.95-0.14,1.97-0.14,2.92,0.03c1.84,0.33,3.08,1.44,3.55,3.29
		c0.18,0.71,0.3,1.44,0.36,2.17c0.44,5,1.05,9.98,1.87,14.94c2.04,12.41,5.72,24.29,11.36,35.54c1.15,2.3,2.49,4.49,3.76,6.73
		c0.17,0.3,0.41,0.56,0.71,0.94c0.58-0.67,0.81-1.37,1.05-2.03c1.25-3.45,2.56-6.89,3.69-10.38c2-6.17,3.6-12.46,5.07-18.78
		C191.13,320.41,191.21,319.87,191.34,319.18z M116.53,298.48c1.98,2.86,4.54,4.91,7.94,5.82c4.29,1.15,8.12,0.26,11.44-2.67
		c0.82-0.72,1.59-1.55,2.19-2.45c3.19-4.8,4.12-10,2.54-15.58c-0.66-2.33-1.84-4.4-3.65-6.05c-1.4-1.28-3.02-2.03-4.97-2.04
		c-1.6,0-2.99,0.52-4.26,1.44c-1.65,1.2-3.01,2.69-4.22,4.31C119.72,286.38,117.56,292.16,116.53,298.48z M193.12,309.97
		c0.04-0.18,0.12-0.39,0.15-0.61c0.3-2.12,0.61-4.23,0.87-6.35c0.72-5.77,1.05-11.57,0.61-17.38c-0.24-3.24-0.81-6.43-2.15-9.42
		c-0.49-1.11-1.1-2.19-1.8-3.17c-0.48-0.68-1.17-1.25-1.87-1.72c-1.07-0.72-2.23-0.69-3.2,0.21c-0.66,0.62-1.28,1.32-1.78,2.07
		c-1.1,1.65-1.7,3.51-2.04,5.46c-0.5,2.85-0.47,5.71-0.12,8.58c1.02,8.36,4.62,15.49,10.21,21.7
		C192.27,309.61,192.45,310.08,193.12,309.97z M222.95,322.37c0.18,0.06,0.3,0.15,0.41,0.14c3.32-0.34,6.47-1.27,9.34-3
		c2.99-1.8,5.05-4.37,6.23-7.66c0.5-1.39,0.78-2.83,0.88-4.29c0.24-3.43-0.42-6.69-2.09-9.71c-0.6-1.08-1.36-2.02-2.36-2.77
		c-1.04-0.79-2.09-0.89-3.23-0.22c-1.29,0.75-2.36,1.73-3.28,2.89c-1.46,1.83-2.58,3.86-3.45,6.02c-2.32,5.78-3,11.8-2.62,17.98
		C222.78,321.96,222.89,322.18,222.95,322.37z M266.82,281.23c-0.04-0.33-0.03-0.46-0.08-0.56c-1.43-3.05-3.47-5.61-6.24-7.53
		c-0.79-0.55-1.69-1.01-2.6-1.32c-3.48-1.2-7.32,0.72-8.44,4.13c-0.6,1.83-0.13,3.37,1.2,4.68c0.85,0.84,1.91,1.33,3.06,1.55
		c1.08,0.2,2.18,0.33,3.27,0.38c2.02,0.11,4.02-0.2,6.02-0.52C264.26,281.85,265.53,281.7,266.82,281.23z"/>
	<path d="M299.68,89.48c-0.06,0.7-0.14,1.18-0.15,1.66c-0.04,4.35-0.2,8.7-0.06,13.04c0.29,8.39,1.04,16.74,2.85,24.96
		c1.14,5.18,3.07,10.06,5.52,14.74c0.42,0.8,1,1.53,1.6,2.21c0.45,0.51,1,0.5,1.43-0.03c0.54-0.66,1.1-1.35,1.39-2.13
		c0.58-1.54,1.09-3.12,1.45-4.73c0.83-3.77,1.16-7.62,1.47-11.47c0.15-1.83,0.26-3.67,0.4-5.5c0.03-0.42,0.09-0.86,0.22-1.26
		c0.31-1.04,1.05-1.62,2.09-1.83c1.1-0.22,1.82,0.25,1.96,1.36c0.09,0.72,0.08,1.47,0.04,2.2c-0.28,4.71-0.43,9.42-1.02,14.11
		c-0.3,2.43-0.71,4.85-1.5,7.18c-1.26,3.72-3.53,6.54-7.2,8.12c-4.41,1.9-9.15,1.01-12.54-2.37c-1.45-1.44-2.57-3.11-3.4-4.98
		c-1.79-3.98-3.08-8.12-4-12.38c-1.34-6.23-2.21-12.54-2.63-18.9c-0.25-3.79-0.42-7.58-0.64-11.37c-0.02-0.28-0.07-0.57-0.13-1.02
		c-0.9,0.47-1.43,1.15-2.08,1.67c-0.67,0.53-1.31,1.1-1.98,1.65c-0.66,0.54-1.33,1.08-2.01,1.6c-0.68,0.53-1.36,1.04-2.05,1.55
		c-0.69,0.51-1.38,1.02-2.08,1.52c-0.7,0.5-1.4,0.99-2.11,1.48c-0.71,0.49-1.42,0.96-2.13,1.44c-0.7,0.48-1.4,0.96-2.21,1.52
		c0.54,0.5,0.98,0.9,1.41,1.32c1.84,1.8,3.72,3.55,5.49,5.42c1.65,1.74,2.99,3.73,4.01,5.91c0.52,1.1,0.98,2.25,1.31,3.42
		c0.79,2.84,0.38,5.58-0.85,8.23c-1.21,2.61-3.04,4.73-5.29,6.49c-3.29,2.58-6.98,4.32-11.11,4.97c-3.9,0.61-7.69,0.16-11.24-1.73
		c-5.32-2.84-8.43-8.59-7.72-14.3c0.45-3.59,1.73-6.87,3.79-9.84c1.3-1.87,2.87-3.5,4.63-4.95c0.42-0.34,0.83-0.7,1.25-1.06
		c-0.92-0.97-7.53-6.08-8.79-6.8c-0.34,0.55-0.7,1.1-1.04,1.67c-4.54,7.65-9.65,14.9-15.39,21.71c-2.25,2.67-4.62,5.23-7.24,7.55
		c-2.03,1.79-4.19,3.37-6.6,4.63c-2.59,1.35-5.33,2.18-8.23,2.37c-3.98,0.26-7.64-0.76-10.96-2.98c-2.63-1.76-4.79-3.99-6.5-6.66
		c-2.6-4.06-4.38-8.48-5.63-13.11c-0.72-2.65-1.23-5.36-1.84-8.05c-0.07-0.29-0.12-0.58-0.2-0.97c-0.36,0-0.67-0.06-0.94,0.01
		c-2.3,0.55-4.68,0.77-7.04,1.46c0.06,0.69,0.09,1.3,0.17,1.89c0.67,5.01,0.27,9.91-1.53,14.64c-3.35,8.83-9.79,14.01-19.05,15.61
		c-3.81,0.66-7.43-0.15-10.7-2.31c-3.4-2.25-5.15-5.48-5.6-9.46c-0.29-2.56,0.18-5,1.29-7.32c1.66-3.5,4.05-6.4,7.21-8.66
		c3.02-2.16,6.37-3.63,9.88-4.78c1.45-0.48,2.91-0.88,4.33-1.31c0.05-0.2,0.12-0.33,0.09-0.43c-0.94-2.89-2.24-5.56-4.59-7.6
		c-1.41-1.23-3.02-1.62-4.79-1.13c-0.99,0.28-1.96,0.7-2.87,1.18c-1.8,0.96-3.3,2.32-4.72,3.77c-3.19,3.27-5.7,7.03-7.72,11.12
		c-3.18,6.45-4.95,13.28-5.48,20.44c-0.08,1.1-0.22,2.19-0.32,3.29c-0.36,3.86-5.68,6.31-8.93,3.87c-0.83-0.62-1.57-1.37-2.27-2.13
		c-3.92-4.25-6.69-9.18-8.63-14.61c-2.08-5.84-3.52-11.84-4.49-17.96c-0.9-5.71-1.31-11.44-1.02-17.21
		c0.34-6.7,1.46-13.26,3.99-19.52c1.44-3.57,3.41-6.78,6.41-9.28c3.06-2.55,6.56-4,10.6-3.99c3.24,0,6.15,1.01,8.67,3.02
		c3.45,2.74,5.48,6.36,6.32,10.66c0.78,4.01,0.3,7.95-0.89,11.79c-2.66,8.61-7.58,15.72-14.6,21.36c-1.58,1.27-3.29,2.34-5.12,3.22
		c-0.43,0.21-0.84,0.46-1.32,0.72c1.02,6.43,3.15,12.45,5.62,18.44c0.16-0.56,0.33-1.11,0.48-1.68c2.45-8.98,6.47-17.16,12.36-24.39
		c1.98-2.43,4.19-4.63,6.7-6.52c2.33-1.75,4.87-3.06,7.75-3.62c5.87-1.14,11.06,0.16,15.4,4.38c2.45,2.38,4.26,5.2,5.46,8.4
		c0.23,0.63,0.47,1.25,0.72,1.93c1.53,0.12,2.94-0.34,4.37-0.57c1.38-0.22,2.78-0.37,4.23-0.86c-0.07-1.08-0.14-2.11-0.21-3.14
		c-0.57-8.32,0.01-16.52,2.77-24.47c0.84-2.44,1.88-4.78,3.22-6.99c1.02-1.69,2.21-3.24,3.61-4.62c4.01-3.98,8.86-5.86,14.47-5.52
		c8.75,0.52,15.72,7.04,17.1,14.69c0.69,3.82,0.26,7.56-1.17,11.18c-2.01,5.1-5.31,9.19-9.77,12.36c-3.01,2.14-6.31,3.74-9.76,5.05
		c-1.77,0.67-3.58,1.24-5.38,1.85c-0.57,0.19-1.15,0.36-1.8,0.57c0.05,0.62,0.05,1.16,0.14,1.69c0.78,4.6,1.93,9.1,3.78,13.39
		c1.32,3.06,3.05,5.87,5.19,8.42c0.86,1.02,1.87,1.94,2.91,2.78c1.73,1.38,3.68,1.51,5.72,0.74c1.33-0.5,2.52-1.24,3.67-2.06
		c2.05-1.46,3.92-3.13,5.72-4.89c3.21-3.13,6.09-6.55,8.79-10.11c3.63-4.78,7.04-9.72,10.18-14.84c0.32-0.52,0.62-1.05,0.99-1.67
		c-0.32-0.36-0.62-0.73-0.95-1.05c-1.76-1.71-3.44-3.49-4.94-5.43c-2.71-3.5-4.6-7.38-5.25-11.78c-1.03-6.99,0.56-13.26,5.37-18.57
		c2.32-2.55,5.12-4.35,8.52-5.12c1.7-0.39,3.41-0.42,5.1-0.06c2.77,0.6,4.9,2.16,6.4,4.56c1.15,1.85,1.78,3.89,1.99,6.05
		c0.32,3.27-0.07,6.47-0.91,9.64c-1.16,4.4-2.89,8.58-4.79,12.69c-0.26,0.55-0.5,1.11-0.79,1.74c0.28,0.32,0.53,0.67,0.84,0.93
		c1.79,1.49,3.57,2.99,5.4,4.42c2.37,1.84,4.79,3.62,7.19,5.41c0.29,0.22,0.6,0.41,0.93,0.63c0.29-0.15,0.58-0.26,0.83-0.42
		c5.32-3.29,10.46-6.83,15.19-10.94c1.11-0.96,2.12-2.03,3.18-3.05c0.36-0.35,0.58-0.77,0.59-1.3c0.06-2.38,0.14-4.77,0.22-7.24
		c-0.43-0.16-0.8-0.36-1.19-0.44c-5.78-1.24-11.56-0.95-17.33,0.1c-0.54,0.1-1.09,0.19-1.63,0.19c-0.41-0.01-0.85-0.11-1.23-0.28
		c-0.86-0.39-1.09-1.22-0.54-1.96c0.32-0.43,0.75-0.81,1.18-1.13c1.09-0.82,2.33-1.36,3.63-1.71c4.05-1.08,8.16-1.61,12.36-1.24
		c1.52,0.13,3.04,0.31,4.66,0.48c0.08-0.43,0.17-0.83,0.21-1.24c0.22-2.44,0.37-4.88,0.67-7.31c0.14-1.14,0.46-2.29,0.91-3.35
		c1.33-3.09,4.94-4.1,7.56-3.32c1.6,0.48,2.67,1.5,3.04,3.13c0.2,0.89,0.3,1.82,0.3,2.73c0.02,3.06-0.03,6.12-0.05,9.19
		c0,0.61,0,1.22,0,1.93c0.45,0.11,0.84,0.26,1.24,0.28c4.06,0.28,8.07,0.01,12.05-0.86c2.56-0.56,4.83-1.7,6.87-3.34
		c0.67-0.54,1.36-1.03,2.08-1.51c0.94-0.62,1.98-0.6,3.01-0.31c1.08,0.3,1.58,1.27,1.1,2.3c-0.27,0.59-0.71,1.16-1.2,1.59
		c-2.98,2.63-6.36,4.55-10.21,5.6c-4.28,1.18-8.65,1.66-13.07,1.75C301.06,89.44,300.45,89.46,299.68,89.48z M195.47,109.69
		c0.34,0,0.59,0.06,0.81-0.01c3.94-1.14,7.81-2.49,11.32-4.67c4.2-2.6,7.2-6.22,8.89-10.87c1.45-3.99,1.54-8.02,0.19-12.05
		c-0.85-2.53-2.39-4.55-4.65-5.96c-3.38-2.11-5.19-1.45-7.5,0.49c-1.42,1.19-2.57,2.62-3.58,4.16c-1.9,2.89-3.14,6.07-4.07,9.39
		c-1.38,4.93-1.79,9.98-1.67,15.08C195.24,106.71,195.38,108.17,195.47,109.69z M119.11,112.99c0.47-0.24,0.77-0.32,0.99-0.5
		c1.25-0.99,2.55-1.92,3.7-3c4.71-4.42,8.19-9.7,10.66-15.66c0.96-2.33,1.66-4.74,2-7.23c0.33-2.44,0.36-4.88-0.23-7.3
		c-0.54-2.24-1.49-4.28-3.17-5.9c-2.31-2.23-4.2-2.36-6.74-0.1c-1.11,0.99-1.94,2.21-2.54,3.56c-0.8,1.79-1.59,3.58-2.22,5.43
		c-1.69,4.94-2.62,10.04-3.05,15.25C118.09,102.63,118.4,107.68,119.11,112.99z M259.32,120.03c-0.25,0.16-0.46,0.26-0.64,0.41
		c-2.2,1.84-3.86,4.08-4.97,6.73c-0.74,1.78-1.06,3.61-1.05,5.55c0.06,5.95,6.24,9.42,10.58,8.8c2.84-0.4,4.96-1.99,6.64-4.21
		c0.77-1.02,1.03-2.23,0.61-3.48c-0.31-0.92-0.65-1.85-1.09-2.72c-1.1-2.14-2.56-4.03-4.27-5.72c-1.65-1.63-3.38-3.2-5.08-4.78
		C259.84,120.4,259.59,120.24,259.32,120.03z M162.94,120.73c-0.44,0.04-0.69,0.02-0.92,0.08c-2.93,0.87-5.8,1.92-8.46,3.44
		c-2.1,1.2-3.85,2.79-5.28,4.74c-0.91,1.25-1.6,2.61-1.94,4.12c-0.48,2.12-0.2,4.13,0.94,6c1.47,2.39,4.5,3.64,6.95,2.84
		c3.68-1.21,6.4-3.46,7.8-7.18C163.74,130.22,163.87,125.6,162.94,120.73z M249.01,95.81c0.21-0.36,0.38-0.6,0.5-0.86
		c1.41-3.05,2.61-6.19,3.45-9.45c0.73-2.86,1.09-5.76,0.9-8.71c-0.1-1.54-0.44-3.02-1.12-4.41c-0.41-0.83-0.95-1.57-1.72-2.11
		c-0.87-0.61-1.46-0.62-2.35-0.01c-0.93,0.63-1.58,1.51-2.11,2.49c-1.03,1.89-1.68,3.93-2.13,6.02c-1.3,6.06,0.04,11.5,3.88,16.34
		C248.48,95.34,248.71,95.52,249.01,95.81z"/>
</g>
</svg>
