<?xml version="1.0" encoding="utf-8"?>
<!-- Generator: Adobe Illustrator 25.2.1, SVG Export Plug-In . SVG Version: 6.00 Build 0)  -->
<svg version="1.1" id="Calque_1" xmlns="http://www.w3.org/2000/svg" xmlns:xlink="http://www.w3.org/1999/xlink" x="0px" y="0px"
	 viewBox="0 0 432 432" style="enable-background:new 0 0 432 432;" xml:space="preserve">
<style type="text/css">
	.st0{fill:#E0AAAF;}
	.st1{fill:#F9D53D;}
	.st2{fill:#FBB03B;}
	.st3{fill:#CCCCCC;}
	.st4{fill:#8CC63F;}
	.st5{fill:#C5D8A7;}
	.st6{fill:#C44750;}
	.st7{fill:#998675;}
	.st8{fill:#C7B299;}
	.st9{fill:none;}
	.st10{fill:#29ABE2;}
	.st11{fill:#B3B3B3;}
	.st12{fill:#C79C52;}
	.st13{fill:#65C8D0;}
	.st14{fill:#BA9BC9;}
	.st15{fill:#A57A7F;}
	.st16{fill:#FFFFFF;}
</style>
<g>
	<g>
		<g>
			<path d="M197.31,92.45c0.1-0.18,0.2-0.35,0.3-0.53c0.45-0.83,0.83-1.68,1.35-2.48c0.68-1.05,1.59-1.94,2.72-2.62
				c1.3-0.78,2.72-1.15,4.31-0.87c1.11,0.19,2.01,0.69,2.77,1.41c1.28,1.21,1.9,2.7,2.3,4.29c0.51,2.03,0.8,4.08,1,6.15
				c0.44,4.65,0.6,9.31,0.58,13.98c-0.01,1.2-0.05,2.4-0.09,3.59c-0.05,1.48-1.05,2.55-2.68,2.82c-0.37,0.06-0.77,0.07-1.15,0.02
				c-0.91-0.1-1.42-0.62-1.44-1.42c-0.01-0.45,0.01-0.9,0.02-1.35c0.06-4.52-0.12-9.03-0.44-13.54c-0.19-2.69-0.44-5.37-0.98-8.03
				c-0.18-0.9-0.43-1.8-0.71-2.68c-0.14-0.45-0.4-0.87-0.66-1.28c-0.31-0.48-0.75-0.59-1.28-0.31c-0.32,0.17-0.65,0.39-0.87,0.66
				c-0.55,0.67-1.1,1.35-1.52,2.09c-0.95,1.67-1.46,3.48-1.89,5.3c-0.89,3.74-1.23,7.53-1.29,11.34c-0.03,1.88-0.07,3.77-0.11,5.65
				c0,0.21-0.04,0.43-0.02,0.64c0.12,1.79-2.31,3.21-3.88,3.07c-1.16-0.11-1.75-0.59-1.79-1.62c-0.04-1.01-0.05-2.01-0.08-3.02
				c-0.1-3.34-0.26-6.67-0.29-10.01c-0.04-3.79,0.03-7.58,0.04-11.36c0-1.26-0.01-2.52-0.03-3.79c-0.02-1.35,0.63-2.11,2.12-2.42
				c0.64-0.13,1.29-0.13,1.92,0.06c0.86,0.26,1.39,0.77,1.43,1.59c0.06,1.3,0.08,2.61,0.12,3.91c0.01,0.23,0,0.45,0,0.68
				C197.13,92.41,197.22,92.43,197.31,92.45z"/>
			<path d="M166.36,108.92c-0.56,0.26-0.48,0.56-0.48,0.84c-0.01,1.92-0.13,3.85,0.02,5.76c0.18,2.3-2.8,3.23-4.46,2.63
				c-0.73-0.26-1.16-0.72-1.17-1.44c0-0.28,0-0.57-0.01-0.85c-0.05-3.86-0.1-7.73-0.16-11.59c-0.07-4.96-0.15-9.91-0.22-14.87
				c0-0.22,0-0.44,0.01-0.65c0.06-1.37,0.75-2.18,2.25-2.57c0.49-0.13,1.01-0.21,1.52-0.23c2.7-0.09,5.36,0.19,7.83,1.2
				c3.67,1.49,5.84,4.06,6.34,7.64c0.56,3.98-1.35,6.95-5.04,9.07c-1,0.57-2.16,0.91-3.25,1.36c-0.27,0.11-0.56,0.19-0.79,0.33
				c-0.46,0.28-0.53,0.68-0.19,1.07c0.46,0.51,0.94,1.01,1.43,1.5c2.74,2.71,5.76,5.12,9.2,7.11c0.56,0.33,0.84,0.73,0.69,1.31
				c-0.16,0.61-0.54,1.07-1.25,1.26c-0.39,0.1-0.72-0.03-1.04-0.2c-1.89-0.99-3.64-2.15-5.32-3.39c-2-1.48-3.87-3.09-5.57-4.85
				C166.56,109.22,166.47,109.06,166.36,108.92z M174.13,96.26c-0.04-1.33-0.3-2.59-0.89-3.78c-0.71-1.44-1.81-2.59-3.42-3.3
				c-1.04-0.46-2.13-0.78-3.27-0.97c-0.77-0.13-0.98,0.04-0.98,0.73c0.02,2.9,0.02,5.8,0.05,8.7c0.02,1.72,0.06,3.45,0.11,5.17
				c0.02,0.77,0.3,0.95,1.11,0.73c0.84-0.23,1.68-0.47,2.49-0.78C172.57,101.55,174.04,99.29,174.13,96.26z"/>
			<path d="M156.04,105.26c-1.38-2.09-3.43-3.44-5.93-4.31c-0.26-0.09-0.53-0.18-0.79-0.28c-0.02-0.06-0.04-0.12-0.06-0.18
				c0.2-0.12,0.39-0.25,0.6-0.36c0.74-0.38,1.52-0.72,2.24-1.13c1-0.57,1.83-1.3,2.46-2.19c1.38-1.94,1.51-3.94,0.36-6
				c-0.71-1.26-1.79-2.19-3.15-2.89c-3.08-1.58-6.42-2.1-9.94-1.85c-1.47,0.11-2.86,0.41-4.16,1.07c-1.01,0.51-1.55,1.23-1.62,2.24
				c-0.1,1.57-0.23,3.14-0.25,4.71c-0.08,6.29-0.06,12.58,0.54,18.86c0.12,1.25,0.21,2.5,0.37,3.75c0.1,0.81,0.63,1.25,1.54,1.35
				c0.57,0.06,1.14,0.1,1.71,0.13c2.32,0.09,4.63-0.02,6.93-0.3c2.35-0.28,4.56-0.94,6.55-2.09c1.99-1.15,3.37-2.72,3.78-4.83
				C157.63,108.96,157.21,107.04,156.04,105.26z M141.45,89.65c0-0.15,0.02-0.3,0.05-0.44c0.12-0.59,0.43-0.84,1.11-0.89
				c0.26-0.02,0.52,0,0.79,0c1.24,0.04,2.48,0.16,3.67,0.5c0.59,0.17,1.17,0.38,1.71,0.64c1.72,0.83,2.3,2.05,1.84,3.74
				c-0.23,0.85-0.66,1.61-1.38,2.19c-0.73,0.58-1.5,1.12-2.33,1.57c-1.38,0.76-2.9,1.3-4.44,1.74c-0.14,0.04-0.27,0.08-0.41,0.09
				c-0.49,0.05-0.66-0.05-0.74-0.48c-0.03-0.17-0.04-0.34-0.03-0.51C141.33,95.09,141.39,92.37,141.45,89.65z M151.66,111.07
				c-0.32,1.23-1.11,2.19-2.28,2.91c-1.47,0.89-3.1,1.41-4.84,1.64c-0.59,0.08-1.18,0.13-1.78,0.17c-0.54,0.03-0.69-0.07-0.76-0.55
				c-0.08-0.57-0.11-1.14-0.16-1.71c-0.17-2.31-0.54-9.1-0.57-10.19c-0.02-0.72,0.09-0.83,0.87-0.87c1.76-0.08,3.48,0.06,5.16,0.56
				c2.72,0.8,4.1,2.57,4.55,5.01C152.04,109.06,151.92,110.08,151.66,111.07z"/>
			<path d="M230.6,103.11c1.18,0,2.26,0,3.33,0c1.07,0,1.44,0.3,1.52,1.23c0.19,2.03,0.22,4.07,0,6.1c-0.11,1-0.34,1.97-0.75,2.91
				c-0.67,1.55-1.8,2.77-3.43,3.57c-3.19,1.57-6.45,1.63-9.74,0.28c-1.24-0.51-2.19-1.32-2.89-2.37c-1.05-1.58-1.66-3.3-2.06-5.07
				c-1.18-5.32-1.1-10.61,0.51-15.86c0.54-1.76,1.36-3.41,2.72-4.8c1.52-1.56,3.41-2.61,5.72-2.9c3.13-0.4,5.83,0.41,7.92,2.58
				c1.09,1.13,1.57,2.48,1.63,3.96c0,0.1,0,0.21-0.01,0.31c-0.06,0.53-0.27,0.78-0.73,0.87c-0.47,0.09-0.8-0.07-1.06-0.53
				c-0.19-0.33-0.33-0.69-0.49-1.03c-0.24-0.5-0.46-1-0.74-1.48c-0.6-1.03-1.52-1.78-2.7-2.27c-1.68-0.7-3.44-0.36-4.59,0.94
				c-0.43,0.48-0.77,1.04-1.05,1.61c-1.18,2.33-1.87,4.78-2.25,7.3c-0.51,3.43-0.4,6.84,0.42,10.22c0.26,1.09,0.69,2.15,1.12,3.2
				c0.36,0.87,0.99,1.6,1.76,2.22c1.18,0.95,2.56,1.34,4.14,1.08c1.24-0.21,2.09-0.87,2.64-1.86c0.45-0.81,0.7-1.69,0.8-2.57
				c0.17-1.57,0.24-3.15,0.32-4.72c0.03-0.66-0.17-0.81-0.91-0.82c-1.4-0.01-2.8,0-4.2-0.01c-0.37,0-0.75-0.03-1.11-0.11
				c-0.26-0.06-0.54-0.17-0.74-0.32c-0.57-0.42-0.43-1.12,0.28-1.32c0.41-0.12,0.87-0.16,1.31-0.18
				C228.42,103.18,229.56,103.15,230.6,103.11z"/>
			<path d="M286.12,103.11c1.18,0,2.26,0,3.33,0c1.07,0,1.44,0.3,1.52,1.23c0.19,2.03,0.22,4.07,0,6.1c-0.11,1-0.34,1.97-0.75,2.91
				c-0.67,1.55-1.8,2.77-3.43,3.57c-3.19,1.57-6.45,1.63-9.74,0.28c-1.24-0.51-2.19-1.32-2.89-2.37c-1.05-1.58-1.66-3.3-2.06-5.07
				c-1.18-5.32-1.1-10.61,0.51-15.86c0.54-1.76,1.36-3.41,2.72-4.8c1.52-1.56,3.41-2.61,5.72-2.9c3.13-0.4,5.83,0.41,7.92,2.58
				c1.09,1.13,1.57,2.48,1.63,3.96c0,0.1,0,0.21-0.01,0.31c-0.06,0.53-0.27,0.78-0.73,0.87c-0.47,0.09-0.8-0.07-1.06-0.53
				c-0.19-0.33-0.33-0.69-0.49-1.03c-0.24-0.5-0.46-1-0.74-1.48c-0.6-1.03-1.52-1.78-2.7-2.27c-1.68-0.7-3.44-0.36-4.59,0.94
				c-0.43,0.48-0.77,1.04-1.05,1.61c-1.18,2.33-1.87,4.78-2.25,7.3c-0.51,3.43-0.4,6.84,0.42,10.22c0.26,1.09,0.69,2.15,1.12,3.2
				c0.36,0.87,0.99,1.6,1.76,2.22c1.18,0.95,2.56,1.34,4.14,1.08c1.24-0.21,2.09-0.87,2.64-1.86c0.45-0.81,0.7-1.69,0.8-2.57
				c0.17-1.57,0.24-3.15,0.32-4.72c0.03-0.66-0.17-0.81-0.91-0.82c-1.4-0.01-2.8,0-4.2-0.01c-0.37,0-0.75-0.03-1.11-0.11
				c-0.26-0.06-0.54-0.17-0.74-0.32c-0.57-0.42-0.43-1.12,0.28-1.32c0.41-0.12,0.87-0.16,1.31-0.18
				C283.94,103.18,285.08,103.15,286.12,103.11z"/>
			<path d="M187.64,88.63c0-0.26-0.04-0.52-0.08-0.78c-0.11-0.89-0.72-1.4-1.64-1.66c-0.65-0.18-1.31-0.17-1.96-0.01
				c-1.25,0.31-1.86,0.94-1.98,2.08c-0.03,0.33-0.03,0.65-0.03,0.98c0.04,4.41,0.35,23.98,0.39,27.12c0.01,0.87,0.35,1.36,1.18,1.63
				c1.15,0.38,2.23,0.17,3.23-0.4c0.92-0.52,1.22-1.29,1.2-2.24C187.85,110.01,187.67,92.19,187.64,88.63z"/>
			<path d="M252.86,92.45c0.1-0.18,0.2-0.35,0.3-0.53c0.45-0.83,0.83-1.68,1.35-2.48c0.68-1.05,1.59-1.94,2.72-2.62
				c1.3-0.78,2.72-1.15,4.31-0.87c1.11,0.19,2.01,0.69,2.77,1.41c1.28,1.21,1.9,2.7,2.3,4.29c0.51,2.03,0.8,4.08,1,6.15
				c0.44,4.65,0.6,9.31,0.58,13.98c-0.01,1.2-0.05,2.4-0.09,3.59c-0.05,1.48-1.05,2.55-2.68,2.82c-0.37,0.06-0.77,0.07-1.15,0.02
				c-0.91-0.1-1.42-0.62-1.44-1.42c-0.01-0.45,0.01-0.9,0.02-1.35c0.06-4.52-0.12-9.03-0.44-13.54c-0.19-2.69-0.44-5.37-0.98-8.03
				c-0.18-0.9-0.43-1.8-0.71-2.68c-0.14-0.45-0.4-0.87-0.66-1.28c-0.31-0.48-0.75-0.59-1.28-0.31c-0.32,0.17-0.65,0.39-0.87,0.66
				c-0.55,0.67-1.1,1.35-1.52,2.09c-0.95,1.67-1.46,3.48-1.89,5.3c-0.89,3.74-1.23,7.53-1.29,11.34c-0.03,1.88-0.07,3.77-0.11,5.65
				c0,0.21-0.04,0.43-0.02,0.64c0.12,1.79-2.31,3.21-3.88,3.07c-1.16-0.11-1.75-0.59-1.79-1.62c-0.04-1.01-0.05-2.01-0.08-3.02
				c-0.1-3.34-0.26-6.67-0.29-10.01c-0.04-3.79,0.03-7.58,0.04-11.36c0-1.26-0.01-2.52-0.03-3.79c-0.02-1.35,0.63-2.11,2.12-2.42
				c0.64-0.13,1.29-0.13,1.92,0.06c0.86,0.26,1.39,0.77,1.43,1.59c0.06,1.3,0.08,2.61,0.12,3.91c0.01,0.23,0,0.45,0,0.68
				C252.68,92.41,252.77,92.43,252.86,92.45z"/>
			<path d="M243.18,88.63c0-0.26-0.04-0.52-0.08-0.78c-0.11-0.89-0.72-1.4-1.64-1.66c-0.65-0.18-1.31-0.17-1.96-0.01
				c-1.25,0.31-1.86,0.94-1.98,2.08c-0.03,0.33-0.03,0.65-0.03,0.98c0.04,4.41,0.35,23.98,0.39,27.12c0.01,0.87,0.35,1.36,1.18,1.63
				c1.15,0.38,2.23,0.17,3.23-0.4c0.92-0.52,1.22-1.29,1.2-2.24C243.4,110.01,243.21,92.19,243.18,88.63z"/>
		</g>
		<g>
			<path d="M175.33,193.43l0-0.49c0-0.5,0-1.01,0-1.51c-0.02-1.07-0.58-1.63-1.66-1.66c-0.07,0-0.14,0-0.2,0l-13.99-0.09l-0.55,0
				c-0.54-0.01-1.07-0.01-1.61,0c-0.99,0.01-1.63,0.61-1.68,1.55c-0.04,0.77-0.05,1.58-0.01,2.56c0.03,0.83,0.63,1.43,1.43,1.44
				c0.74,0.01,1.33-0.54,1.42-1.34c0.03-0.25,0.03-0.49,0.03-0.73c0-0.09,0-0.19,0-0.28c0-0.18,0.02-0.27,0.03-0.31
				c0.04-0.01,0.11-0.02,0.28-0.02c1.57,0.01,3.15,0.02,4.73,0.03c0.07,0,0.13,0.07,0.13,0.15l0.04,19.09c0,0.67,0,1.33,0.01,2
				l0,0.1c0,0.19,0,0.38,0,0.5c-0.06,0-0.15,0-0.22,0c-0.1,0-0.22,0-0.36,0c-0.25,0.01-0.52,0.02-0.79,0.08
				c-0.66,0.16-1.08,0.69-1.09,1.36c-0.01,0.67,0.41,1.21,1.06,1.38c0.21,0.05,0.44,0.08,0.72,0.08c0.01,0,0.02,0,0.04,0
				c1.63-0.01,3.26-0.03,4.89-0.05c0.19,0,0.38-0.01,0.57-0.05c0.51-0.11,0.89-0.44,1.06-0.94c0.14-0.42,0.09-0.87-0.15-1.23
				c-0.25-0.37-0.67-0.61-1.15-0.64c-0.32-0.02-0.63-0.02-0.93-0.01c-0.18,0-0.36,0.01-0.54,0c-0.13,0-0.17-0.02-0.17-0.02
				c0,0-0.03-0.04-0.05-0.18c-0.01-0.05,0-0.11,0-0.16l0-0.06l0-2.48c-0.01-6.21-0.01-12.41-0.02-18.62c0-0.07,0.03-0.13,0.08-0.18
				c0.05-0.05,0.11-0.07,0.18-0.07c0,0,0,0,0,0c1.43,0,2.86,0.01,4.3,0.02l1.08,0c0.09,0,0.17,0,0.26,0.01l0,0.08
				c-0.01,0.34-0.01,0.69,0.02,1.05c0.07,0.74,0.67,1.31,1.4,1.32c0.01,0,0.01,0,0.02,0c0.71,0,1.3-0.53,1.41-1.28
				C175.33,193.67,175.33,193.53,175.33,193.43z"/>
			<path d="M224.57,191.44c-0.02-1.07-0.58-1.63-1.66-1.66c-0.07,0-0.14,0-0.2,0l-13.99-0.09l-0.55,0c-0.54-0.01-1.07-0.01-1.61,0
				c-0.99,0.01-1.63,0.61-1.68,1.55c-0.04,0.77-0.05,1.58-0.01,2.56c0.03,0.83,0.63,1.43,1.43,1.44c0.74,0.01,1.33-0.54,1.42-1.34
				c0.03-0.25,0.03-0.49,0.03-0.73c0-0.09,0-0.19,0-0.28c0-0.18,0.02-0.27,0.03-0.31c0.04-0.01,0.11-0.01,0.28-0.02
				c1.57,0.01,3.15,0.02,4.73,0.03c0.07,0,0.13,0.07,0.13,0.15l0.04,19.14c0,0.65,0,1.3,0.01,1.94l0,0.1c0,0.19,0,0.38,0,0.5
				c-0.06,0-0.15,0-0.22,0c-0.1,0-0.22,0-0.36,0c-0.25,0.01-0.52,0.02-0.79,0.08c-0.66,0.16-1.08,0.69-1.09,1.36
				c-0.01,0.67,0.41,1.21,1.06,1.38c0.21,0.05,0.44,0.08,0.72,0.08c0.01,0,0.02,0,0.04,0c1.63-0.01,3.26-0.03,4.89-0.05
				c0.19,0,0.38-0.01,0.57-0.05c0.51-0.11,0.89-0.44,1.06-0.94c0.14-0.42,0.09-0.87-0.15-1.23c-0.25-0.37-0.67-0.61-1.15-0.64
				c-0.32-0.02-0.63-0.02-0.93-0.01c-0.18,0-0.36,0.01-0.54,0c-0.13,0-0.17-0.02-0.17-0.02c0,0-0.03-0.04-0.05-0.18
				c-0.01-0.05,0-0.1,0-0.16l0-0.06l0-4.02c-0.01-5.69-0.01-11.39-0.01-17.08c0-0.07,0.03-0.13,0.07-0.18
				c0.05-0.05,0.11-0.07,0.18-0.07c0,0,0,0,0,0c1.43,0,2.86,0.01,4.3,0.02l1.08,0c0.09,0,0.17,0,0.26,0.01l0,0.08
				c-0.01,0.34-0.01,0.69,0.02,1.05c0.07,0.74,0.67,1.31,1.4,1.32c0.01,0,0.01,0,0.02,0c0.71,0,1.3-0.53,1.41-1.28
				c0.02-0.14,0.02-0.28,0.02-0.38l0-0.48C224.57,192.44,224.57,191.94,224.57,191.44L224.57,191.44z"/>
			<path d="M198.93,202.61c-0.05-0.52-0.11-1.24-0.24-1.94c-0.64-3.39-2.16-6.14-4.52-8.17c-3.25-2.79-6.88-3.56-10.77-2.26
				c-2.57,0.85-4.65,2.53-6.17,4.99c-2.52,4.06-3.02,8.5-1.51,13.2c0.99,3.08,2.81,5.48,5.4,7.15c1.84,1.18,3.79,1.78,5.81,1.78
				c0.73,0,1.48-0.08,2.23-0.23c2.58-0.54,4.78-1.91,6.55-4.08c2.18-2.68,3.22-5.82,3.27-9.89l0-0.03l0-0.03
				C198.96,202.96,198.94,202.8,198.93,202.61z M194.41,209.77c-0.55,1.04-1.35,1.98-2.36,2.79c-3.01,2.41-6.91,2.45-9.95,0.1
				c-1.99-1.54-3.28-3.62-3.93-6.38c-0.23-0.94-0.34-1.92-0.33-2.9c0.06-3.24,1.03-5.86,2.96-8c1.16-1.29,2.53-2.14,4.08-2.54
				c2.03-0.53,4-0.27,5.85,0.77c1.48,0.83,2.65,1.97,3.46,3.38C196.6,201.21,196.68,205.5,194.41,209.77z"/>
			<path d="M250.05,214.54c-0.2-0.07-0.43-0.11-0.71-0.12c-0.23-0.01-0.47-0.01-0.7-0.01c-0.08,0-0.16,0-0.24,0
				c-0.11,0-0.22,0-0.31,0c0-0.08,0-0.18,0-0.27l-0.02-21.23l0-0.05l0-0.1c0-0.08,0.01-0.14,0.01-0.18c0.04,0,0.11-0.01,0.2-0.01
				c0.12,0,0.23,0,0.35,0c0.16,0,0.32,0,0.47-0.01c0.19-0.01,0.41-0.02,0.63-0.08c0.59-0.14,1.02-0.64,1.08-1.24
				c0.06-0.65-0.29-1.24-0.89-1.46c-0.23-0.09-0.51-0.14-0.79-0.14c-1.53-0.01-3.15-0.01-4.81,0c-0.29,0-0.55,0.04-0.78,0.12
				c-0.6,0.2-0.98,0.78-0.94,1.43c0.03,0.61,0.45,1.12,1.03,1.28c0.24,0.07,0.49,0.08,0.7,0.09l0.04,0
				c0.14,0.01,0.29,0.01,0.43,0.01c0.11,0,0.22,0,0.33,0.01c0,0,0,0,0,0c0.01,0.1,0.01,0.19,0.01,0.29l0,1.4
				c0.01,2.46,0.01,4.93,0.01,7.39c0,0.04,0,0.13,0,0.21c-0.07,0-0.15,0-0.19,0c-4.22-0.03-8.44-0.07-12.66-0.11
				c-0.11,0-0.18,0-0.22-0.01c0-0.04-0.01-0.11-0.01-0.2c-0.01-2.95-0.01-5.89-0.01-8.84c0-0.06,0-0.1,0-0.14
				c0.03,0,0.08-0.01,0.14-0.01c0.15-0.01,0.29-0.01,0.44-0.01c0.25,0,0.52,0,0.79-0.03c0.84-0.08,1.43-0.71,1.4-1.49
				c-0.03-0.76-0.63-1.34-1.47-1.41c-0.06,0-0.13,0-0.2,0l-1.06,0c-1.28,0-2.57,0-3.85,0.01c-0.25,0-0.51,0.05-0.74,0.13
				c-0.57,0.21-0.93,0.76-0.91,1.37c0.02,0.61,0.42,1.14,1,1.31c0.25,0.07,0.51,0.09,0.74,0.1c0.13,0.01,0.26,0.01,0.39,0
				c0.11,0,0.21,0,0.32,0c0.03,0,0.06,0,0.07,0.01c0,0.02,0.01,0.04,0.02,0.08c0.02,0.09,0.02,0.2,0.02,0.3
				c0.01,7.06,0.01,14.12,0.01,21.17c0,0.13,0,0.21-0.01,0.27c-0.06,0.01-0.15,0.01-0.27,0.01c-0.07,0-0.15,0-0.22,0
				c-0.23,0-0.47,0-0.72,0.04c-0.72,0.12-1.22,0.71-1.22,1.44c0.01,0.72,0.51,1.28,1.24,1.4c0.22,0.04,0.43,0.04,0.61,0.04
				c1.51,0.01,3.02,0.02,4.53,0.02c0,0,0.01,0,0.01,0c0.18,0,0.39-0.01,0.61-0.04c0.75-0.13,1.23-0.66,1.25-1.38
				c0.02-0.75-0.47-1.32-1.24-1.47c-0.17-0.03-0.33-0.03-0.48-0.03l-0.03,0c-0.16,0-0.32,0-0.48,0c-0.2,0-0.41,0-0.61,0
				c-0.02,0-0.04,0-0.06,0c0-0.03,0-0.06,0-0.08c0-0.03,0-0.07,0-0.1l0-0.05l0-1.69c0-2.53-0.01-5.06-0.01-7.59
				c0-0.07,0-0.14,0.01-0.21c0.11,0,0.22,0,0.34,0l12.36,0.1c0.07,0,0.25,0,0.35,0.02c0.01,0.1,0.02,0.28,0.02,0.35
				c0,0.07,0,0.13,0,0.2l0,0.07l0.01,8.45l0,0.11c0,0.08,0,0.15,0,0.22c-0.01,0.1-0.03,0.14-0.03,0.14c-0.01,0-0.05,0.02-0.16,0.03
				c-0.1,0.01-0.2,0.01-0.3,0c-0.09,0-0.19,0-0.28,0l-0.07,0c-0.16,0.01-0.33,0.01-0.51,0.06c-0.67,0.17-1.14,0.78-1.11,1.45
				c0.03,0.67,0.53,1.23,1.21,1.36c0.17,0.03,0.35,0.05,0.57,0.05c1.57,0.01,3.13,0.02,4.7,0.02c0.28,0,0.54-0.03,0.76-0.09
				c0.61-0.16,1.04-0.72,1.04-1.36C251.01,215.28,250.63,214.74,250.05,214.54z"/>
			<path d="M271.28,212.88c0-0.49-0.25-0.91-0.71-1.18c-0.42-0.25-0.93-0.27-1.36-0.06c-0.45,0.22-0.75,0.66-0.81,1.17
				c-0.03,0.3-0.04,0.59-0.04,0.88c0,0.14,0,0.27-0.01,0.41c-0.01,0.17-0.02,0.25-0.03,0.29c-0.04,0.01-0.12,0.01-0.26,0.02
				c-3,0-6,0.01-9.01,0c-0.05,0-0.08,0-0.11,0c0-0.03,0-0.07,0-0.11c0-2.32,0.01-4.64,0.01-6.96l0-2.18c0-0.02,0-0.03,0-0.05
				c0-0.03,0.01-0.06,0.01-0.08c0.01,0,0.03,0,0.04,0c1.62-0.01,3.31-0.01,5.16-0.01c0,0.01,0,0.01,0,0.02l0.01,0.14
				c0.02,0.22,0.03,0.47,0.11,0.71c0.19,0.59,0.73,0.97,1.36,0.97c0.01,0,0.02,0,0.03,0c0.61-0.01,1.12-0.39,1.32-0.96
				c0.07-0.21,0.11-0.46,0.11-0.73c0-1.05,0-2.15-0.02-3.26c0-0.26-0.04-0.5-0.1-0.71c-0.19-0.64-0.75-1.05-1.42-1.02
				c-0.63,0.02-1.16,0.42-1.34,1.03c-0.06,0.21-0.07,0.42-0.08,0.6l0,0.04c0,0.09-0.01,0.17-0.02,0.22c-0.04,0-0.11,0.01-0.21,0.01
				c-1.23,0.01-2.46,0.01-3.69,0.01l-0.95,0c-0.08,0-0.17,0-0.25-0.01c-0.03,0-0.06-0.01-0.07-0.01c0-0.02-0.01-0.05-0.01-0.09
				c0-0.05,0-0.11,0-0.16l0.01-8.87l0-0.1c0-0.06,0-0.12,0-0.18c0-0.03,0.01-0.05,0.01-0.07c0.02,0,0.04-0.01,0.07-0.01
				c0.08-0.01,0.18-0.01,0.28-0.01l6.07,0.01l0.74,0c0.58,0,1.16,0,1.74,0.01c0.33,0.01,0.4,0.04,0.41,0.04
				c0.01,0.02,0.04,0.09,0.05,0.42c0,0.11,0,0.22,0,0.32c0,0.28,0,0.56,0.04,0.86c0.09,0.74,0.72,1.28,1.47,1.25
				c0.72-0.02,1.28-0.52,1.38-1.25c0.03-0.21,0.03-0.42,0.03-0.61c0-0.23-0.01-0.45-0.01-0.68c-0.01-0.41-0.02-0.84,0-1.26
				c0.03-0.67-0.12-1.16-0.46-1.51c-0.35-0.36-0.88-0.55-1.6-0.53c-3.48,0.02-7.01,0.01-10.43,0.01c-1.33,0-2.66,0-4-0.01l-0.09,0
				c-0.14,0-0.29,0-0.43,0.01c-0.86,0.06-1.48,0.68-1.47,1.48c0.01,0.77,0.6,1.36,1.44,1.43c0.13,0.01,0.26,0.02,0.39,0.01h0.52
				c0.25,0,0.5,0,0.74,0c0.06,0,0.1,0,0.13,0c0,0.03,0,0.07,0.01,0.12c0,0.1,0,0.19,0,0.29l0,0.13c0,1.75-0.01,6.18-0.01,10.54
				c-0.01,4.18-0.01,8.29-0.01,9.97l0,0.14c0,0.14,0,0.29-0.01,0.43c-0.01,0.13-0.02,0.19-0.03,0.21c-0.02,0.01-0.08,0.02-0.2,0.02
				c-0.13,0-0.26,0-0.38,0c-0.09,0-0.17,0-0.26,0c-0.09,0-0.18,0-0.26,0c-0.23,0-0.46-0.01-0.7,0.02c-0.78,0.08-1.36,0.69-1.37,1.44
				c-0.01,0.77,0.58,1.39,1.4,1.48c0.11,0.01,0.21,0.01,0.31,0.01c0.04,0,0.08,0,0.12,0l0.1,0c4.83,0,9.66,0,14.51-0.01
				c0.22,0,0.46,0,0.71-0.05c0.75-0.15,1.25-0.7,1.28-1.42c0.04-0.99,0.04-1.99,0.03-2.96L271.28,212.88z"/>
		</g>
		<path d="M169.13,266.01c-0.94-2.44-1.71-4.86-2.32-7.33c-1.06-4.28-1.71-8.62-1.93-13.03c-0.2-4.13,0.18-8.18,1.24-12.17
			c0.53-1.98,1.26-3.89,2.23-5.71c0.8-1.48,1.79-2.81,3.03-3.95c0.79-0.72,1.66-1.33,2.67-1.7c2.2-0.8,4.18-0.4,5.94,1.1
			c0.88,0.75,1.52,1.69,2.03,2.72c0.82,1.64,1.31,3.39,1.59,5.2c0.45,2.95,0.33,5.9-0.11,8.84c-0.77,5.17-2.35,10.11-4.32,14.93
			c-0.92,2.24-1.96,4.44-2.99,6.63c-0.27,0.58-0.36,1.09-0.15,1.72c1.29,3.94,2.88,7.75,4.88,11.37c0.57,1.03,1.22,2.01,1.91,2.96
			c0.37,0.51,0.85,0.97,1.36,1.36c0.82,0.62,1.33,0.57,1.93-0.26c0.51-0.7,0.96-1.46,1.32-2.25c0.61-1.34,1.18-2.71,1.69-4.1
			c1.01-2.74,1.96-5.5,2.96-8.24c0.23-0.63,0.25-1.25,0.13-1.9c-0.58-3.27-0.73-6.56-0.38-9.86c0.34-3.23,1.13-6.34,2.7-9.22
			c0.99-1.81,2.2-3.46,3.79-4.79c3.82-3.2,8.03-3.65,12.54-1.71c2.01,0.87,3.67,2.26,5.24,3.76c0.27,0.26,0.54,0.51,0.86,0.81
			c0.24-0.45,0.23-0.87,0.31-1.26c0.15-0.78,0.27-1.57,0.48-2.34c0.12-0.47,0.32-0.94,0.58-1.35c0.95-1.56,3.02-2.03,4.59-1.1
			c0.8,0.48,1.24,1.2,1.42,2.1c0.22,1.09,0.23,2.19,0.19,3.29c-0.08,2.12-0.15,4.25-0.27,6.37c-0.24,4.29-0.16,8.57,0.27,12.84
			c0.51,5.12,1.61,10.1,3.43,14.92c0.5,1.31,1.02,2.62,1.81,3.79c0.38,0.56,0.84,1.07,1.31,1.56c0.31,0.32,0.56,0.33,0.9,0.03
			c0.51-0.44,1.02-0.91,1.45-1.43c1-1.2,1.78-2.55,2.49-3.93c1.04-2.02,1.96-4.11,2.75-6.24c0.97-2.63,1.88-5.28,2.82-7.93
			c0.11-0.32,0.2-0.65,0.31-1.02c-0.27-0.23-0.51-0.46-0.77-0.68c-1.37-1.2-2.77-2.36-4.11-3.6c-1.65-1.52-3.1-3.23-4.31-5.13
			c-1.17-1.84-2.03-3.81-2.41-5.97c-0.53-3.05,0.04-5.88,1.62-8.52c0.81-1.35,1.84-2.51,3.07-3.48c0.94-0.74,1.98-1.27,3.14-1.54
			c2.48-0.57,4.66,0.06,6.56,1.69c1.14,0.98,1.95,2.22,2.52,3.6c0.67,1.63,1.01,3.34,1.11,5.09c0.2,3.28-0.13,6.51-0.8,9.72
			c-0.22,1.04-0.47,2.07-0.71,3.1c-0.06,0.26-0.1,0.52-0.15,0.82c0.19,0.18,0.37,0.37,0.57,0.53c1.03,0.78,2.07,1.54,3.09,2.32
			c1.38,1.06,2.76,2.14,4.13,3.21c0.14,0.11,0.3,0.21,0.43,0.31c1.13-0.95,6-6.62,6.79-7.92c-0.29-0.26-0.59-0.54-0.9-0.81
			c-2.03-1.74-3.85-3.65-5.35-5.87c-1.09-1.62-1.96-3.33-2.43-5.23c-0.49-1.98-0.59-3.98-0.13-5.97c1.32-5.62,6.71-8.83,11.31-8.55
			c2.24,0.14,4.09,1.06,5.54,2.75c1.48,1.72,2.29,3.74,2.48,5.99c0.23,2.77-0.27,5.44-1.28,8.02c-0.67,1.7-1.52,3.31-2.44,4.88
			c-0.19,0.32-0.38,0.65-0.6,1.04c1.15,0.96,2.34,1.82,3.5,2.66c0.44-0.2,0.44-0.59,0.55-0.89c0.86-2.27,1.81-4.5,2.96-6.64
			c0.68-1.27,1.42-2.51,2.32-3.64c0.83-1.04,1.73-2.01,2.85-2.76c1.06-0.71,2.21-1.16,3.51-1.13c1.39,0.02,2.59,0.51,3.6,1.45
			c1.03,0.95,1.72,2.12,2.08,3.47c0.27,0.99,0.46,1.99,0.66,3c0.2,0.98-0.04,1.68-1.43,2.04c-0.42,0.11-0.83,0.05-1.23-0.1
			c-0.55-0.2-0.89-0.56-0.96-1.15c-0.07-0.53-0.14-1.05-0.21-1.58c-0.11-0.91-0.35-1.79-0.73-2.62c-0.3-0.66-0.71-1.25-1.28-1.72
			c-0.42-0.35-0.91-0.43-1.37-0.14c-0.45,0.28-0.88,0.6-1.26,0.96c-1.12,1.04-1.97,2.3-2.71,3.63c-1.47,2.66-2.65,5.45-3.6,8.34
			c-0.19,0.57-0.36,1.15-0.55,1.77c0.29,0.24,0.54,0.46,0.81,0.67c1.76,1.38,3.54,2.74,5.28,4.15c1.81,1.46,3.37,3.16,4.72,5.07
			c1.03,1.46,1.9,3.01,2.38,4.76c0.46,1.67,0.61,3.37,0.2,5.06c-0.74,3.07-2.66,5.23-5.41,6.68c-1.25,0.66-2.58,1.09-4,1.23
			c-2.91,0.28-5.29-0.67-7.01-3.1c-1.15-1.64-1.84-3.49-2.28-5.42c-0.65-2.83-0.84-5.69-0.58-8.59c0.15-1.63,0.37-3.24,0.71-4.84
			c0.05-0.22,0.06-0.45,0.08-0.65c-0.61-0.7-4.18-3.49-5.55-4.34c-0.04,0.01-0.07,0.01-0.11,0.02c-0.04,0.01-0.08,0.02-0.1,0.05
			c-2.2,2.56-4.4,5.12-6.6,7.68c-0.07,0.08-0.11,0.2-0.19,0.34c0.27,0.31,0.54,0.62,0.81,0.93c1.36,1.54,2.63,3.14,3.64,4.94
			c0.86,1.53,1.54,3.13,1.8,4.88c0.87,6.07-2.95,10.2-7.48,11.44c-1.53,0.42-3.07,0.45-4.61,0.01c-2.05-0.58-3.54-1.84-4.41-3.8
			c-0.91-2.05-1.06-4.16-0.54-6.34c0.36-1.52,0.96-2.96,1.72-4.32c0.59-1.06,1.25-2.08,1.89-3.11c0.2-0.32,0.41-0.63,0.61-0.93
			c-0.83-1.25-4.33-4.3-5.73-5.01c-0.29,0.27-0.31,0.67-0.43,1.01c-1.12,3.38-2.26,6.76-3.67,10.04c-0.63,1.46-1.32,2.9-2.04,4.32
			c-0.72,1.42-1.61,2.75-2.65,3.96c-0.62,0.72-1.3,1.39-2.08,1.93c-2.4,1.64-4.98,1.73-7.46,0.16c-1.07-0.67-1.98-1.53-2.79-2.49
			c-1.93-2.26-3.23-4.85-4.14-7.65c-0.82-2.53-1.35-5.13-1.79-7.75c-0.2-1.2-0.33-2.4-0.5-3.6c-0.01-0.1-0.07-0.18-0.12-0.31
			c-0.39,0.19-0.4,0.57-0.52,0.86c-1.23,2.94-2.43,5.89-3.68,8.82c-0.47,1.11-1,2.21-1.57,3.28c-0.38,0.69-0.84,1.35-1.35,1.96
			c-1.69,2.03-4.4,2.87-7.11,1.96c-1.28-0.43-2.4-1.12-3.41-2c-1.81-1.56-3.17-3.47-4.27-5.56c-0.34-0.64-0.62-1.3-0.93-1.95
			c-0.06-0.13-0.15-0.25-0.27-0.44c-0.25,0.28-0.29,0.57-0.39,0.83c-1,2.7-1.99,5.41-3,8.1c-0.37,1-0.87,1.94-1.51,2.79
			c-1.02,1.35-2.32,2.27-4,2.6c-1.35,0.27-2.64,0.07-3.89-0.45c-1.07-0.44-1.99-1.1-2.84-1.86c-1.37-1.21-2.54-2.61-3.6-4.09
			c-1.08-1.51-2.04-3.11-2.92-4.74c-0.18-0.33-0.37-0.65-0.61-1.07c-0.24,0.27-0.44,0.47-0.61,0.69c-1.11,1.5-2.3,2.92-3.64,4.22
			c-1.98,1.92-4.18,3.5-6.75,4.54c-4.08,1.65-8,1.35-11.76-0.96c-2.94-1.81-5.18-4.3-6.91-7.26c-1.82-3.11-3-6.45-3.69-9.98
			c-0.61-3.1-0.89-6.23-0.71-9.39c0.21-3.75,1.03-7.35,2.77-10.71c0.74-1.42,1.62-2.75,2.67-3.95c1.3-1.48,2.83-2.63,4.75-3.19
			c2.73-0.8,5.25-0.35,7.55,1.31c0.84,0.6,1.54,1.35,2.16,2.17c2.18,2.93,3.43,6.21,3.8,9.85c0.16,1.6,0.05,3.18-0.27,4.75
			c-0.06,0.3-0.14,0.59-0.25,0.87c-0.23,0.57-0.65,0.8-1.26,0.73c-0.37-0.04-0.67-0.22-0.76-0.58c-0.11-0.44-0.19-0.89-0.24-1.34
			c-0.16-1.39-0.24-2.8-0.45-4.18c-0.41-2.68-1.25-5.24-2.66-7.57c-0.41-0.68-0.91-1.3-1.4-1.93c-0.21-0.27-0.47-0.49-0.74-0.7
			c-1.34-1.06-2.6-1.03-3.91,0.08c-0.94,0.8-1.6,1.82-2.13,2.92c-0.85,1.75-1.33,3.63-1.67,5.54c-0.53,2.97-0.66,5.96-0.44,8.96
			c0.24,3.26,0.82,6.47,2,9.54c1.28,3.34,3.14,6.31,5.67,8.84c0.61,0.61,1.3,1.17,2,1.68c1.49,1.09,3.1,1.29,4.84,0.61
			c1.18-0.46,2.29-1.03,3.26-1.83c0.82-0.67,1.6-1.39,2.33-2.16c1.6-1.68,2.97-3.54,4.25-5.48
			C168.96,266.34,169.03,266.2,169.13,266.01z M199.33,255.21c-0.03,3.46,0.53,6.7,1.32,9.91c0.57,2.33,1.32,4.59,2.44,6.71
			c0.45,0.84,0.95,1.64,1.61,2.33c0.31,0.32,0.67,0.62,1.05,0.86c0.47,0.3,0.75,0.28,1.11-0.12c0.4-0.45,0.8-0.92,1.1-1.44
			c0.6-1.05,1.2-2.11,1.68-3.22c2.25-5.1,4.46-10.21,6.68-15.31c0.19-0.42,0.27-0.86,0.26-1.32c-0.03-2.81-0.01-5.61,0.25-8.41
			c0.04-0.46-0.1-0.79-0.39-1.13c-1.48-1.7-3.17-3.15-5.15-4.25c-0.73-0.4-1.49-0.73-2.31-0.93c-1.8-0.42-3.39-0.1-4.65,1.33
			c-0.38,0.42-0.75,0.86-1.06,1.33c-0.43,0.67-0.83,1.36-1.2,2.06C200.15,247.29,199.28,251.21,199.33,255.21z M174.16,256.37
			c0.14-0.03,0.19-0.03,0.2-0.05c0.13-0.23,0.28-0.45,0.38-0.68c1.12-2.53,2.13-5.1,3-7.72c1.3-3.93,2.33-7.91,2.6-12.06
			c0.15-2.32,0-4.62-0.57-6.87c-0.24-0.96-0.56-1.9-1.1-2.73c-0.31-0.47-0.68-0.91-1.08-1.31c-0.39-0.38-0.66-0.35-1.1,0.01
			c-0.57,0.46-0.98,1.05-1.36,1.67c-0.67,1.11-1.14,2.3-1.52,3.54c-0.88,2.84-1.23,5.77-1.34,8.73c-0.14,3.91,0.13,7.8,0.7,11.66
			C173.28,252.48,173.64,254.42,174.16,256.37z M265.69,247.38c1.32-2.2,2.33-4.47,2.87-6.93c0.27-1.22,0.45-2.46,0.4-3.72
			c-0.06-1.49-0.32-2.94-1.07-4.26c-0.53-0.94-1.21-1.75-2.16-2.29c-0.71-0.4-1.43-0.43-2.17-0.06c-0.55,0.27-1.02,0.65-1.43,1.11
			c-0.7,0.77-1.21,1.65-1.54,2.63c-0.9,2.6-0.73,5.15,0.4,7.64c1.02,2.25,2.58,4.09,4.38,5.75
			C265.41,247.29,265.5,247.3,265.69,247.38z M243.84,252.24c0.06-0.21,0.11-0.34,0.14-0.47c0.6-2.55,0.98-5.13,1.08-7.74
			c0.06-1.67-0.07-3.33-0.42-4.97c-0.28-1.34-0.72-2.63-1.51-3.77c-0.43-0.63-0.94-1.18-1.62-1.56c-0.56-0.31-1.09-0.27-1.58,0.13
			c-0.57,0.46-1.01,1.02-1.38,1.65c-0.72,1.23-1.08,2.57-1.2,3.99c-0.24,2.78,0.45,5.33,1.92,7.68c1.13,1.81,2.56,3.37,4.13,4.81
			C243.5,252.07,243.64,252.12,243.84,252.24z M272.83,261.92c-0.09,0.21-0.14,0.28-0.15,0.35c-0.38,2.68-0.43,5.36-0.03,8.05
			c0.23,1.51,0.62,2.96,1.32,4.33c0.43,0.85,0.97,1.63,1.68,2.27c0.49,0.44,1.04,0.74,1.7,0.85c1.36,0.21,2.49-0.38,3.03-1.66
			c0.55-1.3,0.6-2.65,0.32-4.02c-0.31-1.47-1.01-2.77-1.84-4c-1.52-2.25-3.36-4.2-5.5-5.87
			C273.22,262.11,273.05,262.04,272.83,261.92z M252.32,269.03c-1.15,1.83-2.05,3.65-2.5,5.67c-0.18,0.83-0.23,1.65-0.17,2.49
			c0.1,1.17,0.5,2.21,1.31,3.08c0.56,0.6,1.23,0.99,2.06,1.1c0.9,0.12,1.55-0.22,1.99-1c0.07-0.13,0.15-0.27,0.2-0.41
			c0.58-1.52,0.79-3.09,0.48-4.69C255.34,273.37,253.83,270.61,252.32,269.03z"/>
		<path d="M168.8,159.31c-0.42-0.47-0.71-0.81-1.02-1.15c-1.34-1.44-2.69-2.88-4.03-4.33c-2.04-2.2-3.94-4.51-5.63-6.99
			c-1.03-1.51-1.87-3.11-2.48-4.84c-1.17-3.34-0.75-6.5,1-9.51c1.03-1.76,2.4-3.22,4.19-4.25c2.06-1.19,4.25-1.55,6.58-1.02
			c1.62,0.37,2.93,1.22,3.9,2.57c1.36,1.87,1.81,3.98,1.54,6.25c-0.06,0.52-0.18,1.05-0.35,1.55c-0.21,0.61-0.73,0.87-1.35,0.78
			c-0.5-0.07-0.83-0.38-0.9-0.88c-0.04-0.3-0.03-0.61-0.05-0.91c-0.06-0.79-0.1-1.59-0.2-2.38c-0.16-1.26-0.64-2.41-1.42-3.43
			c-0.79-1.02-1.85-1.48-3.45-0.85c-0.73,0.29-1.29,0.78-1.78,1.38c-0.88,1.09-1.38,2.35-1.55,3.73c-0.16,1.22-0.07,2.42,0.29,3.6
			c0.46,1.53,1.08,2.99,1.93,4.35c1.18,1.86,2.47,3.65,3.96,5.27c2.17,2.38,4.4,4.71,6.61,7.06c0.08,0.08,0.18,0.13,0.28,0.2
			c0.11-0.03,0.23-0.04,0.32-0.1c1.57-1.07,3.1-2.19,4.42-3.56c0.11-0.11,0.2-0.23,0.31-0.33c0.71-0.7,1-1.51,1-2.54
			c0-4.5,1.22-8.68,3.45-12.57c1.52-2.64,3.62-4.65,6.32-6.04c1.87-0.96,3.86-1.3,5.94-1.2c2.69,0.13,5.11,1.01,7.36,2.44
			c0.38,0.24,0.76,0.49,1.2,0.77c0.12-0.2,0.24-0.38,0.34-0.57c0.2-0.37,0.37-0.75,0.59-1.1c1.17-1.92,3.89-1.77,5.03,0.07
			c0.41,0.65,0.62,1.38,0.73,2.14c0.18,1.28,0.18,2.57,0.12,3.86c-0.17,3.71-0.4,7.42-0.48,11.14c-0.1,4.29,0.08,8.57,0.54,12.84
			c0.3,2.79,0.59,5.58,0.97,8.36c0.3,2.22,0.83,4.39,1.58,6.51c0.28,0.79,0.6,1.56,1.13,2.22c0.11,0.14,0.26,0.26,0.45,0.44
			c0.2-0.14,0.42-0.23,0.55-0.39c0.6-0.74,1.21-1.46,1.74-2.24c1.1-1.64,1.96-3.42,2.78-5.21c1.72-3.8,3.15-7.72,4.51-11.66
			c0.28-0.82,0.56-1.65,0.83-2.48c0.06-0.18,0.09-0.36,0.13-0.57c-0.27-0.25-0.52-0.47-0.76-0.7c-1.17-1.08-2.38-2.12-3.5-3.26
			c-2.47-2.51-4.43-5.38-5.65-8.72c-0.58-1.58-0.94-3.21-0.97-4.89c-0.04-2.74,0.79-5.23,2.42-7.43c0.93-1.26,2.05-2.34,3.4-3.16
			c1.57-0.95,3.27-1.45,5.1-1.2c2.19,0.3,3.89,1.41,5.09,3.28c0.85,1.33,1.34,2.8,1.64,4.34c0.44,2.29,0.39,4.6,0.13,6.91
			c-0.34,2.95-1.04,5.82-1.82,8.67c-0.12,0.43-0.23,0.87-0.36,1.37c3.05,2.53,6.2,4.9,8.95,7.71c0.99-0.71,4.86-4.61,5.68-5.74
			c-0.22-0.22-0.44-0.47-0.68-0.69c-1.23-1.13-2.4-2.32-3.41-3.66c-1.62-2.16-2.75-4.54-3.14-7.23c-0.69-4.86,0.82-8.84,4.88-11.7
			c2.31-1.63,4.92-2.14,7.69-1.68c3.4,0.57,5.99,3.38,6.45,6.91c0.33,2.51-0.13,4.91-1.03,7.24c-0.8,2.06-1.9,3.96-3.12,5.8
			c-0.34,0.5-0.69,1-1.03,1.49c0.66,0.76,2.86,2.43,3.84,2.9c0.07-0.17,0.15-0.33,0.2-0.49c0.76-2.98,1.62-5.92,2.72-8.79
			c0.6-1.56,1.27-3.08,2.14-4.51c0.47-0.78,0.99-1.53,1.67-2.15c0.83-0.76,1.77-1.29,2.92-1.4c1.65-0.16,2.97,0.44,3.97,1.75
			c0.54,0.7,0.89,1.5,1.15,2.34c0.47,1.57,0.68,3.19,0.66,4.83c-0.01,1.46-1.4,2.27-2.73,1.65c-0.58-0.27-0.81-0.76-0.88-1.36
			c-0.08-0.72-0.15-1.43-0.24-2.15c-0.12-1.02-0.32-2.02-0.71-2.98c-0.23-0.56-0.48-1.12-1.02-1.55c-0.19,0.1-0.42,0.16-0.56,0.31
			c-0.34,0.35-0.69,0.71-0.96,1.12c-0.49,0.77-0.97,1.54-1.36,2.36c-1.99,4.16-3.29,8.55-4.24,13.1c0.22,0.2,0.44,0.4,0.67,0.59
			c1.43,1.18,2.89,2.33,4.29,3.56c1.6,1.41,3.02,2.99,4.22,4.75c1.35,1.97,2.24,4.12,2.53,6.51c0.16,1.33,0.11,2.65-0.18,3.96
			c-0.19,0.82-0.51,1.59-0.99,2.29c-1.78,2.61-4.18,4.27-7.36,4.62c-2.42,0.27-4.37-0.68-5.87-2.57c-0.69-0.88-1.11-1.89-1.43-2.95
			c-0.53-1.75-0.76-3.56-0.87-5.38c-0.13-2.2,0.02-4.4,0.3-6.58c0.14-1.05,0.29-2.1,0.45-3.2c-0.11-0.12-0.21-0.29-0.35-0.4
			c-2.01-1.55-4.03-3.1-6.05-4.64c-0.12-0.09-0.26-0.14-0.44-0.23c-1.98,1.95-3.95,3.88-5.97,5.87c0.27,0.36,0.52,0.68,0.77,1
			c1.36,1.69,2.52,3.51,3.42,5.49c0.44,0.97,0.83,1.95,1,3.01c0.52,3.36-0.67,6.14-3.07,8.39c-2.45,2.3-5.41,3.22-8.71,2.49
			c-2.75-0.61-4.67-2.3-5.4-5.11c-0.34-1.31-0.19-2.64,0.21-3.93c0.33-1.05,0.81-2.04,1.36-3c0.84-1.45,1.83-2.79,2.9-4.07
			c0.24-0.29,0.47-0.58,0.74-0.92c-0.37-0.65-0.91-1.13-1.39-1.65c-0.49-0.53-1-1.04-1.52-1.54c-0.49-0.48-0.99-0.94-1.5-1.39
			c-0.54-0.47-1.04-0.98-1.74-1.41c-0.16,0.42-0.3,0.76-0.41,1.11c-1.18,3.48-2.38,6.96-3.81,10.35c-0.84,1.99-1.78,3.94-2.72,5.88
			c-0.65,1.33-1.44,2.59-2.4,3.72c-0.51,0.6-1.07,1.19-1.7,1.67c-1.81,1.36-4.15,1.44-6.09,0.26c-0.93-0.56-1.65-1.33-2.28-2.2
			c-1.16-1.61-2.04-3.37-2.76-5.21c-1.12-2.83-1.82-5.78-2.28-8.78c-0.38-2.48-0.61-4.97-0.73-7.47c-0.01-0.3-0.09-0.59-0.14-0.88
			c0-0.03-0.06-0.04-0.16-0.1c-0.13,0.31-0.27,0.61-0.38,0.91c-0.83,2.24-1.63,4.49-2.48,6.72c-0.5,1.31-1.07,2.59-1.66,3.86
			c-0.32,0.68-0.72,1.34-1.16,1.95c-1.71,2.35-4.41,3.05-7.07,1.87c-1.01-0.45-1.91-1.08-2.75-1.81c-1.86-1.62-3.27-3.58-4.37-5.77
			c-1.48-2.94-2.36-6.06-2.78-9.33c-0.02-0.15-0.04-0.3-0.07-0.45c-0.01-0.03-0.03-0.07-0.06-0.13c-0.09,0.01-0.23-0.01-0.3,0.04
			c-1.35,1.1-2.7,2.21-4.1,3.36c0.09,0.15,0.19,0.34,0.31,0.52c0.69,1,1.46,1.95,2.07,2.99c1.37,2.34,2.09,4.86,1.97,7.6
			c-0.07,1.58-0.41,3.08-1.15,4.48c-2.09,3.99-5.27,6.6-9.72,7.54c-1.69,0.35-3.4,0.33-5.06-0.23c-3.66-1.24-5.84-3.8-6.65-7.55
			c-0.58-2.69,0.13-5.11,1.66-7.32c1.01-1.46,2.33-2.6,3.85-3.48c1.21-0.71,2.46-1.35,3.69-2.02
			C167.96,159.8,168.31,159.59,168.8,159.31z M204.7,135.04c-1.25-0.98-2.61-1.78-4.1-2.37c-1.19-0.47-2.41-0.61-3.68-0.49
			c-0.93,0.09-1.76,0.42-2.52,0.96c-1.07,0.77-1.9,1.75-2.53,2.88c-0.51,0.93-0.98,1.88-1.38,2.86c-1.35,3.31-1.93,6.77-1.99,10.33
			c-0.05,2.93,0.35,5.82,0.96,8.69c0.43,2.04,0.97,4.05,1.71,6.01c0.53,1.39,1.23,2.69,2.19,3.83c0.36,0.43,0.74,0.86,1.31,1.1
			c0.57-0.37,0.9-0.93,1.19-1.49c0.66-1.28,1.32-2.56,1.91-3.88c2.2-4.88,4.01-9.9,5.91-14.9c0.18-0.47,0.2-0.95,0.22-1.45
			c0.13-2.65,0.25-5.3,0.42-7.95C204.39,137.81,204.56,136.46,204.7,135.04z M170.3,161.4c-1.51,0.93-3.19,1.73-4.68,2.84
			c-0.89,0.66-1.65,1.45-2.25,2.38c-1.06,1.65-1.38,3.43-0.85,5.33c0.64,2.29,2.09,3.81,4.37,4.52c0.92,0.28,1.79,0.19,2.64-0.23
			c0.62-0.31,1.15-0.73,1.6-1.25c1.42-1.67,2.25-3.6,2.27-5.8c0.03-2.93-1.12-5.44-2.9-7.71
			C170.48,161.44,170.43,161.44,170.3,161.4z M250.53,147.57c0.5-0.56,0.87-1.17,1.25-1.77c1.54-2.42,2.63-5.02,3-7.89
			c0.15-1.14,0.14-2.26-0.13-3.38c-0.28-1.18-0.84-2.18-1.8-2.94c-1.23-0.97-2.61-0.97-3.85,0c-0.58,0.45-1.02,1.01-1.39,1.64
			c-1.33,2.29-1.74,4.74-1.25,7.33c0.5,2.65,1.84,4.85,3.75,6.73C250.22,147.38,250.35,147.45,250.53,147.57z M228.87,148.41
			c0.1-0.26,0.2-0.46,0.26-0.67c0.55-2.09,1.04-4.19,1.34-6.33c0.3-2.14,0.43-4.29,0.08-6.45c-0.24-1.47-0.65-2.88-1.46-4.15
			c-0.33-0.52-0.73-0.96-1.26-1.29c-0.53-0.33-1.09-0.39-1.6-0.02c-0.46,0.32-0.91,0.69-1.28,1.11c-0.75,0.87-1.21,1.92-1.48,3.04
			c-0.58,2.38-0.47,4.74,0.32,7.05c0.97,2.84,2.58,5.29,4.68,7.43C228.57,148.23,228.71,148.3,228.87,148.41z M257.97,162.52
			c-0.19,0.61-0.16,1.14-0.21,1.65c-0.21,2.08-0.19,4.16,0.12,6.23c0.19,1.27,0.51,2.52,1.1,3.68c0.36,0.72,0.83,1.36,1.47,1.85
			c1.39,1.04,2.39,0.74,2.9-0.92c0.27-0.87,0.35-1.78,0.3-2.69c-0.13-2.02-0.85-3.83-1.93-5.51c-0.93-1.43-2.05-2.72-3.26-3.93
			C258.35,162.76,258.19,162.68,257.97,162.52z M237.19,166.08c-1.57,1.59-3.08,4.28-3.51,6.18c-0.08,0.37-0.15,0.74-0.17,1.12
			c-0.1,2.04,1.11,3.67,3.1,4.2c1.33,0.35,2.4-0.1,3.06-1.31c0.55-0.99,0.73-2.06,0.56-3.18
			C239.84,170.51,238.65,168.3,237.19,166.08z"/>
	</g>
	<g>
		<g>
			<path class="st12" d="M220.46,292.77c0.3-0.29,0.13-0.8-0.28-0.86l-5.53-0.8c-0.16-0.02-0.31-0.13-0.38-0.28l-2.47-5.01
				c-0.19-0.37-0.72-0.37-0.9,0l-2.47,5.01c-0.07,0.15-0.22,0.25-0.38,0.28l-5.53,0.8c-0.41,0.06-0.58,0.57-0.28,0.86l4,3.9
				c0.12,0.12,0.17,0.28,0.15,0.45l-0.95,5.51c-0.07,0.41,0.36,0.73,0.73,0.53l4.95-2.6c0.15-0.08,0.32-0.08,0.47,0l4.95,2.6
				c0.37,0.19,0.8-0.12,0.73-0.53l-0.95-5.51c-0.03-0.16,0.03-0.33,0.15-0.45L220.46,292.77z"/>
			<path class="st12" d="M296.06,215.75c0.3-0.29,0.13-0.8-0.28-0.86l-5.53-0.8c-0.16-0.02-0.31-0.13-0.38-0.28l-2.47-5.01
				c-0.19-0.37-0.72-0.37-0.9,0l-2.47,5.01c-0.07,0.15-0.22,0.25-0.38,0.28l-5.53,0.8c-0.41,0.06-0.58,0.57-0.28,0.86l4,3.9
				c0.12,0.12,0.17,0.28,0.15,0.45l-0.95,5.51c-0.07,0.41,0.36,0.73,0.73,0.53l4.95-2.6c0.15-0.08,0.32-0.08,0.47,0l4.95,2.6
				c0.37,0.19,0.8-0.12,0.73-0.53l-0.95-5.51c-0.03-0.16,0.03-0.33,0.15-0.45L296.06,215.75z"/>
			<path class="st12" d="M155.7,159.79c0.3-0.29,0.13-0.8-0.28-0.86l-5.53-0.8c-0.16-0.02-0.31-0.13-0.38-0.28l-2.47-5.01
				c-0.19-0.37-0.72-0.37-0.9,0l-2.47,5.01c-0.07,0.15-0.22,0.25-0.38,0.28l-5.53,0.8c-0.41,0.06-0.58,0.57-0.28,0.86l4,3.9
				c0.12,0.12,0.17,0.28,0.15,0.45l-0.95,5.51c-0.07,0.41,0.36,0.73,0.73,0.53l4.95-2.6c0.15-0.08,0.32-0.08,0.47,0l4.95,2.6
				c0.37,0.19,0.8-0.12,0.73-0.53l-0.95-5.51c-0.03-0.16,0.03-0.33,0.15-0.45L155.7,159.79z"/>
			<path class="st12" d="M227.12,72.03c0.3-0.29,0.13-0.8-0.28-0.86l-5.53-0.8c-0.16-0.02-0.31-0.13-0.38-0.28l-2.47-5.01
				c-0.19-0.37-0.72-0.37-0.9,0l-2.47,5.01c-0.07,0.15-0.22,0.25-0.38,0.28l-5.53,0.8c-0.41,0.06-0.58,0.57-0.28,0.86l4,3.9
				c0.12,0.12,0.17,0.28,0.15,0.45l-0.95,5.51c-0.07,0.41,0.36,0.73,0.73,0.53l4.95-2.6c0.15-0.08,0.32-0.08,0.47,0l4.95,2.6
				c0.37,0.19,0.8-0.12,0.73-0.53l-0.95-5.51c-0.03-0.16,0.03-0.33,0.15-0.45L227.12,72.03z"/>
			<path class="st12" d="M200.88,356.75c0.3-0.29,0.13-0.8-0.28-0.86l-5.53-0.8c-0.16-0.02-0.31-0.13-0.38-0.28l-2.47-5.01
				c-0.19-0.37-0.72-0.37-0.9,0l-2.47,5.01c-0.07,0.15-0.22,0.25-0.38,0.28l-5.53,0.8c-0.41,0.06-0.58,0.57-0.28,0.86l4,3.9
				c0.12,0.12,0.17,0.28,0.15,0.45l-0.95,5.51c-0.07,0.41,0.36,0.73,0.73,0.53l4.95-2.6c0.15-0.08,0.32-0.08,0.47,0l4.95,2.6
				c0.37,0.19,0.8-0.12,0.73-0.53l-0.95-5.51c-0.03-0.16,0.03-0.33,0.15-0.45L200.88,356.75z"/>
		</g>
		<g>
			<path class="st0" d="M222.73,326.49c-0.04-0.46-0.09-0.89-0.12-1.32c-0.14-2.14-0.18-4.29-0.69-6.39
				c-0.18-0.77-0.39-1.53-0.62-2.28c-0.33-1.05-0.04-1.89,0.8-2.57c4.23-3.4,7.7-7.52,11.19-11.63c1.62-1.9,3.25-3.8,4.89-5.67
				c1.19-1.35,2.47-2.61,3.88-3.74c1.27-1.02,2.64-1.89,4.18-2.44c0.57-0.2,1.17-0.36,1.77-0.48c1.07-0.21,2.09,0,3.06,0.49
				c1.03,0.52,1.91,1.24,2.74,2.02c1.38,1.3,2.57,2.76,3.58,4.36c1.18,1.85,2.3,3.73,3.43,5.6c1.31,2.17,2.62,4.36,3.91,6.54
				c0.54,0.9,1.07,1.81,1.55,2.75c0.25,0.5,0.42,1.06,0.55,1.6c0.11,0.44-0.17,0.78-0.61,0.84c-0.3,0.04-0.61,0.04-0.92,0.03
				c-2.04-0.08-4,0.32-5.93,0.98c-1.66,0.57-3.26,1.28-4.83,2.05c-3.23,1.57-6.46,3.13-9.83,4.39c-4.73,1.77-9.59,3.03-14.57,3.88
				c-1.81,0.31-3.62,0.66-5.43,0.99c-0.39,0.07-0.78,0.17-1.17,0.19C223.3,326.68,223.05,326.57,222.73,326.49z"/>
			<path class="st0" d="M161.96,314.2c-0.25,0-0.65,0.02-1.04,0c-0.69-0.04-0.93-0.33-0.8-1.04c0.08-0.42,0.21-0.85,0.4-1.24
				c0.37-0.75,0.77-1.48,1.19-2.19c1.81-3.05,3.61-6.1,5.46-9.13c1.05-1.72,2.14-3.41,3.27-5.08c0.92-1.34,2.02-2.53,3.26-3.59
				c0.3-0.26,0.61-0.5,0.93-0.74c1.83-1.39,3.81-1.64,5.94-0.79c1.39,0.55,2.68,1.28,3.87,2.19c1.43,1.09,2.74,2.33,3.93,3.68
				c2,2.27,3.96,4.56,5.93,6.86c2.08,2.43,4.14,4.88,6.43,7.12c1.19,1.16,2.39,2.33,3.7,3.35c1.23,0.96,1.52,2.04,1.03,3.46
				c-0.88,2.56-1.05,5.22-1.15,7.9c-0.01,0.35,0,0.7-0.05,1.05c-0.06,0.45-0.37,0.7-0.81,0.68c-0.26-0.01-0.52-0.07-0.78-0.12
				c-2.8-0.51-5.6-0.99-8.39-1.54c-5.64-1.11-11.12-2.78-16.35-5.18c-2.03-0.93-4.04-1.89-6.05-2.86c-1.7-0.81-3.42-1.56-5.23-2.09
				C165.15,314.45,163.65,314.17,161.96,314.2z"/>
			<path class="st0" d="M162.7,366.74c-0.5-0.15-0.59-0.56-0.68-0.93c-0.19-0.85-0.37-1.71-0.49-2.58c-0.31-2.3-0.58-4.6-0.88-6.9
				c-0.07-0.56-0.16-1.13-0.24-1.69c-0.16-1.08-0.73-1.86-1.71-2.33c-0.63-0.3-1.29-0.53-1.93-0.81c-0.84-0.37-1.68-0.73-2.51-1.13
				c-0.31-0.15-0.59-0.37-0.87-0.58c-0.39-0.29-0.54-0.71-0.38-1.16c0.17-0.49,0.35-1.01,0.65-1.42c0.89-1.25,1.79-2.49,2.77-3.66
				c1.87-2.22,4.08-4.09,6.38-5.85c2.85-2.19,5.83-4.19,9.04-5.82c1.18-0.6,2.41-1.05,3.73-1.2c0.56-0.06,1.13-0.09,1.7-0.05
				c2.53,0.15,5.06,0.35,7.6,0.5c2.63,0.16,5.25-0.01,7.87-0.2c3.4-0.24,6.8-0.56,10.2-0.87c0.93-0.08,1.71,0.08,2.36,0.83
				c0.67,0.77,1.52,1.31,2.52,1.59c0.17,0.05,0.34,0.1,0.49,0.18c0.47,0.24,0.69,0.72,0.46,1.21c-0.2,0.43-0.49,0.83-0.8,1.19
				c-0.87,0.99-1.86,1.87-2.97,2.57c-1.33,0.84-2.67,1.68-4.08,2.38c-2.43,1.19-4.92,2.29-7.4,3.38c-3.6,1.59-7.18,3.24-10.61,5.18
				c-6.2,3.51-11.63,7.93-16.09,13.52c-1.01,1.27-2.04,2.51-3.07,3.76C163.45,366.22,163.18,366.63,162.7,366.74z"/>
			<path class="st0" d="M264.32,366.77c-0.66-0.2-0.93-0.61-1.23-0.98c-1.11-1.35-2.22-2.71-3.33-4.07
				c-2.61-3.21-5.58-6.03-8.85-8.57c-3.79-2.95-7.94-5.28-12.25-7.34c-2.37-1.13-4.79-2.15-7.18-3.24c-2.11-0.96-4.22-1.92-6.3-2.95
				c-2.12-1.06-4.1-2.36-5.78-4.06c-0.43-0.43-0.83-0.91-1.16-1.42c-0.46-0.71-0.27-1.28,0.53-1.54c1.2-0.39,2.23-1.01,3.07-1.94
				c0.49-0.54,1.1-0.67,1.79-0.62c1.27,0.1,2.53,0.17,3.8,0.29c3.92,0.39,7.85,0.79,11.79,0.81c2.45,0.01,4.9-0.18,7.34-0.31
				c1.18-0.06,2.36-0.23,3.54-0.26c1.7-0.04,3.28,0.46,4.79,1.21c3.19,1.59,6.13,3.56,8.96,5.71c2.76,2.1,5.37,4.37,7.53,7.1
				c0.68,0.86,1.31,1.76,1.91,2.66c0.26,0.39,0.45,0.85,0.62,1.3c0.17,0.45,0.05,0.89-0.35,1.17c-0.54,0.37-1.09,0.74-1.68,1.02
				c-0.79,0.38-1.62,0.66-2.43,0.99c-0.44,0.18-0.89,0.36-1.32,0.58c-0.87,0.45-1.45,1.13-1.6,2.11c-0.16,1.04-0.29,2.08-0.43,3.12
				c-0.34,2.47-0.68,4.94-1.04,7.41c-0.06,0.43-0.19,0.86-0.33,1.27C264.65,366.43,264.47,366.58,264.32,366.77z"/>
			<path class="st0" d="M186.78,329.64c-5.34-0.13-11.17-0.67-16.86-2.28c-2.28-0.64-4.51-1.43-6.57-2.61
				c-0.87-0.5-1.73-1.04-2.51-1.67c-1.15-0.92-1.98-2.09-2.39-3.53c-0.17-0.61-0.17-1.2,0.05-1.8c0.28-0.78,0.82-1.22,1.62-1.35
				c1.09-0.18,2.18-0.15,3.27,0.01c2,0.29,3.94,0.85,5.79,1.66c2.17,0.94,4.32,1.91,6.47,2.89c5.71,2.63,11.66,4.52,17.82,5.73
				c1.76,0.35,3.54,0.61,5.3,0.93c0.38,0.07,0.76,0.2,1.12,0.33c0.09,0.03,0.18,0.21,0.17,0.32c0,0.11-0.1,0.28-0.2,0.31
				c-0.33,0.11-0.67,0.21-1.01,0.24C195.02,329.19,191.18,329.61,186.78,329.64z"/>
			<path class="st0" d="M239.58,329.64c-3.17-0.06-6.23-0.28-9.28-0.6c-0.91-0.1-1.83-0.18-2.74-0.29c-0.3-0.04-0.63-0.07-0.74-0.43
				c-0.07-0.23,0.23-0.5,0.74-0.6c1.16-0.22,2.33-0.42,3.49-0.61c6.6-1.08,12.96-2.93,19.07-5.66c2.16-0.96,4.31-1.95,6.46-2.91
				c2.2-0.99,4.47-1.8,6.88-2.11c0.95-0.12,1.93-0.15,2.88-0.08c1.62,0.12,2.4,1.16,2.18,2.78c-0.15,1.07-0.66,1.98-1.33,2.81
				c-0.83,1.04-1.89,1.82-3.03,2.48c-1.71,0.99-3.52,1.77-5.39,2.39c-3.17,1.04-6.42,1.7-9.73,2.14
				C245.85,329.37,242.67,329.59,239.58,329.64z"/>
			<path class="st0" d="M219.64,327.48c-0.02,0.3,0.02,0.88-0.1,1.43c-0.1,0.5-0.3,1.01-0.57,1.44c-0.41,0.64-1.02,0.94-1.81,0.73
				c-0.3-0.08-0.6-0.12-0.89-0.23c-1.84-0.71-3.67-0.68-5.52-0.06c-0.37,0.12-0.76,0.21-1.15,0.24c-1,0.08-1.55-0.25-1.98-1.16
				c-0.38-0.81-0.46-1.69-0.39-2.57c0.08-1,0.21-2,0.3-3c0.15-1.61,0.28-3.22,0.44-4.83c0.06-0.65,0.12-1.31,0.26-1.95
				c0.21-0.96,0.6-1.24,1.55-1.24c0.48,0,0.97,0.03,1.44,0.11c1.48,0.24,2.96,0.23,4.44,0c0.56-0.09,1.13-0.09,1.7-0.1
				c0.54-0.01,0.92,0.27,1.12,0.76c0.13,0.32,0.22,0.67,0.27,1.01c0.09,0.61,0.14,1.22,0.2,1.83c0.19,1.96,0.37,3.92,0.55,5.88
				C219.55,326.24,219.58,326.72,219.64,327.48z"/>
		</g>
	</g>
</g>
</svg>
