<?xml version="1.0" encoding="utf-8"?>
<!-- Generator: Adobe Illustrator 25.2.1, SVG Export Plug-In . SVG Version: 6.00 Build 0)  -->
<svg version="1.1" id="Calque_1" xmlns="http://www.w3.org/2000/svg" xmlns:xlink="http://www.w3.org/1999/xlink" x="0px" y="0px"
	 viewBox="0 0 432 432" style="enable-background:new 0 0 432 432;" xml:space="preserve">
<style type="text/css">
	.st0{fill:#F9D53D;}
	.st1{fill:#D3B844;}
	.st2{fill:#E0AAAF;}
	.st3{fill:#BA9196;}
	.st4{fill:#EAB978;}
	.st5{fill:#FBB03B;}
	.st6{fill:#A1C3CE;}
	.st7{fill:#8CC63F;}
	.st8{fill:#C7B299;}
	.st9{fill:#CCCCCC;}
	.st10{fill:#C44750;}
	.st11{fill:#998675;}
	.st12{fill:#29ABE2;}
	.st13{fill:#C79C52;}
	.st14{fill:#766FBF;}
	.st15{fill:#E8A3AB;}
</style>
<g>
	<g>
		<path class="st5" d="M88.19,196.58c-0.64-0.18-2.43-0.31-2.65-0.27c-1.14,0.14-1.61,0.67-1.68,1.81
			c-0.07,1.07,0.21,2.06,0.67,3.01c0.17,0.35,0.46,0.63,0.84,0.69c1.24,0.22,2.45,0.12,3.51-0.61c0.87-0.6,1.2-1.51,1.08-2.54
			C89.83,197.61,89.21,196.89,88.19,196.58z"/>
		<path class="st5" d="M86.44,184.79c0.48-0.93,0.13-1.96-0.85-2.36c-0.47-0.2-3.28-0.9-3.28,1.15c-0.01,0.63,0.1,1.28,0.25,1.91
			c0.13,0.56,0.69,0.95,1.24,0.9C84.91,186.28,85.88,185.84,86.44,184.79z"/>
		<path class="st5" d="M372.66,170.01c-2.05-1-4.25-1.69-6.47-2.18l-41.43-8.98v-35.18c0.07-0.05,0.14-0.1,0.21-0.15
			c2.25-1.63,3.72-4.3,3.72-7.28c0-4.96-4.02-8.98-8.99-8.98H62.98c-4.96,0-8.98,4.02-8.98,8.98c0,2.86,1.33,5.39,3.41,7.05v90.79
			c0,4.97,4.02,8.99,8.98,8.99h47.99c1.08,12.26,11.38,21.9,23.94,21.9c12.55,0,22.85-9.64,23.93-21.9h149.23
			c1.08,12.26,11.38,21.9,23.93,21.9c12.65,0,23.02-9.79,23.95-22.19h9.66c4.96,0,8.98-4.02,8.98-8.99v-36.35
			C378,173.57,376.32,171.79,372.66,170.01z M295.19,123.52h25.26v35.33h-25.26V123.52z M250.14,123.52h36.84v36.85h-36.84V123.52z
			 M160.25,123.52h36.85v36.85h-36.85V123.52z M69.97,123.52h36.85v36.85H69.97V123.52z M102.07,202.32
			c-1.15,2.53-2.95,4.48-5.4,5.81c-1.88,1.02-3.9,1.59-5.99,2c-2.53,0.48-5.08,0.77-7.66,0.84c-1.61-0.14-3.22-0.25-4.83-0.46
			c-1.83-0.23-3.16-1.25-4.03-2.87c-0.8-1.49-1.27-3.09-1.62-4.72c-0.7-3.26-1.1-6.58-1.4-9.9c-0.38-4.2-0.4-8.4-0.23-12.62
			c0.05-1.4,0.16-2.78,0.26-4.18c0.09-1.24,0.73-2.05,1.93-2.35c0.89-0.22,1.8-0.44,2.7-0.53c4.93-0.52,9.81-0.26,14.62,1.02
			c1.34,0.35,2.64,0.87,3.84,1.61c1.33,0.81,2.43,1.84,3.17,3.2c1.08,1.97,1.16,4.02,0.3,6.05c-0.38,0.9-0.94,1.75-1.49,2.57
			c-0.44,0.67-0.98,1.27-1.46,1.89c-0.16,0.22-0.3,0.46-0.4,0.72c-0.16,0.39-0.07,0.68,0.33,0.87c0.43,0.22,0.91,0.38,1.37,0.55
			c0.85,0.31,1.71,0.56,2.52,0.94C102.73,194.63,103.56,199.06,102.07,202.32z M135.14,198.83c-0.46,2.04-1.14,4.01-2.24,5.79
			c-2.28,3.69-5.57,5.82-9.89,6.29c-3.58,0.39-6.99-0.2-10.27-1.68c-3.24-1.46-5.4-3.9-6.63-7.2c-0.82-2.18-1.34-4.44-1.53-6.75
			c-0.2-2.52-0.31-5.05-0.34-7.57c-0.03-3.34,0.42-6.64,0.95-9.93c0.39-2.41,1.81-3.89,4.19-4.35c3.18-0.6,6.37-0.63,9.54,0.04
			c0.35,0.08,0.7,0.2,1.04,0.34c0.94,0.39,1.57,1.08,1.89,2.06c0.44,1.34,0.47,2.71,0.26,4.08c-0.39,2.57-0.87,5.13-1.25,7.7
			c-0.4,2.71-0.6,5.44-0.08,8.17c0.14,0.73,0.39,1.46,0.73,2.11c0.52,1,1.34,1.24,2.38,0.76c1.17-0.55,1.91-1.51,2.36-2.69
			c0.56-1.44,0.61-2.95,0.54-4.46c-0.13-2.79-0.72-5.52-1.24-8.25c-0.37-1.96-0.6-3.91-0.25-5.9c0.35-2.02,1.24-2.95,3.25-3.38
			c0.95-0.2,1.91-0.26,2.87-0.12c1.51,0.22,2.6,1,3.26,2.36c0.53,1.1,0.77,2.27,0.94,3.46c0.42,2.78,0.51,5.59,0.52,9
			C136.17,191.74,135.95,195.31,135.14,198.83z M115.12,160.37v-36.85h36.84v36.85H115.12z M167.14,204.89
			c-1.38,2.88-3.6,4.84-6.67,5.7c-3.97,1.11-7.87,0.89-11.63-0.89c-3.54-1.67-6.05-4.38-7.82-7.8c-1.68-3.25-2.47-6.73-2.54-11.07
			c0.22-7.01,4.01-12.33,10.86-15.52c3.52-1.63,7.28-2.49,11.18-2.56c0.91-0.01,1.85,0.09,2.77,0.23c1.33,0.2,2.22,1,2.74,2.23
			c0.56,1.32,0.85,2.73,1.06,4.15c0.16,1.1,0.29,2.19,0.39,3.3c0.17,1.61-0.01,3.16-0.7,4.63c-0.84,1.76-2.18,2.75-4.19,2.62
			c-1.32-0.09-2.65-0.26-3.97-0.39c-1.36-0.14-2.71-0.22-4.06,0.08c-2.69,0.57-4.53,2.53-4.76,5.25c-0.3,3.28,2.35,6.19,5.98,5.36
			c1.29-0.29,2.35-0.99,3.29-1.89c0.47-0.46,0.91-0.94,1.4-1.37c1.46-1.32,2.95-1.42,4.5-0.22c1.83,1.4,2.95,3.22,2.87,5.61
			C167.8,203.26,167.53,204.09,167.14,204.89z M203.12,180.54c-0.3,1.44-0.99,2.69-1.85,3.84c-1,1.33-2.06,2.61-3.11,3.9
			c-1.14,1.41-2.28,2.81-3.43,4.21c-0.91,1.12-1.03,2.32-0.54,3.67c0.61,1.64,1.44,3.16,2.27,4.68c0.78,1.44,1.5,2.9,1.94,4.48
			c0.14,0.54,0.27,1.07,0.34,1.62c0.13,1.04-0.2,1.94-1.03,2.61c-1.58,1.25-3.37,1.79-5.38,1.58c-0.84-0.09-1.53-0.47-2.1-1.1
			c-1.2-1.34-2.11-2.87-2.87-4.49c-0.22-0.48-0.46-0.95-0.73-1.41c-0.13-0.23-0.31-0.46-0.51-0.64c-0.64-0.55-1.38-0.31-1.54,0.51
			c-0.07,0.34-0.07,0.7-0.08,1.04c-0.05,1.06-0.13,2.11-0.55,3.11c-0.04,0.12-0.09,0.23-0.14,0.35c-0.55,1.34-1.51,2.15-3,2.28
			c-1.4,0.13-2.78,0-4.1-0.48c-1.2-0.44-2.05-1.25-2.6-2.4c-0.72-1.5-1.17-3.09-1.53-4.72c-0.72-3.31-1.15-6.67-1.38-10.05
			c-0.2-2.69-0.33-5.36-0.5-8.05c-0.04-2.69,0.05-5.38,0.5-8.03c0.09-0.55,0.25-1.08,0.47-1.58c0.63-1.4,1.74-2.22,3.25-2.41
			c2.49-0.34,4.99-0.26,7.45,0.27c0.09,0.03,0.2,0.05,0.29,0.09c2.06,0.68,2.3,1.4,2.3,3.04c0,1-0.14,2.01-0.2,3
			c-0.04,0.81-0.08,1.61-0.07,2.41c0.01,0.5,0.1,1.04,0.69,1.23c0.57,0.17,0.95-0.23,1.24-0.65c0.68-1,1.33-2.02,1.96-3.05
			c0.93-1.5,2-2.9,3.24-4.16c0.64-0.65,1.38-1.17,2.27-1.44c1.08-0.31,2.17-0.21,3.18,0.25c1.72,0.74,3.28,1.76,4.72,2.96
			C203.14,177.98,203.39,179.17,203.12,180.54z M204.99,123.52h36.85v36.85h-36.85V123.52z M229.24,204.46
			c-0.37,1.62-1.28,2.81-2.73,3.61c-1.62,0.9-3.35,1.46-5.14,1.89c-2.79,0.68-5.62,1.12-8.52,0.99c-1.04-0.04-2.07-0.23-3.05-0.61
			c-1.54-0.59-2.61-1.64-3.17-3.21c-0.43-1.2-0.64-2.45-0.8-3.69c-0.56-4.29-0.64-8.6-0.69-14.22c0.09-2.07,0.2-5.47,0.4-8.86
			c0.09-1.42,0.39-2.84,0.6-4.27c0.03-0.17,0.09-0.33,0.13-0.5c0.35-1.5,1.31-2.34,2.84-2.52c0.09-0.01,0.2-0.03,0.29-0.03
			c2.61-0.04,5.21,0.07,7.79,0.42c0.21,0.03,0.43,0.09,0.64,0.14c1.89,0.55,2.9,1.92,2.74,3.89c-0.09,1.12-0.31,2.26-0.56,3.37
			c-0.55,2.53-1.12,5.08-1.33,7.67c-0.23,2.79-0.26,5.6,0.37,8.35c0.12,0.52,0.35,1.03,0.59,1.51c0.31,0.61,0.84,0.99,1.54,1.03
			c0.61,0.03,1.24,0.03,1.85-0.01c1.08-0.07,2.17-0.17,3.25-0.26c0.27-0.03,0.55-0.03,0.82,0c1.04,0.09,1.75,0.63,2.07,1.63
			C229.59,202,229.5,203.22,229.24,204.46z M261.38,205.76c-0.43,1.67-1.41,2.86-3.03,3.54c-1.38,0.57-2.82,0.86-4.27,1.02
			c-2.15,0.22-4.32,0.44-6.47,0.52c-2.77,0.1-5.52-0.07-8.23-0.65c-0.48-0.1-0.95-0.29-1.42-0.44c-1.28-0.47-2.21-1.32-2.84-2.51
			c-0.76-1.37-1.24-2.82-1.59-4.33c-0.74-3.17-1.25-6.39-1.54-9.64c-0.21-2.43-0.35-4.87-0.54-7.41c0.07-1.66,0.12-3.42,0.22-5.18
			c0.04-0.61,0.18-1.23,0.35-1.83c0.56-2,1.81-3.39,3.72-4.2c1.96-0.82,4.01-1.19,6.09-1.34c4.02-0.33,8.01-0.07,11.98,0.6
			c1.24,0.21,2.48,0.48,3.64,1.02c1.74,0.8,2.7,2.15,2.92,4.03c0.22,1.83,0.33,3.67-0.03,5.49c-0.1,0.59-0.3,1.16-0.53,1.7
			c-0.35,0.84-1.02,1.38-1.92,1.47c-1.02,0.1-2.04,0.16-3.05,0.09c-1.74-0.09-3.47-0.31-5.21-0.44c-0.77-0.05-1.54-0.09-2.31-0.03
			c-1.02,0.09-1.53,0.82-1.36,1.83c0.1,0.63,0.42,0.94,1.06,0.95c0.61,0.01,1.24-0.04,1.85-0.08c0.74-0.04,1.49-0.09,2.23-0.1
			c0.74-0.01,1.21,0.42,1.44,1.1c0.39,1.12,0.48,2.28,0.31,3.46c-0.14,1-0.64,1.54-1.64,1.63c-1.07,0.1-2.14,0.08-3.21,0.13
			c-0.29,0-0.6,0.01-0.87,0.09c-0.42,0.12-0.55,0.37-0.51,0.8c0.05,0.67,0.56,1.17,1.31,1.17c0.72,0,1.44-0.12,2.15-0.18
			c1.96-0.17,3.91-0.37,5.87-0.5c0.72-0.05,1.45,0.01,2.17,0.09c1.91,0.22,3.12,1.37,3.46,3.25
			C261.87,202.51,261.8,204.15,261.38,205.76z M306.63,198.83c-0.47,2.04-1.15,4.01-2.26,5.79c-2.28,3.69-5.56,5.82-9.89,6.29
			c-3.58,0.39-6.99-0.2-10.27-1.68c-3.24-1.46-5.39-3.9-6.63-7.2c-0.81-2.18-1.34-4.44-1.53-6.75c-0.2-2.52-0.3-5.05-0.33-7.57
			c-0.04-3.34,0.42-6.64,0.95-9.93c0.39-2.41,1.8-3.89,4.19-4.35c3.17-0.6,6.36-0.63,9.54,0.04c0.35,0.08,0.69,0.2,1.03,0.34
			c0.94,0.39,1.57,1.08,1.89,2.06c0.44,1.34,0.47,2.71,0.26,4.08c-0.39,2.57-0.87,5.13-1.25,7.7c-0.39,2.71-0.59,5.44-0.07,8.17
			c0.13,0.73,0.38,1.46,0.72,2.11c0.53,1,1.36,1.24,2.39,0.76c1.17-0.55,1.89-1.51,2.35-2.69c0.56-1.44,0.63-2.95,0.55-4.46
			c-0.14-2.79-0.72-5.52-1.24-8.25c-0.38-1.96-0.6-3.91-0.26-5.9c0.35-2.02,1.24-2.95,3.26-3.38c0.94-0.2,1.89-0.26,2.87-0.12
			c1.51,0.22,2.58,1,3.26,2.36c0.54,1.1,0.76,2.27,0.94,3.46c0.4,2.78,0.51,5.59,0.51,9C307.66,191.74,307.42,195.31,306.63,198.83z
			 M340.93,194.63c-1.61,2.45-3.81,4.05-6.62,4.83c-1.84,0.52-3.75,0.72-5.65,0.93c-0.9,0.09-1.8,0.18-2.69,0.35
			c-1.19,0.23-1.57,0.69-1.63,1.92c-0.08,1.5-0.1,3.01-0.2,4.52c-0.03,0.48-0.13,0.95-0.23,1.41c-0.17,0.69-0.67,1.27-1.33,1.5
			c-2.19,0.8-4.44,0.95-6.71,0.37c-1.03-0.27-1.79-0.95-2.22-1.92c-0.38-0.84-0.69-1.72-0.95-2.61c-0.56-2.01-0.8-4.1-1.04-6.17
			c-0.65-5.55-1.02-11.12-1.07-16.7c-0.01-1.3,0.12-2.61,0.26-3.91c0.25-2.18,1.47-3.69,3.42-4.65c1.44-0.7,2.99-0.94,4.55-1.1
			c0.8-0.08,2.1-0.16,2.91-0.16c1.17-0.01,2.36,0.01,3.54,0.01c2.52,0.17,5.02,0.39,7.48,1.02c3.64,0.94,6.46,3.05,8.64,6.08
			c1.16,1.62,1.68,3.48,1.77,5.45C343.33,188.97,342.71,191.94,340.93,194.63z M351.72,211.43c-2.38-0.02-4.32-1.98-4.31-4.38
			c0.01-2.43,1.96-4.39,4.39-4.38c2.4,0,4.3,1.94,4.3,4.37C356.09,209.48,354.13,211.45,351.72,211.43z M357.27,196.97
			c-0.07,1.24-0.73,2.04-1.85,2.51c-0.85,0.35-1.74,0.51-2.65,0.51c-0.87,0-1.75-0.08-2.62-0.2c-0.86-0.13-1.51-0.63-2.09-1.28
			c-1.02-1.16-1.46-2.58-1.67-4.07c-0.23-1.59-0.44-3.2-0.55-4.8c-0.26-3.72-0.51-7.43-0.34-11.14c0.07-1.23,0.2-2.44,0.43-3.64
			c0.31-1.63,0.76-2.31,2.91-2.66c1.19-0.21,2.4-0.17,3.58,0.09c1.74,0.4,3,1.36,3.43,3.13c0.29,1.16,0.52,2.35,0.61,3.54
			c0.23,3.25,0.73,14.34,0.84,16.64C357.31,196.04,357.28,196.51,357.27,196.97z"/>
		<path class="st5" d="M326.66,183.4c-0.25,0.03-0.63,0.01-1,0.08c-1.2,0.17-1.92,0.89-2.14,2.09c-0.2,1.08-0.09,2.15,0.13,3.21
			c0.16,0.72,0.53,1.07,1.25,1.1c1.36,0.04,2.67-0.2,3.84-0.91c1.5-0.93,1.88-2.94,0.73-4.28
			C328.76,183.85,327.84,183.49,326.66,183.4z"/>
	</g>
	<g>
		<path d="M242.09,261.55c-0.52,0.51-0.73,1.14-0.97,1.75c-0.61,1.53-0.98,3.13-1.31,4.73c-0.69,3.35-1.03,6.74-1.09,10.16
			c-0.12,5.78,0.32,11.51,1.35,17.19c0.44,2.44,0.99,4.86,1.9,7.18c0.4,1.03,0.83,2.05,1.69,2.91c0.22-0.16,0.46-0.27,0.62-0.46
			c0.31-0.37,0.6-0.77,0.87-1.18c1.57-2.42,2.92-4.96,4.22-7.53c0.25-0.49,0.33-0.99,0.31-1.54c-0.06-1.86-0.02-3.72,0.23-5.57
			c0.19-1.36,0.41-2.72,1.04-3.96c0.71-1.42,1.76-2.42,3.32-2.86c0.79-0.22,1.58-0.24,2.37-0.08c1.2,0.25,2.09,0.94,2.58,2.09
			c0.35,0.82,0.53,1.69,0.56,2.58c0.06,1.86,0.16,3.72,0.13,5.58c-0.06,4.83,0.72,9.53,1.99,14.16c0.52,1.9,1.3,3.67,2.52,5.23
			c0.38,0.48,0.73,1,1.35,1.27c0.67-0.57,1.05-1.32,1.44-2.06c0.9-1.74,1.56-3.57,2.11-5.44c1-3.36,1.69-6.78,2.18-10.25
			c0.59-4.17,0.87-8.37,0.96-12.58c0.01-0.44-0.01-0.87-0.02-1.37c-0.25,0-0.42-0.03-0.58,0.01c-2.64,0.67-5.21,0.34-7.66-0.74
			c-6.52-2.89-10.14-7.91-10.88-15.01c-0.26-2.5-0.07-4.95,0.58-7.37c0.54-2,1.53-3.77,2.97-5.27c2.22-2.31,4.88-2.91,7.9-1.97
			c1.51,0.47,2.79,1.33,3.94,2.4c1.2,1.13,2.18,2.44,3.04,3.85c1.67,2.75,2.8,5.72,3.68,8.8c0.72,2.51,1.26,5.07,1.63,7.66
			c0.02,0.13,0.06,0.26,0.11,0.45c0.17-0.03,0.36-0.02,0.48-0.11c1.76-1.28,3.43-2.66,4.8-4.37c0.42-0.53,0.71-1.09,0.86-1.77
			c0.24-1.03,0.55-2.05,0.88-3.06c0.18-0.54,0.45-1.06,0.73-1.56c0.87-1.51,2.8-1.92,4.32-1.29c0.64,0.27,1.11,0.72,1.37,1.38
			c0.13,0.33,0.23,0.67,0.37,1.09c0.2-0.24,0.37-0.43,0.51-0.63c0.26-0.36,0.49-0.74,0.75-1.1c2.76-3.69,8.3-3.35,10.84-0.03
			c0.4,0.52,0.72,1.12,1.06,1.68c0.15,0.25,0.29,0.52,0.42,0.76c0.36-0.08,0.34-0.33,0.42-0.53c0.62-1.66,1.18-3.34,1.87-4.97
			c0.41-0.97,0.96-1.9,1.56-2.77c2.99-4.24,8.8-3.46,11.27,0.26c0.98,1.48,1.43,3.13,1.75,4.83c0.34,1.84,0.46,3.7,0.43,5.56
			c-0.05,4.56-0.18,9.12-0.32,13.69c-0.09,3.14-0.23,6.29-0.37,9.43c-0.09,2.04-0.19,4.07-0.37,6.1c-0.37,4.33-0.46,8.67-0.18,13.01
			c0.12,1.86,0.43,3.69,0.89,5.5c0.08,0.33,0.22,0.64,0.38,1.08c0.41-0.38,0.45-0.79,0.53-1.14c0.57-2.41,1.15-4.82,1.64-7.25
			c0.71-3.47,1.14-6.99,1.51-10.52c0.05-0.43,0.01-0.89-0.08-1.31c-1.15-5.28-1.42-10.62-1.13-15.99c0.13-2.48,0.53-4.93,1.34-7.3
			c0.9-2.65,2.33-4.97,4.45-6.82c1.58-1.38,3.41-2.24,5.53-2.29c3.23-0.08,5.87,1.17,7.84,3.72c1.41,1.83,2.19,3.93,2.39,6.24
			c0.15,1.78-0.01,3.53-0.51,5.26c-0.72,2.5-1.84,4.79-3.44,6.84c-1.68,2.16-3.76,3.74-6.49,4.34c-0.13,0.03-0.24,0.11-0.41,0.19
			c-0.02,0.14-0.08,0.31-0.06,0.47c0.43,3.38,0.92,6.76,1.87,10.05c0.53,1.83,1.19,3.62,2.08,5.31c0.37,0.7,0.81,1.38,1.28,2.01
			c0.36,0.49,0.8,0.95,1.48,1.18c0.54-0.41,0.81-1.02,1.07-1.61c0.76-1.7,1.41-3.45,1.77-5.28c0.58-2.91,1.07-5.84,1.59-8.76
			c0.15-0.83,0.25-1.67,0.42-2.49c0.3-1.44,1.57-1.88,2.58-1.75c0.72,0.09,1.1,0.48,1.18,1.21c0.02,0.18,0.02,0.35,0.01,0.53
			c-0.35,4.69-0.83,9.35-2.09,13.9c-0.3,1.11-0.64,2.22-1.07,3.28c-0.34,0.86-0.77,1.7-1.3,2.46c-2.53,3.6-6.75,3.94-9.8,2.43
			c-1.49-0.74-2.72-1.81-3.83-3.04c-1.19-1.33-2.12-2.83-2.98-4.39c-0.21-0.38-0.43-0.75-0.63-1.09c-0.36,0.03-0.28,0.26-0.3,0.41
			c-0.55,3.81-1.19,7.61-2.14,11.35c-0.23,0.9-0.5,1.79-0.83,2.66c-0.4,1.07-1.12,1.91-2.14,2.44c-1.6,0.83-3.18,0.79-4.61-0.34
			c-0.62-0.48-1.16-1.09-1.64-1.72c-1.35-1.78-2.25-3.81-2.99-5.9c-0.99-2.81-1.66-5.7-2.08-8.64c-0.48-3.38-0.89-6.77-0.9-10.19
			c-0.01-2.13,0.03-4.25,0.08-6.38c0.09-3.68,0.24-7.35,0.32-11.03c0.08-3.28,0.13-6.56,0.15-9.83c0.01-1.37-0.12-2.74-0.19-4.11
			c-0.01-0.11-0.08-0.22-0.14-0.37c-0.39,0.2-0.46,0.57-0.59,0.87c-0.98,2.19-1.68,4.47-2.24,6.8c-0.98,4.1-1.57,8.26-1.91,12.46
			c-0.32,4.02-0.42,8.05-0.51,12.08c-0.03,1.15-0.17,2.3-0.22,3.45c-0.09,1.99-2.43,3.17-4.28,2.57c-0.57-0.18-1.01-0.57-1.26-1.12
			c-0.24-0.52-0.44-1.06-0.61-1.61c-0.73-2.38-1.21-4.81-1.57-7.26c-0.45-3.11-0.88-6.23-1.25-9.35c-0.26-2.2-0.4-4.41-0.63-6.61
			c-0.17-1.67-0.39-3.34-0.6-5.01c-0.03-0.25-0.15-0.49-0.25-0.79c-0.45,0.38-0.56,0.88-0.73,1.32c-0.73,1.86-1.23,3.79-1.61,5.75
			c-0.89,4.63-1.23,9.31-1.3,14.01c-0.06,4.21-0.03,8.42-0.06,12.63c0,0.62-0.07,1.24-0.16,1.85c-0.29,1.88-2.8,2.81-4.17,2.28
			c-0.56-0.22-1.02-0.54-1.29-1.09c-0.23-0.48-0.44-0.97-0.62-1.47c-1.19-3.49-2.02-7.06-2.53-10.71
			c-0.86-6.16-1.06-12.35-0.65-18.56c0.01-0.12-0.05-0.24-0.07-0.35c-0.07-0.03-0.11-0.05-0.16-0.05c-0.04,0-0.09,0.02-0.12,0.04
			c-1.41,1.07-2.81,2.15-4.25,3.24c0,0.25-0.02,0.51,0,0.77c0.34,4.34,0.25,8.68-0.1,13.01c-0.46,5.62-1.33,11.17-3.14,16.53
			c-0.61,1.81-1.36,3.56-2.35,5.2c-1.05,1.74-2.4,3.19-4.25,4.09c-2.64,1.29-5.28,1.31-7.91-0.06c-1.07-0.56-2.01-1.3-2.88-2.12
			c-2.64-2.49-4.39-5.55-5.48-8.97c-0.4-1.26-0.65-2.57-0.97-3.86c-0.05-0.21-0.1-0.42-0.19-0.77c-0.2,0.24-0.36,0.38-0.46,0.55
			c-0.56,1.01-1.08,2.04-1.67,3.02c-0.38,0.64-0.8,1.29-1.31,1.83c-2.02,2.17-5.11,2.55-7.64,0.99c-1.03-0.64-1.87-1.48-2.63-2.41
			c-1.42-1.72-2.53-3.64-3.47-5.65c-2.03-4.33-3.24-8.89-3.78-13.63c-0.37-3.23-0.43-6.45-0.22-9.69c0.29-4.36,1.2-8.59,2.87-12.64
			c0.79-1.9,1.79-3.66,3.19-5.17c1.17-1.27,2.55-2.19,4.27-2.54c2.33-0.48,4.41,0.03,6.1,1.74c0.62,0.62,1.17,1.34,1.61,2.1
			c2.06,3.46,3.12,7.22,3.23,11.24c0.04,1.51,0,3.01-0.29,4.5c-0.11,0.56-0.23,1.13-0.39,1.68c-0.2,0.67-0.72,0.99-1.4,1.05
			c-0.76,0.07-1.3-0.35-1.37-1.11c-0.08-0.84-0.08-1.68-0.1-2.52c-0.05-2.09-0.2-4.16-0.72-6.19c-0.61-2.37-1.45-4.65-2.84-6.69
			C242.99,262.43,242.67,261.88,242.09,261.55z M272.26,277.4c0-0.33,0.01-0.6,0-0.86c-0.15-3.23-0.6-6.43-1.33-9.58
			c-0.58-2.5-1.31-4.96-2.4-7.29c-0.58-1.25-1.26-2.43-2.12-3.52c-0.58-0.73-1.22-1.4-2.02-1.91c-1.46-0.94-2.46-0.84-3.68,0.35
			c-0.25,0.25-0.48,0.52-0.7,0.8c-0.8,1.03-1.31,2.2-1.61,3.46c-0.7,2.91-0.51,5.79,0.26,8.66c0.74,2.75,2.08,5.16,4.14,7.14
			c1.45,1.39,3.1,2.48,5.01,3.17C269.31,278.38,270.75,278.24,272.26,277.4z M334.76,287.27c0.6,0.04,1.02-0.3,1.45-0.59
			c0.88-0.61,1.6-1.39,2.21-2.27c1.6-2.28,2.68-4.78,3.1-7.53c0.35-2.3-0.03-4.49-1.3-6.48c-0.48-0.75-1.07-1.41-1.85-1.87
			c-0.88-0.52-1.23-0.46-1.74,0.39c-0.34,0.56-0.65,1.17-0.84,1.79c-0.32,1.1-0.63,2.22-0.77,3.35c-0.49,3.91-0.6,7.84-0.49,11.77
			C334.55,286.32,334.53,286.81,334.76,287.27z"/>
		<path d="M159.69,286.79c-0.02,0.27-0.08,0.48-0.05,0.68c0.58,4.8,1.38,9.55,3.14,14.09c0.74,1.91,1.66,3.72,3.06,5.25
			c0.53,0.59,1.13,1.13,1.73,1.64c0.47,0.4,1.01,0.72,1.67,0.78c0.77-0.34,1.22-1,1.65-1.67c0.65-1.01,1.1-2.12,1.49-3.25
			c0.9-2.61,1.4-5.31,1.81-8.02c0.22-1.44,0.39-2.9,0.59-4.34c0.03-0.22,0.06-0.44,0.11-0.65c0.34-1.47,1.89-2.27,3.3-1.7
			c0.64,0.26,0.99,0.72,1.03,1.41c0.01,0.26,0.01,0.53-0.03,0.8c-0.4,3.03-0.79,6.06-1.23,9.08c-0.36,2.47-1.2,4.81-2.23,7.07
			c-0.24,0.52-0.52,1.03-0.83,1.51c-2.23,3.48-5.81,4.84-9.78,3.73c-1.07-0.3-2.08-0.75-3.04-1.32c-2.56-1.52-4.67-3.52-6.39-5.93
			c-0.85-1.18-1.54-2.48-2.31-3.72c-0.13-0.21-0.28-0.41-0.4-0.59c-0.12,0.06-0.19,0.07-0.19,0.1c-0.13,0.65-0.25,1.3-0.36,1.96
			c-0.53,3.01-1.04,6.02-1.59,9.03c-0.15,0.83-0.35,1.65-0.6,2.45c-0.18,0.59-0.42,1.17-0.73,1.7c-1.19,2.07-3.6,2.82-5.74,1.76
			c-0.66-0.33-1.27-0.8-1.83-1.3c-0.97-0.86-1.71-1.91-2.38-3.02c-1.95-3.27-3.16-6.82-3.89-10.54c-0.55-2.83-0.8-5.7-0.84-8.59
			c-0.05-4.57,0.15-9.12,0.46-13.68c0.13-1.94,0.13-3.9,0.18-5.84c0.01-0.27-0.03-0.53-0.02-0.8c0.03-2.1-0.99-3.51-2.82-4.43
			c-1.51-0.75-3.08-1.3-4.68-1.64c-0.28,0.27-0.12,0.48-0.07,0.68c0.86,3.17,1.48,6.38,1.8,9.65c0.32,3.22,0.44,6.45,0.24,9.69
			c-0.19,3.1-0.49,6.18-0.93,9.25c-0.56,3.95-1.33,7.86-2.64,11.64c-0.55,1.59-1.21,3.14-2.04,4.61c-0.82,1.44-1.84,2.72-3.17,3.72
			c-3.09,2.33-6.51,2.88-10.19,1.77c-3.7-1.13-6.74-3.29-9.33-6.13c-1.62-1.77-2.97-3.75-4.14-5.84c-0.18-0.33-0.4-0.65-0.58-0.94
			c-0.35,0.07-0.3,0.29-0.33,0.44c-0.72,3.92-1.42,7.84-2.15,11.76c-0.21,1.13-0.54,2.25-1.12,3.25c-0.98,1.69-2.47,2.49-4.42,2.39
			c-0.91-0.05-1.72-0.41-2.46-0.91c-1.04-0.7-1.9-1.59-2.65-2.59c-1.23-1.64-2.15-3.45-2.95-5.34c-1.26-2.99-2.06-6.12-2.62-9.32
			c-0.62-3.54-0.89-7.12-1.1-10.7c-0.14-2.43-0.34-4.86-0.53-7.29c-0.04-0.57-0.17-1.13-0.28-1.82c-0.28,0.15-0.52,0.22-0.69,0.38
			c-0.98,0.91-1.77,1.98-2.48,3.11c-1.75,2.76-2.88,5.78-3.69,8.93c-0.75,2.92-1.17,5.91-1.6,8.89c-0.03,0.18-0.04,0.35-0.07,0.53
			c-0.3,1.67-1.23,2.63-2.84,2.91c-1.68,0.29-2.83-0.23-3.67-1.72c-0.35-0.61-0.63-1.27-0.89-1.93c-1.28-3.22-2.21-6.54-2.9-9.93
			c-1.33-6.49-1.95-13.05-1.62-19.68c0.39-7.92,1.74-15.66,4.51-23.12c0.91-2.46,2.09-4.79,3.49-7c0.9-1.43,1.92-2.77,3.15-3.94
			c1.37-1.3,2.92-2.29,4.78-2.76c1.58-0.4,3.16-0.43,4.73-0.01c3.56,0.95,5.45,3.43,6.2,6.91c0.49,2.25,0.4,4.51-0.09,6.73
			c-1.69,7.63-5.36,14.11-11.34,19.22c-1.73,1.48-3.63,2.68-5.73,3.5c-0.3,0.46-0.28,0.96-0.32,1.44c-0.36,5.09-0.35,10.18,0,15.27
			c0.03,0.37-0.08,0.8,0.36,1.13c0.17-0.44,0.32-0.84,0.47-1.25c1.16-3.13,2.63-6.1,4.58-8.82c0.93-1.3,1.97-2.51,3.3-3.44
			c1.83-1.27,3.83-1.8,6.04-1.32c2.23,0.48,3.83,1.75,4.87,3.76c0.66,1.27,1.05,2.63,1.33,4.02c0.48,2.4,0.66,4.83,0.76,7.26
			c0.13,3.1,0.18,6.2,0.33,9.3c0.18,3.58,0.44,7.17,1.28,10.67c0.22,0.9,0.54,1.78,0.83,2.66c0.08,0.24,0.24,0.46,0.43,0.81
			c0.15-0.28,0.29-0.45,0.33-0.64c0.53-2.38,1.1-4.74,1.56-7.14c0.73-3.83,1.39-7.67,2.08-11.5c0.13-0.71,0.13-1.39-0.04-2.11
			c-0.77-3.35-0.98-6.75-0.66-10.17c0.27-2.84,0.94-5.59,2.12-8.19c0.87-1.92,2.07-3.61,3.62-5.04c1.19-1.1,2.53-1.94,4.11-2.35
			c2.75-0.71,5.28-0.2,7.53,1.53c2.09,1.61,3.31,3.79,3.84,6.34c1.35,6.49-2.67,13.46-9.67,15.04c-0.34,0.08-0.68,0.18-1.1,0.29
			c0.06,0.37,0.11,0.71,0.19,1.04c1.06,4.43,2.78,8.58,5.22,12.44c0.88,1.39,1.87,2.7,3.06,3.84c0.87,0.83,1.82,1.54,2.89,2.1
			c1.1,0.58,2.03,0.41,2.91-0.42c0.79-0.74,1.4-1.6,1.91-2.54c0.86-1.56,1.51-3.2,2.08-4.88c1.06-3.11,1.79-6.3,2.32-9.54
			c0.85-5.22,1.25-10.47,1.05-15.75c-0.17-4.48-0.76-8.91-1.98-13.24c-0.06-0.21-0.12-0.42-0.17-0.61
			c-0.38-0.34-0.83-0.36-1.26-0.45c-2.38-0.53-4.76-1.02-7.12-1.61c-1.72-0.42-3.38-1.06-4.96-1.86c-1.76-0.88-3.33-2.03-4.64-3.5
			c-1.29-1.45-2.19-3.09-2.69-4.98c-0.99-3.77,1.23-7.68,6.02-7.97c1.67-0.1,3.26,0.28,4.79,0.91c2.04,0.83,3.8,2.08,5.38,3.6
			c1.35,1.29,2.49,2.76,3.51,4.33c1.61,2.46,2.88,5.09,3.97,7.8c0.1,0.25,0.2,0.49,0.32,0.77c0.84,0.39,1.78,0.44,2.68,0.63
			c2.12,0.44,4.24,0.91,6.3,1.62c1.68,0.58,3.28,1.33,4.72,2.39c1.96,1.44,3.3,3.31,4.04,5.62c0.47,1.48,0.76,3,0.86,4.56
			c0.19,3.01,0.05,6.02-0.13,9.03c-0.29,4.91-0.76,9.81-0.59,14.74c0.09,2.75,0.3,5.49,0.95,8.17c0.22,0.9,0.47,1.79,0.99,2.72
			c0.16-0.25,0.3-0.4,0.36-0.58c0.73-2.37,1.25-4.8,1.71-7.23c0.69-3.65,1.37-7.31,2.08-10.96c0.1-0.53,0.1-1.04-0.03-1.57
			c-1.06-4.43-1.37-8.94-1.05-13.46c0.31-4.43,1.58-8.61,3.9-12.44c1.21-2,2.76-3.69,4.69-5.01c2.08-1.43,4.38-2.11,6.9-1.89
			c2.99,0.26,5.29,1.65,6.81,4.25c1.15,1.95,1.71,4.09,1.81,6.33c0.18,4.09-0.96,7.8-3.42,11.07c-1.34,1.77-3.04,3.09-5.2,3.73
			c-1.42,0.42-2.86,0.6-4.33,0.35C160.19,286.82,159.98,286.81,159.69,286.79z M65.73,274.51c0.27-0.1,0.45-0.12,0.58-0.22
			c0.42-0.32,0.85-0.64,1.24-1c4.86-4.37,8.15-9.73,10.05-15.96c0.54-1.78,0.85-3.62,0.85-5.49c0-1.42-0.2-2.82-0.71-4.16
			c-0.27-0.71-0.63-1.36-1.21-1.87c-0.44-0.39-0.84-0.45-1.33-0.15c-0.33,0.21-0.67,0.45-0.92,0.75c-0.48,0.58-0.94,1.18-1.33,1.82
			c-0.99,1.63-1.77,3.36-2.42,5.15c-2.25,6.17-3.59,12.57-4.53,19.05C65.89,273.09,65.82,273.74,65.73,274.51z M159.4,283.34
			c2.31,1.1,4.15,0.86,5.86-0.74c0.45-0.42,0.87-0.89,1.21-1.4c2.19-3.23,3.12-6.8,2.66-10.69c-0.14-1.15-0.47-2.25-1.06-3.26
			c-0.29-0.49-0.63-0.97-1.03-1.36c-0.86-0.84-1.64-0.86-2.6-0.12c-0.71,0.55-1.24,1.26-1.7,2.02c-0.67,1.1-1.15,2.29-1.56,3.5
			c-0.83,2.48-1.32,5.04-1.55,7.64C159.5,280.38,159.48,281.83,159.4,283.34z M121.74,263.89c-0.08-0.28-0.12-0.45-0.18-0.61
			c-0.97-2.53-2.15-4.96-3.72-7.18c-0.74-1.04-1.58-2.02-2.46-2.95c-0.98-1.03-2.15-1.84-3.45-2.44c-0.73-0.33-1.49-0.58-2.29-0.63
			c-1.67-0.11-3.03,1.01-3.26,2.66c-0.11,0.8-0.04,1.59,0.2,2.36c0.6,1.92,1.71,3.49,3.26,4.75c1.14,0.93,2.44,1.6,3.8,2.15
			c1.86,0.74,3.79,1.22,5.75,1.59C120.12,263.72,120.83,263.99,121.74,263.89z M103.05,292.69c0.38-0.05,0.71-0.03,0.97-0.14
			c0.77-0.34,1.56-0.65,2.25-1.11c3.33-2.23,5.16-6.82,4.31-10.74c-0.35-1.64-1.03-3.14-2.35-4.22c-1.6-1.31-2.32-1.21-3.43,0.47
			c-0.17,0.26-0.34,0.53-0.45,0.81c-0.3,0.78-0.62,1.56-0.85,2.37c-0.98,3.51-1.07,7.08-0.75,10.68
			C102.81,291.42,102.94,292.02,103.05,292.69z"/>
		<path d="M213.23,294.38c-0.15,1.15-0.3,2.15-0.41,3.15c-0.42,3.8-1.25,7.51-2.43,11.14c-0.56,1.73-1.27,3.4-2.18,4.98
			c-0.82,1.43-1.78,2.75-3.01,3.86c-1.55,1.4-3.33,2.32-5.44,2.53c-1.65,0.17-3.17-0.16-4.56-1.06c-1.64-1.07-2.86-2.49-3.67-4.27
			c-0.7-1.54-1.23-3.14-1.53-4.8c-0.43-2.3-0.74-4.63-1.11-6.95c-0.01-0.09-0.02-0.18-0.02-0.26c-0.11-1.6,0.68-2.61,2.26-2.89
			c1.22-0.22,2.08,0.37,2.27,1.61c0.2,1.31,0.34,2.63,0.54,3.95c0.29,1.93,0.63,3.85,1.34,5.68c0.32,0.82,0.71,1.62,1.17,2.37
			c0.51,0.85,1.26,1.49,2.16,1.91c0.69,0.32,1.04,0.19,1.39-0.51c0.54-1.08,0.89-2.23,1.1-3.4c0.38-2.13,0.72-4.28,1.02-6.42
			c0.36-2.54,0.72-5.09,0.98-7.64c0.32-3.17,0.53-6.35,0.8-9.53c0.04-0.45-0.18-0.74-0.45-1.05c-1.28-1.53-2.59-3.03-3.79-4.62
			c-2.91-3.88-5.29-8.06-6.86-12.68c-1.06-3.12-1.78-6.31-1.95-9.6c-0.15-2.92,0.26-5.74,1.5-8.42c1.3-2.82,3.52-4.54,6.54-5.09
			c2.62-0.48,5.11,0.01,7.36,1.5c1.93,1.28,3.36,3,4.43,5.03c1.16,2.21,1.88,4.58,2.37,7.02c0.46,2.3,0.67,4.64,0.84,6.98
			c0.37,5,0.36,10,0.21,15.01c-0.07,2.34-0.27,4.69-0.4,7.03c-0.02,0.39-0.04,0.79-0.06,1.24c0.41,0.28,0.8,0.57,1.21,0.82
			c1.25,0.76,2.51,1.5,3.76,2.26c0.49,0.3,0.99,0.6,1.45,0.93c0.48,0.35,0.53,0.79,0.21,1.28c-0.49,0.74-1.22,1.03-2.06,0.93
			c-0.61-0.08-1.21-0.27-1.78-0.51C215.41,295.44,214.42,294.94,213.23,294.38z M198.3,252.2c-0.69,0.43-1.05,1.09-1.4,1.76
			c-0.65,1.27-1.02,2.64-1.14,4.06c-0.23,2.76,0.05,5.48,0.68,8.17c1.27,5.4,3.89,10.13,7.18,14.53c0.06,0.09,0.19,0.12,0.39,0.24
			c0.03-0.39,0.08-0.68,0.08-0.98c0.03-4.16-0.06-8.32-0.41-12.47c-0.19-2.25-0.44-4.49-0.99-6.69c-0.63-2.51-1.59-4.88-2.98-7.06
			C199.33,253.17,198.94,252.57,198.3,252.2z"/>
		<path d="M359.98,282.1c0.1-5.63,0.41-11.25,0.85-16.86c0.23-2.92,0.56-5.82,1.14-8.69c0.29-1.43,0.67-2.85,1.28-4.18
			c0.32-0.72,0.71-1.44,1.18-2.06c1.48-1.94,4.52-1.96,5.94,0.4c0.72,1.2,1.04,2.53,1.18,3.91c0.24,2.35,0.05,4.69-0.14,7.03
			c-0.31,3.88-0.67,7.77-0.96,11.65c-0.43,5.88-0.51,11.77-0.43,17.67c0.03,2.57-0.05,5.14-0.11,7.71
			c-0.02,0.75-0.08,1.51-0.19,2.25c-0.07,0.47-0.22,0.96-0.45,1.37c-1.03,1.9-3.56,3.02-5.68,2.58c-1.26-0.26-2.05-1.01-2.33-2.26
			c-0.16-0.73-0.28-1.48-0.37-2.23c-0.24-1.98-0.47-3.96-0.68-5.94c-0.07-0.66-0.1-1.33-0.11-1.99
			C360.05,289.01,360.02,285.56,359.98,282.1z"/>
		<path d="M371.04,313.41c0.09,2.67-2.1,5.62-5.64,5.67c-3.08,0.04-5.55-2.47-5.58-5.56c-0.03-2.67,2.08-5.66,5.66-5.66
			C369.25,307.85,371.14,311.01,371.04,313.41z"/>
	</g>
</g>
</svg>
