<?xml version="1.0" standalone="yes"?>
<svg xmlns="http://www.w3.org/2000/svg" xmlns:xlink="http://www.w3.org/1999/xlink" xmlns:svg="http://www.w3.org/2000/svg" xmlns:dc="http://purl.org/dc/elements/1.1/" xmlns:cc="http://web.resource.org/cc/" xmlns:rdf="http://www.w3.org/1999/02/22-rdf-syntax-ns#" width="166" height="294">
<path style="fill:#ffffff; stroke:none;" d="M0 0L0 294L166 294L166 0L0 0z"/>
<path style="fill:#ffcd8d; stroke:none;" d="M123.667 14.3333L124.333 14.6667L123.667 14.3333z"/>
<path style="fill:#ffcd33; stroke:none;" d="M123 15C117.656 22.3564 111.047 31.5136 107.731 39.9954C104.969 47.0616 112.497 45.4336 116 43L123 15z"/>
<path style="fill:#ffcd8d; stroke:none;" d="M25.3333 18.6667L25.6667 19.3333L25.3333 18.6667M31 18L31 19L34 20L31 18z"/>
<path style="fill:#cd9933; stroke:none;" d="M24 19L17 42L16 33L15 33L13 44L11 34C3.42049 40.6896 11.9755 49.4735 12 58C20.1387 55.4614 33.3815 57.9482 38 50C32.2439 50.3615 28.9736 52.1535 25 47L42 49L36 44L51 46L51 45L47 43L52 44L53 44L66 41C61.023 40.7418 55.6902 39.4488 53 35L71 39C68.6739 31.2679 57.8631 31.0189 51 31L60 28L60 27C51.7064 23.5003 49.4076 27.8549 42 30L53 20C42.0856 22.0262 42.4408 24.1372 35 31L39 21C30.1902 21.289 32.8212 27.8598 28 33L33 19L22 30L24 19z"/>
<path style="fill:#ffcd8d; stroke:none;" d="M35 20L35 21L38 21L35 20M30 23L28 33L32 25L32 24L30 23z"/>
<path style="fill:#ffffff; stroke:none;" d="M30 24L30 28L31 28L30 24z"/>
<path style="fill:#ffcd8d; stroke:none;" d="M51 29L58 31L58 30L51 29z"/>
<path style="fill:#cd9933; stroke:none;" d="M140 29L126 34L127 31C119.934 33.4237 119.341 40.5319 113.406 44.1767C108.639 47.1038 106.929 43.0661 108 39C97.3801 40.7709 102.247 53.0009 102 60L107 53L111 56L111 53L118 55L117 51L124 57L124 52L132 52L130 48C133.304 48.6904 135.088 48.9208 137 46L133 46L141 42C136.645 38.9593 133.653 40.3643 129 42L142 29L140 29z"/>
<path style="fill:#ffcd8d; stroke:none;" d="M141.333 31.6667L141.667 32.3333L141.333 31.6667M136.667 32.3333L137.333 32.6667L136.667 32.3333M16 34L16 40L17 40L16 34z"/>
<path style="fill:#ffffff; stroke:none;" d="M125 34L123 40L125 34z"/>
<path style="fill:#ffcd8d; stroke:none;" d="M58.6667 35.3333L59.3333 35.6667L58.6667 35.3333M132 36L132 37L138 37L132 36M10 36L10 39L11 39L10 36M62.6667 36.3333L63.3333 36.6667L62.6667 36.3333M13 37L13 40L14 40L13 37M122.333 38.6667L122.667 39.3333L122.333 38.6667M135.667 38.3333L136.333 38.6667L135.667 38.3333M10.3333 40.6667L10.6667 41.3333L10.3333 40.6667M60.6667 40.3333L61.3333 40.6667L60.6667 40.3333M129 41L129 42L132 42L129 41M75 42L75 43L80 43L75 42z"/>
<path style="fill:#cd9933; stroke:none;" d="M84 42L88 48L77 43L80 50L68 46L71 50L57 52L57 53L62 57L56 57L56 61C51.5296 57.296 51.5368 53.2146 45 53C48.138 62.8816 38.6516 57.3779 35 64L40 64L38 69L46 66L41 73C44.502 72.8843 46.7996 72.8379 47 69L51 69L40 79L47 77L43 84L48 82L46 88L51 86L54 96C47.4507 92.708 41.7576 91.9841 39 100L47 97L46 106L37 108L37 109L45 110L41 117L47 118L51 112L48 131L53 128L50 136L55 134L52 148C57.4469 147.054 56.9864 142.726 57 138L59 140L60 140L61 135C64.6964 140.086 65.6946 142.893 64 149C68.7926 145.614 66.3979 139.042 66 134L70 144L74 148L71 149L72 157L77 153L81 164L82 164L83 155L84 155L87 164C82.0774 164.769 80.3691 167.122 80 172L86 170C80.3121 176.606 85.5881 180.431 85 188L90 187L87 175C91.7024 173.572 91.9464 170.539 92 166C95.204 169.423 94.8064 172.588 94 177C101.052 170.483 96.6867 160.897 95 153L99 162L103 161L102 157L106 159C105.928 151.073 100.941 143.065 96 137L100 138C98.4975 128.492 89.2353 132.346 84 127L89 128C86.4467 121.326 77.6341 122.184 74.1852 114.996C66.1981 98.3501 72.5992 59.7269 93 54L96 47L84 42z"/>
<path style="fill:#ffcd8d; stroke:none;" d="M88.6667 42.3333L89.3333 42.6667L88.6667 42.3333M37 43L37 44L40 44L37 43z"/>
<path style="fill:#999999; stroke:none;" d="M97 44L96 46L97 44z"/>
<path style="fill:#333367; stroke:none;" d="M98 44L98 46L100 46L100 44L98 44z"/>
<path style="fill:#ffcd8d; stroke:none;" d="M66 45L66 46L71 46L66 45z"/>
<path style="fill:#010101; stroke:none;" d="M97 45L96 47L97 45z"/>
<path style="fill:#ffcd8d; stroke:none;" d="M30.6667 46.3333L31.3333 46.6667L30.6667 46.3333z"/>
<path style="fill:#ffffff; stroke:none;" d="M97 46L95 57L94 57C90.5217 52.2562 86.4037 56.4403 83.5147 60.0046C77.2559 67.7264 74.1984 76.2713 72.4637 86C70.6736 96.0399 68.8969 111.414 76.5579 119.656C80.4239 123.815 85.9442 122.765 89 128L84 128L84 129C90.7219 130.6 97.6948 129.98 100 138L96 137L107 159L99 162L97 153L96 153C96.3933 161.629 100.141 169.733 94 177L94 166L92 166C91.8559 170.436 91.0758 172.944 87 175L89 186C115.835 167.115 112.616 127.635 144 113C144.346 126.23 130.441 133.38 133 146C141.859 141.077 144.624 124.986 148.2 116C149.477 112.79 152.575 106.321 146.941 105.426C136.076 103.7 120.868 126.748 111 120L118 119L110.942 107.938L98 103L107 105L97.8287 89.0147L94 69L95 69C100.88 82.2466 120.549 72.1259 132 70L132 69L128 69L128 67L134 67C132.593 64.7881 128.099 63.1041 131 61L131 60L112 56L113 60L106 61L107 53L106 53L105 61L101 51L100 51L99 56L98 56L99 46L97 46z"/>
<path style="fill:#333331; stroke:none;" d="M99 46L99 53L100 53L99 46z"/>
<path style="fill:#ffcd8d; stroke:none;" d="M93 47L93 49L95 47L93 47z"/>
<path style="fill:#676767; stroke:none;" d="M94 49L97 47L94 49z"/>
<path style="fill:#ffcd8d; stroke:none;" d="M11.3333 49.6667L11.6667 50.3333L11.3333 49.6667z"/>
<path style="fill:#010101; stroke:none;" d="M94 49L95 50L94 49z"/>
<path style="fill:#ffcd8d; stroke:none;" d="M59 50L59 51L63 51L59 50z"/>
<path style="fill:#676767; stroke:none;" d="M93 50L94 57L95 57L95 50L93 50z"/>
<path style="fill:#ffffff; stroke:none;" d="M117 51L118 55L111 53L123 57L123 56L117 51z"/>
<path style="fill:#ffcd8d; stroke:none;" d="M46 52L46 53L50 53L46 52M56 52L56 54L58 54L56 52z"/>
<path style="fill:#999999; stroke:none;" d="M98 52L100 55L98 52z"/>
<path style="fill:#ffcd8d; stroke:none;" d="M124 52L124 57L125 57L124 52M127 52L127 53L131 53L127 52z"/>
<path style="fill:#333331; stroke:none;" d="M98.3333 54.6667L98.6667 55.3333L98.3333 54.6667z"/>
<path style="fill:#ffcd8d; stroke:none;" d="M26 55L26 56L29 56L26 55z"/>
<path style="fill:#ffff99; stroke:none;" d="M105.333 55.6667L105.667 56.3333L105.333 55.6667z"/>
<path style="fill:#010101; stroke:none;" d="M106 60C109.891 60.8864 111.341 59.9521 112 56L118 57C113.166 54.6959 108.815 55.3025 106 60z"/>
<path style="fill:#999999; stroke:none;" d="M113.667 55.3333L114.333 55.6667L113.667 55.3333M107 56L108 57L107 56M117 57L117 58L121 57L117 57z"/>
<path style="fill:#676767; stroke:none;" d="M13 57L12 61L13 57z"/>
<path style="fill:#333331; stroke:none;" d="M14 57L14 58L17 63L18 63L17 57L14 57z"/>
<path style="fill:#ffcd8d; stroke:none;" d="M52.3333 57.6667L52.6667 58.3333L52.3333 57.6667M55 57L55 61L56 61L55 57z"/>
<path style="fill:#010101; stroke:none;" d="M119 57L119 58L124 58L119 57z"/>
<path style="fill:#999999; stroke:none;" d="M123 58L123 59L127 58L123 58z"/>
<path style="fill:#ffffff; stroke:none;" d="M14 58C14.4975 62.4637 15.9361 64.9951 20 67L16 58L14 58z"/>
<path style="fill:#ffcd8d; stroke:none;" d="M104 58L103 61L104 58z"/>
<path style="fill:#999999; stroke:none;" d="M106 58L107 59L106 58z"/>
<path style="fill:#996776; stroke:none;" d="M112.333 58.6667L112.667 59.3333L112.333 58.6667z"/>
<path style="fill:#010101; stroke:none;" d="M125 58L125 59L129 59L125 58z"/>
<path style="fill:#676767; stroke:none;" d="M128 60L131 58L128 60z"/>
<path style="fill:#ffcd8d; stroke:none;" d="M40 59L40 60L43 60L40 59z"/>
<path style="fill:#010101; stroke:none;" d="M131 59L132 60L131 59z"/>
<path style="fill:#ffcd8d; stroke:none;" d="M44.6667 60.3333L45.3333 60.6667L44.6667 60.3333z"/>
<path style="fill:#999999; stroke:none;" d="M106 60L107 61L106 60z"/>
<path style="fill:#676767; stroke:none;" d="M111 60L112 61L111 60z"/>
<path style="fill:#999999; stroke:none;" d="M131 60L132 61L131 60z"/>
<path style="fill:#333331; stroke:none;" d="M132 60L134 63L132 60z"/>
<path style="fill:#010101; stroke:none;" d="M13 61L14 62L13 61z"/>
<path style="fill:#999999; stroke:none;" d="M108.667 61.3333L109.333 61.6667L108.667 61.3333z"/>
<path style="fill:#676767; stroke:none;" d="M128 61L128 63L130 61L128 61z"/>
<path style="fill:#010101; stroke:none;" d="M129 62L129 63L132 64L132 61L129 62z"/>
<path style="fill:#676767; stroke:none;" d="M13.6667 62.3333L14.3333 62.6667L13.6667 62.3333M131 65L135 65L133 62L131 65z"/>
<path style="fill:#010101; stroke:none;" d="M14 63L15 64L14 63z"/>
<path style="fill:#676767; stroke:none;" d="M17 63L20 66L17 63z"/>
<path style="fill:#999999; stroke:none;" d="M129 63L130 64L129 63M14 64L15 65L14 64z"/>
<path style="fill:#333331; stroke:none;" d="M15 64L23 70L23 69L15 64z"/>
<path style="fill:#010101; stroke:none;" d="M20 65L21 66L20 65z"/>
<path style="fill:#333331; stroke:none;" d="M134 65L133 69L134 69L134 65z"/>
<path style="fill:#cdcdcd; stroke:none;" d="M20 66L26 70L26 69L20 66z"/>
<path style="fill:#333331; stroke:none;" d="M21 66L24 68L21 66z"/>
<path style="fill:#ffcd8d; stroke:none;" d="M43 66L43 67L46 68L43 66z"/>
<path style="fill:#999999; stroke:none;" d="M17 67L18 68L17 67z"/>
<path style="fill:#996776; stroke:none;" d="M24 67L25 68L24 67z"/>
<path style="fill:#cdcdcd; stroke:none;" d="M128 67L128 69L133 68L128 67z"/>
<path style="fill:#010101; stroke:none;" d="M24.6667 68.3333L25.3333 68.6667L24.6667 68.3333z"/>
<path style="fill:#676767; stroke:none;" d="M26 68L26 71L27 71L26 68z"/>
<path style="fill:#010101; stroke:none;" d="M132 68L130 70L130 71C132.251 70.5268 133.118 70.1397 132 68z"/>
<path style="fill:#999999; stroke:none;" d="M20 69L21 70L20 69z"/>
<path style="fill:#010101; stroke:none;" d="M27.6667 69.3333L28.3333 69.6667L27.6667 69.3333z"/>
<path style="fill:#999999; stroke:none;" d="M29 69L30 70L29 69z"/>
<path style="fill:#ffcd8d; stroke:none;" d="M47 69L47 70L51 71L47 69z"/>
<path style="fill:#010101; stroke:none;" d="M94 69L95 70L94 69z"/>
<path style="fill:#999999; stroke:none;" d="M133.333 69.6667L133.667 70.3333L133.333 69.6667M22 70L23 71L22 70z"/>
<path style="fill:#010101; stroke:none;" d="M23 70L23 71L29 73L29 72L23 70z"/>
<path style="fill:#cdcdcd; stroke:none;" d="M27 70L31 75L27 70z"/>
<path style="fill:#333331; stroke:none;" d="M29 70L32 73L29 70M94 70L98 80L99 80C99.1585 75.8248 97.4703 72.3911 94 70z"/>
<path style="fill:#999999; stroke:none;" d="M129 70L130 71L129 70M25 71L26 72L25 71z"/>
<path style="fill:#676767; stroke:none;" d="M116 74L124 72C120.826 70.7634 118.083 71.2641 116 74z"/>
<path style="fill:#333331; stroke:none;" d="M124 71L124 72L130 72L124 71z"/>
<path style="fill:#cd9999; stroke:none;" d="M130 71L131 72L130 71z"/>
<path style="fill:#999999; stroke:none;" d="M27 72L28 73L27 72M32 72L33 73L32 72z"/>
<path style="fill:#ffcd8d; stroke:none;" d="M75 72L75 75L76 75L75 72z"/>
<path style="fill:#999999; stroke:none;" d="M96 72L97 73L96 72z"/>
<path style="fill:#cd9999; stroke:none;" d="M126 72L126 73L129 73L126 72z"/>
<path style="fill:#999999; stroke:none;" d="M28 73L29 74L28 73z"/>
<path style="fill:#676767; stroke:none;" d="M29 73L30 78L31 78L29 73z"/>
<path style="fill:#010101; stroke:none;" d="M32.3333 73.6667L32.6667 74.3333L32.3333 73.6667z"/>
<path style="fill:#999999; stroke:none;" d="M95 73L96 74L95 73M112 73L113 74L112 73z"/>
<path style="fill:#010101; stroke:none;" d="M113 73L113 74L116 74L113 73z"/>
<path style="fill:#ffffff; stroke:none;" d="M31 74C30.3118 89.0241 10.7425 96.4549 13.3333 112C15.9383 127.63 41.6131 128.899 40.6813 145C39.934 157.913 14.8911 165.879 19.7461 178.999C23.4382 188.976 38.1187 190.375 44.787 198.015C50.3463 204.385 51.0024 216.52 58.108 221.243C65.65 226.256 93.7468 220.12 87.0293 238.999C85.5954 243.029 82.439 245.996 81 250L94 253.576L117 279L117 275C120.828 276.931 123.394 277.624 127 275C117.567 269.227 96.0702 257.952 95.9861 245C95.9143 233.94 106.827 231.772 102.123 219C98.0383 207.907 80.2116 202.136 87 190L87 189C82.8904 182.581 82.2615 176.251 86 170L79 173L77 153L72 158L72 153L71 153C64.2422 164.002 53.9697 181.992 42 187.817C35.0611 191.194 22.707 182.425 22.3804 175C22.1683 170.178 27.8772 166.531 30.9853 163.715C36.9666 158.295 44.4459 149.755 42.7215 141C39.8253 126.296 15.3895 126.404 15.669 110C15.8955 96.7052 37.3025 89.0252 31 74z"/>
<path style="fill:#999999; stroke:none;" d="M110 74L111 75L110 74z"/>
<path style="fill:#333331; stroke:none;" d="M111.667 74.3333L112.333 74.6667L111.667 74.3333M32 75L33 80L34 80L32 75z"/>
<path style="fill:#010101; stroke:none;" d="M108 77L111 75L108 77z"/>
<path style="fill:#cd9999; stroke:none;" d="M111 75L112 76L111 75z"/>
<path style="fill:#999999; stroke:none;" d="M29 76L30 80L31 80L29 76z"/>
<path style="fill:#010101; stroke:none;" d="M99 76L107 78L107 77L99 76z"/>
<path style="fill:#999999; stroke:none;" d="M100 76L101 77L100 76z"/>
<path style="fill:#676767; stroke:none;" d="M106 76L108 78L108 76L106 76z"/>
<path style="fill:#99cdcd; stroke:none;" d="M32 77L32 80L33 80L32 77z"/>
<path style="fill:#ffff99; stroke:none;" d="M45.6667 77.3333L46.3333 77.6667L45.6667 77.3333z"/>
<path style="fill:#cd9999; stroke:none;" d="M101 78L101 79L106 79L101 78z"/>
<path style="fill:#010101; stroke:none;" d="M29 79L29 82L30 82L29 79z"/>
<path style="fill:#676767; stroke:none;" d="M97 79L99 82L97 79M32 80L32 85L34 80L32 80z"/>
<path style="fill:#ffcd8d; stroke:none;" d="M73.3333 80.6667L73.6667 81.3333L73.3333 80.6667z"/>
<path style="fill:#999999; stroke:none;" d="M28 81L30 83L28 81z"/>
<path style="fill:#010101; stroke:none;" d="M97 81L97 88L98 88L97 81z"/>
<path style="fill:#333331; stroke:none;" d="M28.3333 82.6667L28.6667 83.3333L28.3333 82.6667z"/>
<path style="fill:#999999; stroke:none;" d="M27 83L29 85L27 83z"/>
<path style="fill:#010101; stroke:none;" d="M27 84L28 85L27 84M31.3333 84.6667L31.6667 85.3333L31.3333 84.6667z"/>
<path style="fill:#999999; stroke:none;" d="M96 84L97 85L96 84z"/>
<path style="fill:#676767; stroke:none;" d="M26.6667 85.3333L27.3333 85.6667L26.6667 85.3333z"/>
<path style="fill:#999999; stroke:none;" d="M25 86L26 87L25 86z"/>
<path style="fill:#010101; stroke:none;" d="M26 86L27 87L26 86z"/>
<path style="fill:#676767; stroke:none;" d="M30.6667 86.3333L31.3333 86.6667L30.6667 86.3333z"/>
<path style="fill:#ff9933; stroke:none;" d="M43 90L48 89L47 86L43 90z"/>
<path style="fill:#010101; stroke:none;" d="M25 87L26 88L25 87z"/>
<path style="fill:#999999; stroke:none;" d="M29 87L30 88L29 87z"/>
<path style="fill:#333331; stroke:none;" d="M30 87L25 95L30 87z"/>
<path style="fill:#999999; stroke:none;" d="M98 87L99 88L98 87z"/>
<path style="fill:#333331; stroke:none;" d="M24 88L17 97L24 88z"/>
<path style="fill:#999999; stroke:none;" d="M25 88L26 89L25 88z"/>
<path style="fill:#333331; stroke:none;" d="M97 88L105 102L106 102L97 88z"/>
<path style="fill:#ffcd8d; stroke:none;" d="M42 89L42 91L44 91L42 89z"/>
<path style="fill:#999999; stroke:none;" d="M99 90L100 91L99 90z"/>
<path style="fill:#ffcd8d; stroke:none;" d="M71 91L71 95L72 95L71 91z"/>
<path style="fill:#999999; stroke:none;" d="M98 91L99 92L98 91M24 94L25 95L24 94z"/>
<path style="fill:#010101; stroke:none;" d="M24 95L25 96L24 95z"/>
<path style="fill:#ffcd8d; stroke:none;" d="M52.6667 95.3333L53.3333 95.6667L52.6667 95.3333z"/>
<path style="fill:#999999; stroke:none;" d="M16 96L18 98L16 96z"/>
<path style="fill:#333331; stroke:none;" d="M23 96L17 106L18 106L23 96z"/>
<path style="fill:#999999; stroke:none;" d="M24 96L25 97L24 96M103 96L104 97L103 96z"/>
<path style="fill:#010101; stroke:none;" d="M16 97L17 98L16 97z"/>
<path style="fill:#ffcd8d; stroke:none;" d="M42 97L42 98L47 98L42 97z"/>
<path style="fill:#999999; stroke:none;" d="M102 97L103 98L102 97z"/>
<path style="fill:#676767; stroke:none;" d="M15.6667 98.3333L16.3333 98.6667L15.6667 98.3333M129 98L130 99L129 98z"/>
<path style="fill:#010101; stroke:none;" d="M119 110L134 99C127.637 96.8244 121.385 104.886 119 110z"/>
<path style="fill:#999999; stroke:none;" d="M134 98L133 100L134 98M14 99L16 101L14 99z"/>
<path style="fill:#010101; stroke:none;" d="M15 99L16 100L15 99z"/>
<path style="fill:#999999; stroke:none;" d="M20 99L21 100L20 99z"/>
<path style="fill:#ffcd8d; stroke:none;" d="M46 99L46 104L47 104L46 99z"/>
<path style="fill:#ffffff; stroke:none;" d="M131 106L132 106L130 111C134.428 108.987 139.326 98.2053 130.981 99.8318C127.214 100.566 116.075 110.326 118.176 114.664C121.605 121.743 129.901 108.613 131 106z"/>
<path style="fill:#333331; stroke:none;" d="M134 99L137 102L134 99M14.3333 100.667L14.6667 101.333L14.3333 100.667z"/>
<path style="fill:#cd9999; stroke:none;" d="M21 100L22 101L21 100z"/>
<path style="fill:#999999; stroke:none;" d="M13 101L15 103L13 101M106 101L105 103L106 101z"/>
<path style="fill:#010101; stroke:none;" d="M13.3333 102.667L13.6667 103.333L13.3333 102.667M106 102L107 105L103 105L103 106L109 106L106 102z"/>
<path style="fill:#676767; stroke:none;" d="M136 102L139 109L138 102L136 102M98.3333 103.667L98.6667 104.333L98.3333 103.667M145 103L145 105L148 105L148 103L145 103M12 104L12 106L14 106L14 104L12 104z"/>
<path style="fill:#333331; stroke:none;" d="M99 104L99 105L103 106L103 105L99 104M142 106L145 104L142 106z"/>
<path style="fill:#010101; stroke:none;" d="M148 104L148 105L151 110L152 110L148 104z"/>
<path style="fill:#999999; stroke:none;" d="M150 104L151 105L150 104M16 105L17 106L16 105M141 105L142 106L141 105M149 105L150 106L149 105M151 105L152 106L151 105z"/>
<path style="fill:#010101; stroke:none;" d="M12 106L13 116L14 116L12 106M16.3333 106.667L16.6667 107.333L16.3333 106.667z"/>
<path style="fill:#996776; stroke:none;" d="M17 106L18 107L17 106z"/>
<path style="fill:#ffcd8d; stroke:none;" d="M71 106L71 109L72 109L71 106z"/>
<path style="fill:#333331; stroke:none;" d="M107 106L107 107L113 108L107 106z"/>
<path style="fill:#010101; stroke:none;" d="M131 106L132 107L131 106z"/>
<path style="fill:#999999; stroke:none;" d="M139 106L141 108L139 106z"/>
<path style="fill:#010101; stroke:none;" d="M140.667 106.333L141.333 106.667L140.667 106.333z"/>
<path style="fill:#999999; stroke:none;" d="M150 106L151 107L150 106z"/>
<path style="fill:#676767; stroke:none;" d="M130.667 107.333L131.333 107.667L130.667 107.333z"/>
<path style="fill:#010101; stroke:none;" d="M139 107L140 108L139 107z"/>
<path style="fill:#676767; stroke:none;" d="M15 108L15 112L16 112L17 108L15 108z"/>
<path style="fill:#ffcd8d; stroke:none;" d="M36 109L36 110L43 110L36 109z"/>
<path style="fill:#999999; stroke:none;" d="M112 108L113 109L112 108z"/>
<path style="fill:#330114; stroke:none;" d="M113 108L115 111L113 108z"/>
<path style="fill:#010101; stroke:none;" d="M130 108L131 109L130 108M124 115L124 116L138 109L124 115z"/>
<path style="fill:#01332d; stroke:none;" d="M118 109L115 114L118 109z"/>
<path style="fill:#999999; stroke:none;" d="M129.667 109.333L130.333 109.667L129.667 109.333z"/>
<path style="fill:#676767; stroke:none;" d="M133 109L134 110L133 109z"/>
<path style="fill:#999999; stroke:none;" d="M115 110L116 111L115 110z"/>
<path style="fill:#010101; stroke:none;" d="M129 110L130 111L129 110z"/>
<path style="fill:#999999; stroke:none;" d="M131 110L132 111L131 110z"/>
<path style="fill:#673333; stroke:none;" d="M150.667 110.333L151.333 110.667L150.667 110.333z"/>
<path style="fill:#330114; stroke:none;" d="M16 111L16 114L17 114L16 111z"/>
<path style="fill:#676767; stroke:none;" d="M128 111L128 112L131 112L128 111z"/>
<path style="fill:#999999; stroke:none;" d="M133 111L134 112L133 111z"/>
<path style="fill:#01332d; stroke:none;" d="M150.333 111.667L150.667 112.333L150.333 111.667z"/>
<path style="fill:#676767; stroke:none;" d="M131 112L132 113L131 112z"/>
<path style="fill:#333331; stroke:none;" d="M149 112L143 131L144 131C145.753 125.818 151.612 117.09 149 112z"/>
<path style="fill:#999999; stroke:none;" d="M13 113L14 114L13 113M116 113L117 114L116 113z"/>
<path style="fill:#676767; stroke:none;" d="M129 113L130 114L129 113z"/>
<path style="fill:#999999; stroke:none;" d="M141 113L142 114L141 113z"/>
<path style="fill:#676767; stroke:none;" d="M140 114L140 115L144 113L140 114z"/>
<path style="fill:#999999; stroke:none;" d="M12 114L13 115L12 114z"/>
<path style="fill:#333331; stroke:none;" d="M16 114L21 121L16 114z"/>
<path style="fill:#ffcd8d; stroke:none;" d="M47.3333 114.667L47.6667 115.333L47.3333 114.667z"/>
<path style="fill:#cd9999; stroke:none;" d="M115 114L116 115L115 114z"/>
<path style="fill:#333331; stroke:none;" d="M116 114C117.985 117.9 119.958 118.647 124 117L124 116L116 114z"/>
<path style="fill:#676767; stroke:none;" d="M125 114L126 115L125 114z"/>
<path style="fill:#ffcd8d; stroke:none;" d="M51.3333 115.667L51.6667 116.333L51.3333 115.667z"/>
<path style="fill:#999999; stroke:none;" d="M123 115L124 116L123 115M126 115L127 116L126 115M139 115L127 128L132 126L139 115z"/>
<path style="fill:#010101; stroke:none;" d="M140 115L141 116L140 115z"/>
<path style="fill:#cd9999; stroke:none;" d="M141.667 115.333L142.333 115.667L141.667 115.333z"/>
<path style="fill:#333331; stroke:none;" d="M143 115L141 124L142 124L143 115z"/>
<path style="fill:#996776; stroke:none;" d="M148 115L149 116L148 115z"/>
<path style="fill:#676767; stroke:none;" d="M13.6667 116.333L14.3333 116.667L13.6667 116.333z"/>
<path style="fill:#999999; stroke:none;" d="M124 116L125 117L124 116z"/>
<path style="fill:#010101; stroke:none;" d="M139 116L140 117L139 116z"/>
<path style="fill:#cd9999; stroke:none;" d="M149 116L150 117L149 116z"/>
<path style="fill:#333331; stroke:none;" d="M14 117L16 120L14 117z"/>
<path style="fill:#010101; stroke:none;" d="M138 117L139 118L138 117z"/>
<path style="fill:#ffcd8d; stroke:none;" d="M52.3333 118.667L52.6667 119.333L52.3333 118.667z"/>
<path style="fill:#999999; stroke:none;" d="M118 118L120 120L118 118z"/>
<path style="fill:#010101; stroke:none;" d="M137 118L138 119L137 118z"/>
<path style="fill:#679999; stroke:none;" d="M16 119L17 120L16 119z"/>
<path style="fill:#010101; stroke:none;" d="M117.667 119.333L118.333 119.667L117.667 119.333M136 119L137 120L136 119M16 120L21 125L16 120z"/>
<path style="fill:#999999; stroke:none;" d="M21 120L23 122L21 120z"/>
<path style="fill:#333331; stroke:none;" d="M111 120L111 121L117 121L117 120L111 120z"/>
<path style="fill:#999999; stroke:none;" d="M117 120L118 121L117 120z"/>
<path style="fill:#010101; stroke:none;" d="M135 120L136 121L135 120z"/>
<path style="fill:#999999; stroke:none;" d="M146 120L147 121L146 120M16 121L17 122L16 121z"/>
<path style="fill:#010101; stroke:none;" d="M21 121L22 122L21 121z"/>
<path style="fill:#679999; stroke:none;" d="M111 121L112 122L111 121z"/>
<path style="fill:#010101; stroke:none;" d="M134 121L135 122L134 121z"/>
<path style="fill:#999999; stroke:none;" d="M141 121L142 122L141 121z"/>
<path style="fill:#cd9999; stroke:none;" d="M147 121L148 122L147 121z"/>
<path style="fill:#999999; stroke:none;" d="M17 122L18 123L17 122z"/>
<path style="fill:#333331; stroke:none;" d="M22 122L28 126L28 125L22 122z"/>
<path style="fill:#010101; stroke:none;" d="M133 122L134 123L133 122z"/>
<path style="fill:#999999; stroke:none;" d="M142 122L143 123L142 122z"/>
<path style="fill:#cd9999; stroke:none;" d="M145 122L146 123L145 122z"/>
<path style="fill:#999999; stroke:none;" d="M18 123L19 124L18 123z"/>
<path style="fill:#010101; stroke:none;" d="M132 123L133 124L132 123z"/>
<path style="fill:#999999; stroke:none;" d="M140 123L142 125L140 123M19 124L20 125L19 124M21 124L20 126L21 124z"/>
<path style="fill:#010101; stroke:none;" d="M131 124L132 125L131 124M140 124L139 128L140 128L140 124z"/>
<path style="fill:#333331; stroke:none;" d="M21 125L34 133L21 125z"/>
<path style="fill:#999999; stroke:none;" d="M28 125L27 127L28 125z"/>
<path style="fill:#010101; stroke:none;" d="M130 125L120 136L128 132L129 132L128 129L130 125z"/>
<path style="fill:#999999; stroke:none;" d="M139 125L140 126L139 125M144 125L145 126L144 125z"/>
<path style="fill:#010101; stroke:none;" d="M28.6667 126.333L29.3333 126.667L28.6667 126.333z"/>
<path style="fill:#333331; stroke:none;" d="M30 126L37 131L30 126z"/>
<path style="fill:#676767; stroke:none;" d="M130 126L131 127L130 126z"/>
<path style="fill:#999999; stroke:none;" d="M145 126L146 127L145 126z"/>
<path style="fill:#ffcd8d; stroke:none;" d="M47 127L47 130L48 130L47 127M84 127L84 128L88 128L84 127z"/>
<path style="fill:#999999; stroke:none;" d="M138 127L140 129L138 127z"/>
<path style="fill:#333331; stroke:none;" d="M138 128L135 134L136 134L138 128z"/>
<path style="fill:#cd9999; stroke:none;" d="M26 129L27 130L26 129z"/>
<path style="fill:#ffcd8d; stroke:none;" d="M88 129L88 130L91 130L88 129z"/>
<path style="fill:#676767; stroke:none;" d="M128.667 129.333L129.333 129.667L128.667 129.333z"/>
<path style="fill:#999999; stroke:none;" d="M36 131L36 132L39 135L40 135L41 133L38 130L36 131z"/>
<path style="fill:#ffffff; stroke:none;" d="M127 130L124 135C126.757 134.195 127.82 132.83 127 130z"/>
<path style="fill:#999999; stroke:none;" d="M136 130L137 131L136 130M142 130L144 132L142 130z"/>
<path style="fill:#010101; stroke:none;" d="M37 131L38 132L37 131z"/>
<path style="fill:#999999; stroke:none;" d="M137 131L138 132L137 131z"/>
<path style="fill:#010101; stroke:none;" d="M142.333 131.667L142.667 132.333L142.333 131.667z"/>
<path style="fill:#999999; stroke:none;" d="M33 133L33 134L35 136L36 136L37 134L35 132L33 133z"/>
<path style="fill:#010101; stroke:none;" d="M38 132L39 133L38 132z"/>
<path style="fill:#676767; stroke:none;" d="M127 132L127 134L129 132L127 132z"/>
<path style="fill:#010101; stroke:none;" d="M34 133L35 134L34 133M39 133L40 134L39 133z"/>
<path style="fill:#999999; stroke:none;" d="M124 133L125 134L124 133M133 134L133 135L136 135L133 134z"/>
<path style="fill:#333331; stroke:none;" d="M141 133L141 136L142 136L143 133L141 133z"/>
<path style="fill:#010101; stroke:none;" d="M35 134L36 135L35 134z"/>
<path style="fill:#333331; stroke:none;" d="M40 134L42 151L43 151C44.447 144.922 44.875 138.505 40 134z"/>
<path style="fill:#ffcd8d; stroke:none;" d="M53 134L53 137L54 137L55 134L53 134z"/>
<path style="fill:#010101; stroke:none;" d="M127 134L128 135L127 134M134 134L130 140L131 140L135 135L134 134z"/>
<path style="fill:#333331; stroke:none;" d="M36 135C38.2088 141.175 39.6788 144.447 38 151L39 151C41.8916 144.99 41.1481 139.428 36 135z"/>
<path style="fill:#ffcd33; stroke:none;" d="M117 146C122.269 143.914 124.622 140.636 125 135C118.227 135.993 117.022 139.735 117 146z"/>
<path style="fill:#333331; stroke:none;" d="M125 135L125 137L127 135L125 135z"/>
<path style="fill:#999999; stroke:none;" d="M127 135L128 136L127 135z"/>
<path style="fill:#cd9999; stroke:none;" d="M134 135L135 136L134 135z"/>
<path style="fill:#999999; stroke:none;" d="M140 135L142 137L140 135z"/>
<path style="fill:#ffcd8d; stroke:none;" d="M60 136L59 142L60 136z"/>
<path style="fill:#330114; stroke:none;" d="M119 136L120 137L119 136z"/>
<path style="fill:#999999; stroke:none;" d="M130 136L131 137L130 136z"/>
<path style="fill:#676767; stroke:none;" d="M132 136L133 137L132 136z"/>
<path style="fill:#010101; stroke:none;" d="M140.333 136.667L140.667 137.333L140.333 136.667z"/>
<path style="fill:#999999; stroke:none;" d="M41 137L42 138L41 137z"/>
<path style="fill:#ffcd8d; stroke:none;" d="M66.3333 137.667L66.6667 138.333L66.3333 137.667M69.3333 137.667L69.6667 138.333L69.3333 137.667z"/>
<path style="fill:#333331; stroke:none;" d="M109 140L112 137L109 140M118 137L119 138L118 137z"/>
<path style="fill:#999999; stroke:none;" d="M131 137L132 138L131 137M43 138L44 139L43 138z"/>
<path style="fill:#ffcd8d; stroke:none;" d="M57 138L57 140L59 138L57 138z"/>
<path style="fill:#999999; stroke:none;" d="M112 138L111 140L112 138z"/>
<path style="fill:#333331; stroke:none;" d="M139 138L139 141L140 141L141 138L139 138z"/>
<path style="fill:#010101; stroke:none;" d="M112 139L113 140L112 139z"/>
<path style="fill:#676767; stroke:none;" d="M113.333 139.667L113.667 140.333L113.333 139.667z"/>
<path style="fill:#010101; stroke:none;" d="M116 139L117 140L116 139z"/>
<path style="fill:#676767; stroke:none;" d="M131 139L132 142L131 139z"/>
<path style="fill:#ffcd8d; stroke:none;" d="M65 140L65 144L66 144L65 140M67 140L67 145L68 145L67 140z"/>
<path style="fill:#676767; stroke:none;" d="M115 140L115 144L117 144L117 140L115 140z"/>
<path style="fill:#999999; stroke:none;" d="M138 140L140 142L138 140z"/>
<path style="fill:#ffcd33; stroke:none;" d="M123 155C127.781 153.863 130.884 151.44 133 147L132 142C124.324 140.269 123.258 149.081 123 155z"/>
<path style="fill:#010101; stroke:none;" d="M138 141L132 146L132 147L134 148L138 141z"/>
<path style="fill:#999999; stroke:none;" d="M44.3333 142.667L44.6667 143.333L44.3333 142.667z"/>
<path style="fill:#cd9933; stroke:none;" d="M131 143L131 147L132 147L131 143z"/>
<path style="fill:#676767; stroke:none;" d="M132 143L132 146L133 146L132 143M138 143L139 144L138 143z"/>
<path style="fill:#010101; stroke:none;" d="M115.333 144.667L115.667 145.333L115.333 144.667z"/>
<path style="fill:#999999; stroke:none;" d="M137 144L138 145L137 144M44 145L45 146L44 145M134 145L135 146L134 145M136 145L137 146L136 145z"/>
<path style="fill:#676767; stroke:none;" d="M114 146L114 149L116 149L116 146L114 146z"/>
<path style="fill:#999999; stroke:none;" d="M133 146L134 147L133 146M135 146L136 147L135 146z"/>
<path style="fill:#ffcd8d; stroke:none;" d="M52.6667 148.333L53.3333 148.667L52.6667 148.333z"/>
<path style="fill:#330114; stroke:none;" d="M114.333 149.667L114.667 150.333L114.333 149.667z"/>
<path style="fill:#999999; stroke:none;" d="M37 150L39 152L37 150M41 150L43 152L41 150z"/>
<path style="fill:#333331; stroke:none;" d="M71 150L58 171C62.8642 167.04 72.0862 156.646 71 150z"/>
<path style="fill:#330114; stroke:none;" d="M37 151L36 154L37 154L37 151z"/>
<path style="fill:#010101; stroke:none;" d="M41 151L42 152L41 151z"/>
<path style="fill:#999999; stroke:none;" d="M70 151L71 152L70 151z"/>
<path style="fill:#676767; stroke:none;" d="M113 151L112 155L115 151L113 151M37 152L38 153L37 152M40.6667 152.333L41.3333 152.667L40.6667 152.333M35 153L36 154L35 153z"/>
<path style="fill:#999999; stroke:none;" d="M39 153L40 154L39 153z"/>
<path style="fill:#010101; stroke:none;" d="M40 153L41 154L40 153z"/>
<path style="fill:#ffcd8d; stroke:none;" d="M95 153L95 157L96 157L95 153z"/>
<path style="fill:#999999; stroke:none;" d="M34 154L34 157L35 157L34 154z"/>
<path style="fill:#010101; stroke:none;" d="M35 154L36 155L35 154z"/>
<path style="fill:#333331; stroke:none;" d="M39 154L29 166C33.3932 163.946 39.2651 159.255 39 154z"/>
<path style="fill:#ffcd8d; stroke:none;" d="M106 154L106 159L107 159L106 154z"/>
<path style="fill:#010101; stroke:none;" d="M34 155L35 156L34 155z"/>
<path style="fill:#ffffff; stroke:none;" d="M83 155L82 165L87 164L83 155z"/>
<path style="fill:#010101; stroke:none;" d="M112 155L111 160L112 160L112 155M33 156L32 158L33 156z"/>
<path style="fill:#999999; stroke:none;" d="M67 156L68 157L67 156z"/>
<path style="fill:#ffcd8d; stroke:none;" d="M73 156L72 158L74 158L73 156M77.3333 156.667L77.6667 157.333L77.3333 156.667z"/>
<path style="fill:#676767; stroke:none;" d="M33 157L34 158L33 157z"/>
<path style="fill:#999999; stroke:none;" d="M36 157L37 158L36 157M68 157L69 158L68 157z"/>
<path style="fill:#cdcd99; stroke:none;" d="M102 157L102 159L104 159L102 157z"/>
<path style="fill:#999999; stroke:none;" d="M111 157L112 158L111 157z"/>
<path style="fill:#676767; stroke:none;" d="M31 158L25 166L33 158L31 158z"/>
<path style="fill:#999999; stroke:none;" d="M37 158L38 159L37 158M112 158L113 159L112 158z"/>
<path style="fill:#010101; stroke:none;" d="M30 159L31 160L30 159z"/>
<path style="fill:#999999; stroke:none;" d="M66 160L67 161L66 160z"/>
<path style="fill:#ffcd8d; stroke:none;" d="M80 160L81 166L82 166L80 160z"/>
<path style="fill:#333331; stroke:none;" d="M110 160L103 174L112 160L110 160z"/>
<path style="fill:#999999; stroke:none;" d="M63 162L64 163L63 162z"/>
<path style="fill:#010133; stroke:none;" d="M26 163L27 164L26 163z"/>
<path style="fill:#999999; stroke:none;" d="M64 163L65 164L64 163z"/>
<path style="fill:#010101; stroke:none;" d="M24 165L21 169L24 165z"/>
<path style="fill:#999999; stroke:none;" d="M28 165L24 172L25 172L30 167L28 165M24 166L25 167L24 166z"/>
<path style="fill:#010101; stroke:none;" d="M28 166L29 167L28 166z"/>
<path style="fill:#999999; stroke:none;" d="M60 166L61 167L60 166M21 167L22 168L21 167M23 167L24 168L23 167z"/>
<path style="fill:#010101; stroke:none;" d="M27 167L28 168L27 167z"/>
<path style="fill:#999999; stroke:none;" d="M61 167L62 168L61 167M20 168L21 169L20 168z"/>
<path style="fill:#010101; stroke:none;" d="M26 168L27 169L26 168z"/>
<path style="fill:#ffcd8d; stroke:none;" d="M79 168L81 173L79 168M94 168L94 175L95 175L94 168z"/>
<path style="fill:#333331; stroke:none;" d="M20 169L19 172L20 169z"/>
<path style="fill:#9999cd; stroke:none;" d="M21 169L22 170L21 169z"/>
<path style="fill:#010101; stroke:none;" d="M25 169L26 170L25 169z"/>
<path style="fill:#999999; stroke:none;" d="M105 169L106 170L105 169z"/>
<path style="fill:#010101; stroke:none;" d="M24 170L25 171L24 170z"/>
<path style="fill:#996776; stroke:none;" d="M57 170L58 171L57 170z"/>
<path style="fill:#999999; stroke:none;" d="M18 171L20 173L18 171z"/>
<path style="fill:#010101; stroke:none;" d="M23 171L24 172L23 171z"/>
<path style="fill:#999999; stroke:none;" d="M56 171L56 174L57 174L56 171z"/>
<path style="fill:#010101; stroke:none;" d="M57 171L58 172L57 171M18.3333 172.667L18.6667 173.333L18.3333 172.667z"/>
<path style="fill:#676767; stroke:none;" d="M22.6667 172.333L23.3333 172.667L22.6667 172.333z"/>
<path style="fill:#010101; stroke:none;" d="M56 172L57 173L56 172z"/>
<path style="fill:#cdcd99; stroke:none;" d="M97.3333 172.667L97.6667 173.333L97.3333 172.667z"/>
<path style="fill:#010101; stroke:none;" d="M22 173L23 174L22 173z"/>
<path style="fill:#333331; stroke:none;" d="M55 173L52 178L55 173z"/>
<path style="fill:#999999; stroke:none;" d="M102 173L94 182C97.3447 180.171 103.451 177.666 102 173z"/>
<path style="fill:#676767; stroke:none;" d="M17 174L17 178L19 178L19 174L17 174M21 174L21 176L23 176L23 174L21 174z"/>
<path style="fill:#010101; stroke:none;" d="M102 174L103 175L102 174M101 175L102 176L101 175M22 176L23 177L22 176z"/>
<path style="fill:#999999; stroke:none;" d="M23 176L22 178L23 176z"/>
<path style="fill:#010101; stroke:none;" d="M100 176L101 177L100 176z"/>
<path style="fill:#333331; stroke:none;" d="M23 177L25 180L23 177z"/>
<path style="fill:#999999; stroke:none;" d="M51 177L50 179L51 177z"/>
<path style="fill:#ffcd8d; stroke:none;" d="M82.3333 177.667L82.6667 178.333L82.3333 177.667z"/>
<path style="fill:#010101; stroke:none;" d="M99 177L100 178L99 177M18 178L22 184L18 178M51 178L52 179L51 178z"/>
<path style="fill:#ffcd8d; stroke:none;" d="M87.3333 178.667L87.6667 179.333L87.3333 178.667z"/>
<path style="fill:#010101; stroke:none;" d="M98 178L99 179L98 178z"/>
<path style="fill:#999999; stroke:none;" d="M19 179L20 180L19 179M25 179L26 180L25 179z"/>
<path style="fill:#010101; stroke:none;" d="M50 179L47 183L50 179M97 179L98 180L97 179z"/>
<path style="fill:#999999; stroke:none;" d="M18 180L19 181L18 180z"/>
<path style="fill:#010101; stroke:none;" d="M25 180L30 185L25 180z"/>
<path style="fill:#999999; stroke:none;" d="M50 180L51 181L50 180z"/>
<path style="fill:#010101; stroke:none;" d="M96 180L97 181L96 180z"/>
<path style="fill:#676767; stroke:none;" d="M20 181L21 182L20 181z"/>
<path style="fill:#999999; stroke:none;" d="M25 181L26 182L25 181M49 181L50 182L49 181z"/>
<path style="fill:#010101; stroke:none;" d="M95 181L96 182L95 181z"/>
<path style="fill:#999999; stroke:none;" d="M21 182L22 183L21 182z"/>
<path style="fill:#676767; stroke:none;" d="M26 182L27 183L26 182z"/>
<path style="fill:#999999; stroke:none;" d="M48 182L49 183L48 182z"/>
<path style="fill:#333331; stroke:none;" d="M90 187L95 182L90 187z"/>
<path style="fill:#999999; stroke:none;" d="M22 183L23 184L22 183z"/>
<path style="fill:#676767; stroke:none;" d="M27 183L28 184L27 183M43 188L48 183L43 188z"/>
<path style="fill:#ffcd8d; stroke:none;" d="M85.3333 183.667L85.6667 184.333L85.3333 183.667z"/>
<path style="fill:#333331; stroke:none;" d="M22 184L26 187L22 184z"/>
<path style="fill:#999999; stroke:none;" d="M28 184L29 185L28 184M30 184L29 186L30 184z"/>
<path style="fill:#333331; stroke:none;" d="M30 185L30 186L36 188L36 187L30 185z"/>
<path style="fill:#999999; stroke:none;" d="M26 186L27 187L26 186z"/>
<path style="fill:#010101; stroke:none;" d="M26 187L26 188L32 190L32 189L26 187z"/>
<path style="fill:#999999; stroke:none;" d="M28 187L29 188L28 187z"/>
<path style="fill:#673333; stroke:none;" d="M35 188L35 189L42 187L35 188z"/>
<path style="fill:#999999; stroke:none;" d="M37 187L37 188L41 188L37 187z"/>
<path style="fill:#010101; stroke:none;" d="M42 187L43 188L42 187M89 187L88 189L89 187z"/>
<path style="fill:#999999; stroke:none;" d="M27 188L28 189L27 188z"/>
<path style="fill:#ffcd8d; stroke:none;" d="M85 188L85 189L88 189L85 188z"/>
<path style="fill:#999999; stroke:none;" d="M89 188L90 189L89 188M29 189L30 190L29 189z"/>
<path style="fill:#333331; stroke:none;" d="M32 189L40 194L40 193L32 189z"/>
<path style="fill:#676733; stroke:none;" d="M87 189L87 192L88 192L89 189L87 189z"/>
<path style="fill:#999999; stroke:none;" d="M35 190L36 191L35 190M86 190L87 191L86 190M34 191L35 192L34 191z"/>
<path style="fill:#333331; stroke:none;" d="M86 191C82.4767 198.332 86.0538 202.114 93 205L86 191z"/>
<path style="fill:#999999; stroke:none;" d="M36 192L37 193L36 192M40 193L41 194L40 193z"/>
<path style="fill:#010133; stroke:none;" d="M40 194L42 199L43 199L40 194z"/>
<path style="fill:#cd9999; stroke:none;" d="M85 195L86 196L85 195z"/>
<path style="fill:#999999; stroke:none;" d="M43 197L46 200L43 197z"/>
<path style="fill:#010101; stroke:none;" d="M44 197L45 198L44 197z"/>
<path style="fill:#ffffff; stroke:none;" d="M43 198L43.0278 214.711L54.3812 228L47 246C60.2552 241.269 58.8472 273.717 61 281L70 277C63.955 267.822 57.6112 257.359 62.5332 246C65.842 238.364 71.9944 233.444 74 225L58.0432 222.343L43 198z"/>
<path style="fill:#010101; stroke:none;" d="M45 198L46 199L45 198z"/>
<path style="fill:#999999; stroke:none;" d="M41 199L43 202L43 199L41 199z"/>
<path style="fill:#010101; stroke:none;" d="M46.3333 199.667L46.6667 200.333L46.3333 199.667M41 201L41 207L42 207L41 201z"/>
<path style="fill:#676767; stroke:none;" d="M46.6667 201.333L47.3333 201.667L46.6667 201.333z"/>
<path style="fill:#999999; stroke:none;" d="M89 201L90 202L89 201z"/>
<path style="fill:#010101; stroke:none;" d="M47 202L48 203L47 202z"/>
<path style="fill:#999999; stroke:none;" d="M88 202L89 203L88 202M47.6667 203.333L48.3333 203.667L47.6667 203.333z"/>
<path style="fill:#333331; stroke:none;" d="M48.3333 204.667L48.6667 205.333L48.3333 204.667z"/>
<path style="fill:#cd9999; stroke:none;" d="M40.3333 205.667L40.6667 206.333L40.3333 205.667z"/>
<path style="fill:#999999; stroke:none;" d="M49 205L48 207L49 205M92 205L97 210L92 205z"/>
<path style="fill:#010101; stroke:none;" d="M93 205L94 206L93 205M49 206L50 210L51 210L49 206M94 206L95 207L94 206z"/>
<path style="fill:#676767; stroke:none;" d="M40 207L40 214L42 214L42 207L40 207z"/>
<path style="fill:#010101; stroke:none;" d="M95 207L96 208L95 207z"/>
<path style="fill:#999999; stroke:none;" d="M49 208L50 209L49 208z"/>
<path style="fill:#010101; stroke:none;" d="M96 208L97 209L96 208z"/>
<path style="fill:#333331; stroke:none;" d="M97 209L104 226L105 226C104.441 219.641 101.895 213.196 97 209M50 210L51 213L52 213L52 210L50 210z"/>
<path style="fill:#999999; stroke:none;" d="M52 212L51 214L52 212z"/>
<path style="fill:#676767; stroke:none;" d="M52 213L54 216L52 213z"/>
<path style="fill:#333331; stroke:none;" d="M41 214L48 220L41 214z"/>
<path style="fill:#999999; stroke:none;" d="M101 214L102 215L101 214M44 216L45 217L44 216z"/>
<path style="fill:#010101; stroke:none;" d="M53 216L54 217L53 216z"/>
<path style="fill:#999999; stroke:none;" d="M102 216L103 217L102 216M43 217L44 218L43 217z"/>
<path style="fill:#676767; stroke:none;" d="M53.6667 217.333L54.3333 217.667L53.6667 217.333z"/>
<path style="fill:#999999; stroke:none;" d="M101 217L102 218L101 217z"/>
<path style="fill:#010101; stroke:none;" d="M54 218L55 219L54 218z"/>
<path style="fill:#999999; stroke:none;" d="M103 218L104 219L103 218M54 219L55 220L54 219z"/>
<path style="fill:#333331; stroke:none;" d="M55 219C57.2283 223.059 60.4795 224.509 65 225L65 223L55 219z"/>
<path style="fill:#999999; stroke:none;" d="M47 220L48 221L47 220z"/>
<path style="fill:#010101; stroke:none;" d="M48 220L49 221L48 220z"/>
<path style="fill:#999999; stroke:none;" d="M49 220L50 221L49 220z"/>
<path style="fill:#333331; stroke:none;" d="M49 221L54 226L49 221z"/>
<path style="fill:#999999; stroke:none;" d="M57 222L58 223L57 222z"/>
<path style="fill:#676767; stroke:none;" d="M63 222L63 223L70 224L63 222z"/>
<path style="fill:#333331; stroke:none;" d="M70 223L70 224L75 224L70 223z"/>
<path style="fill:#999999; stroke:none;" d="M73 224L74 225L73 224z"/>
<path style="fill:#010101; stroke:none;" d="M74 226L78 225L74 226z"/>
<path style="fill:#333331; stroke:none;" d="M78 224L83 227L83 226L78 224z"/>
<path style="fill:#676767; stroke:none;" d="M54 225L53 231L54 231L54 225z"/>
<path style="fill:#999999; stroke:none;" d="M77 225L78 226L77 225M81 225L82 226L81 225z"/>
<path style="fill:#333331; stroke:none;" d="M74 226L69 238L70 238L74 226z"/>
<path style="fill:#999999; stroke:none;" d="M80 226L81 227L80 226M83 226L82 228L83 226z"/>
<path style="fill:#010101; stroke:none;" d="M104 226L104 232L105 232L104 226z"/>
<path style="fill:#01332d; stroke:none;" d="M83 227L86 230L83 227z"/>
<path style="fill:#999999; stroke:none;" d="M74 228L75 229L74 228z"/>
<path style="fill:#996776; stroke:none;" d="M86 229L87 230L86 229z"/>
<path style="fill:#999999; stroke:none;" d="M72 230L73 231L72 230z"/>
<path style="fill:#010101; stroke:none;" d="M86 230L87 231L86 230M53.3333 231.667L53.6667 232.333L53.3333 231.667z"/>
<path style="fill:#676767; stroke:none;" d="M86.6667 231.333L87.3333 231.667L86.6667 231.333M103 231L101 236C104.065 234.982 104.886 233.761 103 231z"/>
<path style="fill:#333331; stroke:none;" d="M87 232L84 245L85 245L87 232z"/>
<path style="fill:#676767; stroke:none;" d="M52.6667 233.333L53.3333 233.667L52.6667 233.333z"/>
<path style="fill:#999999; stroke:none;" d="M72 233L73 234L72 233z"/>
<path style="fill:#010101; stroke:none;" d="M52 234L51 236L52 234z"/>
<path style="fill:#999999; stroke:none;" d="M70 234L71 235L70 234z"/>
<path style="fill:#010101; stroke:none;" d="M103 234L104 235L103 234z"/>
<path style="fill:#999999; stroke:none;" d="M50 235L51 236L50 235M52 235L53 236L52 235M71 235L72 236L71 235z"/>
<path style="fill:#676767; stroke:none;" d="M99 235L98 237L99 235z"/>
<path style="fill:#010101; stroke:none;" d="M100 235L101 236L100 235z"/>
<path style="fill:#999999; stroke:none;" d="M48 236L46 239L50 238L48 236z"/>
<path style="fill:#333331; stroke:none;" d="M49.6667 236.333L50.3333 236.667L49.6667 236.333z"/>
<path style="fill:#010101; stroke:none;" d="M99 236L100 237L99 236M48 237L49 238L48 237z"/>
<path style="fill:#999999; stroke:none;" d="M68 237L66 242L67 242L68 237z"/>
<path style="fill:#010101; stroke:none;" d="M98 237L99 238L98 237M47 238L48 239L47 238M68 238L69 239L68 238M97 238L97 241L98 241L97 238M46 239L47 240L46 239M67 239L68 240L67 239z"/>
<path style="fill:#333331; stroke:none;" d="M45 240L47 248L50 245L47 246L47 240L45 240z"/>
<path style="fill:#010101; stroke:none;" d="M66 240L67 241L66 240z"/>
<path style="fill:#999999; stroke:none;" d="M96 240L97 241L96 240z"/>
<path style="fill:#673333; stroke:none;" d="M65 241L64 244L65 241z"/>
<path style="fill:#333331; stroke:none;" d="M96 241L96 249L97 249L96 241z"/>
<path style="fill:#99cd99; stroke:none;" d="M63 243L64 244L63 243z"/>
<path style="fill:#999999; stroke:none;" d="M49 244L50 245L49 244z"/>
<path style="fill:#010101; stroke:none;" d="M50 244L50 245L53 246L50 244z"/>
<path style="fill:#999999; stroke:none;" d="M52 244L53 245L52 244z"/>
<path style="fill:#010101; stroke:none;" d="M63 244L62 248L63 248L63 244z"/>
<path style="fill:#999999; stroke:none;" d="M64 244L65 245L64 244M81 245L81 246L84 246L81 245z"/>
<path style="fill:#330114; stroke:none;" d="M83 244L84 245L83 244z"/>
<path style="fill:#999999; stroke:none;" d="M45 245L46 246L45 245M62 245L63 246L62 245z"/>
<path style="fill:#010101; stroke:none;" d="M82 245L83 246L82 245z"/>
<path style="fill:#676767; stroke:none;" d="M52 246L56 251L52 246z"/>
<path style="fill:#333331; stroke:none;" d="M81 246C79.2888 253.021 84.4034 253.329 90 252L90 251L81 250L81 246z"/>
<path style="fill:#999999; stroke:none;" d="M46 247L47 248L46 247z"/>
<path style="fill:#676767; stroke:none;" d="M61 248L61 251L63 251L63 248L61 248z"/>
<path style="fill:#999999; stroke:none;" d="M97 248L97 251L98 251L97 248z"/>
<path style="fill:#010101; stroke:none;" d="M97 249L98 250L97 249M98 250L99 251L98 250M55 251L55 254L56 254L55 251M61 251L61 260L62 260L61 251z"/>
<path style="fill:#676767; stroke:none;" d="M89 252L93 254L92 251L89 252M98 251L99 252L98 251z"/>
<path style="fill:#333331; stroke:none;" d="M99 251L104 257L99 251z"/>
<path style="fill:#676767; stroke:none;" d="M56 253L56 260L57 260L56 253z"/>
<path style="fill:#999999; stroke:none;" d="M85 253L85 254L88 254L85 253z"/>
<path style="fill:#333331; stroke:none;" d="M93 253L102 262L93 253z"/>
<path style="fill:#999999; stroke:none;" d="M104 256L106 261L107 261L104 256z"/>
<path style="fill:#010101; stroke:none;" d="M104 257L105 258L104 257M105 258L106 259L105 258M57 259L58 267L59 267L57 259z"/>
<path style="fill:#999999; stroke:none;" d="M62 259L61 262L62 259z"/>
<path style="fill:#010101; stroke:none;" d="M106 259L107 260L106 259M107 260L108 261L107 260z"/>
<path style="fill:#999999; stroke:none;" d="M58.3333 261.667L58.6667 262.333L58.3333 261.667M102 261L103 265L104 265L102 261z"/>
<path style="fill:#676767; stroke:none;" d="M107 261L108 262L107 261z"/>
<path style="fill:#333331; stroke:none;" d="M108 261C110.879 267.118 116.684 270.181 123 272L123 271L108 261M62.3333 262.667L62.6667 263.333L62.3333 262.667z"/>
<path style="fill:#010101; stroke:none;" d="M102 262L103 263L102 262z"/>
<path style="fill:#999999; stroke:none;" d="M63 263L64 264L63 263z"/>
<path style="fill:#010101; stroke:none;" d="M103 263L104 264L103 263M63 264L63 267L64 267L63 264z"/>
<path style="fill:#333331; stroke:none;" d="M104 264C106.384 269.64 114.128 284.182 121 277L117 275L117 279L104 264z"/>
<path style="fill:#999999; stroke:none;" d="M59 266L58 269L59 266z"/>
<path style="fill:#996776; stroke:none;" d="M64 266L65 267L64 266z"/>
<path style="fill:#999999; stroke:none;" d="M63 267L64 268L63 267z"/>
<path style="fill:#330114; stroke:none;" d="M64.3333 267.667L64.6667 268.333L64.3333 267.667z"/>
<path style="fill:#999999; stroke:none;" d="M107 267L108 268L107 267z"/>
<path style="fill:#333331; stroke:none;" d="M59 268C59 273.345 57.942 279.026 62 283L64 279L61 281L59 268z"/>
<path style="fill:#999999; stroke:none;" d="M65 268L64 270L65 268z"/>
<path style="fill:#333331; stroke:none;" d="M65 269L73 278L65 269z"/>
<path style="fill:#999999; stroke:none;" d="M121 270L122 271L121 270M110 271L111 272L110 271M123 271L122 273L123 271M66 272L67 273L66 272z"/>
<path style="fill:#cd9999; stroke:none;" d="M109 272L110 273L109 272z"/>
<path style="fill:#010101; stroke:none;" d="M123 272L124 273L123 272z"/>
<path style="fill:#676767; stroke:none;" d="M124.333 272.667L124.667 273.333L124.333 272.667z"/>
<path style="fill:#010101; stroke:none;" d="M125 273L128 276L125 273z"/>
<path style="fill:#999999; stroke:none;" d="M126 273L127 274L126 273M127 274L128 275L127 274M58 275L58 278L59 278L58 275M111 275L112 276L111 275M128 275L129 276L128 275z"/>
<path style="fill:#ffcd33; stroke:none;" d="M120 278C122.89 287.111 129.232 284.16 137 284C132.05 275.895 128.2 276.956 120 278z"/>
<path style="fill:#676767; stroke:none;" d="M64 277L67 279L64 277z"/>
<path style="fill:#ffcd33; stroke:none;" d="M79 284L74 277C61.0661 278.391 68.8077 287.013 79 284z"/>
<path style="fill:#cdcdcd; stroke:none;" d="M118 277L119 278L118 277z"/>
<path style="fill:#676733; stroke:none;" d="M122 277L122 278L125 278L122 277z"/>
<path style="fill:#010101; stroke:none;" d="M63 278L64 279L63 278z"/>
<path style="fill:#996776; stroke:none;" d="M117.667 280.333L118.333 280.667L117.667 280.333z"/>
<path style="fill:#999999; stroke:none;" d="M62 282L63 283L62 282z"/>
<path style="fill:#ffcd8d; stroke:none;" d="M130 284L130 285L136 285L130 284z"/>
</svg>
