<?xml version="1.0" encoding="utf-8"?>
<!-- Generator: Adobe Illustrator 25.2.1, SVG Export Plug-In . SVG Version: 6.00 Build 0)  -->
<svg version="1.1" id="Calque_1" xmlns="http://www.w3.org/2000/svg" xmlns:xlink="http://www.w3.org/1999/xlink" x="0px" y="0px"
	 viewBox="0 0 432 432" style="enable-background:new 0 0 432 432;" xml:space="preserve">
<style type="text/css">
	.st0{fill:#E0AAAF;}
	.st1{fill:#F9D53D;}
	.st2{fill:#FBB03B;}
	.st3{fill:#CCCCCC;}
	.st4{fill:#8CC63F;}
	.st5{fill:#C5D8A7;}
	.st6{fill:#C44750;}
	.st7{fill:#998675;}
	.st8{fill:#C7B299;}
	.st9{fill:none;}
	.st10{fill:#29ABE2;}
	.st11{fill:#B3B3B3;}
	.st12{fill:#C79C52;}
	.st13{fill:#65C8D0;}
	.st14{fill:#BA9BC9;}
	.st15{fill:#A57A7F;}
	.st16{fill:#FFFFFF;}
</style>
<g>
	<g>
		<g>
			<path class="st4" d="M240.87,118.99c-1.46-1.1-17.05-10.65-18.2-11.15c-1.63,1.58-3.55,2.64-5.9,2.79
				c-2.35,0.15-4.38-0.7-6.32-2.02c-6.45,3.7-12.86,7.38-19.27,11.06c-0.05,0.57-0.06,1.07-0.14,1.56
				c-0.36,2.07-1.56,3.46-3.55,4.09c-1.95,0.62-3.71,0.09-5.08-1.35c-1.45-1.51-1.73-3.35-0.99-5.31c0.89-2.36,3.59-3.68,6.06-2.96
				c0.59,0.17,1.15,0.43,1.81,0.67c6.27-3.6,12.58-7.23,18.95-10.89c-0.72-2.26-0.88-4.44-0.02-6.64c0.87-2.22,2.48-3.69,4.5-4.75
				c0.05-0.06,0.09-0.1,0.11-0.15c0.03-0.05,0.06-0.1,0.06-0.16c0.36-6.1,0.71-12.2,1.07-18.3c0.01-0.22,0-0.44-0.01-0.73
				c-0.37-0.23-0.74-0.49-1.12-0.7c-2.33-1.3-3.57-5.21-0.66-7.94c1.81-1.69,4.67-1.78,6.65-0.25c1.85,1.43,2.43,4.06,1.31,6.22
				c-0.28,0.53-0.72,0.99-1.14,1.44c-0.3,0.32-0.69,0.56-1.14,0.91c-0.38,6.2-0.73,12.45-1.07,18.8c0.55,0.15,1.01,0.29,1.49,0.4
				c3.67,0.89,6.41,4.06,6.57,7.98c0.04,0.89-0.1,1.78-0.16,2.8c6.01,3.79,12.16,7.47,18.33,11.21c0.53-0.18,1.05-0.39,1.58-0.54
				c2.01-0.56,4.16,0.17,5.41,1.81c1.21,1.6,1.35,3.82,0.33,5.54c-1.08,1.84-3.2,2.77-5.33,2.35c-2.11-0.42-3.73-2.11-4.02-4.22
				C240.89,120.09,240.9,119.59,240.87,118.99z"/>
			<g>
				<circle class="st5" cx="187.41" cy="92.07" r="6.06"/>
				<circle class="st5" cx="221.68" cy="122.51" r="6.06"/>
				<circle class="st5" cx="237.41" cy="84.99" r="6.06"/>
			</g>
		</g>
		<path class="st4" d="M225.67,356.12c-0.21,0.36-0.36,0.7-0.57,0.99c-2.71,3.75-6.12,6.63-10.41,8.41
			c-4.54,1.89-9.18,2.19-13.91,0.82c-5.23-1.51-9.53-4.47-13.07-8.58c-2.43-2.82-4.3-5.97-5.45-9.51c-1.4-4.3-1.38-8.6,0.07-12.89
			c0.41-1.22,1-2.35,1.83-3.34c1.98-2.38,4.5-3.4,7.57-2.94c2.51,0.38,4.63,1.52,6.25,3.5c2.15,2.62,3.53,5.59,3.95,8.98
			c0.02,0.14,0.04,0.29,0.05,0.43c0.04,0.99-0.59,1.79-1.55,1.95c-0.94,0.16-1.83-0.38-2.11-1.33c-0.1-0.35-0.15-0.71-0.21-1.07
			c-0.39-2.36-1.41-4.43-2.85-6.31c-1.07-1.4-2.5-2.2-4.25-2.43c-1.44-0.19-2.66,0.26-3.65,1.31c-0.66,0.7-1.1,1.54-1.43,2.44
			c-0.59,1.63-0.86,3.31-0.9,5.03c-0.06,2.75,0.6,5.35,1.76,7.82c2.27,4.82,5.67,8.61,10.29,11.3c1.14,0.66,2.34,1.19,3.58,1.63
			c4.8,1.71,9.46,1.35,13.98-0.96c2.87-1.47,5.23-3.56,7.15-6.15c0.17-0.23,0.31-0.48,0.49-0.77c-0.33-0.22-0.63-0.43-0.93-0.63
			c-3.8-2.58-6.7-5.92-8.54-10.15c-1.03-2.37-1.59-4.84-1.39-7.45c0.1-1.28,0.36-2.53,0.9-3.7c0.93-2.03,2.43-3.44,4.63-4.01
			c1.19-0.31,2.39-0.26,3.57,0.04c1.59,0.41,2.97,1.2,4.19,2.27c1.85,1.62,3.12,3.64,3.91,5.96c1.32,3.92,1.32,7.88,0.31,11.85
			c-0.34,1.34-0.81,2.64-1.24,4.04c0.14,0.07,0.31,0.18,0.5,0.24c1.83,0.56,3.7,0.84,5.61,0.72c1.97-0.12,3.77-0.77,5.47-1.76
			c2.6-1.52,3.76-3.88,3.85-6.81c0.09-2.73-0.89-5.14-2.33-7.39c-0.04-0.06-0.11-0.09-0.2-0.17c-0.06,0.26-0.14,0.49-0.18,0.73
			c-0.15,0.93-0.28,1.87-0.44,2.81c-0.06,0.36-0.12,0.73-0.26,1.06c-0.35,0.86-1.27,1.31-2.15,1.11c-0.81-0.19-1.44-0.99-1.43-1.85
			c0-0.33,0.06-0.65,0.11-0.98c0.37-2.45,0.74-4.9,1.13-7.34c0.07-0.43,0.15-0.87,0.29-1.28c0.33-0.99,1.07-1.45,2.1-1.35
			c0.29,0.03,0.58,0.08,0.86,0.14c2.65,0.51,5.29,1.03,7.94,1.54c0.25,0.05,0.5,0.09,0.75,0.17c1.03,0.31,1.61,1.19,1.43,2.15
			c-0.19,1.02-1.08,1.66-2.18,1.51c-0.79-0.11-1.58-0.28-2.37-0.43c-0.75-0.14-1.5-0.29-2.21-0.42c-0.22,0.29-0.03,0.46,0.07,0.63
			c0.9,1.47,1.66,3,2.15,4.65c0.84,2.79,0.98,5.58,0.1,8.39c-0.81,2.58-2.33,4.6-4.59,6.06c-3.45,2.23-7.22,3.02-11.29,2.46
			c-1.27-0.17-2.51-0.46-3.73-0.84C226.42,356.36,226.15,356.27,225.67,356.12z M224.11,351.04c0.14-0.31,0.28-0.56,0.38-0.82
			c0.55-1.43,0.95-2.91,1.16-4.43c0.36-2.59,0.28-5.16-0.59-7.66c-0.62-1.79-1.55-3.37-3.03-4.59c-0.71-0.59-1.49-1.05-2.39-1.28
			c-1.71-0.46-3.14,0.21-3.87,1.82c-0.33,0.74-0.49,1.52-0.57,2.32c-0.15,1.67,0.15,3.28,0.71,4.83c1.44,3.97,4.02,7.05,7.48,9.43
			C223.61,350.79,223.84,350.89,224.11,351.04z"/>
	</g>
	<g>
		<g>
			<path d="M232.56,168.86c-0.5,0.02-0.67,0.42-0.9,0.72c-0.82,1.12-1.72,2.16-2.79,3.05c-1.66,1.39-3.52,2.34-5.69,2.63
				c-2.05,0.28-3.96-0.12-5.76-1.09c-1.97-1.06-3.45-2.62-4.65-4.48c-1.53-2.38-2.47-4.99-2.93-7.76
				c-0.98-5.79-0.39-11.42,2.03-16.81c0.99-2.2,2.3-4.18,4.04-5.86c1.63-1.58,3.51-2.75,5.76-3.2c3.07-0.62,5.8,0.18,8.16,2.16
				c0.87,0.73,1.58,1.64,2.35,2.47c0.18,0.19,0.32,0.41,0.46,0.59c0.38-0.07,0.39-0.32,0.39-0.56c0.01-0.53-0.01-1.06,0.02-1.59
				c0.05-0.98,0.3-1.22,1.26-1.23c0.5-0.01,1.01-0.02,1.51,0.02c0.72,0.05,0.87,0.22,0.92,0.93c0.01,0.18,0.01,0.37,0.01,0.56
				c-0.07,10.88-0.14,21.76-0.22,32.63c0,0.48,0,0.96-0.03,1.43c-0.05,0.81-0.26,1.02-1.08,1.07c-0.55,0.03-1.12,0.02-1.67-0.02
				c-0.7-0.05-0.88-0.23-0.9-0.95c-0.03-1.19-0.01-2.39-0.01-3.58C232.85,169.59,232.86,169.19,232.56,168.86z M232.47,154.48
				c-0.08-1.08-0.12-2.17-0.24-3.25c-0.3-2.61-1.01-5.09-2.36-7.36c-0.78-1.31-1.75-2.47-3.05-3.3c-1.81-1.16-3.71-1.32-5.69-0.46
				c-1.01,0.44-1.88,1.08-2.66,1.85c-1.52,1.49-2.61,3.27-3.43,5.21c-1.79,4.23-2.29,8.64-1.69,13.17c0.33,2.46,1.04,4.82,2.32,6.97
				c0.74,1.24,1.64,2.35,2.84,3.18c1.96,1.36,4.02,1.53,6.17,0.5c0.99-0.47,1.85-1.14,2.61-1.92c1.13-1.15,2.01-2.46,2.72-3.9
				C231.67,161.8,232.41,158.23,232.47,154.48z"/>
			<path d="M182.88,151.88c-1.61,0-1.84,0.23-1.87,1.86c-0.07,4.01,0.72,7.82,2.63,11.36c1.05,1.95,2.4,3.66,4.21,4.96
				c1.73,1.24,3.63,1.91,5.79,1.68c1.47-0.16,2.75-0.75,3.91-1.65c1.42-1.11,2.48-2.52,3.3-4.11c1.19-2.33,1.78-4.82,2-7.42
				c0.01-0.13,0.01-0.26,0.03-0.39c0.08-0.94,0.25-1.13,1.19-1.18c0.52-0.03,1.04-0.02,1.56-0.02c0.43,0,0.7,0.23,0.72,0.66
				c0.02,0.65,0.05,1.3-0.01,1.94c-0.32,3.28-1.24,6.38-2.95,9.22c-0.95,1.57-2.11,2.98-3.58,4.09c-3.9,2.93-8.05,3.29-12.39,1.08
				c-2.32-1.18-4.13-2.97-5.62-5.09c-1.97-2.82-3.2-5.95-3.84-9.32c-0.86-4.54-0.67-9.02,0.86-13.41c1.05-3,2.64-5.68,5.17-7.68
				c3.8-3,7.92-3.45,12.29-1.36c1.98,0.95,3.61,2.37,4.99,4.07c2.14,2.63,3.61,5.58,4.18,8.95c0.17,1.02-0.2,1.6-1.37,1.59
				C200.49,151.68,186.37,151.88,182.88,151.88z M197.98,148.15c0.65,0,1.3-0.01,1.95-0.02c1.14-0.02,1.28-0.21,0.72-1.24
				c-0.56-1.03-1.16-2.04-1.83-2.99c-0.96-1.35-2.17-2.46-3.6-3.3c-3.17-1.85-6.57-1.52-9.33,0.9c-1.6,1.41-2.69,3.17-3.46,5.13
				c-0.13,0.33-0.2,0.7-0.23,1.06c-0.04,0.43,0.1,0.54,0.54,0.59c0.13,0.01,0.26,0.01,0.39,0.01
				C185.95,148.3,195.85,148.15,197.98,148.15z"/>
			<path d="M249.09,165.61c0.03,1.12,0.12,2.25,0.29,3.37c0.19,1.28,0.81,2.25,2.14,2.67c0.71,0.22,0.77,0.41,0.7,1.19
				c-0.04,0.44-0.11,0.87-0.18,1.31c-0.14,0.86-0.52,1.16-1.37,1.01c-1.38-0.24-2.58-0.85-3.36-2.04c-0.44-0.68-0.79-1.45-1.05-2.23
				c-0.52-1.58-0.76-3.22-0.81-4.87c-0.12-3.71-0.17-7.43-0.25-11.15c-0.01-0.28,0-0.55-0.02-0.83c-0.05-0.64-0.17-0.77-0.81-0.78
				c-1.13-0.01-2.26,0-3.39-0.01c-1.06,0-1.17-0.12-1.18-1.19c-0.01-0.61-0.02-1.21,0.02-1.82c0.04-0.65,0.22-0.82,0.87-0.82
				c1.18-0.01,2.37,0.01,3.55,0c0.8,0,0.83-0.03,0.82-0.84c-0.05-3.55-0.1-7.1-0.14-10.66c0-0.38,0.03-0.77,0.08-1.15
				c0.06-0.47,0.34-0.76,0.82-0.77c0.74-0.01,1.49,0.01,2.23,0.03c0.36,0.01,0.54,0.26,0.6,0.58c0.05,0.27,0.04,0.55,0.04,0.82
				c0.05,3.61,0.1,7.21,0.15,10.82c0,0.17,0,0.33,0.02,0.5c0.06,0.52,0.19,0.66,0.74,0.67c1.1,0.02,2.2,0.01,3.3,0.01
				c0.25,0,0.5-0.01,0.74,0.01c0.57,0.06,0.81,0.25,0.85,0.81c0.05,0.74,0.08,1.49,0.06,2.23c-0.01,0.65-0.13,0.76-0.8,0.77
				c-1.24,0.01-2.48,0-3.72,0c-0.19,0-0.39,0-0.58,0.01c-0.33,0.01-0.5,0.2-0.53,0.52c-0.02,0.22-0.01,0.44-0.01,0.66
				C248.95,156.47,249.04,163.9,249.09,165.61z"/>
		</g>
		<g>
			<path d="M165.24,298.43c-1.61,0-1.84,0.23-1.87,1.86c-0.07,4.01,0.72,7.82,2.63,11.36c1.05,1.95,2.4,3.66,4.21,4.96
				c1.73,1.24,3.63,1.91,5.79,1.68c1.47-0.16,2.75-0.75,3.91-1.65c1.42-1.11,2.48-2.52,3.3-4.11c1.19-2.33,1.78-4.82,2-7.42
				c0.01-0.13,0.01-0.26,0.03-0.39c0.08-0.94,0.25-1.13,1.19-1.18c0.52-0.03,1.04-0.02,1.56-0.02c0.43,0,0.7,0.23,0.72,0.66
				c0.02,0.65,0.05,1.3-0.01,1.94c-0.32,3.28-1.24,6.38-2.95,9.22c-0.95,1.57-2.11,2.98-3.58,4.09c-3.9,2.93-8.05,3.29-12.39,1.08
				c-2.32-1.18-4.13-2.97-5.62-5.09c-1.97-2.82-3.2-5.95-3.84-9.32c-0.86-4.54-0.67-9.02,0.86-13.41c1.05-3,2.64-5.68,5.17-7.68
				c3.8-3,7.92-3.45,12.29-1.36c1.98,0.95,3.61,2.37,4.99,4.07c2.14,2.63,3.61,5.58,4.18,8.95c0.17,1.02-0.2,1.6-1.37,1.59
				C182.85,298.23,168.73,298.43,165.24,298.43z M180.34,294.7c0.65,0,1.3-0.01,1.95-0.02c1.14-0.02,1.28-0.21,0.72-1.24
				c-0.56-1.03-1.16-2.04-1.83-2.99c-0.96-1.35-2.17-2.46-3.6-3.3c-3.17-1.85-6.57-1.52-9.33,0.9c-1.6,1.41-2.69,3.17-3.46,5.13
				c-0.13,0.33-0.2,0.7-0.23,1.06c-0.04,0.43,0.1,0.54,0.54,0.59c0.13,0.01,0.26,0.01,0.39,0.01
				C168.31,294.85,178.21,294.71,180.34,294.7z"/>
			<path d="M221.44,298.43c-1.61,0-1.84,0.23-1.87,1.86c-0.07,4.01,0.72,7.82,2.63,11.36c1.05,1.95,2.4,3.66,4.21,4.96
				c1.73,1.24,3.63,1.91,5.79,1.68c1.47-0.16,2.75-0.75,3.91-1.65c1.42-1.11,2.48-2.52,3.3-4.11c1.19-2.33,1.78-4.82,2-7.42
				c0.01-0.13,0.01-0.26,0.03-0.39c0.08-0.94,0.25-1.13,1.19-1.18c0.52-0.03,1.04-0.02,1.56-0.02c0.43,0,0.7,0.23,0.72,0.66
				c0.02,0.65,0.05,1.3-0.01,1.94c-0.32,3.28-1.24,6.38-2.95,9.22c-0.95,1.57-2.11,2.98-3.58,4.09c-3.9,2.93-8.05,3.29-12.39,1.08
				c-2.32-1.18-4.13-2.97-5.62-5.09c-1.97-2.82-3.2-5.95-3.84-9.32c-0.86-4.54-0.67-9.02,0.86-13.41c1.05-3,2.64-5.68,5.17-7.68
				c3.8-3,7.92-3.45,12.29-1.36c1.98,0.95,3.61,2.37,4.99,4.07c2.14,2.63,3.61,5.58,4.18,8.95c0.17,1.02-0.2,1.6-1.37,1.59
				C239.05,298.23,224.93,298.43,221.44,298.43z M236.55,294.7c0.65,0,1.3-0.01,1.95-0.02c1.14-0.02,1.28-0.21,0.72-1.24
				c-0.56-1.03-1.16-2.04-1.83-2.99c-0.96-1.35-2.17-2.46-3.6-3.3c-3.17-1.85-6.57-1.52-9.33,0.9c-1.6,1.41-2.69,3.17-3.46,5.13
				c-0.13,0.33-0.2,0.7-0.23,1.06c-0.04,0.43,0.1,0.54,0.54,0.59c0.13,0.01,0.26,0.01,0.39,0.01
				C224.51,294.85,234.41,294.71,236.55,294.7z"/>
			<path d="M191.14,285.11c0-1.39,0.09-1.48,1.48-1.51c0.52-0.01,1.04,0.02,1.56,0.02c0.4,0,0.68,0.14,0.8,0.56
				c0.05,0.18,0.13,0.36,0.24,0.52c0.29,0.43,0.61,0.49,1.04,0.2c0.16-0.11,0.29-0.24,0.44-0.37c3.24-2.62,7.52-2.83,10.99-0.52
				c2.19,1.46,3.71,3.46,4.67,5.88c1.62,4.08,1.62,8.16-0.2,12.19c-0.74,1.64-1.83,3.04-3.26,4.16c-3.03,2.37-6.9,2.68-10.22,0.73
				c-0.91-0.53-1.69-1.28-2.53-1.94c-0.19-0.15-0.35-0.35-0.56-0.47c-0.3-0.17-0.55-0.04-0.6,0.29c-0.04,0.24-0.02,0.49-0.02,0.74
				c0.01,4.95,0.03,9.9,0.04,14.85c0,1.45-0.01,1.46-1.46,1.45c-0.52,0-1.04,0-1.56-0.03c-0.56-0.03-0.72-0.18-0.8-0.74
				c-0.04-0.3-0.03-0.6-0.03-0.9C191.18,314.38,191.14,290.96,191.14,285.11z M209.72,295.76c-0.02-2.15-0.55-4.19-1.71-6.04
				c-0.72-1.15-1.65-2.11-2.85-2.77c-2-1.1-4.2-0.92-5.99,0.51c-0.94,0.75-1.65,1.69-2.11,2.78c-1.62,3.87-1.3,7.58,0.99,11.1
				c0.63,0.97,1.48,1.75,2.5,2.33c2.12,1.2,4.49,0.95,6.31-0.68c0.77-0.68,1.36-1.5,1.8-2.42
				C209.39,299.05,209.7,297.45,209.72,295.76z"/>
			<path d="M143.1,286.96c0.18-0.2,0.37-0.4,0.55-0.6c1.73-1.89,3.79-3.23,6.32-3.75c2.16-0.44,4.26-0.13,6.29,0.62
				c0.93,0.34,1.83,0.8,2.71,1.26c0.88,0.46,1,0.89,0.55,1.75c-0.23,0.44-0.48,0.87-0.75,1.29c-0.48,0.75-0.64,0.79-1.42,0.42
				c-0.48-0.23-0.92-0.53-1.41-0.7c-0.93-0.34-1.87-0.7-2.84-0.88c-2.09-0.39-3.94,0.25-5.57,1.58c-1.5,1.23-2.47,2.82-3.17,4.6
				c-0.68,1.72-0.92,3.53-1.15,5.34c-0.36,2.79-0.31,5.59-0.3,8.39c0.01,4.6,0,9.21,0,13.81c0,1.58,0,1.8-1.89,1.81
				c-1.66,0.01-1.84-0.2-1.92-1.87c-0.02-0.36-0.02-0.72-0.02-1.08c0-11.31,0.01-22.63,0.01-33.94c0-0.33,0.01-0.67,0.07-0.99
				c0.11-0.56,0.33-0.79,0.88-0.83c0.69-0.04,1.39-0.04,2.08,0.01c0.55,0.04,0.76,0.29,0.79,0.88c0.03,0.64,0.02,1.27,0.02,1.91
				c0,0.3,0,0.6,0,0.89C142.98,286.92,143.04,286.94,143.1,286.96z"/>
			<path d="M270.9,315.41c-0.5,0.02-0.67,0.42-0.9,0.72c-0.82,1.12-1.72,2.16-2.79,3.05c-1.66,1.39-3.52,2.34-5.69,2.63
				c-2.05,0.28-3.96-0.12-5.76-1.09c-1.97-1.06-3.45-2.62-4.65-4.48c-1.53-2.38-2.47-4.99-2.93-7.76
				c-0.98-5.79-0.39-11.42,2.03-16.81c0.99-2.2,2.3-4.18,4.04-5.86c1.63-1.58,3.51-2.75,5.76-3.2c3.07-0.62,5.8,0.18,8.16,2.16
				c0.87,0.73,1.58,1.64,2.35,2.47c0.18,0.19,0.32,0.41,0.46,0.59c0.38-0.07,0.39-0.32,0.39-0.56c0.01-0.53-0.01-1.06,0.02-1.59
				c0.05-0.98,0.3-1.22,1.26-1.23c0.5-0.01,1.01-0.02,1.51,0.02c0.72,0.05,0.87,0.22,0.92,0.93c0.01,0.18,0.01,0.37,0.01,0.56
				c-0.07,10.88-0.14,21.76-0.22,32.63c0,0.48,0,0.96-0.03,1.43c-0.05,0.81-0.26,1.02-1.08,1.07c-0.55,0.03-1.12,0.02-1.67-0.02
				c-0.7-0.05-0.88-0.23-0.9-0.95c-0.03-1.19-0.01-2.39-0.01-3.58C271.19,316.14,271.2,315.74,270.9,315.41z M270.81,301.03
				c-0.08-1.08-0.12-2.17-0.24-3.25c-0.3-2.61-1.01-5.09-2.36-7.36c-0.78-1.31-1.75-2.47-3.05-3.3c-1.81-1.16-3.71-1.32-5.69-0.46
				c-1.01,0.44-1.88,1.08-2.66,1.85c-1.52,1.49-2.61,3.27-3.43,5.21c-1.79,4.23-2.29,8.64-1.69,13.17c0.33,2.46,1.04,4.82,2.32,6.97
				c0.74,1.24,1.64,2.35,2.84,3.18c1.96,1.36,4.02,1.53,6.17,0.5c0.99-0.47,1.85-1.14,2.61-1.92c1.13-1.15,2.01-2.46,2.72-3.9
				C270.01,308.35,270.75,304.78,270.81,301.03z"/>
			<path d="M287.43,312.16c0.03,1.12,0.12,2.25,0.29,3.37c0.19,1.28,0.81,2.25,2.14,2.67c0.71,0.22,0.77,0.41,0.7,1.19
				c-0.04,0.44-0.11,0.87-0.18,1.31c-0.14,0.86-0.52,1.16-1.37,1.01c-1.38-0.24-2.58-0.85-3.36-2.04c-0.44-0.68-0.79-1.45-1.05-2.23
				c-0.52-1.58-0.76-3.22-0.81-4.87c-0.12-3.71-0.17-7.43-0.25-11.15c-0.01-0.28,0-0.55-0.02-0.83c-0.05-0.64-0.17-0.77-0.81-0.78
				c-1.13-0.01-2.26,0-3.39-0.01c-1.06,0-1.17-0.12-1.18-1.19c-0.01-0.61-0.02-1.21,0.02-1.82c0.04-0.65,0.22-0.82,0.87-0.82
				c1.18-0.01,2.37,0.01,3.55,0c0.8,0,0.83-0.03,0.82-0.84c-0.05-3.55-0.1-7.1-0.14-10.66c0-0.38,0.03-0.77,0.08-1.15
				c0.06-0.47,0.34-0.76,0.82-0.77c0.74-0.01,1.49,0.01,2.23,0.03c0.36,0.01,0.54,0.26,0.6,0.58c0.05,0.27,0.04,0.55,0.04,0.82
				c0.05,3.61,0.1,7.21,0.15,10.82c0,0.17,0,0.33,0.02,0.5c0.06,0.52,0.19,0.66,0.74,0.67c1.1,0.02,2.2,0.01,3.3,0.01
				c0.25,0,0.5-0.01,0.74,0.01c0.57,0.06,0.81,0.25,0.85,0.81c0.05,0.74,0.08,1.49,0.06,2.23c-0.01,0.65-0.13,0.76-0.8,0.77
				c-1.24,0.01-2.48,0-3.72,0c-0.19,0-0.39,0-0.58,0.01c-0.33,0.01-0.5,0.2-0.53,0.52c-0.02,0.22-0.01,0.44-0.01,0.66
				C287.29,303.02,287.38,310.45,287.43,312.16z"/>
		</g>
		<g>
			<path d="M194.16,198.52c-1.61,0-1.84,0.23-1.87,1.86c-0.07,4.01,0.72,7.82,2.63,11.36c1.05,1.95,2.4,3.66,4.21,4.96
				c1.73,1.24,3.63,1.91,5.79,1.68c1.47-0.16,2.75-0.75,3.91-1.65c1.42-1.11,2.48-2.52,3.3-4.11c1.19-2.33,1.78-4.82,2-7.42
				c0.01-0.13,0.01-0.26,0.03-0.39c0.08-0.94,0.25-1.13,1.19-1.18c0.52-0.03,1.04-0.02,1.56-0.02c0.43,0,0.7,0.23,0.72,0.66
				c0.02,0.65,0.05,1.3-0.01,1.94c-0.32,3.28-1.24,6.38-2.95,9.22c-0.95,1.57-2.11,2.98-3.58,4.09c-3.9,2.93-8.05,3.29-12.39,1.08
				c-2.32-1.18-4.13-2.97-5.62-5.09c-1.97-2.82-3.2-5.95-3.84-9.32c-0.86-4.54-0.67-9.02,0.86-13.41c1.05-3,2.64-5.68,5.17-7.68
				c3.8-3,7.92-3.45,12.29-1.36c1.98,0.95,3.61,2.37,4.99,4.07c2.14,2.63,3.61,5.58,4.18,8.95c0.17,1.02-0.2,1.6-1.37,1.59
				C211.78,198.32,197.66,198.51,194.16,198.52z M209.27,194.79c0.65,0,1.3-0.01,1.95-0.02c1.14-0.02,1.28-0.21,0.72-1.24
				c-0.56-1.03-1.16-2.04-1.83-2.99c-0.96-1.35-2.17-2.46-3.6-3.3c-3.17-1.85-6.57-1.52-9.33,0.9c-1.6,1.41-2.69,3.17-3.46,5.13
				c-0.13,0.33-0.2,0.7-0.23,1.06c-0.04,0.43,0.1,0.54,0.54,0.59c0.13,0.01,0.26,0.01,0.39,0.01
				C197.23,194.93,207.13,194.79,209.27,194.79z"/>
			<path d="M225.98,198.52c-1.61,0-1.84,0.23-1.87,1.86c-0.07,4.01,0.72,7.82,2.63,11.36c1.05,1.95,2.4,3.66,4.21,4.96
				c1.73,1.24,3.63,1.91,5.79,1.68c1.47-0.16,2.75-0.75,3.91-1.65c1.42-1.11,2.48-2.52,3.3-4.11c1.19-2.33,1.78-4.82,2-7.42
				c0.01-0.13,0.01-0.26,0.03-0.39c0.08-0.94,0.25-1.13,1.19-1.18c0.52-0.03,1.04-0.02,1.56-0.02c0.43,0,0.7,0.23,0.72,0.66
				c0.02,0.65,0.05,1.3-0.01,1.94c-0.32,3.28-1.24,6.38-2.95,9.22c-0.95,1.57-2.11,2.98-3.58,4.09c-3.9,2.93-8.05,3.29-12.39,1.08
				c-2.32-1.18-4.13-2.97-5.62-5.09c-1.97-2.82-3.2-5.95-3.84-9.32c-0.86-4.54-0.67-9.02,0.86-13.41c1.05-3,2.64-5.68,5.17-7.68
				c3.8-3,7.92-3.45,12.29-1.36c1.98,0.95,3.61,2.37,4.99,4.07c2.14,2.63,3.61,5.58,4.18,8.95c0.17,1.02-0.2,1.6-1.37,1.59
				C243.59,198.32,229.47,198.51,225.98,198.52z M241.08,194.79c0.65,0,1.3-0.01,1.95-0.02c1.14-0.02,1.28-0.21,0.72-1.24
				c-0.56-1.03-1.16-2.04-1.83-2.99c-0.96-1.35-2.17-2.46-3.6-3.3c-3.17-1.85-6.57-1.52-9.33,0.9c-1.6,1.41-2.69,3.17-3.46,5.13
				c-0.13,0.33-0.2,0.7-0.23,1.06c-0.04,0.43,0.1,0.54,0.54,0.59c0.13,0.01,0.26,0.01,0.39,0.01
				C229.05,194.93,238.95,194.79,241.08,194.79z"/>
			<path d="M251.89,185.2c0-1.39,0.09-1.48,1.48-1.51c0.52-0.01,1.04,0.02,1.56,0.02c0.4,0,0.68,0.14,0.8,0.56
				c0.05,0.18,0.13,0.36,0.24,0.52c0.29,0.43,0.61,0.49,1.04,0.2c0.16-0.11,0.29-0.24,0.44-0.37c3.24-2.62,7.52-2.83,10.99-0.52
				c2.19,1.46,3.71,3.46,4.67,5.88c1.62,4.08,1.62,8.16-0.2,12.19c-0.74,1.64-1.83,3.04-3.26,4.16c-3.03,2.37-6.9,2.68-10.22,0.73
				c-0.91-0.53-1.69-1.28-2.53-1.94c-0.19-0.15-0.35-0.35-0.56-0.47c-0.3-0.17-0.55-0.04-0.6,0.29c-0.04,0.24-0.02,0.49-0.02,0.74
				c0.01,4.95,0.03,9.9,0.04,14.85c0,1.45-0.01,1.46-1.46,1.45c-0.52,0-1.04,0-1.56-0.03c-0.56-0.03-0.72-0.18-0.8-0.74
				c-0.04-0.3-0.03-0.6-0.03-0.9C251.92,214.46,251.89,191.05,251.89,185.2z M270.46,195.84c-0.02-2.15-0.55-4.19-1.71-6.04
				c-0.72-1.15-1.65-2.11-2.85-2.77c-2-1.1-4.2-0.92-5.99,0.51c-0.94,0.75-1.65,1.69-2.11,2.78c-1.62,3.87-1.3,7.58,0.99,11.1
				c0.63,0.97,1.48,1.75,2.5,2.33c2.12,1.2,4.49,0.95,6.31-0.68c0.77-0.68,1.36-1.5,1.8-2.42
				C270.13,199.14,270.44,197.54,270.46,195.84z"/>
			<path d="M168.74,221.97c-0.8,0.08-1.61,0.06-2.42-0.04c-0.35-0.04-0.7-0.09-1.05-0.17c-3.47-0.72-5.59-2.96-6.71-6.2
				c-0.66-1.91-0.85-3.91-0.86-5.92c-0.01-0.87,0.27-1.18,1.12-1.23c0.48-0.03,0.98-0.01,1.46,0.06c0.61,0.09,1.07,0.61,1.12,1.23
				c0.1,1.04,0.2,2.08,0.32,3.11c0.05,0.38,0.13,0.77,0.24,1.14c0.99,3.28,2.89,4.27,5.56,4.33c0.9,0.02,1.82-0.12,2.7-0.34
				c2.71-0.7,4.63-3.45,4.29-6.23c-0.19-1.55-0.73-2.96-1.62-4.24c-1.12-1.62-2.51-2.98-4.06-4.17c-0.91-0.7-1.89-1.3-2.79-2.01
				c-1.42-1.12-2.87-2.22-4.19-3.46c-1.54-1.45-2.6-3.23-3.07-5.33c-0.99-4.45,1.75-9.35,6.89-9.98c4.32-0.53,8.1,2.23,9,6.72
				c0.26,1.3,0.35,2.64,0.46,3.97c0.07,0.78-0.14,1.01-0.93,1.08c-0.56,0.05-1.12,0.08-1.68,0.05c-0.86-0.05-1.04-0.25-1.12-1.13
				c-0.07-0.77-0.1-1.55-0.22-2.31c-0.1-0.65-0.24-1.32-0.47-1.94c-0.71-1.93-2.51-2.95-4.66-2.71c-1.93,0.21-3.39,1.68-3.67,3.67
				c-0.21,1.48,0.22,2.8,1.04,4.01c0.65,0.96,1.45,1.78,2.36,2.49c1.12,0.87,2.25,1.72,3.4,2.53c2.64,1.85,5.09,3.89,6.91,6.6
				c1.31,1.95,2.09,4.09,2.16,6.44c0.14,5-3.41,9.17-8.35,9.86C169.51,221.89,169.14,221.93,168.74,221.97z"/>
			<path d="M182.63,182.55c0.3,0,0.61-0.02,0.91,0c0.59,0.05,0.77,0.23,0.82,0.82c0.01,0.11,0.01,0.22,0.01,0.33
				c0.12,8.87,0.23,17.73,0.36,26.6c0.02,1.49,0.07,2.99,0.17,4.48c0.04,0.57,0.19,1.15,0.36,1.7c0.26,0.87,0.83,1.47,1.7,1.8
				c1.01,0.38,1.05,0.48,0.93,1.53c-0.04,0.38-0.1,0.77-0.17,1.15c-0.14,0.8-0.53,1.09-1.35,0.95c-1.39-0.24-2.6-0.85-3.39-2.05
				c-0.45-0.69-0.8-1.46-1.06-2.24c-0.53-1.58-0.73-3.24-0.82-4.9c-0.1-1.94-0.16-3.88-0.2-5.81c-0.08-4.52-0.14-9.03-0.2-13.55
				c-0.04-2.99-0.08-5.98-0.12-8.98c0-0.38,0.05-0.77,0.1-1.15c0.06-0.45,0.35-0.69,0.79-0.71c0.39-0.02,0.77,0,1.16,0
				C182.63,182.53,182.63,182.54,182.63,182.55z"/>
		</g>
		<g>
			<path d="M194.76,271.27c0.35-0.59,0.43-1.26,0.52-1.9c0.35-2.5,0.69-5,0.97-7.51c0.3-2.66,0.52-5.33,0.8-8
				c0.06-0.62,0.06-1.23,0.01-1.86c-0.33-4.26-0.06-8.46,1.29-12.55c0.53-1.59,1.19-3.12,2.14-4.51c1.54-2.26,3.62-3.73,6.33-4.21
				c3.71-0.65,6.82,0.79,8.53,4.19c0.55,1.09,0.88,2.25,0.96,3.46c0.27,3.93-0.86,7.45-3.25,10.56c-1.71,2.23-4.05,3.32-6.82,3.55
				c-0.86,0.07-1.7-0.09-2.54-0.25c-0.18-0.03-0.36-0.07-0.61-0.12c0,0.33-0.03,0.6,0.01,0.86c0.35,2.43,0.92,4.8,1.69,7.13
				c0.94,2.86,2.35,5.49,4,8c0.49,0.75,1.05,1.45,1.79,1.97c0.48,0.34,0.74,0.32,1.09-0.14c0.35-0.46,0.68-0.95,0.96-1.46
				c0.72-1.3,1.19-2.69,1.61-4.11c1.31-4.43,2.38-8.93,3.39-13.43c0.09-0.41,0.11-0.85,0.11-1.27c-0.01-2.61,0.16-5.2,0.48-7.79
				c0.1-0.85,0.28-1.68,0.47-2.52c0.09-0.41,0.25-0.82,0.44-1.2c0.66-1.31,1.96-1.95,3.39-1.69c0.84,0.15,1.41,0.68,1.56,1.51
				c0.07,0.38,0.09,0.77,0.06,1.16c-0.15,2.21-0.33,4.42-0.48,6.62c-0.04,0.62-0.01,1.24-0.01,1.97c0.21-0.48,0.3-0.89,0.38-1.31
				c0.58-2.86,1.31-5.67,2.33-8.41c0.56-1.5,1.22-2.95,2.22-4.21c0.45-0.58,0.96-1.13,1.52-1.6c0.95-0.81,2.09-1.18,3.34-1.13
				c1.82,0.07,3.19,0.89,4.09,2.47c0.56,1,0.83,2.09,0.95,3.22c0.22,1.97,0.23,3.95,0.13,5.94c-0.2,3.96-0.41,7.91-0.57,11.87
				c-0.07,1.75-0.07,3.5-0.04,5.24c0.03,1.36,0.12,2.72,0.26,4.07c0.19,1.78,0.43,3.55,0.7,5.31c0.12,0.76,0.27,1.53,0.75,2.17
				c0.41-0.15,0.49-0.52,0.61-0.83c0.35-0.86,0.67-1.74,0.96-2.62c1.16-3.58,2.13-7.22,3.07-10.87c0.17-0.66,0.18-1.29,0.12-1.96
				c-0.36-3.89-0.33-7.76,0.56-11.59c0.54-2.32,1.3-4.55,2.53-6.61c0.75-1.24,1.66-2.34,2.77-3.28c0.81-0.68,1.71-1.23,2.73-1.52
				c2.15-0.61,4.09-0.17,5.75,1.33c0.6,0.54,1.12,1.19,1.56,1.87c1.47,2.27,1.94,4.8,1.76,7.46c-0.05,0.65-0.3,0.92-0.8,0.95
				c-0.36,0.02-0.62-0.11-0.75-0.43c-0.08-0.21-0.13-0.45-0.18-0.67c-0.15-0.72-0.27-1.45-0.45-2.17c-0.4-1.6-1.05-3.09-2.1-4.38
				c-0.39-0.47-0.85-0.92-1.35-1.27c-0.9-0.63-1.42-0.54-2.1,0.31c-0.34,0.42-0.63,0.89-0.88,1.37c-1.68,3.19-2.8,6.57-3.18,10.17
				c-0.65,6.1,0.08,12.02,2.41,17.7c0.87,2.11,1.94,4.15,2.97,6.19c0.33,0.65,0.79,1.24,1.24,1.82c0.31,0.39,0.68,0.75,1.23,0.87
				c0.44-0.4,0.67-0.94,0.86-1.49c0.62-1.76,1.26-3.51,1.8-5.29c1.21-4.02,2.1-8.12,3.05-12.2c0.22-0.95,0.42-1.9,0.64-2.84
				c0.28-1.21,0.43-2.44,0.54-3.68c0.26-2.95,0.85-5.84,1.86-8.63c0.61-1.69,1.44-3.27,2.55-4.69c1.56-2,3.58-3.31,6.07-3.85
				c3-0.65,6.03,0.57,7.73,3.12c1.2,1.8,1.78,3.81,1.67,5.96c-0.22,4.55-2.23,8.19-5.86,10.91c-1.76,1.32-3.81,1.91-6.03,1.78
				c-0.73-0.05-1.44-0.23-2.24-0.36c-0.03,0.22-0.09,0.43-0.08,0.65c0.19,4.64,0.85,9.2,2.62,13.54c0.54,1.33,0.99,2.69,1.72,3.95
				c0.5,0.86,1.17,1.55,2.03,2.04c0.69,0.4,1,0.36,1.48-0.31c0.31-0.44,0.56-0.93,0.76-1.43c0.55-1.33,0.85-2.74,1.11-4.16
				c0.51-2.75,0.71-5.54,0.93-8.33c0.06-0.74,0.11-1.47,0.23-2.2c0.11-0.69,0.64-1.07,1.32-1.07c0.45,0,0.73,0.24,0.79,0.69
				c0.02,0.19,0.02,0.39,0.02,0.58c-0.03,4.01-0.31,8-1.18,11.92c-0.23,1.02-0.56,2.02-0.88,3.01c-0.25,0.78-0.68,1.48-1.19,2.12
				c-1.39,1.79-3.21,2.36-5.39,1.86c-1.88-0.42-3.46-1.37-4.74-2.8c-1.31-1.46-2.32-3.1-3-4.95c-1.02-2.78-1.64-5.66-2.06-8.59
				c-0.02-0.15-0.05-0.3-0.1-0.66c-0.17,0.41-0.29,0.63-0.35,0.87c-0.79,3.4-1.54,6.82-2.36,10.21c-0.3,1.24-0.71,2.46-1.14,3.66
				c-0.22,0.61-0.53,1.22-0.91,1.75c-1.09,1.5-2.59,2.05-4.4,1.68c-1.65-0.34-3.02-1.2-4.23-2.33c-1.49-1.39-2.67-3.02-3.58-4.85
				c-1.05-2.13-1.87-4.35-2.51-6.64c-0.06-0.22-0.15-0.44-0.23-0.65c-0.01-0.03-0.06-0.05-0.16-0.12c-0.11,0.37-0.22,0.71-0.32,1.06
				c-0.7,2.46-1.38,4.93-2.1,7.39c-0.18,0.63-0.4,1.26-0.7,1.85c-0.27,0.55-0.61,1.09-1.02,1.54c-1.21,1.3-3.2,1.46-4.54,0.35
				c-0.56-0.47-1.08-1.01-1.52-1.6c-1.33-1.77-2.17-3.78-2.48-5.96c-0.24-1.65-0.4-3.32-0.46-4.98c-0.11-3.11-0.04-6.21,0.12-9.32
				c0.18-3.49,0.33-6.98,0.43-10.48c0.04-1.47-0.06-2.95-0.14-4.42c-0.04-0.65-0.13-1.31-0.49-1.97c-0.21,0.15-0.41,0.25-0.56,0.4
				c-0.89,0.89-1.53,1.96-2.07,3.08c-0.98,2.04-1.63,4.2-2.19,6.38c-0.92,3.58-1.47,7.22-1.72,10.92
				c-0.24,3.57-0.25,7.14-0.02,10.71c0.08,1.24,0.12,2.48,0.23,3.72c0.14,1.59-1.41,2.52-2.5,2.48c-0.48-0.02-0.91-0.22-1.2-0.62
				c-0.16-0.22-0.3-0.45-0.42-0.69c-1.26-2.39-2.11-4.92-2.56-7.58c-0.28-1.65-0.5-3.3-0.74-4.95c-0.02-0.1-0.07-0.2-0.1-0.3
				c-0.3,0.01-0.29,0.24-0.33,0.42c-0.55,2.26-1.06,4.54-1.64,6.79c-0.32,1.24-0.72,2.46-1.14,3.66c-0.34,0.96-0.88,1.81-1.57,2.57
				c-1.65,1.79-3.92,2.32-6.16,1.37c-2.33-0.99-4.09-2.66-5.4-4.8c-1.04-1.7-1.84-3.5-2.51-5.37c-0.26-0.73-0.49-1.47-0.73-2.21
				c-0.07-0.22-0.13-0.43-0.41-0.65c-0.16,1.63-0.31,3.18-0.48,4.72c-0.23,2.16-0.46,4.33-0.73,6.48c-0.08,0.61-0.26,1.22-0.45,1.8
				c-0.24,0.72-0.73,1.29-1.39,1.66c-1.03,0.57-2.07,0.58-3.09-0.08c-0.73-0.48-1.28-1.13-1.78-1.83c-1.39-1.95-2.36-4.1-3.07-6.37
				c-0.61-1.93-0.95-3.92-1.18-5.93c-0.06-0.53-0.11-1.06-0.31-1.8c-0.17,0.54-0.29,0.86-0.38,1.19c-0.47,1.64-0.9,3.3-1.42,4.92
				c-0.32,0.99-0.75,1.95-1.2,2.9c-0.33,0.71-0.84,1.31-1.46,1.8c-1.53,1.23-3.21,1.49-5.02,0.7c-1.01-0.44-1.86-1.12-2.64-1.88
				c-1.58-1.54-2.77-3.35-3.67-5.35c-1.21-2.71-2.05-5.53-2.54-8.45c-0.21-1.26-0.34-2.54-0.51-3.81c-0.02-0.17-0.09-0.34-0.17-0.65
				c-1.4,1.69-2.71,3.26-4.07,4.89c0.21,0.36,0.41,0.73,0.63,1.09c1.24,2.08,2.24,4.26,2.8,6.63c1.26,5.29-2.1,10.54-7.44,11.58
				c-1.6,0.31-3.17,0.11-4.67-0.57c-1.03-0.47-1.8-1.2-2.38-2.16c-1.12-1.84-1.43-3.84-1.12-5.94c0.34-2.27,1.41-4.19,3-5.81
				c0.7-0.72,1.51-1.34,2.27-2c0.32-0.28,0.67-0.52,1.04-0.82c-0.14-0.26-0.23-0.51-0.38-0.72c-1.1-1.56-2.21-3.1-3.31-4.66
				c-1.03-1.46-2.08-2.91-3.07-4.39c-1.26-1.88-2.25-3.9-2.81-6.11c-0.82-3.2-0.2-6.08,1.92-8.62c1.11-1.33,2.5-2.19,4.24-2.46
				c1.37-0.22,2.63,0.06,3.79,0.78c2.38,1.46,3.53,3.63,3.66,6.39c0.04,0.86-0.05,1.71-0.24,2.54c-0.11,0.46-0.29,0.89-0.77,1.11
				c-0.53,0.24-1.14,0.07-1.19-0.63c-0.04-0.58-0.04-1.16-0.04-1.75c-0.01-1.1-0.24-2.15-0.69-3.16c-0.51-1.15-1.33-2-2.41-2.6
				c-0.2-0.11-0.42-0.21-0.64-0.28c-0.67-0.2-1.13-0.06-1.53,0.5c-0.51,0.71-0.78,1.52-0.87,2.38c-0.18,1.73,0.05,3.41,0.64,5.04
				c0.58,1.62,1.39,3.12,2.36,4.53c0.84,1.22,1.71,2.41,2.58,3.6c1.12,1.54,2.25,3.07,3.42,4.67c0.16-0.12,0.32-0.2,0.44-0.33
				c1.61-1.69,3.1-3.48,4.43-5.41c0.3-0.43,0.46-0.87,0.49-1.4c0.13-1.9,0.38-3.79,0.85-5.64c0.49-1.93,1.21-3.77,2.33-5.43
				c0.68-1,1.47-1.91,2.48-2.6c0.81-0.55,1.68-0.96,2.66-1.13c1.51-0.26,2.85,0.09,4.05,1.03c0.96,0.76,1.68,1.72,2.23,2.81
				c1.17,2.35,1.59,4.85,1.43,7.46c-0.02,0.26-0.08,0.54-0.19,0.78c-0.17,0.37-0.58,0.56-0.97,0.5c-0.33-0.05-0.57-0.28-0.65-0.72
				c-0.12-0.65-0.18-1.31-0.3-1.96c-0.27-1.5-0.72-2.95-1.42-4.3c-0.36-0.68-0.79-1.34-1.26-1.95c-0.3-0.39-0.72-0.71-1.13-0.99
				c-0.66-0.45-0.95-0.39-1.52,0.21c-0.57,0.6-0.93,1.33-1.22,2.1c-0.44,1.17-0.65,2.4-0.84,3.62c-0.23,1.53-0.43,3.08-0.61,4.62
				c-0.34,2.84-0.04,5.66,0.39,8.47c0.62,4.04,2.16,7.76,3.93,11.41c0.39,0.8,0.9,1.54,1.4,2.28c0.3,0.44,0.65,0.87,1.23,1.02
				c0.5-0.29,0.82-0.74,1.07-1.22c0.39-0.76,0.8-1.52,1.08-2.32c1.42-4.07,2.51-8.24,3.5-12.44c0.1-0.41,0.1-0.85,0.1-1.27
				c-0.02-3.03,0.15-6.06,0.46-9.07c0.13-1.31,0.39-2.61,0.64-3.9c0.09-0.45,0.27-0.9,0.49-1.3c0.67-1.19,2.13-1.79,3.39-1.44
				c0.96,0.27,1.48,0.82,1.5,1.82c0.02,1.12-0.05,2.25-0.13,3.37c-0.27,3.76-0.65,7.51-0.5,11.29c0.1,2.48,0.18,4.97,0.43,7.44
				c0.23,2.24,0.67,4.45,1.04,6.67c0.28,1.69,0.68,3.35,1.27,4.96C194.31,270.63,194.34,271.06,194.76,271.27z M270.85,249.66
				c1.98,1.24,3.94,1.2,5.92,0.21c1.24-0.62,2.21-1.56,3.02-2.68c1.18-1.62,1.97-3.42,2.4-5.38c0.3-1.34,0.36-2.69,0.12-4.04
				c-0.19-1.08-0.57-2.1-1.19-3.01c-0.4-0.58-0.88-1.09-1.51-1.43c-1.01-0.55-2.03-0.58-2.95,0.14c-0.57,0.45-1.12,0.98-1.53,1.57
				c-0.62,0.89-1.16,1.83-1.65,2.8c-1.08,2.13-1.67,4.42-2.1,6.75C271.08,246.25,270.83,247.89,270.85,249.66z M202.81,249.4
				c0.85,0.56,1.74,0.91,2.62,1.03c1.84,0.25,3.45-0.26,4.82-1.52c0.31-0.29,0.61-0.61,0.86-0.95c2.09-2.84,2.94-6.03,2.61-9.53
				c-0.09-0.97-0.38-1.9-0.85-2.76c-0.41-0.76-0.96-1.41-1.68-1.9c-0.98-0.67-2.01-0.73-3.08-0.2c-0.64,0.32-1.13,0.82-1.55,1.38
				c-0.78,1.02-1.38,2.15-1.87,3.34c-1.13,2.75-1.71,5.63-1.86,8.59C202.77,247.74,202.81,248.59,202.81,249.4z M158.12,258.95
				c-1.43,1.04-2.66,2.19-3.52,3.71c-0.81,1.45-1.03,2.99-0.78,4.61c0.17,1.1,0.63,2.07,1.5,2.82c0.86,0.74,2.56,1,3.38,0.42
				c1.1-0.78,1.95-1.76,2.15-3.18c0.12-0.9,0.07-1.78-0.15-2.65c-0.47-1.85-1.22-3.59-2.18-5.24
				C158.41,259.28,158.27,259.14,158.12,258.95z"/>
			<path d="M190.07,225.91c1.56-0.08,3.52,1.16,3.53,3.54c0.01,1.9-1.6,3.46-3.5,3.47c-1.95,0.01-3.56-1.61-3.53-3.56
				C186.6,227.43,188.14,225.91,190.07,225.91z"/>
		</g>
	</g>
</g>
</svg>
