<?xml version="1.0" encoding="utf-8"?>
<!-- Generator: Adobe Illustrator 25.2.1, SVG Export Plug-In . SVG Version: 6.00 Build 0)  -->
<svg version="1.1" id="Calque_1" xmlns="http://www.w3.org/2000/svg" xmlns:xlink="http://www.w3.org/1999/xlink" x="0px" y="0px"
	 viewBox="0 0 432 432" style="enable-background:new 0 0 432 432;" xml:space="preserve">
<style type="text/css">
	.st0{fill:#E0AAAF;}
	.st1{fill:#F9D53D;}
	.st2{fill:#FBB03B;}
	.st3{fill:#CCCCCC;}
	.st4{fill:#8CC63F;}
	.st5{fill:#C5D8A7;}
	.st6{fill:#C44750;}
	.st7{fill:#998675;}
	.st8{fill:#C7B299;}
	.st9{fill:none;}
	.st10{fill:#29ABE2;}
	.st11{fill:#B3B3B3;}
	.st12{fill:#C79C52;}
	.st13{fill:#65C8D0;}
	.st14{fill:#BA9BC9;}
	.st15{fill:#A57A7F;}
	.st16{fill:#FFFFFF;}
</style>
<g>
	<g>
		<g>
			<path class="st3" d="M240.85,112.96c0.03-0.62,0.02-1.06,0.07-1.5c0.1-0.8,0.65-1.34,1.37-1.4c0.69-0.05,1.33,0.39,1.5,1.06
				c0.07,0.25,0.09,0.53,0.09,0.79c0.04,1.6,0.07,3.19,0.1,4.79c0,0.18,0,0.36-0.02,0.53c-0.12,0.91-0.65,1.45-1.43,1.48
				c-0.79,0.03-1.37-0.47-1.53-1.37c-0.07-0.39-0.08-0.79-0.12-1.18c-0.53-0.24-1.07-0.14-1.59-0.14
				c-10.55,0.01-21.1,0.03-31.65,0.04c-4.79,0.01-9.57,0.03-14.36,0.04c-0.44,0-0.89,0.01-1.33-0.04c-0.71-0.08-1.23-0.57-1.33-1.28
				c-0.08-0.52-0.07-1.06-0.07-1.59c0-10.73,0-21.45,0-32.18c0-3.86,0-7.71,0-11.57c0-0.48,0.1-0.97-0.14-1.48
				c-0.24-0.03-0.5-0.04-0.76-0.09c-0.3-0.06-0.62-0.11-0.88-0.25c-0.51-0.27-0.76-0.73-0.75-1.31c0.01-0.56,0.44-1.12,0.98-1.3
				c0.21-0.07,0.43-0.11,0.65-0.11c1.6-0.04,3.19-0.06,4.79-0.09c0.13,0,0.27,0.01,0.4,0.03c0.9,0.15,1.41,0.69,1.4,1.49
				c-0.01,0.75-0.46,1.28-1.3,1.44c-0.39,0.08-0.79,0.09-1.26,0.13c-0.04,0.25-0.11,0.49-0.13,0.74c-0.02,0.26-0.01,0.53-0.01,0.8
				c0,14.01,0,28.01,0,42.02c0,0.48,0,0.97,0,1.51c0.31,0.06,0.56,0.13,0.81,0.14c0.35,0.02,0.71,0.01,1.06,0.01
				c14.58-0.04,29.17-0.07,43.75-0.11C239.68,113,240.21,112.97,240.85,112.96z"/>
			<path class="st2" d="M199.48,76.16c9.9,0.48,18.05,4.73,24.18,12.83c3.33,4.41,5.49,9.38,6.84,14.71
				c0.39,1.54,0.66,3.12,0.97,4.68c0.06,0.3,0.1,0.62,0.08,0.92c-0.05,0.77-0.62,1.35-1.34,1.41c-0.67,0.05-1.3-0.36-1.51-1.05
				c-0.14-0.46-0.2-0.95-0.28-1.43c-0.83-4.88-2.35-9.53-4.8-13.86c-2.05-3.63-4.65-6.79-7.96-9.34c-4.39-3.4-9.36-5.31-14.9-5.73
				c-0.88-0.07-1.77-0.1-2.65-0.15c-0.22-0.01-0.44-0.01-0.66-0.05c-0.68-0.12-1.15-0.59-1.23-1.21c-0.1-0.69,0.27-1.32,0.94-1.58
				c0.24-0.09,0.51-0.13,0.78-0.14C198.36,76.14,198.81,76.16,199.48,76.16z"/>
		</g>
		<path class="st2" d="M225.79,355.99c-0.21,0.37-0.37,0.71-0.58,1.01c-2.74,3.79-6.19,6.71-10.54,8.52
			c-4.6,1.91-9.29,2.22-14.08,0.83c-5.3-1.53-9.65-4.53-13.23-8.68c-2.46-2.85-4.35-6.04-5.52-9.63c-1.42-4.35-1.39-8.71,0.08-13.04
			c0.42-1.23,1.02-2.38,1.85-3.38c2-2.41,4.55-3.44,7.66-2.98c2.54,0.38,4.69,1.54,6.33,3.54c2.18,2.65,3.58,5.66,4,9.09
			c0.02,0.15,0.04,0.29,0.05,0.44c0.04,1.01-0.6,1.81-1.56,1.97c-0.95,0.16-1.85-0.39-2.13-1.34c-0.1-0.35-0.15-0.72-0.21-1.09
			c-0.4-2.38-1.43-4.49-2.89-6.39c-1.09-1.42-2.53-2.23-4.3-2.46c-1.46-0.19-2.69,0.26-3.7,1.33c-0.67,0.71-1.12,1.55-1.45,2.47
			c-0.59,1.65-0.87,3.35-0.91,5.1c-0.06,2.78,0.6,5.41,1.78,7.92c2.3,4.88,5.74,8.72,10.42,11.43c1.15,0.67,2.37,1.2,3.62,1.65
			c4.86,1.73,9.58,1.36,14.15-0.98c2.91-1.49,5.3-3.6,7.24-6.22c0.17-0.23,0.32-0.49,0.5-0.78c-0.34-0.23-0.64-0.43-0.94-0.64
			c-3.84-2.62-6.79-5.99-8.64-10.28c-1.04-2.4-1.61-4.9-1.4-7.54c0.1-1.3,0.36-2.56,0.91-3.75c0.94-2.06,2.46-3.48,4.68-4.06
			c1.2-0.31,2.41-0.27,3.61,0.04c1.61,0.41,3,1.21,4.24,2.3c1.88,1.64,3.16,3.68,3.95,6.04c1.33,3.97,1.34,7.98,0.31,12
			c-0.34,1.35-0.82,2.68-1.26,4.09c0.14,0.07,0.31,0.18,0.51,0.24c1.85,0.57,3.74,0.85,5.68,0.73c1.99-0.12,3.82-0.78,5.53-1.78
			c2.64-1.54,3.8-3.93,3.9-6.89c0.09-2.76-0.91-5.2-2.36-7.48c-0.04-0.06-0.11-0.09-0.21-0.17c-0.06,0.26-0.14,0.5-0.18,0.74
			c-0.15,0.95-0.29,1.9-0.44,2.84c-0.06,0.36-0.12,0.73-0.26,1.07c-0.35,0.87-1.29,1.33-2.17,1.12c-0.82-0.2-1.46-1-1.45-1.87
			c0-0.33,0.07-0.66,0.12-0.99c0.38-2.48,0.75-4.96,1.14-7.43c0.07-0.44,0.15-0.88,0.29-1.29c0.34-1,1.09-1.46,2.13-1.36
			c0.29,0.03,0.58,0.08,0.87,0.14c2.68,0.52,5.36,1.04,8.04,1.56c0.25,0.05,0.51,0.09,0.76,0.17c1.04,0.32,1.63,1.21,1.45,2.17
			c-0.19,1.03-1.09,1.68-2.21,1.53c-0.8-0.11-1.6-0.29-2.39-0.44c-0.76-0.14-1.51-0.29-2.24-0.43c-0.23,0.29-0.03,0.47,0.07,0.64
			c0.91,1.48,1.68,3.03,2.18,4.7c0.85,2.82,0.99,5.65,0.1,8.5c-0.82,2.61-2.36,4.66-4.65,6.13c-3.49,2.25-7.31,3.05-11.42,2.49
			c-1.28-0.17-2.54-0.47-3.77-0.85C226.55,356.23,226.27,356.14,225.79,355.99z M224.21,350.84c0.15-0.31,0.29-0.56,0.39-0.83
			c0.55-1.45,0.96-2.94,1.18-4.48c0.36-2.62,0.28-5.22-0.59-7.76c-0.63-1.81-1.57-3.41-3.06-4.64c-0.72-0.59-1.51-1.06-2.42-1.3
			c-1.73-0.46-3.17,0.21-3.91,1.84c-0.34,0.75-0.5,1.54-0.57,2.35c-0.15,1.69,0.15,3.32,0.72,4.89c1.46,4.02,4.07,7.14,7.57,9.54
			C223.7,350.59,223.93,350.69,224.21,350.84z"/>
	</g>
	<g>
		<g>
			<path d="M232.76,160.17c-0.5,0.02-0.68,0.43-0.91,0.73c-0.83,1.13-1.74,2.18-2.82,3.08c-1.68,1.41-3.56,2.37-5.76,2.67
				c-2.07,0.28-4.01-0.12-5.83-1.1c-1.99-1.07-3.49-2.66-4.7-4.54c-1.55-2.41-2.5-5.05-2.97-7.86c-0.99-5.87-0.39-11.56,2.06-17.01
				c1-2.22,2.32-4.24,4.09-5.94c1.65-1.6,3.55-2.78,5.83-3.24c3.1-0.62,5.87,0.18,8.26,2.18c0.88,0.73,1.6,1.66,2.38,2.5
				c0.18,0.19,0.33,0.41,0.47,0.6c0.39-0.07,0.39-0.32,0.4-0.56c0.01-0.54-0.01-1.08,0.02-1.61c0.05-0.99,0.31-1.23,1.27-1.25
				c0.51-0.01,1.02-0.02,1.53,0.02c0.73,0.05,0.88,0.22,0.93,0.94c0.01,0.19,0.01,0.38,0.01,0.56c-0.07,11.01-0.15,22.02-0.22,33.03
				c0,0.48,0,0.97-0.03,1.45c-0.06,0.82-0.27,1.03-1.09,1.08c-0.56,0.03-1.13,0.02-1.69-0.02c-0.71-0.05-0.89-0.23-0.91-0.96
				c-0.03-1.21-0.01-2.42-0.01-3.63C233.06,160.91,233.07,160.5,232.76,160.17z M232.67,145.62c-0.08-1.1-0.12-2.2-0.24-3.29
				c-0.3-2.64-1.02-5.15-2.39-7.45c-0.79-1.33-1.77-2.5-3.08-3.34c-1.83-1.17-3.76-1.34-5.76-0.47c-1.02,0.44-1.9,1.1-2.7,1.87
				c-1.54,1.51-2.64,3.31-3.48,5.28c-1.81,4.28-2.32,8.74-1.71,13.33c0.33,2.49,1.05,4.87,2.35,7.05c0.75,1.26,1.66,2.38,2.87,3.22
				c1.98,1.37,4.07,1.55,6.24,0.51c1.01-0.48,1.87-1.16,2.64-1.95c1.14-1.16,2.03-2.49,2.75-3.95
				C231.86,153.03,232.62,149.41,232.67,145.62z"/>
			<path d="M182.47,142.99c-1.63,0-1.86,0.24-1.89,1.88c-0.07,4.06,0.73,7.91,2.66,11.5c1.06,1.97,2.43,3.7,4.26,5.02
				c1.75,1.26,3.67,1.94,5.86,1.7c1.48-0.16,2.79-0.76,3.95-1.67c1.44-1.12,2.51-2.55,3.34-4.17c1.21-2.36,1.8-4.88,2.02-7.51
				c0.01-0.13,0.01-0.26,0.03-0.39c0.08-0.95,0.26-1.14,1.2-1.19c0.53-0.03,1.05-0.02,1.58-0.02c0.44,0,0.71,0.24,0.73,0.67
				c0.02,0.66,0.05,1.32-0.01,1.97c-0.32,3.32-1.25,6.46-2.99,9.33c-0.96,1.59-2.13,3.02-3.63,4.14c-3.95,2.96-8.15,3.33-12.54,1.09
				c-2.35-1.2-4.18-3.01-5.69-5.16c-2-2.85-3.24-6.03-3.89-9.43c-0.87-4.59-0.68-9.13,0.88-13.57c1.06-3.04,2.67-5.75,5.23-7.77
				c3.84-3.03,8.02-3.49,12.44-1.38c2.01,0.96,3.65,2.4,5.05,4.12c2.16,2.67,3.66,5.64,4.23,9.06c0.17,1.04-0.2,1.62-1.38,1.61
				C200.3,142.78,186.01,142.98,182.47,142.99z M197.76,139.21c0.66,0,1.32-0.01,1.98-0.02c1.15-0.02,1.3-0.22,0.73-1.25
				c-0.57-1.04-1.18-2.06-1.86-3.03c-0.97-1.37-2.19-2.49-3.65-3.34c-3.21-1.87-6.65-1.54-9.44,0.91c-1.62,1.42-2.72,3.2-3.5,5.2
				c-0.13,0.34-0.2,0.71-0.23,1.08c-0.04,0.43,0.1,0.55,0.54,0.6c0.13,0.01,0.26,0.01,0.4,0.01
				C185.58,139.36,195.6,139.21,197.76,139.21z"/>
			<path d="M249.5,156.88c0.03,1.14,0.13,2.28,0.29,3.41c0.19,1.29,0.82,2.28,2.17,2.7c0.72,0.22,0.78,0.42,0.71,1.21
				c-0.04,0.44-0.11,0.88-0.19,1.32c-0.14,0.87-0.53,1.18-1.38,1.03c-1.4-0.24-2.62-0.86-3.4-2.07c-0.45-0.69-0.8-1.47-1.06-2.25
				c-0.53-1.59-0.77-3.26-0.82-4.93c-0.12-3.76-0.17-7.52-0.25-11.28c-0.01-0.28,0-0.56-0.02-0.84c-0.05-0.64-0.17-0.78-0.82-0.78
				c-1.14-0.01-2.29,0-3.43-0.01c-1.07,0-1.19-0.12-1.2-1.2c-0.01-0.61-0.02-1.23,0.02-1.84c0.04-0.66,0.23-0.83,0.89-0.83
				c1.2-0.01,2.4,0.01,3.6,0c0.81,0,0.85-0.03,0.83-0.85c-0.05-3.6-0.1-7.19-0.14-10.79c0-0.39,0.03-0.78,0.08-1.16
				c0.06-0.47,0.34-0.77,0.83-0.78c0.75-0.01,1.5,0.01,2.25,0.03c0.37,0.01,0.55,0.26,0.61,0.59c0.05,0.27,0.04,0.55,0.04,0.83
				c0.05,3.65,0.1,7.3,0.15,10.95c0,0.17,0,0.34,0.02,0.5c0.06,0.53,0.19,0.67,0.74,0.68c1.11,0.02,2.23,0.01,3.34,0.01
				c0.25,0,0.5-0.01,0.75,0.01c0.58,0.06,0.82,0.25,0.86,0.82c0.06,0.75,0.08,1.5,0.07,2.26c-0.01,0.66-0.13,0.77-0.81,0.78
				c-1.25,0.01-2.51,0-3.76,0c-0.2,0-0.39,0-0.59,0.01c-0.34,0.01-0.51,0.2-0.54,0.52c-0.02,0.22-0.01,0.45-0.01,0.67
				C249.35,147.63,249.45,155.15,249.5,156.88z"/>
		</g>
		<g>
			<path d="M164.62,296.6c-1.63,0-1.86,0.24-1.89,1.88c-0.07,4.06,0.73,7.91,2.66,11.5c1.06,1.97,2.43,3.7,4.26,5.02
				c1.75,1.26,3.67,1.94,5.86,1.7c1.48-0.16,2.79-0.76,3.95-1.67c1.44-1.12,2.51-2.55,3.34-4.17c1.21-2.36,1.8-4.88,2.02-7.51
				c0.01-0.13,0.01-0.26,0.03-0.39c0.08-0.95,0.26-1.14,1.2-1.19c0.53-0.03,1.05-0.02,1.58-0.02c0.44,0,0.71,0.24,0.73,0.67
				c0.02,0.66,0.05,1.32-0.01,1.97c-0.32,3.32-1.25,6.46-2.99,9.33c-0.96,1.59-2.13,3.02-3.63,4.14c-3.95,2.96-8.15,3.33-12.54,1.09
				c-2.35-1.2-4.18-3.01-5.69-5.16c-2-2.85-3.24-6.03-3.89-9.43c-0.87-4.59-0.68-9.13,0.88-13.57c1.06-3.04,2.67-5.75,5.23-7.77
				c3.84-3.03,8.02-3.49,12.44-1.38c2.01,0.96,3.65,2.4,5.05,4.12c2.16,2.67,3.66,5.64,4.23,9.06c0.17,1.04-0.2,1.62-1.38,1.61
				C182.44,296.39,168.15,296.59,164.62,296.6z M179.9,292.82c0.66,0,1.32-0.01,1.98-0.02c1.15-0.02,1.3-0.22,0.73-1.25
				c-0.57-1.04-1.18-2.06-1.86-3.03c-0.97-1.37-2.19-2.49-3.65-3.34c-3.21-1.87-6.65-1.54-9.44,0.91c-1.62,1.42-2.72,3.2-3.5,5.2
				c-0.13,0.34-0.2,0.71-0.23,1.08c-0.04,0.43,0.1,0.55,0.54,0.6c0.13,0.01,0.26,0.01,0.4,0.01
				C167.72,292.97,177.74,292.83,179.9,292.82z"/>
			<path d="M221.51,296.6c-1.63,0-1.86,0.24-1.89,1.88c-0.07,4.06,0.73,7.91,2.66,11.5c1.06,1.97,2.43,3.7,4.26,5.02
				c1.75,1.26,3.67,1.94,5.86,1.7c1.48-0.16,2.79-0.76,3.95-1.67c1.44-1.12,2.51-2.55,3.34-4.17c1.21-2.36,1.8-4.88,2.02-7.51
				c0.01-0.13,0.01-0.26,0.03-0.39c0.08-0.95,0.26-1.14,1.2-1.19c0.53-0.03,1.05-0.02,1.58-0.02c0.44,0,0.71,0.24,0.73,0.67
				c0.02,0.66,0.05,1.32-0.01,1.97c-0.32,3.32-1.25,6.46-2.99,9.33c-0.96,1.59-2.13,3.02-3.63,4.14c-3.95,2.96-8.15,3.33-12.54,1.09
				c-2.35-1.2-4.18-3.01-5.69-5.16c-2-2.85-3.24-6.03-3.89-9.43c-0.87-4.59-0.68-9.13,0.88-13.57c1.06-3.04,2.67-5.75,5.23-7.77
				c3.84-3.03,8.02-3.49,12.44-1.38c2.01,0.96,3.65,2.4,5.05,4.12c2.16,2.67,3.66,5.64,4.23,9.06c0.17,1.04-0.2,1.62-1.38,1.61
				C239.34,296.39,225.04,296.59,221.51,296.6z M236.8,292.82c0.66,0,1.32-0.01,1.98-0.02c1.15-0.02,1.3-0.22,0.73-1.25
				c-0.57-1.04-1.18-2.06-1.86-3.03c-0.97-1.37-2.19-2.49-3.65-3.34c-3.21-1.87-6.65-1.54-9.44,0.91c-1.62,1.42-2.72,3.2-3.5,5.2
				c-0.13,0.34-0.2,0.71-0.23,1.08c-0.04,0.43,0.1,0.55,0.54,0.6c0.13,0.01,0.26,0.01,0.4,0.01
				C224.62,292.97,234.64,292.83,236.8,292.82z"/>
			<path d="M190.84,283.11c0-1.4,0.09-1.5,1.5-1.53c0.53-0.01,1.05,0.02,1.58,0.02c0.4,0,0.69,0.14,0.81,0.56
				c0.05,0.18,0.14,0.37,0.24,0.52c0.29,0.44,0.62,0.5,1.06,0.2c0.16-0.11,0.3-0.25,0.45-0.37c3.28-2.66,7.61-2.87,11.12-0.53
				c2.21,1.47,3.76,3.5,4.73,5.96c1.64,4.13,1.64,8.26-0.2,12.34c-0.75,1.66-1.85,3.08-3.3,4.21c-3.07,2.4-6.98,2.71-10.34,0.74
				c-0.92-0.54-1.71-1.3-2.56-1.96c-0.19-0.15-0.36-0.35-0.57-0.47c-0.3-0.17-0.56-0.04-0.61,0.3c-0.04,0.24-0.02,0.5-0.02,0.75
				c0.01,5.01,0.03,10.02,0.04,15.03c0,1.46-0.01,1.48-1.48,1.47c-0.53,0-1.05,0-1.58-0.03c-0.57-0.04-0.73-0.19-0.8-0.75
				c-0.04-0.3-0.03-0.61-0.03-0.91C190.87,312.74,190.84,289.04,190.84,283.11z M209.64,293.89c-0.02-2.17-0.55-4.24-1.73-6.12
				c-0.73-1.17-1.67-2.14-2.89-2.81c-2.03-1.12-4.25-0.93-6.06,0.51c-0.95,0.76-1.67,1.71-2.14,2.82
				c-1.64,3.91-1.32,7.67,1.01,11.23c0.64,0.99,1.5,1.78,2.53,2.36c2.15,1.22,4.54,0.96,6.39-0.69c0.78-0.69,1.37-1.52,1.82-2.45
				C209.31,297.23,209.62,295.61,209.64,293.89z"/>
			<path d="M142.2,284.99c0.19-0.2,0.37-0.41,0.56-0.61c1.75-1.91,3.83-3.27,6.4-3.8c2.18-0.45,4.31-0.13,6.37,0.63
				c0.94,0.35,1.85,0.81,2.74,1.28c0.89,0.47,1.01,0.9,0.56,1.78c-0.23,0.45-0.49,0.88-0.76,1.31c-0.49,0.76-0.65,0.8-1.44,0.42
				c-0.48-0.23-0.93-0.53-1.43-0.71c-0.95-0.34-1.9-0.71-2.88-0.89c-2.12-0.39-3.99,0.25-5.64,1.6c-1.52,1.25-2.5,2.86-3.21,4.66
				c-0.69,1.74-0.93,3.57-1.16,5.41c-0.36,2.82-0.31,5.65-0.31,8.49c0.01,4.66,0,9.32,0,13.98c0,1.59,0,1.82-1.91,1.83
				c-1.68,0.01-1.86-0.2-1.94-1.89c-0.02-0.36-0.02-0.73-0.02-1.09c0-11.45,0.01-22.9,0.01-34.36c0-0.34,0.01-0.68,0.07-1
				c0.11-0.57,0.33-0.8,0.89-0.84c0.7-0.04,1.4-0.04,2.1,0.01c0.56,0.04,0.77,0.29,0.8,0.89c0.03,0.64,0.02,1.29,0.02,1.94
				c0,0.3,0,0.6,0,0.91C142.09,284.94,142.15,284.97,142.2,284.99z"/>
			<path d="M271.57,313.79c-0.5,0.02-0.68,0.43-0.91,0.73c-0.83,1.13-1.74,2.18-2.82,3.08c-1.68,1.4-3.56,2.37-5.76,2.67
				c-2.07,0.28-4.01-0.12-5.83-1.1c-1.99-1.07-3.49-2.66-4.7-4.54c-1.55-2.41-2.5-5.05-2.97-7.86c-0.99-5.87-0.39-11.56,2.06-17.01
				c1-2.22,2.32-4.24,4.09-5.94c1.65-1.6,3.55-2.78,5.83-3.24c3.1-0.62,5.87,0.18,8.26,2.18c0.88,0.73,1.6,1.66,2.38,2.5
				c0.18,0.19,0.33,0.41,0.47,0.6c0.39-0.07,0.39-0.32,0.4-0.56c0.01-0.54-0.01-1.08,0.02-1.61c0.05-0.99,0.31-1.23,1.27-1.25
				c0.51-0.01,1.02-0.02,1.53,0.02c0.73,0.05,0.88,0.22,0.93,0.94c0.01,0.19,0.01,0.38,0.01,0.56c-0.07,11.01-0.15,22.02-0.22,33.03
				c0,0.48,0,0.97-0.03,1.45c-0.06,0.82-0.27,1.03-1.09,1.08c-0.56,0.03-1.13,0.02-1.69-0.02c-0.71-0.05-0.89-0.23-0.91-0.96
				c-0.03-1.21-0.01-2.42-0.01-3.63C271.87,314.52,271.88,314.12,271.57,313.79z M271.48,299.23c-0.08-1.1-0.12-2.2-0.24-3.29
				c-0.3-2.64-1.02-5.15-2.39-7.45c-0.79-1.33-1.77-2.5-3.08-3.34c-1.83-1.17-3.76-1.34-5.76-0.47c-1.02,0.44-1.9,1.1-2.7,1.87
				c-1.54,1.51-2.64,3.31-3.48,5.28c-1.81,4.28-2.32,8.74-1.71,13.33c0.33,2.49,1.05,4.87,2.35,7.05c0.75,1.26,1.66,2.38,2.87,3.22
				c1.98,1.37,4.07,1.55,6.24,0.51c1.01-0.48,1.87-1.16,2.64-1.95c1.14-1.16,2.03-2.49,2.75-3.95
				C270.67,306.64,271.43,303.02,271.48,299.23z"/>
			<path d="M288.31,310.49c0.03,1.14,0.13,2.28,0.29,3.41c0.19,1.29,0.82,2.28,2.17,2.7c0.72,0.22,0.78,0.42,0.71,1.21
				c-0.04,0.44-0.11,0.88-0.19,1.32c-0.14,0.87-0.53,1.18-1.38,1.03c-1.4-0.24-2.62-0.86-3.4-2.07c-0.45-0.69-0.8-1.47-1.06-2.25
				c-0.53-1.59-0.77-3.26-0.82-4.93c-0.12-3.76-0.17-7.52-0.25-11.28c-0.01-0.28,0-0.56-0.02-0.84c-0.05-0.64-0.17-0.78-0.82-0.78
				c-1.14-0.01-2.29,0-3.43-0.01c-1.07,0-1.19-0.12-1.2-1.2c-0.01-0.61-0.02-1.23,0.02-1.84c0.04-0.66,0.23-0.83,0.89-0.83
				c1.2-0.01,2.4,0.01,3.6,0c0.81,0,0.85-0.03,0.83-0.85c-0.05-3.6-0.1-7.19-0.14-10.79c0-0.39,0.03-0.78,0.08-1.16
				c0.06-0.47,0.34-0.77,0.83-0.78c0.75-0.01,1.5,0.01,2.25,0.03c0.37,0.01,0.55,0.26,0.61,0.59c0.05,0.27,0.04,0.55,0.04,0.83
				c0.05,3.65,0.1,7.3,0.15,10.95c0,0.17,0,0.34,0.02,0.5c0.06,0.53,0.19,0.67,0.74,0.68c1.11,0.02,2.23,0.01,3.34,0.01
				c0.25,0,0.5-0.01,0.75,0.01c0.58,0.06,0.82,0.25,0.86,0.82c0.06,0.75,0.08,1.5,0.07,2.26c-0.01,0.66-0.13,0.77-0.81,0.78
				c-1.25,0.01-2.51,0-3.76,0c-0.2,0-0.39,0-0.59,0.01c-0.34,0.01-0.51,0.2-0.54,0.52c-0.02,0.22-0.01,0.45-0.01,0.67
				C288.16,301.24,288.26,308.77,288.31,310.49z"/>
		</g>
		<g>
			<path d="M193.9,190.2c-1.63,0-1.86,0.24-1.89,1.88c-0.07,4.06,0.73,7.91,2.66,11.5c1.06,1.97,2.43,3.7,4.26,5.02
				c1.75,1.26,3.67,1.94,5.86,1.7c1.48-0.16,2.79-0.76,3.95-1.67c1.44-1.12,2.51-2.55,3.34-4.17c1.21-2.36,1.8-4.88,2.02-7.51
				c0.01-0.13,0.01-0.26,0.03-0.39c0.08-0.95,0.26-1.14,1.2-1.19c0.53-0.03,1.05-0.02,1.58-0.02c0.44,0,0.71,0.24,0.73,0.67
				c0.02,0.66,0.05,1.32-0.01,1.97c-0.32,3.32-1.25,6.46-2.99,9.33c-0.96,1.59-2.13,3.02-3.63,4.14c-3.95,2.96-8.15,3.33-12.54,1.09
				c-2.35-1.2-4.18-3.01-5.69-5.16c-2-2.85-3.24-6.03-3.89-9.43c-0.87-4.59-0.68-9.13,0.88-13.57c1.06-3.04,2.67-5.75,5.23-7.77
				c3.84-3.03,8.02-3.49,12.44-1.38c2.01,0.96,3.65,2.4,5.05,4.12c2.16,2.67,3.66,5.64,4.23,9.06c0.17,1.04-0.2,1.62-1.38,1.61
				C211.72,189.99,197.43,190.19,193.9,190.2z M209.19,186.42c0.66,0,1.32-0.01,1.98-0.02c1.15-0.02,1.3-0.22,0.73-1.25
				c-0.57-1.04-1.18-2.06-1.86-3.03c-0.97-1.37-2.19-2.49-3.65-3.34c-3.21-1.87-6.65-1.54-9.44,0.91c-1.62,1.42-2.72,3.2-3.5,5.2
				c-0.13,0.34-0.2,0.71-0.23,1.08c-0.04,0.43,0.1,0.55,0.54,0.6c0.13,0.01,0.26,0.01,0.4,0.01
				C197,186.57,207.02,186.42,209.19,186.42z"/>
			<path d="M226.1,190.2c-1.63,0-1.86,0.24-1.89,1.88c-0.07,4.06,0.73,7.91,2.66,11.5c1.06,1.97,2.43,3.7,4.26,5.02
				c1.75,1.26,3.67,1.94,5.86,1.7c1.48-0.16,2.79-0.76,3.95-1.67c1.44-1.12,2.51-2.55,3.34-4.17c1.21-2.36,1.8-4.88,2.02-7.51
				c0.01-0.13,0.01-0.26,0.03-0.39c0.08-0.95,0.26-1.14,1.2-1.19c0.53-0.03,1.05-0.02,1.58-0.02c0.44,0,0.71,0.24,0.73,0.67
				c0.02,0.66,0.05,1.32-0.01,1.97c-0.32,3.32-1.25,6.46-2.99,9.33c-0.96,1.59-2.13,3.02-3.63,4.14c-3.95,2.96-8.15,3.33-12.54,1.09
				c-2.35-1.2-4.18-3.01-5.69-5.16c-2-2.85-3.24-6.03-3.89-9.43c-0.87-4.59-0.68-9.13,0.88-13.57c1.06-3.04,2.67-5.75,5.23-7.77
				c3.84-3.03,8.02-3.49,12.44-1.38c2.01,0.96,3.65,2.4,5.05,4.12c2.16,2.67,3.66,5.64,4.23,9.06c0.17,1.04-0.2,1.62-1.38,1.61
				C243.93,189.99,229.64,190.19,226.1,190.2z M241.39,186.42c0.66,0,1.32-0.01,1.98-0.02c1.15-0.02,1.3-0.22,0.73-1.25
				c-0.57-1.04-1.18-2.06-1.86-3.03c-0.97-1.37-2.19-2.49-3.65-3.34c-3.21-1.87-6.65-1.54-9.44,0.91c-1.62,1.42-2.72,3.2-3.5,5.2
				c-0.13,0.34-0.2,0.71-0.23,1.08c-0.04,0.43,0.1,0.55,0.54,0.6c0.13,0.01,0.26,0.01,0.4,0.01
				C229.21,186.57,239.23,186.42,241.39,186.42z"/>
			<path d="M252.33,176.71c0-1.4,0.09-1.5,1.5-1.53c0.53-0.01,1.05,0.02,1.58,0.02c0.4,0,0.69,0.14,0.81,0.56
				c0.05,0.18,0.14,0.37,0.24,0.52c0.29,0.44,0.62,0.5,1.05,0.2c0.16-0.11,0.3-0.25,0.45-0.37c3.28-2.66,7.61-2.87,11.12-0.53
				c2.21,1.47,3.76,3.5,4.73,5.96c1.64,4.13,1.64,8.26-0.2,12.34c-0.75,1.66-1.85,3.08-3.3,4.21c-3.07,2.4-6.98,2.71-10.34,0.74
				c-0.92-0.54-1.71-1.3-2.56-1.96c-0.19-0.15-0.36-0.35-0.57-0.47c-0.3-0.17-0.56-0.04-0.61,0.3c-0.04,0.24-0.02,0.5-0.02,0.75
				c0.01,5.01,0.03,10.02,0.04,15.03c0,1.46-0.01,1.48-1.48,1.47c-0.53,0-1.05,0-1.58-0.03c-0.57-0.04-0.73-0.19-0.8-0.75
				c-0.04-0.3-0.03-0.61-0.03-0.91C252.36,206.33,252.33,182.63,252.33,176.71z M271.13,187.49c-0.02-2.17-0.55-4.24-1.73-6.12
				c-0.73-1.17-1.67-2.14-2.89-2.81c-2.03-1.12-4.25-0.93-6.06,0.51c-0.95,0.76-1.67,1.71-2.14,2.82
				c-1.64,3.91-1.32,7.67,1.01,11.23c0.64,0.99,1.5,1.78,2.53,2.36c2.15,1.22,4.54,0.96,6.39-0.69c0.78-0.69,1.37-1.52,1.82-2.45
				C270.8,190.82,271.11,189.2,271.13,187.49z"/>
			<path d="M168.16,213.93c-0.81,0.08-1.63,0.06-2.45-0.04c-0.35-0.04-0.71-0.1-1.07-0.17c-3.52-0.73-5.66-2.99-6.79-6.28
				c-0.67-1.93-0.86-3.95-0.87-5.99c-0.01-0.88,0.28-1.19,1.14-1.24c0.49-0.03,0.99-0.01,1.47,0.06c0.62,0.09,1.08,0.62,1.14,1.25
				c0.1,1.05,0.2,2.1,0.33,3.15c0.05,0.39,0.13,0.78,0.24,1.15c1.01,3.32,2.93,4.33,5.62,4.38c0.91,0.02,1.85-0.12,2.73-0.35
				c2.75-0.71,4.68-3.49,4.34-6.3c-0.19-1.57-0.74-2.99-1.64-4.29c-1.14-1.64-2.54-3.01-4.11-4.22c-0.92-0.71-1.91-1.32-2.82-2.04
				c-1.44-1.14-2.91-2.25-4.24-3.51c-1.56-1.47-2.63-3.27-3.11-5.4c-1-4.51,1.77-9.47,6.97-10.1c4.37-0.53,8.2,2.25,9.11,6.8
				c0.26,1.32,0.35,2.67,0.47,4.02c0.07,0.79-0.15,1.02-0.94,1.09c-0.56,0.05-1.13,0.08-1.7,0.05c-0.88-0.05-1.05-0.26-1.14-1.15
				c-0.07-0.78-0.1-1.57-0.22-2.34c-0.1-0.66-0.25-1.33-0.48-1.96c-0.72-1.95-2.54-2.99-4.72-2.75c-1.95,0.22-3.43,1.7-3.72,3.71
				c-0.21,1.5,0.22,2.83,1.05,4.06c0.66,0.97,1.47,1.8,2.39,2.52c1.13,0.88,2.27,1.74,3.44,2.56c2.67,1.87,5.15,3.94,6.99,6.68
				c1.33,1.97,2.12,4.14,2.18,6.52c0.14,5.07-3.45,9.28-8.46,9.98C168.94,213.86,168.56,213.9,168.16,213.93z"/>
			<path d="M182.22,174.02c0.31,0,0.62-0.02,0.92,0c0.6,0.05,0.77,0.24,0.83,0.83c0.01,0.11,0.01,0.22,0.01,0.34
				c0.12,8.98,0.23,17.95,0.36,26.93c0.02,1.51,0.07,3.03,0.17,4.54c0.04,0.58,0.19,1.16,0.36,1.72c0.27,0.88,0.84,1.49,1.72,1.82
				c1.02,0.39,1.06,0.49,0.94,1.55c-0.04,0.39-0.1,0.78-0.17,1.16c-0.15,0.81-0.54,1.11-1.37,0.96c-1.41-0.24-2.63-0.86-3.43-2.07
				c-0.45-0.69-0.81-1.48-1.07-2.27c-0.53-1.6-0.74-3.28-0.83-4.96c-0.1-1.96-0.17-3.92-0.2-5.89c-0.08-4.57-0.14-9.14-0.2-13.71
				c-0.04-3.03-0.09-6.06-0.12-9.09c0-0.39,0.05-0.78,0.1-1.17c0.06-0.45,0.35-0.69,0.8-0.72c0.39-0.02,0.78,0,1.18,0
				C182.22,174.01,182.22,174.02,182.22,174.02z"/>
		</g>
		<path d="M255.47,258.05c0.28-1.22,0.55-2.43,0.85-3.65c1.36-5.48,3.17-10.81,5.67-15.88c0.69-1.4,1.51-2.74,2.35-4.06
			c0.82-1.29,1.87-2.39,3.13-3.28c1.53-1.08,3.22-1.54,5.08-1.31c2,0.25,3.49,1.3,4.49,3.04c0.84,1.45,1.24,3.06,1.57,4.68
			c0.48,2.42,0.71,4.87,0.78,7.33c0.08,2.73,0.07,5.46,0.12,8.18c0.04,2.41,0.07,4.83,0.18,7.24c0.12,2.69,0.64,5.32,1.31,7.93
			c0.3,1.19,0.83,2.26,2.08,2.92c0.23-0.17,0.55-0.3,0.69-0.53c0.39-0.65,0.76-1.32,1.03-2.02c0.66-1.72,1-3.52,1.3-5.33
			c0.56-3.35,0.94-6.73,1.14-10.13c0.09-1.52,0.18-3.04,0.29-4.55c0.03-0.49,0.11-0.98,0.17-1.47c0.11-0.93,1.13-1.45,2.04-1.21
			c0.38,0.1,0.63,0.35,0.67,0.75c0.04,0.31,0.05,0.62,0.04,0.94c-0.17,5.82-0.49,11.62-1.66,17.34c-0.29,1.4-0.65,2.79-1.08,4.15
			c-0.25,0.8-0.64,1.58-1.09,2.29c-1.52,2.39-5.08,4.2-8.68,1.71c-2.2-1.52-3.5-3.67-4.18-6.21c-0.49-1.87-0.72-3.78-0.78-5.7
			c-0.13-3.75-0.21-7.51-0.25-11.27c-0.04-3.18-0.17-6.35-0.56-9.5c-0.19-1.51-0.46-3.01-0.94-4.45c-0.17-0.5-0.34-1.02-0.76-1.46
			c-0.49,0.12-0.88,0.43-1.19,0.78c-0.74,0.84-1.48,1.68-2.13,2.58c-1.01,1.43-1.78,3-2.52,4.58c-2.76,5.97-4.58,12.21-5.4,18.74
			c-0.29,2.26-0.49,4.53-0.73,6.8c-0.03,0.27-0.04,0.54-0.07,0.8c-0.22,1.93-1.92,3.02-3.54,3.04c-1.1,0.01-1.87-0.54-2.38-1.47
			c-0.82-1.49-1.63-2.99-2.13-4.62c-0.65-2.14-1.24-4.29-1.86-6.44c-0.12-0.41-0.23-0.82-0.42-1.46c-0.18,0.58-0.29,0.91-0.38,1.25
			c-0.54,2.21-1.04,4.44-1.62,6.64c-0.28,1.08-0.68,2.13-1.09,3.16c-0.33,0.84-0.83,1.58-1.47,2.23c-1.46,1.48-3.81,2.31-6.26,0.87
			c-1.1-0.64-1.99-1.51-2.78-2.49c-1.42-1.77-2.39-3.77-3.18-5.87c-1.01-2.69-1.65-5.47-2.15-8.3c-0.09-0.52-0.16-1.03-0.43-1.71
			c-0.23,0.87-0.41,1.56-0.59,2.24c-0.91,3.46-1.8,6.92-2.75,10.37c-0.26,0.94-0.64,1.86-1.02,2.76c-0.35,0.84-0.91,1.55-1.64,2.09
			c-1.55,1.14-3.19,1.31-4.91,0.42c-0.93-0.48-1.67-1.2-2.34-1.98c-1.7-2-2.9-4.29-3.77-6.75c-0.61-1.73-1.02-3.52-1.35-5.32
			c-0.09-0.48-0.19-0.95-0.34-1.69c-0.25,0.56-0.4,0.88-0.52,1.2c-0.87,2.25-1.73,4.51-2.62,6.75c-0.3,0.75-0.67,1.46-1.05,2.17
			c-0.47,0.87-1.1,1.63-1.88,2.26c-1.91,1.54-4.01,1.87-6.28,0.88c-1.03-0.45-1.94-1.1-2.78-1.85c-2.14-1.9-3.76-4.19-4.93-6.79
			c-0.29-0.65-0.54-1.32-0.82-1.98c-0.08-0.19-0.22-0.36-0.41-0.66c-0.23,0.78-0.42,1.42-0.61,2.06c-0.64,2.09-1.26,4.19-1.92,6.28
			c-0.38,1.2-0.88,2.34-1.59,3.39c-0.43,0.64-0.93,1.2-1.56,1.64c-1.26,0.89-3.07,1.03-4.48-0.14c-0.94-0.78-1.71-1.7-2.33-2.75
			c-1.58-2.64-2.64-5.47-3.19-8.49c-0.57-3.14-0.7-6.31-0.71-9.49c-0.01-3.4,0.11-6.8,0.16-10.2c0.04-2.59,0.07-5.19-0.26-7.77
			c-0.15-1.15-0.36-2.29-0.56-3.44c-0.05-0.26-0.18-0.5-0.31-0.85c-0.24,0.21-0.46,0.35-0.61,0.54c-1.11,1.48-1.92,3.12-2.56,4.85
			c-1.05,2.82-1.69,5.74-2.14,8.71c-1.13,7.51-1.25,15.05-0.9,22.62c0.04,0.8,0.03,1.61,0.12,2.41c0.22,2.01-1.94,3.41-3.46,3.28
			c-0.68-0.06-1.21-0.32-1.58-0.88c-0.24-0.37-0.42-0.79-0.61-1.19c-1.13-2.41-1.7-4.98-2.15-7.59c-0.84-4.9-1.33-9.83-1.67-14.79
			c-0.25-3.75-0.63-7.49-1.55-11.15c-0.08-0.32-0.21-0.64-0.4-1.18c-0.3,0.66-0.52,1.09-0.7,1.54c-0.96,2.43-1.5,4.96-1.86,7.53
			c-0.74,5.38-0.94,10.78-0.64,16.2c0.16,2.86,0.32,5.72,0.48,8.57c0.1,1.75-0.78,2.94-2.46,3.31c-0.93,0.2-1.68-0.08-2.21-0.87
			c-0.22-0.33-0.41-0.69-0.59-1.05c-1.64-3.22-2.63-6.63-3.2-10.19c-1.15-7.15-1.23-14.34-1.07-21.54c0.06-2.73,0.18-5.45,0.54-8.16
			c0.08-0.57,0.17-1.15,0.33-1.71c0.55-1.89,2.37-2.95,4.29-2.52c0.86,0.19,1.46,0.68,1.65,1.57c0.1,0.48,0.16,0.97,0.15,1.46
			c-0.04,1.61-0.13,3.22-0.17,4.83c-0.03,1.07-0.01,2.14-0.01,3.34c0.28-0.36,0.32-0.71,0.42-1.02c0.39-1.14,0.73-2.3,1.16-3.43
			c0.27-0.7,0.64-1.38,1.04-2.02c1.23-2.01,3.87-2.69,5.77-2.04c1.02,0.34,1.82,0.94,2.43,1.8c0.55,0.77,0.91,1.64,1.21,2.53
			c0.65,1.96,1.03,3.98,1.33,6.01c0.13,0.88,0.23,1.76,0.37,2.81c0.3-0.53,0.36-0.96,0.44-1.4c0.46-2.51,1.05-4.99,1.89-7.4
			c0.64-1.82,1.44-3.56,2.5-5.18c0.64-0.98,1.37-1.88,2.34-2.57c1.13-0.8,2.37-1.24,3.77-1.16c1.67,0.09,3.01,0.79,3.99,2.15
			c0.66,0.92,1.06,1.96,1.34,3.05c0.5,1.96,0.77,3.96,0.8,5.97c0.04,3.17,0.01,6.35-0.09,9.52c-0.12,3.98-0.25,7.96,0.14,11.93
			c0.29,2.98,0.46,5.98,1.07,8.92c0.21,1,0.52,1.99,0.83,2.96c0.13,0.41,0.27,0.84,0.74,1.16c0.18-0.22,0.38-0.39,0.49-0.62
			c0.46-0.92,0.96-1.82,1.32-2.78c1.42-3.82,2.53-7.73,3.6-11.66c0.15-0.54,0.12-1.04,0.02-1.58c-0.55-2.72-0.85-5.48-0.95-8.25
			c-0.14-3.97,0.31-7.86,1.49-11.65c0.59-1.89,1.39-3.68,2.56-5.29c1.45-1.98,3.3-3.38,5.74-3.93c1.66-0.38,3.29-0.29,4.89,0.25
			c1.63,0.55,3.08,1.42,4.39,2.53c1.37,1.16,2.55,2.5,3.65,3.92c0.23,0.3,0.5,0.59,0.87,1.02c0.17-0.68,0.3-1.18,0.43-1.68
			c0.24-0.88,0.6-1.68,1.29-2.31c0.62-0.56,1.36-0.88,2.2-0.85c1.15,0.04,2.15,0.84,2.4,2c0.17,0.78,0.22,1.6,0.2,2.39
			c-0.05,1.7-0.18,3.39-0.27,5.09c-0.27,4.96-0.28,9.92,0.02,14.88c0.3,4.91,1.42,9.63,3.07,14.24c0.36,1.01,0.84,1.97,1.3,2.94
			c0.16,0.34,0.44,0.63,0.74,1.05c0.25-0.42,0.47-0.7,0.6-1.02c0.4-1,0.79-1.99,1.12-3.01c1.86-5.79,3.37-11.68,4.77-17.6
			c0.17-0.7,0.18-1.4,0.14-2.12c-0.11-2.01-0.15-4.02-0.22-6.03c-0.02-0.49-0.04-0.98-0.06-1.4c-0.37-0.35-0.74-0.23-1.08-0.18
			c-1.15,0.16-2.28,0.45-3.35,0.92c-0.41,0.18-0.82,0.37-1.25,0.46c-0.29,0.06-0.62,0.01-0.91-0.08c-0.44-0.14-0.6-0.6-0.32-0.97
			c0.26-0.35,0.58-0.68,0.93-0.95c1.31-1,2.83-1.51,4.42-1.84c0.48-0.1,0.96-0.18,1.51-0.29c0.04-0.37,0.09-0.72,0.12-1.06
			c0.12-1.96,0.2-3.93,0.38-5.89c0.1-1.06,0.29-2.13,0.58-3.16c0.56-2.02,2.32-2.98,4.38-2.49c1.14,0.27,1.82,0.99,1.82,2.17
			c0.01,1.43-0.14,2.86-0.2,4.29c-0.08,1.97-0.14,3.93-0.21,5.9c-0.01,0.17,0.04,0.35,0.06,0.51c1.1,0.48,9.82,2.16,11.49,2.21
			c0.04-0.24,0.11-0.49,0.13-0.75c0.18-2.37,0.39-4.72,1.01-7.03c0.52-1.95,1.18-3.85,2.16-5.62c0.67-1.22,1.46-2.36,2.51-3.29
			c1.91-1.7,4.15-2.43,6.69-2.13c1.92,0.23,3.47,1.15,4.57,2.75c1.66,2.43,2.18,5.09,1.35,7.92c-1.51,5.14-4.87,8.53-9.97,10.2
			c-0.47,0.15-0.94,0.27-1.47,0.42c-0.04,0.25-0.13,0.5-0.12,0.75c0.14,5.92,0.73,11.78,2.14,17.54c0.05,0.21,0.15,0.41,0.23,0.61
			C255.33,258.04,255.4,258.05,255.47,258.05z M201.68,265.87c0.48-0.22,0.78-0.62,1.03-1.03c0.43-0.73,0.86-1.47,1.2-2.24
			c2.05-4.57,3.74-9.27,5.2-14.06c0.15-0.5,0.23-1.05,0.22-1.57c-0.02-3.71-0.12-7.42,0.15-11.12c0.03-0.42-0.06-0.78-0.3-1.13
			c-1.4-1.97-2.87-3.88-4.67-5.52c-0.89-0.82-1.83-1.59-2.93-2.1c-0.68-0.31-1.41-0.54-2.14-0.75c-0.6-0.17-1.17,0-1.61,0.44
			c-0.44,0.44-0.9,0.88-1.24,1.4c-0.47,0.7-0.89,1.45-1.24,2.22c-1.18,2.58-1.85,5.31-2.14,8.13c-0.33,3.22-0.14,6.43,0.31,9.62
			c0.64,4.56,2.16,8.84,4.23,12.93c0.65,1.28,1.4,2.5,2.34,3.58C200.55,265.16,200.98,265.67,201.68,265.87z M234.64,237.7
			c-0.26,0.47-0.14,0.97-0.14,1.45c0.05,4.56,0.39,9.1,1.1,13.61c0.75,4.79,2.16,9.39,3.89,13.9c0.16,0.42,0.36,0.82,0.58,1.21
			c0.19,0.35,0.41,0.69,0.67,1c0.15,0.18,0.4,0.29,0.62,0.43c0.51-0.58,0.8-1.18,1.03-1.81c0.46-1.26,0.95-2.51,1.3-3.8
			c0.94-3.44,1.79-6.91,2.72-10.36c0.39-1.44,0.67-2.87,0.29-4.35c-0.03-0.13-0.03-0.27-0.03-0.4c-0.18-2.85-0.35-5.7-0.53-8.56
			c-0.01-0.17-0.07-0.34-0.12-0.59c-3.47-0.39-6.89-1.02-10.3-1.7c-0.22-0.04-0.44-0.07-0.66-0.09
			C234.91,237.65,234.78,237.68,234.64,237.7z M252.96,236.44c0.19,0.07,0.24,0.1,0.28,0.09c4.05-0.8,7.68-4.41,8.4-8.44
			c0.35-1.95,0.12-3.83-0.98-5.54c-0.34-0.53-0.74-1-1.3-1.33c-0.53-0.31-1.05-0.31-1.48,0.12c-0.47,0.47-0.91,0.99-1.28,1.54
			c-1.17,1.76-1.94,3.71-2.53,5.73C253.33,231.17,253.02,233.76,252.96,236.44z"/>
	</g>
</g>
</svg>
