<?xml version="1.0" encoding="utf-8"?>
<!-- Generator: Adobe Illustrator 25.2.1, SVG Export Plug-In . SVG Version: 6.00 Build 0)  -->
<svg version="1.1" id="Calque_1" xmlns="http://www.w3.org/2000/svg" xmlns:xlink="http://www.w3.org/1999/xlink" x="0px" y="0px"
	 viewBox="0 0 432 432" style="enable-background:new 0 0 432 432;" xml:space="preserve">
<style type="text/css">
	.st0{fill:#F9D53D;}
	.st1{fill:#D3B844;}
	.st2{fill:#E0AAAF;}
	.st3{fill:#BA9196;}
	.st4{fill:#EAB978;}
	.st5{fill:#FBB03B;}
	.st6{fill:#A1C3CE;}
	.st7{fill:#8CC63F;}
	.st8{fill:#C7B299;}
	.st9{fill:#CCCCCC;}
	.st10{fill:#C44750;}
	.st11{fill:#998675;}
	.st12{fill:#29ABE2;}
	.st13{fill:#C79C52;}
	.st14{fill:#766FBF;}
	.st15{fill:#E8A3AB;}
</style>
<g>
	<g>
		<path d="M189.01,245.63c0.26-0.51,0.54-1,0.76-1.52c1.25-2.9,2.89-5.52,5.35-7.55c3.43-2.84,7.29-4.07,11.7-2.83
			c3.09,0.87,5.34,2.9,7.11,5.5c2.12,3.11,3.38,6.57,4.17,10.22c1.3,6.01,1.6,12.13,1.67,18.25c0.12,11.92,0.16,23.84,0.21,35.76
			c0.01,1.93-0.09,3.86-0.2,5.79c-0.07,1.23-0.44,1.67-1.65,1.75c-1.44,0.1-2.9,0.08-4.34-0.01c-1.02-0.06-1.36-0.49-1.42-1.6
			c-0.05-1.02,0.01-2.04,0.01-3.06c-0.04-13.64-0.03-27.28-0.17-40.91c-0.05-4.88-0.36-9.77-1.51-14.55c-0.4-1.66-1-3.28-1.6-4.88
			c-0.32-0.84-0.79-1.65-1.29-2.41c-2.27-3.44-5.36-3.74-8.34-0.84c-1.38,1.34-2.24,3-2.96,4.75c-1.39,3.41-2.1,6.98-2.56,10.61
			c-1.1,8.7-1.21,17.45-1.16,26.2c0.04,7.73-0.09,15.46-0.19,23.19c-0.04,2.98-0.39,3.27-3.4,3.31c-0.91,0.01-1.83,0-2.74-0.07
			c-1.17-0.1-1.63-0.55-1.77-1.7c-0.07-0.58-0.04-1.18-0.05-1.77c-0.15-11.6-0.21-23.2-0.46-34.79c-0.14-6.49-0.5-12.99-1.87-19.36
			c-0.38-1.78-0.97-3.51-1.54-5.24c-0.23-0.7-0.61-1.38-1.03-2c-1.92-2.88-5.12-3.33-7.77-1.08c-1.68,1.42-2.78,3.26-3.5,5.32
			c-1.07,3.06-1.65,6.22-1.95,9.43c-0.88,9.58-0.83,19.2-0.99,28.81c-0.1,6.39-0.22,12.78-0.33,19.17
			c-0.01,0.32-0.01,0.64-0.04,0.97c-0.12,1.78-0.49,2.15-2.26,2.22c-0.97,0.04-1.93,0.04-2.9,0.02c-2.12-0.04-2.42-0.34-2.43-2.45
			c-0.03-8.86-0.04-17.72-0.08-26.58c-0.06-13.64-0.13-27.28-0.18-40.92c0-0.96,0.12-1.93,0.25-2.88c0.14-0.99,0.78-1.53,1.75-1.57
			c1.23-0.06,2.47-0.09,3.7-0.03c1.19,0.05,1.39,0.31,1.64,1.55c0.04,0.21,0.05,0.43,0.12,0.63c0.26,0.86,0.68,1.03,1.41,0.49
			c0.6-0.44,1.14-0.97,1.7-1.47c5.33-4.74,13.54-4.13,17.79,2.62c0.82,1.31,1.41,2.76,2.05,4.18
			C188.09,245.04,188.04,245.07,189.01,245.63z"/>
		<path d="M270.51,298.05c-0.97,0.04-1.32,0.82-1.75,1.41c-1.6,2.18-3.36,4.21-5.44,5.95c-3.24,2.71-6.87,4.57-11.12,5.14
			c-4,0.54-7.73-0.24-11.25-2.13c-3.84-2.06-6.74-5.12-9.07-8.75c-2.99-4.64-4.81-9.75-5.73-15.15
			c-1.91-11.31-0.76-22.29,3.97-32.82c1.92-4.29,4.48-8.17,7.88-11.45c3.19-3.08,6.85-5.37,11.25-6.25
			c5.99-1.2,11.32,0.34,15.94,4.21c1.69,1.42,3.08,3.2,4.59,4.83c0.34,0.37,0.63,0.79,0.91,1.15c0.75-0.13,0.76-0.62,0.77-1.09
			c0.02-1.04-0.01-2.07,0.04-3.11c0.1-1.91,0.59-2.38,2.46-2.41c0.98-0.02,1.97-0.04,2.95,0.03c1.41,0.1,1.69,0.43,1.79,1.81
			c0.03,0.36,0.02,0.72,0.02,1.09c-0.14,21.24-0.28,42.48-0.42,63.72c-0.01,0.93,0,1.87-0.06,2.8c-0.11,1.57-0.51,2-2.11,2.08
			c-1.08,0.06-2.18,0.04-3.26-0.04c-1.37-0.1-1.72-0.45-1.76-1.85c-0.05-2.33-0.02-4.66-0.03-6.99
			C271.08,299.47,271.1,298.69,270.51,298.05z M270.33,269.97c-0.15-2.12-0.23-4.24-0.47-6.34c-0.58-5.09-1.97-9.94-4.62-14.38
			c-1.53-2.57-3.41-4.82-5.95-6.45c-3.53-2.26-7.25-2.58-11.1-0.9c-1.97,0.86-3.67,2.11-5.2,3.61c-2.97,2.91-5.1,6.38-6.71,10.18
			c-3.49,8.26-4.47,16.87-3.29,25.72c0.64,4.81,2.02,9.4,4.52,13.61c1.44,2.43,3.2,4.59,5.54,6.21c3.82,2.65,7.84,2.98,12.05,0.98
			c1.94-0.92,3.6-2.23,5.1-3.76c2.2-2.24,3.92-4.81,5.31-7.61C268.77,284.27,270.23,277.29,270.33,269.97z"/>
		<path d="M149.64,304.52c0,0.86-0.09,1.73-0.24,2.58c-0.22,1.2-0.65,1.6-1.85,1.68c-1.24,0.08-2.49,0.08-3.73,0.02
			c-1.14-0.06-1.35-0.31-1.58-1.45c-0.05-0.26-0.07-0.54-0.15-0.8c-0.25-0.78-0.67-0.96-1.32-0.49c-0.66,0.47-1.23,1.06-1.85,1.58
			c-1.72,1.46-3.64,2.52-5.9,2.88c-5.14,0.81-10.06-1.43-12.8-5.84c-2.12-3.42-3.1-7.24-3.92-11.12
			c-1.27-6.01-1.68-12.11-1.97-18.22c-0.52-11.04-0.77-22.08-0.59-33.13c0.03-2.06,0.16-4.11,0.31-6.16
			c0.14-1.8,0.67-2.29,2.43-2.35c1.19-0.04,2.38-0.05,3.57,0.01c1.43,0.08,1.91,0.58,2.02,2.01c0.04,0.54,0.02,1.08,0.03,1.62
			c0.14,11.64,0.21,23.29,0.46,34.93c0.14,6.55,0.5,13.1,1.88,19.53c0.39,1.84,1.01,3.64,1.59,5.44c0.21,0.66,0.58,1.29,0.96,1.87
			c1.96,2.97,5.25,3.43,7.95,1.08c1.67-1.46,2.77-3.31,3.49-5.39c1.05-3.04,1.63-6.17,1.93-9.36c0.9-9.72,0.84-19.47,1-29.21
			c0.1-6.5,0.21-13,0.35-19.49c0.06-2.72,0.34-2.97,3.03-2.99c0.97-0.01,1.95-0.05,2.92,0.03c1.33,0.12,1.68,0.53,1.72,1.87
			c0.03,1.08,0.02,2.17,0.02,3.25C149.39,249.44,149.65,293.2,149.64,304.52z"/>
		<path d="M286.23,239.65c0-0.91,0.17-1.82,0.3-2.73c0.11-0.81,0.66-1.3,1.42-1.34c1.46-0.09,2.92-0.09,4.38-0.06
			c0.74,0.02,1.16,0.52,1.29,1.24c0.07,0.37,0.06,0.76,0.17,1.12c0.17,0.59,0.6,0.77,1.13,0.46c0.37-0.21,0.67-0.54,1.01-0.81
			c0.94-0.73,1.83-1.54,2.82-2.18c5.39-3.49,12.86-1.39,16.15,3.18c1.64,2.27,2.71,4.81,3.49,7.47c1.39,4.75,2.23,9.61,2.6,14.54
			c1.11,15.1,1.4,30.22,1.01,45.35c-0.03,1.03-0.13,2.06-0.28,3.07c-0.18,1.16-0.66,1.63-1.82,1.69c-1.35,0.08-2.71,0.09-4.06,0.02
			c-1.55-0.08-1.97-0.54-2-2.15c-0.08-4.45-0.12-8.89-0.19-13.34c-0.15-8.94-0.22-17.89-0.51-26.83c-0.19-6.01-0.63-12.03-2.2-17.87
			c-0.47-1.76-1.1-3.55-2.01-5.11c-1.91-3.28-5.46-3.66-8.25-1.06c-1.62,1.52-2.68,3.39-3.37,5.49c-1.12,3.42-1.67,6.94-1.97,10.52
			c-0.79,9.36-0.66,18.74-0.89,28.12c-0.11,4.61-0.07,9.22-0.14,13.83c-0.03,2.17-0.15,4.33-0.26,6.5
			c-0.07,1.31-0.46,1.75-1.78,1.83c-1.3,0.08-2.6,0.09-3.9,0.03c-1.55-0.07-1.86-0.43-1.87-2.02c-0.03-6.62-0.06-13.23-0.07-19.85
			C286.43,283.73,286.21,250.98,286.23,239.65z"/>
		<path d="M349.12,310.69c-1.57,0.15-3.15,0.12-4.72-0.07c-0.68-0.08-1.37-0.18-2.06-0.33c-6.78-1.4-10.91-5.77-13.1-12.11
			c-1.29-3.72-1.65-7.63-1.68-11.55c-0.01-1.7,0.53-2.3,2.19-2.39c0.94-0.06,1.91-0.02,2.84,0.12c1.19,0.18,2.08,1.2,2.19,2.4
			c0.19,2.03,0.38,4.06,0.63,6.08c0.09,0.75,0.25,1.5,0.47,2.22c1.94,6.4,5.64,8.35,10.85,8.45c1.75,0.04,3.56-0.23,5.27-0.67
			c5.3-1.36,9.03-6.73,8.37-12.16c-0.37-3.03-1.43-5.77-3.17-8.27c-2.19-3.16-4.9-5.81-7.94-8.14c-1.78-1.36-3.69-2.55-5.45-3.93
			c-2.78-2.19-5.61-4.34-8.18-6.77c-3.01-2.83-5.08-6.31-5.99-10.41c-1.93-8.69,3.42-18.26,13.45-19.48
			c8.43-1.03,15.81,4.35,17.57,13.12c0.51,2.54,0.67,5.16,0.9,7.75c0.14,1.53-0.28,1.97-1.82,2.11c-1.09,0.1-2.19,0.16-3.27,0.1
			c-1.69-0.1-2.03-0.5-2.19-2.21c-0.14-1.5-0.19-3.02-0.42-4.51c-0.2-1.28-0.48-2.57-0.92-3.78c-1.39-3.77-4.89-5.76-9.1-5.3
			c-3.76,0.42-6.62,3.28-7.17,7.17c-0.41,2.89,0.42,5.46,2.02,7.83c1.27,1.87,2.84,3.48,4.61,4.85c2.18,1.69,4.39,3.36,6.65,4.94
			c5.15,3.61,9.93,7.6,13.48,12.88c2.56,3.81,4.08,7.98,4.21,12.57c0.27,9.77-6.65,17.9-16.31,19.25
			C350.62,310.54,349.89,310.62,349.12,310.69z"/>
		<path d="M75.26,266.82c0.52-0.37,1.05-0.73,1.55-1.13c2.31-1.86,4.84-3.35,7.78-3.89c6.61-1.23,12.14,0.71,16.32,6.04
			c2.93,3.73,4.42,8.13,5.51,12.68c1.16,4.8,1.72,9.68,1.99,14.6c0.22,4.08,0.3,8.18,0.44,12.26c0.01,0.22,0.01,0.44,0.01,0.66
			c-0.01,2.11-0.26,2.41-2.36,2.46c-1.16,0.03-2.32-0.05-3.48-0.15c-1.12-0.09-1.42-0.4-1.6-1.52c-0.11-0.65-0.13-1.32-0.16-1.98
			c-0.15-3.7-0.23-7.41-0.45-11.1c-0.33-5.58-0.97-11.12-2.66-16.49c-0.73-2.33-1.67-4.56-3.11-6.56c-2.49-3.47-6.9-4.65-10.76-2.79
			c-3.68,1.78-6.01,4.78-7.42,8.54c-1.29,3.46-1.72,7.09-1.88,10.74c-0.24,5.58-0.31,11.16-0.46,16.74c-0.03,0.99,0,1.99-0.09,2.98
			c-0.12,1.27-0.53,1.66-1.79,1.72c-1.16,0.05-2.32,0.04-3.48-0.01c-2.03-0.09-2.38-0.48-2.37-2.51c0.03-4.53,0.06-9.07,0.09-13.6
			c0.13-19.35,0.25-38.71,0.38-58.06c0-0.28-0.01-0.55,0.01-0.83c0.07-1.51,0.36-1.84,1.88-1.91c1.21-0.06,2.43-0.06,3.65-0.03
			c1.19,0.03,1.6,0.33,1.79,1.52c0.19,1.14,0.27,2.31,0.27,3.46c-0.05,8.68-0.13,17.36-0.19,26.04c0,0.64,0.09,1.27,0.14,1.91
			C74.97,266.69,75.12,266.75,75.26,266.82z"/>
	</g>
	<g>
		<path d="M244.42,124.01c-1.67-0.07-3.32-0.2-4.94-0.58c-0.34-0.08-0.67-0.18-1-0.3c-1.3-0.46-2.2-1.33-2.48-2.7
			c-0.29-1.42-0.47-2.87-0.69-4.3c-0.12-0.8-0.2-1.62-0.37-2.41c-0.27-1.25-0.93-1.62-2.17-1.36c-1.1,0.23-1.92,0.82-2.36,1.87
			c-0.36,0.86-0.65,1.75-1.03,2.59c-0.44,0.98-0.88,1.97-1.44,2.88c-0.9,1.47-2.25,2.39-3.92,2.88c-2.19,0.65-4.41,0.71-6.66,0.57
			c-0.52-0.03-1.04-0.1-1.56-0.2c-2.45-0.5-4.08-2.29-4.46-4.76c-0.23-1.46-0.1-2.91,0.11-4.35c0.39-2.69,1.2-5.27,2.09-7.83
			c2.25-6.5,4.9-12.83,8.23-18.85c0.79-1.42,1.68-2.79,2.6-4.13c0.46-0.66,1.05-1.24,1.65-1.79c1-0.91,2.2-1.4,3.55-1.5
			c2.63-0.19,5.23-0.05,7.81,0.52c2.02,0.45,3.59,1.55,4.52,3.4c1.2,2.39,2.35,4.81,3.39,7.27c2.48,5.85,4.57,11.83,6,18.03
			c0.65,2.81,1.16,5.65,0.92,8.56c-0.08,1-0.28,2.03-0.61,2.97c-0.68,1.93-2.13,3.01-4.15,3.28
			C246.45,123.9,245.43,123.93,244.42,124.01z M233.33,102.46c1.08-0.22,1.55-0.87,1.29-1.96c-0.24-0.98-0.56-1.95-0.93-2.89
			c-0.16-0.41-0.48-0.8-0.82-1.1c-0.68-0.58-1.47-0.51-1.97,0.22c-0.92,1.35-1.3,2.9-1.34,4.52c-0.02,0.69,0.35,1.06,1.02,1.21
			C231.02,102.57,232.88,102.56,233.33,102.46z"/>
		<path d="M93.73,82.6c0-0.32,0.01-0.65,0.04-0.97c0.07-0.75,0.46-1.27,1.21-1.43c0.63-0.14,1.27-0.27,1.9-0.3
			c5.63-0.25,11.19,0.26,16.59,1.92c3.58,1.1,6.88,2.79,9.78,5.22c3.32,2.79,5.31,6.35,6.15,10.57c0.91,4.62,0.63,9.17-1.15,13.55
			c-1.38,3.39-3.58,6.14-6.61,8.25c-3.63,2.52-7.62,3.92-12.01,4.28c-2.86,0.24-5.67,0.08-8.47-0.49c-1.84-0.38-3.09-1.4-3.63-3.18
			c-0.55-1.79-1.06-3.6-1.45-5.42c-0.96-4.53-1.6-9.11-1.83-13.75C94.07,97.15,93.72,84.97,93.73,82.6z M107.51,100.41
			c0.07,0.49,0.18,1.45,0.38,2.4c0.09,0.45,0.29,0.9,0.52,1.3c0.44,0.78,1.05,1.01,1.93,0.8c1.01-0.24,1.93-0.69,2.74-1.34
			c2.02-1.64,1.64-4.4-0.77-5.36c-0.77-0.31-1.64-0.45-2.48-0.51C108.21,97.59,107.48,98.35,107.51,100.41z"/>
		<path d="M325.11,91.47c0.06-1.23,0.11-3.05,0.25-4.87c0.1-1.37,0.59-2.61,1.38-3.74c0.96-1.36,2.26-2.25,3.87-2.57
			c1.72-0.34,3.48-0.64,5.23-0.72c4.22-0.18,8.44-0.02,12.61,0.7c1.67,0.29,3.34,0.7,4.96,1.19c4.66,1.42,7.06,4.78,7.84,9.43
			c0.38,2.23,0.38,4.46-0.3,6.66c-0.94,3.02-2.78,5.33-5.45,6.98c-0.78,0.49-1.62,0.9-2.47,1.27c-1.29,0.57-1.11,1.82-0.37,2.47
			c0.38,0.33,0.8,0.65,1.25,0.85c1.12,0.49,2.28,0.89,3.42,1.34c1.19,0.47,2.4,0.92,3.56,1.47c0.97,0.47,1.47,1.33,1.37,2.42
			c-0.05,0.62-0.19,1.25-0.41,1.83c-0.85,2.15-1.92,4.2-3.33,6.03c-1.42,1.84-3.6,2.72-6,1.11c-2.47-1.66-4.67-3.64-6.55-5.95
			c-0.7-0.86-1.36-1.75-2.03-2.63c-0.16-0.21-0.69-1.22-1.19-1.11c-0.44-0.02-0.46,0.52-0.48,0.79c-0.08,1.19-0.11,2.38-0.11,3.57
			c0,0.75,0.13,1.49,0.11,2.24c-0.04,1.92-0.8,2.88-2.66,3.28c-2.24,0.49-4.51,0.57-6.77,0.2c-1.63-0.27-2.9-1.14-3.63-2.63
			c-0.4-0.82-0.72-1.71-0.96-2.6c-0.77-2.86-1.15-5.8-1.61-8.72C325.71,103.89,325.55,97.97,325.11,91.47z M340.3,94.41
			c0.05,0.45,0.07,0.9,0.15,1.34c0.28,1.56,1.16,2.19,2.73,1.96c0.12-0.02,0.24-0.02,0.36-0.05c1.18-0.25,2.32-0.6,3.21-1.47
			c0.99-0.95,1.16-2.09,0.43-3.24c-0.91-1.44-2.3-2.04-3.97-1.97c-1.7,0.07-2.61,0.93-2.83,2.63
			C340.36,93.87,340.33,94.14,340.3,94.41z"/>
		<path d="M56.07,94.61c0.08-1.94,0.14-4.01,0.27-6.07c0.05-0.72,0.21-1.44,0.41-2.14c0.66-2.33,2.11-3.98,4.36-4.92
			c2.28-0.96,4.68-1.39,7.13-1.58c4.7-0.37,9.38-0.08,14.02,0.7c1.47,0.25,2.91,0.57,4.28,1.2c2.03,0.93,3.16,2.52,3.42,4.72
			c0.25,2.15,0.38,4.3-0.03,6.44c-0.13,0.68-0.35,1.36-0.63,1.99c-0.42,0.97-1.2,1.62-2.26,1.72c-1.18,0.12-2.38,0.18-3.57,0.11
			c-2.04-0.12-4.06-0.37-6.1-0.52c-0.9-0.07-1.81-0.11-2.71-0.03c-1.19,0.1-1.78,0.97-1.59,2.14c0.12,0.72,0.49,1.1,1.23,1.12
			c0.73,0.02,1.45-0.06,2.18-0.09c0.87-0.04,1.74-0.12,2.62-0.13c0.87-0.01,1.41,0.48,1.68,1.28c0.45,1.32,0.57,2.68,0.37,4.06
			c-0.17,1.18-0.76,1.8-1.93,1.91c-1.24,0.12-2.5,0.1-3.75,0.15c-0.35,0.01-0.7,0.02-1.03,0.12c-0.49,0.14-0.64,0.43-0.6,0.93
			c0.06,0.78,0.67,1.38,1.53,1.37c0.84-0.01,1.68-0.13,2.52-0.21c2.29-0.2,4.58-0.43,6.88-0.59c0.84-0.06,1.69,0.02,2.53,0.11
			c2.24,0.26,3.66,1.61,4.05,3.81c0.34,1.92,0.26,3.84-0.22,5.72c-0.5,1.96-1.65,3.36-3.55,4.15c-1.61,0.67-3.29,1-5,1.18
			c-2.52,0.27-5.05,0.52-7.57,0.62c-3.24,0.12-6.47-0.08-9.65-0.76c-0.57-0.12-1.12-0.33-1.66-0.53c-1.49-0.54-2.58-1.54-3.34-2.93
			c-0.88-1.6-1.45-3.31-1.86-5.07c-0.87-3.72-1.47-7.49-1.8-11.3C56.45,100.45,56.28,97.6,56.07,94.61z"/>
		<path d="M285.77,101.03c0.12-5.38,1.67-10.67,5.44-15.15c2.78-3.32,6.27-5.49,10.61-6.15c3.65-0.55,7.08,0.15,10.29,1.93
			c2.75,1.53,4.95,3.65,6.73,6.23c5.37,7.82,5.73,18.93,0.88,27.09c-0.95,1.59-2.08,3.03-3.41,4.32
			c-6.18,5.98-15.11,6.46-21.88,1.14c-4.05-3.18-6.5-7.4-7.81-12.32C286.05,105.95,285.76,103.57,285.77,101.03z M300.86,100.46
			c0,2.05,1.81,3.85,3.88,3.87c1.89,0.02,3.42-1.55,3.4-3.48c-0.02-2.07-1.81-3.85-3.89-3.85
			C302.31,96.98,300.85,98.48,300.86,100.46z"/>
		<path d="M170.68,97.99c0.04,3.51-0.23,7.71-1.17,11.83c-0.54,2.39-1.34,4.69-2.63,6.78c-2.68,4.32-6.52,6.82-11.59,7.38
			c-4.19,0.46-8.19-0.24-12.03-1.97c-3.79-1.72-6.32-4.57-7.76-8.44c-0.95-2.56-1.58-5.2-1.79-7.91c-0.23-2.95-0.36-5.9-0.39-8.86
			c-0.04-3.91,0.49-7.78,1.11-11.64c0.46-2.82,2.12-4.55,4.91-5.08c3.72-0.71,7.45-0.74,11.17,0.04c0.41,0.09,0.82,0.23,1.21,0.4
			c1.1,0.46,1.84,1.27,2.22,2.41c0.52,1.57,0.55,3.19,0.31,4.79c-0.46,3.01-1.02,6.01-1.46,9.02c-0.47,3.18-0.69,6.37-0.08,9.56
			c0.16,0.85,0.45,1.72,0.85,2.49c0.62,1.18,1.58,1.44,2.78,0.88c1.38-0.64,2.22-1.78,2.76-3.16c0.66-1.68,0.73-3.44,0.64-5.22
			c-0.16-3.27-0.84-6.46-1.45-9.66c-0.44-2.28-0.7-4.58-0.29-6.9c0.41-2.37,1.45-3.46,3.81-3.96c1.11-0.24,2.22-0.31,3.36-0.15
			c1.77,0.26,3.04,1.18,3.82,2.77c0.63,1.28,0.89,2.65,1.1,4.04C170.56,90.7,170.67,93.99,170.68,97.99z"/>
		<path d="M174.09,100.45c0.26-8.2,4.7-14.43,12.73-18.17c4.12-1.92,8.52-2.92,13.09-3c1.08-0.02,2.18,0.1,3.25,0.27
			c1.55,0.24,2.6,1.18,3.21,2.61c0.66,1.56,0.99,3.21,1.23,4.87c0.19,1.28,0.34,2.57,0.47,3.86c0.19,1.88-0.02,3.71-0.83,5.44
			c-0.98,2.06-2.55,3.22-4.9,3.07c-1.56-0.1-3.11-0.3-4.66-0.46c-1.59-0.16-3.17-0.25-4.75,0.09c-3.14,0.67-5.3,2.97-5.58,6.16
			c-0.34,3.83,2.75,7.25,7,6.28c1.52-0.35,2.75-1.17,3.85-2.22c0.55-0.53,1.07-1.1,1.64-1.61c1.71-1.54,3.45-1.66,5.28-0.26
			c2.14,1.65,3.44,3.78,3.36,6.58c-0.03,1.05-0.36,2.03-0.81,2.96c-1.62,3.37-4.22,5.66-7.82,6.67c-4.64,1.3-9.21,1.04-13.62-1.04
			c-4.14-1.95-7.09-5.13-9.16-9.13C175.1,109.61,174.18,105.53,174.09,100.45z"/>
		<path d="M263.32,79.88c3.58,0.24,7.79,0.5,11.99,0.83c1.85,0.14,3.7,0.3,5.49,0.84c0.23,0.07,0.45,0.13,0.68,0.2
			c1.84,0.6,2.87,1.86,3.15,3.77c0.3,2.09,0.22,4.18-0.19,6.24c-0.12,0.6-0.34,1.2-0.62,1.74c-0.72,1.37-1.87,2.1-3.44,2.03
			c-1.15-0.05-2.29-0.17-3.44-0.22c-2.5-0.09-2.81,0.33-3.23,2.71c-0.54,3.09-0.39,6.22-0.29,9.35c0.1,3.06,0.23,6.12,0.25,9.19
			c0.01,1.2-0.15,2.41-0.37,3.59c-0.13,0.7-0.49,1.38-0.83,2.03c-0.5,0.96-1.36,1.48-2.41,1.6c-1.38,0.16-2.76,0.16-4.13-0.12
			c-1.54-0.31-2.59-1.15-2.84-2.74c-0.23-1.45-0.43-2.91-0.5-4.38c-0.09-2-0.02-4.01-0.05-6.01c-0.05-3.24-0.19-6.48-0.7-9.69
			c-0.11-0.67-0.24-1.34-0.44-1.98c-0.53-1.71-1.64-2.86-3.45-3.15c-1.16-0.18-2.34-0.21-3.51-0.35c-0.67-0.08-1.34-0.19-1.98-0.4
			c-1.44-0.45-2.31-1.47-2.66-2.93c-0.34-1.42-0.42-2.86-0.32-4.3c0.11-1.52,0.24-3.06,0.52-4.56c0.44-2.34,1.23-3,3.59-3.29
			c0.64-0.08,1.29-0.09,1.94-0.09C257.93,79.8,260.31,79.84,263.32,79.88z"/>
	</g>
	<path d="M377.02,334.61c-0.47-0.35-1.01-0.67-1.7-0.98c-9.05-4.15-18.1-8.29-27.16-12.42c-0.52-0.24-0.98-0.37-1.41-0.42
		c-0.69-0.08-1.29,0.15-1.71,0.63c-0.3,0.34-0.64,0.96-0.56,1.99c0.04,0.54,0.18,1.12,0.39,1.61c0.38,0.88,0.8,1.77,1.25,2.66
		c0.48,0.94,0.97,1.88,1.46,2.82c0.41,0.78,0.82,1.57,1.22,2.36c0.14,0.28,0.26,0.53,0.35,0.75c-0.13,0-0.27,0-0.4,0l-0.27,0
		c-16.17,0.04-53.88,0.06-93.81,0.09c-53.64,0.04-114.45,0.08-136.23,0.16c-0.01,0-0.01,0-0.02,0c-1.01,0-1.68-0.34-2.24-1.13
		c-0.27-0.39-0.57-0.76-0.86-1.13l-2.22-2.85c-1.63-2.1-3.27-4.2-4.89-6.32c-0.86-1.12-1.87-1.67-3.08-1.68
		c-0.39,0-0.78-0.03-1.17-0.06c-0.46-0.03-0.92-0.06-1.38-0.06c0,0-0.01,0-0.01,0c-12.05,0.01-24.1,0.02-36.15,0.04
		c-2.06,0-4.12,0.01-6.17,0.04c-0.07,0-0.14,0-0.22,0c-0.51-0.02-1.6-0.05-2.2,1.19c-0.62,1.27-0.04,2.34,0.27,2.91l0.11,0.21
		c0.25,0.48,0.5,0.96,0.75,1.44l1.58,3.03c1.04,1.99,2.07,3.98,3.12,5.96c0.42,0.78,0.43,1.46,0.04,2.28
		c-0.2,0.42-0.41,0.82-0.62,1.23l-2.61,5l-2.32,4.44c-0.13,0.24-0.28,0.51-0.39,0.84c-0.28,0.78-0.27,1.56,0.05,2.2
		c0.31,0.63,0.87,1.04,1.58,1.16c0.34,0.06,0.67,0.05,0.97,0.05l0.24,0l8.11,0.03c9.46,0.03,18.91,0.06,28.37,0.08
		c0.04,0,0.08,0,0.12,0c1.41,0,2.83-0.04,4.21-0.07c1.15-0.03,2.29-0.06,3.44-0.07c1.42-0.01,2.61-0.67,3.62-2
		c1.27-1.67,2.56-3.33,3.84-4.98c1.25-1.61,2.5-3.21,3.73-4.83c0.63-0.83,1.21-1.14,2.15-1.14c0,0,0,0,0.01,0
		c13.8,0.03,109.36-0.07,166.46-0.13c21.57-0.02,37.31-0.04,40.4-0.04l11.11-0.01c4.32,0,8.63-0.01,12.95-0.01
		c-0.26,0.57-0.54,1.12-0.84,1.71l-0.3,0.59c-0.31,0.62-0.63,1.23-0.94,1.85c-0.66,1.29-1.32,2.59-1.96,3.9
		c-0.29,0.59-0.49,1.28-0.56,1.94c-0.09,0.86,0.14,1.64,0.62,2.16c0.49,0.52,1.19,0.72,1.92,0.53c0.52-0.13,0.99-0.34,1.44-0.55
		l0.13-0.06c5.2-2.37,10.41-4.75,15.61-7.13c3.75-1.72,7.51-3.43,11.26-5.16c0.49-0.23,1.02-0.48,1.51-0.83
		c0.88-0.64,1.02-1.45,1.02-1.89C378,336.08,377.88,335.26,377.02,334.61z"/>
	<g>
		<g>
			<path d="M88.5,178.01c-1.42,0-2.49,1.09-2.48,2.54c0,1.5,1.32,2.82,2.84,2.83c1.38,0.01,2.5-1.14,2.49-2.55
				C91.33,179.32,90.02,178.02,88.5,178.01z"/>
			<path d="M132.11,138.94c-9.83-2.53-18.23,1.29-25.36,9.22c-9.55,10.63-3.71,10.65-13.28,0c-7.13-7.93-15.53-11.75-25.36-9.22
				c-9.97,2.56-15.1,11.28-13.95,23.13c0.89,9.26,5.76,19.93,10.31,27.62c10.76,18.17,30.01,41.7,35.6,41.7
				c5.77,0,24.87-23.43,35.69-41.7c4.55-7.69,9.42-18.36,10.31-27.62C147.21,150.22,142.08,141.5,132.11,138.94z M99.83,191.19
				c-0.69,1.16-1.52,2.22-2.5,3.16c-4.53,4.38-11.07,4.74-16.02,0.84c-2.97-2.33-4.76-5.42-5.72-9.03
				c-0.42-1.58-0.63-3.33-0.63-5.19c0.09-3.94,1.23-7.81,3.98-11.1c2.04-2.43,4.6-4.02,7.77-4.51c2.67-0.41,5.19,0.11,7.54,1.42
				c2.01,1.12,3.63,2.67,4.93,4.57C103.12,177.08,103.38,185.22,99.83,191.19z M129.22,175.49c-0.3,1.75-1.23,2.67-2.85,3
				c-1.39,0.28-2.78,0.23-4.17,0.13c-1.09-0.07-2.18-0.18-3.26-0.25c-1-0.06-1.63,0.41-1.75,1.28c-0.11,0.76,0.19,1.3,0.93,1.5
				c0.56,0.15,1.16,0.22,1.74,0.25c0.78,0.05,1.57-0.01,2.36,0.04c0.43,0.02,0.86,0.14,1.28,0.25c0.69,0.18,1.05,0.67,1.17,1.35
				c0.17,0.98,0.11,1.96-0.07,2.93c-0.2,1.01-0.75,1.49-1.78,1.65c-0.37,0.06-0.74,0.07-1.11,0.09c-0.48,0.04-0.96,0.04-1.43,0.11
				c-1.16,0.17-1.75,0.75-1.88,1.92c-0.09,0.84-0.09,1.7-0.07,2.54c0.01,0.63,0.12,1.26,0.14,1.89c0.01,0.52,0.01,1.05-0.09,1.56
				c-0.19,1.04-0.8,1.72-1.88,1.93c-1.49,0.28-2.99,0.39-4.5,0.21c-0.75-0.09-1.51-0.24-2.24-0.43c-1.61-0.43-2.48-1.58-2.76-3.16
				c-0.26-1.46-0.44-2.93-0.64-4.4c-0.3-2.14-0.64-4.28-0.86-6.42c-0.28-2.73-0.46-5.48-0.68-8.22c0.07-1.75,0.07-3.49,0.31-5.23
				c0.36-2.63,1.93-4,4.46-4.55c1.81-0.39,3.65-0.33,5.48-0.22c2.29,0.13,4.57,0.32,6.86,0.48c1.67,0.12,3.28,0.46,4.76,1.3
				c0.34,0.19,0.68,0.4,1,0.62c1.03,0.72,1.58,1.71,1.72,2.96C129.56,172.24,129.5,173.87,129.22,175.49z"/>
		</g>
		<g>
			<path d="M244.26,182.35c0.41-2.43,0.73-4.49,1.1-6.55c1.35-7.42,3.07-14.74,5.79-21.79c1.11-2.87,2.42-5.63,4.1-8.21
				c1.3-1.99,2.77-3.83,4.58-5.39c2.23-1.92,4.8-3.08,7.73-3.31c4.37-0.33,7.87,1.33,10.46,4.86c1.55,2.12,2.44,4.53,3.09,7.05
				c0.64,2.45,1.02,4.95,1.31,7.46c0.6,5.3,0.82,10.62,0.98,15.94c0.18,5.86,0.48,11.72,1.04,17.56c0.5,5.25,1.25,10.47,2.79,15.53
				c0.73,2.42,1.47,4.84,2.3,7.22c0.44,1.26,1.05,2.47,1.64,3.67c0.27,0.56,0.63,1.1,1.18,1.4c0.51-0.17,0.55-0.59,0.69-0.92
				c0.77-1.84,1.23-3.78,1.64-5.73c1.18-5.58,2.16-11.19,2.97-16.83c0.73-5.06,1.43-10.12,2.13-15.18c0.2-1.44,0.31-2.89,0.49-4.33
				c0.07-0.61-0.03-1.16-0.25-1.73c-1.61-4.14-2.45-8.45-3.09-12.83c-0.86-5.84-0.77-11.69-0.52-17.56
				c0.04-0.86,0.15-1.71,0.24-2.57c0.11-1.18,0.64-2.15,1.51-2.94c2.18-1.99,6.19-2.47,8.77-1.04c0.23,0.13,0.46,0.28,0.67,0.44
				c1.09,0.86,1.6,1.96,1.47,3.38c-0.32,3.54-0.52,7.09-0.44,10.64c0.13,5.23,0.75,10.4,2.19,15.45c0.5,1.76,1.17,3.46,2,5.1
				c1.13,2.25,2.83,4.04,4.57,5.8c0.11,0.11,0.28,0.16,0.42,0.23c0.71-0.06,1.15-0.57,1.62-0.99c0.97-0.87,1.78-1.88,2.41-3.01
				c0.88-1.6,1.78-3.2,2.5-4.87c2.44-5.69,4.47-11.53,5.69-17.62c0.58-2.9,1.07-5.82,1.35-8.76c0.32-3.32,2.17-5.14,5.18-6.02
				c1.25-0.37,2.52-0.46,3.83-0.28c2.02,0.28,3.68,1.19,4.89,2.82c0.77,1.03,1.45,2.14,2.07,3.26c1.66,3.03,2.82,6.27,3.8,9.58
				c2.06,6.92,3.6,13.95,4.57,21.1c0.43,3.14,0.77,6.3,1.16,9.45c0.03,0.26,0.07,0.53,0.13,0.94c0.28-0.18,0.52-0.28,0.68-0.45
				c1.94-2.08,3.26-4.53,4.13-7.22c1.1-3.4,1.51-6.93,1.82-10.47c0.02-0.27,0.06-0.54,0.05-0.81c-0.04-1.44,1.74-2.77,3.59-2.21
				c0.69,0.21,1.04,0.75,1.03,1.48c-0.02,0.97-0.04,1.94-0.11,2.9c-0.2,2.73-0.3,5.48-0.9,8.17c-0.98,4.39-2.88,8.31-5.9,11.68
				c-1.19,1.33-2.56,2.45-4.05,3.43c-0.04,0.26-0.09,0.46-0.09,0.67c0,3.61-0.22,7.21-0.62,10.79c-0.45,4.07-1.1,8.1-2.58,11.95
				c-1.65,4.29-4,8.15-7.67,10.98c-5.93,4.59-12.41,5.62-19.36,2.45c-1.02-0.46-2.02-1.05-2.88-1.76
				c-3.52-2.89-6.11-6.47-7.59-10.81c-1.29-3.8-1.05-7.51,0.59-11.15c1.66-3.67,4.14-6.64,7.5-8.87c3.13-2.09,6.58-3.37,10.23-4.19
				c2.95-0.66,5.94-0.97,8.94-1.23c0.42-0.04,0.84-0.09,1.37-0.14c0.02-0.39,0.09-0.75,0.06-1.1c-0.87-9.44-2.46-18.76-4.94-27.92
				c-0.63-2.33-1.34-4.65-2.03-6.97c-0.1-0.35-0.26-0.69-0.47-1.22c-0.24,0.47-0.43,0.77-0.54,1.09c-1.07,3.16-2.1,6.33-3.19,9.47
				c-1.04,3-2.09,5.99-3.22,8.95c-0.94,2.47-2.23,4.77-3.71,6.96c-1.27,1.88-2.74,3.59-4.54,4.99c-2.74,2.12-5.8,3.26-9.3,2.98
				c-3.1-0.24-5.83-1.39-8.09-3.57c-0.19-0.18-0.38-0.34-0.55-0.49c-0.42,0.15-0.35,0.46-0.38,0.7c-0.3,2.24-0.55,4.48-0.87,6.72
				c-0.69,4.95-1.36,9.91-2.14,14.85c-0.61,3.88-1.35,7.73-2.07,11.59c-0.32,1.69-0.82,3.34-1.61,4.89
				c-0.77,1.52-1.84,2.79-3.31,3.66c-2.28,1.34-4.68,1.45-7.14,0.52c-1.73-0.65-3.22-1.72-4.6-2.93c-1.87-1.65-3.48-3.52-4.73-5.68
				c-0.59-1.02-1.08-2.11-1.48-3.21c-1.37-3.8-2.24-7.74-2.92-11.72c-0.86-5.1-1.4-10.23-1.68-15.39
				c-0.33-6.02-0.61-12.03-0.96-18.05c-0.28-4.78-0.66-9.55-1.56-14.26c-0.3-1.59-0.66-3.16-1.31-4.65
				c-0.4-0.93-0.83-1.87-1.69-2.55c-0.67,0.11-1.15,0.55-1.64,0.96c-1.21,1-2.21,2.19-3.11,3.48c-1.45,2.08-2.58,4.34-3.57,6.67
				c-2.04,4.82-3.4,9.85-4.49,14.96c-1.35,6.32-2.18,12.71-2.68,19.16c-0.6,7.74-0.46,15.48-0.04,23.22
				c0.06,1.13,0.08,2.26,0.1,3.39c0.04,3.59-3.64,5.7-6.18,5.44c-1-0.1-1.87-0.51-2.55-1.26c-0.54-0.59-1.06-1.22-1.49-1.9
				c-1.61-2.49-2.98-5.11-4.14-7.84c-0.84-1.99-1.29-4.1-1.73-6.21c-0.5-2.36-0.93-4.74-1.4-7.18c-0.39,0.19-0.44,0.56-0.54,0.88
				c-1.36,4.25-2.8,8.47-4.53,12.59c-0.62,1.49-1.3,2.95-2.01,4.4c-0.77,1.55-1.79,2.94-3.09,4.1c-2.1,1.86-4.53,2.85-7.36,2.75
				c-1.88-0.06-3.57-0.71-5.15-1.69c-1.61-1-3-2.27-4.25-3.69c-2.68-3.06-4.86-6.43-6.05-10.37c-0.15-0.51-0.37-0.99-0.64-1.7
				c-0.22,0.61-0.38,1-0.5,1.4c-0.74,2.36-1.43,4.73-2.21,7.08c-0.39,1.17-0.84,2.33-1.41,3.42c-3.97,7.61-13.77,7.82-18.71,2
				c-1.04-1.22-1.91-2.61-2.69-4.01c-1.96-3.49-3.26-7.25-4.28-11.11c-1.26-4.74-2.08-9.56-2.61-14.43
				c-0.45-4.12-0.9-8.24-1.16-12.37c-0.38-5.85-0.49-11.72-0.27-17.58c0.05-1.39,0.12-2.78,0.07-4.26
				c-0.36-0.07-0.66-0.17-0.96-0.19c-1.84-0.1-3.65-0.07-5.4,0.62c-0.35,0.14-0.73,0.26-1.09,0.26c-0.53,0-1.08-0.02-1.57-0.19
				c-0.88-0.3-1.2-1.16-0.75-1.96c0.26-0.46,0.64-0.87,1.04-1.21c0.87-0.74,1.89-1.23,2.97-1.58c1.28-0.42,2.58-0.73,3.94-0.82
				c0.59-0.04,1.17-0.11,1.84-0.17c0.08-0.39,0.2-0.74,0.22-1.09c0.08-1.56,0.11-3.12,0.22-4.67c0.16-2.25,0.38-4.5,0.57-6.75
				c0.14-1.65,1.03-2.81,2.43-3.58c2.36-1.3,4.81-1.42,7.3-0.39c0.44,0.18,0.86,0.46,1.24,0.75c1.09,0.86,1.59,1.97,1.48,3.38
				c-0.24,3-0.45,6.01-0.64,9.01c-0.09,1.4-0.12,2.8-0.15,4.19c-0.01,0.37,0.04,0.73,0.06,1.14c2.11,0.68,4.18,0.65,6.26,0.35
				c0.64-0.09,1.27-0.25,1.9-0.37c0.71-0.13,1.4-0.03,2.05,0.28c1.15,0.54,1.39,1.7,0.57,2.66c-0.47,0.55-1.09,0.86-1.75,1.12
				c-2.78,1.09-5.64,1.74-8.66,1.48c-0.16-0.01-0.32,0.03-0.55,0.05c-0.05,0.3-0.14,0.6-0.15,0.91c-0.14,6.67-0.17,13.34,0.37,20
				c0.47,5.79,1.06,11.57,2.17,17.28c0.75,3.81,1.75,7.54,3.24,11.13c1.15,2.76,2.73,5.24,4.74,7.45c0.11,0.12,0.24,0.2,0.35,0.29
				c0.44,0.02,0.57-0.33,0.7-0.58c0.57-1.09,1.18-2.18,1.64-3.32c1.66-4.09,2.93-8.31,4.15-12.55c0.48-1.65,0.89-3.32,1.38-4.97
				c0.22-0.74,0.27-1.47,0.2-2.23c-0.71-7.51-0.71-15.04-0.37-22.57c0.11-2.36,0.34-4.72,0.38-7.09c0.05-3.83,4.49-7.25,8.74-5.91
				c2.31,0.73,3.74,2.67,3.68,5.08c-0.03,1.24-0.15,2.47-0.2,3.71c-0.18,4.62-0.4,9.24-0.49,13.87c-0.09,4.25,0.15,8.5,0.63,12.73
				c0.56,4.93,1.57,9.76,3.48,14.37c0.6,1.44,1.06,2.93,1.67,4.37c0.5,1.19,1.04,2.37,1.7,3.47c0.52,0.87,1.23,1.62,1.89,2.4
				c0.19,0.23,0.52,0.34,0.79,0.52c0.7-0.36,1.13-0.93,1.48-1.52c0.67-1.1,1.33-2.22,1.89-3.37c2.35-4.85,4.23-9.88,5.83-15.02
				c1.15-3.69,2.16-7.43,3.25-11.14c0.25-0.84,0.32-1.68,0.28-2.55c-0.23-4.84-0.47-9.68-0.33-14.52c0.11-3.6,0.29-7.2,0.5-10.8
				c0.21-3.65,0.49-7.3,0.75-10.95c0.02-0.27,0.03-0.54,0.05-0.81c0.22-3.03,1.78-4.98,4.72-5.8c1.54-0.43,3.09-0.4,4.59,0.17
				c2.07,0.78,3.4,2.57,3.2,4.87c-0.15,1.71-0.25,3.43-0.38,5.15c-0.35,4.61-0.78,9.22-1.04,13.84c-0.33,5.86-0.28,11.72,0.15,17.58
				C244.07,181.81,244.12,181.91,244.26,182.35z M345.41,193.59c-2.43,0.35-4.66,0.64-6.88,1.01c-2.66,0.43-5.25,1.09-7.72,2.21
				c-2.81,1.27-4.86,3.29-6.27,6.02c-1.16,2.25-1.43,4.6-0.92,7.05c0.7,3.37,2.62,5.97,5.24,8.09c1.69,1.37,3.69,1.93,5.84,2.02
				c1.29,0.05,2.42-0.34,3.48-1.06c2.39-1.63,4.1-3.79,4.98-6.55c0.48-1.53,0.9-3.1,1.22-4.67c0.86-4.23,1.08-8.53,1.15-12.83
				C345.53,194.5,345.46,194.14,345.41,193.59z"/>
			<path d="M203.59,138.62c3.65-0.03,6.55,2.84,6.65,6.47c0.1,3.58-2.91,6.73-6.54,6.8c-3.02,0.06-6.57-2.25-6.64-6.67
				C197,141.61,199.98,138.65,203.59,138.62z"/>
		</g>
	</g>
</g>
</svg>
