<?xml version="1.0" encoding="utf-8"?>
<!-- Generator: Adobe Illustrator 18.1.1, SVG Export Plug-In . SVG Version: 6.00 Build 0)  -->
<svg version="1.1" id="Layer_1" xmlns="http://www.w3.org/2000/svg" xmlns:xlink="http://www.w3.org/1999/xlink" x="0px" y="0px"
	 viewBox="0 0 595.3 595.3" enable-background="new 0 0 595.3 595.3" xml:space="preserve">
<g>
	<path fill="#F99D33" d="M120.1,306.4c-2.1,1.2-4.3,1.8-6.7,2c7.7-9,10.8-18.6,10.8-18.6c-1.8,1-3.8,1.5-5.9,1.7
		c7.8-11.1,12.2-21.7,12.2-21.7c-1.6,0.6-3.3,0.9-5.1,1c0,0,8.6-13,11.3-22.6c2.4,8.7,5.8,16.5,9.9,23.6c-1.7-0.3-3.4-1.1-5.1-2.5
		c3.3,8.9,6.7,16.8,10.3,23.1c-2.2-0.3-4.4-1.2-6.6-2.7c2.1,5,4.8,9.6,7.8,14c5.1-5.4,9.9-12.9,14.5-21.6c-2.6,1.5-5,2.4-7.3,2.4
		c4.5-6.5,8.1-14,11.2-22.3c-2.5,1.6-5.2,2.5-7.9,2.6c4.5-5.7,8.3-12,11.2-19c-2.2,1.5-4.3,2.4-6.6,2.7c3.6-6.3,7-14.1,10.3-23.1
		c-1.7,1.4-3.4,2.2-5.1,2.5c4.1-7.1,7.5-14.9,9.9-23.6c2.7,9.5,11.3,22.6,11.3,22.6c-1.8-0.2-3.5-0.5-5.1-1c0,0,4.4,10.6,12.2,21.7
		c-2.1-0.2-4.1-0.8-5.9-1.7c0,0,3.1,9.6,10.8,18.6c-2.3-0.2-4.6-0.8-6.7-2c0,0,3.6,9.3,11,19.6c-2.5,0-4.9-0.5-7.2-1.7
		c0,0,3.3,9.5,10.4,18.5c2.2-3.6,4.2-7.3,5.9-11.2c-2.2,1.5-4.3,2.4-6.6,2.7c3.6-6.3,7-14.1,10.3-23.1c-1.7,1.4-3.4,2.2-5.1,2.5
		c4.1-7.1,7.5-14.9,9.9-23.6c2.7,9.5,11.3,22.6,11.3,22.6c-1.8-0.2-3.5-0.5-5.1-1c0,0,4.3,10.3,11.8,21.2c2.9-4.3,5.8-9.2,8.5-14.5
		c-2.9,1.7-5.6,2.6-8.1,2.6c5-7.2,9-15.6,12.5-24.8c-2.8,1.8-5.7,2.8-8.8,2.9c5-6.4,9.2-13.4,12.5-21.1c-2.4,1.6-4.8,2.7-7.3,3
		c4-7,7.8-15.7,11.5-25.6c-1.9,1.5-3.8,2.5-5.7,2.7c4.6-7.9,8.3-16.5,11-26.2c3,10.6,12.6,25.1,12.6,25.1c-2-0.2-3.9-0.5-5.7-1.2
		c0,0,4.9,11.8,13.6,24.1c-2.4-0.3-4.6-0.8-6.6-1.9c0,0,3.5,10.7,12,20.7c-2.6-0.2-5.1-0.9-7.4-2.2c0,0,3.7,9.4,11.1,20.2
		c4.7-5.2,8.6-11.1,11.9-17.6c-4,2.1-7.8,3.2-11.3,2.9c6.9-6.9,13.2-16.8,19.3-28.4c-3.3,1.9-6.3,2.9-9.1,2.9
		c5.6-8.1,10.2-17.5,14-27.9c-3.2,2-6.5,3.1-9.9,3.3c5.7-7.2,10.3-15.1,14-23.7c-2.7,1.8-5.4,3-8.2,3.3c4.5-7.8,8.8-17.7,12.9-28.8
		c-2.1,1.7-4.2,2.8-6.4,3.1c5.1-8.9,9.4-18.6,12.4-29.5c3.4,11.9,14.1,28.2,14.1,28.2c-2.3-0.2-4.4-0.6-6.4-1.3
		c0,0,5.5,13.3,15.2,27.1c-2.7-0.3-5.2-0.9-7.4-2.1c0,0,3.9,12,13.5,23.3c-2.9-0.2-5.7-1-8.4-2.5c0,0,4.5,11.6,13.7,24.6
		c-3.2,0-6.2-0.6-9-2.2c0,0,5.6,16,17.5,28.4c-3.4,0.1-6.5-0.5-9.3-2.1c0,0,3.7,11.4,13.1,26.2c2.4-3.6,4.7-7.5,6.9-11.8
		c-2.6,1.5-4.9,2.3-7.1,2.3c4.4-6.4,8-13.8,11-21.9c-2.5,1.6-5.1,2.5-7.8,2.6c4.4-5.6,8.1-11.8,11-18.6c-2.1,1.4-4.3,2.4-6.4,2.6
		c3.5-6.1,6.9-13.9,10.2-22.6c-1.7,1.4-3.3,2.2-5,2.4c4-7,7.4-14.6,9.7-23.1c2.6,9.4,11.1,22.1,11.1,22.1c-1.8-0.2-3.5-0.5-5-1
		c0,0,4.3,10.4,12,21.3c-2.1-0.2-4-0.7-5.8-1.7c0,0,3.1,9.4,10.6,18.3c-2.3-0.2-4.5-0.8-6.6-2c0,0,3.5,9.1,10.8,19.3
		c-2.5,0-4.9-0.5-7.1-1.7c0,0,4.4,12.6,13.7,22.3c-2.6,0.1-5.1-0.4-7.3-1.6c0,0,3.3,10,11.5,22.6c3-4.9,5.6-10.2,7.8-16.1
		c-2.2,1.4-4.4,2.1-6.8,2.3c3.9-4.9,7.1-10.3,9.6-16.2c-1.8,1.3-3.7,2.1-5.6,2.3c3.1-5.3,6-12.1,8.8-19.7c-1.4,1.2-2.9,1.9-4.3,2.1
		c3.5-6.1,6.4-12.7,8.5-20.1c2.3,8.2,9.7,19.3,9.7,19.3c-1.5-0.1-3-0.4-4.4-0.9c0,0,3.8,9.1,10.4,18.5c-1.8-0.2-3.5-0.6-5-1.5
		c0,0,2.7,8.2,9.2,15.9c-2-0.1-3.9-0.7-5.7-1.7c0,0,3,7.9,9.4,16.8c-2.2,0-4.2-0.4-6.2-1.5c0,0,2.7,7.8,8.5,15.3
		c1.2-8.6,1.8-17.4,1.8-26.4c0-108.3-87.8-196.2-196.2-196.2c-108.3,0-196.2,87.8-196.2,196.2c0,8.8,0.6,17.5,1.8,26
		C118.8,313.8,120.1,306.4,120.1,306.4z M236.5,149.1c2.4,0,4.7,0.4,6.9,1.2c-8.4,2.9-14.5,10.9-14.5,20.3c0,9.4,6.1,17.4,14.5,20.3
		c-2.2,0.7-4.5,1.2-6.9,1.2c-11.8,0-21.4-9.6-21.4-21.4C215,158.7,224.6,149.1,236.5,149.1z"/>
	<path fill="#162035" d="M520.8,436.7c-1.3,0.2-2.4,1.1-2.9,2.4c-1.1,3-2.2,6-3.3,8.9c-15.9-6.2-32-11.8-48.3-16.6
		c-19.4-5.6-39-10.1-58.6-13.6c-39.4-6.8-79.2-9.5-118.7-8.2c-23.9,1-47.7,3.4-71.2,7.3c1-5.8,2.2-12.2,3.9-19c3.2,3.3,8.1,6,15.4,6
		c14.2-0.2,33.4-18.3,37.7-46.2c4.1-27.8-8.5-33.2-22.6-27.3c-2.1,1.1-5.8,3.8-8.5,6.4c1-2,1.5-3.5,2.1-4.6c0.3-0.6,0.6-1.1,0.9-1.7
		c-13.1-3.4-22.6-8.7-28.5,7.9c-0.5,1.4-6.2,17.3-12.4,41.9c-1,1.5-2.2,3.2-3.7,5.2c-2.4,3.5-6.5,8.8-11.4,7.3
		c-3.9-1.2-6.3-5.4-6.4-10.6c-0.1-5.4-0.8-10.1-1.7-14.4c9.1-10.7,18.4-21.3,28-31.8c-1.6-1.2-3.3-2-5-2.4c-2.9-0.8-6.6-0.8-9.5,2.9
		c-2.8,3.4-7.2,8-10.8,11.9c-2.1,2.3-4.2,4.5-6.4,6.8c-4.4-16.1-12.9-19.3-20.9-18.8c-4.5,0.4-9.4,2.3-14.5,5.5
		c2.5,0.9,4.8,2.5,7.2,5.1c3.9,4.3,8.2,12.3,11.1,26.6c-5.3,5.3-11.6,11.4-17.9,17.1c-12.4,11-23.8,15.3-27.4,4.9
		c-1-3-1.2-6.9-0.7-11.7c15.7,7.1,27-7.8,29.7-13.7c3-7.8,4-28.6-12.5-29.9c-19.1-1.3-34.1,11.8-39.8,30.6
		c-8.2,26.7,1.8,50.1,26.1,47.1c15-1.8,32.6-18.7,45.1-32.2c1,4.4,2.4,8.1,4.4,11.3c3.2,5.6,8.7,10.7,17.4,10.2
		c5.2-0.4,10.4-3.9,15-8.4c-1.1,5-2.2,10.3-3.2,15.7c-0.4,2.2-0.7,4.2-0.9,6.1c-8.6,1.7-17.1,3.6-25.6,5.7
		c-16.4,4.2-32.6,9.1-48.6,14.7c-3.8-3.3-7.6-6.5-11.5-9.7c-0.1-0.1-0.3-0.2-0.4-0.3c-2.5-1.7-6.2-1.1-8.2,1.4
		c-2,2.5-1.5,5.8,1.1,7.5c2.6,1.7,5.2,3.5,7.8,5.2c-3,1.2-6,2.3-9,3.5c-4.3-2.8-8.6-5.5-12.9-8.2c-1.7-1-4.1-0.7-5.5,0.9
		c-1.5,1.7-1.3,4.1,0.4,5.3c2.7,2,5.4,4.1,8.1,6.1c-3.2,1.3-6.3,2.7-9.5,4.1c-4.2-3.1-8.5-6.2-12.8-9.2c-0.1-0.1-0.3-0.2-0.4-0.3
		c-2.7-1.5-6.3-0.6-8.1,2c-1.8,2.6-1.1,5.9,1.6,7.4c3,1.6,5.9,3.4,8.9,5c-0.2,0.1-0.5,0.2-0.7,0.3c-2.7,1.3-5.4,2.6-8,3.9
		c-4.7-2.6-9.5-5.1-14.3-7.6c-1.8-0.9-4.2-0.3-5.5,1.3c-1.4,1.8-1,4.1,0.8,5.3c4.1,2.6,8.2,5.2,12.2,7.9c-0.8,4.9-1.6,9.7-2.2,14.6
		c0,0.2,0,0.3,0,0.5c-0.1,3,2.3,5.3,5.3,5.4c3,0,5.6-2.3,5.8-5.3c0.3-5.3,0.7-10.5,1.1-15.8c3.1-1.4,6.3-2.8,9.4-4.2
		c-0.3,3.5-0.7,6.9-1,10.4c-0.2,1.9,1.2,3.6,3.2,3.9c2.1,0.3,4.1-1.1,4.5-3.2c0.7-3.5,1.4-7,2.1-10.5c0.3-1.5,0.6-3.1,0.9-4.6
		c3-1.2,6-2.4,9-3.6c-0.7,3.1-1.5,6.3-2.2,9.4c0,0.2-0.1,0.3-0.1,0.5c-0.1,0.5,0,1,0.1,1.5c0.4,2.2,2.3,4,4.7,4.2
		c1.3,0.1,2.5-0.3,3.6-1c1.3-0.9,2.3-2.2,2.6-3.9c0.7-5,1.4-10,2.2-14.9c3.2-1.2,6.4-2.3,9.6-3.4c-0.5,3.2-1.1,6.3-1.6,9.5
		c-0.3,1.9,1,3.7,2.9,4.1c2.1,0.4,4.2-0.8,4.7-2.9c1.3-4.7,2.6-9.4,4-14.1c15.9-5.3,32.1-9.9,48.4-13.7c7.6-1.8,15.3-3.5,23-5
		c0.7,7.5,3.6,11.4,6.8,13.4c2.9,1.7,6.4,2.1,10.7,1.2c0.1-4.1,0.3-8.6,1-13.6c0.2-1.3,0.4-2.9,0.6-4.4c24.2-3.9,48.6-6.3,73.1-7.1
		c38.8-1.6,77.9,0.8,116.7,7.2c19.4,3.1,38.8,7.2,58,12.3c16.2,4.2,32.2,9.2,48.1,14.8c-1.1,3-2.2,5.9-3.3,8.9
		c-0.5,1.2-0.2,2.6,0.6,3.7c0.7,0.8,1.7,1.3,2.8,1.3c0.2,0,0.5,0,0.7-0.1c0.3-0.1,0.6-0.1,0.9-0.1c7.8-1.4,15.9-2.7,23.9-3.8
		c1.3-0.2,2.4-1,2.9-2.2c0.5-1.2,0.3-2.6-0.4-3.6c-0.7-0.9-1.4-1.8-2.1-2.8c-4.5-6-9.1-11.9-13.8-17.8
		C523.4,437,522,436.5,520.8,436.7z M126.3,352.7c3-4.2,7.4-7.8,7.7,6.8c-0.2,8.4-5.9,22.6-16.5,14.5
		C119.5,365.4,122.9,357.4,126.3,352.7z M224.5,387.2c0.4-1.2,5.6-21.4,14.5-34.6c11.6-17.3,23.1-3.5,9.6,18.9
		C233.7,396.5,226.4,390.7,224.5,387.2z M521.4,372c-2.4,2.1-5.1,4.5-8.2,6.8c-5.2,4.1-12.5,9.3-21.5,14c-14.7,7.7-27,9.3-27.3-1.8
		c0-3.2,1-7,2.7-11.4c13,11.5,28.5,0.6,32.5-4.3c4.8-6.3,12.8-26.3-2.8-32.2c-19.1-7.2-36.1,1.3-47.2,17.2c-5.8,8.4-9.1,17-9.8,24.9
		c-1.3,1.3-2.9,2.7-4.8,4.3c-4.6,3.8-17.7,9.9-10.6-4.9c4.3-8.6,9.4-17.5,14.4-24.9c3.6-4.7,12.8-19.6-8.9-27.6
		c-3.9-1.5-6.9-3-9.9-4.5c5-8.4,10-17.6,10.8-23.4c2.1-12.3-21-19.2-31.1-6.5c-8.9,11.2-8.5,28.5,2.6,33.7
		c-5.6,14.1-12.2,25.8-17.5,34.5c-2.3,3.8-4.6,7.2-6.9,10.4c-0.2,0.2-0.4,0.5-0.6,0.7c-2.6,2.4-5.6,4.9-8.1,4.3
		c15.7-27.9,7-44.5-3.5-49.4c-7.7-3.6-33.6-7.8-47.7,22.7c-3.9,8.5-5.4,15.7-5.4,22c-1,1.4-2.3,2.9-3.9,4.7
		c-3.7,4.1-13.7,12.4-11.3-2.1c3.6-21.7,12.6-43.2,21-59.8c5-9.6,10.3-18.7,16.2-27.3c-17.1-7.1-23.1-8.7-31.2,7.9
		c-0.9,1.5-12.9,22.6-21.3,53.8c-1.8,6.2-3.1,11.7-4,16.4c0,0.3-0.1,0.8-0.3,1.3c-2.1,10.8-1.1,17.5,1.3,21.8
		c2.1,4.4,5.8,7,10.9,7.7c8.3,1.2,17.6-6.3,24.3-13.8c3.3,9.3,10.9,14.5,17.7,15.5c9.3,1.4,20.6,0.3,32.1-12.2
		c7,0.9,12.9-2.4,17.1-6.2c1.5-1.2,2.7-2.6,4-4.1c0,0,0.1-0.1,0.1-0.1c8.2-9.5,22.4-31.3,27.9-41.6c4.8,4,4,9.8,1.1,15.4
		c-18.3,34.8-13.9,48.5-2.5,51.9c10.3,3.2,21-2.9,28.9-10c2.2,8.7,8.7,15.2,19.8,17.2c23.8,4.4,57.2-28.2,60.8-31.3
		C524.5,378.5,523.1,370.9,521.4,372z M333.2,391.4c-2.9-2.3-1.5-10,2.4-19.5c1.9,4.8,5.3,9.4,10.1,13
		C339.3,391.1,334.3,392.5,333.2,391.4z M352.9,376.2c-7.2-1.9-9.5-17.5-6.7-23.9c4.7-10.5,11.8-13.7,16.4-12.5
		C365.8,340.8,368.2,359.7,352.9,376.2z M409.2,302.3c5.7-4.5,6-0.8,2.7,8.6c-0.7,1.9-3,6.9-4,9.1
		C401.7,317.9,404.6,306.1,409.2,302.3z M486.4,352.9c4.5-2.9,9.5-5.3,5.4,9c-2.7,8.2-12.5,19.1-20.1,8.8
		C476.2,363.2,481.9,356.3,486.4,352.9z M449.8,126.3c6.1-6.9,22.2-3.7,25.3,5.2c3.1-8.9,19.2-12.1,25.3-5.2
		c-14.8-1.3-23,7.1-25.3,11.5C472.8,133.4,464.6,125,449.8,126.3z M36.6,247.9c6.1-6.9,22.2-3.7,25.3,5.2
		c3.1-8.9,19.2-12.1,25.3-5.2c-14.8-1.3-23,7.1-25.3,11.5C59.5,255,51.3,246.6,36.6,247.9z M508.2,312.4c6.1-6.9,22.2-3.7,25.3,5.2
		c3.1-8.9,19.2-12.1,25.3-5.2c-14.8-1.3-23,7.1-25.3,11.5C531.1,319.5,522.9,311.1,508.2,312.4z"/>
</g>
</svg>
