<?xml version="1.0" encoding="utf-8"?>
<!-- Generator: Adobe Illustrator 25.2.1, SVG Export Plug-In . SVG Version: 6.00 Build 0)  -->
<svg version="1.1" id="Calque_1" xmlns="http://www.w3.org/2000/svg" xmlns:xlink="http://www.w3.org/1999/xlink" x="0px" y="0px"
	 viewBox="0 0 432 432" style="enable-background:new 0 0 432 432;" xml:space="preserve">
<style type="text/css">
	.st0{fill:#F9D53D;}
	.st1{fill:#D3B844;}
	.st2{fill:#E0AAAF;}
	.st3{fill:#BA9196;}
	.st4{fill:#EAB978;}
	.st5{fill:#FBB03B;}
	.st6{fill:#A1C3CE;}
	.st7{fill:#8CC63F;}
	.st8{fill:#C7B299;}
	.st9{fill:#CCCCCC;}
	.st10{fill:#C44750;}
	.st11{fill:#998675;}
	.st12{fill:#29ABE2;}
	.st13{fill:#C79C52;}
	.st14{fill:#766FBF;}
	.st15{fill:#E8A3AB;}
</style>
<g>
	<g>
		<g>
			<g>
				<path d="M246.56,152.37c0.12-0.23,0.25-0.46,0.35-0.7c0.57-1.33,1.32-2.53,2.45-3.45c1.57-1.3,3.34-1.86,5.35-1.29
					c1.41,0.4,2.44,1.33,3.25,2.52c0.97,1.42,1.55,3.01,1.91,4.68c0.59,2.75,0.73,5.55,0.76,8.35c0.05,5.45,0.08,10.91,0.1,16.37
					c0,0.88-0.04,1.77-0.09,2.65c-0.03,0.56-0.2,0.76-0.75,0.8c-0.66,0.05-1.33,0.04-1.99,0c-0.47-0.03-0.62-0.23-0.65-0.73
					c-0.02-0.47,0.01-0.93,0-1.4c-0.02-6.24-0.01-12.48-0.08-18.72c-0.02-2.23-0.16-4.47-0.69-6.66c-0.18-0.76-0.46-1.5-0.73-2.23
					c-0.15-0.39-0.36-0.75-0.59-1.1c-1.04-1.57-2.45-1.71-3.82-0.39c-0.63,0.61-1.03,1.37-1.35,2.17c-0.64,1.56-0.96,3.2-1.17,4.86
					c-0.5,3.98-0.55,7.98-0.53,11.99c0.02,3.54-0.04,7.08-0.09,10.61c-0.02,1.36-0.18,1.5-1.56,1.52c-0.42,0.01-0.84,0-1.25-0.03
					c-0.54-0.05-0.75-0.25-0.81-0.78c-0.03-0.27-0.02-0.54-0.02-0.81c-0.07-5.31-0.1-10.62-0.21-15.92
					c-0.06-2.97-0.23-5.94-0.86-8.86c-0.17-0.81-0.44-1.61-0.7-2.4c-0.11-0.32-0.28-0.63-0.47-0.91c-0.88-1.32-2.34-1.53-3.56-0.49
					c-0.77,0.65-1.27,1.49-1.6,2.43c-0.49,1.4-0.76,2.85-0.89,4.32c-0.4,4.39-0.38,8.79-0.45,13.18c-0.05,2.92-0.1,5.85-0.15,8.77
					c0,0.15-0.01,0.29-0.02,0.44c-0.06,0.81-0.22,0.98-1.03,1.02c-0.44,0.02-0.88,0.02-1.33,0.01c-0.97-0.02-1.11-0.16-1.11-1.12
					c-0.01-4.05-0.02-8.11-0.04-12.16c-0.03-6.24-0.06-12.48-0.08-18.73c0-0.44,0.05-0.88,0.12-1.32c0.06-0.45,0.36-0.7,0.8-0.72
					c0.56-0.03,1.13-0.04,1.69-0.01c0.54,0.03,0.64,0.14,0.75,0.71c0.02,0.1,0.02,0.2,0.05,0.29c0.12,0.39,0.31,0.47,0.65,0.22
					c0.28-0.2,0.52-0.45,0.78-0.67c2.44-2.17,6.2-1.89,8.14,1.2c0.38,0.6,0.65,1.26,0.94,1.91
					C246.14,152.1,246.11,152.11,246.56,152.37z"/>
				<path d="M270.52,164.13c-0.03-1.16-0.36-2.21-1.04-3.17c-2.61-3.7-5.2-7.41-7.79-11.11c-0.07-0.1-0.15-0.21-0.22-0.31
					c-0.58-0.84-0.54-1.08,0.27-1.64c0.37-0.26,0.76-0.5,1.15-0.72c0.67-0.38,0.87-0.35,1.32,0.28c1.18,1.66,2.34,3.33,3.51,5
					c1.29,1.83,2.57,3.66,3.86,5.49c0.81,1.15,1.09,1.15,1.89,0c2.38-3.39,4.76-6.79,7.15-10.19c0.72-1.03,0.81-1.05,1.86-0.4
					c0.36,0.22,0.73,0.45,1.06,0.72c0.52,0.41,0.55,0.67,0.2,1.21c-0.15,0.23-0.31,0.45-0.47,0.68c-2.45,3.5-4.87,7.02-7.37,10.49
					c-0.93,1.28-1.38,2.64-1.39,4.2c-0.06,5.38-0.14,10.76-0.22,16.14c0,0.23,0,0.45,0,0.68c0.01,0.37-0.19,0.57-0.54,0.59
					c-0.83,0.02-1.66,0.03-2.49,0.03c-0.31,0-0.45-0.19-0.46-0.48c-0.01-0.15-0.02-0.3-0.02-0.45
					C270.77,178.3,270.58,166.94,270.52,164.13z"/>
			</g>
			<g>
				<path d="M168.73,176.36c-0.44,0.02-0.6,0.38-0.8,0.65c-0.73,1-1.54,1.93-2.49,2.72c-1.48,1.24-3.14,2.09-5.09,2.35
					c-1.83,0.25-3.54-0.11-5.15-0.97c-1.76-0.94-3.08-2.35-4.15-4.01c-1.37-2.12-2.2-4.46-2.62-6.94
					c-0.88-5.18-0.35-10.2,1.81-15.02c0.88-1.96,2.05-3.74,3.61-5.24c1.46-1.41,3.14-2.46,5.15-2.86c2.74-0.55,5.18,0.16,7.29,1.93
					c0.77,0.65,1.41,1.46,2.1,2.21c0.16,0.17,0.29,0.36,0.41,0.53c0.34-0.06,0.35-0.28,0.35-0.5c0.01-0.47-0.01-0.95,0.02-1.42
					c0.05-0.87,0.27-1.09,1.12-1.1c0.45-0.01,0.9-0.02,1.35,0.01c0.65,0.05,0.77,0.2,0.82,0.83c0.01,0.17,0.01,0.33,0.01,0.5
					c-0.06,9.72-0.13,19.44-0.19,29.16c0,0.43,0,0.85-0.03,1.28c-0.05,0.72-0.23,0.91-0.97,0.95c-0.5,0.03-1,0.02-1.49-0.02
					c-0.63-0.04-0.79-0.21-0.8-0.85c-0.02-1.07-0.01-2.13-0.01-3.2C168.99,177.01,169,176.65,168.73,176.36z M168.65,163.51
					c-0.07-0.97-0.11-1.94-0.22-2.9c-0.27-2.33-0.9-4.55-2.11-6.58c-0.7-1.17-1.56-2.21-2.72-2.95c-1.62-1.04-3.32-1.18-5.08-0.41
					c-0.9,0.39-1.68,0.97-2.38,1.65c-1.36,1.33-2.33,2.92-3.07,4.66c-1.6,3.78-2.05,7.72-1.51,11.77c0.29,2.2,0.93,4.3,2.07,6.23
					c0.66,1.11,1.46,2.1,2.54,2.84c1.75,1.21,3.59,1.36,5.51,0.45c0.89-0.42,1.65-1.02,2.33-1.72c1.01-1.02,1.8-2.2,2.43-3.48
					C167.93,170.05,168.6,166.86,168.65,163.51z"/>
				<path d="M199.14,161.19c-1.44,0-1.64,0.21-1.67,1.66c-0.06,3.58,0.64,6.99,2.35,10.15c0.94,1.74,2.14,3.27,3.77,4.43
					c1.54,1.11,3.24,1.71,5.17,1.5c1.31-0.14,2.46-0.67,3.49-1.47c1.27-0.99,2.21-2.25,2.95-3.68c1.07-2.08,1.59-4.31,1.78-6.63
					c0.01-0.12,0.01-0.23,0.02-0.35c0.07-0.84,0.23-1.01,1.06-1.05c0.46-0.02,0.93-0.02,1.4-0.01c0.39,0,0.63,0.21,0.64,0.59
					c0.02,0.58,0.04,1.16-0.01,1.74c-0.28,2.93-1.11,5.7-2.64,8.24c-0.85,1.41-1.88,2.67-3.2,3.66c-3.49,2.61-7.2,2.94-11.07,0.96
					c-2.08-1.06-3.69-2.66-5.02-4.55c-1.76-2.52-2.86-5.32-3.43-8.33c-0.77-4.06-0.6-8.06,0.77-11.98c0.94-2.68,2.36-5.08,4.62-6.86
					c3.39-2.68,7.08-3.08,10.99-1.22c1.77,0.85,3.23,2.12,4.46,3.63c1.91,2.35,3.23,4.98,3.74,8c0.15,0.92-0.18,1.43-1.22,1.42
					C214.88,161,202.26,161.18,199.14,161.19z M212.64,157.85c0.58,0,1.16-0.01,1.75-0.02c1.02-0.02,1.15-0.19,0.65-1.1
					c-0.5-0.92-1.04-1.82-1.64-2.67c-0.85-1.21-1.94-2.2-3.22-2.95c-2.83-1.65-5.87-1.36-8.33,0.81c-1.43,1.26-2.4,2.83-3.09,4.59
					c-0.12,0.3-0.18,0.63-0.2,0.95c-0.03,0.38,0.09,0.49,0.48,0.53c0.12,0.01,0.23,0.01,0.35,0.01
					C201.88,157.98,210.73,157.85,212.64,157.85z"/>
				<path d="M180.02,150.94c0.16-0.18,0.33-0.36,0.49-0.54c1.55-1.69,3.38-2.89,5.65-3.35c1.93-0.39,3.8-0.11,5.62,0.56
					c0.83,0.31,1.63,0.72,2.42,1.13c0.79,0.41,0.89,0.79,0.49,1.57c-0.2,0.4-0.43,0.78-0.67,1.15c-0.43,0.67-0.57,0.71-1.27,0.37
					c-0.42-0.2-0.82-0.47-1.26-0.63c-0.83-0.3-1.67-0.63-2.54-0.79c-1.87-0.35-3.52,0.22-4.98,1.42c-1.34,1.1-2.21,2.52-2.84,4.11
					c-0.61,1.54-0.82,3.15-1.03,4.78c-0.32,2.49-0.28,4.99-0.27,7.49c0.01,4.11,0,8.23,0,12.34c0,1.41,0,1.61-1.69,1.61
					c-1.48,0.01-1.64-0.18-1.71-1.67c-0.02-0.32-0.02-0.64-0.02-0.97c0-10.11,0-20.22,0.01-30.33c0-0.3,0-0.6,0.06-0.89
					c0.1-0.5,0.29-0.71,0.79-0.74c0.62-0.04,1.24-0.04,1.86,0.01c0.5,0.04,0.68,0.26,0.71,0.79c0.03,0.57,0.02,1.14,0.02,1.71
					c0,0.27,0,0.53,0,0.8C179.92,150.89,179.97,150.91,180.02,150.94z"/>
			</g>
		</g>
		<g>
			<g>
				<path d="M240.74,271.6c0.04-3.83,0.65-7.23,2.16-10.44c0.92-1.96,2.13-3.71,3.79-5.12c1.91-1.62,4.09-2.51,6.62-2.41
					c1.7,0.07,3.23,0.66,4.64,1.57c1.62,1.05,2.88,2.45,3.92,4.07c1.59,2.47,2.53,5.2,3,8.08c0.69,4.23,0.42,8.39-0.99,12.45
					c-0.87,2.49-2.13,4.75-4.06,6.59c-1.92,1.83-4.16,2.94-6.87,2.9c-2.15-0.03-4.03-0.82-5.71-2.13c-1.7-1.32-2.96-3.01-3.96-4.9
					c-1.43-2.73-2.18-5.66-2.45-8.72C240.78,272.79,240.76,272.04,240.74,271.6z M262.03,271.68c-0.15-1.38-0.24-2.76-0.48-4.13
					c-0.46-2.62-1.36-5.07-2.96-7.23c-0.8-1.09-1.76-2.03-2.96-2.66c-1.86-0.98-3.72-0.99-5.58,0.03c-0.8,0.44-1.48,1.02-2.09,1.69
					c-1.16,1.28-1.99,2.76-2.59,4.37c-1.42,3.79-1.67,7.68-0.96,11.64c0.42,2.32,1.18,4.51,2.47,6.51c0.88,1.37,1.95,2.55,3.4,3.35
					c1.87,1.03,3.77,1.05,5.63,0c0.59-0.33,1.14-0.76,1.63-1.21c1.13-1.03,1.93-2.31,2.57-3.69
					C261.4,277.59,261.91,274.69,262.03,271.68z"/>
				<path d="M270.49,273.34c0-0.19,0-0.39-0.01-0.58c-0.01-0.3-0.17-0.44-0.47-0.44c-0.56,0.01-1.12,0.01-1.68,0
					c-0.57-0.01-0.64-0.06-0.68-0.62c-0.05-0.63-0.08-1.27-0.05-1.89c0.04-0.66,0.27-0.83,0.93-0.87c0.39-0.02,0.78,0,1.17-0.01
					c0.71-0.02,0.85-0.15,0.9-0.85c0.15-2.26,0.29-4.52,0.72-6.75c0.24-1.25,0.57-2.47,1.22-3.58c1.29-2.19,3.21-3.41,5.71-3.74
					c0.65-0.09,1.31-0.13,1.97-0.12c0.69,0.01,0.86,0.2,0.87,0.88c0.01,0.54,0.01,1.07,0,1.61c-0.01,0.76-0.15,0.89-0.9,0.92
					c-0.63,0.03-1.27,0.04-1.89,0.15c-1.54,0.28-2.63,1.21-3.12,2.67c-0.38,1.12-0.61,2.31-0.77,3.48c-0.21,1.54-0.29,3.1-0.41,4.66
					c-0.05,0.59,0,0.64,0.58,0.64c0.68,0.01,1.37-0.02,2.05,0c0.76,0.02,0.95,0.2,0.98,0.96c0.02,0.54,0.03,1.07,0.01,1.61
					c-0.03,0.71-0.15,0.82-0.9,0.83c-0.68,0.01-1.36,0-2.05,0.01c-0.76,0.01-0.76,0.01-0.76,0.79c0,1.88,0.04,11.48,0.05,14.41
					c0,0.22,0.01,0.44-0.01,0.66c-0.04,0.66-0.19,0.82-0.84,0.83c-0.61,0.02-1.22,0.03-1.83,0.02c-0.56-0.01-0.67-0.12-0.71-0.69
					c-0.02-0.22-0.01-0.44-0.01-0.66C270.58,285.31,270.49,275.76,270.49,273.34z"/>
			</g>
			<g>
				<path d="M150.89,256.23c0-1.24,0.08-1.32,1.33-1.35c0.46-0.01,0.93,0.02,1.39,0.02c0.36,0,0.61,0.13,0.71,0.5
					c0.04,0.16,0.12,0.32,0.21,0.46c0.26,0.39,0.55,0.44,0.93,0.18c0.14-0.1,0.26-0.22,0.4-0.33c2.89-2.35,6.72-2.53,9.82-0.46
					c1.96,1.3,3.32,3.09,4.17,5.26c1.45,3.65,1.45,7.29-0.18,10.89c-0.66,1.47-1.63,2.72-2.91,3.72c-2.71,2.12-6.16,2.39-9.13,0.65
					c-0.81-0.48-1.51-1.15-2.26-1.73c-0.17-0.13-0.32-0.31-0.5-0.42c-0.27-0.15-0.49-0.04-0.54,0.26c-0.03,0.22-0.02,0.44-0.01,0.66
					c0.01,4.42,0.03,8.85,0.04,13.27c0,1.29-0.01,1.3-1.31,1.3c-0.46,0-0.93,0-1.39-0.03c-0.5-0.03-0.64-0.16-0.71-0.66
					c-0.04-0.26-0.03-0.54-0.03-0.81C150.92,282.38,150.89,261.46,150.89,256.23z M167.49,265.74c-0.02-1.92-0.49-3.74-1.53-5.4
					c-0.65-1.03-1.47-1.89-2.55-2.48c-1.79-0.99-3.75-0.82-5.35,0.45c-0.84,0.67-1.48,1.51-1.89,2.49
					c-1.45,3.46-1.16,6.77,0.89,9.92c0.57,0.87,1.32,1.57,2.23,2.08c1.9,1.07,4.01,0.85,5.64-0.61c0.68-0.61,1.21-1.34,1.61-2.16
					C167.2,268.69,167.47,267.26,167.49,265.74z"/>
				<path d="M194.19,283.31c-0.44,0.02-0.6,0.38-0.8,0.65c-0.73,1-1.54,1.93-2.49,2.72c-1.48,1.24-3.14,2.09-5.09,2.35
					c-1.83,0.25-3.54-0.11-5.15-0.97c-1.76-0.94-3.08-2.35-4.15-4.01c-1.37-2.12-2.2-4.46-2.62-6.94
					c-0.88-5.18-0.35-10.2,1.81-15.02c0.88-1.96,2.05-3.74,3.61-5.24c1.46-1.41,3.14-2.46,5.15-2.86c2.74-0.55,5.18,0.16,7.29,1.93
					c0.77,0.65,1.41,1.46,2.1,2.21c0.16,0.17,0.29,0.36,0.41,0.53c0.34-0.06,0.35-0.28,0.35-0.5c0.01-0.47-0.01-0.95,0.02-1.42
					c0.05-0.87,0.27-1.09,1.12-1.1c0.45-0.01,0.9-0.02,1.35,0.01c0.65,0.05,0.77,0.2,0.82,0.83c0.01,0.17,0.01,0.33,0.01,0.5
					c-0.06,9.72-0.13,19.44-0.19,29.16c0,0.43,0,0.85-0.03,1.28c-0.05,0.72-0.23,0.91-0.97,0.95c-0.5,0.03-1,0.02-1.49-0.02
					c-0.63-0.04-0.79-0.21-0.8-0.85c-0.02-1.07-0.01-2.13-0.01-3.2C194.45,283.96,194.46,283.6,194.19,283.31z M194.11,270.46
					c-0.07-0.97-0.11-1.94-0.22-2.9c-0.27-2.33-0.9-4.55-2.11-6.58c-0.7-1.17-1.56-2.21-2.72-2.95c-1.62-1.04-3.32-1.18-5.08-0.41
					c-0.9,0.39-1.68,0.97-2.38,1.65c-1.36,1.33-2.33,2.92-3.07,4.66c-1.6,3.78-2.05,7.72-1.51,11.77c0.29,2.2,0.93,4.3,2.07,6.23
					c0.66,1.11,1.46,2.1,2.54,2.84c1.75,1.21,3.59,1.36,5.51,0.45c0.89-0.42,1.65-1.02,2.33-1.72c1.01-1.02,1.8-2.2,2.43-3.48
					C193.39,277,194.06,273.8,194.11,270.46z"/>
				<path d="M205.49,257.89c0.16-0.18,0.33-0.36,0.49-0.54c1.55-1.69,3.38-2.89,5.65-3.35c1.93-0.4,3.8-0.11,5.62,0.56
					c0.83,0.31,1.63,0.72,2.42,1.13c0.79,0.41,0.89,0.79,0.49,1.57c-0.2,0.4-0.43,0.78-0.67,1.15c-0.43,0.67-0.57,0.71-1.27,0.37
					c-0.42-0.2-0.82-0.47-1.26-0.63c-0.83-0.3-1.67-0.63-2.54-0.79c-1.87-0.35-3.52,0.22-4.98,1.42c-1.34,1.1-2.21,2.52-2.84,4.11
					c-0.61,1.54-0.82,3.15-1.03,4.78c-0.32,2.49-0.28,4.99-0.27,7.49c0.01,4.11,0,8.23,0,12.34c0,1.41,0,1.61-1.69,1.61
					c-1.48,0.01-1.64-0.18-1.71-1.67c-0.02-0.32-0.02-0.64-0.02-0.97c0-10.11,0-20.22,0.01-30.33c0-0.3,0-0.6,0.06-0.89
					c0.1-0.5,0.29-0.71,0.79-0.74c0.62-0.04,1.24-0.04,1.86,0.01c0.5,0.04,0.68,0.26,0.71,0.79c0.03,0.57,0.02,1.14,0.02,1.71
					c0,0.27,0,0.53,0,0.8C205.38,257.84,205.44,257.86,205.49,257.89z"/>
				<path d="M226.54,280.4c0.03,1.01,0.11,2.01,0.26,3.01c0.17,1.14,0.72,2.01,1.92,2.39c0.63,0.2,0.69,0.37,0.63,1.07
					c-0.04,0.39-0.1,0.78-0.16,1.17c-0.13,0.77-0.46,1.04-1.22,0.91c-1.23-0.21-2.31-0.76-3-1.82c-0.4-0.61-0.71-1.3-0.93-1.99
					c-0.47-1.41-0.68-2.88-0.72-4.35c-0.11-3.32-0.15-6.64-0.22-9.96c-0.01-0.25,0-0.49-0.02-0.74c-0.04-0.57-0.15-0.69-0.72-0.69
					c-1.01-0.01-2.02,0-3.03-0.01c-0.95,0-1.05-0.1-1.06-1.06c-0.01-0.54-0.01-1.08,0.02-1.62c0.04-0.58,0.2-0.73,0.78-0.74
					c1.06-0.01,2.12,0.01,3.17,0c0.72,0,0.75-0.03,0.74-0.75c-0.04-3.17-0.09-6.35-0.13-9.52c0-0.34,0.03-0.69,0.07-1.03
					c0.06-0.42,0.3-0.68,0.73-0.69c0.66-0.01,1.33,0.01,1.99,0.03c0.32,0.01,0.49,0.23,0.54,0.52c0.04,0.24,0.03,0.49,0.04,0.74
					c0.04,3.22,0.09,6.45,0.13,9.67c0,0.15,0,0.3,0.02,0.44c0.05,0.47,0.17,0.59,0.66,0.6c0.98,0.02,1.97,0.01,2.95,0.01
					c0.22,0,0.44-0.01,0.66,0.01c0.51,0.05,0.72,0.22,0.76,0.73c0.05,0.66,0.07,1.33,0.06,1.99c-0.01,0.58-0.12,0.68-0.71,0.69
					c-1.11,0.01-2.21,0-3.32,0c-0.17,0-0.34,0-0.52,0c-0.3,0.01-0.45,0.18-0.47,0.46c-0.02,0.2-0.01,0.39-0.01,0.59
					C226.41,272.23,226.5,278.87,226.54,280.4z"/>
			</g>
		</g>
		<path d="M207.43,321.49c-0.7,0.51-1.14,1.14-1.48,1.8c-0.62,1.18-1.22,2.38-1.7,3.62c-1.14,2.91-1.81,5.96-2.4,9.03
			c-0.73,3.82-1.1,7.67-1.35,11.54c-0.04,0.66-0.13,1.33-0.25,1.99c-0.43,2.4-3.78,3.69-5.73,2.06c-0.41-0.34-0.79-0.73-1.14-1.13
			c-1.32-1.52-2.47-3.16-3.44-4.92c-0.19-0.34-0.4-0.68-0.58-0.99c-0.46,0-0.56,0.34-0.74,0.57c-0.83,1.05-1.72,2.05-2.75,2.91
			c-1.14,0.95-2.41,1.69-3.86,2.07c-2.5,0.65-4.86,0.24-7.09-1c-1.74-0.97-3.18-2.29-4.4-3.85c-2.71-3.46-4.51-7.35-5.58-11.6
			c-0.45-1.78-0.69-3.59-0.82-5.41c-0.02-0.27-0.04-0.53-0.06-0.79c-0.11-0.02-0.23-0.08-0.27-0.05c-1.27,1.11-2.53,2.23-3.8,3.37
			c0.09,0.55,0.45,0.9,0.71,1.31c1.32,2.08,2.37,4.28,2.99,6.68c0.38,1.48,0.54,2.98,0.47,4.5c-0.08,1.83-0.65,3.51-1.73,4.98
			c-1.5,2.04-3.44,3.46-5.94,4.05c-3.31,0.78-7.37-0.28-9.69-3.59c-1.69-2.41-2.36-5.07-1.68-7.99c0.31-1.32,0.94-2.5,1.8-3.54
			c0.95-1.15,2.09-2.07,3.35-2.84c0.6-0.37,1.21-0.74,1.9-1.15c-0.15-0.26-0.25-0.5-0.4-0.7c-1.13-1.49-2.26-2.98-3.4-4.47
			c-1.77-2.3-3.44-4.66-4.73-7.27c-1.12-2.25-2-4.58-2.4-7.06c-0.64-3.92-0.03-7.63,2.03-11.07c0.72-1.2,1.6-2.26,2.75-3.06
			c2-1.39,4.19-1.91,6.6-1.39c1.69,0.37,3.02,1.27,3.98,2.71c0.9,1.36,1.42,2.88,1.62,4.49c0.25,2.05,0.12,4.09-0.49,6.09
			c-0.09,0.3-0.19,0.6-0.31,0.88c-0.2,0.46-0.59,0.64-1.08,0.64c-0.51,0-0.86-0.27-0.92-0.78c-0.04-0.31,0.01-0.62,0.01-0.93
			c0.04-1.2,0.12-2.41,0.1-3.61c-0.03-1.67-0.47-3.26-1.32-4.71c-0.33-0.57-0.75-1.11-1.23-1.56c-0.84-0.79-1.91-0.81-2.78-0.06
			c-0.4,0.34-0.74,0.78-1,1.23c-0.76,1.29-1.09,2.72-1.13,4.22c-0.06,2.93,0.42,5.76,1.47,8.51c1.01,2.64,2.39,5.08,4.09,7.33
			c1.47,1.96,3,3.87,4.51,5.81c0.1,0.13,0.25,0.24,0.4,0.38c0.18-0.11,0.35-0.17,0.47-0.28c1.44-1.33,2.87-2.67,4.31-4
			c0.53-0.49,0.74-1.06,0.74-1.78c0-1.83,0.21-3.65,0.59-5.44c0.29-1.36,0.7-2.67,1.31-3.92c0.87-1.75,2.07-3.22,3.74-4.27
			c1.23-0.77,2.57-1.23,4.03-1.29c2.41-0.09,4.33,0.85,5.76,2.78c1.06,1.42,1.66,3.05,1.98,4.77c0.17,0.91,0.23,1.85,0.26,2.79
			c0.02,0.6-0.3,0.93-0.82,1.07c-0.48,0.12-0.99-0.06-1.25-0.54c-0.25-0.47-0.41-0.98-0.62-1.47c-0.44-1.07-0.85-2.15-1.35-3.19
			c-0.41-0.85-0.99-1.59-1.72-2.19c-0.9-0.74-1.3-0.7-1.92,0.29c-0.35,0.56-0.63,1.18-0.85,1.81c-0.74,2.16-1.19,4.38-1.38,6.65
			c-0.21,2.54-0.22,5.08,0.04,7.61c0.42,4.09,1.22,8.1,2.72,11.95c0.55,1.42,1.21,2.78,2.1,4.02c0.63,0.88,1.33,1.68,2.24,2.27
			c1.61,1.05,3.03,1.02,4.58-0.11c0.25-0.18,0.5-0.38,0.73-0.59c1.46-1.34,2.59-2.92,3.65-4.6c-0.13-0.37-0.23-0.71-0.35-1.04
			c-1.6-4.37-2.64-8.87-3.38-13.45c-0.73-4.5-1.11-9.02-1.01-13.58c0.08-3.48,0.37-6.94,1.31-10.31c0.35-1.25,0.79-2.46,1.39-3.61
			c0.71-1.36,1.6-2.57,2.82-3.52c1.04-0.81,2.2-1.34,3.52-1.51c2.58-0.33,4.64,0.55,6.15,2.67c1.1,1.55,1.73,3.31,2.16,5.14
			c0.7,2.99,0.71,6.01,0.42,9.04c-0.79,8.1-3.11,15.79-6.16,23.3c-0.61,1.5-0.69,1.03-0.08,2.78c0.49,1.39,1.04,2.75,1.57,4.12
			c0.09,0.24,0.22,0.47,0.34,0.73c0.41-0.26,0.37-0.64,0.42-0.97c0.65-3.87,1.44-7.71,2.43-11.5c0.56-2.16,1.24-4.28,2.12-6.33
			c0.56-1.31,1.21-2.58,2.08-3.72c1.15-1.51,2.61-2.5,4.52-2.84c2.01-0.35,4.93,0.35,6.37,2.96c0.38,0.7,0.69,1.45,0.89,2.22
			c0.26,1.03,0.45,2.09,0.56,3.15c0.15,1.6,0.25,3.2,0.29,4.8c0.1,4.64,0.41,9.26,0.87,13.87c0.17,1.64,0.41,3.27,1,4.83
			c0.09,0.25,0.22,0.48,0.38,0.85c0.19-0.28,0.37-0.45,0.45-0.66c0.35-0.92,0.71-1.83,0.98-2.77c0.58-1.97,1.1-3.95,1.65-5.92
			c0.19-0.69,0.21-1.38,0.12-2.11c-0.43-3.46-0.43-6.94-0.32-10.41c0.01-0.44,0-0.89,0-1.41c-0.16-0.15-0.34-0.33-0.54-0.5
			c-3.08-2.53-4.97-5.81-5.8-9.67c-0.75-3.5-0.64-7,0.45-10.43c0.67-2.11,1.73-4.01,3.28-5.61c1.39-1.44,3.02-2.48,4.99-2.94
			c1.56-0.37,3.1-0.25,4.62,0.18c1.92,0.55,3.59,1.54,5.05,2.9c1.05,0.98,1.94,2.09,2.76,3.26c2.69,3.87,4.36,8.15,5.2,12.77
			c0.23,1.27,0.39,2.55,0.59,3.83c0.02,0.12,0.08,0.23,0.14,0.39c0.14-0.07,0.28-0.1,0.36-0.19c0.24-0.27,0.43-0.57,0.67-0.83
			c1.08-1.15,1.67-2.47,1.62-4.09c-0.02-0.5-0.01-0.97-0.19-1.44c-0.84-2.22-1.01-4.52-0.75-6.85c0.36-3.3,1.63-6.18,4.06-8.51
			c1.26-1.21,2.74-1.98,4.49-2.18c1.71-0.2,3.38,0.02,4.98,0.67c1.55,0.62,2.92,1.53,4.13,2.67c1.54,1.45,2.74,3.16,3.74,5.01
			c1.55,2.89,2.53,5.98,3.2,9.18c0.4,1.92,0.7,3.86,0.83,5.82c0.01,0.17,0.06,0.34,0.1,0.53c0.57,0.04,0.95-0.28,1.41-0.56
			c0.02-0.34,0.05-0.69,0.05-1.04c0.02-2.14-0.02-4.28,0.06-6.42c0.12-3.12,0.51-6.22,1.3-9.25c0.55-2.12,1.3-4.17,2.42-6.06
			c0.6-1,1.31-1.91,2.23-2.65c1.32-1.07,2.81-1.72,4.54-1.67c2.29,0.06,4.02,1.08,5.04,3.16c0.93,1.9,1.14,3.92,0.9,6
			c-0.28,2.42-1.06,4.68-2.14,6.85c-1.42,2.86-3.28,5.4-5.53,7.66c-0.35,0.35-0.72,0.66-1.12,1.02c0.06,1.95,0.07,3.86,0.2,5.77
			c0.18,2.67,0.39,5.33,0.71,7.99c0.46,3.89,0.91,7.79,1.86,11.6c0.27,1.08,0.66,2.13,1.06,3.16c0.37,0.97,0.97,1.81,1.74,2.51
			c0.23,0.2,0.5,0.36,0.81,0.57c0.25-0.22,0.54-0.38,0.68-0.63c0.38-0.7,0.77-1.41,1.02-2.16c0.6-1.78,0.92-3.63,1.11-5.49
			c0.18-1.77,0.31-3.55,0.46-5.33c0.03-0.31,0.04-0.63,0.09-0.93c0.15-0.76,0.7-1.25,1.47-1.34c0.72-0.08,1.24,0.29,1.27,1.02
			c0.03,0.75-0.02,1.51-0.08,2.27c-0.24,3.16-0.54,6.3-1.35,9.38c-0.27,1.04-0.6,2.05-1.11,3c-2.09,3.91-5.7,4.01-8.49,2.38
			c-1.74-1.02-3.05-2.44-4.07-4.16c-0.84-1.43-1.51-2.93-2.01-4.51c-0.96-2.98-1.6-6.02-1.97-9.13c-0.38-3.19-0.72-6.38-0.87-9.58
			c-0.02-0.39-0.1-0.78-0.14-1.13c-0.35-0.19-0.57,0.01-0.81,0.09c-0.2,0.07-0.39,0.2-0.57,0.3c-0.09,1.73-0.13,3.43-0.28,5.11
			c-0.44,4.99-1.31,9.89-3.18,14.57c-0.6,1.5-1.33,2.92-2.3,4.21c-1.11,1.46-2.48,2.55-4.28,3.04c-1.51,0.42-2.99,0.33-4.46-0.21
			c-1.72-0.63-3.12-1.71-4.31-3.07c-1.21-1.39-2.15-2.95-2.91-4.62c-1.25-2.74-1.94-5.64-2.35-8.61c-0.5-3.53-0.81-7.08-0.85-10.65
			c0-0.21-0.04-0.41-0.07-0.78c-0.25,0.2-0.39,0.28-0.49,0.4c-0.31,0.38-0.57,0.8-0.92,1.15c-0.62,0.62-0.73,1.35-0.7,2.19
			c0.24,5.96-0.35,11.84-1.81,17.62c-0.55,2.17-1.29,4.26-2.39,6.22c-0.55,0.98-1.16,1.9-1.98,2.68c-1.21,1.14-2.61,1.84-4.29,1.94
			c-1.25,0.07-2.41-0.22-3.4-0.96c-0.74-0.56-1.44-1.2-2.06-1.89c-1.08-1.2-1.88-2.59-2.55-4.06c-0.18-0.4-0.37-0.79-0.63-1.33
			c-0.15,0.33-0.26,0.52-0.32,0.71c-0.28,0.98-0.52,1.98-0.84,2.96c-0.22,0.67-0.5,1.34-0.82,1.97c-0.41,0.81-1.05,1.44-1.83,1.91
			c-1.57,0.94-3.32,0.89-4.75-0.26c-0.65-0.52-1.24-1.16-1.72-1.85c-2-2.85-3.34-5.99-3.73-9.47c-0.22-1.99-0.37-3.99-0.49-5.99
			c-0.2-3.43-0.33-6.85-0.55-10.28c-0.07-1.06-0.33-2.11-0.52-3.16C207.7,321.91,207.56,321.73,207.43,321.49z M238.5,324.24
			c0-0.3,0.01-0.61,0-0.92c-0.13-3.3-0.5-6.56-1.22-9.79c-0.79-3.51-2.13-6.78-4.17-9.76c-0.68-0.99-1.43-1.94-2.33-2.74
			c-0.94-0.84-1.98-1.5-3.2-1.88c-1.21-0.37-2.36-0.29-3.49,0.28c-0.97,0.49-1.77,1.19-2.46,2.02c-0.95,1.14-1.63,2.44-2.11,3.84
			c-1.01,2.96-1.25,6-0.75,9.09c0.35,2.18,1.13,4.21,2.37,6.04c0.17,0.25,0.38,0.47,0.62,0.77c0.31-0.47,0.33-0.91,0.4-1.33
			c0.17-0.97,0.41-1.92,0.85-2.8c0.62-1.25,1.61-1.98,3-2.18c1.92-0.27,3.33,0.8,3.58,2.71c0.03,0.26,0.05,0.53,0.04,0.8
			c-0.02,0.67-0.06,1.33-0.11,2c-0.12,1.64-0.26,3.28-0.38,4.93c-0.02,0.29,0.05,0.59,0.08,0.93
			C232.64,326.96,235.73,326.51,238.5,324.24z M265.88,321.14c0.2-1.02-0.03-1.99-0.09-2.96c-0.21-3.35-0.86-6.61-1.94-9.79
			c-0.74-2.2-1.72-4.3-3.12-6.17c-0.94-1.26-2.04-2.36-3.41-3.15c-3.01-1.74-5.71-1.13-7.65,1.74c-1.26,1.85-1.86,3.92-2.04,6.13
			c-0.01,0.16,0.06,0.33,0.09,0.48c0.67-0.06,1.29-0.18,1.9-0.15c1.54,0.08,2.59,1.02,2.82,2.53c0.11,0.74,0.1,1.51,0.08,2.26
			c-0.06,1.73-0.16,3.47-0.27,5.2c-0.04,0.56,0.16,0.92,0.61,1.23c1.18,0.82,2.42,1.49,3.76,2.01c2.8,1.09,5.69,1.38,8.66,0.87
			C265.48,321.34,265.68,321.22,265.88,321.14z M259.4,345.75c0.74-0.33,1.16-0.96,1.57-1.6c0.78-1.2,1.37-2.5,1.86-3.84
			c1.92-5.18,2.82-10.57,3.11-16.07c0.01-0.2-0.09-0.4-0.12-0.53c-1.6,0.08-3.11,0.22-4.62,0.22c-1.51,0-3.03-0.16-4.49-0.6
			c-1.43-0.43-2.85-0.91-4.34-1.39c-0.04,0.21-0.1,0.38-0.09,0.54c0.12,4.06,0.45,8.09,1.26,12.08c0.47,2.31,1.03,4.61,2.01,6.77
			c0.52,1.15,1.14,2.22,1.99,3.15C258.05,345.05,258.6,345.56,259.4,345.75z M194.19,297.55c-0.21,0.28-0.47,0.54-0.61,0.84
			c-0.31,0.64-0.59,1.3-0.82,1.97c-1.27,3.7-1.81,7.52-1.89,11.42c-0.06,2.72-0.02,5.43,0.22,8.14c0.3,3.29,0.82,6.53,1.5,9.76
			c0.06,0.28,0.16,0.56,0.3,1.02c0.19-0.35,0.31-0.52,0.38-0.72c2.35-6.66,4.15-13.44,4.4-20.55c0.07-2.05-0.02-4.1-0.4-6.12
			c-0.3-1.59-0.79-3.11-1.7-4.46C195.24,298.35,194.9,297.81,194.19,297.55z M233.49,349.02c0.37-0.59,0.73-1.05,0.97-1.56
			c0.54-1.22,1.12-2.43,1.52-3.7c1.57-5,2.31-10.14,2.52-15.37c0.01-0.29-0.04-0.59-0.07-0.99c-0.34,0.13-0.58,0.21-0.82,0.31
			c-2.54,1.12-5.18,1.57-7.94,1.32c-0.2-0.02-0.41,0.04-0.68,0.06c-0.02,0.38-0.06,0.68-0.05,0.99c0.04,1.38,0.08,2.76,0.15,4.14
			c0.17,3.22,0.71,6.37,1.71,9.43c0.41,1.26,0.95,2.49,1.48,3.72C232.52,347.93,232.84,348.47,233.49,349.02z M153.56,335.26
			c-1.1,0.6-2.06,1.23-2.93,2c-2.59,2.31-2.75,5.47-1.37,8.14c0.75,1.44,1.93,2.47,3.52,2.87c2.47,0.63,3.45,0.02,3.82-2.44
			c0.25-1.64,0.17-3.28-0.29-4.89c-0.53-1.9-1.37-3.66-2.4-5.33C153.85,335.5,153.73,335.43,153.56,335.26z M282.24,295.94
			c-0.41,0.66-0.78,1.12-1,1.64c-0.38,0.9-0.75,1.81-1,2.75c-0.69,2.58-1.08,5.22-1.37,7.87c-0.13,1.24-0.2,2.48-0.28,3.72
			c-0.01,0.2-0.07,0.45,0.26,0.56c0.11-0.12,0.24-0.23,0.34-0.37c1.84-2.6,3.17-5.45,3.93-8.55c0.38-1.57,0.49-3.16,0.3-4.77
			C283.32,297.82,283.07,296.89,282.24,295.94z"/>
		<g>
			<path d="M301.91,220.98c-0.06-0.27-0.26-0.59-0.5-0.73c-0.79-0.47-2.26-0.05-2.45,1.06c-0.08,0.44-0.11,0.88-0.11,1.33
				c-0.07,3.44-0.36,6.85-0.9,10.25c-0.32,1.98-0.77,3.93-1.55,5.8c-0.38,0.91-0.85,1.77-1.51,2.5c-0.23,0.25-0.54,0.43-0.75,0.6
				c-0.78-0.23-1.28-0.68-1.76-1.14c-0.75-0.71-1.38-1.52-1.86-2.43c-0.6-1.14-1.17-2.3-1.66-3.5c-0.92-2.23-1.48-4.57-1.98-6.93
				c-0.66-3.1-1.17-6.22-1.25-9.39c-0.01-0.29-0.14-0.62,0.19-0.82c0.72,0.16,1.4,0.38,2.1,0.46c3.11,0.34,5.79-0.68,8.1-2.72
				c3.06-2.71,4.69-6.14,4.9-10.2c0.15-3.06-0.58-5.93-2.31-8.49c-2.71-4-7.38-4.62-10.87-2.97c-1.77,0.83-3.23,2.05-4.45,3.56
				c-1.25,1.54-2.17,3.26-2.89,5.09c-1.42,3.6-2.17,7.34-2.42,11.19c-0.21,3.21-0.14,6.42,0.27,9.61c0.33,2.61,0.73,5.21,1.5,7.73
				c0.25,0.81,0.61,1.61,0.65,2.43c0.05,0.82-0.19,1.68-0.39,2.5c-0.43,1.82-0.9,3.63-1.38,5.44c-0.07,0.27-0.13,0.58-0.48,0.8
				c-0.17-0.28-0.34-0.49-0.42-0.73c-0.41-1.13-0.87-2.25-1.17-3.41c-1.39-5.41-2.29-10.89-2.66-16.47
				c-0.43-6.55-0.3-13.1,0.09-19.64c0.01-0.21,0.06-0.43,0.1-0.69c0.38-0.07,0.73-0.13,1.07-0.18c0.81-0.11,1.56-0.38,2.26-0.78
				c0.3-0.17,0.6-0.39,0.84-0.64c0.42-0.45,0.31-1.04-0.24-1.34c-0.19-0.1-0.41-0.16-0.63-0.19c-0.5-0.07-0.97,0.07-1.42,0.27
				c-0.52,0.23-1.06,0.42-1.71,0.16c0-0.34-0.01-0.64,0-0.95c0.04-1.07,0.12-2.14,0.13-3.21c0.01-0.93-0.01-1.88-0.12-2.8
				c-0.17-1.44-1.04-2.34-2.43-2.67c-1.75-0.42-3.48,0.4-4.14,2.1c-0.33,0.86-0.48,1.8-0.64,2.72c-0.17,1-0.26,2.02-0.39,3.07
				c-0.32,0.03-0.58,0.06-0.84,0.08c-0.62,0.05-1.25,0.03-1.86,0.14c-1.11,0.19-2.17,0.52-3.04,1.28c-0.63,0.55-0.45,1.29,0.34,1.53
				c0.53,0.16,1.06,0.09,1.58-0.03c0.92-0.21,1.86-0.21,2.79-0.11c0.25,0.03,0.49,0.14,0.76,0.22c0,0.36,0.01,0.67,0,0.98
				c-0.13,2.36-0.31,4.72-0.38,7.08c-0.17,5.31-0.11,10.61,0.36,15.9c0.05,0.52,0.07,1.09-0.06,1.59c-0.86,3.32-1.82,6.61-3.07,9.82
				c-0.1,0.26-0.27,0.49-0.5,0.89c-0.26-0.56-0.46-0.95-0.62-1.36c-0.6-1.54-1.02-3.13-1.31-4.76c-0.67-3.78-0.97-7.6-1.34-11.41
				c-0.27-2.76-0.21-5.52-0.26-8.28c-0.04-2.14-0.12-4.28-0.26-6.41c-0.05-0.79-0.22-1.6-0.5-2.34c-0.58-1.53-2.13-2.24-3.71-1.83
				c-1.21,0.32-2.03,1.07-2.48,2.23c-0.32,0.84-0.47,1.72-0.51,2.61c-0.26,6.02-0.33,12.03,0.45,18.02
				c0.07,0.52,0.04,1.07-0.06,1.59c-0.65,3.64-1.44,7.25-2.39,10.83c-0.45,1.68-1.01,3.32-1.52,4.98c-0.06,0.21-0.13,0.43-0.52,0.45
				c-0.12-0.44-0.27-0.89-0.37-1.35c-0.84-4.17-1.24-8.37-1.05-12.62c0.07-1.56,0.17-3.12,0.31-4.67c0.23-2.57,0.5-5.14,0.74-7.72
				c0.16-1.64,0.34-3.28,0.13-4.93c-0.25-1.97-1.14-3.57-2.9-4.56c-0.89-0.5-1.83-0.95-2.79-1.25c-1.18-0.37-2.42-0.56-3.64-0.84
				c-0.46-0.1-0.98-0.07-1.35-0.45c0.14-0.86,0.3-1.69,0.4-2.53c0.24-2.05,0.23-4.09-0.38-6.09c-0.36-1.17-0.91-2.22-1.76-3.11
				c-0.89-0.91-1.97-1.37-3.24-1.32c-1.45,0.06-2.67,0.65-3.63,1.74c-0.54,0.61-0.95,1.3-1.2,2.07c-0.96,2.93-0.66,5.72,1.07,8.3
				c0.97,1.45,2.33,2.42,3.93,3.1c0.43,0.18,0.95,0.24,1.29,0.69c-0.74,2.21-1.68,4.32-2.89,6.3c-0.08,0.13-0.24,0.22-0.36,0.32
				c-0.08-0.09-0.12-0.12-0.13-0.16c-0.12-0.33-0.24-0.67-0.35-1.01c-1.36-3.96-3.64-7.32-6.71-10.16
				c-1.05-0.97-2.22-1.79-3.55-2.35c-1.42-0.61-2.9-0.87-4.44-0.73c-2.12,0.19-3.8,1.2-5.05,2.91c-1.46,2-1.95,4.27-1.78,6.7
				c0.11,1.52,0.45,2.99,0.95,4.43c0.13,0.37,0.25,0.78,0.23,1.16c-0.07,1.56-0.19,3.11-0.29,4.65c-0.7,0.75-1.42,1.43-2.47,1.49
				c-0.69,0.04-1.42,0.18-1.98-0.37c0-0.2-0.02-0.34,0-0.46c0.5-3.31,0.82-6.63,0.88-9.98c0.05-3.08-0.06-6.15-0.63-9.19
				c-0.31-1.62-0.72-3.22-1.44-4.72c-0.55-1.14-1.26-2.15-2.27-2.93c-1.91-1.47-4.4-1.48-6.33-0.05c-0.8,0.6-1.41,1.36-1.9,2.22
				c-0.69,1.21-1.14,2.51-1.42,3.87c-0.59,2.92-0.55,5.85-0.01,8.77c0.61,3.32,1.71,6.45,3.65,9.25c1.21,1.74,2.68,3.22,4.47,4.36
				c0.22,0.14,0.43,0.29,0.62,0.41c-0.19,2.81-3.77,17.56-5.21,19.94c-0.41-0.33-0.5-0.83-0.64-1.27c-0.98-2.91-1.97-5.82-2.87-8.76
				c-1.2-3.92-2.1-7.92-2.77-11.97c-0.56-3.39-0.9-6.8-1.28-10.21c-0.09-0.84-0.26-1.67-0.49-2.48c-0.3-1.03-1.05-1.61-2.09-1.85
				c-1.61-0.37-3.38,0.49-4.11,2.02c-0.37,0.78-0.5,1.61-0.55,2.46c-0.17,3.18,0.22,6.32,0.66,9.45c0.44,3.18,1.09,6.32,1.82,9.44
				c0.12,0.49,0.14,0.95,0.03,1.45c-0.34,1.61-0.61,3.24-0.98,4.85c-0.51,2.21-1.08,4.41-1.66,6.61c-0.11,0.4-0.1,0.9-0.59,1.2
				c-0.43-0.53-0.66-1.16-0.91-1.77c-0.82-1.98-1.42-4.03-1.89-6.12c-1.13-5.07-1.54-10.22-1.79-15.38
				c-0.12-2.49-0.05-4.99-0.07-7.49c-0.01-2.27,0.01-4.55-0.02-6.82c-0.02-1.02-0.08-2.05-0.45-3.03c-0.58-1.56-1.85-2.09-3.12-2.02
				c-1.13,0.06-2.06,0.58-2.66,1.56c-0.26,0.41-0.42,0.88-0.62,1.32c-0.11,0.23-0.22,0.45-0.33,0.68c-0.53-0.23-0.97-0.44-1.42-0.62
				c-2.31-0.89-4.67-1.13-7.07-0.41c-2.76,0.83-4.87,2.54-6.51,4.86c-0.91,1.28-1.56,2.7-2.08,4.18c-0.98,2.8-1.44,5.7-1.56,8.65
				c-0.03,0.62-0.21,1.09-0.65,1.54c-1.56,1.6-3.17,3.14-4.97,4.46c-0.71,0.52-1.5,0.97-2.3,1.35c-0.76,0.36-1.58,0.57-2.54,0.5
				c-0.51-2.92-0.7-5.83-0.57-8.91c3.14-1.12,5.28-3.37,7.1-5.96c2.34-3.33,3.52-7.07,3.83-11.11c0.12-1.62-0.15-3.2-0.77-4.71
				c-0.55-1.34-1.49-2.31-2.88-2.8c-1.03-0.36-2.08-0.47-3.16-0.3c-1.67,0.26-3.14,0.97-4.44,2.03c-1.51,1.23-2.67,2.74-3.57,4.45
				c-0.89,1.71-1.5,3.52-1.97,5.38c-0.96,3.81-1.51,7.69-1.75,11.61c-0.27,4.38-0.04,8.73,0.9,13.03c0.73,3.33,1.94,6.48,3.57,9.47
				c1.14,2.09,2.55,3.98,4.22,5.66c1.24,1.25,2.66,2.23,4.39,2.7c2.3,0.62,4.51-0.2,5.86-2.17c0.95-1.39,1.23-2.95,1.08-4.59
				c-0.28-3.07-1.63-5.62-3.97-7.62c-0.68-0.58-1.41-1.1-2.17-1.56c-1.07-0.64-2.18-1.2-3.28-1.81c-0.25-0.14-0.48-0.29-0.8-0.49
				c0.27-0.12,0.43-0.2,0.59-0.25c1.73-0.55,3.24-1.47,4.61-2.63c1.02-0.87,2-1.78,3-2.66c0.15-0.13,0.32-0.22,0.6-0.4
				c0.07,0.53,0.12,0.92,0.17,1.31c0.19,1.37,0.3,2.75,0.58,4.1c0.65,3.16,1.71,6.18,3.46,8.92c1.06,1.66,2.28,3.2,3.86,4.4
				c0.6,0.46,1.24,0.89,1.91,1.21c2.17,1.02,4.65,0.46,6.16-1.41c0.47-0.58,0.85-1.26,1.14-1.95c0.35-0.81,0.61-1.68,0.82-2.54
				c0.48-1.95,0.9-3.91,1.35-5.86c0.03-0.15,0.1-0.29,0.15-0.43c0.13,0.05,0.2,0.05,0.21,0.08c0.15,0.42,0.3,0.83,0.42,1.25
				c0.83,2.88,1.92,5.65,3.47,8.23c0.78,1.3,1.66,2.54,2.79,3.57c0.52,0.47,1.1,0.93,1.73,1.24c1.88,0.92,3.95,0.14,4.81-1.76
				c0.24-0.53,0.42-1.08,0.56-1.64c0.57-2.29,1.1-4.59,1.66-6.88c0.06-0.24,0.16-0.48,0.31-0.94c0.23,0.57,0.38,0.92,0.52,1.28
				c1.28,3.43,2.8,6.75,4.98,9.72c0.39,0.54,0.81,1.07,1.28,1.54c1.12,1.16,2.47,1.31,3.94,0.78c0.96-0.35,1.7-0.98,2.26-1.8
				c0.35-0.51,0.66-1.06,0.9-1.63c0.47-1.11,0.91-2.23,1.29-3.37c1.83-5.37,3.06-10.89,4.07-16.46c0.14-0.78,0.2-1.58,0.48-2.36
				c0.58-0.02,1.11-0.01,1.64-0.07c0.57-0.06,1.14-0.18,1.71-0.29c0.5-0.1,0.94-0.45,1.51-0.45c0.18,1.79,0.33,3.52,0.54,5.24
				c0.39,3.19,1.06,6.33,2.13,9.36c0.9,2.54,2.14,4.9,3.93,6.94c1.28,1.46,2.75,2.67,4.59,3.35c2.46,0.92,4.64,0.41,6.56-1.32
				c0.77-0.69,1.38-1.53,1.79-2.48c0.48-1.1,0.93-2.22,1.28-3.37c0.9-2.95,1.34-6,1.6-9.07c0.23-2.71,0.39-5.43,0.1-8.15
				c-0.18-1.73-0.38-3.45-0.6-5.17c-0.06-0.48,0.01-0.85,0.3-1.24c1.84-2.49,3.23-5.22,4.36-8.1c0.09-0.24,0.22-0.47,0.34-0.72
				c0.97,0.04,1.8,0.32,2.59,0.75c0.49,0.27,0.82,0.69,1,1.21c0.13,0.38,0.23,0.77,0.32,1.16c0.35,1.5,0.27,3.01,0.12,4.52
				c-0.16,1.6-0.33,3.19-0.47,4.79c-0.13,1.46-0.23,2.93-0.34,4.4c-0.28,3.65-0.41,7.3-0.14,10.95c0.14,1.96,0.46,3.89,1.05,5.77
				c0.45,1.41,1.05,2.75,1.94,3.94c0.65,0.86,1.4,1.62,2.32,2.19c1.65,1.01,3.29,0.81,4.76-0.22c0.74-0.52,1.31-1.22,1.66-2.06
				c0.3-0.74,0.6-1.49,0.79-2.27c0.75-3.07,1.46-6.15,2.18-9.23c0.06-0.27,0.07-0.58,0.43-0.78c0.15,0.41,0.27,0.74,0.41,1.06
				c0.69,1.7,1.48,3.34,2.57,4.83c0.71,0.97,1.46,1.92,2.42,2.66c1.78,1.38,3.93,1.16,5.33-0.6c0.46-0.58,0.81-1.28,1.09-1.98
				c0.43-1.07,0.75-2.19,1.14-3.28c0.09-0.26,0.23-0.5,0.43-0.92c0.15,0.63,0.25,1.05,0.35,1.49c0.48,2.14,1.15,4.21,2.11,6.18
				c0.77,1.58,1.74,3.01,3.01,4.22c0.75,0.71,1.53,1.36,2.48,1.79c1.83,0.84,3.82,0.36,5-1.25c0.36-0.5,0.67-1.06,0.87-1.64
				c0.37-1.09,0.66-2.22,0.96-3.33c0.14-0.54,0.24-1.09,0.4-1.83c0.32,0.44,0.53,0.7,0.71,0.98c0.99,1.55,2.16,2.95,3.59,4.11
				c1.01,0.82,2.11,1.5,3.35,1.91c1.07,0.36,2.15,0.53,3.28,0.31c1.61-0.31,2.88-1.14,3.91-2.39c0.98-1.18,1.65-2.53,2.15-3.97
				c0.8-2.28,1.34-4.63,1.58-7.03c0.31-3.19,0.53-6.39,0.78-9.59C301.95,221.78,301.99,221.37,301.91,220.98z M285.96,210.62
				c0.52-3.36,1.41-6.6,2.95-9.65c0.44-0.87,0.93-1.72,1.46-2.54c0.34-0.51,0.78-0.98,1.24-1.39c0.68-0.6,1.27-0.61,2.08-0.14
				c0.66,0.39,1.18,0.94,1.62,1.56c1.04,1.44,1.59,3.08,1.83,4.82c0.32,2.33,0.11,4.61-0.76,6.82c-0.48,1.21-1.13,2.31-1.99,3.3
				c-0.62,0.71-1.32,1.33-2.15,1.77c-2.13,1.14-4.17,1.38-6.61-0.25C285.58,213.44,285.75,212.03,285.96,210.62z M137.97,213.72
				c0.34-3.77,0.98-7.5,2.05-11.13c0.53-1.8,1.26-3.52,2.15-5.16c0.27-0.51,0.59-1,0.93-1.46c0.26-0.35,0.54-0.71,1.08-0.77
				c0.53,0.26,0.79,0.79,1.02,1.31c0.4,0.9,0.6,1.86,0.65,2.85c0.11,2.31-0.42,4.5-1.22,6.64c-0.98,2.62-2.49,4.91-4.47,6.88
				c-0.6,0.59-1.23,1.14-2.19,1.72C137.97,214.15,137.95,213.93,137.97,213.72z M140.04,231.88c1.7,0.89,3.28,1.96,4.56,3.41
				c1.43,1.63,2.23,3.52,2.18,5.7c-0.01,0.56-0.18,1.13-0.35,1.68c-0.07,0.22-0.32,0.38-0.47,0.55c-0.79-0.22-1.3-0.72-1.79-1.24
				c-0.88-0.95-1.6-2.01-2.19-3.16c-1-1.94-1.74-3.98-2.31-6.09c-0.08-0.28-0.06-0.59-0.09-0.92
				C139.79,231.84,139.93,231.83,140.04,231.88z M167.22,222.84c-1.03,4.33-2.06,8.65-3.12,12.97c-0.2,0.82-0.54,1.6-0.86,2.38
				c-0.2,0.49-0.44,0.97-1,1.32c-0.79-0.38-1.2-1.03-1.61-1.66c-1.19-1.8-1.96-3.79-2.51-5.86c-1.33-4.98-1.9-10.05-1.6-15.2
				c0.2-3.37,1.04-6.59,2.59-9.6c0.42-0.82,0.97-1.6,1.53-2.34c0.66-0.87,1.59-1.23,2.7-1.16c1.36,0.09,2.62,0.46,3.79,1.31
				c0,0.28,0.01,0.59,0,0.9c-0.27,5.3-0.24,10.59,0.19,15.88C167.34,222.14,167.3,222.5,167.22,222.84z M201.25,212.49
				c-0.12,0.88-0.23,1.77-0.36,2.65c-0.02,0.16-0.07,0.32-0.15,0.62c-0.31-0.24-0.53-0.37-0.7-0.54c-1.23-1.31-2.16-2.82-2.92-4.45
				c-1.19-2.57-1.84-5.28-2.13-8.1c-0.22-2.15-0.13-4.27,0.33-6.38c0.22-1,0.53-1.98,1.05-2.87c0.24-0.42,0.55-0.8,0.89-1.16
				c0.27-0.29,0.67-0.31,0.98-0.09c0.36,0.26,0.7,0.56,0.98,0.89c0.57,0.69,0.92,1.51,1.23,2.36c0.77,2.16,1.12,4.4,1.25,6.67
				C201.89,205.57,201.73,209.04,201.25,212.49z M216.51,207.57c-0.38-1.6-1.45-2.41-3.1-2.35c-0.61,0.02-1.22,0.21-1.92,0.33
				c-0.03-0.18-0.11-0.37-0.1-0.56c0.06-1.12,0.29-2.21,0.77-3.23c0.32-0.69,0.75-1.32,1.33-1.82c0.76-0.65,1.62-0.89,2.61-0.72
				c1.08,0.19,2.06,0.61,2.9,1.29c0.82,0.68,1.63,1.39,2.35,2.17c2.96,3.17,4.76,6.96,5.79,11.14c0.09,0.38,0.17,0.77,0.24,1.1
				c-3.09,3.4-7.17,3.69-10.71,1.08c-0.01-0.31-0.05-0.7-0.04-1.09c0.02-1.83,0.08-3.65,0.08-5.48
				C216.71,208.8,216.65,208.17,216.51,207.57z M226.52,236.64c-0.33,1.2-0.73,2.38-1.35,3.48c-0.2,0.35-0.43,0.67-0.67,0.99
				c-0.1,0.14-0.26,0.23-0.45,0.39c-0.77-0.25-1.21-0.76-1.66-1.26c-0.86-0.98-1.55-2.08-1.99-3.3c-1.42-3.89-2.64-7.84-3.24-11.95
				c-0.16-1.1-0.3-2.2-0.41-3.31c-0.07-0.7-0.08-1.41-0.11-2.03c0.26-0.3,0.48-0.22,0.68-0.16c3.55,1.04,6.86,0.55,9.93-1.52
				c0.11-0.07,0.23-0.13,0.36-0.18c0.04-0.02,0.09,0,0.22,0.02c0.18,0.55,0.23,1.17,0.27,1.77
				C228.49,225.35,228.08,231.05,226.52,236.64z M234.2,201.36c-1.25-0.37-2.1-1.01-2.73-1.89c-1.38-1.9-1.83-4.03-1.3-6.33
				c0.17-0.74,0.47-1.44,1.07-1.96c0.53-0.46,1.07-0.49,1.54,0.01c0.39,0.42,0.76,0.89,0.99,1.4c0.31,0.68,0.54,1.42,0.69,2.15
				C234.88,196.91,234.68,199.06,234.2,201.36z"/>
			<path d="M254.96,197.34c2.29,0.03,4.07-1.72,4.08-4c0.01-2.29-1.74-4.07-3.99-4.12c-2.39-0.06-4.11,1.96-4.1,4
				C250.96,195.48,252.72,197.31,254.96,197.34z"/>
		</g>
		<g>
			<path d="M227.84,78.19c-0.29,0.28-0.47,0.4-0.57,0.57c-0.56,0.96-1.17,1.91-1.64,2.91c-1.33,2.81-2.19,5.77-2.91,8.78
				c-0.99,4.14-1.6,8.34-2.01,12.58c-0.5,5.27-0.37,10.55-0.17,15.83c0.01,0.3,0.02,0.6,0.04,0.9c0.05,0.92-0.39,1.56-1.14,2.02
				c-0.49,0.3-1.01,0.44-1.59,0.45c-0.9,0.02-1.59-0.33-2.01-1.13c-0.26-0.49-0.48-1.01-0.68-1.53c-0.94-2.49-1.85-4.99-2.44-7.59
				c-0.04-0.19-0.17-0.37-0.32-0.69c-0.24,0.57-0.42,1-0.59,1.43c-0.82,1.98-1.6,3.98-2.46,5.95c-0.67,1.55-1.6,2.94-2.89,4.06
				c-1.6,1.4-3.44,2.06-5.58,1.82c-0.82-0.09-1.59-0.36-2.32-0.72c-1.13-0.55-2.11-1.31-3.02-2.17c-1.99-1.89-3.47-4.14-4.67-6.58
				c-0.47-0.96-0.86-1.97-1.28-2.95c-0.1-0.23-0.2-0.46-0.29-0.68c-0.31-0.02-0.25,0.21-0.3,0.33c-0.07,0.16-0.11,0.33-0.15,0.49
				c-0.36,1.37-0.69,2.75-1.1,4.1c-0.29,0.94-0.65,1.86-1.08,2.75c-0.47,0.98-1.19,1.78-2.15,2.33c-1.63,0.94-3.25,0.97-4.88,0
				c-0.82-0.49-1.51-1.13-2.14-1.84c-1.63-1.83-2.7-3.96-3.39-6.3c-0.12-0.41-0.26-0.81-0.4-1.21c-0.01-0.02-0.07-0.02-0.12-0.04
				c-0.27,0.08-0.2,0.33-0.23,0.52c-0.44,2.67-0.86,5.34-1.3,8.01c-0.14,0.85-0.38,1.68-0.82,2.43c-0.77,1.34-1.91,2.05-3.48,2.01
				c-0.81-0.02-1.49-0.38-2.11-0.86c-0.76-0.58-1.37-1.3-1.91-2.08c-1.56-2.23-2.41-4.74-2.74-7.41c-0.17-1.36-0.26-2.74-0.25-4.11
				c0.03-3.65,0.14-7.3,0.22-10.95c0.04-1.59,0.11-3.18,0.15-4.76c0.05-1.85,0.04-3.69-0.41-5.51c-0.11-0.46-0.27-0.9-0.41-1.36
				c-0.19-0.62-0.6-1.03-1.21-1.23c-0.48-0.16-0.95-0.4-1.54-0.34c-2.29,12.1-9.46,19.55-21.65,22.4c0.66,0.33,1.07,0.54,1.49,0.75
				c1.54,0.78,3.01,1.66,4.27,2.84c1.37,1.28,2.49,2.75,2.9,4.62c0.67,3-0.19,5.55-2.58,7.47c-1.82,1.47-3.92,1.61-6.1,0.9
				c-1.33-0.43-2.46-1.2-3.45-2.18c-1.14-1.12-2.1-2.4-2.86-3.79c-2.26-4.12-3.67-8.49-3.95-13.21c-0.32-5.56,0.18-11.07,1.19-16.53
				c0.43-2.32,0.93-4.63,1.69-6.87c0.76-2.21,1.78-4.28,3.32-6.06c1.02-1.18,2.18-2.19,3.58-2.9c1.2-0.61,2.46-0.97,3.83-0.95
				c3,0.04,5.12,1.77,5.75,4.72c0.25,1.19,0.3,2.39,0.22,3.59c-0.15,2.21-0.67,4.32-1.72,6.28c-1.27,2.36-2.84,4.5-4.75,6.38
				c-1.49,1.47-3.17,2.63-5.24,3.13c-0.08,0.02-0.14,0.09-0.3,0.2c-0.37,3-0.41,6.06-0.15,9.12c1.72,0.19,6.42-1.06,9.2-2.39
				c3.71-1.78,6.57-4.49,8.74-7.96c1.94-3.1,3.09-6.47,3.63-10.13c-0.32-0.12-0.55-0.22-0.79-0.29c-1-0.27-1.98-0.59-2.88-1.09
				c-2.95-1.64-4.14-4.22-3.99-7.5c0.04-0.95,0.22-1.87,0.58-2.76c1.19-2.97,4.19-3.22,6.15-1.86c1.05,0.73,1.82,1.69,2.4,2.81
				c0.9,1.74,1.37,3.6,1.55,5.54c0.07,0.81,0.09,1.62,0.14,2.43c0.53,0.37,1.1,0.29,1.64,0.32c1.16,0.06,2.3,0.23,3.43,0.54
				c3.08,0.86,4.94,2.81,5.4,6.01c0.12,0.85,0.21,1.71,0.19,2.56c-0.09,3.39-0.2,6.78-0.35,10.17c-0.15,3.48-0.26,6.95,0.03,10.43
				c0.12,1.45,0.2,2.91,0.34,4.36c0.06,0.64,0.19,1.27,0.31,1.9c0.04,0.19,0.17,0.37,0.29,0.63c0.43-0.82,0.51-1.64,0.64-2.42
				c0.82-4.82,1.59-9.65,2.41-14.48c0.28-1.66,0.35-3.31,0.33-5c-0.05-4.43,0.16-8.84,0.7-13.24c0.1-0.81,0.27-1.61,0.47-2.4
				c0.11-0.45,0.28-0.91,0.5-1.32c0.67-1.24,1.93-1.92,3.18-1.75c1.4,0.19,2.43,1.1,2.75,2.53c0.14,0.62,0.21,1.27,0.23,1.91
				c0.02,0.99-0.03,1.97-0.07,2.96c-0.12,3.35-0.3,6.69-0.37,10.04c-0.07,3.7,0.15,7.39,0.76,11.04c0.43,2.58,1,5.14,1.57,7.69
				c0.17,0.74,0.53,1.45,0.82,2.16c0.07,0.18,0.24,0.32,0.44,0.56c0.23-0.33,0.44-0.54,0.55-0.8c0.42-0.99,0.87-1.97,1.2-2.98
				c0.97-2.98,1.74-6.02,2.46-9.07c0.11-0.47,0.14-0.92,0.06-1.4c-0.41-2.72-0.62-5.46-0.58-8.21c0.06-4.4,0.54-8.74,1.95-12.94
				c0.8-2.38,1.88-4.61,3.38-6.63c0.93-1.25,1.98-2.38,3.31-3.2c2.24-1.39,4.63-1.76,7.16-0.94c1.51,0.49,2.75,1.4,3.74,2.63
				c1.55,1.92,2.44,4.14,2.75,6.57c0.39,3,0.02,5.91-1.28,8.67c-1.45,3.07-3.75,5.17-7.06,6.13c-1.84,0.53-3.64,0.5-5.44-0.13
				c-0.32-0.11-0.64-0.2-0.99-0.32c-0.19,0.52-0.11,0.99-0.09,1.45c0.1,2.4,0.32,4.8,0.72,7.17c0.56,3.26,1.24,6.49,2.33,9.62
				c0.52,1.5,1.12,2.98,1.98,4.32c0.39,0.61,0.82,1.21,1.29,1.76c0.33,0.39,0.72,0.74,1.14,1.03c0.74,0.52,1.31,0.53,2-0.04
				c0.55-0.47,1.09-0.99,1.5-1.58c0.56-0.8,1.06-1.67,1.49-2.55c1.7-3.52,3.06-7.18,4.36-10.87c0.19-0.55,0.18-1.09,0.15-1.65
				c-0.13-2.23-0.27-4.46-0.37-6.69c-0.13-2.79,0-5.58,0.37-8.35c0.18-1.37,0.48-2.71,1.05-3.97c0.23-0.5,0.5-1.01,0.84-1.44
				c0.8-1.01,2.09-1.39,3.23-1.04c0.66,0.2,1.14,0.6,1.35,1.26c0.12,0.37,0.2,0.75,0.26,1.12c0.25,1.45,0.21,2.91,0.2,4.37
				c0,0.47,0,0.94,0,1.65c0.4-0.57,0.43-1.02,0.53-1.44c0.57-2.56,1.26-5.08,2.12-7.56c0.62-1.79,1.31-3.55,2.28-5.18
				c0.48-0.81,1.01-1.6,1.61-2.32c2.64-3.13,7.31-2.27,9.18,0.95c0.7,1.21,1.06,2.53,1.3,3.89c0.34,1.95,0.53,3.92,0.52,5.9
				c-0.02,2.83-0.09,5.67-0.12,8.5c-0.04,3.99-0.14,7.99-0.06,11.98c0.09,4.51,0.46,9,1.25,13.45c0.25,1.39,0.53,2.78,1.17,4.21
				c0.17-0.25,0.33-0.39,0.37-0.56c0.6-2.24,1.19-4.48,1.77-6.72c0.24-0.96,0.41-1.93,0.66-2.89c0.19-0.73,0.17-1.41,0-2.15
				c-1.31-5.91-1.35-11.84-0.1-17.76c0.34-1.6,0.86-3.15,1.6-4.61c0.96-1.91,2.25-3.55,3.99-4.81c3.03-2.18,6.99-2.31,10.01,0.24
				c0.26,0.22,0.53,0.41,0.79,0.6c0.39-0.28,0.3-0.65,0.34-0.98c0.23-1.83,0.55-3.65,1.07-5.43c0.53-1.78,1.29-3.46,2.32-5
				c0.75-1.12,1.64-2.09,2.75-2.87c1.04-0.73,2.17-1.2,3.46-1.26c1.85-0.08,3.35,0.6,4.53,2.01c0.75,0.9,1.26,1.94,1.61,3.06
				c0.68,2.24,0.69,4.5,0.13,6.75c-1.31,5.28-3.96,9.75-8.26,13.16c-0.1,0.08-0.19,0.17-0.31,0.27c0,0.63-0.05,1.27,0.01,1.9
				c0.28,3.26,0.84,6.47,1.62,9.64c0.51,2.04,1.1,4.06,1.89,6.01c0.47,1.16,1.04,2.27,1.78,3.27c0.25,0.34,0.55,0.66,0.86,0.95
				c0.35,0.33,0.79,0.36,1.19,0.1c0.43-0.28,0.87-0.58,1.21-0.95c0.78-0.86,1.55-1.72,2.24-2.65c2.79-3.8,4.89-7.97,6.67-12.31
				c0.15-0.36,0.29-0.71,0.43-1.08c0.03-0.08,0.03-0.17,0.05-0.34c-0.23-0.24-0.48-0.52-0.75-0.78c-1.61-1.56-3.1-3.21-4.35-5.08
				c-0.89-1.33-1.63-2.72-2.13-4.25c-0.76-2.34-0.89-4.7-0.3-7.11c0.51-2.06,1.32-3.99,2.47-5.77c0.61-0.94,1.35-1.78,2.25-2.46
				c1.06-0.79,2.25-1.23,3.59-1.24c1.87-0.02,3.31,0.77,4.35,2.3c0.61,0.9,1,1.9,1.28,2.94c0.34,1.29,0.53,2.6,0.59,3.94
				c0.16,3.86-0.39,7.62-1.42,11.32c-0.15,0.53-0.3,1.07-0.46,1.65c0.29,0.28,0.56,0.54,0.89,0.87c0.29-0.36,0.35-0.73,0.44-1.08
				c0.82-3.12,1.83-6.17,3.11-9.13c0.62-1.41,1.32-2.8,2.07-4.14c0.46-0.82,1.05-1.57,1.67-2.28c0.96-1.09,2.18-1.8,3.62-2.07
				c1.85-0.35,3.39,0.18,4.62,1.6c0.51,0.59,0.87,1.27,1.14,2c0.44,1.17,0.73,2.38,0.79,3.63c0.05,1.03,0.07,2.06,0.16,3.09
				c0.16,1.83-1.84,2.69-3.24,2.05c-0.49-0.23-0.81-0.63-0.83-1.21c-0.01-0.34,0.01-0.69,0.02-1.03c0.04-1.38,0.05-2.75-0.25-4.1
				c-0.16-0.71-0.37-1.41-0.63-2.09c-0.15-0.39-0.43-0.74-0.71-1.06c-0.34-0.38-0.7-0.41-1.16-0.16c-0.62,0.33-1.14,0.8-1.52,1.37
				c-0.66,1-1.33,2.01-1.87,3.07c-1.31,2.57-2.25,5.29-3.08,8.05c-0.47,1.56-0.85,3.15-1.26,4.73c-0.1,0.37-0.13,0.75-0.2,1.17
				c0.37,0.32,0.72,0.62,1.08,0.93c1.49,1.29,3.02,2.54,4.47,3.89c3.49,3.25,5.74,7.24,6.83,11.88c0.42,1.78,0.54,3.57,0.02,5.35
				c-1,3.38-3.32,5.47-6.63,6.41c-3.1,0.88-5.77,0.04-7.86-2.45c-1.48-1.76-2.25-3.84-2.66-6.06c-0.44-2.33-0.53-4.69-0.4-7.06
				c0.13-2.4,0.38-4.79,0.73-7.17c0.02-0.17,0.03-0.34,0.06-0.59c-0.55-0.49-1.13-0.99-1.73-1.52c-0.47,0.26-0.52,0.72-0.67,1.08
				c-1.3,3.09-2.76,6.1-4.56,8.93c-0.94,1.48-1.96,2.92-3.01,4.33c-0.9,1.21-1.97,2.27-3.24,3.11c-1.05,0.7-2.19,1.17-3.47,1.26
				c-1.52,0.11-2.89-0.26-4.15-1.11c-1.01-0.68-1.87-1.5-2.63-2.45c-1.49-1.85-2.64-3.9-3.56-6.1c-0.14-0.33-0.14-0.78-0.64-0.98
				c-0.27,1.41-0.54,2.79-0.81,4.17c-0.48,2.45-1.05,4.87-2.06,7.16c-0.38,0.86-0.82,1.7-1.35,2.48c-0.76,1.14-1.82,1.91-3.18,2.26
				c-1.28,0.33-2.46,0.13-3.59-0.53c-0.75-0.44-1.37-1.03-1.95-1.66c-1.23-1.33-2.2-2.85-3.04-4.46c-0.17-0.33-0.36-0.66-0.53-0.98
				c-0.37,0.07-0.28,0.34-0.34,0.51c-0.07,0.2-0.11,0.41-0.16,0.62c-0.35,1.59-0.69,3.19-1.07,4.77c-0.15,0.62-0.32,1.25-0.59,1.83
				c-0.99,2.18-3.42,2.97-5.52,1.84c-0.73-0.39-1.33-0.94-1.88-1.55c-0.99-1.09-1.72-2.35-2.31-3.7c-0.94-2.13-1.54-4.37-2.03-6.64
				c-0.47-2.19-0.69-4.4-0.83-6.64c-0.34-5.58-0.14-11.16-0.03-16.74c0.06-2.96,0.06-5.93,0.03-8.89
				C228.43,81.91,228.25,80.16,227.84,78.19z M252.12,122.72c0.14-0.12,0.3-0.21,0.39-0.35c0.25-0.35,0.49-0.7,0.7-1.08
				c0.68-1.2,1.1-2.51,1.53-3.82c1.23-3.76,2.08-7.61,2.91-11.47c0.37-1.69,0.54-3.34,0.25-5.08c-0.55-3.22-0.66-6.49-0.65-9.75
				c0-0.94-0.24-1.67-0.94-2.27c-0.23-0.2-0.41-0.44-0.64-0.63c-0.74-0.59-1.45-1.21-2.24-1.72c-0.88-0.57-1.32-0.51-2.02,0.29
				c-0.53,0.61-1,1.29-1.4,1.99c-0.65,1.16-1.09,2.42-1.46,3.7c-0.84,2.91-1.13,5.9-1.17,8.91c-0.02,1.54,0.08,3.09,0.16,4.63
				c0.21,3.74,0.8,7.42,1.86,11.02c0.42,1.44,0.91,2.86,1.62,4.19C251.3,121.81,251.55,122.37,252.12,122.72z M194.58,93.41
				c0.83,0.63,1.72,0.94,2.62,1.2c1.07,0.3,2.12,0.21,3.16-0.15c1.82-0.62,3.27-1.73,4.23-3.39c2.58-4.45,2.61-8.96,0.13-13.47
				c-0.31-0.56-0.73-1.07-1.18-1.52c-1.42-1.41-2.63-1.39-3.97,0.07c-0.49,0.53-0.91,1.14-1.27,1.77c-0.4,0.7-0.75,1.45-1.03,2.21
				c-0.44,1.21-0.85,2.43-1.2,3.67C195.21,86.91,194.7,90.08,194.58,93.41z M133.38,94.96c0.37-0.16,0.54-0.21,0.67-0.3
				c0.46-0.31,0.94-0.61,1.36-0.97c2.84-2.47,4.93-5.46,6.1-9.06c0.49-1.52,0.76-3.09,0.6-4.69c-0.08-0.84-0.24-1.71-0.53-2.5
				c-0.61-1.67-1.41-1.83-2.56-0.52c-0.59,0.67-1.09,1.44-1.5,2.23c-0.51,0.99-0.91,2.03-1.3,3.08c-1.12,3.03-1.76,6.18-2.31,9.35
				C133.72,92.63,133.58,93.68,133.38,94.96z M290.39,106c-0.09,0.83-0.19,1.46-0.23,2.1c-0.15,2.48-0.21,4.96,0.18,7.43
				c0.22,1.4,0.6,2.76,1.27,4.02c0.54,1,1.24,1.85,2.22,2.44c0.36,0.21,0.76,0.4,1.17,0.49c0.85,0.18,1.28-0.03,1.7-0.78
				c0.36-0.64,0.64-1.32,0.62-2.07c-0.02-0.77-0.03-1.55-0.2-2.29c-0.98-4.24-3.06-7.87-6.17-10.91
				C290.84,106.31,290.69,106.22,290.39,106z M264.6,91.47c0.28-0.14,0.38-0.15,0.43-0.21c0.18-0.19,0.35-0.38,0.5-0.58
				c2.13-2.74,3.65-5.78,4.55-9.13c0.39-1.46,0.52-2.95,0.4-4.46c-0.1-1.21-0.44-2.36-1.08-3.39c-0.29-0.47-0.61-0.92-1.14-1.11
				c-0.77,0.61-0.85,0.7-1.26,1.47c-0.71,1.34-1.18,2.76-1.42,4.24c-0.56,3.34-0.86,6.71-0.98,10.09
				C264.57,89.36,264.6,90.34,264.6,91.47z M133.5,111.41c0.42,3.1,1.09,6,2.7,8.61c0.4,0.65,0.95,1.21,1.47,1.78
				c0.26,0.28,0.59,0.5,0.93,0.68c1,0.55,1.82,0.34,2.44-0.59c0.34-0.51,0.54-1.07,0.59-1.68c0.08-0.91-0.04-1.8-0.4-2.65
				c-0.52-1.25-1.32-2.31-2.34-3.19c-1.48-1.27-3.15-2.22-4.95-2.95C133.87,111.39,133.77,111.41,133.5,111.41z M284.25,75.84
				c-0.6,0.39-0.89,0.92-1.16,1.45c-0.74,1.43-1.18,2.95-1.28,4.54c-0.22,3.62,0.9,6.83,3.11,9.68c0.08,0.11,0.26,0.14,0.44,0.24
				c0.82-3.17,1.25-6.3,1.04-9.49c-0.09-1.37-0.29-2.73-0.75-4.03C285.35,77.38,285.01,76.54,284.25,75.84z M154.74,82.89
				c0.03-0.12,0.09-0.24,0.1-0.36c0.07-2.08-0.22-4.09-0.99-6.03c-0.3-0.76-0.67-1.49-1.24-2.08c-0.4-0.42-0.8-1.04-1.47-0.85
				c-0.63,0.18-0.79,0.87-0.93,1.45c-0.33,1.35-0.35,2.71,0.04,4.06C150.89,81.24,152.53,82.63,154.74,82.89z"/>
			<path d="M177.08,69.77c2.07-0.04,3.89,1.61,3.9,3.91c0,2.09-1.78,3.86-3.87,3.84c-2.2-0.03-3.91-1.73-3.88-3.94
				C173.25,71.44,174.94,69.78,177.08,69.77z"/>
		</g>
	</g>
	<g>
		<path d="M286.89,133.21c-0.36-0.27-0.75-0.5-1.16-0.69c-3.3-1.62-6.71-2.95-10.23-3.98c-0.64-0.19-1.34-0.27-2-0.23
			c-1.39,0.08-2.2,1.24-1.83,2.58c0.19,0.67,0.53,1.31,0.8,1.96c0.09,0.22,0.17,0.45,0.29,0.74c-0.35,0.01-0.6,0.03-0.85,0.03
			c-4.37,0.03-102.56-0.27-105.1-0.23c-0.49,0.01-0.81-0.12-1.15-0.51c-0.92-1.07-1.91-2.09-2.88-3.12c-0.84-0.9-1.89-1.45-3.1-1.61
			c-1.21-0.16-2.43-0.36-3.64-0.35c-2.5,0.03-5.01,0.14-7.51,0.3c-0.89,0.06-1.79,0.25-2.63,0.55c-1.57,0.57-2.17,1.98-1.5,3.51
			c0.32,0.72,0.85,1.35,1.32,2c0.22,0.31,0.51,0.56,0.8,0.86c-0.3,0.39-0.61,0.71-0.84,1.09c-0.46,0.77-0.96,1.53-1.3,2.35
			c-0.74,1.83,0.02,3.11,1.94,3.44c0.13,0.02,0.26,0.04,0.38,0.05c4.14,0.33,8.29,0.25,12.44,0.07c1.22-0.05,2.23-0.52,3.01-1.49
			c0.93-1.15,1.92-2.26,2.79-3.45c0.41-0.56,0.81-0.76,1.5-0.76c5.73,0,99.34,0.3,106.06,0.26c0.24,0,0.48,0.03,0.82,0.04
			c-0.21,0.46-0.4,0.79-0.52,1.14c-0.23,0.76-0.56,1.53-0.6,2.31c-0.09,1.45,1.07,2.41,2.51,2.2c0.35-0.05,0.69-0.14,1.04-0.23
			c2.56-0.66,5.04-1.56,7.42-2.69c1.01-0.48,1.99-1.05,2.93-1.66c0.5-0.33,0.95-0.78,1.31-1.26
			C288.22,135.3,288,134.03,286.89,133.21z"/>
		<g>
			<path class="st12" d="M291.31,172.27c-1.41-0.36-2.62,0.19-3.64,1.32c-1.37,1.53-0.53,1.53-1.91,0
				c-1.02-1.14-2.23-1.69-3.64-1.32c-1.43,0.37-2.17,1.62-2,3.32c0.13,1.33,0.83,2.86,1.48,3.97c1.55,2.61,4.31,5.99,5.11,5.99
				c0.83,0,3.57-3.36,5.12-5.99c0.65-1.1,1.35-2.64,1.48-3.97C293.48,173.89,292.74,172.64,291.31,172.27z"/>
			<path class="st7" d="M249.72,64.91c-1.41-0.36-2.62,0.19-3.64,1.32c-1.37,1.53-0.53,1.53-1.91,0c-1.02-1.14-2.23-1.69-3.64-1.32
				c-1.43,0.37-2.17,1.62-2,3.32c0.13,1.33,0.83,2.86,1.48,3.97c1.55,2.61,4.31,5.99,5.11,5.99c0.83,0,3.57-3.36,5.12-5.99
				c0.65-1.1,1.35-2.64,1.48-3.97C251.89,66.53,251.15,65.28,249.72,64.91z"/>
			<path class="st10" d="M171.92,289.36c-1.41-0.36-2.62,0.19-3.64,1.32c-1.37,1.53-0.53,1.53-1.91,0
				c-1.02-1.14-2.23-1.69-3.64-1.32c-1.43,0.37-2.17,1.62-2,3.32c0.13,1.33,0.83,2.86,1.48,3.97c1.55,2.61,4.31,5.99,5.11,5.99
				c0.83,0,3.57-3.36,5.12-5.99c0.65-1.1,1.35-2.64,1.48-3.97C174.09,290.98,173.35,289.73,171.92,289.36z"/>
			<path class="st0" d="M144.23,146.34c-1.41-0.36-2.62,0.19-3.64,1.32c-1.37,1.53-0.53,1.53-1.91,0c-1.02-1.14-2.23-1.69-3.64-1.32
				c-1.43,0.37-2.17,1.62-2,3.32c0.13,1.33,0.83,2.86,1.48,3.97c1.55,2.61,4.31,5.99,5.11,5.99c0.83,0,3.57-3.36,5.12-5.99
				c0.65-1.1,1.35-2.64,1.48-3.97C146.4,147.96,145.66,146.71,144.23,146.34z"/>
			<path class="st7" d="M251.9,353.93c-1.41-0.36-2.62,0.19-3.64,1.32c-1.37,1.53-0.53,1.53-1.91,0c-1.02-1.14-2.23-1.69-3.64-1.32
				c-1.43,0.37-2.17,1.62-2,3.32c0.13,1.33,0.83,2.86,1.48,3.97c1.55,2.61,4.31,5.99,5.11,5.99c0.83,0,3.57-3.36,5.12-5.99
				c0.65-1.1,1.35-2.64,1.48-3.97C254.07,355.54,253.33,354.29,251.9,353.93z"/>
		</g>
	</g>
</g>
</svg>
