<?xml version="1.0" encoding="utf-8"?>
<!-- Generator: Adobe Illustrator 25.2.1, SVG Export Plug-In . SVG Version: 6.00 Build 0)  -->
<svg version="1.1" id="Calque_1" xmlns="http://www.w3.org/2000/svg" xmlns:xlink="http://www.w3.org/1999/xlink" x="0px" y="0px"
	 viewBox="0 0 432 432" style="enable-background:new 0 0 432 432;" xml:space="preserve">
<style type="text/css">
	.st0{fill:#E0AAAF;}
	.st1{fill:#F9D53D;}
	.st2{fill:#FBB03B;}
	.st3{fill:#CCCCCC;}
	.st4{fill:#8CC63F;}
	.st5{fill:#C5D8A7;}
	.st6{fill:#C44750;}
	.st7{fill:#998675;}
	.st8{fill:#C7B299;}
	.st9{fill:none;}
	.st10{fill:#29ABE2;}
	.st11{fill:#B3B3B3;}
	.st12{fill:#C79C52;}
	.st13{fill:#65C8D0;}
	.st14{fill:#BA9BC9;}
	.st15{fill:#A57A7F;}
	.st16{fill:#FFFFFF;}
</style>
<g>
	<g>
		<g>
			<path class="st10" d="M300.54,335.48c2.37-24.89,4.73-49.69,7.1-74.55c10.81,1.03,21.56,2.05,32.39,3.09
				c-2.37,24.84-4.73,49.66-7.1,74.55C322.15,337.54,311.39,336.52,300.54,335.48z M328.66,300.02c0.13-3.92,0.3-7.83,0.37-11.75
				c0.07-3.86-0.14-7.71-0.66-11.53c-0.31-2.32-0.73-4.62-1.57-6.82c-0.38-1.01-0.84-1.98-1.57-2.8c-1.19-1.33-2.66-1.5-4.03-0.36
				c-0.67,0.56-1.24,1.26-1.74,1.98c-1.05,1.51-1.76,3.21-2.39,4.93c-2.06,5.57-3.19,11.37-4.09,17.21
				c-0.84,5.47-1.31,10.98-1.47,16.52c-0.13,4.4-0.08,8.78,0.34,13.16c0.28,2.93,0.67,5.85,1.64,8.64c0.36,1.03,0.82,2.07,1.43,2.97
				c1.3,1.94,3.24,2.05,4.89,0.4c0.09-0.09,0.17-0.19,0.26-0.28c1.23-1.36,2.02-2.97,2.72-4.64c1.96-4.66,3.08-9.55,4.01-14.49
				C327.62,308.83,328.16,304.43,328.66,300.02z"/>
			<path class="st10" d="M308.55,250.89c0.12-1.24,0.23-2.44,0.35-3.63c0.18-1.89,0.36-3.78,0.54-5.67
				c0.02-0.25,0.04-0.51,0.08-0.75c0.13-0.78,0.35-0.97,1.14-0.91c1.07,0.08,2.14,0.18,3.21,0.27c0.22,0.02,0.44,0.02,0.74,0.03
				c0.13-0.35,0.27-0.69,0.4-1.04c3.17-9.1,6.34-18.2,9.51-27.29c0.07-0.21,0.15-0.42,0.23-0.62c0.18-0.48,0.52-0.68,1.03-0.63
				c1.95,0.18,3.91,0.34,5.86,0.53c0.74,0.08,0.89,0.26,1.02,1.13c0.39,2.53,0.76,5.06,1.13,7.59c1.05,7.19,2.1,14.38,3.15,21.57
				c0.04,0.28,0.11,0.56,0.19,0.97c0.83,0.08,1.67,0.16,2.51,0.24c0.53,0.05,1.07,0.09,1.6,0.18c0.56,0.09,0.75,0.32,0.77,0.9
				c0.01,0.16-0.01,0.32-0.02,0.47c-0.29,3.09-0.59,6.17-0.88,9.26c-0.01,0.15-0.05,0.31-0.08,0.45
				C340.32,254.06,309.94,251.23,308.55,250.89z"/>
			<path class="st10" d="M332.04,348.62c-0.04,0.46-0.08,0.86-0.12,1.27c-0.28,2.99-0.57,5.98-0.86,8.97
				c-0.12,1.19-0.34,1.39-1.48,1.28c-9.92-0.93-19.84-1.86-29.76-2.79c-1.17-0.11-1.38-0.36-1.27-1.5c0.3-3.24,0.62-6.49,0.93-9.73
				c0.02-0.19,0.05-0.37,0.08-0.54C300.27,345.43,330.64,348.26,332.04,348.62z"/>
			<path d="M340.31,260.96c-10.76-1.03-21.51-2.05-32.4-3.09c0.08-1.23,0.21-2.47,0.36-3.77c10.82,1.03,21.57,2.06,32.4,3.09
				C340.55,258.42,340.43,259.65,340.31,260.96z"/>
			<path d="M299.88,342.22c0.12-1.25,0.23-2.43,0.35-3.69c10.81,1.03,21.58,2.06,32.41,3.09c-0.12,1.23-0.23,2.44-0.35,3.64
				C331.6,345.39,301.14,342.54,299.88,342.22z"/>
		</g>
		<g>
			<path class="st1" d="M261.52,98.55c-24.96,1.46-49.83,2.92-74.76,4.39c-0.64-10.84-1.27-21.62-1.91-32.48
				c24.91-1.46,49.8-2.92,74.76-4.39C260.25,76.88,260.88,87.67,261.52,98.55z M222.18,76.19c-3.89,0.47-7.78,0.91-11.67,1.43
				c-3.82,0.52-7.6,1.32-11.3,2.41c-2.24,0.67-4.45,1.43-6.5,2.59c-0.94,0.53-1.83,1.13-2.52,1.98c-1.13,1.38-1.07,2.86,0.26,4.04
				c0.65,0.58,1.44,1.04,2.22,1.42c1.66,0.81,3.44,1.24,5.24,1.61c5.82,1.18,11.72,1.41,17.64,1.4c5.54-0.01,11.05-0.38,16.55-1.07
				c4.36-0.54,8.69-1.26,12.95-2.35c2.85-0.73,5.68-1.55,8.28-2.95c0.97-0.52,1.92-1.13,2.72-1.87c1.72-1.58,1.53-3.51-0.35-4.89
				c-0.1-0.07-0.21-0.14-0.32-0.21c-1.53-1-3.25-1.54-5-1.98c-4.9-1.22-9.91-1.58-14.94-1.75
				C231.03,75.87,226.61,76.01,222.18,76.19z"/>
			<path class="st1" d="M176.7,103.58c-1.25,0.07-2.44,0.14-3.64,0.21c-1.89,0.11-3.79,0.22-5.68,0.33
				c-0.25,0.01-0.51,0.04-0.76,0.04c-0.79-0.01-1.01-0.19-1.08-0.99c-0.09-1.07-0.15-2.15-0.22-3.22c-0.02-0.22-0.05-0.43-0.08-0.74
				c-0.36-0.08-0.72-0.17-1.09-0.23c-9.48-1.74-18.95-3.48-28.43-5.22c-0.22-0.04-0.43-0.08-0.65-0.13
				c-0.5-0.11-0.75-0.41-0.78-0.92c-0.12-1.96-0.27-3.91-0.37-5.87c-0.04-0.74,0.12-0.92,0.96-1.18c2.44-0.77,4.89-1.52,7.33-2.28
				c6.94-2.14,13.89-4.27,20.83-6.41c0.27-0.08,0.53-0.19,0.93-0.33c-0.05-0.83-0.1-1.67-0.15-2.52c-0.03-0.54-0.07-1.07-0.07-1.61
				c0-0.57,0.21-0.79,0.77-0.9c0.15-0.03,0.31-0.04,0.47-0.05c3.09-0.18,6.19-0.37,9.28-0.55c0.16-0.01,0.31,0,0.46,0.01
				C174.97,71.7,176.82,102.15,176.7,103.58z"/>
			<path class="st1" d="M269.68,65.41c0.46-0.03,0.87-0.05,1.27-0.07c3-0.18,6-0.35,9-0.53c1.19-0.07,1.42,0.12,1.49,1.27
				c0.6,9.95,1.2,19.89,1.8,29.84c0.07,1.17-0.15,1.42-1.29,1.49c-3.25,0.2-6.5,0.38-9.76,0.57c-0.19,0.01-0.37,0-0.55,0
				C271.39,97.3,269.54,66.85,269.68,65.41z"/>
			<path d="M181.79,70.65c0.63,10.79,1.27,21.57,1.91,32.49c-1.23,0.11-2.47,0.17-3.78,0.23c-0.64-10.85-1.27-21.63-1.91-32.49
				C179.24,70.8,180.48,70.73,181.79,70.65z"/>
			<path d="M268.27,98.17c-1.25,0.07-2.44,0.14-3.7,0.22c-0.64-10.84-1.27-21.64-1.91-32.5c1.23-0.07,2.45-0.14,3.65-0.21
				C266.56,66.34,268.4,96.88,268.27,98.17z"/>
		</g>
		<g>
			<path class="st4" d="M100.57,338.57c-2.37-24.88-4.74-49.71-7.1-74.55c10.82-1.03,21.58-2.06,32.39-3.09
				c2.37,24.86,4.73,49.66,7.1,74.55C122.1,336.52,111.35,337.54,100.57,338.57z M106.7,313.18c0.93,4.94,2.05,9.84,4.01,14.49
				c0.7,1.66,1.49,3.28,2.72,4.64c0.08,0.09,0.17,0.19,0.26,0.28c1.65,1.65,3.59,1.53,4.89-0.4c0.61-0.91,1.07-1.94,1.43-2.97
				c0.98-2.79,1.36-5.71,1.64-8.64c0.42-4.38,0.47-8.77,0.34-13.16c-0.16-5.54-0.64-11.05-1.47-16.52
				c-0.9-5.85-2.03-11.64-4.09-17.21c-0.64-1.72-1.34-3.42-2.39-4.93c-0.5-0.72-1.07-1.42-1.74-1.98c-1.36-1.14-2.83-0.96-4.03,0.36
				c-0.73,0.81-1.19,1.78-1.57,2.8c-0.83,2.2-1.25,4.5-1.57,6.82c-0.52,3.83-0.73,7.68-0.66,11.53c0.07,3.92,0.24,7.83,0.37,11.75
				C105.34,304.43,105.88,308.83,106.7,313.18z"/>
			<path class="st4" d="M124.94,250.89c-0.12-1.24-0.23-2.44-0.35-3.63c-0.18-1.89-0.36-3.78-0.54-5.67
				c-0.02-0.25-0.04-0.51-0.08-0.75c-0.13-0.78-0.35-0.97-1.14-0.91c-1.07,0.08-2.14,0.18-3.21,0.27c-0.22,0.02-0.44,0.02-0.74,0.03
				c-0.13-0.35-0.27-0.69-0.4-1.04c-3.17-9.1-6.34-18.2-9.51-27.29c-0.07-0.21-0.15-0.42-0.23-0.62c-0.18-0.48-0.52-0.68-1.03-0.63
				c-1.95,0.18-3.91,0.34-5.86,0.53c-0.74,0.08-0.89,0.26-1.02,1.13c-0.39,2.53-0.76,5.06-1.13,7.59
				c-1.05,7.19-2.1,14.38-3.15,21.57c-0.04,0.28-0.11,0.56-0.19,0.97c-0.82,0.08-1.67,0.16-2.51,0.24c-0.53,0.05-1.07,0.09-1.6,0.18
				c-0.56,0.09-0.75,0.32-0.77,0.9c-0.01,0.16,0.01,0.32,0.03,0.47c0.29,3.09,0.59,6.17,0.88,9.26c0.01,0.15,0.05,0.31,0.08,0.45
				C93.17,254.06,123.55,251.23,124.94,250.89z"/>
			<path class="st4" d="M101.46,348.62c0.04,0.46,0.08,0.86,0.12,1.27c0.28,2.99,0.57,5.98,0.86,8.97c0.12,1.19,0.34,1.39,1.48,1.28
				c9.92-0.93,19.84-1.86,29.76-2.79c1.17-0.11,1.38-0.36,1.27-1.5c-0.3-3.24-0.62-6.49-0.93-9.73c-0.02-0.19-0.05-0.37-0.08-0.54
				C133.23,345.43,102.86,348.26,101.46,348.62z"/>
			<path d="M93.19,260.96c10.76-1.03,21.51-2.05,32.4-3.09c-0.08-1.23-0.21-2.47-0.36-3.77c-10.82,1.03-21.57,2.06-32.4,3.09
				C92.94,258.42,93.06,259.65,93.19,260.96z"/>
			<path d="M133.61,342.22c-0.12-1.25-0.23-2.43-0.35-3.69c-10.81,1.03-21.58,2.06-32.41,3.09c0.12,1.23,0.23,2.44,0.35,3.64
				C101.89,345.39,132.35,342.54,133.61,342.22z"/>
		</g>
	</g>
	<g>
		<path d="M281.48,246.54c-0.5-8.36-1.52-16.52-3.34-24.58c-0.72-3.2-1.49-6.39-2.71-9.72c-0.2,0.64-0.33,1.02-0.42,1.4
			c-0.81,3.42-1.61,6.84-2.42,10.26c-1.03,4.34-2.23,8.63-4.04,12.73c-0.73,1.65-1.49,3.29-2.49,4.79
			c-0.57,0.86-1.19,1.71-1.91,2.45c-2.57,2.63-6.21,3.12-9.42,1.31c-0.55-0.31-1.04-0.71-1.56-1.06c-0.14-0.09-0.29-0.17-0.54-0.31
			c-0.08,0.58-0.16,1.06-0.21,1.54c-0.31,3.23-0.6,6.46-0.93,9.69c-0.29,2.87-0.62,5.73-0.97,8.59c-0.38,3.09-0.76,6.17-1.21,9.24
			c-0.28,1.87-0.67,3.72-1.07,5.57c-0.22,1.01-0.61,1.98-1.15,2.87c-0.66,1.07-1.54,1.87-2.73,2.32c-1.31,0.49-2.59,0.39-3.76-0.35
			c-0.72-0.45-1.42-0.99-1.97-1.62c-0.94-1.08-1.83-2.23-2.62-3.43c-2.8-4.21-4.61-8.85-5.86-13.73c-0.68-2.66-1.24-5.35-1.66-8.07
			c-0.02-0.13-0.07-0.26-0.1-0.38c-0.34-0.09-0.36,0.16-0.43,0.37c-0.72,2.51-1.44,5.02-2.18,7.53c-0.43,1.47-0.9,2.94-1.63,4.29
			c-0.41,0.75-0.86,1.48-1.38,2.16c-0.67,0.88-1.56,1.5-2.6,1.87c-1.57,0.56-3.1,0.4-4.56-0.4c-1.37-0.75-2.46-1.81-3.49-2.96
			c-0.44-0.5-0.88-1.01-1.41-1.62c-0.12,0.43-0.24,0.71-0.28,1c-0.61,4.51-1.42,8.99-2.5,13.41c-0.39,1.62-0.84,3.22-1.31,4.82
			c-0.36,1.26-0.9,2.45-1.61,3.56c-0.49,0.77-1.07,1.46-1.81,1.98c-1.69,1.2-3.48,1.43-5.33,0.38c-0.66-0.37-1.28-0.85-1.86-1.34
			c-1.17-1-2.14-2.19-3.04-3.43c-2.2-3.01-3.77-6.34-5.01-9.84c-1.61-4.52-2.71-9.16-3.18-13.93c-0.22-2.19-0.33-4.41-0.32-6.61
			c0.02-4.6,0.13-9.19,0.23-13.79c0.09-4.06,0.23-8.11,0.31-12.16c0.03-1.58,0.01-3.16-0.05-4.73c-0.07-1.95-0.46-3.84-1.11-5.68
			c-0.8-2.25-1.37-2.74-3.73-3.16c-0.66-0.12-1.34-0.17-2.08-0.26c-0.04,0.28-0.12,0.54-0.1,0.79c0.1,1.44,0.24,2.87,0.34,4.31
			c0.34,4.77,0.3,9.54,0.02,14.32c-0.51,8.39-1.93,16.64-3.87,24.8c-0.73,3.07-1.69,6.07-3.02,8.94c-1.11,2.38-2.46,4.61-4.3,6.51
			c-1.92,1.98-4.15,3.45-6.86,4.11c-2.54,0.62-5,0.4-7.38-0.73c-1.23-0.58-2.35-1.33-3.4-2.19c-2.55-2.06-4.64-4.52-6.47-7.23
			c-2.77-4.1-4.75-8.58-6.28-13.27c-2.27-6.97-3.29-14.11-2.86-21.44c0.21-3.53,0.9-6.96,2.16-10.27c0.68-1.78,1.56-3.44,2.74-4.94
			c1.33-1.69,2.93-3.06,4.9-3.95c1.9-0.86,3.86-1.2,5.92-0.67c1.48,0.38,2.73,1.15,3.86,2.14c2.13,1.87,3.8,4.09,4.97,6.67
			c1.26,2.77,2.05,5.67,2.41,8.69c0.07,0.62,0.09,1.26,0.04,1.89c-0.07,0.97-0.84,1.64-1.81,1.64c-0.59,0-1.06-0.27-1.3-0.81
			c-0.25-0.58-0.45-1.18-0.63-1.78c-0.61-2.03-1.3-4.03-2.17-5.96c-0.95-2.11-2.12-4.08-3.71-5.77c-0.99-1.05-2.04-2.04-3.42-2.61
			c-0.67,0.14-1.07,0.63-1.47,1.11c-0.64,0.77-1.07,1.67-1.43,2.59c-0.89,2.29-1.37,4.66-1.6,7.09c-0.73,7.73,0.19,15.29,2.29,22.73
			c0.93,3.3,2.03,6.54,3.42,9.67c1.17,2.65,2.6,5.15,4.36,7.45c0.74,0.96,1.56,1.87,2.38,2.76c0.39,0.43,0.85,0.8,1.31,1.16
			c2.2,1.73,4.4,1.48,6.37-0.25c1.31-1.14,2.27-2.56,3.08-4.08c1.06-2,1.85-4.11,2.48-6.27c1.02-3.51,1.78-7.08,2.44-10.66
			c0.64-3.5,1.23-7.01,1.77-10.53c0.3-1.96,0.46-3.94,0.62-5.91c0.4-5.13,0.33-10.27,0-15.4c-0.07-1.08-0.17-2.16-0.28-3.23
			c-0.05-0.53-0.15-1.06-0.23-1.57c-0.63-0.29-1.22-0.19-1.8-0.21c-2.94-0.12-5.84-0.46-8.64-1.38c-4-1.31-7.2-3.67-9.43-7.27
			c-1.36-2.19-2.1-4.57-2.02-7.18c0.15-4.63,3.6-8.69,8.15-9.5c1.81-0.32,3.59-0.1,5.3,0.59c1.7,0.69,3.16,1.71,4.46,2.99
			c1.52,1.5,2.71,3.25,3.72,5.13c1.64,3.04,2.7,6.28,3.5,9.62c0.21,0.88,0.37,1.76,0.56,2.64c0.05,0.21,0.12,0.42,0.2,0.67
			c0.35,0.02,0.66,0.05,0.96,0.06c1.58,0.04,3.16,0.04,4.73,0.12c0.94,0.05,1.89,0.17,2.81,0.38c2.97,0.68,5.18,2.42,6.75,5.02
			c0.97,1.61,1.52,3.37,1.81,5.2c0.17,1.11,0.32,2.24,0.31,3.36c0,3.11-0.05,6.22-0.14,9.33c-0.23,8.11-0.69,16.21-0.36,24.33
			c0.25,6.23,0.98,12.39,2.66,18.42c0.67,2.39,1.47,4.74,2.73,6.89c0.39,0.66,0.86,1.26,1.31,1.88c0.12,0.17,0.33,0.27,0.57,0.46
			c0.22-0.32,0.41-0.55,0.55-0.82c0.58-1.07,0.99-2.22,1.33-3.39c1.27-4.33,2.21-8.73,2.95-13.18c0.46-2.75,0.82-5.52,1.26-8.28
			c0.09-0.57,0-1.05-0.26-1.56c-2.69-5.43-4.2-11.2-4.82-17.21c-0.56-5.46-0.36-10.89,0.87-16.26c0.83-3.62,2.17-7.06,4.06-10.26
			c0.83-1.4,1.8-2.7,2.99-3.82c1.81-1.71,3.89-2.88,6.38-3.29c2.94-0.49,5.56,0.23,7.84,2.07c0.94,0.76,1.78,1.66,2.57,2.58
			c0.79,0.92,1.46,1.95,2.18,2.93c0.21,0.28,0.41,0.56,0.72,0.97c0.29-0.35,0.49-0.65,0.74-0.9c1.01-0.99,2.25-1.29,3.61-1.05
			c1,0.17,1.78,0.73,2.11,1.7c0.28,0.8,0.47,1.65,0.57,2.49c0.26,2.29,0.25,4.59,0.17,6.89c-0.2,5.86-0.3,11.72-0.12,17.57
			c0.22,7.03,0.85,14.03,2.16,20.95c0.59,3.1,1.37,6.16,2.63,9.06c0.38,0.87,0.83,1.7,1.27,2.53c0.14,0.26,0.37,0.47,0.55,0.68
			c0.46-0.13,0.49-0.49,0.56-0.77c0.4-1.48,0.84-2.95,1.12-4.45c0.82-4.38,1.43-8.8,1.97-13.23c0.42-3.44,0.85-6.89,1.22-10.33
			c0.34-3.14,0.6-6.28,0.92-9.42c0.08-0.75-0.07-1.39-0.44-2.05c-1.73-3.1-2.75-6.45-3.34-9.94c-1.27-7.42-0.32-14.63,2.03-21.71
			c0.32-0.98,0.75-1.93,1.23-2.85c0.31-0.59,0.73-1.15,1.22-1.6c1.17-1.06,2.55-1.27,4.03-0.74c0.98,0.36,1.57,1.06,1.56,2.14
			c-0.02,1.4-0.05,2.79-0.16,4.18c-0.27,3.41-0.67,6.82-0.87,10.24c-0.3,5.25,0.15,10.44,1.5,15.54c0.5,1.88,1.17,3.69,2.16,5.37
			c0.23,0.39,0.5,0.75,0.76,1.12c0.18,0.26,0.38,0.5,0.59,0.79c0.35-0.24,0.61-0.34,0.77-0.53c0.65-0.8,1.33-1.59,1.89-2.46
			c1.6-2.48,2.69-5.2,3.57-8c1.26-4,2.2-8.08,2.97-12.2c0.68-3.59,1.15-7.21,1.56-10.83c0.11-0.94,0.21-1.88,0.27-2.83
			c0.15-2.4,1.83-3.69,3.86-4.07c2.53-0.48,4.73,0.19,6.46,2.18c0.77,0.89,1.36,1.9,1.88,2.96c1.27,2.6,2.19,5.33,3,8.1
			c1.44,4.89,2.49,9.87,3.3,14.89c0.78,4.81,1.31,9.64,1.61,14.5c0.01,0.22,0.06,0.43,0.1,0.74c0.35-0.11,0.66-0.17,0.93-0.3
			c2.01-0.94,3.58-2.4,4.88-4.17c1.15-1.57,2.01-3.31,2.71-5.12c1.82-4.77,2.74-9.7,2.74-14.8c0-0.99-0.02-1.98-0.01-2.97
			c0-0.36,0-0.73,0.05-1.08c0.17-1.04,1.1-1.73,2.15-1.62c0.72,0.07,1.17,0.42,1.34,1.13c0.11,0.48,0.18,0.98,0.2,1.47
			c0.31,6.77-0.94,13.28-3.44,19.54c-0.52,1.29-1.19,2.53-1.9,3.72c-1.87,3.15-4.55,5.43-7.84,7.02c-0.49,0.23-0.98,0.46-1.47,0.69
			c-0.04,0.02-0.06,0.07-0.15,0.18c-0.01,0.31-0.05,0.71-0.04,1.11c0.04,3.34-0.02,6.67-0.27,10c-0.41,5.42-1.35,10.72-3.22,15.84
			c-0.68,1.87-1.5,3.67-2.6,5.33c-1.66,2.53-3.76,4.61-6.5,5.97c-2.72,1.35-5.56,1.77-8.52,0.92c-1.64-0.47-3.08-1.29-4.29-2.47
			c-0.8-0.79-1.58-1.62-2.22-2.54c-2.77-3.99-4.29-8.41-4.31-13.29c-0.04-6.68,2.78-12,7.95-16.12c2.2-1.76,4.67-3.07,7.33-3.99
			c1.78-0.62,3.62-1.09,5.43-1.62C280.46,246.78,280.9,246.69,281.48,246.54z M219.48,268.13c0.44-0.38,0.67-0.88,0.88-1.37
			c0.49-1.16,0.99-2.32,1.39-3.51c2.24-6.57,4.01-13.27,5.57-20.03c0.12-0.52,0.16-1.07,0.18-1.61c0.08-2.7,0.12-5.41,0.22-8.11
			c0.11-2.79,0.26-5.58,0.73-8.34c0.1-0.57,0-1.04-0.33-1.52c-1.3-1.9-2.63-3.77-4.21-5.45c-0.65-0.69-1.32-1.35-2.05-1.96
			c-0.48-0.4-1.05-0.69-1.59-1c-0.66-0.37-1.33-0.28-1.9,0.18c-0.52,0.43-1,0.91-1.42,1.43c-0.98,1.25-1.64,2.69-2.23,4.15
			c-1.87,4.6-2.75,9.41-2.98,14.35c-0.24,5.14,0,10.27,0.82,15.36c0.63,3.88,1.61,7.66,3.09,11.31c0.68,1.67,1.46,3.3,2.52,4.77
			C218.54,267.28,218.87,267.82,219.48,268.13z M281.53,250.34c-0.16-0.02-0.25-0.06-0.32-0.05c-3,0.69-5.87,1.7-8.51,3.32
			c-2.22,1.36-4.06,3.12-5.47,5.32c-4.3,6.69-2.56,15.1,1.89,19.9c0.71,0.77,1.51,1.43,2.45,1.88c0.52,0.25,1.09,0.43,1.65,0.55
			c0.85,0.19,1.61-0.04,2.16-0.76c0.44-0.57,0.89-1.13,1.28-1.74c0.92-1.45,1.64-2.99,2.21-4.62c1.26-3.59,1.92-7.3,2.37-11.06
			c0.41-3.49,0.45-7,0.46-10.51c0-0.54-0.02-1.08-0.05-1.62C281.63,250.74,281.56,250.53,281.53,250.34z M172.74,213.46
			c-0.01-0.23,0-0.45-0.04-0.67c-0.24-1.15-0.46-2.3-0.74-3.43c-0.74-2.98-1.71-5.88-3.21-8.58c-0.77-1.38-1.66-2.68-2.79-3.8
			c-0.9-0.9-1.91-1.64-3.11-2.11c-1.57-0.61-3-0.38-4.31,0.66c-1.05,0.83-1.8,1.88-2.24,3.15c-0.56,1.63-0.59,3.28-0.1,4.92
			c1.23,4.09,3.86,6.97,7.78,8.63c2.66,1.12,5.48,1.39,8.34,1.37C172.45,213.59,172.57,213.52,172.74,213.46z"/>
		<g>
			<path d="M271.49,146.25c0.4-0.32,0.62-0.47,0.81-0.65c0.59-0.56,1.14-1.16,1.77-1.67c0.72-0.59,0.96-1.31,1-2.23
				c0.07-1.48,0.28-2.96,0.47-4.43c0.12-0.94,0.43-1.84,0.86-2.69c0.7-1.37,1.86-2.07,3.36-2.15c1.47-0.08,2.63,0.5,3.33,1.86
				c0.69,1.35,0.94,2.82,1.07,4.3c0.19,2.2,0.28,4.41,0.19,6.62c-0.19,4.46-0.21,8.92,0.13,13.38c0.46,6.02,1.06,12.03,2.42,17.93
				c0.46,1.98,1.06,3.91,1.91,5.76c0.37,0.81,0.75,1.63,1.47,2.34c0.19-0.26,0.4-0.44,0.49-0.66c0.49-1.26,1.03-2.5,1.42-3.79
				c1.47-4.78,2.66-9.64,3.73-14.52c0.09-0.43,0.1-0.89,0.05-1.33c-0.47-4.08-0.77-8.17-0.75-12.27c0.01-1.89,0.02-3.79,0.33-5.66
				c0.15-0.89,0.33-1.77,0.61-2.63c0.38-1.15,1.12-2.05,2.19-2.64c2.28-1.26,4.75-0.29,5.54,2.18c0.36,1.12,0.45,2.3,0.52,3.47
				c0.12,2.07,0.18,4.14,0.31,6.21c0.18,2.79,0.34,5.58,0.62,8.36c0.5,4.94,1.49,9.79,2.99,14.53c0.72,2.28,1.42,4.56,2.37,6.75
				c0.59,1.37,1.25,2.7,2.13,3.91c0.18,0.24,0.41,0.44,0.68,0.72c0.55-1.27,0.74-2.51,0.94-3.75c0.83-5.23,0.97-10.49,0.88-15.77
				c-0.08-4.65-0.51-9.27-1.07-13.88c-0.76-6.18-1.85-12.29-3.3-18.34c-0.73-3.02-1.57-6.01-2.68-8.92
				c-0.16-0.42-0.34-0.83-0.53-1.29c-0.33-0.02-0.63-0.07-0.94-0.06c-1.98,0.07-3.96,0.16-5.94,0.23c-4.15,0.15-8.29,0-12.39-0.73
				c-1.91-0.34-3.78-0.82-5.57-1.6c-1.16-0.51-2.25-1.14-3.2-1.99c-2.52-2.26-3.15-5.43-1.68-8.48c0.68-1.41,1.68-2.56,2.89-3.53
				c1.88-1.49,4.03-2.38,6.37-2.79c5.51-0.98,10.45,0.39,14.86,3.76c2.28,1.74,4.17,3.85,5.8,6.2c0.82,1.18,1.53,2.44,2.29,3.67
				c0.21,0.34,0.4,0.69,0.63,1.07c0.33,0,0.64,0.01,0.95,0c2.12-0.1,4.23-0.24,6.35-0.3c2.39-0.07,4.77,0.11,7.1,0.74
				c2.17,0.59,4.09,1.62,5.78,3.11c1.81,1.6,2.98,3.6,3.7,5.87c0.6,1.9,0.91,3.86,1.09,5.83c0.38,4.23,0.31,8.46,0.2,12.7
				c-0.07,2.57-0.14,5.14-0.23,7.7c-0.22,6.35-0.35,12.71-0.18,19.06c0.12,4.33,0.62,8.63,1.58,12.86c0.35,1.54,0.86,3.03,1.64,4.42
				c0.42,0.75,0.89,1.46,1.72,1.95c0.21-0.25,0.44-0.46,0.6-0.71c0.67-1.08,1.07-2.28,1.41-3.5c0.69-2.48,1.17-5,1.4-7.56
				c0.29-3.23,0.56-6.46,0.84-9.69c0.02-0.22,0.04-0.45,0.08-0.67c0.22-1.5,1.55-2.05,2.66-1.91c0.72,0.09,1.15,0.49,1.26,1.2
				c0.04,0.27,0.04,0.54,0.04,0.81c-0.12,5.05-0.29,10.09-1.08,15.09c-0.29,1.83-0.73,3.62-1.38,5.36
				c-0.39,1.06-0.89,2.07-1.56,2.98c-2.36,3.17-6.17,3.89-9.38,2.21c-1.47-0.77-2.67-1.84-3.72-3.08c-2.01-2.38-3.31-5.14-4.26-8.08
				c-0.73-2.29-1.14-4.64-1.3-7.03c-0.16-2.38-0.26-4.77-0.3-7.16c-0.11-7.84,0.13-15.68,0.35-23.52c0.1-3.56,0.22-7.12,0.08-10.68
				c-0.09-2.34-0.21-4.68-0.72-6.98c-0.28-1.28-0.68-2.52-1.29-3.69c-0.89-1.71-2.28-2.76-4.18-3.1c-0.75-0.14-1.51-0.23-2.28-0.28
				c-1.66-0.11-3.32-0.07-5.07-0.01c0.08,0.36,0.1,0.62,0.19,0.86c2.16,5.66,3.47,11.55,4.54,17.5c0.77,4.3,1.36,8.63,1.78,12.98
				c0.71,7.28,1.03,14.57,0.58,21.87c-0.16,2.61-0.43,5.21-1.05,7.76c-0.3,1.23-0.71,2.42-1.31,3.54c-0.54,1.01-1.26,1.87-2.23,2.49
				c-1.76,1.11-3.61,1.29-5.54,0.44c-1.17-0.52-2.14-1.33-3.08-2.18c-3.51-3.19-6-7.05-7.55-11.52c-0.41-1.19-0.73-2.41-1.1-3.62
				c-0.06-0.2-0.15-0.39-0.22-0.56c-0.34,0.04-0.3,0.26-0.34,0.41c-0.63,2.4-1.24,4.8-1.88,7.19c-0.32,1.22-0.75,2.41-1.34,3.53
				c-0.4,0.76-0.89,1.46-1.53,2.04c-1.87,1.71-4.47,1.91-6.49,0.62c-1.04-0.66-1.93-1.48-2.74-2.39c-1.29-1.46-2.35-3.08-3.27-4.79
				c-1.61-3-2.72-6.18-3.54-9.47c-0.92-3.68-1.41-7.43-1.69-11.21c-0.27-3.65-0.32-7.29-0.25-10.94c0.01-0.4,0-0.8,0-1.29
				c-0.68,0.14-1.02,0.66-1.49,0.96c-0.45,0.29-0.88,0.62-1.37,0.97c0,0.35-0.02,0.7,0,1.05c0.36,5.6,0.15,11.17-0.68,16.72
				c-0.59,3.93-1.52,7.78-2.9,11.51c-0.67,1.82-1.48,3.58-2.51,5.23c-0.65,1.03-1.39,2-2.29,2.83c-3.69,3.46-8.89,3.63-12.8,0.42
				c-1.44-1.19-2.59-2.63-3.56-4.21c-1.96-3.19-3.14-6.67-3.75-10.35c-0.71-4.33-0.93-8.69-0.68-13.07c0.01-0.25-0.04-0.5-0.07-0.86
				c-1.98,0.9-3.85,1.75-5.78,2.62c-0.07,1.4-0.14,2.79-0.21,4.18c-0.14,3.12-0.61,6.18-1.39,9.2c-0.79,3.08-2,5.98-3.82,8.6
				c-1.67,2.4-3.73,4.39-6.27,5.86c-1.98,1.14-4.1,1.84-6.38,2.05c-1.83,0.17-3.59-0.15-5.28-0.86c-1.77-0.74-3.32-1.8-4.69-3.14
				c-2.08-2.04-3.2-4.55-3.58-7.4c-0.62-4.63,0.88-8.52,4.2-11.75c1.96-1.91,4.29-3.28,6.81-4.31c2.8-1.15,5.73-1.86,8.7-2.43
				c0.7-0.14,1.4-0.27,2.16-0.42c0.02-0.41,0.08-0.76,0.06-1.11c-0.37-6.39-1.14-12.74-2.25-19.25c-0.21,0.34-0.35,0.49-0.42,0.68
				c-0.48,1.31-0.89,2.65-1.41,3.94c-0.72,1.76-1.72,3.37-2.97,4.81c-1.38,1.6-3.03,2.84-5.07,3.47c-2.82,0.87-5.52,0.52-8.08-0.94
				c-1.67-0.95-3.05-2.24-4.24-3.73c-2.18-2.72-3.57-5.83-4.5-9.16c-1.04-3.73-1.35-7.53-1.08-11.38c0.1-1.35,0.32-2.69,0.75-3.97
				c0.17-0.51,0.37-1.02,0.65-1.48c0.98-1.59,3.13-2.31,4.87-1.66c0.92,0.34,1.49,1.03,1.73,1.94c0.26,1,0.48,2.02,0.62,3.04
				c0.39,2.72,0.69,5.45,1.09,8.17c0.39,2.63,1,5.22,1.88,7.73c0.59,1.67,1.31,3.26,2.39,4.67c0.46,0.6,0.97,1.19,1.55,1.68
				c1.05,0.89,1.85,0.85,2.9,0c0.78-0.63,1.37-1.43,1.9-2.27c1.01-1.61,1.76-3.34,2.36-5.14c0.91-2.7,1.43-5.49,1.87-8.29
				c0.38-2.36,0.7-4.73,0.48-7.13c-0.09-1.04,0.37-1.83,1.15-2.46c1.78-1.43,5.72-1.87,7.52,1.35c0.48,0.86,0.87,1.79,1.11,2.74
				c0.69,2.8,1.32,5.61,1.91,8.43c0.96,4.59,1.6,9.23,2.08,13.89c0.26,2.51,0.43,5.03,0.64,7.54c0.03,0.31,0.06,0.61,0.09,1
				c0.32-0.08,0.57-0.13,0.81-0.22c1.99-0.74,4.1-1.78,5.38-2.66c0.26-2.26,0.53-4.58,0.81-6.97c-0.24-0.2-0.48-0.4-0.71-0.61
				c-3.18-3.01-4.88-6.73-5.37-11.06c-0.32-2.83-0.06-5.58,0.87-8.26c0.7-2.02,1.74-3.87,3.24-5.41c3.43-3.5,7.56-4.52,12.27-3.3
				c1.85,0.48,3.51,1.39,5.08,2.47c4.35,3.02,7.4,7.07,9.44,11.91c1.36,3.22,2.18,6.58,2.7,10.02
				C271.28,145.14,271.37,145.57,271.49,146.25z M266.76,149.02c-0.44-5.11-1.42-10.03-3.48-14.69c-0.81-1.82-1.79-3.53-2.97-5.13
				c-1.21-1.64-2.6-3.11-4.24-4.33c-1.05-0.78-2.18-1.44-3.44-1.83c-2.55-0.79-4.79-0.26-6.73,1.57c-0.96,0.91-1.67,2.01-2.23,3.19
				c-1.07,2.24-1.5,4.61-1.4,7.08c0.12,3.22,0.96,6.21,2.8,8.89c0.17,0.25,0.39,0.46,0.62,0.72c0.27-0.19,0.49-0.34,0.71-0.49
				c1.09-0.75,2.29-1.01,3.59-0.89c1.91,0.17,3.04,1.34,3.11,3.25c0.03,0.67-0.02,1.35-0.02,2.03c0,0.4,0,0.8,0,1.16
				C256.52,151.22,262.93,150.91,266.76,149.02z M252.88,153.45c-0.3,0.53-0.26,0.99-0.29,1.43c-0.08,1.08-0.14,2.16-0.2,3.23
				c-0.35,5.74-0.12,11.43,1.28,17.03c0.56,2.23,1.15,4.45,2.26,6.48c0.45,0.82,1,1.6,1.56,2.35c0.38,0.5,0.88,0.89,1.56,1.04
				c0.57-0.2,0.99-0.61,1.33-1.08c0.66-0.91,1.31-1.83,1.86-2.8c0.84-1.49,1.42-3.11,1.95-4.74c1.24-3.87,2.05-7.83,2.48-11.87
				c0.38-3.63,0.53-7.27,0.4-10.92c-0.01-0.34,0.09-0.73-0.37-1.06c-2.16,0.71-4.42,1.27-6.76,1.39
				C257.6,154.06,255.26,153.99,252.88,153.45z M227.09,165.18c-0.35,0.05-0.65,0.07-0.96,0.13c-2.16,0.43-4.3,0.95-6.39,1.68
				c-1.49,0.52-2.92,1.16-4.24,2.05c-1.56,1.05-2.83,2.36-3.74,4.02c-2.85,5.22-0.04,11.59,5.72,13.04c1.38,0.35,2.6,0.1,3.65-0.83
				c0.5-0.44,0.99-0.93,1.37-1.48c0.52-0.73,1-1.51,1.37-2.32c2.31-4.98,3.3-10.26,3.32-15.73
				C227.2,165.57,227.14,165.4,227.09,165.18z M305.89,121.43c-0.19-0.46-0.28-0.75-0.42-1.01c-1.08-1.98-2.3-3.87-3.8-5.57
				c-0.8-0.91-1.66-1.79-2.57-2.58c-2.16-1.86-4.63-3.1-7.52-3.36c-2.36-0.21-4.57,0.25-6.59,1.52c-1.13,0.71-2.04,1.64-2.63,2.84
				c-0.55,1.13-0.76,2.3-0.35,3.53c0.38,1.13,1.14,1.92,2.13,2.52c1.09,0.66,2.28,1.06,3.51,1.36c2.06,0.51,4.16,0.73,6.27,0.91
				C297.86,121.91,301.76,121.58,305.89,121.43z"/>
			<path d="M123.44,163.05c-0.03,0.39-0.05,0.66-0.06,0.92c-0.07,2.84-0.07,5.68-0.22,8.51c-0.25,4.88-0.96,9.68-2.65,14.3
				c-0.92,2.51-2.11,4.88-3.65,7.06c-0.89,1.26-1.89,2.41-3.05,3.42c-2.35,2.06-5.09,3.22-8.21,3.41c-3.16,0.19-5.86-0.85-7.91-3.32
				c-2.06-2.49-3.3-5.37-3.7-8.57c-0.64-5.17,0.72-9.83,3.89-13.94c2.61-3.4,5.83-6.12,9.42-8.43c1.63-1.05,3.34-1.96,5.1-2.77
				c0.4-0.19,0.79-0.4,1.21-0.61c-0.1-4.78-0.42-9.49-0.78-14.21c-0.01-0.12-0.1-0.23-0.21-0.49c-0.19,0.38-0.34,0.63-0.44,0.9
				c-0.49,1.31-0.96,2.62-1.47,3.92c-0.63,1.64-1.39,3.22-2.4,4.68c-1.64,2.38-3.87,3.88-6.71,4.39c-2.36,0.42-4.67,0.19-6.87-0.83
				c-2.46-1.14-4.47-2.85-6.12-4.99c-1.75-2.28-2.93-4.85-3.8-7.57c-1.26-3.94-1.84-7.99-1.6-12.13c0.26-4.52,1.43-8.79,3.59-12.77
				c1.24-2.28,2.81-4.3,4.86-5.91c1.91-1.5,4.01-2.55,6.47-2.82c2.5-0.28,4.83,0.26,7.07,1.32c1.78,0.84,3.27,2.06,4.67,3.42
				c0.35,0.34,0.7,0.69,1.02,1c0.43,0.03,0.46-0.32,0.59-0.52c1.01-1.53,2.48-2.02,4.21-1.87c1.67,0.15,2.82,1.05,3.48,2.61
				c0.57,1.34,0.83,2.76,1,4.19c0.64,5.32,1.31,10.64,1.83,15.98c0.41,4.17,0.64,8.36,0.93,12.53c0.13,1.88,0.22,3.77,0.33,5.73
				c1.02-0.07,1.94-0.37,2.85-0.77c0-0.25,0.02-0.48,0-0.7c-0.12-1.44-0.31-2.87-0.36-4.31c-0.18-5.77,0.47-11.43,2.56-16.85
				c1.09-2.84,2.6-5.45,4.65-7.71c2.08-2.3,4.57-3.91,7.62-4.62c2.76-0.64,5.45-0.53,8.08,0.57c2.09,0.87,3.76,2.3,5.15,4.06
				c2.32,2.93,3.63,6.25,3.38,10.01c-0.38,5.88-2.92,10.61-7.87,13.94c-1.91,1.29-3.98,2.29-6.1,3.17
				c-2.04,0.84-4.11,1.59-6.17,2.38c-0.33,0.13-0.67,0.25-0.99,0.36c-0.25,0.55,0.01,1.02,0.09,1.49c0.53,3.12,1.43,6.14,2.74,9.02
				c1.01,2.22,2.25,4.31,3.77,6.23c1.04,1.31,2.2,2.51,3.57,3.48c1.64,1.17,2.34,1.1,3.74-0.32c0.87-0.87,1.56-1.87,2.12-2.96
				c1.12-2.21,2.25-4.41,3.27-6.67c2.26-5.01,4.15-10.17,5.88-15.39c0.3-0.91,0.43-1.82,0.38-2.78c-0.2-4.28-0.37-8.56-0.25-12.84
				c0.13-4.59,0.25-9.19,0.67-13.77c0.02-0.17,0-0.35,0-0.54c-0.38-0.35-0.84-0.37-1.28-0.39c-1.08-0.04-2.16-0.05-3.24-0.06
				c-0.5-0.01-1,0.06-1.49,0c-0.39-0.04-0.8-0.15-1.15-0.33c-0.51-0.27-0.62-0.98-0.21-1.39c0.31-0.31,0.71-0.55,1.11-0.73
				c0.95-0.43,1.96-0.67,3-0.75c1.17-0.08,2.34-0.1,3.61-0.15c0.07-0.23,0.2-0.51,0.25-0.81c0.27-1.56,0.6-3.1,1.15-4.58
				c0.34-0.93,0.73-1.85,1.34-2.64c0.72-0.92,1.62-1.56,2.85-1.58c1.04-0.02,1.83,0.4,2.37,1.29c0.55,0.9,0.77,1.91,0.97,2.93
				c0.3,1.56,0.29,3.14,0.28,4.72c0,0.81,0,1.62,0,2.46c0.73,0.47,1.55,0.5,2.33,0.65c1.73,0.35,3.46,0.59,5.22,0.17
				c0.97-0.23,1.89-0.59,2.79-1c0.57-0.26,1.14-0.55,1.74-0.72c0.51-0.14,1.06-0.19,1.59-0.18c0.3,0,0.62,0.14,0.88,0.29
				c0.71,0.42,0.85,1.21,0.3,1.84c-0.29,0.33-0.66,0.62-1.04,0.84c-3.76,2.19-7.82,2.87-12.11,2.29c-0.57-0.08-1.14-0.24-1.78-0.1
				c-0.05,0.27-0.12,0.53-0.13,0.79c-0.11,5.63-0.43,11.26-0.3,16.9c0.12,5.23,0.41,10.44,0.95,15.65c0.51,4.89,1.2,9.74,2.23,14.55
				c0.67,3.13,1.52,6.21,2.72,9.19c0.73,1.8,1.63,3.51,2.75,5.1c0.73,1.04,1.58,1.98,2.65,2.67c0.48,0.32,1.03,0.56,1.58,0.74
				c0.65,0.21,1.27,0.05,1.67-0.55c0.47-0.71,0.95-1.43,1.32-2.19c0.81-1.67,1.25-3.47,1.64-5.28c0.42-1.94,0.65-3.91,0.76-5.89
				c0.18-3.15,0.29-6.3,0.17-9.46c-0.11-2.88-0.19-5.77-0.27-8.65c-0.01-0.45,0.07-0.9,0.08-1.35c0.01-1.1,1.34-2.04,2.75-1.63
				c0.4,0.12,0.72,0.4,0.82,0.83c0.12,0.48,0.24,0.97,0.27,1.46c0.43,5.85,0.52,11.71,0.24,17.56c-0.18,3.78-0.67,7.54-1.82,11.17
				c-0.4,1.25-0.87,2.46-1.52,3.6c-2.25,3.92-6.29,5.37-10.55,3.79c-1.85-0.69-3.42-1.79-4.83-3.15c-1.11-1.07-2.07-2.26-2.96-3.51
				c-1.99-2.81-3.5-5.88-4.77-9.07c-1.73-4.37-2.91-8.9-3.78-13.51c-0.19-1.01-0.37-2.03-0.57-3.14c-0.39,0.27-0.45,0.62-0.57,0.93
				c-1.39,3.81-2.89,7.57-4.6,11.25c-0.49,1.06-1.01,2.12-1.56,3.15c-0.84,1.56-1.91,2.95-3.27,4.1c-2.09,1.77-4.46,2.66-7.23,2.36
				c-1.14-0.12-2.19-0.5-3.21-1c-1.71-0.84-3.23-1.96-4.67-3.2c-4.26-3.68-7.24-8.23-9.21-13.47c-0.44-1.18-0.78-2.4-1.17-3.59
				c-0.12-0.38-0.24-0.76-0.38-1.19C125.64,162.29,124.6,162.69,123.44,163.05z M92.31,137.67c-0.03,3.46,0.48,6.92,1.44,10.32
				c0.53,1.87,1.17,3.69,2.13,5.39c0.85,1.51,1.93,2.83,3.36,3.83c1.32,0.93,2.47,0.91,3.7-0.15c0.67-0.58,1.27-1.28,1.81-2
				c1.13-1.53,1.98-3.22,2.75-4.95c1.49-3.38,2.78-6.84,4.03-10.31c0.31-0.87,0.41-1.73,0.32-2.65c-0.32-3.14-0.6-6.28-0.88-9.42
				c-0.05-0.51-0.2-0.95-0.51-1.37c-1.54-2.07-3.28-3.96-5.39-5.46c-0.62-0.44-1.28-0.85-1.98-1.15c-0.61-0.26-1.28-0.41-1.94-0.52
				c-0.88-0.15-1.69,0.09-2.42,0.61c-1.01,0.72-1.83,1.61-2.47,2.65c-0.54,0.88-1.04,1.79-1.47,2.73
				C92.99,129.16,92.24,133.3,92.31,137.67z M135.63,155.94c0.42-0.1,0.68-0.14,0.93-0.23c1.65-0.59,3.31-1.16,4.94-1.8
				c1.8-0.71,3.54-1.57,5.17-2.63c2.72-1.77,4.5-4.23,5.45-7.32c0.51-1.65,0.7-3.35,0.63-5.07c-0.12-3.1-1.29-5.77-3.38-8.04
				c-0.68-0.73-1.45-1.35-2.34-1.8c-1.3-0.66-2.59-0.64-3.9-0.01c-0.7,0.34-1.32,0.79-1.8,1.4c-0.58,0.74-1.18,1.49-1.62,2.32
				c-0.67,1.27-1.31,2.57-1.8,3.92c-2.15,5.93-2.74,12.09-2.45,18.35C135.48,155.29,135.56,155.54,135.63,155.94z M113.65,166.81
				c-0.57,0.28-0.98,0.46-1.36,0.67c-3.1,1.71-5.87,3.86-8.32,6.41c-1.1,1.14-2.1,2.36-2.94,3.69c-1.76,2.78-2.63,5.82-2.45,9.12
				c0.15,2.8,1.17,5.25,2.99,7.37c0.53,0.62,1.15,1.14,1.88,1.52c1.6,0.84,3.32,0.64,4.6-0.63c0.63-0.63,1.18-1.37,1.67-2.11
				c0.96-1.43,1.59-3.02,2.13-4.65c1.2-3.63,1.67-7.38,1.83-11.17c0.12-3.1,0.04-6.22,0.05-9.33
				C113.73,167.48,113.7,167.26,113.65,166.81z"/>
		</g>
		<g>
			<path d="M211.69,338.24c0.19-1.56,0.37-3.13,0.56-4.69c0.79-6.63,2.14-13.15,3.98-19.57c1.2-4.16,2.62-8.24,4.43-12.18
				c1-2.17,2.12-4.28,3.51-6.23c0.81-1.14,1.7-2.21,2.73-3.17c1.51-1.4,3.28-2.25,5.33-2.36c2.66-0.13,4.95,0.76,6.72,2.83
				c0.74,0.87,1.27,1.86,1.71,2.9c0.8,1.88,1.28,3.85,1.62,5.85c0.64,3.74,1,7.5,1.12,11.29c0.15,4.55,0.2,9.1,0.32,13.65
				c0.13,4.69,0.41,9.36,0.95,14.02c0.29,2.51,0.53,5.02,0.9,7.51c0.4,2.77,1.03,5.49,2.13,8.08c0.57,1.33,1.21,2.62,2.12,3.75
				c0.42,0.52,0.89,1.02,1.42,1.44c0.72,0.57,1.41,0.74,2.42-0.17c0.46-0.41,0.8-0.98,1.11-1.52c0.75-1.29,1.23-2.7,1.62-4.14
				c0.64-2.31,1.01-4.67,1.26-7.04c0.49-4.57,0.7-9.16,0.52-13.77c-0.08-2.03-0.17-4.05-0.19-6.08c-0.01-0.71,0.15-1.43,0.24-2.14
				c0.12-0.98,1.77-1.67,2.62-1.23c0.34,0.17,0.58,0.4,0.75,0.74c0.29,0.57,0.44,1.17,0.5,1.81c0.3,2.96,0.36,5.94,0.36,8.91
				c-0.01,3.29-0.08,6.58-0.42,9.86c-0.33,3.14-0.77,6.26-1.59,9.31c-0.42,1.57-0.98,3.09-1.69,4.55c-1.58,3.26-4.23,5.06-7.75,5.65
				c-1.37,0.23-2.69-0.02-3.96-0.56c-1.31-0.55-2.41-1.39-3.42-2.38c-1.4-1.36-2.5-2.95-3.44-4.66c-1.01-1.82-1.79-3.74-2.43-5.71
				c-1.62-4.94-2.59-10.02-3.05-15.2c-0.57-6.38-0.61-12.78-0.8-19.17c-0.14-4.87-0.44-9.72-1.09-14.55
				c-0.26-1.92-0.58-3.83-1.23-5.67c-0.12-0.34-0.26-0.67-0.43-1.1c-0.26,0.17-0.49,0.27-0.66,0.44c-1.19,1.18-2.16,2.54-3.03,3.96
				c-1.72,2.82-3.04,5.83-4.19,8.91c-2,5.37-3.44,10.9-4.47,16.54c-1.69,9.17-2.13,18.43-1.73,27.73c0.08,1.94,0.15,3.87,0.17,5.81
				c0.02,2.02-0.95,3.43-2.86,4.12c-1.93,0.7-3.22,0.12-4.05-1.15c-0.57-0.87-1.1-1.76-1.57-2.68c-2.94-5.68-4.93-11.69-6.2-17.94
				c-1.22-6.01-2.05-12.08-2.49-18.19c-0.1-1.43-0.21-2.87-0.33-4.41c-0.25,0.07-0.46,0.1-0.63,0.2c-1.27,0.77-2.52,1.56-3.79,2.36
				c-0.23,0.43-0.08,0.88-0.02,1.31c0.8,5.19,0.98,10.41,0.74,15.64c-0.25,5.51-1.07,10.93-2.94,16.16
				c-0.7,1.96-1.54,3.85-2.72,5.57c-1.6,2.33-3.68,4.05-6.37,5.01c-3.04,1.08-6.02,0.91-8.93-0.46c-1.94-0.91-3.61-2.2-5.13-3.7
				c-2.79-2.77-4.81-6.05-6.32-9.66c-1.45-3.46-2.45-7.06-3.15-10.74c-0.91-4.75-1.4-9.54-1.37-14.37c0.01-1.71,0.16-3.42,0.26-5.2
				c-0.21-0.22-0.45-0.49-0.7-0.73c-4.33-4.17-6.24-9.27-5.85-15.24c0.11-1.77,0.55-3.48,1.35-5.06c2.55-5.04,6.4-8.57,12.01-9.86
				c5.65-1.3,10.83-0.26,15.34,3.5c4.02,3.35,6.98,7.5,9.17,12.23c1.58,3.41,2.62,6.99,3.48,10.64c0.1,0.43,0.21,0.86,0.33,1.35
				c0.24-0.08,0.43-0.11,0.57-0.19c1.52-0.97,3.02-1.94,4.55-2.92c0-0.57,0-1.06,0-1.56c-0.01-2.52-0.04-5.05,0.25-7.56
				c0.1-0.89,0.23-1.8,0.5-2.64c0.79-2.41,3.67-3.58,5.97-2.51c1.02,0.47,1.62,1.31,1.88,2.34c0.26,1,0.44,2.03,0.54,3.05
				c0.15,1.57,0.19,3.15,0.27,4.72c0.21,4.09,0.35,8.19,0.63,12.28c0.3,4.41,0.88,8.78,1.62,13.14c0.05,0.3,0.16,0.6,0.24,0.89
				C211.57,338.23,211.63,338.23,211.69,338.24z M160.55,316.63c0.37-0.63,0.61-1.11,0.92-1.55c1.15-1.64,2.71-2.47,4.75-2.22
				c1.4,0.17,2.23,0.9,2.51,2.26c0.15,0.74,0.24,1.52,0.24,2.28c0,1.21-0.12,2.43-0.16,3.64c-0.02,0.53-0.12,1.07,0.06,1.66
				c0.46,0.16,0.92,0.35,1.39,0.49c2.57,0.76,5.2,1.07,7.87,0.99c3.67-0.11,7.24-0.82,10.68-2.1c0.37-0.14,0.73-0.32,1.09-0.47
				c0.01-0.2,0.04-0.33,0.03-0.46c-0.04-0.31-0.08-0.63-0.15-0.93c-0.67-3.13-1.52-6.21-2.66-9.2c-1.39-3.63-3.15-7.07-5.54-10.16
				c-1.3-1.68-2.73-3.24-4.41-4.54c-3.28-2.55-6.93-3.09-10.84-1.85c-4.57,1.45-8.4,6.21-8.89,10.96c-0.17,1.67-0.12,3.33,0.27,4.97
				C158.22,312.61,159.09,314.66,160.55,316.63z M190.54,325.06c-2.44,0.86-4.75,1.6-7.13,2.07c-2.44,0.47-4.89,0.73-7.38,0.73
				c-2.43,0-4.82-0.36-7.19-0.83c-0.27,0.55-0.15,1.06-0.14,1.54c0.07,2.93,0.41,5.84,0.83,8.74c0.81,5.53,2.45,10.8,4.98,15.77
				c0.69,1.36,1.52,2.66,2.4,3.91c0.67,0.95,1.49,1.81,2.34,2.61c0.58,0.55,1.27,1.02,1.98,1.39c1.48,0.77,2.75,0.55,3.93-0.65
				c0.5-0.51,0.94-1.1,1.31-1.71c0.46-0.77,0.86-1.58,1.22-2.41c1.85-4.26,2.76-8.75,3.22-13.34c0.37-3.73,0.41-7.47,0.27-11.21
				C191.08,329.51,190.9,327.36,190.54,325.06z"/>
			<g>
				<path d="M279.26,324.63c-0.24,5.47-0.07,11.68,0.14,17.9c0.05,1.53,0.12,3.06,0.22,4.59c0.24,3.45-3.34,5.6-6,5.27
					c-1.44-0.18-2.38-0.99-2.68-2.45c-0.21-1.01-0.36-2.04-0.44-3.07c-0.22-3.05-0.48-6.11-0.56-9.17
					c-0.22-8.29-0.22-16.57,0.04-24.86c0.11-3.6,0.25-7.2,0.73-10.78c0.14-1.02,0.3-2.05,0.57-3.05c0.21-0.77,0.53-1.54,0.94-2.23
					c0.97-1.66,3.26-2.4,5.23-1.57c0.87,0.37,1.52,1.01,1.83,1.89c0.28,0.8,0.53,1.64,0.6,2.48c0.11,1.39,0.12,2.79,0.07,4.18
					c-0.16,4.82-0.36,9.63-0.53,14.45C279.36,320.1,279.33,321.99,279.26,324.63z"/>
				<path d="M270.05,360.65c0.02-2.56,1.96-4.88,4.9-4.89c3.37,0,5,2.8,4.97,4.96c-0.05,2.74-2.31,4.97-5.04,4.9
					C272.18,365.57,270.03,363.35,270.05,360.65z"/>
			</g>
		</g>
	</g>
</g>
</svg>
