<?xml version="1.0" encoding="utf-8"?>
<!-- Generator: Adobe Illustrator 25.2.1, SVG Export Plug-In . SVG Version: 6.00 Build 0)  -->
<svg version="1.1" id="Calque_1" xmlns="http://www.w3.org/2000/svg" xmlns:xlink="http://www.w3.org/1999/xlink" x="0px" y="0px"
	 viewBox="0 0 432 432" style="enable-background:new 0 0 432 432;" xml:space="preserve">
<style type="text/css">
	.st0{fill:#E0AAAF;}
	.st1{fill:#F9D53D;}
	.st2{fill:#FBB03B;}
	.st3{fill:#CCCCCC;}
	.st4{fill:#8CC63F;}
	.st5{fill:#C5D8A7;}
	.st6{fill:#C44750;}
	.st7{fill:#998675;}
	.st8{fill:#C7B299;}
	.st9{fill:none;}
	.st10{fill:#29ABE2;}
	.st11{fill:#B3B3B3;}
	.st12{fill:#C79C52;}
	.st13{fill:#65C8D0;}
	.st14{fill:#BA9BC9;}
	.st15{fill:#A57A7F;}
	.st16{fill:#FFFFFF;}
</style>
<g>
	<g>
		<path d="M251.69,262.04c-5.97-9.5-18.39-12.75-28.36-5.97c-10.37,7.05-12.93,21.88-5.55,32.02c6.46,8.89,18.41,11.03,27.45,4.8
			c6.56-4.51,9.6-10.98,9.85-17.43C255.1,269.74,253.92,265.6,251.69,262.04z M245.25,271.8l-4.66,4.49
			c-0.18,0.18-0.26,0.43-0.22,0.67l1.06,6.38c0.1,0.61-0.54,1.09-1.1,0.78l-5.71-3.04c-0.22-0.11-0.48-0.11-0.7,0l-5.74,2.98
			c-0.56,0.29-1.2-0.18-1.1-0.8l1.13-6.36c0.04-0.25-0.04-0.5-0.22-0.67l-4.6-4.54c-0.45-0.44-0.2-1.2,0.43-1.29l6.4-0.9
			c0.25-0.04,0.46-0.19,0.58-0.42l2.88-5.79c0.28-0.56,1.09-0.56,1.36,0.01l2.83,5.82c0.11,0.23,0.32,0.38,0.57,0.42l6.4,0.96
			C245.45,270.59,245.7,271.36,245.25,271.8z"/>
		<path d="M297.4,262.04c-5.97-9.5-18.39-12.75-28.36-5.97c-10.37,7.05-12.93,21.88-5.56,32.02c6.46,8.89,18.42,11.03,27.46,4.8
			c6.55-4.51,9.59-10.98,9.84-17.43C300.8,269.74,299.63,265.6,297.4,262.04z M290.95,271.8l-4.65,4.49
			c-0.18,0.18-0.26,0.43-0.22,0.67l1.06,6.38c0.1,0.61-0.55,1.09-1.1,0.78l-5.71-3.04c-0.22-0.11-0.48-0.11-0.71,0l-5.74,2.98
			c-0.55,0.29-1.2-0.18-1.09-0.8l1.13-6.36c0.04-0.25-0.04-0.5-0.22-0.67l-4.61-4.54c-0.44-0.44-0.19-1.2,0.43-1.29l6.41-0.9
			c0.25-0.04,0.46-0.19,0.57-0.42l2.89-5.79c0.28-0.56,1.08-0.56,1.35,0.01l2.84,5.82c0.11,0.23,0.32,0.38,0.57,0.42l6.4,0.96
			C291.16,270.59,291.41,271.36,290.95,271.8z"/>
		<path d="M175.68,274.43c-0.29-5.16-0.59-10.33-0.88-15.49c-0.09-1.58-0.18-3.16-0.24-4.74c-0.04-1.09,0.22-1.35,1.32-1.36
			c4.02-0.06,8.03-0.11,12.05-0.16c1.28-0.01,1.57,0.27,1.56,1.54c-0.03,4.84-0.07,9.68-0.1,14.51c0,0.45,0.03,0.91,0.13,1.35
			c0.13,0.6,0.41,0.84,1.03,0.82c1.7-0.04,3.41-0.09,5.11-0.17c0.65-0.03,0.95-0.36,1.01-1.07c0.05-0.7,0.04-1.4,0.04-2.1
			c-0.03-4.62-0.07-9.25-0.1-13.87c-0.01-1.64,0.21-1.86,1.82-1.85c3.92,0.04,7.85,0.08,11.77,0.13c0.27,0,0.55,0,0.82,0.01
			c0.94,0.05,1.27,0.39,1.19,1.32c-0.13,1.64-0.3,3.27-0.45,4.91c-0.41,4.24-0.82,8.48-1.23,12.71c-0.4,4.06-0.8,8.11-1.2,12.17
			c-0.32,3.27-0.63,6.54-0.95,9.81c-0.12,1.21-0.3,1.37-1.52,1.44c-2.64,0.14-5.28,0.3-7.92,0.45c-0.15,0.01-0.3,0.02-0.46,0.02
			c-1.14,0.02-1.49-0.3-1.5-1.42c-0.04-3.13-0.07-6.27-0.11-9.4c0-0.3,0.01-0.61-0.02-0.91c-0.08-0.81-0.41-1.15-1.23-1.17
			c-0.88-0.02-1.76,0.01-2.65,0.03c-0.82,0.02-1.64,0.07-2.46,0.11c-0.72,0.03-0.97,0.23-1.1,0.94c-0.07,0.36-0.06,0.73-0.06,1.09
			c-0.04,3.74-0.06,7.48-0.1,11.23c-0.01,1.62-0.18,1.79-1.79,1.75c-2.98-0.07-5.96-0.16-8.94-0.24c-1.3-0.04-1.58-0.28-1.67-1.62
			c-0.15-2.28-0.27-4.55-0.39-6.83C176.19,283.73,175.94,279.08,175.68,274.43z"/>
		<path d="M121.53,252.13c3.33,0.12,6.37,0.39,9.36,1.08c0.45,0.1,0.9,0.25,1.33,0.43c1.06,0.44,1.23,0.8,0.97,1.9
			c-0.39,1.64-0.79,3.29-1.19,4.93c-0.45,1.84-0.9,3.68-1.34,5.52c-0.05,0.2-0.09,0.4-0.15,0.59c-0.29,0.94-1.03,1.26-1.9,0.81
			c-0.7-0.36-1.38-0.75-2.07-1.12c-1.04-0.56-2.13-0.99-3.3-1.06c-0.71-0.04-1.47-0.02-2.15,0.18c-1.43,0.42-1.72,1.67-0.62,2.66
			c0.66,0.59,1.46,1.06,2.25,1.47c0.72,0.37,1.51,0.61,2.28,0.86c1.74,0.58,3.47,1.2,5.07,2.11c3.19,1.8,5.16,4.48,5.73,8.12
			c0.35,2.21-0.12,4.29-1.21,6.23c-0.78,1.39-1.83,2.56-3.06,3.56c-3.39,2.75-7.25,4.53-11.48,5.5c-3.6,0.83-7.25,1.13-10.94,0.71
			c-2.42-0.27-4.73-0.99-6.97-1.9c-0.8-0.32-0.99-0.76-0.74-1.6c0.98-3.26,1.96-6.53,2.96-9.78c0.31-1,0.81-1.25,1.79-0.87
			c1.64,0.62,3.32,1.11,5.07,1.25c1.58,0.13,3.15,0.07,4.67-0.42c0.6-0.19,1.2-0.45,1.74-0.79c0.94-0.59,1.14-1.69,0.43-2.55
			c-0.4-0.49-0.9-0.93-1.44-1.25c-0.92-0.55-1.9-1.01-2.88-1.46c-1.42-0.67-2.9-1.23-4.29-1.96c-1.15-0.61-2.29-1.3-3.3-2.11
			c-2.94-2.35-3.97-5.9-2.87-9.5c0.82-2.7,2.41-4.9,4.53-6.72c3.07-2.65,6.64-4.17,10.67-4.58
			C119.59,252.23,120.69,252.19,121.53,252.13z"/>
		<path d="M137.97,274.07c0.17-1.42,0.33-2.85,0.51-4.27c0.3-2.3,1.03-4.48,2.08-6.52c2.8-5.44,6.97-9.27,13.13-10.54
			c4.1-0.84,7.98-0.08,11.63,1.91c2.01,1.1,3.67,2.63,5.3,4.21c0.36,0.35,0.42,0.74,0.24,1.17c-0.16,0.37-0.31,0.74-0.52,1.09
			c-1.67,2.78-3.35,5.55-5.03,8.32c-0.09,0.15-0.19,0.29-0.29,0.43c-0.42,0.6-0.95,0.87-1.7,0.69c-1.28-0.3-2.58-0.56-3.87-0.82
			c-1.73-0.34-3.47-0.47-5.21-0.1c-0.53,0.11-1.04,0.32-1.55,0.51c-1.91,0.72-3.06,3.11-1.98,5.39c0.75,1.57,2.01,2.55,3.57,3.18
			c2.18,0.89,4.43,0.87,6.68,0.32c1.08-0.27,2.13-0.67,3.18-1.03c1.06-0.36,1.45-0.25,2.14,0.65c0.19,0.25,0.36,0.52,0.52,0.79
			c1.48,2.46,2.96,4.91,4.44,7.37c0.13,0.22,0.23,0.46,0.37,0.68c0.51,0.77,0.32,1.48-0.22,2.13c-2.88,3.47-6.43,5.84-10.93,6.63
			c-4.26,0.75-8.21-0.12-11.9-2.31c-3-1.78-5.29-4.28-7.09-7.24c-1.26-2.07-2.15-4.31-2.7-6.66
			C138.34,278.09,138.06,276.09,137.97,274.07z"/>
		<path d="M304.56,276.28c0.14-7.83,0.26-14.34,0.38-20.86c0.01-0.38,0.01-0.77,0.05-1.15c0.08-0.82,0.29-1,1.11-1.06
			c1.03-0.06,2.06-0.13,3.09-0.2c3.15-0.21,6.29-0.43,9.44-0.64c1.06-0.07,1.41,0.24,1.36,1.32c-0.14,3.15-0.3,6.3-0.46,9.45
			c-0.15,2.91-0.32,5.83-0.47,8.74c-0.18,3.3-0.35,6.59-0.52,9.89c-0.08,1.68-0.03,1.72,1.64,1.42c3.05-0.54,6.09-1.08,9.13-1.61
			c1.05-0.18,1.42,0.11,1.39,1.2c-0.03,1.29-0.13,2.59-0.22,3.88c-0.14,1.88-0.3,3.76-0.46,5.64c-0.04,0.5-0.12,0.99-0.2,1.49
			c-0.1,0.68-0.52,1.03-1.19,1.09c-0.56,0.05-1.11,0.1-1.67,0.14c-3.73,0.26-7.46,0.52-11.2,0.79c-3.35,0.24-6.7,0.48-10.05,0.73
			c-0.18,0.01-0.35,0.04-0.53,0.02c-0.68-0.05-1.01-0.4-1.01-1.08c0-1.09,0.03-2.18,0.06-3.27
			C304.35,286.45,304.47,280.71,304.56,276.28z"/>
	</g>
	<g>
		<path d="M138.45,151.05c0.17-1.42,0.33-2.85,0.51-4.27c0.3-2.3,1.03-4.48,2.08-6.52c2.8-5.44,6.97-9.27,13.13-10.54
			c4.1-0.84,7.98-0.08,11.63,1.91c2.01,1.1,3.67,2.63,5.3,4.21c0.36,0.35,0.42,0.74,0.24,1.17c-0.16,0.37-0.31,0.74-0.52,1.09
			c-1.67,2.78-3.35,5.55-5.03,8.32c-0.09,0.15-0.19,0.29-0.29,0.43c-0.42,0.6-0.95,0.87-1.7,0.69c-1.28-0.3-2.58-0.56-3.87-0.82
			c-1.73-0.34-3.47-0.47-5.21-0.1c-0.53,0.11-1.04,0.32-1.55,0.51c-1.91,0.72-3.06,3.11-1.98,5.39c0.75,1.57,2.01,2.55,3.57,3.18
			c2.18,0.89,4.43,0.87,6.68,0.32c1.08-0.27,2.13-0.67,3.18-1.03c1.06-0.36,1.45-0.25,2.14,0.65c0.19,0.25,0.36,0.52,0.52,0.79
			c1.48,2.46,2.96,4.91,4.44,7.37c0.13,0.22,0.23,0.46,0.37,0.68c0.51,0.77,0.32,1.48-0.22,2.13c-2.88,3.47-6.43,5.84-10.93,6.63
			c-4.26,0.75-8.21-0.12-11.9-2.31c-3-1.78-5.29-4.28-7.09-7.24c-1.26-2.07-2.15-4.31-2.7-6.66
			C138.81,155.08,138.54,153.08,138.45,151.05z"/>
		<path d="M214.54,139.03c-5.97-9.5-18.39-12.75-28.35-5.97c-10.37,7.05-12.94,21.88-5.56,32.02c6.46,8.89,18.41,11.03,27.45,4.8
			c6.56-4.51,9.6-10.98,9.85-17.43C217.95,146.73,216.78,142.59,214.54,139.03z M208.71,148.78l-4.66,4.49
			c-0.17,0.18-0.26,0.43-0.22,0.67l1.07,6.38c0.09,0.61-0.55,1.09-1.11,0.78l-5.71-3.04c-0.22-0.11-0.48-0.11-0.7,0l-5.74,2.98
			c-0.56,0.29-1.2-0.18-1.1-0.8l1.13-6.36c0.05-0.25-0.04-0.5-0.22-0.67l-4.6-4.54c-0.44-0.44-0.2-1.2,0.43-1.29l6.4-0.9
			c0.25-0.04,0.46-0.19,0.58-0.42l2.88-5.79c0.28-0.56,1.09-0.56,1.36,0.01l2.84,5.82c0.1,0.23,0.32,0.38,0.57,0.42l6.39,0.96
			C208.91,147.58,209.15,148.35,208.71,148.78z"/>
		<path d="M260.25,139.03c-5.97-9.5-18.39-12.75-28.35-5.97c-10.37,7.05-12.93,21.88-5.56,32.02c6.46,8.89,18.41,11.03,27.45,4.8
			c6.56-4.51,9.6-10.98,9.85-17.43C263.66,146.73,262.48,142.59,260.25,139.03z M254.4,148.78l-4.65,4.49
			c-0.18,0.18-0.25,0.43-0.22,0.67l1.06,6.38c0.1,0.61-0.55,1.09-1.1,0.78l-5.71-3.04c-0.22-0.11-0.48-0.11-0.7,0l-5.75,2.98
			c-0.55,0.29-1.2-0.18-1.09-0.8l1.13-6.36c0.04-0.25-0.04-0.5-0.22-0.67l-4.6-4.54c-0.45-0.44-0.2-1.2,0.43-1.29l6.4-0.9
			c0.25-0.04,0.46-0.19,0.57-0.42l2.89-5.79c0.28-0.56,1.09-0.56,1.36,0.01l2.83,5.82c0.11,0.23,0.32,0.38,0.57,0.42l6.4,0.96
			C254.61,147.58,254.86,148.35,254.4,148.78z"/>
		<path d="M267.41,153.27c0.14-7.83,0.26-14.34,0.38-20.86c0.01-0.38,0.01-0.77,0.05-1.15c0.08-0.82,0.29-1,1.11-1.06
			c1.03-0.06,2.06-0.13,3.09-0.2c3.15-0.21,6.29-0.43,9.44-0.64c1.06-0.07,1.41,0.24,1.36,1.32c-0.14,3.15-0.3,6.3-0.46,9.45
			c-0.15,2.91-0.32,5.83-0.47,8.74c-0.18,3.3-0.35,6.59-0.52,9.89c-0.08,1.68-0.03,1.72,1.64,1.42c3.05-0.54,6.09-1.08,9.13-1.61
			c1.05-0.18,1.42,0.11,1.39,1.2c-0.03,1.29-0.13,2.59-0.22,3.88c-0.14,1.88-0.3,3.76-0.46,5.64c-0.04,0.5-0.12,0.99-0.2,1.49
			c-0.1,0.68-0.52,1.03-1.19,1.09c-0.56,0.05-1.11,0.1-1.67,0.14c-3.73,0.26-7.46,0.52-11.2,0.79c-3.35,0.24-6.7,0.48-10.05,0.73
			c-0.18,0.01-0.35,0.04-0.53,0.02c-0.68-0.05-1.01-0.4-1.01-1.08c0-1.09,0.03-2.18,0.06-3.27
			C267.2,163.44,267.32,157.7,267.41,153.27z"/>
	</g>
	<path class="st10" d="M348.01,113.94c-0.39-0.3-0.84-0.57-1.41-0.84c-7.5-3.56-15.01-7.12-22.51-10.67
		c-0.43-0.2-0.81-0.32-1.17-0.36c-0.57-0.07-1.07,0.13-1.42,0.54c-0.25,0.29-0.53,0.83-0.47,1.71c0.03,0.47,0.15,0.96,0.32,1.38
		c0.31,0.75,0.66,1.52,1.04,2.29c0.4,0.81,0.8,1.61,1.21,2.42c0.34,0.67,0.68,1.35,1.01,2.02c0.12,0.24,0.21,0.45,0.29,0.64
		c-0.11,0-0.22,0-0.34,0l-0.22,0c-13.41,0.03-44.67,0.05-77.77,0.08c-44.47,0.03-94.87,0.07-112.93,0.13c0,0-0.01,0-0.01,0
		c-0.84,0-1.4-0.29-1.86-0.97c-0.23-0.33-0.47-0.65-0.72-0.97l-1.84-2.45c-1.35-1.8-2.71-3.61-4.05-5.42
		c-0.71-0.96-1.55-1.43-2.55-1.44c-0.32,0-0.65-0.03-0.97-0.05c-0.38-0.03-0.76-0.05-1.14-0.05c0,0-0.01,0-0.01,0
		c-9.99,0-19.98,0.02-29.97,0.03c-1.71,0-3.41,0.01-5.12,0.03c-0.06,0-0.12,0-0.18,0c-0.43-0.01-1.32-0.04-1.82,1.02
		c-0.51,1.09-0.04,2.01,0.22,2.5l0.09,0.18c0.2,0.41,0.41,0.82,0.62,1.23l1.31,2.6c0.86,1.71,1.72,3.42,2.59,5.12
		c0.34,0.67,0.36,1.26,0.04,1.96c-0.16,0.36-0.34,0.71-0.51,1.06l-2.16,4.29l-1.92,3.81c-0.11,0.21-0.23,0.44-0.33,0.72
		c-0.24,0.67-0.22,1.34,0.04,1.89c0.26,0.54,0.72,0.89,1.31,0.99c0.29,0.05,0.56,0.04,0.8,0.04l0.2,0l6.72,0.02
		c7.84,0.03,15.68,0.05,23.51,0.06c0.03,0,0.07,0,0.1,0c1.17,0,2.35-0.03,3.49-0.06c0.95-0.02,1.9-0.05,2.85-0.06
		c1.18-0.01,2.16-0.57,3-1.72c1.05-1.44,2.12-2.86,3.19-4.28c1.03-1.38,2.07-2.76,3.09-4.15c0.52-0.72,1.01-0.98,1.78-0.98
		c0,0,0,0,0.01,0c11.44,0.02,90.66-0.06,137.99-0.11c17.88-0.02,30.93-0.03,33.49-0.03l9.21-0.01c3.58,0,7.16-0.01,10.73-0.01
		c-0.21,0.49-0.45,0.96-0.7,1.47l-0.25,0.51c-0.26,0.53-0.52,1.06-0.78,1.59c-0.55,1.11-1.09,2.22-1.62,3.35
		c-0.24,0.51-0.41,1.1-0.46,1.67c-0.08,0.74,0.11,1.41,0.52,1.86c0.41,0.45,0.98,0.61,1.59,0.46c0.43-0.11,0.82-0.29,1.19-0.47
		l0.11-0.05c4.31-2.04,8.63-4.08,12.94-6.12c3.11-1.47,6.22-2.95,9.33-4.43c0.41-0.2,0.84-0.41,1.25-0.71
		c0.73-0.55,0.85-1.25,0.85-1.62C348.83,115.19,348.73,114.49,348.01,113.94z"/>
	<g>
		<g>
			<path d="M183.64,77.87c0-3.7,0-7.41,0-11.11c0-0.37,0.01-0.74,0.05-1.11c0.04-0.42,0.27-0.69,0.71-0.7
				c1.08-0.03,2.17-0.09,3.25-0.05c0.72,0.03,0.91,0.29,0.99,1c0.04,0.37,0.04,0.74,0.04,1.11c0.04,5.11,0.03,10.21,0.12,15.32
				c0.05,2.85,0.24,5.71,0.45,8.55c0.08,1.07,0.34,2.14,0.62,3.18c0.47,1.79,1.62,2.88,3.49,3.1c1.9,0.22,3.8,0.25,5.69-0.06
				c1.53-0.25,2.51-1.13,3.05-2.57c0.43-1.15,0.69-2.34,0.77-3.55c0.19-2.74,0.39-5.49,0.44-8.24c0.1-5.21,0.09-10.42,0.13-15.63
				c0-0.45,0.03-0.9,0.05-1.35c0.02-0.45,0.29-0.73,0.69-0.72c1.21,0.01,2.43,0.08,3.64,0.15c0.32,0.02,0.52,0.25,0.58,0.57
				c0.04,0.26,0.07,0.53,0.07,0.79c-0.07,6.98-0.11,13.97-0.24,20.95c-0.05,2.43-0.27,4.86-0.89,7.23c-0.1,0.38-0.21,0.76-0.34,1.14
				c-1.15,3.39-3.41,5.56-6.98,6.19c-2.94,0.52-5.9,0.55-8.81-0.21c-2.62-0.68-4.47-2.31-5.61-4.76c-0.9-1.92-1.25-3.98-1.46-6.06
				C183.73,86.65,183.73,82.26,183.64,77.87z"/>
			<path d="M223.92,86.24c0.05,4.85,0.1,9.71,0.15,14.56c0.02,1.82-0.01,1.7-1.65,1.7c-0.8,0-1.61,0.01-2.41,0
				c-0.94-0.01-1.07-0.12-1.08-1.07c-0.04-3.97-0.08-7.94-0.12-11.91c-0.05-5.95-0.1-11.91-0.15-17.86c0-0.16,0-0.32-0.01-0.48
				c-0.03-1.06-0.37-1.25-1.25-1.22c-1.37,0.04-2.74-0.01-4.1-0.02c-0.21,0-0.43-0.01-0.64-0.03c-0.4-0.03-0.65-0.22-0.68-0.65
				c-0.05-0.64-0.1-1.28-0.13-1.92c-0.02-0.56-0.04-1.13-0.01-1.69c0.03-0.63,0.23-0.8,0.84-0.84c0.16-0.01,0.32-0.01,0.48,0
				c5.63,0.05,11.26,0.09,16.9,0.14c1.43,0.01,1.51,0.08,1.55,1.48c0.03,0.88,0.03,1.77,0,2.65c-0.03,0.83-0.18,0.99-1.02,0.99
				c-1.74,0-3.49-0.04-5.23-0.05c-1.51-0.01-1.57,0.04-1.56,1.59c0.05,4.88,0.1,9.76,0.14,14.64
				C223.94,86.24,223.93,86.24,223.92,86.24z"/>
			<path d="M180.38,78.84c-0.28-5.62-3.13-9.66-8.18-12.11c-3.18-1.55-6.6-1.87-10.09-1.67c-1.53,0.09-3.03,0.33-4.47,0.89
				c-1.55,0.59-2.12,1.4-2.11,3.04c0.05,5.27,0.24,26.38,0.29,31.68c0,0.21,0,0.42,0.02,0.63c0.08,0.76,0.28,0.98,1.04,1
				c0.97,0.03,1.95,0.01,2.92-0.03c0.96-0.04,1.07-0.17,1.07-1.14c-0.01-2.63-0.03-5.27-0.05-7.9c0-0.21,0-0.42,0-0.63
				c0-0.28,0.15-0.45,0.42-0.48c0.18-0.02,0.37-0.03,0.55-0.04c1.37-0.03,2.74,0,4.1-0.08c2.3-0.13,4.54-0.57,6.7-1.39
				C176.6,89.07,180.69,85.06,180.38,78.84z M171.57,85.51c-1.26,0.69-2.65,1.02-4.06,1.23c-1.9,0.28-3.82,0.38-5.75,0.28
				c-0.94-0.05-1.04-0.15-1.04-1.08c-0.01-2.42-0.12-11.95-0.12-14.29c0-0.24,0-0.48,0.03-0.71c0.08-0.52,0.23-0.69,0.75-0.75
				c3-0.34,5.96-0.21,8.73,1.12c3.3,1.59,5.12,4.24,5.23,7.92C175.42,82.07,174.04,84.16,171.57,85.51z"/>
		</g>
		<g>
			<path d="M253.09,86.24c0.05,4.85,0.1,9.71,0.15,14.56c0.02,1.82-0.01,1.7-1.65,1.7c-0.8,0-1.61,0.01-2.41,0
				c-0.94-0.01-1.07-0.12-1.08-1.07c-0.04-3.97-0.08-7.94-0.12-11.91c-0.05-5.95-0.1-11.91-0.15-17.86c0-0.16,0-0.32-0.01-0.48
				c-0.03-1.06-0.37-1.25-1.25-1.22c-1.37,0.04-2.74-0.01-4.1-0.02c-0.21,0-0.43-0.01-0.64-0.03c-0.4-0.03-0.65-0.22-0.68-0.65
				c-0.05-0.64-0.1-1.28-0.13-1.92c-0.02-0.56-0.04-1.13-0.01-1.69c0.03-0.63,0.23-0.8,0.84-0.84c0.16-0.01,0.32-0.01,0.48,0
				c5.63,0.05,11.26,0.09,16.9,0.14c1.43,0.01,1.51,0.08,1.55,1.48c0.03,0.88,0.03,1.77,0,2.65c-0.03,0.83-0.18,0.99-1.02,0.99
				c-1.74,0-3.49-0.04-5.23-0.05c-1.51-0.01-1.57,0.04-1.56,1.59c0.05,4.88,0.1,9.76,0.14,14.64
				C253.11,86.24,253.1,86.24,253.09,86.24z"/>
			<path d="M290.48,67.6c0-0.59,0-1.17-0.01-1.76c-0.02-0.75-0.08-0.83-0.81-0.85c-0.97-0.03-1.95-0.02-2.93-0.02
				c-1.55,0-1.6,0.06-1.59,1.6c0.03,4.6,0.06,9.2,0.08,13.8c0.01,1.07-0.14,1.21-1.2,1.21c-4.35,0-8.7-0.01-13.05-0.02
				c-0.17,0-0.33,0-0.5-0.01c-0.29-0.02-0.46-0.17-0.47-0.48c0-0.22,0-0.45,0-0.67c0-4.54-0.01-9.09-0.01-13.63
				c0-0.28,0.01-0.56-0.02-0.84c-0.06-0.72-0.2-0.88-0.92-0.91c-0.92-0.03-1.84-0.02-2.76-0.02c-1.64,0-1.64,0-1.64,1.62
				c0.01,11.34,0.02,22.69,0.03,34.03c0,0.25-0.01,0.5,0.01,0.75c0.06,0.78,0.2,0.92,0.97,0.92c0.92,0.01,1.84-0.01,2.76-0.02
				c1.49-0.01,1.59-0.12,1.59-1.64c0-4.18,0-8.36-0.01-12.54c0-0.22,0-0.45,0-0.67c0.01-0.38,0.22-0.55,0.58-0.56
				c0.2,0,0.39,0,0.59,0c4.32,0,8.64,0.01,12.96,0.02c0.14,0,0.28,0,0.42,0c0.58,0.03,0.65,0.1,0.69,0.7
				c0.01,0.22,0.01,0.45,0.01,0.67c0.02,4.01,0.03,8.03,0.05,12.04c0,0.33,0,0.67,0.03,1c0.07,0.77,0.13,0.85,0.92,0.87
				c0.97,0.03,1.95,0.01,2.93-0.01c1.37-0.02,1.46-0.11,1.46-1.49C290.64,94.97,290.48,72.89,290.48,67.6z"/>
			<path d="M312.31,64.92c-0.15-0.01-0.3-0.01-0.46-0.01c-4.61,0-9.22,0-13.83,0.01c-0.4,0-0.81,0.01-1.21,0.07
				c-1.26,0.2-2.1,1.11-2.2,2.36c-0.02,0.23-0.02,0.46-0.02,0.68c-0.03,10.34-0.07,20.68-0.1,31.01c0,0.38,0.02,0.76,0.08,1.14
				c0.17,1.13,0.88,1.88,2,2.09c0.32,0.06,0.65,0.08,0.98,0.08c4.64,0.02,9.27,0.03,13.91,0.04c0.21,0,0.42,0.01,0.62-0.02
				c0.35-0.04,0.61-0.35,0.62-0.7c0.02-0.52,0.02-1.05-0.01-1.57c-0.03-0.61-0.06-1.21-0.16-1.81c-0.08-0.52-0.31-0.68-0.82-0.73
				c-0.23-0.02-0.46-0.01-0.68-0.01c-3.52-0.01-7.04-0.02-10.57-0.04c-0.2,0-0.41,0-0.61-0.01c-0.27-0.01-0.43-0.15-0.47-0.41
				c-0.03-0.17-0.04-0.35-0.04-0.53c0.01-3.02,0.01-6.03,0.03-9.05c0-0.85,0.12-0.95,0.98-0.94c2.53,0.03,5.07,0.06,7.6,0.09
				c0.25,0,0.51,0,0.76-0.02c0.35-0.02,0.58-0.2,0.58-0.56c0.01-1.14,0.03-2.28,0-3.42c-0.01-0.44-0.36-0.79-0.79-0.83
				c-0.22-0.02-0.45-0.01-0.67-0.01c-2.56-0.03-5.12-0.06-7.68-0.1c-0.7-0.01-0.73-0.05-0.74-0.73c-0.01-0.51,0-1.01,0-1.52
				c0.01-2.96,0.01-5.93,0.03-8.89c0-0.75,0.08-0.81,0.83-0.83c0.15,0,0.3,0,0.46,0c3.7,0,7.4,0,11.1-0.01c0.14,0,0.28,0,0.42,0
				c0.47,0,0.89-0.36,0.9-0.83c0,0,0,0,0-0.01c0.03-1.04,0.04-2.08,0.03-3.12C313.18,65.14,312.98,64.96,312.31,64.92z"/>
		</g>
		<path d="M136.08,66.46c0-0.2,0-0.39,0.01-0.59c0.04-0.68,0.22-0.94,0.9-0.97c1.22-0.05,2.45-0.01,3.68,0
			c0.43,0,0.67,0.23,0.7,0.66c0.02,0.31,0.05,0.61,0.05,0.92c-0.04,11.44-0.07,22.89-0.11,34.33c0,1.33-0.17,1.52-1.46,1.57
			c-0.98,0.04-1.95,0.06-2.93,0.03c-0.78-0.02-0.91-0.18-0.94-0.96c-0.01-0.28-0.01-0.56-0.01-0.84
			C135.96,94.98,136.08,72.21,136.08,66.46z"/>
	</g>
	<g>
		<g>
			<g>
				<path class="st4" d="M130.42,190.49c-1.57-1.83-2.94-3.2-5.54-3.22c-10.77-0.06-15.37,0.89-15.91,3.35
					c-1.12,5.01,15.43,17.22,15.43,22.42c0,5.42-17.62,18.12-15.26,22.9c1.04,2.1,5.71,2.92,15.74,2.86
					c2.6-0.01,3.97-1.38,5.54-3.22C154.04,208.04,154.13,218.12,130.42,190.49z"/>
				<path class="st1" d="M163.16,190.49c-1.57-1.83-2.94-3.2-5.54-3.22c-10.77-0.06-15.37,0.89-15.91,3.35
					c-1.12,5.01,15.43,17.22,15.43,22.42c0,5.42-17.62,18.12-15.26,22.9c1.04,2.1,5.71,2.92,15.74,2.86
					c2.6-0.01,3.97-1.38,5.54-3.22C186.78,208.04,186.87,218.12,163.16,190.49z"/>
			</g>
			<g>
				<path class="st4" d="M301.58,190.49c1.57-1.83,2.94-3.2,5.54-3.22c10.77-0.06,15.37,0.89,15.91,3.35
					c1.12,5.01-15.43,17.22-15.43,22.42c0,5.42,17.62,18.12,15.26,22.9c-1.04,2.1-5.71,2.92-15.74,2.86
					c-2.6-0.01-3.97-1.38-5.54-3.22C277.96,208.04,277.87,218.12,301.58,190.49z"/>
				<path class="st1" d="M268.84,190.49c1.57-1.83,2.94-3.2,5.54-3.22c10.77-0.06,15.37,0.89,15.91,3.35
					c1.12,5.01-15.43,17.22-15.43,22.42c0,5.42,17.62,18.12,15.26,22.9c-1.04,2.1-5.71,2.92-15.74,2.86
					c-2.6-0.01-3.97-1.38-5.54-3.22C245.22,208.04,245.13,218.12,268.84,190.49z"/>
			</g>
		</g>
		<g>
			<path d="M238.04,206.58c-0.04-2.31-0.28-4.63-0.57-6.93c-0.33-2.68-1.1-5.23-2.58-7.54c-4.34-6.78-12.35-7.41-17.44-4.98
				c-4.04,1.93-6.42,5.22-7.6,9.45c-0.95,3.43-1.17,6.97-1.23,10.5c-0.12,7.82-0.2,15.64-0.29,23.46c-0.01,1.18,0.01,2.36,0.04,3.53
				c0.04,1.41,0.34,1.71,1.71,1.72c1.14,0.01,2.29,0.01,3.43,0c1.54-0.01,1.7-0.19,1.7-1.74c0-5.03,0.12-17.67,0.13-18.96
				c0.01-1.32,0.02-2.64,0.06-3.96c0.07-2.57,0.06-5.15,0.27-7.7c0.16-1.87,0.5-3.75,0.96-5.57c0.68-2.67,3.07-5.33,6.99-5.14
				c2.35,0.12,4.09,1.08,5.41,2.94c0.73,1.04,1.1,2.23,1.38,3.46c0.59,2.55,0.76,5.16,0.8,7.76c0.12,9,0.18,18,0.27,26.99
				c0,0.29-0.01,0.57,0.02,0.86c0.09,0.74,0.35,1.02,1.11,1.04c1.5,0.04,3,0.04,4.5,0.01c0.73-0.02,1.02-0.31,1.14-1.03
				c0.07-0.42,0.08-0.85,0.07-1.28C238.24,224.51,238.18,215.54,238.04,206.58z"/>
			<path d="M195.35,188.72c0-0.26-0.01-0.52,0.01-0.78c0.06-0.9,0.29-1.25,1.19-1.28c1.62-0.06,3.25-0.01,4.87,0
				c0.57,0,0.89,0.3,0.93,0.88c0.03,0.4,0.07,0.81,0.07,1.21c-0.05,15.15-0.1,30.29-0.15,45.44c-0.01,1.77-0.22,2.01-1.94,2.07
				c-1.29,0.05-2.59,0.08-3.88,0.04c-1.03-0.03-1.2-0.24-1.25-1.27c-0.02-0.37-0.01-0.74-0.01-1.11
				C195.19,226.47,195.35,196.33,195.35,188.72z"/>
		</g>
	</g>
	<path class="st4" d="M165.75,306.6c6.33-0.25,12.67-0.15,19,0.08c4.04,0.15,8.06,0.53,11.96,1.69c1.61,0.48,3.2,1.03,4.76,1.63
		c3.33,1.27,6.76,1.89,10.33,1.83c2.84-0.05,5.69-0.05,8.53,0c3.5,0.06,6.87-0.57,10.14-1.81c2.93-1.12,5.9-2.09,9.01-2.61
		c3.1-0.51,6.23-0.67,9.36-0.79c8.05-0.3,16.09-0.14,24.13,0.22c5.91,0.27,11.81,0.61,17.71,0.98c2.03,0.13,4.04,0.46,6.06,0.74
		c0.67,0.09,1.31,0.32,1.96,0.52c1.26,0.39,2.16,1.24,2.55,2.47c0.82,2.64,1.26,5.34,0.95,8.12c-0.18,1.67-1.01,2.97-2.41,3.91
		c-0.75,0.5-1.47,1.06-2.2,1.58c-0.98,0.7-1.52,1.67-1.67,2.84c-0.15,1.18-0.29,2.37-0.33,3.57c-0.12,3.2-0.16,6.4-0.28,9.59
		c-0.09,2.33-0.43,4.63-1.04,6.88c-1.45,5.36-4.67,9.44-9.18,12.55c-4.22,2.91-8.93,4.61-13.93,5.55
		c-4.75,0.89-9.54,1.23-14.37,0.98c-5.14-0.26-10.12-1.27-14.86-3.32c-6.72-2.91-11.09-8.06-13.85-14.7
		c-1.46-3.5-2.29-7.19-3.15-10.87c-0.53-2.26-1.1-4.52-1.74-6.75c-0.25-0.89-0.66-1.75-1.12-2.57c-1.58-2.84-4.67-3.62-7.32-3.22
		c-2.34,0.36-4.11,1.6-5.07,3.76c-0.66,1.5-1.17,3.08-1.58,4.66c-0.84,3.22-1.51,6.48-2.37,9.69c-0.53,1.96-1.18,3.9-1.97,5.77
		c-3.36,7.9-9.1,13.17-17.39,15.63c-4.88,1.45-9.85,2.08-14.92,1.99c-4.92-0.09-9.79-0.63-14.55-2c-4.2-1.21-8.1-3.03-11.53-5.77
		c-4.71-3.77-7.44-8.66-8.29-14.63c-0.45-3.15-0.42-6.31-0.54-9.48c-0.08-1.9-0.13-3.81-0.22-5.71c-0.03-0.61-0.13-1.22-0.24-1.82
		c-0.2-1.05-0.7-1.94-1.59-2.57c-0.71-0.51-1.39-1.06-2.12-1.53c-1.73-1.11-2.54-2.72-2.62-4.71c-0.1-2.37,0.26-4.71,0.88-6.99
		c0.42-1.54,1.43-2.65,3.01-2.99c1.92-0.42,3.86-0.79,5.82-0.98C148.18,307.18,156.97,306.94,165.75,306.6z"/>
</g>
</svg>
