<?xml version="1.0" encoding="utf-8"?>
<!-- Generator: Adobe Illustrator 25.2.1, SVG Export Plug-In . SVG Version: 6.00 Build 0)  -->
<svg version="1.1" id="Calque_1" xmlns="http://www.w3.org/2000/svg" xmlns:xlink="http://www.w3.org/1999/xlink" x="0px" y="0px"
	 viewBox="0 0 432 432" style="enable-background:new 0 0 432 432;" xml:space="preserve">
<style type="text/css">
	.st0{fill:#E0AAAF;}
	.st1{fill:#F9D53D;}
	.st2{fill:#FBB03B;}
	.st3{fill:#CCCCCC;}
	.st4{fill:#8CC63F;}
	.st5{fill:#C5D8A7;}
	.st6{fill:#C44750;}
	.st7{fill:#998675;}
	.st8{fill:#C7B299;}
	.st9{fill:none;}
	.st10{fill:#29ABE2;}
	.st11{fill:#B3B3B3;}
	.st12{fill:#C79C52;}
	.st13{fill:#65C8D0;}
	.st14{fill:#BA9BC9;}
	.st15{fill:#A57A7F;}
	.st16{fill:#FFFFFF;}
</style>
<g>
	<g>
		<g>
			<path d="M256.97,169.02c-2.25,0-2.57,0.33-2.61,2.59c-0.1,5.59,1,10.91,3.67,15.86c1.47,2.72,3.35,5.11,5.88,6.93
				c2.41,1.73,5.06,2.67,8.08,2.34c2.05-0.22,3.84-1.05,5.45-2.3c1.99-1.55,3.46-3.52,4.6-5.74c1.67-3.25,2.48-6.74,2.79-10.35
				c0.02-0.18,0.02-0.36,0.04-0.54c0.11-1.32,0.35-1.58,1.66-1.64c0.73-0.04,1.45-0.03,2.18-0.02c0.61,0,0.98,0.33,1,0.92
				c0.03,0.9,0.07,1.82-0.02,2.71c-0.44,4.58-1.73,8.91-4.12,12.87c-1.33,2.2-2.94,4.16-5,5.71c-5.45,4.08-11.24,4.59-17.3,1.51
				c-3.24-1.65-5.77-4.15-7.84-7.11c-2.75-3.93-4.47-8.31-5.36-13.01c-1.2-6.34-0.93-12.59,1.21-18.71
				c1.47-4.19,3.68-7.93,7.21-10.72c5.3-4.18,11.06-4.82,17.16-1.9c2.77,1.32,5.04,3.31,6.96,5.68c2.98,3.68,5.04,7.78,5.84,12.5
				c0.24,1.43-0.28,2.24-1.91,2.22C281.55,168.74,261.84,169.01,256.97,169.02z M278.05,163.82c0.91,0,1.82-0.02,2.73-0.03
				c1.59-0.02,1.79-0.3,1.01-1.72c-0.78-1.43-1.62-2.84-2.56-4.17c-1.33-1.89-3.02-3.44-5.03-4.61c-4.42-2.58-9.17-2.13-13.02,1.26
				c-2.23,1.96-3.76,4.42-4.83,7.17c-0.18,0.47-0.28,0.98-0.32,1.48c-0.05,0.6,0.14,0.76,0.75,0.82c0.18,0.02,0.36,0.01,0.55,0.01
				C261.25,164.02,275.07,163.82,278.05,163.82z"/>
			<path d="M223.58,170.4c0.37-0.27,0.75-0.52,1.11-0.8c1.65-1.33,3.46-2.39,5.56-2.78c4.73-0.88,8.68,0.51,11.67,4.32
				c2.09,2.67,3.16,5.81,3.94,9.06c0.83,3.43,1.23,6.92,1.42,10.44c0.16,2.92,0.21,5.84,0.31,8.77c0.01,0.16,0.01,0.32,0.01,0.47
				c0,1.51-0.18,1.72-1.68,1.76c-0.83,0.02-1.66-0.03-2.49-0.1c-0.8-0.07-1.02-0.29-1.15-1.09c-0.08-0.47-0.09-0.94-0.11-1.42
				c-0.11-2.65-0.16-5.29-0.32-7.94c-0.24-3.99-0.69-7.95-1.9-11.79c-0.52-1.67-1.2-3.26-2.22-4.69c-1.78-2.48-4.94-3.32-7.69-1.99
				c-2.63,1.27-4.3,3.42-5.3,6.11c-0.93,2.47-1.23,5.07-1.34,7.68c-0.17,3.99-0.22,7.98-0.33,11.97c-0.02,0.71,0,1.43-0.07,2.13
				c-0.08,0.91-0.38,1.19-1.28,1.23c-0.83,0.04-1.66,0.03-2.49-0.01c-1.45-0.06-1.7-0.34-1.69-1.79c0.02-3.24,0.05-6.48,0.07-9.72
				c0.09-13.83,0.18-27.67,0.27-41.5c0-0.2,0-0.4,0-0.59c0.05-1.08,0.26-1.31,1.34-1.36c0.87-0.04,1.74-0.04,2.61-0.02
				c0.85,0.02,1.14,0.24,1.28,1.09c0.13,0.81,0.19,1.65,0.19,2.47c-0.03,6.21-0.09,12.41-0.13,18.62c0,0.45,0.07,0.91,0.1,1.36
				C223.37,170.3,223.48,170.35,223.58,170.4z"/>
			<path d="M206.13,188.18c0.04,1.57,0.17,3.15,0.4,4.7c0.26,1.78,1.13,3.14,2.99,3.73c0.99,0.31,1.08,0.58,0.98,1.66
				c-0.06,0.61-0.16,1.22-0.26,1.83c-0.2,1.2-0.72,1.62-1.91,1.42c-1.93-0.34-3.61-1.18-4.69-2.85c-0.62-0.95-1.1-2.03-1.46-3.11
				c-0.73-2.2-1.06-4.5-1.13-6.8c-0.16-5.19-0.24-10.37-0.34-15.56c-0.01-0.38,0-0.77-0.02-1.15c-0.07-0.89-0.24-1.07-1.13-1.08
				c-1.58-0.02-3.15-0.01-4.73-0.01c-1.48,0-1.64-0.16-1.65-1.66c-0.01-0.85-0.02-1.69,0.03-2.54c0.06-0.91,0.31-1.14,1.22-1.15
				c1.65-0.01,3.31,0.01,4.96,0c1.12,0,1.17-0.05,1.15-1.18c-0.06-4.96-0.14-9.92-0.2-14.87c-0.01-0.53,0.05-1.07,0.12-1.6
				c0.09-0.65,0.48-1.06,1.15-1.07c1.04-0.01,2.07,0.02,3.11,0.05c0.5,0.02,0.76,0.36,0.84,0.81c0.07,0.37,0.05,0.76,0.06,1.15
				c0.07,5.03,0.14,10.07,0.21,15.1c0,0.23,0,0.46,0.03,0.69c0.08,0.73,0.26,0.92,1.03,0.94c1.54,0.02,3.08,0.01,4.61,0.01
				c0.35,0,0.69-0.01,1.04,0.02c0.8,0.08,1.13,0.35,1.19,1.14c0.08,1.03,0.11,2.07,0.09,3.11c-0.01,0.91-0.19,1.07-1.11,1.08
				c-1.73,0.02-3.46,0-5.19,0c-0.27,0-0.54,0-0.81,0.01c-0.46,0.01-0.7,0.28-0.74,0.72c-0.03,0.31-0.01,0.61-0.01,0.92
				C205.93,175.42,206.07,185.8,206.13,188.18z"/>
		</g>
		<g>
			<path d="M168.05,201.87c-1.12,0.11-2.25,0.09-3.37-0.05c-0.48-0.06-0.98-0.13-1.47-0.23c-4.85-1-7.8-4.13-9.37-8.66
				c-0.92-2.66-1.18-5.45-1.2-8.26c-0.01-1.22,0.38-1.64,1.57-1.71c0.67-0.04,1.37-0.02,2.03,0.09c0.85,0.13,1.49,0.86,1.57,1.72
				c0.13,1.45,0.27,2.9,0.45,4.34c0.07,0.54,0.18,1.07,0.34,1.59c1.39,4.57,4.04,5.97,7.76,6.04c1.25,0.03,2.55-0.16,3.77-0.48
				c3.79-0.97,6.46-4.81,5.98-8.69c-0.26-2.17-1.02-4.13-2.26-5.91c-1.57-2.26-3.51-4.15-5.67-5.82c-1.27-0.97-2.64-1.82-3.89-2.81
				c-1.99-1.57-4.01-3.11-5.85-4.84c-2.15-2.02-3.63-4.51-4.28-7.45c-1.38-6.22,2.45-13.05,9.62-13.93
				c6.02-0.73,11.3,3.11,12.56,9.38c0.36,1.82,0.48,3.69,0.65,5.54c0.1,1.09-0.2,1.41-1.3,1.51c-0.78,0.07-1.56,0.12-2.34,0.07
				c-1.21-0.07-1.45-0.35-1.57-1.58c-0.1-1.07-0.14-2.16-0.3-3.22c-0.14-0.91-0.34-1.84-0.66-2.7c-0.99-2.69-3.5-4.12-6.51-3.79
				c-2.69,0.3-4.73,2.35-5.13,5.12c-0.29,2.07,0.3,3.9,1.45,5.59c0.91,1.34,2.03,2.48,3.3,3.47c1.56,1.21,3.13,2.4,4.75,3.53
				c3.69,2.58,7.1,5.43,9.64,9.21c1.83,2.72,2.92,5.7,3.01,8.99c0.19,6.99-4.75,12.79-11.66,13.76
				C169.12,201.76,168.6,201.82,168.05,201.87z"/>
			<g>
				<path d="M143.38,184.65c0-5.05,0-20.26,0-25.31c0-0.29-0.01-0.58,0-0.87c0.03-1.24,0.25-1.48,1.46-1.48c0.84,0,1.67,0,2.5,0.06
					c0.75,0.06,0.94,0.26,1.08,0.99c0.07,0.35,0.07,0.72,0.07,1.08c0,10.17-0.01,30.51-0.01,40.68c0,2.09-0.13,2.22-2.21,2.23
					c-0.69,0-1.38-0.04-2.07-0.08c-0.53-0.03-0.77-0.35-0.8-0.85c-0.02-0.29-0.02-0.58-0.02-0.87
					C143.38,195.04,143.38,189.84,143.38,184.65z"/>
				<path d="M149.63,150.26c0.01,2.04-1.62,3.7-3.64,3.72c-2.05,0.02-3.72-1.6-3.74-3.61c-0.01-2.02,1.74-3.75,3.78-3.73
					C148.02,146.65,149.63,148.27,149.63,150.26z"/>
			</g>
		</g>
	</g>
	<g>
		<path class="st4" d="M176.15,213.32c-0.31-0.07-0.64-0.1-0.96-0.12c-6.52-0.31-13.05-0.63-19.57-0.93
			c-1.75-0.08-2.68,0.88-2.55,2.61c0.39,5.09,0.81,10.17,1.21,15.26c0.06,0.73,0.12,1.47,0.13,2.2c0.01,0.92-0.49,1.25-1.32,0.88
			c-0.37-0.17-0.7-0.44-1.04-0.68c-9.31-6.35-18.61-12.7-27.93-19.05c-0.74-0.51-1.46-1.23-2.49-0.67
			c-0.98,0.53-0.95,1.49-0.99,2.41c-0.15,3.77-0.31,7.54-0.45,11.3c-0.32,8.83-0.63,17.65-0.91,25.65
			c-0.37,9.7-0.68,18.57-1.08,27.44c-0.07,1.46,0.67,2.25,2.1,2.2c0.23-0.01,0.46,0,0.69-0.01c5.8-0.1,11.59-0.19,17.39-0.3
			c1.06-0.02,2.12-0.04,3.17-0.11c1.31-0.08,1.78-0.58,1.85-1.9c0.03-0.55,0-1.1-0.02-1.65c-0.28-5.74-0.56-11.49-0.83-17.23
			c-0.02-0.5-0.06-1.02,0.03-1.51c0.13-0.71,0.68-1,1.34-0.7c0.45,0.2,0.86,0.53,1.25,0.84c7.44,5.87,14.87,11.75,22.3,17.63
			c0.4,0.31,0.78,0.65,1.21,0.92c1.46,0.89,2.91,0.18,3.12-1.51c0.11-0.87,0.18-1.74,0.27-2.61c0.5-5.13,1-10.25,1.5-15.38
			c0.6-6.13,1.21-12.26,1.81-18.4c0.52-5.31,1.04-10.62,1.57-15.93c0.28-2.84,0.57-5.67,0.82-8.51
			C177.89,214.27,177.36,213.59,176.15,213.32z M130.61,273.71c-2.6,0-4.7-2.11-4.7-4.7c0-2.6,2.11-4.7,4.7-4.7s4.7,2.11,4.7,4.7
			C135.31,271.61,133.21,273.71,130.61,273.71z M130.61,255.43c-2.6,0-4.7-2.11-4.7-4.7s2.11-4.7,4.7-4.7s4.7,2.11,4.7,4.7
			S133.21,255.43,130.61,255.43z M130.61,238.23c-2.6,0-4.7-2.11-4.7-4.7c0-2.6,2.11-4.7,4.7-4.7s4.7,2.11,4.7,4.7
			C135.31,236.13,133.21,238.23,130.61,238.23z M146.78,249.56c-2.6,0-4.7-2.11-4.7-4.7c0-2.6,2.11-4.7,4.7-4.7
			c2.6,0,4.7,2.11,4.7,4.7C151.48,247.45,149.37,249.56,146.78,249.56z M163.18,261.93c-2.6,0-4.7-2.11-4.7-4.7
			c0-2.6,2.11-4.7,4.7-4.7c2.6,0,4.7,2.11,4.7,4.7C167.89,259.82,165.78,261.93,163.18,261.93z M164.65,244.85
			c-2.6,0-4.7-2.11-4.7-4.7c0-2.6,2.11-4.7,4.7-4.7c2.6,0,4.7,2.11,4.7,4.7C169.36,242.75,167.25,244.85,164.65,244.85z
			 M165.63,228.83c-2.6,0-4.7-2.11-4.7-4.7s2.11-4.7,4.7-4.7c2.6,0,4.7,2.11,4.7,4.7S168.23,228.83,165.63,228.83z"/>
		<path class="st10" d="M230.98,277.56c-0.24-4.93-0.49-9.86-0.72-14.79c-0.1-2.12-0.39-2.42-2.49-2.47c-0.19,0-0.38,0-0.56,0.01
			c-2.11,0.13-4.22,0.27-6.34,0.38c-3.15,0.16-6.29,0.31-9.44,0.42c-1.05,0.04-1.51-0.28-1.55-1.22c-0.09-1.92-0.1-3.85,0-5.76
			c0.05-1.01,0.65-1.42,1.72-1.48c3.61-0.2,7.23-0.39,10.85-0.56c2.12-0.1,2.9-0.87,2.86-2.95c-0.06-2.77-0.12-5.55-0.19-8.32
			c-0.05-1.87-0.69-2.49-2.51-2.37c-2.58,0.16-5.16,0.36-7.74,0.54c-1.36,0.09-2.72,0.23-4.08,0.26c-1.27,0.03-1.68-0.4-1.74-1.67
			c-0.04-0.75-0.04-1.51-0.01-2.26c0.06-1.42,0.58-2.04,1.98-2.32c0.59-0.12,1.21-0.14,1.82-0.17c4.84-0.25,9.67-0.49,14.51-0.74
			c1.46-0.08,2.04-0.59,2.05-1.94c0.01-5.27-0.01-10.53-0.06-15.8c-0.01-1.37-0.76-2.02-2.15-2.05c-0.19,0-0.38,0-0.56,0.01
			c-5.44,0.33-10.89,0.66-16.33,0.99c-5.49,0.33-10.98,0.64-16.48,0.97c-2.07,0.12-4.14,0.19-6.19,0.39
			c-1.94,0.19-3.03,1.42-3.13,3.36c-0.02,0.28-0.01,0.56-0.01,0.85c0.13,9.97,0.46,33.1,0.48,34.7c0.11,8.51,0.22,17.02,0.33,25.53
			c0.03,2.21,0.63,2.78,2.78,2.75c8.7-0.14,17.4-0.28,26.1-0.43c4.7-0.08,9.4-0.16,14.11-0.25c2.03-0.04,2.77-0.83,2.73-2.89
			C231.01,278.03,230.99,277.8,230.98,277.56z M222.75,274.17c-4.14,0.03-8.28,0.06-12.42,0.09c-1.98,0.01-3.96,0.03-5.94,0.04
			c-1.76,0.01-3.57,0.15-5.32-0.13c-6.59-1.05-5.83-9.6-6.04-14.55c-0.32-7.31-0.34-14.63-0.07-21.95
			c0.13-3.66,0.33-7.31,0.61-10.96c0.11-1.44,0.2-2.93,1.01-4.18c0.8-1.23,2.16-1.82,3.55-2.04c3.45-0.54,7.05-0.57,10.54-0.69
			c3.63-0.13,7.26-0.15,10.89-0.09c2.13,0.04,2.13,3.35,0,3.31c-3.63-0.06-7.26-0.04-10.89,0.09c-1.81,0.06-3.63,0.15-5.44,0.27
			c-1.61,0.1-3.52-0.03-5.06,0.47c-1.4,0.46-1.23,2.19-1.32,3.41c-0.11,1.55-0.22,3.1-0.3,4.65c-0.18,3.2-0.31,6.4-0.38,9.6
			c-0.03,1.23-0.04,2.47-0.05,3.7c6.33-0.6,12.68-0.91,19.03-0.92c2.14,0,2.13,3.31,0,3.31c-6.36,0.01-12.71,0.33-19.04,0.93
			c0.01,4.15,0.11,8.31,0.31,12.46c0.12,2.54-0.08,5.49,0.83,7.92c0.99,2.64,4.05,2.1,6.34,2.08c6.39-0.05,12.78-0.1,19.16-0.14
			C224.89,270.84,224.89,274.15,222.75,274.17z"/>
		<path class="st6" d="M312.1,222.46c-5.99-3.32-11.99-6.64-17.99-9.95c-1.79-0.99-3.11-0.4-3.6,1.59
			c-0.37,1.51-0.71,3.04-1.06,4.56c-0.88,3.87-1.75,7.74-2.66,11.61c-0.14,0.6-0.01,1.55-0.8,1.64c-0.43,0.05-1.01-0.55-1.42-0.96
			c-1.6-1.61-3.16-3.25-4.74-4.89c-0.76-0.78-1.48-1.6-2.28-2.33c-1.03-0.95-2.13-0.89-3.14,0.1c-0.2,0.2-0.38,0.42-0.56,0.64
			c-2.92,3.41-5.85,6.82-8.77,10.23c-0.68,0.79-1.34,1.6-2.04,2.36c-0.61,0.66-1.11,0.63-1.58-0.14c-0.29-0.48-0.46-1.03-0.64-1.57
			c-2.27-6.77-4.53-13.53-6.79-20.3c-0.12-0.36-0.22-0.73-0.37-1.07c-0.44-0.95-1.18-1.33-2.19-1.1c-0.36,0.08-0.71,0.25-1.05,0.41
			c-5.06,2.33-10.13,4.66-15.19,7.01c-0.51,0.24-1.04,0.5-1.45,0.87c-0.36,0.32-0.56,0.82-0.81,1.21c0.24,0.71,0.41,1.3,0.63,1.87
			c4.28,11.06,8.57,22.12,12.86,33.18c2.9,7.49,5.8,14.98,8.7,22.48c0.33,0.86,0.38,1.96,1.57,2.14c1.22,0.19,1.72-0.81,2.32-1.57
			c2.05-2.6,4.07-5.22,6.1-7.83c2.3-2.95,4.59-5.9,6.89-8.84c1.44-1.84,2.12-1.89,3.73-0.28c0.3,0.3,0.6,0.6,0.9,0.9
			c4.56,4.6,9.11,9.21,13.69,13.8c1.5,1.51,2.62,1.27,3.41-0.68c0.09-0.22,0.17-0.44,0.25-0.66c1.92-5.03,3.84-10.07,5.75-15.1
			c4.54-11.92,9.08-23.85,13.62-35.77C314.13,224.04,313.94,223.48,312.1,222.46z M247.14,233.14l-2.6,1.37
			c-0.53,0.28-1.15-0.17-1.05-0.76l0.5-2.9c0.04-0.24-0.04-0.47-0.21-0.64l-2.11-2.05c-0.43-0.42-0.19-1.15,0.4-1.23l2.91-0.42
			c0.24-0.03,0.44-0.18,0.55-0.4l1.3-2.64c0.27-0.54,1.03-0.54,1.3,0l1.3,2.64c0.11,0.21,0.31,0.36,0.54,0.4l2.91,0.42
			c0.59,0.09,0.83,0.82,0.4,1.23l-2.11,2.05c-0.17,0.17-0.25,0.41-0.21,0.64l0.5,2.9c0.1,0.59-0.52,1.04-1.05,0.76l-2.6-1.37
			C247.6,233.03,247.35,233.03,247.14,233.14z M253.17,250.34l-2.6,1.37c-0.53,0.28-1.15-0.17-1.05-0.76l0.5-2.9
			c0.04-0.23-0.04-0.47-0.21-0.64l-2.11-2.05c-0.43-0.42-0.19-1.15,0.4-1.23l2.91-0.42c0.24-0.03,0.44-0.18,0.55-0.4l1.3-2.64
			c0.27-0.54,1.03-0.54,1.3,0l1.3,2.64c0.11,0.21,0.31,0.36,0.55,0.4l2.91,0.42c0.59,0.09,0.83,0.82,0.4,1.23l-2.11,2.05
			c-0.17,0.17-0.25,0.41-0.21,0.64l0.5,2.9c0.1,0.59-0.52,1.04-1.05,0.76l-2.6-1.37C253.63,250.23,253.38,250.23,253.17,250.34z
			 M265.34,261.26l-2.11,2.05c-0.17,0.17-0.25,0.41-0.21,0.64l0.5,2.9c0.1,0.59-0.52,1.04-1.05,0.76l-2.6-1.37
			c-0.21-0.11-0.46-0.11-0.67,0l-2.6,1.37c-0.53,0.28-1.15-0.17-1.05-0.76l0.5-2.9c0.04-0.23-0.04-0.47-0.21-0.64l-2.11-2.05
			c-0.43-0.42-0.19-1.15,0.4-1.23l2.91-0.42c0.24-0.03,0.44-0.18,0.55-0.4l1.3-2.64c0.27-0.54,1.03-0.54,1.3,0l1.3,2.64
			c0.11,0.21,0.31,0.36,0.54,0.4l2.91,0.42C265.53,260.11,265.77,260.84,265.34,261.26z M280.81,250.02l-2.11,2.05
			c-0.17,0.17-0.25,0.41-0.21,0.64l0.5,2.9c0.1,0.59-0.52,1.04-1.05,0.76l-2.6-1.37c-0.21-0.11-0.46-0.11-0.67,0l-2.6,1.37
			c-0.53,0.28-1.15-0.17-1.05-0.76l0.5-2.9c0.04-0.24-0.04-0.47-0.21-0.64l-2.11-2.05c-0.43-0.42-0.19-1.15,0.4-1.23l2.91-0.42
			c0.24-0.03,0.44-0.18,0.54-0.4l1.3-2.64c0.27-0.54,1.03-0.54,1.3,0l1.3,2.64c0.11,0.21,0.31,0.36,0.54,0.4l2.91,0.42
			C281,248.87,281.24,249.6,280.81,250.02z M282.01,235.88l-2.11,2.05c-0.17,0.17-0.25,0.41-0.21,0.64l0.5,2.9
			c0.1,0.59-0.52,1.04-1.05,0.76l-2.6-1.37c-0.21-0.11-0.46-0.11-0.67,0l-2.6,1.37c-0.53,0.28-1.15-0.17-1.05-0.76l0.5-2.9
			c0.04-0.23-0.04-0.47-0.21-0.64l-2.11-2.05c-0.43-0.42-0.19-1.15,0.4-1.23l2.91-0.42c0.24-0.03,0.44-0.18,0.54-0.4l1.3-2.64
			c0.27-0.54,1.03-0.54,1.3,0l1.3,2.64c0.11,0.21,0.31,0.36,0.54,0.4l2.91,0.42C282.2,234.73,282.44,235.46,282.01,235.88z
			 M294.06,259.05l-2.11,2.05c-0.17,0.17-0.25,0.41-0.21,0.64l0.5,2.9c0.1,0.59-0.52,1.04-1.05,0.76l-2.6-1.37
			c-0.21-0.11-0.46-0.11-0.67,0l-2.6,1.37c-0.53,0.28-1.15-0.17-1.05-0.76l0.5-2.9c0.04-0.23-0.04-0.47-0.21-0.64l-2.11-2.05
			c-0.43-0.42-0.19-1.15,0.4-1.23l2.91-0.42c0.24-0.03,0.44-0.18,0.54-0.4l1.3-2.64c0.27-0.54,1.03-0.54,1.3,0l1.3,2.64
			c0.11,0.21,0.31,0.36,0.55,0.4l2.91,0.42C294.26,257.9,294.49,258.63,294.06,259.05z M300.09,243.15l-2.11,2.05
			c-0.17,0.17-0.25,0.41-0.21,0.64l0.5,2.9c0.1,0.59-0.52,1.04-1.05,0.76l-2.6-1.37c-0.21-0.11-0.46-0.11-0.67,0l-2.6,1.37
			c-0.53,0.28-1.15-0.17-1.05-0.76l0.5-2.9c0.04-0.23-0.04-0.47-0.21-0.64l-2.11-2.05c-0.43-0.42-0.19-1.15,0.4-1.23l2.91-0.42
			c0.24-0.03,0.44-0.18,0.54-0.4l1.3-2.64c0.27-0.54,1.03-0.54,1.3,0l1.3,2.64c0.11,0.21,0.31,0.36,0.54,0.4l2.91,0.42
			C300.28,242,300.52,242.73,300.09,243.15z M306.12,225.95l-2.11,2.05c-0.17,0.17-0.25,0.41-0.21,0.64l0.5,2.9
			c0.1,0.59-0.52,1.04-1.05,0.76l-2.6-1.37c-0.21-0.11-0.46-0.11-0.67,0l-2.6,1.37c-0.53,0.28-1.15-0.17-1.05-0.76l0.5-2.9
			c0.04-0.24-0.04-0.47-0.21-0.64l-2.11-2.05c-0.43-0.42-0.19-1.15,0.4-1.23l2.91-0.42c0.24-0.03,0.44-0.18,0.54-0.4l1.3-2.64
			c0.27-0.54,1.03-0.54,1.3,0l1.3,2.64c0.11,0.21,0.31,0.36,0.54,0.4l2.91,0.42C306.31,224.8,306.55,225.53,306.12,225.95z"/>
	</g>
	<path d="M160.49,298.69c-1.08,1.03-1.52,2.23-1.94,3.44c-1.35,3.95-2.29,8.01-2.71,12.15c-0.95,9.58-0.1,19.01,2.77,28.23
		c1.61,5.18,4.2,9.85,7.33,14.23c1.02,1.42,2.12,2.8,3.86,3.65c0.4-0.27,0.87-0.46,1.13-0.81c0.76-1.02,1.54-2.05,2.13-3.18
		c2.9-5.54,5.25-11.31,7.48-17.14c0.35-0.93,0.35-1.85,0.28-2.82c-0.43-5.36-0.41-10.71,0.29-16.05c0.15-1.15-0.02-2.2-0.39-3.28
		c-1.52-4.4-1.92-8.9-0.95-13.48c0.84-3.92,2.5-7.42,5.44-10.22c2.87-2.73,6.23-4.12,10.25-3.77c1.96,0.17,3.79,0.74,5.41,1.79
		c1.53,0.99,3.04,2.1,4.35,3.37c4.86,4.71,7.7,10.54,9.11,17.11c0.74,3.45,1.07,6.95,1.37,10.46c0.04,0.48,0.07,0.95,0.13,1.63
		c0.44-0.17,0.81-0.23,1.08-0.43c1.21-0.92,2.38-1.88,3.58-2.83c0.11-0.83,0.19-1.63,0.34-2.41c0.36-1.83,0.29-3.59-0.26-5.43
		c-0.99-3.33-1.2-6.76-0.46-10.21c0.07-0.31,0.12-0.63,0.21-0.94c2.65-9.61,11.6-11.93,18.48-8.97c2.23,0.96,4.19,2.33,5.93,4.02
		c4.3,4.19,7.05,9.27,8.5,15.06c0.86,3.42,1.36,6.9,1.56,10.43c0.06,1.09-0.04,2.23,0.53,3.36c0.59-0.19,1.1-0.36,1.71-0.56
		c0.07-0.54,0.18-1.08,0.21-1.62c0.29-5.19,0.54-10.39,1.29-15.54c0.43-2.93,1-5.83,1.94-8.65c1-3.01,2.57-5.68,4.88-7.88
		c2.23-2.12,4.85-3.35,8-3.22c3.07,0.13,5.33,1.56,6.73,4.28c1.56,3.03,1.91,6.28,1.25,9.58c-1.53,7.6-5.02,14.16-10.9,19.27
		c-1.56,1.35-2.13,2.72-2.14,4.71c-0.07,8.69,0.94,17.25,2.78,25.72c0.56,2.59,1.43,5.08,2.8,7.37c0.53,0.88,1.06,1.78,2.04,2.25
		c0.82-0.49,1.01-1.3,1.32-2.01c1.14-2.57,1.9-5.28,2.38-8.04c0.63-3.62,1.08-7.27,1.59-10.92c0.14-1.03,0.23-2.07,0.35-3.1
		c0.16-1.28,0.96-1.98,2.15-2.27c1.08-0.26,1.95,0.39,1.93,1.49c-0.02,1.04-0.14,2.07-0.22,3.11c-0.43,5.67-0.97,11.33-2.39,16.85
		c-0.51,2-1.15,4.01-2.02,5.88c-2.15,4.64-6.65,6.06-11.24,3.73c-1.82-0.93-3.29-2.26-4.54-3.85c-1.59-2.03-2.79-4.29-3.74-6.68
		c-1.81-4.56-3.02-9.28-3.46-14.17c-0.32-3.58-0.55-7.18-0.83-10.77c-0.03-0.39-0.09-0.77-0.15-1.3c-0.64,0.13-1.17,0.24-1.84,0.38
		c-0.06,0.71-0.13,1.41-0.16,2.12c-0.3,6.25-0.97,12.44-2.73,18.47c-0.86,2.93-1.97,5.75-3.68,8.3c-1.84,2.75-4.26,4.74-7.45,5.74
		c-3.76,1.18-7.27,0.65-10.53-1.53c-2.52-1.68-4.39-3.95-5.72-6.66c-1.57-3.18-2.62-6.53-3.36-9.98c-1.21-5.58-1.63-11.23-1.5-16.94
		c0.02-0.76,0.14-1.55-0.07-2.24c-0.25-0.05-0.35-0.1-0.39-0.07c-1.22,0.89-2.44,1.8-3.68,2.72c-0.21,2.96-0.37,5.91-0.62,8.85
		c-0.39,4.63-1.08,9.21-2.38,13.69c-0.7,2.39-1.6,4.7-3.01,6.77c-2.03,2.98-4.78,4.9-8.41,5.42c-2.72,0.39-5.25-0.27-7.62-1.56
		c-3.1-1.68-5.52-4.12-7.21-7.19c-1.08-1.95-1.88-4.06-2.79-6.1c-0.32-0.72-0.57-1.48-0.95-2.47c-0.35,0.7-0.61,1.15-0.82,1.64
		c-1.42,3.3-2.83,6.62-4.26,9.92c-0.38,0.88-0.84,1.73-1.32,2.55c-0.82,1.39-1.86,2.6-3.18,3.56c-3.14,2.28-6.52,2.87-10.2,1.47
		c-1.74-0.67-3.28-1.65-4.71-2.83c-2.94-2.43-5.2-5.41-6.99-8.77c-2.51-4.7-4.08-9.73-5.23-14.89c-1.38-6.2-2.01-12.48-1.87-18.82
		c0.11-5.22,0.75-10.37,2.28-15.38c0.66-2.15,1.47-4.23,2.71-6.12c1.43-2.19,3.24-3.97,5.6-5.12c3.25-1.59,6.48-1.52,9.66,0.23
		c1.93,1.06,3.52,2.52,4.73,4.34c2.87,4.31,4.28,9.08,4.24,14.27c0,0.63-0.1,1.28-0.28,1.89c-0.26,0.86-1.15,1.48-1.98,1.5
		c-0.85,0.02-1.62-0.54-1.92-1.52c-0.28-0.92-0.46-1.86-0.67-2.8c-0.57-2.5-1.3-4.95-2.42-7.27c-0.81-1.66-1.76-3.23-3.08-4.55
		C162.49,299.61,161.75,298.88,160.49,298.69z M209.87,327.52c0.28-2.59-0.12-4.97-0.35-7.35c-0.41-4.32-1.3-8.54-2.86-12.6
		c-1.51-3.93-3.63-7.48-6.6-10.49c-1.07-1.09-2.23-2.07-3.63-2.72c-1.58-0.74-3.11-0.65-4.54,0.36c-1.13,0.79-2.02,1.81-2.72,3
		c-1.83,3.12-2.65,6.49-2.61,10.09c0,0.3,0.12,0.6,0.19,0.97c0.78,0.04,1.49,0.04,2.19,0.12c1.87,0.22,3.07,1.29,3.41,3.16
		c0.16,0.85,0.19,1.75,0.14,2.62c-0.11,1.92-0.22,3.84-0.49,5.74c-0.17,1.18,0.22,1.97,1.01,2.76c2.45,2.45,5.37,4.06,8.71,4.8
		C204.41,328.58,207.12,328.72,209.87,327.52z M231.68,320.1c4.57,4.86,11.55,7.5,16.74,6.45c0.06-0.14,0.17-0.28,0.17-0.42
		c-0.12-5.54-0.86-11-2.63-16.27c-1.34-3.99-3.41-7.57-6.34-10.62c-1.11-1.16-2.35-2.16-3.82-2.86c-3.18-1.5-5.77-0.78-7.63,2.18
		c-1.27,2.01-1.84,4.24-1.88,6.6c-0.01,0.44,0.14,0.89,0.23,1.35c0.69,0,1.25-0.03,1.81,0.01c2.8,0.19,4.17,1.65,4.17,4.5
		c0,0.8-0.1,1.59-0.17,2.39C232.12,315.62,231.9,317.85,231.68,320.1z M231.35,327.5c-0.07,0.44-0.15,0.74-0.16,1.04
		c-0.12,3.68,0.07,7.35,0.58,10.99c0.5,3.56,1.28,7.07,2.71,10.4c0.95,2.21,2.1,4.31,3.75,6.09c2.16,2.33,3.4,2.28,4.99-0.4
		c0.97-1.63,1.74-3.42,2.38-5.21c2.11-5.92,2.92-12.09,3.16-18.34c0.01-0.3-0.09-0.6-0.16-1.01c-2.06-0.07-4.05-0.01-6.01-0.24
		c-1.89-0.22-3.78-0.63-5.61-1.18C235.09,329.08,233.29,328.25,231.35,327.5z M209.7,332.36c-1.27,0.2-2.36,0.43-3.46,0.54
		c-4.37,0.45-8.6-0.02-12.64-1.83c-0.53-0.24-1.06-0.77-1.9-0.29c0,0.4-0.01,0.87,0,1.34c0.05,2.65,0.44,5.25,1.05,7.82
		c1.04,4.37,2.47,8.6,5,12.36c0.89,1.32,1.94,2.53,3.02,3.7c0.69,0.75,1.54,1.4,2.71,1.38c1.08-0.77,1.76-1.86,2.25-3.04
		c0.67-1.62,1.33-3.26,1.8-4.94c1.48-5.25,2.01-10.65,2.35-16.08C209.89,333.09,209.8,332.86,209.7,332.36z M273.68,293.43
		c-0.43,0.67-0.79,1.11-1,1.61c-0.42,1.03-0.82,2.08-1.12,3.15c-1.31,4.7-2.01,9.51-2.47,14.36c-0.13,1.32-0.21,2.65-0.33,4.13
		c0.39-0.19,0.65-0.24,0.78-0.4c3.75-4.65,6.05-9.91,6.58-15.89c0.14-1.6-0.18-3.18-0.78-4.68
		C275.02,294.91,274.65,294.13,273.68,293.43z"/>
	<g>
		<path d="M284.46,126.14c-0.26,0.76-0.42,1.19-0.56,1.61c-0.64,1.97-1.23,3.97-1.95,5.91c-0.47,1.28-1.25,2.41-2.24,3.37
			c-2.5,2.44-5.97,3.01-9.06,1.39c-0.98-0.51-1.91-1.17-2.76-1.89c-2.79-2.36-4.95-5.22-6.54-8.5c-0.34-0.71-0.69-1.42-1.15-2.35
			c-0.32,0.6-0.56,0.98-0.73,1.38c-0.81,2-1.57,4.02-2.41,6.01c-0.4,0.95-0.86,1.9-1.43,2.76c-2.13,3.18-5.85,4.14-9.29,2.44
			c-2.01-0.99-3.46-2.56-4.58-4.46c-1.57-2.65-2.45-5.55-2.99-8.56c-1.01-5.7-1.2-11.46-1.14-17.22c0.06-5.68,0.29-11.36,0.36-17.04
			c0.04-3.12-0.05-6.24-0.18-9.36c-0.06-1.43-0.36-2.85-0.61-4.27c-0.09-0.52-0.33-1.01-0.49-1.45c-0.76-0.06-0.99,0.42-1.26,0.78
			c-1.38,1.78-2.47,3.73-3.41,5.78c-2.34,5.13-3.8,10.53-4.79,16.05c-1.5,8.38-1.93,16.84-1.64,25.35c0.09,2.72,0.07,5.45,0.23,8.16
			c0.11,1.79-0.93,3.77-3.48,4.62c-1.64,0.55-2.97,0.09-4.01-1.32c-0.38-0.51-0.69-1.08-0.99-1.64c-1.58-2.88-2.91-5.87-3.97-8.99
			c-0.15-0.44-0.34-0.86-0.5-1.25c-0.65-0.03-0.5,0.42-0.54,0.66c-0.35,2.21-0.63,4.44-1.02,6.64c-0.21,1.18-0.51,2.35-0.89,3.48
			c-1.02,3.04-5.18,5.43-8.85,2.52c-1.36-1.08-2.58-2.4-3.65-3.78c-2.28-2.93-3.88-6.24-4.87-9.83c-0.21-0.75-0.43-1.49-0.64-2.21
			c-0.65-0.03-0.7,0.44-0.87,0.78c-1.24,2.42-2.45,4.85-3.72,7.26c-0.45,0.84-0.96,1.67-1.56,2.42c-2.67,3.38-6.97,4.55-11,3.02
			c-1.97-0.75-3.69-1.91-5.31-3.23c-1.99-1.63-3.78-3.47-5.3-5.54c-1.65-2.26-3.17-4.61-4.73-6.93c-0.39-0.59-0.74-1.21-1.27-2.08
			c-0.25,0.6-0.47,0.91-0.5,1.23c-0.25,3.03-0.48,6.06-0.69,9.09c-0.11,1.68-0.18,3.36-0.24,5.04c-0.11,3.18-3.31,5.2-5.59,5.3
			c-1.37,0.06-2.48-0.45-3.45-1.39c-1.85-1.79-3.46-3.77-4.7-6.04c-2.18-4.01-4.14-8.12-5.67-12.43c-0.29-0.82-0.61-1.64-0.99-2.63
			c-0.45,0.33-0.85,0.55-1.15,0.86c-2.05,2.04-3.94,4.2-5.54,6.62c-2.2,3.32-3.69,6.9-4.2,10.87c-0.07,0.55-0.17,1.12-0.39,1.62
			c-0.31,0.71-0.93,1.08-1.73,1.07c-0.71,0-1.26-0.43-1.48-1.32c-0.17-0.69-0.26-1.42-0.26-2.13c0-3.18,0.84-6.16,2.23-9
			c1.63-3.34,3.87-6.25,6.47-8.88c1.52-1.53,3.04-3.07,4.57-4.62c-0.5-2.76-1.06-5.5-1.5-8.25c-0.97-6.12-1.17-12.26-0.28-18.41
			c0.45-3.11,1.31-6.1,2.92-8.83c1.76-2.98,4.28-4.91,7.74-5.54c4.17-0.76,8.32,1.18,10.35,4.9c0.93,1.7,1.49,3.53,1.64,5.48
			c0.25,3.17-0.29,6.22-1.27,9.21c-1.7,5.22-4.3,10-7.6,14.36c-1.2,1.58-1.53,2.99-0.85,4.83c1.08,2.92,1.99,5.91,3,8.85
			c0.17,0.49,0.5,0.93,0.72,1.34c0.64-0.04,0.56-0.45,0.61-0.72c1.45-8.38,3.63-16.55,6.69-24.49c1.38-3.59,2.94-7.1,4.92-10.4
			c1.1-1.85,2.31-3.66,3.68-5.31c2.11-2.53,4.82-4.15,8.16-4.62c5.61-0.8,11.71,3.06,12.71,9.13c0.47,2.86,0.06,5.59-0.86,8.26
			c-2.34,6.77-6.95,11.6-13.15,14.95c-2.02,1.09-4.23,1.85-6.53,2.83c-0.09,0.82,0.22,1.73,0.49,2.61
			c1.87,6.21,4.86,11.82,9.07,16.77c0.99,1.16,2.04,2.26,3.46,2.92c1.05,0.48,1.6,0.42,2.37-0.4c0.49-0.52,0.92-1.11,1.3-1.71
			c3.04-4.82,5.38-10,7.53-15.26c0.26-0.63,0.32-1.4,0.28-2.1c-0.48-8.24-0.39-16.48,0.29-24.71c0.1-1.18,0.38-2.37,0.76-3.5
			c1.18-3.56,5.81-4.17,8.21-2.48c0.89,0.63,1.51,1.47,1.6,2.56c0.13,1.51,0.26,3.03,0.24,4.55c-0.05,4.16-0.19,8.32-0.28,12.48
			c-0.12,5.29,0.09,10.57,0.97,15.79c0.74,4.34,1.7,8.63,3.07,12.82c0.22,0.66,0.54,1.29,0.97,2.31c0.3-0.97,0.54-1.54,0.63-2.12
			c0.98-6.24,1.95-12.49,2.88-18.74c0.13-0.86,0.05-1.76-0.03-2.63c-0.51-5.67-0.47-11.36-0.22-17.03c0.09-2.07,0.36-4.16,0.84-6.17
			c0.74-3.09,3.58-4.63,6.65-3.89c1.95,0.47,3.03,1.7,3.35,3.62c0.12,0.71,0.13,1.44,0.13,2.15c0,2.16-0.04,4.32-0.06,6.48
			c-0.01,0.79,0,1.58,0,2.45c0.23-0.11,0.36-0.14,0.37-0.19c0.22-0.85,0.43-1.7,0.62-2.55c1.02-4.53,2.16-9.02,3.87-13.35
			c1.06-2.69,2.3-5.29,4.1-7.57c2.71-3.43,6.31-4.55,10.48-3.73c3.01,0.59,5.16,2.46,6.5,5.22c1.1,2.26,1.63,4.67,1.95,7.14
			c0.65,5.11,0.48,10.23,0.24,15.34c-0.33,6.96-0.58,13.92-0.25,20.88c0.23,4.88,0.98,9.71,1.93,14.5c0.27,1.36,0.31,1.35,1.28,2.59
			c0.36-0.57,0.77-1.06,1.01-1.63c1.64-3.91,3.25-7.83,4.87-11.74c0.32-0.76,0.27-1.53,0.17-2.34c-0.35-2.78-0.72-5.56-0.87-8.35
			c-0.3-5.47,0.23-10.88,1.75-16.15c0.82-2.86,2.02-5.58,3.94-7.89c3.05-3.67,6.94-4.94,11.6-3.96c1.99,0.42,3.78,1.26,5.42,2.46
			c0.58,0.42,1.14,0.86,1.88,1.41c0.24-0.69,0.48-1.25,0.62-1.83c0.67-2.81,1.59-5.53,2.9-8.11c0.95-1.86,2.07-3.62,3.56-5.09
			c2.24-2.22,4.89-3.55,8.11-3.64c2.67-0.07,4.83,0.94,6.55,2.93c2.12,2.45,3.17,5.33,3.38,8.55c0.2,3.08-0.32,6.06-1.21,8.99
			c-2.42,7.99-6.5,14.93-12.83,20.47c-0.12,0.1-0.2,0.24-0.38,0.46c-0.23,2.08,0.22,4.21,0.62,6.31c0.83,4.32,1.83,8.6,2.84,12.88
			c0.46,1.95,1.29,3.78,2.33,5.51c0.88,1.47,1.44,1.96,2.98,2.7c0.71-0.53,0.99-1.38,1.35-2.16c1.01-2.2,1.54-4.55,1.9-6.92
			c0.53-3.48,0.96-6.97,1.45-10.46c0.1-0.71,0.2-1.43,0.42-2.11c0.35-1.04,1.1-1.49,2.22-1.47c0.75,0.02,1.18,0.4,1.25,1.17
			c0.04,0.48,0.04,0.96,0.01,1.44c-0.46,5.58-0.98,11.17-2.42,16.6c-0.45,1.69-1.08,3.36-1.88,4.91c-1.63,3.16-4.99,4.63-8.49,3.96
			c-2.36-0.45-4.32-1.65-6.03-3.27c-2.36-2.22-4.12-4.88-5.53-7.79C285.23,127.71,284.92,127.09,284.46,126.14z M276.2,133.62
			c1.12-1.39,1.45-2.89,1.89-4.31c1.46-4.66,2.51-9.42,3.41-14.22c0.18-0.94,0.22-1.88,0.11-2.86c-0.27-2.38-0.55-4.78-0.6-7.17
			c-0.1-4.16-0.03-8.32-0.03-12.48c0-0.79,0-1.59,0-2.52c-0.74-0.64-1.5-1.34-2.32-1.97c-0.63-0.48-1.32-0.92-2.02-1.28
			c-2-1.02-2.79-0.82-4.03,0.99c-1.51,2.21-2.44,4.67-3.07,7.25c-1.35,5.59-1.42,11.25-0.78,16.93c0.54,4.79,1.79,9.42,3.24,14
			c0.55,1.74,1.34,3.42,2.11,5.08C274.55,132.01,275.1,132.91,276.2,133.62z M299.28,71c-0.46,0.58-0.82,0.99-1.13,1.44
			c-2.19,3.2-3.58,6.75-4.52,10.49c-1.55,6.09-1.77,12.29-1.49,18.53c0,0.1,0.2,0.19,0.39,0.36c0.32-0.33,0.66-0.65,0.95-1
			c4.21-5.08,6.76-10.95,8.28-17.32c0.54-2.28,0.67-4.58,0.41-6.89C301.92,74.49,301.25,72.56,299.28,71z M174.08,79.59
			c-1.08,0.14-1.6,0.79-2.17,1.33c-1.52,1.44-2.7,3.16-3.75,4.96c-2.4,4.09-4.12,8.48-5.57,12.98c-0.06,0.18,0.05,0.42,0.09,0.67
			c1.46,0.1,2.75-0.31,3.98-0.89c4.9-2.3,7.85-6.22,9.07-11.41c0.32-1.37,0.21-2.87,0.1-4.29C175.74,81.66,175.2,80.48,174.08,79.59
			z M144.83,98.1c0.53-0.71,0.83-1.06,1.06-1.44c1.5-2.55,2.85-5.19,3.8-7.99c0.61-1.81,1.09-3.67,1.46-5.55
			c0.45-2.33,0.14-4.63-0.94-6.76c-0.5-0.99-1.09-1.97-2.33-2.2C144.5,78.03,143.32,90.15,144.83,98.1z"/>
		<path d="M202.27,70.52c0,3.08-2.52,5.63-5.6,5.67c-3.1,0.04-5.84-2.66-5.83-5.75c0-3.06,2.56-5.62,5.63-5.64
			C199.65,64.78,202.27,67.37,202.27,70.52z"/>
	</g>
</g>
</svg>
