<?xml version="1.0" encoding="utf-8"?>
<!-- Generator: Adobe Illustrator 25.2.1, SVG Export Plug-In . SVG Version: 6.00 Build 0)  -->
<svg version="1.1" id="Calque_1" xmlns="http://www.w3.org/2000/svg" xmlns:xlink="http://www.w3.org/1999/xlink" x="0px" y="0px"
	 viewBox="0 0 432 432" style="enable-background:new 0 0 432 432;" xml:space="preserve">
<style type="text/css">
	.st0{fill:#F9D53D;}
	.st1{fill:#D3B844;}
	.st2{fill:#E0AAAF;}
	.st3{fill:#BA9196;}
	.st4{fill:#EAB978;}
	.st5{fill:#FBB03B;}
	.st6{fill:#A1C3CE;}
	.st7{fill:#8CC63F;}
	.st8{fill:#C7B299;}
	.st9{fill:#CCCCCC;}
	.st10{fill:#C44750;}
	.st11{fill:#998675;}
	.st12{fill:#29ABE2;}
	.st13{fill:#C79C52;}
	.st14{fill:#766FBF;}
	.st15{fill:#E8A3AB;}
</style>
<g>
	<path class="st13" d="M128.84,80.1c1.06-2.75,2.02-5.16,2.93-7.6c0.72-1.92,1.35-3.87,2.06-5.78c0.51-1.38,1.25-2.03,2.09-1.9
		c1.08,0.17,1.53,0.99,1.8,1.92c0.66,2.23,1.27,4.48,1.95,6.7c0.4,1.31,0.69,2.67,1.38,3.83c0.69,0.05,0.89-0.42,1.13-0.79
		c1.64-2.49,3.25-4.99,4.9-7.48c0.41-0.62,0.83-1.25,1.36-1.76c0.8-0.78,2.06-0.5,2.61,0.47c0.39,0.68,0.4,1.42,0.43,2.17
		c0.12,3.07,0.31,6.14,0.31,9.21c0.01,5.4-0.08,10.8-0.17,16.2c-0.04,2.7-0.49,3.06-3.22,2.7c-7.08-0.93-14.12-0.55-21.16,0.44
		c-1.11,0.16-2.2,0.39-3.31,0.51c-1.53,0.17-2.28-0.33-2.64-1.84c-0.36-1.54-0.61-3.11-0.91-4.66c-1.16-5.94-2.59-11.82-4.17-17.66
		c-0.22-0.81-0.47-1.62-0.52-2.45c-0.09-1.48,1.35-2.41,2.67-1.71c0.81,0.43,1.57,1,2.24,1.63c2.31,2.17,4.56,4.39,6.84,6.59
		C127.79,79.16,128.13,79.46,128.84,80.1z"/>
	<g>
		<path class="st13" d="M273.72,187.47c-1.37-0.73-2.28-1.92-3.06-3.22c-0.79-1.32-2.46-9.14-4.67-2.42
			c-1.2,3.64-3.63,4.86-4.49,5.77c-2.15,2.27,4.17,3.12,5.4,9.63c0.45,2.41,1.9,1.95,2.26,1.1c0.93-2.18,1.59-5.39,4.83-7.82
			C275.18,189.62,275.57,188.45,273.72,187.47z"/>
		<path class="st13" d="M328.09,125.23c-1.37-0.73-2.28-1.92-3.06-3.22c-0.79-1.32-2.46-9.14-4.67-2.42
			c-1.2,3.64-3.63,4.86-4.49,5.77c-2.15,2.27,4.17,3.12,5.4,9.63c0.45,2.41,1.9,1.95,2.26,1.1c0.93-2.18,1.59-5.39,4.83-7.82
			C329.56,127.37,329.94,126.21,328.09,125.23z"/>
		<path class="st13" d="M105.96,143.26c-1.37-0.73-2.28-1.92-3.06-3.22c-0.79-1.32-2.46-9.14-4.67-2.42
			c-1.2,3.64-3.63,4.86-4.49,5.77c-2.15,2.27,4.17,3.12,5.4,9.63c0.45,2.41,1.9,1.95,2.26,1.1c0.93-2.18,1.59-5.39,4.83-7.82
			C107.42,145.4,107.81,144.24,105.96,143.26z"/>
		<path class="st13" d="M335.06,267.22c-1.37-0.73-2.28-1.92-3.06-3.22c-0.79-1.32-2.46-9.14-4.67-2.42
			c-1.2,3.64-3.63,4.86-4.49,5.77c-2.15,2.27,4.17,3.12,5.4,9.63c0.45,2.41,1.9,1.95,2.26,1.1c0.93-2.18,1.59-5.39,4.83-7.82
			C336.53,269.37,336.91,268.2,335.06,267.22z"/>
		<path class="st13" d="M166.67,257.28c-1.37-0.73-2.28-1.92-3.06-3.22c-0.79-1.32-2.46-9.14-4.67-2.42
			c-1.2,3.64-3.63,4.86-4.49,5.77c-2.15,2.27,4.17,3.12,5.4,9.63c0.45,2.41,1.9,1.95,2.26,1.1c0.93-2.18,1.59-5.39,4.83-7.82
			C168.13,259.43,168.52,258.26,166.67,257.28z"/>
	</g>
	<g>
		<g>
			<path d="M138.66,252.26c-0.08,4.86-0.46,8.69-1.27,12.47c-0.13,0.6-0.36,1.21-0.68,1.74c-0.43,0.71-1.05,0.9-1.84,0.57
				c-1.01-0.41-1.99-0.88-2.97-1.35c-3.05-1.47-6.07-3.03-9.16-4.43c-5.43-2.45-11.16-3.8-17.06-4.54c-0.58-0.07-1.17-0.14-1.73-0.3
				c-0.28-0.08-0.72-0.39-0.71-0.57c0.02-0.31,0.29-0.64,0.55-0.87c0.24-0.22,0.58-0.32,0.89-0.47c4.2-2.02,8.6-3.52,13.03-4.95
				c5.98-1.93,12.04-3.58,18.21-4.8c1.62-0.32,2.07-0.03,2.24,1.61C138.38,248.64,138.55,250.94,138.66,252.26z"/>
			<path d="M289.03,204.39c-0.89,0.01-1.27-0.24-1.4-1.08c-0.22-1.45-0.41-2.91-0.49-4.37c-0.28-4.75,0.08-9.46,1.01-14.13
				c0.13-0.65,0.3-1.32,0.58-1.91c0.48-1.03,1.22-1.29,2.27-0.85c1.04,0.44,2.06,0.93,3.07,1.45c4.03,2.06,8.05,4.13,12.32,5.66
				c4.4,1.57,8.93,2.56,13.55,3.14c0.62,0.08,1.25,0.17,1.85,0.33c0.25,0.07,0.6,0.34,0.61,0.53c0.01,0.27-0.19,0.63-0.4,0.82
				c-0.27,0.24-0.65,0.37-0.99,0.53c-4.97,2.37-10.18,4.08-15.42,5.71c-5.16,1.6-10.38,2.98-15.69,4.03
				C289.56,204.3,289.23,204.35,289.03,204.39z"/>
			<g>
				<path d="M167.77,199.07c-0.45-0.11-0.88-0.19-1.29-0.24c-0.53-0.06-1.04-0.06-1.52,0c-0.36,0.04-0.61,0.2-0.77,0.49l-0.11,0.2
					c-0.22,0.41-0.43,0.8-0.53,1.19c-0.28,1.08-0.56,2.23-0.7,3.37c-0.63,5.07-1.22,10.14-1.77,15.07
					c-0.15,1.35-0.21,2.74-0.26,4.08l-0.02,0.47c-0.03,0.76,0.1,1.5,0.38,2.22c0.28,0.7,0.74,1.15,1.38,1.33
					c0.65,0.18,1.25,0.28,1.78,0.27c0.86,0,1.47-0.39,1.8-1.15c0.18-0.4,0.32-0.82,0.44-1.26c0.47-1.82,0.72-3.71,0.91-5.34
					c0.24-1.99,1.34-13.22,1.62-16.81v0c0.08-1.03,0-1.95-0.26-2.81C168.69,199.56,168.34,199.21,167.77,199.07z"/>
				<path d="M328.43,244.41c-0.33-3.21-0.6-6.43-0.88-9.64c-0.65-7.52-1.01-15.06-1.21-23.88c0.06-3.21,0.14-7.7,0.2-12.19
					c0.01-0.75-0.04-1.51-0.16-2.25c-0.13-0.83-0.54-1.03-1.35-0.76c-0.35,0.12-0.69,0.31-1.03,0.47c-1.83,0.84-3.62,1.76-5.48,2.52
					c-5.13,2.09-10.39,3.78-15.71,5.3c-7.75,2.22-15.59,3.95-23.65,4.59c-8.48,0.67-16.92,0.32-25.35-0.77
					c-7.28-0.94-14.45-2.46-21.61-4.07c-11.98-2.69-23.79-6.05-35.54-9.58c-9.31-2.8-18.64-5.52-28.21-7.29
					c-6.48-1.2-13-2.07-19.58-2.34c-8.42-0.35-16.75,0.4-24.98,2.24c-7.59,1.7-14.56,4.76-20.72,9.55
					c-1.79,1.39-3.47,2.91-4.89,4.69c-0.78,0.97-1.11,2.03-1,3.27c0.25,2.88,0.51,5.76,0.7,8.65c0.4,6.07,0.91,12.13,1.09,18.2
					c0.19,6.33,0.05,12.66,0.05,18.99c0,0.59-0.01,1.18,0.03,1.76c0.1,1.57,0.6,1.88,1.99,1.22c0.95-0.45,1.86-0.96,2.82-1.4
					c5.57-2.57,11.39-4.45,17.25-6.2c9.87-2.96,19.9-5.01,30.25-5.35c10.07-0.34,20.02,0.72,29.88,2.59
					c13.14,2.49,26.08,5.81,38.92,9.54c8.49,2.46,16.96,4.97,25.49,7.3c8.67,2.36,17.51,3.88,26.47,4.63
					c9.58,0.8,19.1,0.27,28.52-1.73c7.73-1.64,14.87-4.59,21.21-9.38c1.94-1.47,3.76-3.08,5.33-4.96
					C328.18,247.04,328.58,245.85,328.43,244.41z M173.1,206.71c-0.53,5.09-1.08,10.18-1.65,15.27c-0.22,1.93-0.57,3.63-1.07,5.19
					c-0.12,0.36-0.27,0.72-0.43,1.06c-1.01,2.11-2.74,3.21-5.16,3.28c-0.73,0.02-1.42,0.03-2.1-0.04c-0.32-0.04-0.64-0.09-0.96-0.17
					c-0.99-0.25-1.78-0.56-2.48-0.98c-1.63-0.98-2.51-2.55-2.68-4.81c-0.14-1.82,0.02-3.62,0.18-5.17
					c0.27-2.63,1.49-13.55,1.83-16.22c0.19-1.51,0.4-3.22,1-4.85c0.28-0.76,0.62-1.48,1.02-2.14c0.9-1.48,2.3-2.32,4.04-2.42
					c1.65-0.1,3.27,0.09,4.8,0.56c1.5,0.46,2.58,1.45,3.2,2.95c0.51,1.24,0.75,2.61,0.71,4.09
					C173.32,203.65,173.26,205.2,173.1,206.71z M192.38,204.32c-0.33,0.02-0.65-0.02-0.91-0.06c-1.16-0.18-2.33-0.37-3.49-0.55
					l-1.53-0.24c-0.23-0.04-0.35-0.06-0.47-0.06c-0.03,0-0.05,0-0.07,0c0,0.02-0.01,0.05-0.02,0.08l-0.03,0.18l-2.59,17.71
					c-0.01,0.09-0.03,0.2-0.04,0.28c0.09,0.02,0.19,0.04,0.25,0.05c0.71,0.13,1.43,0.25,2.14,0.36c0.47,0.07,0.94,0.15,1.41,0.23
					c0.28,0.05,0.6,0.12,0.91,0.26c0.88,0.42,1.33,1.32,1.16,2.28c-0.17,0.95-0.93,1.64-1.9,1.73c-0.27,0.02-0.57,0.01-0.93-0.05
					c-0.82-0.12-1.63-0.26-2.45-0.39l-0.82-0.13c-0.25-0.04-0.36-0.04-0.41-0.04c0.02,0.02-0.01,0.13-0.05,0.4l-0.36,2.43
					c-0.21,1.43-0.42,2.86-0.63,4.29c-0.06,0.39-0.14,0.7-0.26,0.97c-0.39,0.86-1.29,1.35-2.22,1.22c-0.02,0-0.04-0.01-0.06-0.01
					c-0.91-0.16-1.62-0.91-1.73-1.82c-0.05-0.4,0-0.81,0.04-1.12c0.61-4.23,1.23-8.46,1.85-12.69l1.06-7.28
					c0.55-3.71,1.09-7.43,1.61-11.15c0.12-0.9,0.47-1.56,1.02-1.97c0.54-0.39,1.26-0.52,2.12-0.36c1.67,0.3,3.35,0.56,5.02,0.82
					l2.21,0.35c0.25,0.04,0.43,0.07,0.61,0.12c1.01,0.29,1.66,1.25,1.55,2.28C194.28,203.48,193.45,204.26,192.38,204.32z
					 M217.29,211.25c-0.31,0.01-0.62-0.04-0.85-0.08c-0.5-0.09-1.01-0.18-1.51-0.28l-1.33-0.24c-0.24-0.04-0.48-0.08-0.72-0.09
					c0.01,0.11-0.01,0.26-0.04,0.42l-5.45,29.65c-0.06,0.32-0.13,0.67-0.27,1c-0.34,0.84-1.22,1.32-2.13,1.16c-0.01,0-0.02,0-0.02,0
					c-0.91-0.17-1.58-0.96-1.6-1.88c0-0.27,0.04-0.53,0.09-0.78c0.46-2.5,1.62-8.83,2.75-15.06c1.08-5.93,2.14-11.76,2.58-14.12v0
					c0.06-0.3,0.09-0.6,0.1-0.9c0.01-0.15,0-0.23-0.01-0.26c-0.02,0-0.08-0.02-0.22-0.05c-0.44-0.09-0.88-0.17-1.33-0.25
					c-0.46-0.09-0.93-0.17-1.39-0.26c-0.32-0.07-0.7-0.16-1.04-0.35c-0.59-0.34-0.95-0.96-0.97-1.64c-0.01-0.67,0.32-1.29,0.88-1.64
					c0.32-0.2,0.69-0.26,1.01-0.31l0.13-0.02c0.23-0.04,0.43,0.01,0.58,0.05l10.51,1.94c0.27,0.05,0.54,0.1,0.79,0.18
					c0.92,0.3,1.5,1.2,1.37,2.14C219.08,210.51,218.27,211.22,217.29,211.25z M240.43,214.21c-0.44,2.59-1.48,8.98-2.53,15.41
					c-1.08,6.6-2.17,13.25-2.61,15.87l-0.02,0.14c-0.04,0.22-0.07,0.44-0.13,0.65c-0.3,1.05-1.3,1.7-2.36,1.54
					c-1.06-0.17-1.83-1.07-1.8-2.17c0.01-0.33,0.06-0.66,0.11-0.99l1.07-6.58c0.05-0.32,0.06-0.45,0.05-0.51
					c-0.01,0.03-0.12-0.01-0.45-0.07c-1.7-0.31-3.41-0.62-5.11-0.92c-0.36-0.06-0.48-0.06-0.52-0.05c0.03-0.01-0.01,0.11-0.07,0.48
					l-1.14,6.82c-0.05,0.32-0.09,0.56-0.17,0.8c-0.32,0.99-1.33,1.61-2.36,1.45c0,0-0.01,0-0.01,0c-1.02-0.17-1.78-1.08-1.77-2.12
					c0-0.22,0.04-0.43,0.07-0.65l5.14-31.2c0.05-0.29,0.09-0.52,0.15-0.73c0.32-1.01,1.26-1.64,2.29-1.54
					c1.01,0.1,1.81,0.96,1.88,2.03c0.02,0.36-0.03,0.71-0.08,1.04l-3.11,18.71c-0.02,0.13-0.09,0.54-0.06,0.64
					c0.05,0.01,0.47,0.08,0.61,0.11c1.62,0.3,3.25,0.59,4.87,0.89c0.4,0.07,0.54,0.07,0.58,0.06c-0.03-0.01,0.01-0.13,0.08-0.54
					l3.05-18.66c0.07-0.44,0.14-0.86,0.28-1.28c0.35-1.05,1.35-1.64,2.43-1.41c1.04,0.21,1.76,1.15,1.7,2.25
					C240.49,213.85,240.46,214.03,240.43,214.21z M259.58,219.56c-0.36,0.03-0.71-0.02-0.98-0.07c-1.18-0.19-2.35-0.39-3.53-0.59
					l-1.48-0.25c-0.21-0.04-0.32-0.06-0.43-0.06c-0.04,0-0.07,0-0.09,0c0,0.02-0.01,0.04-0.02,0.08c-0.03,0.11-0.05,0.23-0.06,0.35
					l-0.02,0.13l-2.63,16.99c-0.03,0.16-0.09,0.6-0.06,0.71c0.05,0.01,0.5,0.09,0.67,0.12l1.13,0.19c0.67,0.11,1.34,0.22,2.01,0.34
					c0.35,0.06,0.62,0.14,0.85,0.26c0.87,0.43,1.32,1.33,1.14,2.29c-0.18,0.95-0.94,1.64-1.91,1.71c-0.25,0.02-0.54,0.01-0.86-0.05
					c-0.66-0.1-1.33-0.22-1.99-0.33l-0.98-0.17c-0.13-0.02-0.26-0.05-0.4-0.06c-0.22-0.03-0.32-0.02-0.36-0.02
					c0.01,0.02-0.02,0.1-0.06,0.3c-0.27,1.69-0.53,3.38-0.78,5.07c-0.02,0.16-0.03,0.26-0.03,0.32c0.06,0.02,0.17,0.04,0.36,0.07
					l1.99,0.3c0.97,0.15,1.94,0.29,2.91,0.45c0.4,0.06,0.75,0.17,1.04,0.31c0.83,0.42,1.27,1.32,1.09,2.26
					c-0.17,0.89-0.88,1.57-1.76,1.69c-0.3,0.04-0.63,0.04-0.95-0.01c-2.15-0.32-4.3-0.64-6.45-0.97c-0.27-0.04-0.54-0.08-0.82-0.13
					c-1.32-0.21-2.02-1.05-1.98-2.39c0.01-0.37,0.06-0.74,0.12-1.1l2.37-15.36l0.66-4.27c0.59-3.77,1.18-7.55,1.73-11.33
					c0.13-0.9,0.48-1.56,1.04-1.96c0.55-0.39,1.26-0.51,2.12-0.34c1.67,0.31,3.34,0.59,5.02,0.86l2.21,0.37
					c0.25,0.04,0.43,0.07,0.61,0.13c1.01,0.3,1.65,1.27,1.52,2.3C261.41,218.72,260.61,219.48,259.58,219.56z"/>
			</g>
		</g>
		<g>
			<path d="M174.3,166.73c-0.65-0.08-1.32-0.11-1.96-0.03c-1.12,0.13-1.73-0.37-2.25-1.34c-2.95-5.55-5.96-11.06-8.95-16.59
				c-2.45-4.53-4.9-9.05-7.34-13.59c-0.71-1.31-0.64-1.86,0.36-2.93c0.57-0.61,1.2-1.15,1.76-1.76c1.83-1.99,3.71-3.94,5.42-6.03
				c1.57-1.9,2.6-4.13,3.18-6.54c0.43-1.82,0.53-3.67-0.39-5.36c-1.6-2.94-4.23-4.24-7.48-4.14c-3.21,0.1-5.57,1.73-6.82,4.69
				c-1.67,3.93,1,8.01,5.27,8.18c0.37,0.02,0.74,0.07,1.31,0.13c-0.25,0.46-0.37,0.78-0.58,1.02c-0.65,0.76-1.3,1.53-2.02,2.24
				c-6.15,6.09-12.95,11.44-19.55,17.02c-0.24,0.2-0.57,0.29-1,0.5c-0.04-0.57-0.09-0.95-0.1-1.33c-0.07-8.08-0.14-16.15-0.21-24.23
				c0-0.44-0.02-0.88,0.03-1.31c0.16-1.22,0.54-1.53,1.79-1.6c0.65-0.04,1.32-0.05,1.94-0.21c1.16-0.31,1.93-1.39,1.92-2.52
				c-0.01-1.15-0.79-2.18-1.97-2.49c-0.58-0.15-1.21-0.19-1.81-0.18c-6.94,0.03-13.88,0.08-20.82,0.13c-0.48,0-0.96,0-1.44,0.03
				c-1.62,0.11-2.7,1.16-2.73,2.61c-0.02,1.45,1.04,2.52,2.65,2.69c2.53,0.26,2.53,0.26,2.54,2.87c0.09,15.98,0.17,31.95,0.25,47.93
				c0.01,2.27,0.01,2.27-2.25,2.6c-1.38,0.2-2.41,1.37-2.37,2.7c0.04,1.29,1.04,2.37,2.38,2.55c0.39,0.05,0.78,0.04,1.18,0.04
				c6.94,0,13.88,0,20.82-0.01c0.39,0,0.79,0.01,1.18-0.04c1.32-0.17,2.33-1.28,2.37-2.56c0.04-1.28-0.93-2.43-2.25-2.66
				c-0.34-0.06-0.7-0.05-1.04-0.07c-1.55-0.07-1.81-0.31-1.96-1.83c-0.02-0.17-0.03-0.35-0.03-0.52c-0.04-4.23-0.1-8.47-0.1-12.7
				c0-0.71,0.15-1.53,0.52-2.12c0.96-1.54,2.38-2.65,3.95-3.54c0.51-0.29,0.92-0.12,1.21,0.37c0.13,0.23,0.24,0.47,0.35,0.7
				c2.77,5.64,5.53,11.28,8.29,16.92c0.17,0.35,0.36,0.7,0.48,1.08c0.25,0.83,0.03,1.12-0.83,1.18c-0.78,0.06-1.58,0.03-2.33,0.22
				c-1.26,0.33-2.06,1.54-1.97,2.76c0.09,1.25,1.01,2.3,2.29,2.52c0.55,0.1,1.13,0.1,1.7,0.1c8.69,0.01,17.37,0.02,26.06,0.02
				c0.44,0,0.87-0.01,1.31-0.06c1.59-0.2,2.63-1.31,2.62-2.75C176.93,168.04,175.88,166.91,174.3,166.73z"/>
			<path d="M264.71,108.51c-0.38-0.06-0.77-0.07-1.16-0.07c-3.4-0.03-6.81-0.06-10.21-0.07c-0.47,0-0.95,0.01-1.42,0.08
				c-1.35,0.21-2.29,1.23-2.37,2.52c-0.08,1.28,0.72,2.41,2.06,2.76c0.57,0.15,1.19,0.17,1.79,0.18c1.46,0.04,1.6,0.16,1.7,1.61
				c0.01,0.17-0.03,36.32-0.1,36.76c-0.13,0.01-0.26,0.01-0.39,0.02c-0.15-0.38-0.32-0.76-0.45-1.15
				c-2.23-6.43-11.15-32.23-13.4-38.69c-0.94-2.72-1.93-3.4-4.76-3.38c-6.9,0.04-13.79,0.09-20.68,0.14c-0.34,0-0.69,0-1.03,0.03
				c-1.57,0.13-2.63,1.2-2.61,2.65c0.02,1.39,1.04,2.43,2.56,2.58c0.51,0.05,1.03,0.09,1.54,0.14c0.61,0.06,0.93,0.39,0.95,1.01
				c0.02,0.69,0.21,33.27,0.29,48.87c0,0.34,0.01,0.69-0.01,1.03c-0.06,1.28-0.32,1.53-1.64,1.64c-0.21,0.02-0.43,0.01-0.64,0.05
				c-1.31,0.23-2.22,1.32-2.2,2.63c0.02,1.26,0.9,2.3,2.18,2.51c0.46,0.08,0.95,0.06,1.42,0.06c6.81,0,13.62,0,20.43-0.01
				c0.39,0,0.78,0.01,1.16-0.04c1.34-0.17,2.29-1.22,2.32-2.52c0.03-1.37-0.91-2.47-2.31-2.65c-0.47-0.06-0.95-0.03-1.42-0.06
				c-1.19-0.08-1.43-0.32-1.47-1.48c-0.01-0.17,0-0.34,0-0.52c-0.12-16.25-0.4-49.27-0.33-49.51c0.09-0.3,0.28-0.58,0.42-0.86
				c0.3,0.19,0.74,0.31,0.88,0.58c0.36,0.68,12.74,36.5,18.68,53.67c0.21,0.61,0.41,1.23,0.71,1.8c0.63,1.2,1.96,1.76,3.29,1.47
				c1.32-0.29,2.14-1.22,2.26-2.63c0.05-0.64,0.04-1.29,0.03-1.94c-0.04-17.15-0.13-52.32-0.06-52.74c0.12-0.82,0.34-1,1.19-1.02
				c0.9-0.02,1.82,0.04,2.71-0.05c1.42-0.15,2.48-1.37,2.47-2.71C267.07,109.88,266.08,108.74,264.71,108.51z"/>
			<path d="M313.76,143.01c-0.37-0.08-0.76-0.07-1.15-0.07c-7.08,0-14.15,0-21.23,0c-0.38,0-0.77,0-1.15,0.05
				c-1.3,0.19-2.25,1.27-2.27,2.54c-0.02,1.26,0.92,2.35,2.23,2.57c0.33,0.05,0.68,0.05,1.02,0.06c1.42,0.05,1.59,0.18,1.71,1.63
				c0.08,1.06,0.08,2.13,0.09,3.19c0.04,4.01,0.08,8.01,0.08,12.02c0,1.91-0.39,2.29-2.31,2.04c-1.47-0.19-2.9-0.63-4.36-0.94
				c-1.1-0.23-1.55-0.94-1.6-2c-0.01-0.3-0.03-0.6-0.04-0.89c-0.1-5.92-0.21-11.85-0.3-17.77c-0.14-9.29-0.28-18.58-0.41-27.87
				c-0.02-1.77,0.47-2.43,2.17-2.99c2.68-0.88,5.45-1.08,8.21-0.67c1.32,0.2,2.67,0.65,3.85,1.28c2.42,1.29,3.18,3.59,3.41,6.13
				c-0.09,0.05-0.18,0.1-0.27,0.15c-0.22-0.18-0.45-0.35-0.66-0.54c-0.78-0.71-1.67-1.15-2.73-1.25c-3.18-0.29-5.08,2.63-5.25,4.84
				c-0.3,4.05,3.67,7.33,7.78,6.31c3.25-0.81,5.12-3.12,6.01-6.21c1.79-6.26-1.85-12.99-8.13-15.12c-4.38-1.49-8.84-1.42-13.21-0.06
				c-6.62,2.05-11.67,6.22-14.81,12.37c-5.07,9.93-6.38,20.39-2.92,31.1c3.13,9.71,9.57,16.26,19.62,18.88
				c4.44,1.16,8.8,0.82,12.9-1.37c4.51-2.41,7.25-6.21,8.6-11.08c0.83-2.97,1.17-6.02,1.26-9.09c0.05-1.73,0.37-2.05,2.13-2.07
				c0.51-0.01,1.03,0.02,1.53-0.04c1.25-0.15,2.18-1.16,2.25-2.4C315.9,144.43,315.03,143.27,313.76,143.01z"/>
			<path d="M205.98,167.1c-0.51-0.09-1.04-0.09-1.56-0.11c-0.66-0.02-1.08-0.31-1.15-0.99c-0.09-0.86-0.23-1.73-0.24-2.59
				c-0.13-15.85-0.24-31.7-0.35-47.55c0-0.26-0.01-0.52,0-0.78c0.07-0.97,0.39-1.29,1.38-1.36c0.65-0.04,1.31,0,1.96-0.08
				c1.3-0.17,2.22-1.21,2.27-2.47c0.06-1.32-0.83-2.46-2.16-2.71c-0.47-0.09-0.95-0.07-1.43-0.07c-3.53-0.01-7.05,0-10.58,0
				c0,0.02,0,0.04,0,0.07c-3.61,0-7.23-0.01-10.84,0.01c-0.56,0-1.14,0.04-1.68,0.18c-1.2,0.31-1.94,1.28-1.97,2.46
				c-0.03,1.23,0.72,2.25,1.98,2.58c0.54,0.14,1.12,0.15,1.68,0.17c1.11,0.06,1.35,0.26,1.45,1.39c0.04,0.39,0.03,0.78,0.03,1.17
				c0.08,15.41,0.16,30.83,0.24,46.24c0,1.04-0.02,2.09-0.1,3.13c-0.08,1-0.29,1.15-1.29,1.24c-0.39,0.03-0.79,0.06-1.16,0.16
				c-1.24,0.34-1.99,1.34-1.98,2.58c0.02,1.19,0.74,2.15,1.95,2.47c0.5,0.13,1.03,0.17,1.55,0.17c6.97,0.01,13.93,0,20.9,0
				c0.35,0,0.7,0,1.04-0.06c1.46-0.25,2.38-1.3,2.37-2.67C208.28,168.36,207.4,167.35,205.98,167.1z"/>
		</g>
		<path d="M304.68,309.53c0.48-0.26,0.78-0.39,1.04-0.57c1.04-0.71,2.06-1.44,3-2.1c0.29-1.93,0.54-3.72,0.85-5.49
			c0.12-0.7,0.34-1.39,0.61-2.04c1.12-2.73,4.1-3.55,6.44-2.8c1.04,0.33,1.74,1.09,2.36,2.15c0.18-0.3,0.35-0.49,0.42-0.7
			c0.44-1.35,0.81-2.73,1.3-4.07c0.36-0.97,0.8-1.93,1.33-2.82c1.25-2.11,3.24-2.9,5.58-2.76c2.3,0.14,4.18,1.21,5.63,3.01
			c0.83,1.03,1.51,2.17,1.92,3.43c0.51,1.56,0.89,3.16,1.32,4.74c0.07,0.25,0.1,0.5,0.17,0.85c0.47-0.46,0.44-0.97,0.51-1.45
			c0.51-3.47,1.08-6.93,2.01-10.32c0.67-2.43,1.46-4.82,2.26-7.21c0.49-1.46,1.2-2.82,2.1-4.08c1.62-2.25,3.94-3.07,6.64-2.36
			c2.48,0.66,4.26,2.17,5.4,4.45c0.92,1.84,1.4,3.81,1.63,5.83c0.21,1.9,0.34,3.82,0.38,5.74c0.09,4.94-0.22,9.86-0.58,14.78
			c-0.57,7.82-1.32,15.62-1.6,23.46c-0.15,4.22-0.06,8.44,0.44,12.64c0.25,2.12,0.47,4.25,0.74,6.37c0.15,1.2,0.44,2.37,0.94,3.48
			c0.22,0.49,0.45,1,1.09,1.2c0.65-0.38,0.92-1.05,1.23-1.67c0.77-1.53,1.25-3.16,1.63-4.81c0.73-3.26,1.28-6.56,1.67-9.88
			c0.07-0.6,0.15-1.2,0.31-1.78c0.29-1.05,1.16-1.62,2.23-1.53c0.63,0.05,1.02,0.42,1.05,1.04c0.01,0.27-0.01,0.55-0.04,0.82
			c-0.43,3.37-0.8,6.75-1.32,10.1c-0.28,1.83-0.75,3.65-1.28,5.43c-0.32,1.09-0.85,2.13-1.39,3.15c-0.49,0.93-1.2,1.7-2.02,2.36
			c-2.56,2.05-5.93,2.3-8.76,0.63c-1.3-0.77-2.33-1.81-3.17-3.06c-1.4-2.08-2.21-4.4-2.72-6.83c-0.64-3.07-0.84-6.19-0.95-9.31
			c-0.15-4.55-0.12-9.1,0.17-13.64c0.3-4.65,0.55-9.3,0.82-13.95c0.27-4.65,0.57-9.3,0.79-13.95c0.17-3.45,0.25-6.9-0.13-10.35
			c-0.03-0.26-0.08-0.51-0.12-0.76c-0.44,0-0.5,0.3-0.61,0.53c-1.13,2.5-1.93,5.12-2.61,7.78c-1.07,4.2-1.8,8.46-2.35,12.76
			c-1.56,12.05-1.8,24.15-1.54,36.27c0.02,0.93,0.01,1.87,0.08,2.79c0.19,2.64-2.88,4.84-5.43,4.32c-0.79-0.16-1.41-0.62-1.82-1.3
			c-0.4-0.65-0.76-1.34-1.04-2.05c-1.84-4.55-2.93-9.29-3.37-14.18c-0.54-5.9-0.84-11.81-1.05-17.72c-0.13-3.67-0.37-7.33-0.6-11
			c-0.1-1.58-0.31-3.16-0.78-4.88c-0.23,0.4-0.43,0.65-0.53,0.93c-0.89,2.48-1.48,5.04-1.95,7.63c-0.89,4.91-1.41,9.87-1.73,14.85
			c-0.51,7.84-0.36,15.67-0.06,23.5c0.03,0.82,0.05,1.64,0.08,2.47c0.1,2.38-2.04,4.45-4.48,4.58c-1.05,0.06-1.94-0.33-2.51-1.27
			c-0.31-0.51-0.59-1.05-0.83-1.6c-2.06-4.64-3.28-9.51-3.97-14.53c-0.99-7.25-1.03-14.53-0.97-21.83c0.01-0.6,0-1.19,0-1.94
			c-1.42,0.51-2.39,1.5-3.62,2.11c-0.03,0.48-0.1,0.91-0.09,1.34c0.2,6.2-0.16,12.38-0.84,18.54c-0.47,4.25-1.08,8.48-2.03,12.65
			c-0.58,2.51-1.28,4.99-2.32,7.36c-0.66,1.51-1.44,2.96-2.53,4.21c-1.38,1.57-3.03,2.69-5.12,3.04c-2.05,0.34-3.91-0.12-5.61-1.31
			c-1.04-0.73-1.92-1.63-2.7-2.62c-2.06-2.63-3.42-5.6-4.32-8.8c-1.04-3.7-1.63-7.49-2.05-11.31c-0.62-5.69-0.42-11.38-0.12-17.08
			c0.04-0.82,0.08-1.64,0.13-2.59c-0.35,0.09-0.61,0.12-0.82,0.23c-1.21,0.63-2.41,1.28-3.68,1.96c-0.03,0.36-0.1,0.73-0.1,1.1
			c-0.02,8.36-0.97,16.62-2.64,24.81c-0.54,2.63-1.17,5.24-2.26,7.71c-0.4,0.9-0.84,1.79-1.35,2.62c-0.85,1.38-1.99,2.48-3.44,3.22
			c-2.74,1.4-5.47,1.37-8.17-0.15c-2.11-1.19-3.71-2.91-4.8-5.05c-0.64-1.27-1.12-2.61-1.66-3.93c-0.2-0.49-0.36-1-0.54-1.48
			c-0.49,0.03-0.43,0.37-0.49,0.6c-0.98,3.7-1.95,7.41-2.95,11.11c-0.24,0.9-0.58,1.77-0.93,2.63c-0.44,1.08-1.12,2.02-2.06,2.72
			c-1.8,1.33-3.71,1.57-5.69,0.45c-0.66-0.38-1.28-0.85-1.85-1.36c-1.49-1.33-2.62-2.94-3.51-4.72c-1.47-2.92-2.33-6.03-2.69-9.26
			c-0.23-2.07-0.32-4.15-0.37-6.23c-0.13-6.03,0.23-12.05,0.54-18.08c0.2-3.83,0.49-7.66,0.18-11.5c-0.16-2.03-0.53-4.01-0.98-5.99
			c-0.16-0.71-0.52-1.19-1.16-1.48c-0.35-0.15-0.7-0.31-1.07-0.42c-0.46-0.14-0.94-0.23-1.5-0.37c-0.53,1.62-1,3.18-1.55,4.72
			c-0.55,1.55-1.12,3.09-1.75,4.61c-0.6,1.47-1.27,2.91-1.94,4.35c-0.7,1.49-1.44,2.96-2.16,4.43c-0.72,1.47-1.45,2.94-2.22,4.5
			c0.25,0.42,0.48,0.84,0.74,1.24c1.88,2.83,3.66,5.72,5.19,8.76c1.58,3.15,2.8,6.43,3.27,9.94c0.46,3.41,0.28,6.78-0.85,10.06
			c-0.85,2.48-2.18,4.67-4.24,6.33c-2.87,2.32-6.13,3.05-9.72,2.24c-1.7-0.38-3.15-1.25-4.35-2.51c-1.97-2.04-3.1-4.49-3.38-7.32
			c-0.28-2.77,0.12-5.47,0.84-8.13c0.99-3.66,2.39-7.17,3.91-10.63c0.29-0.65,0.57-1.3,0.85-1.93c-0.11-0.66-0.52-1.12-0.87-1.6
			c-2.28-3.15-4.56-6.3-6.88-9.42c-1.7-2.29-3.46-4.53-5.2-6.78c-0.2-0.26-0.41-0.5-0.67-0.82c-0.19,0.17-0.39,0.28-0.49,0.44
			c-2.11,3.52-4.22,7.05-6.32,10.59c-0.08,0.14-0.13,0.3-0.23,0.54c0.34,0.5,0.7,1.05,1.06,1.59c2.5,3.75,4.64,7.69,5.97,12.03
			c0.74,2.42,1.24,4.89,1.12,7.44c-0.13,2.83-0.82,5.52-2.24,7.99c-1.05,1.83-2.42,3.39-4.19,4.56c-5.44,3.58-10.68,1.21-13.28-2.58
			c-1.24-1.81-1.85-3.83-1.96-6.02c-0.13-2.61,0.4-5.13,1.14-7.6c0.9-3,2.18-5.85,3.56-8.65c0.24-0.49,0.47-0.98,0.68-1.42
			c-0.94-2.12-6.55-9.33-8.11-10.39c-0.08,0.34-0.18,0.64-0.23,0.94c-1.12,6.14-2.19,12.3-3.61,18.38c-0.72,3.09-1.5,6.18-2.64,9.15
			c-0.39,1.02-0.86,2.02-1.37,2.98c-0.57,1.07-1.37,1.98-2.37,2.69c-2.55,1.8-5.68,2-8.41-0.02c-1.15-0.86-2.11-1.91-2.96-3.06
			c-1.61-2.19-2.72-4.62-3.54-7.19c-0.13-0.4-0.29-0.79-0.5-1.37c-0.28,0.53-0.46,0.86-0.64,1.19c-0.6,1.11-1.16,2.24-1.8,3.32
			c-0.47,0.8-1,1.58-1.58,2.3c-2.02,2.51-4.86,3.18-7.81,1.88c-1.42-0.63-2.63-1.57-3.71-2.68c-0.53-0.55-1.04-1.11-1.67-1.78
			c-0.17,0.45-0.33,0.77-0.4,1.11c-0.42,1.99-0.92,3.95-1.69,5.83c-0.45,1.11-0.99,2.2-1.55,3.26c-1.4,2.64-4.52,3.84-7.5,1.46
			c-0.81-0.65-1.6-1.34-2.33-2.07c-2.73-2.75-4.83-5.95-6.65-9.34c-0.54-1.01-1.02-2.06-1.53-3.09c-0.14-0.28-0.32-0.53-0.55-0.91
			c-0.38,0.5-0.67,0.88-0.97,1.25c-1.2,1.43-2.33,2.91-3.62,4.25c-1.85,1.92-4.07,3.33-6.63,4.13c-3.03,0.95-6.05,0.81-9.05-0.14
			c-3.8-1.21-7-3.33-9.58-6.37c-1.79-2.11-3.16-4.47-4.23-7.01c-1.96-4.67-3.18-9.55-3.96-14.55c-0.75-4.79-0.88-9.6-0.63-14.43
			c0.2-3.84,0.73-7.63,1.93-11.31c1.04-3.17,2.67-6,5-8.4c1.67-1.72,3.59-3.04,5.96-3.63c2.39-0.59,4.67-0.31,6.81,0.95
			c1.14,0.68,2.12,1.55,3,2.54c2.54,2.82,3.92,6.16,4.53,9.87c0.29,1.74,0.46,3.48,0.32,5.24c-0.08,0.96-0.83,1.57-1.79,1.52
			c-0.66-0.03-1.14-0.4-1.27-1.06c-0.1-0.48-0.13-0.98-0.18-1.47c-0.28-2.63-0.91-5.18-2.04-7.58c-0.82-1.75-1.89-3.34-3.31-4.66
			c-0.64-0.6-1.35-1.11-2.19-1.43c-0.46-0.17-0.89-0.13-1.23,0.18c-0.44,0.41-0.86,0.85-1.21,1.33c-0.77,1.08-1.25,2.31-1.63,3.57
			c-0.99,3.32-1.62,6.7-1.97,10.15c-0.31,3.06-0.39,6.13-0.28,9.2c0.29,8.2,1.86,16.1,5.63,23.46c0.75,1.46,1.6,2.87,2.54,4.22
			c1.13,1.63,2.59,2.98,4.28,4.04c0.6,0.37,1.25,0.68,1.9,0.95c1.06,0.45,2.14,0.37,3.2-0.06c1.13-0.46,2.15-1.11,3.01-1.96
			c1.08-1.08,2.15-2.2,3.11-3.38c1.03-1.27,1.94-2.65,2.88-3.95c-0.45-1.79-0.9-3.48-1.31-5.18c-1.25-5.23-2.07-10.53-2.62-15.88
			c-0.44-4.26-0.7-8.52-0.76-12.8c-0.09-6.31,0.22-12.6,1.49-18.81c0.76-3.74,2.05-7.27,4.19-10.46c0.74-1.1,1.57-2.11,2.56-2.99
			c1.39-1.22,2.98-2.03,4.82-2.31c2.75-0.43,5.13,0.31,6.96,2.42c0.75,0.86,1.36,1.86,1.88,2.88c1.5,2.97,2.24,6.16,2.62,9.45
			c0.66,5.79,0.02,11.49-1.18,17.14c-1.93,9.1-5.09,17.79-8.84,26.27c-0.9,2.03-0.93,2.03-0.36,4.21c1.03,3.98,2.04,7.96,3.13,11.92
			c0.75,2.7,1.74,5.31,2.99,7.82c0.41,0.83,0.81,1.67,1.55,2.46c0.24-0.35,0.48-0.63,0.63-0.95c1.14-2.51,1.82-5.16,2.36-7.85
			c0.08-0.38,0.13-0.76,0.21-1.13c0.42-1.9,0.61-3.78-0.44-5.56c-2.58-7.89-2.33-15.63,1.26-23.19c0.64-1.34,1.39-2.61,2.38-3.73
			c2.11-2.4,4.72-3.87,7.91-4.27c2.44-0.31,4.68,0.2,6.69,1.64c0.4,0.28,0.8,0.57,1.29,0.92c0.17-0.39,0.33-0.72,0.44-1.06
			c1.02-3.04,3.63-4.5,6.7-3.73c1.64,0.41,2.69,1.42,2.98,3.12c0.07,0.43,0.12,0.87,0.13,1.31c0.01,0.77,0,1.54-0.05,2.3
			c-0.42,5.59-0.35,11.17,0.13,16.75c0.5,5.76,1.67,11.38,3.54,16.85c0.23,0.67,0.51,1.33,0.79,1.98c0.08,0.2,0.23,0.37,0.42,0.65
			c0.21-0.32,0.42-0.56,0.54-0.83c1.17-2.66,2.01-5.44,2.8-8.24c2.16-7.65,4.03-15.36,5.58-23.16c0.02-0.11,0.02-0.22,0.03-0.49
			c-0.29-0.37-0.66-0.83-1.04-1.29c-2.27-2.74-4.57-5.46-6.82-8.23c-1.9-2.34-3.58-4.85-4.99-7.52c-1.59-3.04-2.71-6.24-3.01-9.67
			c-0.45-5.04,0.98-9.44,4.77-12.91c2.14-1.96,4.64-3.08,7.6-2.97c2.94,0.1,5.25,1.36,6.92,3.79c1.3,1.88,2.06,4,2.48,6.22
			c0.36,1.88,0.61,3.79,0.72,5.7c0.26,4.78-0.15,9.53-0.81,14.26c-0.14,1.03-0.27,2.06-0.41,3.13c3.85,4.43,7.69,8.85,11.54,13.26
			c0.06,0.07,0.19,0.08,0.29,0.12c0.84-0.96,5.72-8.99,6.93-11.42c-0.19-0.32-0.39-0.7-0.63-1.05c-1.41-2.09-2.89-4.13-4.24-6.26
			c-2.48-3.89-4.61-7.96-6.17-12.32c-1.74-4.86-2.52-9.87-2.17-15.02c0.34-5.09,1.83-9.78,5-13.86c2.01-2.59,4.58-4.39,7.74-5.28
			c4.95-1.4,9.22-0.28,12.63,3.63c2.94,3.36,4.58,7.3,4.88,11.78c0.3,4.38-0.39,8.63-1.53,12.83c-1.51,5.52-3.78,10.74-6.29,15.86
			c-0.41,0.83-0.82,1.67-1.26,2.58c4.19,6.04,8.9,11.66,13.41,17.61c0.19-0.2,0.36-0.32,0.45-0.48c2.79-5.59,5.43-11.25,7.2-17.27
			c0.18-0.63,0.33-1.27,0.48-1.91c0.02-0.1-0.02-0.21-0.05-0.44c-0.3-0.1-0.64-0.24-0.99-0.32c-1.99-0.44-3.91-1.05-5.68-2.08
			c-2.45-1.44-3.98-3.54-4.62-6.31c-0.89-3.84,0.69-8.04,3.91-10.3c1.04-0.74,2.19-1.24,3.47-1.4c2.76-0.35,4.93,0.67,6.58,2.86
			c1.39,1.85,2.04,3.99,2.3,6.25c0.2,1.69,0.29,3.38,0.08,5.08c-0.09,0.76-0.12,1.52-0.18,2.35c0.35,0.11,0.65,0.23,0.95,0.29
			c1.61,0.32,3.23,0.6,4.84,0.94c0.75,0.16,1.49,0.37,2.2,0.65c3.2,1.25,5.2,3.55,5.89,6.94c0.44,2.16,0.63,4.34,0.57,6.54
			c-0.06,2.52-0.22,5.04-0.35,7.56c-0.26,4.82-0.59,9.63-0.78,14.45c-0.2,4.99,0.2,9.97,0.66,14.94c0.11,1.25,0.36,2.49,0.61,3.73
			c0.16,0.8,0.45,1.57,0.75,2.58c0.29-0.44,0.51-0.66,0.59-0.93c0.91-2.93,1.83-5.85,2.67-8.8c1.17-4.11,2.13-8.27,2.93-12.47
			c0.13-0.69,0.17-1.41,0.12-2.11c-0.21-3.07-0.18-6.13,0.01-9.2c0.21-3.28,0.48-6.56,1.12-9.79c0.1-0.48,0.19-0.96,0.3-1.48
			c-0.12-0.17-0.21-0.37-0.36-0.53c-3.15-3.32-4.91-7.34-5.91-11.74c-0.86-3.8-0.93-7.61,0.07-11.39c0.93-3.5,2.72-6.44,5.65-8.63
			c4.28-3.19,9.26-3.2,13.56-0.06c1.89,1.38,3.37,3.12,4.62,5.08c1.72,2.69,2.97,5.61,4,8.63c1.86,5.47,3.03,11.09,3.43,16.86
			c0.04,0.6,0.11,1.2,0.18,1.8c0.02,0.16,0.11,0.3,0.18,0.51c0.22-0.07,0.43-0.09,0.61-0.19c1.15-0.64,2.31-1.25,3.43-1.95
			c1.19-0.75,1.48-2.37,0.65-3.56c-2.94-4.21-3.77-8.91-3.26-13.93c0.33-3.27,1.36-6.31,3.1-9.1c1.05-1.69,2.36-3.16,3.98-4.33
			c3.82-2.77,8.51-2.9,12.47-0.35c1.73,1.12,3.11,2.59,4.28,4.27c1.9,2.73,3.2,5.74,4.16,8.9c1.07,3.52,1.69,7.14,2.06,10.8
			C304.42,307.12,304.54,308.2,304.68,309.53z M257.57,315.95c2.89,1.97,7.83,2.56,10.82,1.31c0.04-0.1,0.12-0.2,0.12-0.3
			c0.02-0.38,0.03-0.76,0.03-1.15c-0.1-4.06-0.61-8.08-1.46-12.04c-0.87-4.07-2.05-8.06-3.81-11.85c-0.79-1.69-1.68-3.32-2.81-4.81
			c-0.84-1.09-1.79-2.06-2.93-2.85c-1.8-1.26-3.65-1.32-5.55-0.25c-1.31,0.74-2.38,1.73-3.28,2.93c-1.48,1.98-2.29,4.25-2.53,6.67
			c-0.54,5.45,0.62,10.55,3.36,15.29c0.19,0.32,0.45,0.6,0.68,0.89c0.52-0.21,0.97-0.4,1.43-0.57c0.73-0.27,1.49-0.35,2.26-0.3
			c2.35,0.15,3.7,1.55,3.74,3.92c0.01,0.66-0.05,1.31-0.07,1.97C257.56,315.21,257.57,315.59,257.57,315.95z M288.26,311.8
			c3.05,2.03,9.93,1.62,12.39-0.09c0-0.45,0.03-0.94-0.01-1.42c-0.24-3.11-0.55-6.22-1.12-9.29c-0.5-2.7-1.15-5.35-2.14-7.92
			c-0.87-2.26-1.94-4.41-3.43-6.33c-0.88-1.13-1.89-2.13-3.16-2.83c-1.5-0.82-3.04-0.91-4.55-0.11c-0.77,0.41-1.49,0.92-2.15,1.49
			c-1.14,0.97-1.99,2.19-2.63,3.54c-2.33,4.87-2.69,9.87-0.86,14.99c0.12,0.35,0.33,0.66,0.52,1.02c0.44-0.14,0.8-0.25,1.16-0.36
			c0.91-0.28,1.84-0.3,2.76-0.15c1.82,0.28,3.14,1.56,3.21,3.4c0.03,0.77,0.01,1.53,0.01,2.3
			C288.26,310.62,288.26,311.22,288.26,311.8z M195.64,304.06c0.21-0.26,0.34-0.37,0.4-0.51c2.48-5.08,4.65-10.28,5.92-15.81
			c0.87-3.81,1.32-7.66,0.8-11.57c-0.46-3.47-1.78-6.53-4.13-9.13c-0.47-0.53-1-1.02-1.57-1.44c-1.49-1.09-2.6-1.04-3.96,0.25
			c-0.67,0.63-1.27,1.37-1.79,2.13c-2.57,3.83-3.85,8.08-3.98,12.68c-0.11,4.1,0.62,8.07,2.08,11.9c1.49,3.91,3.53,7.53,5.83,11.01
			C195.32,303.71,195.44,303.82,195.64,304.06z M300.73,315.46c-0.29,0.03-0.35,0.03-0.4,0.04c-0.21,0.05-0.42,0.11-0.63,0.17
			c-3.61,1.09-7.27,1.5-11.02,0.89c-0.24-0.04-0.51,0.02-0.78,0.04c-0.05,0.37-0.11,0.63-0.12,0.9c-0.12,2.08-0.21,4.15-0.34,6.23
			c-0.37,5.6,0.07,11.16,1.11,16.66c0.62,3.28,1.51,6.5,2.61,9.65c0.43,1.24,0.94,2.46,1.72,3.53c0.17,0.24,0.46,0.39,0.73,0.62
			c1.05-1.15,1.59-2.47,2.11-3.79c1.02-2.6,1.73-5.3,2.32-8.03c1.25-5.78,2.1-11.63,2.53-17.52c0.19-2.67,0.22-5.36,0.3-8.04
			C300.88,316.39,300.78,315.97,300.73,315.46z M110.09,329.45c0.21-0.24,0.3-0.31,0.34-0.4c0.18-0.4,0.36-0.8,0.53-1.2
			c2.01-4.92,3.76-9.93,5.18-15.05c1.32-4.76,2.33-9.57,2.52-14.52c0.13-3.35,0.08-6.68-0.74-9.96c-0.55-2.19-1.31-4.29-2.61-6.16
			c-0.49-0.71-0.99-1.43-1.84-1.78c-0.68,0.34-1.01,0.93-1.26,1.53c-0.44,1.06-0.88,2.13-1.2,3.22c-1.67,5.71-2.31,11.59-2.57,17.5
			c-0.35,7.78,0.03,15.55,1.01,23.28C109.61,327.03,109.65,328.19,110.09,329.45z M136.31,353.91c0.67-0.54,1.06-1.13,1.45-1.72
			c1.75-2.61,3.01-5.45,4.19-8.35c0.32-0.8,0.37-1.57,0.25-2.4c-0.2-1.41-0.41-2.82-0.54-4.23c-0.43-4.64-0.55-9.29-0.4-13.94
			c0.01-0.33,0.07-0.66,0.02-0.98c-0.05-0.31-0.12-0.67-0.32-0.88c-1.07-1.1-2.27-2.07-3.65-2.76c-1.17-0.58-1.87-0.47-2.8,0.47
			c-0.42,0.42-0.78,0.92-1.07,1.44c-0.32,0.57-0.56,1.19-0.78,1.8c-0.93,2.6-1.37,5.29-1.57,8.03c-0.37,5.12,0.2,10.17,1.44,15.14
			c0.42,1.69,0.98,3.36,1.59,5C134.57,351.74,135.14,352.93,136.31,353.91z M257.12,320.38c-0.1,0.37-0.24,0.67-0.27,0.98
			c-0.13,1.25-0.24,2.51-0.34,3.76c-0.42,5.38-0.26,10.72,0.8,16.02c0.67,3.36,1.8,6.54,3.64,9.44c0.31,0.49,0.55,1.07,1.19,1.37
			c0.19-0.27,0.41-0.52,0.56-0.8c0.88-1.58,1.53-3.27,2.07-5c2.51-7.94,3.57-16.12,3.78-24.42c0.01-0.37-0.07-0.74-0.12-1.22
			C264.63,321.57,260.9,321.29,257.12,320.38z M208.48,340.25c-0.18,0.15-0.3,0.21-0.33,0.29c-1.35,3.23-2.5,6.53-3.05,10
			c-0.27,1.73-0.39,3.47-0.07,5.22c0.36,2.01,1.22,3.73,2.76,5.07c1.07,0.93,2.32,1.41,3.76,1.35c1.16-0.05,1.96-0.56,2.35-1.69
			c0.48-1.42,0.66-2.87,0.55-4.36c-0.14-1.8-0.43-3.58-1.03-5.29c-1.22-3.52-2.75-6.9-4.58-10.14
			C208.75,340.57,208.63,340.45,208.48,340.25z M167.95,308.5c0.08-0.22,0.18-0.36,0.19-0.5c0.44-4.03,0.63-8.08,0.36-12.12
			c-0.17-2.57-0.62-5.1-1.59-7.51c-0.45-1.12-0.97-2.2-1.74-3.15c-0.44-0.55-0.9-1.1-1.65-1.21c-1.23,0.55-1.81,1.59-2.25,2.74
			c-1.38,3.63-1.33,7.27-0.12,10.93c1.35,4.07,3.72,7.52,6.49,10.74C167.67,308.44,167.74,308.44,167.95,308.5z M182.62,358.88
			c0.67-0.52,0.85-1.18,0.96-1.81c0.17-0.97,0.3-1.96,0.26-2.93c-0.2-4.63-1.6-8.92-3.76-12.98c-0.12-0.22-0.32-0.41-0.5-0.64
			c-0.14,0.21-0.26,0.34-0.32,0.48c-0.98,2.33-1.72,4.73-2.12,7.23c-0.29,1.79-0.45,3.59-0.05,5.39c0.3,1.37,0.85,2.6,1.85,3.6
			C179.98,358.26,181.21,358.87,182.62,358.88z M220.42,300.33c0.08-0.36,0.19-0.72,0.23-1.09c0.3-2.52,0.17-5.02-0.54-7.46
			c-0.29-0.98-0.74-1.93-1.25-2.82c-0.31-0.55-0.84-1-1.34-1.4c-0.56-0.45-1.22-0.45-1.83-0.05c-0.36,0.24-0.72,0.51-1,0.83
			c-1.22,1.44-1.77,3.14-1.58,5.01C213.49,297.19,216.39,299.96,220.42,300.33z"/>
	</g>
</g>
</svg>
