<?xml version="1.0" encoding="utf-8"?>
<!-- Generator: Adobe Illustrator 25.2.1, SVG Export Plug-In . SVG Version: 6.00 Build 0)  -->
<svg version="1.1" id="Calque_1" xmlns="http://www.w3.org/2000/svg" xmlns:xlink="http://www.w3.org/1999/xlink" x="0px" y="0px"
	 viewBox="0 0 432 432" style="enable-background:new 0 0 432 432;" xml:space="preserve">
<style type="text/css">
	.st0{fill:#F9D53D;}
	.st1{fill:#D3B844;}
	.st2{fill:#E0AAAF;}
	.st3{fill:#BA9196;}
	.st4{fill:#EAB978;}
	.st5{fill:#FBB03B;}
	.st6{fill:#A1C3CE;}
	.st7{fill:#8CC63F;}
	.st8{fill:#C7B299;}
	.st9{fill:#CCCCCC;}
	.st10{fill:#C44750;}
	.st11{fill:#998675;}
	.st12{fill:#29ABE2;}
	.st13{fill:#C79C52;}
	.st14{fill:#766FBF;}
	.st15{fill:#E8A3AB;}
</style>
<g>
	<g>
		<path class="st0" d="M315.67,281.6c0.79-0.77,0.35-2.11-0.74-2.27l-9.54-1.39c-0.43-0.06-0.81-0.33-1-0.73l-4.26-8.64
			c-0.49-0.99-1.89-0.99-2.38,0l-4.26,8.64c-0.19,0.39-0.57,0.66-1,0.73l-9.54,1.39c-1.09,0.16-1.52,1.5-0.74,2.27l6.9,6.73
			c0.31,0.31,0.46,0.74,0.38,1.18l-1.63,9.5c-0.19,1.09,0.95,1.91,1.93,1.4l8.53-4.48c0.39-0.2,0.85-0.2,1.24,0l8.53,4.48
			c0.97,0.51,2.11-0.32,1.93-1.4l-1.63-9.5c-0.07-0.43,0.07-0.87,0.38-1.18L315.67,281.6z"/>
		<path class="st10" d="M269.06,285.42c0.53-0.52,0.24-1.41-0.49-1.52l-6.39-0.93c-0.29-0.04-0.54-0.22-0.67-0.49l-2.86-5.79
			c-0.33-0.66-1.27-0.66-1.6,0l-2.86,5.79c-0.13,0.26-0.38,0.44-0.67,0.49l-6.39,0.93c-0.73,0.11-1.02,1-0.49,1.52l4.63,4.51
			c0.21,0.2,0.31,0.5,0.26,0.79l-1.09,6.37c-0.12,0.73,0.64,1.28,1.29,0.94l5.72-3.01c0.26-0.14,0.57-0.14,0.83,0l5.72,3.01
			c0.65,0.34,1.42-0.21,1.29-0.94l-1.09-6.37c-0.05-0.29,0.05-0.58,0.26-0.79L269.06,285.42z"/>
		<path class="st12" d="M232.58,288.4c0.37-0.36,0.17-0.99-0.35-1.06l-4.47-0.65c-0.2-0.03-0.38-0.16-0.47-0.34l-2-4.05
			c-0.23-0.46-0.89-0.46-1.12,0l-2,4.05c-0.09,0.18-0.27,0.31-0.47,0.34l-4.47,0.65c-0.51,0.07-0.72,0.7-0.35,1.06l3.24,3.16
			c0.15,0.14,0.21,0.35,0.18,0.55l-0.76,4.46c-0.09,0.51,0.45,0.9,0.9,0.66l4-2.1c0.18-0.1,0.4-0.1,0.58,0l4,2.1
			c0.46,0.24,0.99-0.15,0.9-0.66l-0.76-4.46c-0.03-0.2,0.03-0.41,0.18-0.55L232.58,288.4z"/>
		<path class="st7" d="M203.35,290.7c0.32-0.31,0.14-0.86-0.3-0.92l-3.87-0.56c-0.18-0.03-0.33-0.14-0.41-0.3l-1.73-3.51
			c-0.2-0.4-0.77-0.4-0.97,0l-1.73,3.51c-0.08,0.16-0.23,0.27-0.41,0.3l-3.87,0.56c-0.44,0.06-0.62,0.61-0.3,0.92l2.8,2.73
			c0.13,0.12,0.19,0.3,0.16,0.48l-0.66,3.86c-0.08,0.44,0.39,0.78,0.78,0.57l3.47-1.82c0.16-0.08,0.35-0.08,0.5,0l3.47,1.82
			c0.4,0.21,0.86-0.13,0.78-0.57l-0.66-3.86c-0.03-0.18,0.03-0.35,0.16-0.48L203.35,290.7z"/>
		<path class="st0" d="M177.5,292.54c0.24-0.24,0.11-0.65-0.23-0.7l-2.95-0.43c-0.13-0.02-0.25-0.1-0.31-0.22l-1.32-2.67
			c-0.15-0.31-0.59-0.31-0.74,0l-1.32,2.67c-0.06,0.12-0.18,0.21-0.31,0.22l-2.95,0.43c-0.34,0.05-0.47,0.46-0.23,0.7l2.14,2.08
			c0.1,0.09,0.14,0.23,0.12,0.36l-0.5,2.94c-0.06,0.34,0.29,0.59,0.6,0.43l2.64-1.39c0.12-0.06,0.26-0.06,0.38,0l2.64,1.39
			c0.3,0.16,0.65-0.1,0.6-0.43l-0.5-2.94c-0.02-0.13,0.02-0.27,0.12-0.36L177.5,292.54z"/>
	</g>
	<path class="st0" d="M140.13,98.34c-1.57-6.87-0.49-17.1-9.54-2.04c-4.18-5.89-5.25-6.76-7.1-6.15c-1.47,0.48-1.51,12.03-1.1,20.29
		c0.39,7.83,1.48,7.97,3,8.06c5.75,0.34,12.8,1.14,18.54,1.65c1.6,0.14,2.37,0.22,3.74-8.19C152.67,81.23,146.51,91.08,140.13,98.34
		z"/>
	<g>
		<g>
			<path d="M266.62,326.37c-0.2,5.14-2.62,10.29-7.85,13.89c-7.2,4.96-16.73,3.25-21.88-3.83c-5.88-8.08-3.84-19.9,4.43-25.52
				c7.94-5.4,17.84-2.82,22.59,4.76C265.7,318.51,266.63,321.81,266.62,326.37z M253.96,326c0-0.34,0.03-0.69,0-1.03
				c-0.15-1.55-0.59-3.01-1.6-4.24c-1.37-1.68-3.33-2.03-5.22-0.96c-1.04,0.59-1.82,1.46-2.42,2.47c-1.24,2.08-1.68,4.34-1.43,6.72
				c0.14,1.34,0.54,2.6,1.33,3.71c1.49,2.11,3.84,2.5,5.93,0.99c0.79-0.57,1.42-1.29,1.92-2.12C253.51,329.85,254,327.99,253.96,326
				z"/>
			<path d="M302.64,328.19c0.14-4.08,0.3-8.57,0.46-13.07c0.07-1.92,0.15-3.84,0.23-5.76c0.02-0.47,0-0.96,0.5-1.23
				c0.53-0.29,0.89,0.08,1.27,0.34c4.75,3.23,9.49,6.47,14.23,9.71c0.17,0.12,0.34,0.26,0.53,0.34c0.42,0.19,0.67,0.02,0.67-0.45
				c0-0.37-0.04-0.75-0.07-1.12c-0.21-2.59-0.42-5.18-0.62-7.78c-0.07-0.88,0.41-1.37,1.3-1.33c3.33,0.15,6.65,0.31,9.98,0.47
				c0.16,0.01,0.33,0.02,0.49,0.06c0.61,0.14,0.88,0.49,0.83,1.1c-0.13,1.45-0.28,2.89-0.42,4.34c-0.27,2.71-0.53,5.41-0.8,8.12
				c-0.31,3.13-0.62,6.25-0.92,9.38c-0.26,2.61-0.51,5.22-0.76,7.84c-0.04,0.44-0.08,0.89-0.14,1.33c-0.11,0.86-0.84,1.22-1.59,0.77
				c-0.22-0.13-0.41-0.31-0.62-0.47c-3.79-3-7.58-5.99-11.37-8.98c-0.2-0.16-0.41-0.32-0.64-0.43c-0.34-0.15-0.62,0-0.68,0.36
				c-0.05,0.25-0.03,0.51-0.02,0.77c0.14,2.93,0.28,5.85,0.42,8.78c0.01,0.28,0.03,0.56,0.01,0.84c-0.04,0.68-0.28,0.93-0.94,0.97
				c-0.54,0.03-1.08,0.05-1.62,0.06c-2.95,0.05-5.91,0.1-8.86,0.15c-0.12,0-0.23,0-0.35,0c-0.73,0.03-1.1-0.38-1.07-1.12
				C302.29,337.66,302.45,333.13,302.64,328.19z"/>
			<path d="M214.54,333.92c0,0.3-0.01,0.58,0,0.85c0.07,1.9,0.14,3.8,0.22,5.7c0.04,1.03-0.25,1.39-1.26,1.52
				c-2.5,0.33-5.01,0.67-7.51,1c-0.9,0.12-1.23-0.16-1.29-1.08c-0.01-0.21-0.01-0.42-0.01-0.63c0-10.2-0.01-20.41-0.01-30.61
				c0-1.67,0.17-1.89,1.82-2.21c3.27-0.64,6.58-0.8,9.9-0.69c2.15,0.07,4.31,0.19,6.42,0.67c1.48,0.34,2.91,0.8,4.23,1.55
				c1.94,1.1,3.44,2.6,4.16,4.76c0.55,1.64,0.46,3.29-0.04,4.92c-0.77,2.5-2.21,4.58-4.13,6.33c-0.87,0.79-1.84,1.49-2.76,2.22
				c-0.11,0.09-0.23,0.16-0.34,0.25c-0.53,0.42-0.53,0.6,0.02,0.99c1.8,1.27,3.6,2.54,5.4,3.81c0.72,0.51,1.42,1.05,2.16,1.51
				c0.69,0.43,0.83,1.33,0.09,1.96c-2.41,2.04-4.76,4.14-7.14,6.2c-0.73,0.63-1.35,0.58-1.98-0.15c-2.41-2.82-4.82-5.64-7.23-8.46
				C215.09,334.16,215,333.88,214.54,333.92z M214.01,322.18c0.01,0,0.01,0,0.02,0c0,0.12-0.01,0.23,0,0.35
				c0.04,0.62,0.05,1.25,0.12,1.87c0.06,0.56,0.27,0.73,0.7,0.59c1.41-0.45,2.69-1.14,3.69-2.26c0.53-0.58,0.83-1.28,0.84-2.08
				c0.01-0.98-0.46-1.62-1.4-1.9c-1.16-0.34-2.25-0.13-3.29,0.43c-0.47,0.25-0.69,0.66-0.69,1.2
				C214.02,320.97,214.01,321.58,214.01,322.18z"/>
			<path d="M335.23,326.48c-0.1-4.64-0.19-9.28-0.29-13.92c-0.01-0.42-0.04-0.85-0.07-1.27c-0.04-0.75,0.28-1.23,1-1.52
				c1.65-0.65,3.34-1.14,5.08-1.45c2.61-0.47,5.24-0.65,7.88-0.45c4.12,0.31,7.64,1.93,10.47,4.95c1.82,1.94,2.86,4.29,3.52,6.84
				c1.46,5.59-0.04,10.42-3.87,14.61c-2.08,2.27-4.6,3.95-7.33,5.33c-3.3,1.67-6.75,2.87-10.4,3.49c-1.23,0.21-2.48,0.32-3.73,0.23
				c-0.28-0.02-0.56-0.07-0.84-0.12c-0.62-0.11-0.92-0.53-1.04-1.1c-0.04-0.16-0.03-0.33-0.03-0.49
				c-0.11-5.04-0.22-10.08-0.33-15.12C335.24,326.48,335.24,326.48,335.23,326.48z M345.21,328.76c0.01,0.62,0.25,0.76,0.8,0.46
				c1.13-0.61,2.15-1.37,2.88-2.44c0.35-0.52,0.65-1.1,0.84-1.69c0.41-1.32-0.09-2.52-1.31-3.17c-0.55-0.29-1.18-0.46-1.79-0.6
				c-0.88-0.2-1.26,0.07-1.33,0.95C345.19,323.44,345.19,327.77,345.21,328.76z"/>
			<path d="M286.56,314.5c-0.05-0.96-0.06-1.92-0.07-2.88c0-0.24,0.05-0.48,0.1-0.71c0.13-0.58,0.49-0.91,1.09-0.99
				c1.76-0.23,3.53-0.48,5.29-0.71c0.74-0.1,1.48-0.2,2.22-0.27c0.92-0.08,1.27,0.12,1.62,0.98c0.77,1.91,1.22,3.9,1.54,5.92
				c0.41,2.59,0.63,5.21,0.66,7.83c0.05,3.58-0.33,7.11-1.39,10.54c-0.37,1.2-0.93,2.32-1.61,3.38c-2.07,3.23-5.07,4.97-8.81,5.53
				c-3.03,0.45-5.94-0.01-8.76-1.17c-2.87-1.18-5-3.19-6.54-5.86c-1.43-2.48-2.15-5.18-2.45-8.01c-0.3-2.89-0.03-5.76,0.24-8.64
				c0.31-3.32,1.14-6.53,1.91-9.76c0.08-0.35,0.19-0.7,0.33-1.03c0.26-0.63,0.68-0.89,1.37-0.79c1.19,0.16,2.38,0.35,3.57,0.54
				c1.76,0.27,3.51,0.58,5.27,0.81c1.53,0.2,1.66,0.77,1.42,1.98c-1.06,5.41-1.44,10.87-1.22,16.37c0.04,1,0.25,2,0.44,2.99
				c0.08,0.41,0.26,0.83,0.49,1.19c0.53,0.86,1.46,0.95,2.11,0.18c0.35-0.41,0.61-0.92,0.81-1.43c0.5-1.27,0.65-2.61,0.71-3.96
				C286.95,325.48,286.71,317.45,286.56,314.5z"/>
			<path d="M54.13,317.34c-0.04-1.68-0.09-3.37-0.13-5.05c-0.01-0.28,0.01-0.55,0.01-0.83c-0.01-0.39,0.17-0.66,0.5-0.85
				c0.24-0.14,0.49-0.27,0.74-0.38c3.82-1.76,7.82-2.59,12.04-2.31c2.4,0.16,4.71,0.6,6.91,1.58c3.25,1.45,5.37,3.87,6.14,7.36
				c0.63,2.82,0.15,5.55-1,8.18c-1.16,2.66-3.06,4.7-5.38,6.39c-1.96,1.42-4.11,2.46-6.38,3.29c-0.43,0.16-0.85,0.35-1.27,0.54
				c-0.45,0.2-0.65,0.56-0.62,1.05c0.05,0.71,0.08,1.43,0.14,2.14c0.07,0.97,0.15,1.93,0.22,2.9c0.02,0.25,0.04,0.51,0.03,0.76
				c-0.03,0.46-0.26,0.72-0.71,0.81c-0.18,0.04-0.37,0.05-0.55,0.06c-2.88,0.1-5.77,0.19-8.65,0.29c-0.16,0.01-0.32,0.01-0.48,0
				c-0.54-0.04-0.83-0.31-0.92-0.86c-0.02-0.14-0.02-0.28-0.02-0.41C54.63,337.29,54.21,320.5,54.13,317.34z M66.8,320.07
				c-0.5,0.06-1.01,0.09-1.5,0.2c-0.57,0.12-0.76,0.39-0.73,0.99c0.04,0.78,0.1,1.56,0.16,2.34c0.08,1.06,0.15,2.11,0.25,3.17
				c0.07,0.72,0.39,0.94,1.01,0.63c0.94-0.48,1.88-0.99,2.75-1.58c0.88-0.6,1.42-1.5,1.73-2.52c0.37-1.21-0.09-2.2-1.25-2.72
				C68.46,320.23,67.65,320.08,66.8,320.07z"/>
			<path d="M186.67,324.66c-0.05-0.93,0.16-1.2,1.11-1.3c2.05-0.22,4.09-0.41,6.14-0.61c2.12-0.21,4.24-0.42,6.36-0.61
				c1.16-0.11,1.36,0.03,1.47,1.19c0.58,6.05-1.01,11.4-5.42,15.69c-3.65,3.55-8.07,4.93-13.11,3.89c-3.06-0.63-5.63-2.2-7.74-4.5
				c-3.09-3.36-4.62-7.36-4.81-11.9c-0.16-3.83,0.69-7.41,2.67-10.69c1.74-2.9,4-5.28,7.15-6.7c2.18-0.98,4.47-1.36,6.85-1.18
				c2.35,0.17,4.63,0.65,6.81,1.58c0.55,0.23,1.08,0.52,1.59,0.82c0.69,0.4,0.76,0.63,0.42,1.34c-0.71,1.48-1.45,2.96-2.18,4.44
				c-0.36,0.73-0.71,1.46-1.07,2.19c-0.5,1.02-0.71,1.11-1.8,0.67c-1.02-0.41-2.07-0.58-3.15-0.58c-2.53,0.01-4.52,1.1-5.99,3.12
				c-1.24,1.7-1.75,3.63-1.71,5.73c0.03,1.66,0.4,3.23,1.27,4.65c0.87,1.42,2.05,2.45,3.73,2.8c2.41,0.5,4.4-0.6,5.2-2.23
				c0.05-0.11,0.11-0.21,0.14-0.33c0.13-0.5-0.07-0.79-0.59-0.8c-0.69-0.02-1.39,0.01-2.08,0c-0.82-0.01-1-0.18-1.04-1.01
				C186.83,329.34,186.71,325.57,186.67,324.66z"/>
			<path d="M143.7,339.23c-0.01,0.48-0.17,0.75-0.46,0.91c-0.23,0.13-0.48,0.23-0.72,0.32c-2.88,0.96-5.77,1.91-8.66,2.86
				c-0.07,0.02-0.14,0.04-0.21,0.06c-0.74,0.22-1.08,0.09-1.41-0.6c-0.45-0.93-0.91-1.86-1.32-2.82c-0.35-0.81-0.89-1.17-1.79-1.14
				c-2.24,0.07-4.49,0.08-6.74,0.11c-0.19,0-0.39,0.03-0.58,0.03c-0.79,0.04-1.3,0.39-1.49,1.2c-0.14,0.61-0.38,1.19-0.59,1.79
				c-0.29,0.85-0.68,1.11-1.58,1.03c-1.06-0.09-2.11-0.22-3.17-0.31c-1.97-0.18-3.94-0.35-5.91-0.53c-0.58-0.05-1.15-0.09-1.73-0.15
				c-0.17-0.02-0.33-0.06-0.5-0.1c-1.02-0.26-1.32-0.92-0.82-1.83c3.01-5.48,6.01-10.96,9.02-16.44c2.74-4.99,5.48-9.99,8.22-14.98
				c0.12-0.21,0.23-0.43,0.37-0.62c0.39-0.49,0.93-0.53,1.38-0.08c0.17,0.17,0.3,0.38,0.42,0.58c5.97,9.99,11.94,19.97,17.9,29.96
				C143.51,338.77,143.62,339.07,143.7,339.23z M125.42,332.7C125.42,332.71,125.42,332.71,125.42,332.7
				c0.19,0.01,0.39,0.01,0.58,0.01c0.41,0,0.82,0.04,1.23-0.01c0.49-0.05,0.6-0.3,0.41-0.74c-0.1-0.22-0.21-0.43-0.32-0.65
				c-0.72-1.44-1.44-2.88-2.18-4.32c-0.08-0.15-0.25-0.33-0.4-0.36c-0.28-0.05-0.32,0.22-0.39,0.43c-0.23,0.76-0.47,1.52-0.68,2.28
				c-0.22,0.79-0.44,1.58-0.6,2.38c-0.13,0.64,0.04,0.84,0.69,0.9C124.31,332.67,124.87,332.68,125.42,332.7z"/>
			<path d="M146.98,335.46c0.07-2.24,0.13-4.49,0.22-6.73c0.02-0.64-0.27-1.13-0.66-1.57c-0.69-0.76-1.39-1.51-2.09-2.27
				c-2.86-3.09-5.73-6.17-8.59-9.26c-0.13-0.14-0.26-0.27-0.38-0.42c-0.3-0.39-0.32-0.76-0.05-1.16c0.14-0.21,0.34-0.39,0.53-0.55
				c2-1.66,4-3.31,6.01-4.96c0.13-0.1,0.25-0.21,0.39-0.3c0.38-0.25,0.76-0.25,1.1,0.05c0.35,0.31,0.68,0.65,0.97,1.01
				c2.29,2.81,4.58,5.62,6.87,8.43c0.1,0.13,0.2,0.26,0.31,0.38c0.3,0.31,0.54,0.3,0.81-0.05c0.11-0.15,0.19-0.32,0.28-0.48
				c1.7-2.96,3.4-5.92,5.12-8.87c0.57-0.98,1.08-1.1,2.08-0.54c3.25,1.81,6.49,3.63,9.73,5.45c0.14,0.08,0.29,0.15,0.42,0.25
				c0.43,0.33,0.49,0.79,0.16,1.23c-0.1,0.13-0.22,0.25-0.33,0.37c-4.2,4.53-8.38,9.07-12.61,13.57c-0.57,0.61-0.79,1.24-0.76,2.01
				c0.05,1.17,0.11,2.34,0.17,3.5c0.1,2.17,0.22,4.34,0.31,6.52c0.04,1.03-0.31,1.4-1.32,1.49c-2.3,0.22-4.61,0.45-6.91,0.66
				c-0.37,0.04-0.75,0.07-1.12,0.07c-0.64,0-0.9-0.27-0.88-0.9C146.82,340.09,146.9,337.78,146.98,335.46
				C146.98,335.46,146.98,335.46,146.98,335.46z"/>
			<path d="M83.62,327.02c0.11-6.24,0.21-11.43,0.3-16.62c0.01-0.31,0.01-0.61,0.04-0.91c0.06-0.65,0.23-0.8,0.89-0.84
				c0.82-0.05,1.64-0.11,2.46-0.16c2.51-0.17,5.01-0.34,7.52-0.51c0.85-0.06,1.12,0.19,1.08,1.05c-0.11,2.51-0.24,5.02-0.37,7.53
				c-0.12,2.32-0.25,4.64-0.37,6.96c-0.14,2.63-0.28,5.25-0.41,7.88c-0.07,1.34-0.03,1.37,1.31,1.13c2.43-0.43,4.85-0.86,7.28-1.29
				c0.83-0.15,1.13,0.09,1.11,0.96c-0.03,1.03-0.1,2.06-0.18,3.09c-0.11,1.5-0.24,3-0.36,4.49c-0.03,0.4-0.1,0.79-0.16,1.19
				c-0.08,0.54-0.42,0.82-0.95,0.87c-0.44,0.04-0.89,0.08-1.33,0.11c-2.97,0.21-5.95,0.42-8.92,0.63c-2.67,0.19-5.34,0.39-8.01,0.58
				c-0.14,0.01-0.28,0.03-0.42,0.02c-0.54-0.04-0.81-0.32-0.8-0.86c0-0.87,0.03-1.74,0.04-2.61
				C83.45,335.13,83.55,330.55,83.62,327.02z"/>
		</g>
		<g>
			<path d="M163.28,243.67c-0.21-1.15-0.59-2.26-1.21-3.27c-0.49-0.8-1.19-1.21-2.1-1.2c-1.17,0.01-2.33,0.18-3.43,0.62
				c-0.57,0.23-0.96,0.64-1.1,1.23c-0.14,0.62-0.32,1.26-0.31,1.89c0.01,1.35,0.05,2.71,0.23,4.04c0.8,5.77,1.64,11.53,2.52,17.29
				c0.27,1.74,0.67,3.47,1.06,5.19c0.21,0.94,0.62,1.82,1.2,2.6c0.61,0.82,1.43,1.32,2.45,1.33c0.75,0.01,1.52-0.05,2.24-0.25
				c1.17-0.32,1.94-1.11,2.14-2.35c0.09-0.54,0.12-1.09,0.12-1.64c-0.02-2.11-0.28-4.21-0.58-6.3
				C166.16,260.58,164.04,247.77,163.28,243.67z"/>
			<path d="M304.23,258.09l-8.67-22.27c-0.12-0.3-0.17-0.62-0.15-0.94l1.35-23.86c0.08-1.43-1.18-2.57-2.59-2.34l-179.28,28.47
				c-1.41,0.22-2.26,1.7-1.74,3.03l8.67,22.27c0.12,0.3,0.17,0.62,0.15,0.94l-1.35,23.86c-0.08,1.43,1.18,2.57,2.59,2.34
				l179.28-28.47C303.91,260.89,304.75,259.42,304.23,258.09z M170.6,270.3c-0.02,0.41-0.08,0.82-0.15,1.23
				c-0.46,2.46-1.94,3.97-4.31,4.68c-1.08,0.32-2.16,0.63-3.29,0.65c-0.97,0.02-1.92-0.06-2.86-0.32c-2.12-0.61-3.28-2.15-3.97-4.13
				c-0.65-1.85-1-3.76-1.31-5.69c-0.51-3.17-2.39-15.55-2.8-18.57c-0.25-1.84-0.49-3.69-0.33-5.55c0.08-0.86,0.23-1.73,0.48-2.56
				c0.51-1.72,1.65-2.89,3.35-3.46c1.71-0.57,3.48-0.84,5.28-0.78c1.63,0.06,2.94,0.77,3.94,2.07c0.94,1.22,1.54,2.61,1.89,4.09
				c0.39,1.63,0.76,3.26,1.02,4.91c0.93,5.82,1.83,11.64,2.72,17.47C170.55,266.31,170.7,268.3,170.6,270.3z M188.66,261.28
				c-0.28,0.11-0.58,0.17-0.88,0.22c-1.25,0.18-2.51,0.35-3.77,0.53c-0.97,0.13-1.1,0.31-0.95,1.3c0.39,2.58,0.79,5.15,1.18,7.73
				c0.05,0.32,0.08,0.66,0.03,0.98c-0.11,0.81-0.75,1.43-1.53,1.53c-0.76,0.09-1.52-0.31-1.83-1.03c-0.15-0.34-0.22-0.71-0.28-1.08
				c-0.93-5.99-1.84-11.97-2.76-17.96c-0.91-5.94-1.8-11.89-2.76-17.82c-0.27-1.69,0.44-2.67,2.1-2.87c2.8-0.34,5.58-0.77,8.37-1.16
				c0.21-0.03,0.42-0.06,0.63-0.07c0.9-0.01,1.65,0.6,1.82,1.46c0.17,0.87-0.3,1.7-1.16,2.02c-0.28,0.1-0.59,0.16-0.89,0.2
				c-1.93,0.28-3.86,0.54-5.79,0.81c-0.21,0.03-0.42,0.05-0.62,0.11c-0.48,0.13-0.6,0.32-0.55,0.82c0.01,0.12,0.03,0.23,0.05,0.35
				c1.04,6.75,2.07,13.51,3.11,20.26c0.14,0.91,0.15,0.95,1.06,0.85c1.38-0.15,2.74-0.37,4.12-0.55c0.3-0.04,0.61-0.06,0.91-0.02
				c0.83,0.13,1.39,0.74,1.49,1.55C189.86,260.22,189.42,260.97,188.66,261.28z M214.28,230.83c-0.26,0.1-0.54,0.16-0.82,0.2
				c-1.1,0.18-2.19,0.34-3.29,0.52c-0.3,0.05-0.61,0.11-0.9,0.2c-0.3,0.09-0.47,0.31-0.43,0.64c0.02,0.19,0.05,0.37,0.08,0.56
				c1.79,11.43,3.58,22.86,5.36,34.3c0.05,0.35,0.1,0.71,0.08,1.06c-0.04,0.75-0.59,1.33-1.32,1.45c-0.75,0.12-1.49-0.29-1.75-1.01
				c-0.09-0.24-0.13-0.5-0.17-0.76c-0.87-5.65-4.45-28.13-5.32-33.73c-0.06-0.37-0.15-0.74-0.25-1.1c-0.19-0.67-0.4-0.81-1.08-0.72
				c-1.05,0.14-2.1,0.33-3.15,0.47c-0.35,0.05-0.71,0.08-1.05,0.02c-1.15-0.22-1.67-1.57-0.95-2.48c0.22-0.28,0.59-0.45,0.91-0.63
				c0.16-0.09,0.37-0.08,0.55-0.11c4.01-0.63,8.03-1.25,12.04-1.88c0.28-0.04,0.56-0.09,0.84-0.09c0.81-0.02,1.49,0.52,1.65,1.28
				C215.47,229.78,215.04,230.53,214.28,230.83z M240.93,264.72c-0.89,0.15-1.74-0.37-2.01-1.27c-0.1-0.34-0.16-0.69-0.21-1.03
				c-0.41-2.53-0.81-5.06-1.21-7.58c-0.17-1.07-0.32-1.18-1.38-1.03c-1.98,0.27-3.95,0.55-5.93,0.84c-1.09,0.16-1.21,0.34-1.04,1.44
				c0.41,2.62,0.82,5.24,1.22,7.87c0.04,0.28,0.09,0.56,0.1,0.84c0.01,0.88-0.64,1.64-1.5,1.78c-0.86,0.14-1.71-0.39-1.98-1.23
				c-0.07-0.22-0.1-0.46-0.14-0.69c-1.88-11.97-3.76-23.94-5.64-35.91c-0.04-0.25-0.08-0.51-0.09-0.77
				c-0.02-0.91,0.58-1.67,1.43-1.85c0.84-0.18,1.69,0.28,2.03,1.14c0.13,0.32,0.19,0.68,0.25,1.02c1.12,7.19,2.24,14.39,3.36,21.58
				c0.2,1.26,0.33,1.35,1.61,1.17c1.88-0.26,3.77-0.52,5.65-0.79c1.18-0.17,1.3-0.33,1.11-1.51c-1.13-7.17-2.27-14.33-3.4-21.5
				c-0.07-0.46-0.15-0.93-0.15-1.4c0-0.96,0.65-1.66,1.57-1.77c0.89-0.11,1.71,0.45,1.95,1.36c0.05,0.18,0.08,0.37,0.11,0.55
				c0.93,6.06,4.76,30.08,5.68,36.05c0.04,0.28,0.1,0.56,0.11,0.84C242.45,263.78,241.82,264.56,240.93,264.72z M261.64,261.16
				c-0.27,0.13-0.57,0.22-0.87,0.26c-2.78,0.44-5.57,0.88-8.35,1.31c-1.2,0.18-1.94-0.31-2.27-1.47c-0.11-0.38-0.18-0.78-0.24-1.17
				c-0.91-5.9-1.81-11.79-2.72-17.69c-0.92-5.99-1.81-11.98-2.78-17.96c-0.27-1.68,0.43-2.66,2.1-2.87c2.8-0.34,5.58-0.77,8.37-1.16
				c0.21-0.03,0.42-0.06,0.63-0.07c0.9-0.01,1.65,0.6,1.82,1.46c0.16,0.84-0.28,1.66-1.1,1.99c-0.3,0.12-0.63,0.18-0.95,0.23
				c-1.93,0.28-3.86,0.54-5.79,0.81c-0.19,0.03-0.37,0.05-0.56,0.09c-0.49,0.11-0.63,0.29-0.6,0.79c0.01,0.21,0.05,0.42,0.08,0.63
				c1,6.52,2,13.05,3,19.57c0.21,1.35,0.32,1.43,1.69,1.24c1.21-0.17,2.42-0.34,3.63-0.5c0.28-0.04,0.57-0.05,0.84-0.01
				c0.83,0.13,1.39,0.74,1.49,1.55c0.1,0.8-0.33,1.54-1.1,1.86c-0.26,0.1-0.54,0.17-0.82,0.21c-1.07,0.16-2.14,0.3-3.21,0.46
				c-0.23,0.03-0.47,0.06-0.7,0.1c-0.83,0.16-1.01,0.37-0.89,1.2c0.28,1.95,0.59,3.9,0.9,5.85c0.15,0.9,0.31,1,1.24,0.86
				c1.88-0.29,3.76-0.59,5.64-0.88c0.34-0.05,0.71-0.07,1.05-0.02c0.78,0.13,1.34,0.75,1.43,1.53
				C262.7,260.11,262.33,260.84,261.64,261.16z"/>
		</g>
		<g>
			<path d="M330.89,121.32c0.09-0.74,0.15-1.18,0.19-1.63c0.19-1.88,1.12-3.37,2.71-4.29c3-1.75,6.21-2.34,9.62-1.28
				c1.57,0.49,2.84,1.43,3.78,2.75c0.73,1,1.37,2.08,1.93,3.18c1.28,2.53,2.24,5.19,3.11,7.88c2.14,6.63,3.83,13.37,5.38,20.16
				c1.68,7.39,3.4,14.77,4.95,22.19c1.21,5.76,2.19,11.56,3.28,17.34c0.11,0.61,0.24,1.22,0.38,1.98c0.28-0.19,0.53-0.28,0.68-0.46
				c1.25-1.57,2.11-3.34,2.69-5.25c0.84-2.77,1.38-5.61,1.62-8.49c0.31-3.78,0.52-7.56,0.79-11.35c0.06-0.9,0.15-1.81,0.31-2.7
				c0.32-1.78,1.88-2.77,3.65-2.38c0.93,0.2,1.52,0.76,1.69,1.68c0.16,0.83,0.31,1.68,0.33,2.52c0.13,6.42-0.44,12.78-1.98,19.02
				c-0.63,2.54-1.59,4.95-2.95,7.2c-1.28,2.11-2.86,3.93-4.94,5.29c-0.19,0.12-0.35,0.28-0.54,0.42c0,0.3-0.04,0.58,0.01,0.85
				c0.72,4.41,1.51,8.81,2.15,13.23c0.4,2.74,0.61,5.51,0.83,8.28c0.33,4.23,0.65,8.47,0.89,12.7c0.37,6.51,0.37,13.02-0.59,19.49
				c-0.6,4.04-1.49,8.01-2.79,11.88c-2.03,6.04-5.38,11.2-10.38,15.21c-4.29,3.45-9.21,4.99-14.69,4.62
				c-3.56-0.24-6.86-1.4-9.84-3.38c-3.68-2.44-6.71-5.53-9.08-9.27c-2.1-3.32-3.68-6.88-5.01-10.56
				c-1.79-4.96-3.24-10.01-4.01-15.24c-0.38-2.57-0.66-5.17-0.78-7.76c-0.21-4.41-0.19-8.83,0.3-13.23
				c0.6-5.38,1.7-10.61,4.14-15.49c3.11-6.2,7.71-10.83,14.16-13.54c3.88-1.63,7.94-2.19,12.11-2.03c1.35,0.05,2.7,0.18,4.04,0.27
				c0.48-0.48,0.19-1.01,0.11-1.47c-0.46-2.56-0.97-5.11-1.45-7.67c-2.38-12.58-5.83-24.89-9.19-37.22
				c-0.37-1.36-0.76-2.72-1.15-4.08c-0.03-0.11-0.09-0.2-0.2-0.44c-0.19,0.31-0.4,0.53-0.48,0.79c-3.47,10.71-7.41,21.25-11.3,31.82
				c-1.11,3.03-2.4,5.98-4.02,8.79c-1.1,1.92-2.34,3.74-3.82,5.4c-2.55,2.86-5.58,4.96-9.4,5.72c-5.26,1.04-9.86-0.37-13.81-3.92
				c-1.65-1.48-2.97-3.26-4.23-5.08c-2.66-3.84-4.66-8.01-6.29-12.37c-0.2-0.53-0.39-1.05-0.65-1.75c-0.22,0.34-0.4,0.55-0.48,0.78
				c-0.23,0.64-0.44,1.29-0.61,1.94c-1.07,4.05-2.12,8.1-3.19,12.14c-1.13,4.27-2.4,8.49-4.36,12.47c-0.47,0.96-0.99,1.91-1.53,2.84
				c-1.7,2.9-4.29,4.65-7.5,5.41c-4.77,1.13-8.96-0.08-12.51-3.45c-2.17-2.07-3.56-4.66-4.66-7.42c-1.18-2.96-1.8-6.07-2.3-9.2
				c-0.77-4.81-1.07-9.67-1.35-14.53c-0.5-8.76-0.67-17.53-0.82-26.31c-0.07-3.85-0.18-7.7-0.34-11.54
				c-0.11-2.54-0.34-5.08-0.56-7.62c-0.06-0.73-0.21-1.46-0.41-2.16c-0.12-0.42-0.38-0.82-0.64-1.18c-0.3-0.4-0.73-0.49-1.21-0.32
				c-0.81,0.3-1.53,0.76-2.1,1.4c-1.13,1.26-2.3,2.51-3.31,3.86c-2.94,3.91-5.26,8.18-7.29,12.61c-3.29,7.18-5.6,14.68-7.44,22.34
				c-1.36,5.69-2.09,11.45-2.45,17.29c-0.39,6.27-0.59,12.55-0.64,18.84c-0.01,1.13-0.12,2.26-0.16,3.39
				c-0.06,1.61-0.77,2.96-1.76,4.14c-1.64,1.98-3.81,3-6.37,3.05c-1.9,0.04-3.39-0.79-4.28-2.53c-0.28-0.55-0.57-1.11-0.82-1.68
				c-3.13-7.17-5.46-14.61-7.27-22.22c-0.17-0.71-0.35-1.41-0.52-2.07c-0.42-0.1-0.44,0.16-0.47,0.36
				c-0.81,4.28-1.57,8.57-2.43,12.84c-0.34,1.71-0.8,3.42-1.36,5.07c-0.38,1.11-0.92,2.2-1.57,3.18c-1.77,2.7-5.39,4.33-9.12,2.95
				c-1.23-0.46-2.38-1.06-3.42-1.84c-4.28-3.22-7.36-7.31-8.93-12.47c-0.39-1.3-0.7-2.62-1.05-3.93c-0.11-0.43-0.23-0.87-0.38-1.42
				c-0.45,0.34-0.51,0.76-0.64,1.15c-1.68,4.98-3.34,9.97-5.07,14.94c-0.71,2.03-1.54,4.01-2.36,6c-0.78,1.89-1.76,3.68-3.1,5.24
				c-4.5,5.24-10.12,6.95-16.79,5.29c-1.66-0.41-3.2-1.12-4.69-1.94c-3.55-1.97-6.61-4.55-9.35-7.52c-2.81-3.05-5.26-6.36-7.38-9.93
				c-0.28-0.47-0.58-0.93-0.87-1.38c-0.43,0.2-0.32,0.52-0.33,0.77c-0.26,6.25,0.25,12.44,1.61,18.55c0.28,1.27,0.47,2.56,0.6,3.85
				c0.22,2.13-0.57,3.88-2.22,5.23c-1.47,1.2-3.1,2.07-5.04,2.22c-2.23,0.17-3.99-0.64-5.22-2.5c-0.5-0.75-0.9-1.57-1.3-2.38
				c-4.19-8.29-7.77-16.84-10.77-25.64c-0.24-0.69-0.49-1.38-0.79-2.21c-0.28,0.34-0.52,0.56-0.67,0.83
				c-4.1,7.24-8.19,14.48-11.93,21.91c-2.73,5.41-5.08,10.98-6.76,16.82c-1.99,6.93-2.79,13.99-2.17,21.16
				c0.91,10.44,4.06,20.15,9.9,28.92c1.64,2.46,3.52,4.71,5.53,6.86c0.62,0.66,1.23,1.34,1.75,2.07c0.76,1.06,0.71,1.98-0.02,2.78
				c-0.81,0.87-1.88,1.11-2.93,0.6c-0.4-0.2-0.78-0.45-1.15-0.71c-2.23-1.58-4.24-3.39-5.98-5.5c-4.42-5.34-7.58-11.38-9.81-17.91
				c-2.63-7.68-3.79-15.6-3.4-23.72c0.3-6.38,1.64-12.55,3.81-18.55c1.75-4.85,3.88-9.53,6.23-14.12c3.39-6.59,7.11-13,10.77-19.45
				c1.37-2.41,2.72-4.83,4.12-7.22c0.5-0.84,0.59-1.61,0.3-2.56c-1.82-5.9-3.28-11.88-4.42-17.95c-1.39-7.4-2.53-14.84-2.62-22.39
				c-0.06-5.45,0.27-10.86,1.42-16.2c0.76-3.56,1.94-6.96,3.74-10.15c2.82-4.97,7.2-7.62,12.71-8.31
				c5.77-0.72,10.41,1.73,12.85,7.04c0.98,2.13,1.56,4.36,1.9,6.67c0.58,3.95,0.38,7.9-0.15,11.85c-1.02,7.68-3.34,15-6.09,22.21
				c-1.88,4.92-4.01,9.73-6.3,14.46c-0.38,0.79-0.57,1.52-0.34,2.43c1.22,4.83,2.58,9.61,4.15,14.34c0.07,0.2,0.21,0.38,0.29,0.53
				c0.12,0,0.19,0.02,0.22,0c0.04-0.03,0.06-0.1,0.07-0.15c0.12-0.95,0.23-1.91,0.34-2.86c1.1-9.17,2.82-18.22,5.54-27.06
				c1.55-5.04,3.54-9.91,6.06-14.55c1.68-3.09,3.6-6.02,5.91-8.68c1.79-2.07,3.81-3.87,6.24-5.17c3.5-1.87,7.19-2.36,11.01-1.29
				c5.3,1.48,8.59,5.03,10.06,10.28c0.66,2.36,0.81,4.8,0.59,7.24c-0.32,3.7-1.27,7.23-2.83,10.6c-3.4,7.35-8.63,13.08-15.32,17.54
				c-1.41,0.94-2.9,1.76-4.36,2.63c-0.38,0.23-0.79,0.43-1.25,0.68c0.07,0.47,0.08,0.92,0.2,1.33c1.37,4.85,2.91,9.64,5.05,14.22
				c1.27,2.72,2.74,5.33,4.4,7.83c1.22,1.85,2.62,3.55,4.23,5.07c0.91,0.86,1.94,1.54,3.13,1.99c1.01,0.38,1.91,0.22,2.68-0.48
				c0.54-0.49,1.03-1.05,1.47-1.63c1-1.31,1.76-2.77,2.41-4.28c2.12-4.88,3.97-9.87,5.66-14.91c1.72-5.15,3.3-10.34,4.96-15.51
				c0.26-0.82,0.36-1.63,0.3-2.5c-0.39-5.48-0.55-10.96-0.55-16.46c-0.01-5.6-0.14-11.21-0.15-16.81c0-2.37,0.18-4.75,0.3-7.12
				c0.02-0.45,0.13-0.89,0.21-1.34c0.5-2.99,2.34-4.81,5.1-5.8c1.73-0.63,3.53-0.79,5.35-0.54c2.45,0.34,4.18,1.6,4.93,4.05
				c0.57,1.85,0.88,3.75,0.99,5.67c0.28,5.03,0.5,10.06,0.75,15.09c0.29,5.88,0.58,11.76,0.88,17.64c0.12,2.26,0.29,4.52,0.4,6.78
				c0.33,6.45,0.95,12.87,1.78,19.27c0.13,1.01,0.38,2,0.64,2.98c0.11,0.41,0.4,0.76,0.61,1.16c0.55-0.22,0.59-0.65,0.69-0.99
				c0.69-2.51,1.47-5,2-7.54c1.48-7.03,2.84-14.08,4.27-21.12c0.13-0.62,0.12-1.22,0.04-1.85c-1-7.59-1.55-15.2-1.38-22.86
				c0.08-3.34,0.06-6.68,0.55-10c0.18-1.23,0.39-2.47,0.74-3.65c0.91-3.02,2.87-4.95,6.04-5.5c2.47-0.43,4.84-0.28,7,1.18
				c1.54,1.04,2.53,2.44,2.82,4.26c0.2,1.22,0.33,2.47,0.35,3.71c0.07,5.04,0.03,10.08,0.15,15.11c0.14,6.11,0.39,12.22,0.61,18.33
				c0.03,0.7-0.1,1.47,0.47,2.19c0.52-2.54,0.99-4.98,1.52-7.41c2.37-10.77,5.94-21.12,11.18-30.85c1.61-2.99,3.36-5.9,5.39-8.63
				c1.25-1.68,2.61-3.27,4.16-4.7c2.28-2.11,4.86-3.71,7.94-4.34c4.66-0.96,8.75,0.17,12.13,3.57c1.7,1.71,2.83,3.8,3.68,6.05
				c1.06,2.83,1.6,5.77,2,8.75c0.57,4.21,0.8,8.45,0.74,12.7c-0.07,4.64-0.13,9.28-0.25,13.92c-0.13,5.38-0.13,10.76,0.27,16.12
				c0.33,4.4,0.79,8.79,1.96,13.07c0.22,0.82,0.44,1.64,0.72,2.44c0.69,1.92,1.39,3.83,2.13,5.73c0.54,1.39,0.81,1.76,1.81,2.71
				c0.24-0.2,0.55-0.37,0.71-0.63c0.72-1.15,1.45-2.3,2.06-3.51c1.27-2.53,2.21-5.2,3.1-7.89c2.94-8.92,5.49-17.96,7.94-27.02
				c0.23-0.85,0.21-1.67,0.17-2.52c-0.1-2.32-0.28-4.64-0.24-6.95c0.09-5.23,0.73-10.38,2.34-15.38c1.06-3.3,2.47-6.43,4.27-9.4
				c2.53-4.18,6.09-7.07,10.56-8.94c3.93-1.64,8.03-2.25,12.27-2.13c5.33,0.15,10.24,1.68,14.74,4.52c1.82,1.15,3.53,2.44,5.3,3.68
				C329.89,120.58,330.29,120.88,330.89,121.32z M350.57,197.45c-3.63-0.44-7.08-0.88-10.6-0.42c-3.91,0.51-7.22,2.14-10.01,4.91
				c-1.5,1.48-2.75,3.16-3.77,4.99c-1.22,2.18-2.13,4.5-2.79,6.9c-1.05,3.78-1.55,7.64-1.79,11.55c-0.45,7.11,0.15,14.14,1.86,21.05
				c1.2,4.85,2.94,9.51,5.39,13.88c1.25,2.23,2.68,4.33,4.51,6.13c2.09,2.05,4.5,3.59,7.29,4.51c1.58,0.52,3.2,0.76,4.85,0.57
				c2.44-0.28,4.46-1.27,5.48-3.68c0.46-1.09,0.93-2.19,1.29-3.31c0.68-2.1,1.04-4.28,1.35-6.47c0.58-4.09,0.9-8.21,1.14-12.33
				c0.5-8.79,0.13-17.54-0.91-26.26c-0.66-5.5-1.51-10.98-2.3-16.47C351.28,201.2,350.91,199.42,350.57,197.45z M333.62,132.29
				c-0.89-1.15-1.67-2.19-2.5-3.19c-0.58-0.69-1.19-1.37-1.86-1.97c-3.13-2.81-6.55-5.21-10.32-7.09c-1.47-0.73-3.02-1.29-4.64-1.57
				c-2.28-0.4-4.5-0.34-6.53,1.01c-1.05,0.7-1.94,1.55-2.7,2.55c-1.34,1.79-2.25,3.79-2.88,5.92c-1.47,4.9-2.36,9.9-2.5,15.02
				c-0.2,7.26,0.16,14.48,1.31,21.66c0.6,3.75,1.4,7.45,2.7,11.02c0.78,2.13,1.69,4.2,3.02,6.05c0.49,0.68,1.05,1.34,1.69,1.89
				c0.93,0.8,1.48,0.77,2.38-0.02c0.59-0.52,1.18-1.07,1.64-1.71c0.97-1.32,1.92-2.66,2.75-4.07c1.71-2.93,3.2-5.98,4.53-9.11
				c4.11-9.69,7.93-19.49,11.49-29.39C332.02,137.01,332.79,134.71,333.62,132.29z M102.21,166.48c0.1,0.02,0.21,0.04,0.31,0.07
				c0.11-0.18,0.24-0.35,0.33-0.54c3.61-8.15,6.55-16.51,7.96-25.35c0.6-3.76,0.84-7.54,0.45-11.34c-0.23-2.26-0.69-4.48-1.59-6.57
				c-0.4-0.93-0.9-1.83-1.48-2.65c-0.42-0.58-1.03-1.03-1.6-1.49c-0.41-0.34-0.91-0.26-1.23,0.1c-0.53,0.58-1.04,1.2-1.42,1.88
				c-1.28,2.36-2.06,4.89-2.52,7.53c-0.69,3.91-0.93,7.86-1.03,11.83c-0.19,7.2,0.32,14.37,1.12,21.52
				C101.69,163.14,101.97,164.81,102.21,166.48z M119.54,174.72c0.75-0.29,1.28-0.47,1.79-0.7c2.32-1.06,4.51-2.35,6.56-3.87
				c5.48-4.07,9.04-9.43,10.73-16.02c0.71-2.76,0.98-5.58,0.46-8.41c-0.18-0.99-0.45-1.99-0.85-2.92c-0.64-1.47-1.45-1.75-2.84-1
				c-0.84,0.45-1.63,1.03-2.33,1.66c-1.31,1.17-2.39,2.56-3.4,4c-1.46,2.09-2.7,4.31-3.79,6.62c-2.41,5.14-4.13,10.52-5.44,16.04
				C120.09,171.53,119.69,172.94,119.54,174.72z"/>
			<path d="M164.5,111.52c-0.02-4.28,3.43-7.77,7.73-7.83c4.28-0.06,7.86,3.4,7.85,7.69c0,4.19-3.17,7.76-7.74,7.8
				C167.51,119.24,164.44,115.36,164.5,111.52z"/>
		</g>
	</g>
</g>
</svg>
