<?xml version="1.0" encoding="utf-8"?>
<!-- Generator: Adobe Illustrator 25.2.1, SVG Export Plug-In . SVG Version: 6.00 Build 0)  -->
<svg version="1.1" id="Calque_1" xmlns="http://www.w3.org/2000/svg" xmlns:xlink="http://www.w3.org/1999/xlink" x="0px" y="0px"
	 viewBox="0 0 432 432" style="enable-background:new 0 0 432 432;" xml:space="preserve">
<style type="text/css">
	.st0{fill:#E0AAAF;}
	.st1{fill:#F9D53D;}
	.st2{fill:#FBB03B;}
	.st3{fill:#CCCCCC;}
	.st4{fill:#8CC63F;}
	.st5{fill:#C5D8A7;}
	.st6{fill:#C44750;}
	.st7{fill:#998675;}
	.st8{fill:#C7B299;}
	.st9{fill:none;}
	.st10{fill:#29ABE2;}
	.st11{fill:#B3B3B3;}
	.st12{fill:#C79C52;}
	.st13{fill:#65C8D0;}
	.st14{fill:#BA9BC9;}
	.st15{fill:#A57A7F;}
	.st16{fill:#FFFFFF;}
</style>
<g>
	<g>
		<path class="st4" d="M162.72,118.07c-2.06-0.44-23.01-2.88-24.46-2.84c-0.94,2.44-2.43,4.48-4.83,5.78
			c-2.38,1.3-4.92,1.39-7.59,0.95c-4.96,7.01-9.88,13.97-14.81,20.93c0.22,0.62,0.46,1.15,0.61,1.7c0.62,2.34,0.04,4.38-1.73,6
			c-1.74,1.59-3.83,1.89-5.97,1.06c-2.25-0.88-3.43-2.67-3.61-5.08c-0.21-2.9,1.98-5.59,4.91-6.04c0.7-0.11,1.41-0.11,2.22-0.17
			c4.82-6.82,9.66-13.67,14.55-20.58c-1.85-2.02-3.07-4.22-3.24-6.94c-0.17-2.75,0.81-5.06,2.41-7.15c0.02-0.09,0.04-0.15,0.05-0.21
			c0-0.06,0.01-0.13-0.01-0.19c-2.58-6.56-5.17-13.11-7.76-19.67c-0.09-0.24-0.22-0.46-0.36-0.76c-0.51-0.06-1.01-0.15-1.51-0.19
			c-3.07-0.23-6.26-3.72-4.54-7.99c1.07-2.65,4.03-4.13,6.84-3.49c2.63,0.6,4.51,3.08,4.38,5.88c-0.03,0.69-0.27,1.39-0.5,2.06
			c-0.16,0.48-0.45,0.92-0.76,1.5c2.61,6.67,5.28,13.38,7.99,20.19c0.64-0.11,1.2-0.19,1.75-0.3c4.28-0.84,8.68,1.14,10.75,5.16
			c0.47,0.91,0.76,1.91,1.19,3.01c8.13,1.05,16.35,1.93,24.62,2.84c0.47-0.45,0.91-0.91,1.39-1.33c1.83-1.56,4.44-1.84,6.54-0.72
			c2.04,1.08,3.26,3.35,3.04,5.64c-0.24,2.45-2,4.45-4.44,5.04c-2.41,0.58-4.93-0.4-6.26-2.46
			C163.27,119.21,163.04,118.68,162.72,118.07z"/>
		<g>
			<circle class="st5" cx="93.71" cy="115.82" r="6.99"/>
			<circle class="st5" cx="144.34" cy="131.05" r="6.99"/>
			<circle class="st5" cx="142.62" cy="84.16" r="6.99"/>
			<circle class="st5" cx="331.22" cy="191.59" r="6.99"/>
		</g>
		<path class="st1" d="M312.33,90.91c-2.86,0-5.72,0-8.58,0c-0.3,0-0.62,0.02-0.91,0.09c-0.57,0.16-0.79,0.63-0.56,1.17
			c0.08,0.2,0.21,0.38,0.32,0.57c4.71,8.07,9.42,16.13,14.13,24.2c0.27,0.47,0.52,0.96,0.69,1.47c0.22,0.66,0.12,0.77-0.57,0.77
			c-2.1-0.01-4.19-0.02-6.29-0.03c-1.38-0.01-2.75-0.01-4.13-0.01c-0.22,0-0.44,0-0.65,0.06c-0.52,0.15-0.74,0.64-0.53,1.14
			c0.08,0.18,0.19,0.34,0.3,0.5c8.11,11.86,16.22,23.71,24.34,35.56c0.9,1.31,1.86,2.59,2.8,3.88c0.19,0.26,0.42,0.5,0.67,0.71
			c0.22,0.18,0.51,0.3,0.78,0.09c0.24-0.19,0.32-0.47,0.24-0.77c-0.07-0.25-0.16-0.5-0.26-0.74c-2.21-5.13-4.42-10.26-6.63-15.39
			c-1.79-4.15-3.58-8.3-5.36-12.44c-0.44-1.03-0.28-1.27,0.86-1.27c3.84,0.01,7.69,0.03,11.53,0.04c0.83,0,1.66,0.01,2.49,0.01
			c0.17,0,0.35,0,0.52-0.03c0.52-0.11,0.77-0.51,0.64-1.03c-0.05-0.21-0.14-0.41-0.22-0.61c-5.15-12.3-10.3-24.6-15.44-36.89
			c-0.07-0.16-0.14-0.32-0.21-0.48c-0.17-0.38-0.46-0.57-0.87-0.59c-0.22-0.01-0.44-0.01-0.65-0.01c-2.82,0-5.63,0-8.45,0
			C312.33,90.9,312.33,90.9,312.33,90.91z"/>
	</g>
	<g>
		<g>
			<g>
				<path d="M146.44,193.17c-0.61,0.03-0.83,0.52-1.1,0.89c-1,1.37-2.11,2.64-3.41,3.73c-2.03,1.7-4.31,2.87-6.98,3.23
					c-2.51,0.34-4.85-0.15-7.06-1.33c-2.41-1.29-4.23-3.22-5.69-5.49c-1.87-2.91-3.02-6.12-3.59-9.51
					c-1.2-7.1-0.47-13.99,2.49-20.59c1.21-2.69,2.81-5.13,4.95-7.19c2-1.93,4.3-3.37,7.06-3.92c3.76-0.76,7.1,0.22,10,2.64
					c1.06,0.89,1.93,2.01,2.88,3.03c0.22,0.23,0.39,0.5,0.57,0.72c0.47-0.08,0.48-0.39,0.48-0.68c0.01-0.65-0.01-1.3,0.02-1.95
					c0.06-1.2,0.37-1.49,1.54-1.51c0.62-0.01,1.24-0.03,1.85,0.02c0.88,0.07,1.06,0.27,1.12,1.14c0.02,0.23,0.01,0.45,0.01,0.68
					c-0.09,13.33-0.18,26.66-0.27,39.98c0,0.59,0,1.17-0.04,1.75c-0.07,0.99-0.32,1.25-1.32,1.31c-0.68,0.04-1.37,0.03-2.05-0.02
					c-0.86-0.06-1.08-0.28-1.1-1.16c-0.03-1.46-0.01-2.93-0.02-4.39C146.8,194.06,146.81,193.58,146.44,193.17z M146.33,175.55
					c-0.1-1.33-0.15-2.66-0.3-3.98c-0.37-3.19-1.24-6.24-2.9-9.02c-0.96-1.61-2.14-3.03-3.73-4.05c-2.22-1.42-4.55-1.62-6.97-0.57
					c-1.24,0.54-2.31,1.33-3.27,2.27c-1.86,1.82-3.2,4-4.21,6.39c-2.19,5.18-2.81,10.58-2.07,16.14c0.4,3.02,1.27,5.9,2.84,8.54
					c0.91,1.52,2.01,2.88,3.48,3.9c2.4,1.66,4.92,1.87,7.56,0.61c1.22-0.58,2.26-1.4,3.2-2.36c1.38-1.4,2.46-3.02,3.33-4.78
					C145.35,184.52,146.27,180.14,146.33,175.55z"/>
				<path d="M192.5,172.37c-1.98,0-2.25,0.29-2.29,2.27c-0.09,4.91,0.88,9.58,3.23,13.92c1.29,2.39,2.94,4.48,5.16,6.08
					c2.12,1.52,4.45,2.34,7.09,2.05c1.8-0.2,3.37-0.92,4.79-2.02c1.74-1.36,3.04-3.09,4.04-5.04c1.46-2.85,2.18-5.91,2.45-9.09
					c0.01-0.16,0.02-0.32,0.03-0.48c0.09-1.16,0.31-1.38,1.45-1.44c0.64-0.03,1.28-0.02,1.91-0.02c0.53,0,0.86,0.29,0.88,0.81
					c0.03,0.79,0.06,1.59-0.02,2.38c-0.39,4.02-1.52,7.82-3.62,11.29c-1.17,1.93-2.58,3.65-4.39,5.01
					c-4.78,3.58-9.87,4.03-15.18,1.32c-2.85-1.45-5.06-3.64-6.88-6.24c-2.42-3.45-3.92-7.29-4.71-11.42
					c-1.06-5.56-0.82-11.05,1.06-16.43c1.29-3.68,3.23-6.96,6.33-9.41c4.65-3.67,9.71-4.23,15.06-1.67c2.43,1.16,4.42,2.9,6.11,4.98
					c2.62,3.23,4.43,6.83,5.13,10.97c0.21,1.26-0.25,1.96-1.67,1.95C214.08,172.12,196.78,172.36,192.5,172.37z M211,167.8
					c0.8,0,1.6-0.02,2.39-0.03c1.4-0.02,1.57-0.26,0.89-1.51c-0.69-1.26-1.42-2.5-2.25-3.66c-1.17-1.66-2.65-3.02-4.42-4.05
					c-3.88-2.27-8.05-1.87-11.43,1.1c-1.96,1.72-3.3,3.88-4.24,6.29c-0.16,0.41-0.24,0.86-0.28,1.3c-0.04,0.52,0.12,0.67,0.66,0.72
					c0.16,0.02,0.32,0.01,0.48,0.01C196.26,167.98,208.39,167.8,211,167.8z"/>
				<path d="M171.61,190.55c0.1-0.31,0.21-0.63,0.3-0.94c3.3-11.71,6.6-23.42,9.89-35.13c0.07-0.23,0.13-0.46,0.2-0.7
					c0.15-0.49,0.48-0.75,0.99-0.75c0.93,0.01,1.87-0.01,2.8,0.06c1,0.07,1.18,0.36,0.89,1.37c-1.38,4.93-2.76,9.85-4.15,14.77
					c-2.81,9.98-5.61,19.96-8.42,29.94c-0.47,1.67-0.54,1.72-2.27,1.75c-0.45,0.01-0.9,0-1.35,0c-0.71,0.01-1.16-0.26-1.37-0.99
					c-0.56-1.96-1.19-3.9-1.77-5.85c-3.87-12.98-7.73-25.97-11.59-38.96c-0.11-0.36-0.23-0.73-0.28-1.1
					c-0.08-0.59,0.15-0.99,0.74-1.04c1.06-0.08,2.14-0.1,3.21-0.03c0.28,0.02,0.61,0.4,0.79,0.7c0.2,0.31,0.26,0.71,0.36,1.08
					c3.41,11.49,6.83,22.99,10.24,34.48c0.13,0.45,0.29,0.89,0.43,1.34C171.39,190.56,171.5,190.56,171.61,190.55z"/>
				<path d="M94.01,173.58c0.33-0.23,0.66-0.46,0.97-0.71c1.45-1.17,3.04-2.1,4.88-2.44c4.15-0.77,7.62,0.44,10.24,3.79
					c1.84,2.34,2.77,5.1,3.46,7.95c0.73,3.01,1.08,6.08,1.25,9.16c0.14,2.56,0.19,5.13,0.28,7.7c0,0.14,0.01,0.28,0.01,0.42
					c0,1.33-0.16,1.51-1.48,1.54c-0.73,0.02-1.46-0.03-2.18-0.09c-0.7-0.06-0.89-0.25-1.01-0.95c-0.07-0.41-0.08-0.83-0.1-1.24
					c-0.09-2.32-0.14-4.65-0.28-6.97c-0.21-3.5-0.61-6.98-1.67-10.35c-0.46-1.46-1.05-2.86-1.95-4.12
					c-1.56-2.18-4.33-2.92-6.75-1.75c-2.31,1.12-3.77,3-4.66,5.36c-0.81,2.17-1.08,4.45-1.18,6.74c-0.15,3.5-0.2,7-0.29,10.5
					c-0.02,0.62,0,1.25-0.06,1.87c-0.07,0.79-0.33,1.04-1.12,1.08c-0.73,0.03-1.46,0.02-2.19-0.01c-1.28-0.06-1.49-0.3-1.48-1.57
					c0.02-2.85,0.04-5.69,0.06-8.54c0.08-12.14,0.16-24.29,0.24-36.43c0-0.17,0-0.35,0-0.52c0.04-0.95,0.23-1.15,1.18-1.2
					c0.76-0.04,1.53-0.04,2.29-0.02c0.74,0.02,1,0.21,1.12,0.95c0.12,0.71,0.17,1.45,0.17,2.17c-0.03,5.45-0.08,10.89-0.12,16.34
					c0,0.4,0.06,0.8,0.09,1.2C93.83,173.49,93.92,173.53,94.01,173.58z"/>
			</g>
			<path d="M265.34,192.64c-0.61,0.03-0.83,0.52-1.1,0.89c-1,1.37-2.11,2.64-3.41,3.73c-2.03,1.7-4.31,2.87-6.98,3.23
				c-2.51,0.34-4.85-0.15-7.06-1.33c-2.41-1.29-4.23-3.22-5.69-5.49c-1.87-2.91-3.02-6.12-3.59-9.51c-1.2-7.1-0.47-13.99,2.49-20.59
				c1.21-2.69,2.81-5.13,4.95-7.19c2-1.93,4.3-3.37,7.06-3.92c3.76-0.76,7.1,0.22,10,2.64c1.06,0.89,1.93,2.01,2.88,3.03
				c0.22,0.23,0.39,0.5,0.57,0.72c0.47-0.08,0.48-0.39,0.48-0.68c0.01-0.65-0.01-1.3,0.02-1.95c0.06-1.2,0.37-1.49,1.54-1.51
				c0.62-0.01,1.24-0.03,1.85,0.02c0.88,0.07,1.06,0.27,1.12,1.14c0.02,0.23,0.01,0.45,0.01,0.68c-0.09,13.33-0.18,26.66-0.27,39.98
				c0,0.59,0,1.17-0.04,1.75c-0.07,0.99-0.32,1.25-1.32,1.31c-0.68,0.04-1.37,0.03-2.05-0.02c-0.86-0.06-1.08-0.28-1.1-1.16
				c-0.03-1.46-0.01-2.93-0.02-4.39C265.7,193.53,265.71,193.04,265.34,192.64z M265.23,175.02c-0.1-1.33-0.15-2.66-0.3-3.98
				c-0.37-3.19-1.24-6.24-2.9-9.02c-0.96-1.61-2.14-3.03-3.73-4.05c-2.22-1.42-4.55-1.62-6.97-0.57c-1.24,0.54-2.31,1.33-3.27,2.27
				c-1.86,1.82-3.2,4-4.21,6.39c-2.19,5.18-2.81,10.58-2.07,16.14c0.4,3.02,1.27,5.9,2.84,8.54c0.91,1.52,2.01,2.88,3.48,3.9
				c2.4,1.66,4.92,1.87,7.56,0.61c1.22-0.58,2.26-1.4,3.2-2.36c1.38-1.4,2.46-3.02,3.33-4.78
				C264.25,183.99,265.16,179.61,265.23,175.02z"/>
		</g>
		<path class="st4" d="M341.27,321.55c6.53-6.4,11.95-13.5,16.47-21.17c2.26-3.84,4.44-7.71,5.87-11.88
			c0.35-1.03,0.62-2.11,0.69-3.18c0.11-1.84-1.41-2.69-3.29-1.9c-0.54,0.23-1.04,0.55-1.53,0.86c-6.38,4.04-13.31,7.05-20.74,9.17
			c-11.96,3.42-24.25,4.93-36.77,5.16c-10.47,0.19-20.83-0.65-31.12-2.33c-10.21-1.67-20.26-3.94-30.25-6.46
			c-9.29-2.35-18.57-4.76-27.9-6.98c-12.42-2.95-24.99-5.26-37.68-7.09c-7.92-1.14-15.87-1.98-25.56-2.57
			c-2.48-0.01-6.65-0.13-10.82-0.03c-8.79,0.21-17.51,1.12-26.14,2.62c-13.66,2.37-26.79,6.08-38.81,12.58
			c-0.52,0.28-1.08,0.5-1.56,0.82c-1.26,0.81-1.58,1.86-0.91,3.11c0.31,0.57,0.72,1.12,1.21,1.57c1.06,0.99,2.18,1.95,3.32,2.87
			c4.23,3.39,8.88,6.28,13.51,9.2c2.2,1.39,4.42,2.75,6.58,4.2c2.2,1.47,2.57,2.86,1.22,4.99c-1.41,2.22-2.96,4.39-4.54,6.52
			c-7.85,10.53-15.74,21.04-23.62,31.56c-0.34,0.45-0.68,0.9-0.94,1.39c-0.44,0.84-0.31,1.62,0.33,2.19
			c0.66,0.59,1.47,0.68,2.28,0.38c0.81-0.3,1.57-0.7,2.33-1.1c5.66-2.96,11.56-5.44,17.77-7.32c10.02-3.03,20.3-4.98,30.79-6.1
			c6.05-0.65,12.13-1.03,18.22-0.98c8.63,0.06,17.22,0.7,25.73,1.93c8.23,1.18,16.45,2.45,24.62,3.92
			c12.49,2.23,24.75,5.3,36.97,8.47c12.28,3.19,24.58,6.27,37.16,8.4c10.48,1.78,21.02,2.89,31.71,2.84
			c9.86-0.05,19.61-0.85,29.25-2.67c9.5-1.79,18.65-4.49,27.08-8.91c2.37-1.24,4.65-2.62,6.92-4.01c1.5-0.92,1.54-2.1,0.24-3.2
			c-0.28-0.24-0.59-0.44-0.88-0.67c-2.26-1.72-4.54-3.43-6.78-5.17c-3.37-2.62-6.59-5.39-9.21-8.64c-1.41-1.75-2.73-3.58-3.93-5.46
			c-1.29-2.02-1.11-2.94,0.54-4.69C339.81,323.03,340.53,322.28,341.27,321.55z M131.69,325.27c-2.77,2.53-6.19,3.71-10.15,3.53
			c-0.59-0.03-1.22-0.1-1.93-0.22c-2.07-0.35-3.91-1.23-5.47-2.63c-0.01-0.01-0.02-0.02-0.03-0.03c0,0.03,0,0.06,0,0.08
			c0,0.27,0.01,0.51,0.03,0.76c0.02,0.25,0.03,0.5,0.03,0.74c0,1.14-0.72,1.99-1.76,2.08c-0.03,0-0.05,0-0.08,0.01
			c-0.48,0.02-0.94-0.13-1.3-0.44c-0.41-0.35-0.66-0.87-0.71-1.45c-0.17-2.35-0.31-4.7-0.45-7.05c-0.05-0.91,0.36-1.65,1.16-2.08
			c0.87-0.46,1.81-0.29,2.45,0.44c0.13,0.15,0.24,0.31,0.35,0.48c0.06,0.09,0.11,0.17,0.18,0.26c0.18,0.24,0.36,0.48,0.53,0.73
			c0.41,0.57,0.84,1.15,1.29,1.68c1.38,1.62,3.14,2.54,5.22,2.72c3.19,0.29,5.76-0.49,7.86-2.35c1.67-1.48,2.38-3.34,2.13-5.54
			c-0.07-0.66-0.31-1.31-0.77-2.17c-0.64-1.19-1.58-2.27-2.93-3.39c-1.37-1.14-2.98-2.15-5.06-3.2c-1.14-0.58-2.3-1.13-3.45-1.69
			c-0.68-0.33-1.36-0.66-2.04-0.99c-1.54-0.76-2.81-1.61-3.89-2.6c-1.77-1.63-2.8-3.55-3.08-5.7c-0.32-2.5,0.51-4.64,2.48-6.38
			c1.46-1.29,3.24-2.07,5.29-2.33c4.33-0.54,8.31,0.53,11.81,3.17c0-0.02,0-0.03,0-0.05l0-0.15c0.01-0.28,0.02-0.6,0.11-0.91
			c0.24-0.77,0.81-1.25,1.62-1.33c0.86-0.09,1.61,0.35,1.91,1.09c0.14,0.34,0.22,0.74,0.26,1.22c0.11,1.52,0.2,3.05,0.3,4.58
			l0.07,1.06c0.01,0.2,0.02,0.41,0,0.62c-0.06,0.89-0.56,1.57-1.34,1.81c-0.88,0.27-1.86-0.04-2.38-0.75
			c-0.14-0.19-0.23-0.39-0.31-0.58c-0.85-2.01-2.27-3.54-4.2-4.54c-2.69-1.39-5.25-1.81-7.86-1.27c-1.01,0.21-1.89,0.61-2.61,1.2
			c-1.29,1.05-1.67,2.44-1.08,4.01c0.4,1.06,0.99,1.9,1.77,2.49c0.69,0.53,1.62,1.2,2.6,1.72c1.09,0.58,2.23,1.12,3.33,1.65
			c0.62,0.3,1.24,0.6,1.86,0.9c2.64,1.31,4.65,2.56,6.34,3.95c1.65,1.36,2.92,2.83,3.87,4.51
			C136.4,317.67,134.55,322.65,131.69,325.27z M170.06,292.03l-0.01,0.1c-0.03,0.35-0.09,1.15-0.16,2.03
			c-0.1,1.3-0.22,2.78-0.27,3.34c-0.14,1.41-0.94,1.89-1.58,2.04c-0.97,0.23-2.01-0.16-2.58-0.98c-0.13-0.18-0.24-0.37-0.35-0.56
			l-0.17-0.28c-0.91-1.48-1.96-2.68-3.2-3.67c-4.04-3.21-9.04-3.19-13.05,0.05c-2.21,1.79-3.84,4.18-4.83,7.11
			c-1.68,4.95-1.53,9.87,0.47,14.62c0.77,1.84,1.87,3.48,3.28,4.87c4.34,4.31,10.47,4.37,14.9,0.15c0.19-0.18,0.37-0.37,0.54-0.56
			c0.15-0.16,0.3-0.32,0.45-0.47c0.72-0.72,1.57-0.91,2.38-0.53c0.82,0.38,1.25,1.13,1.19,2.05c-0.16,2.21-0.32,4.04-0.5,5.78
			c-0.11,1.07-0.96,1.84-2.01,1.83c-0.05,0-0.1,0-0.15-0.01c-0.98-0.09-1.73-0.9-1.79-1.99c-0.02-0.26,0-0.53,0.02-0.79
			c0.01-0.12,0.02-0.24,0.02-0.37c-0.03,0.02-0.06,0.04-0.09,0.06l-0.13,0.08c-5.27,3.1-11.29,2.71-16.12-1.02
			c-2.53-1.96-4.44-4.48-5.67-7.49c-2.94-7.17-2.61-14.24,0.98-21.02c1.17-2.21,2.8-4.12,4.84-5.69c5.56-4.25,12.63-4.11,18.01,0.37
			c0.31,0.25,0.59,0.53,0.88,0.81c0.2,0.19,0.4,0.38,0.6,0.57c0.02-0.18,0.04-0.37,0.05-0.55c0.03-0.35,0.06-0.71,0.13-1.05
			c0.2-0.96,1.05-1.62,2.03-1.57c0.92,0.03,1.65,0.69,1.85,1.63c0.04,0.21,0.06,0.43,0.06,0.65
			C170.09,291.74,170.08,291.89,170.06,292.03z M187.27,296.26c-0.41,0.01-0.82-0.04-1.21-0.09l-0.37-0.05
			c-0.19-0.02-0.38-0.05-0.58-0.08l-0.31-0.05c-0.1,0.24-0.13,0.42-0.16,0.6l-4.91,30.51c-0.06,0.38-0.12,0.77-0.09,0.87
			c0.05,0.01,0.43,0.07,0.8,0.13l0.39,0.06c0.36,0.05,0.72,0.11,1.07,0.2c0.84,0.21,1.39,0.73,1.58,1.5l0,0
			c0.13,0.53,0.03,1.09-0.29,1.54c-0.31,0.45-0.8,0.74-1.35,0.81c-0.37,0.04-0.78,0.01-1.29-0.07c-2.1-0.34-4.2-0.69-6.3-1.04
			l-0.22-0.04c-0.26-0.04-0.52-0.1-0.77-0.18c-1.01-0.32-1.6-1.23-1.43-2.2c0.17-0.97,1.04-1.65,2.07-1.62
			c0.25,0.01,0.5,0.05,0.75,0.09l0.19,0.03c0.25,0.04,0.73,0.12,0.83,0.08c0.05-0.07,0.13-0.56,0.18-0.85
			c0.43-2.69,1.55-9.69,2.62-16.4c0.93-5.84,1.83-11.46,2.2-13.8c0.06-0.36,0.12-0.77,0.09-0.87c-0.05-0.01-0.43-0.07-0.8-0.14
			c-0.48-0.08-0.93-0.17-1.36-0.33c-0.81-0.32-1.29-1.11-1.19-1.98c0.1-0.9,0.75-1.57,1.66-1.71c0.28-0.04,0.55-0.05,0.79-0.01
			c2.45,0.39,4.91,0.78,7.35,1.18c0.31,0.05,0.63,0.17,0.92,0.34c0.74,0.45,1.08,1.29,0.85,2.15
			C188.79,295.66,188.08,296.24,187.27,296.26z M218.96,307.12c-1.01-0.16-1.73-1.01-1.68-2.03c0.02-0.42,0.09-0.84,0.16-1.24
			l0.08-0.48c0.12-0.81,0.12-0.81-0.69-0.97c-0.85-0.17-1.7-0.32-2.56-0.46l-1.06-0.19l-8.82-1.57c-0.14-0.03-0.29-0.06-0.43-0.06
			c-0.16-0.01-0.21,0.01-0.22,0.01c0,0-0.03,0.05-0.07,0.2c-0.03,0.09-0.04,0.19-0.06,0.29l-0.02,0.14l-2.28,12.9
			c-0.02,0.08-0.03,0.16-0.04,0.24c-0.02,0.19-0.01,0.25-0.01,0.28c0.01-0.01,0.06,0.03,0.22,0.07c0.12,0.04,0.25,0.05,0.38,0.08
			l1.25,0.22c1.83,0.32,3.66,0.64,5.49,0.95c0.33,0.06,0.45,0.06,0.49,0.05c-0.02-0.01,0.03-0.17,0.09-0.44
			c0.07-0.31,0.13-0.6,0.27-0.87c0.39-0.78,1.19-1.2,2.04-1.07c0.89,0.14,1.55,0.8,1.66,1.7c0.04,0.31,0.03,0.65-0.03,1.01
			c-0.26,1.58-0.53,3.16-0.81,4.74c-0.07,0.38-0.18,0.71-0.33,0.98c-0.39,0.72-1.18,1.11-1.99,0.98c-0.85-0.15-1.53-0.79-1.64-1.63
			c-0.05-0.35-0.01-0.69,0.02-1.02l0.02-0.2c0-0.04,0.01-0.11,0.01-0.18c-0.02,0-0.05-0.01-0.08-0.02
			c-2.52-0.45-5.04-0.89-7.57-1.32c-0.13-0.02-0.19-0.02-0.21-0.02c0,0.01-0.03,0.07-0.07,0.24l-0.59,3.3
			c-0.6,3.36-1.19,6.71-1.79,10.07c-0.03,0.16-0.04,0.26-0.04,0.32c0.06,0.02,0.15,0.04,0.31,0.07c4.36,0.77,8.73,1.54,13.1,2.3
			c0.39,0.07,0.49,0.04,0.51,0.03c0.02-0.02,0.08-0.11,0.17-0.54c0.04-0.2,0.08-0.4,0.11-0.6c0.07-0.41,0.15-0.83,0.27-1.24
			c0.2-0.68,0.71-1.19,1.36-1.39c0.63-0.18,1.3-0.03,1.81,0.4c0.55,0.47,0.79,1.09,0.67,1.74c-0.26,1.49-0.51,2.94-0.82,4.35
			c-0.21,0.95-1.02,1.58-2.07,1.6c-0.36,0.01-0.71-0.06-1.02-0.11c-7.05-1.23-14.07-2.47-21.09-3.7l-0.16-0.03
			c-0.05-0.01-0.11-0.02-0.16-0.03c-0.15-0.03-0.29-0.06-0.44-0.1c-1.08-0.31-1.73-1.29-1.54-2.32c0.19-1,1.11-1.68,2.18-1.6
			c0.34,0.02,0.67,0.09,1.01,0.15l0.76,0.14c0.19,0.03,0.38,0.07,0.57,0.1c0.44,0.06,0.46,0.07,0.57-0.41
			c0.05-0.21,0.09-0.43,0.12-0.64l0.03-0.2c0.42-2.4,1.47-8.29,2.53-14.29c1.14-6.41,2.3-12.96,2.75-15.53l0.04-0.19
			c0.03-0.14,0.05-0.28,0.07-0.42c0.02-0.17,0.03-0.26,0.03-0.32c-0.05-0.02-0.15-0.04-0.34-0.08c-0.36-0.07-0.73-0.13-1.09-0.2
			l-0.76-0.13c-0.17-0.03-0.37-0.07-0.55-0.11c-1.11-0.29-1.77-1.22-1.6-2.26c0.17-1.07,1.15-1.75,2.33-1.63
			c0.2,0.02,0.4,0.05,0.6,0.09l5.84,1.04c5.09,0.91,10.19,1.81,15.29,2.68c1.02,0.2,1.69,0.54,2.08,1.11
			c0.37,0.56,0.46,1.27,0.26,2.19c-0.13,0.61-0.23,1.23-0.32,1.85c-0.05,0.33-0.1,0.65-0.15,0.97c-0.04,0.26-0.09,0.56-0.19,0.86
			C220.8,306.72,219.93,307.27,218.96,307.12z M259.18,311.06c-0.33-0.04-0.65-0.11-0.98-0.18l-0.38-0.08l-0.26-0.05
			c-0.07-0.01-0.14,0.03-0.16,0.1l-6.67,31.82c0.14,0.04,0.27,0.07,0.39,0.1c0.16,0.04,0.32,0.07,0.47,0.1
			c0.32,0.07,0.64,0.13,0.94,0.24l0,0c0.93,0.31,1.48,1.21,1.32,2.15c-0.17,0.96-1.05,1.64-2.06,1.59c-0.21-0.01-0.43-0.06-0.63-0.1
			l-0.42-0.09c-2.12-0.44-4.24-0.89-6.36-1.34c-0.31-0.07-0.64-0.15-0.95-0.31c-0.78-0.41-1.19-1.32-0.97-2.16
			c0.23-0.88,1.05-1.47,1.98-1.43c0.15,0.01,0.29,0.03,0.44,0.06c0.09,0.02,0.18,0.03,0.28,0.04c0.01,0,0.01,0,0.02,0
			c-0.24-0.83-0.54-1.64-0.83-2.43c-0.21-0.57-0.42-1.14-0.61-1.71c-0.35-1.06-0.71-2.11-1.07-3.16l-5.77-16.95
			c-0.36-1.08-0.73-2.15-1.1-3.23c-0.17-0.49-0.33-0.98-0.49-1.47c-0.23-0.7-0.46-1.42-0.73-2.12c-0.3,1.44-0.6,2.88-0.9,4.32
			l-4.62,22.37c-0.06,0.28-0.17,0.8-0.12,0.92c0.08,0.08,0.64,0.19,0.93,0.25l0.27,0.05c0.31,0.06,0.62,0.12,0.92,0.21
			c1.01,0.3,1.58,1.18,1.4,2.17c-0.18,1.03-1.05,1.68-2.13,1.6c-0.2-0.02-0.41-0.06-0.61-0.1l-1.19-0.23
			c-1.74-0.34-3.48-0.68-5.22-1.03c-0.03-0.01-0.06-0.01-0.09-0.02c-0.3-0.06-0.66-0.15-1-0.31c-0.79-0.36-1.21-1.16-1.07-2.02
			c0.15-0.87,0.79-1.5,1.64-1.59c0.34-0.04,0.68,0.01,0.99,0.05l0.14,0.02c0.34,0.04,0.67,0.14,1.01,0.18c0.06,0.01,0.1,0,0.1,0
			c0.03-0.19,0.06-0.3,0.08-0.41l0.03-0.16l6.27-30.42c0.07-0.35,0.18-0.89,0.13-1c-0.08-0.09-0.61-0.22-0.99-0.31
			c-0.37-0.09-0.68-0.21-0.94-0.37c-0.69-0.42-1.03-1.24-0.85-2.03c0.19-0.83,0.89-1.43,1.74-1.49c0.33-0.02,0.69,0.01,1.07,0.08
			c2.5,0.5,5,1.01,7.5,1.53c0,0,0.01,0,0.01,0c0.41,0.09,0.75,0.21,1.03,0.38c0.73,0.44,1.08,1.32,0.85,2.13
			c-0.25,0.85-1.06,1.44-1.92,1.39c-0.31-0.02-0.63-0.08-0.94-0.14c-0.14-0.03-0.29-0.06-0.43-0.08l-0.33-0.05
			c0.01,0.05,0.03,0.11,0.05,0.16l0.06,0.17c1.04,3.06,2.08,6.12,3.12,9.17l0.92,2.72c2.12,6.21,4.23,12.42,6.35,18.63l0.03-0.12
			l5.66-27.18c-0.19-0.09-0.33-0.12-0.48-0.15l-0.3-0.07c-0.3-0.06-0.61-0.13-0.91-0.25c-0.86-0.34-1.35-1.25-1.17-2.16
			c0.19-0.94,1.03-1.58,2.01-1.54c0.21,0.01,0.41,0.05,0.62,0.1c2.09,0.44,4.09,0.86,6.1,1.28c0.27,0.06,0.48,0.1,0.68,0.18
			c0.97,0.36,1.5,1.32,1.26,2.27C261.1,310.58,260.19,311.19,259.18,311.06z M292.13,316.15l-0.01,0.1
			c-0.04,0.35-0.11,1.14-0.19,2.03c-0.12,1.29-0.26,2.78-0.32,3.33c-0.16,1.41-0.97,1.87-1.61,2.02c-0.98,0.22-2-0.19-2.56-1.01
			c-0.12-0.18-0.23-0.38-0.34-0.57l-0.16-0.28c-0.89-1.49-1.92-2.71-3.14-3.71c-3.99-3.27-8.99-3.33-13.05-0.15
			c-2.24,1.75-3.9,4.12-4.94,7.04c-1.76,4.92-1.67,9.84,0.25,14.63c0.74,1.85,1.82,3.51,3.2,4.92c4.28,4.38,10.41,4.53,14.9,0.37
			c0.19-0.18,0.37-0.37,0.56-0.55c0.15-0.16,0.3-0.31,0.46-0.46c0.74-0.71,1.58-0.89,2.39-0.49c0.82,0.4,1.24,1.15,1.16,2.07
			c-0.19,2.2-0.38,4.04-0.58,5.77c-0.13,1.07-0.99,1.83-2.04,1.8c-0.05,0-0.1,0-0.15-0.01c-0.98-0.1-1.71-0.93-1.76-2.01
			c-0.01-0.26,0.01-0.53,0.04-0.79c0.01-0.12,0.02-0.24,0.03-0.37c-0.03,0.02-0.06,0.04-0.09,0.06l-0.14,0.08
			c-5.31,3.02-11.33,2.55-16.1-1.26c-2.5-2-4.37-4.55-5.56-7.57c-2.84-7.21-2.4-14.28,1.3-21c1.21-2.19,2.86-4.08,4.93-5.61
			c5.63-4.17,12.7-3.92,18.01,0.64c0.3,0.26,0.59,0.54,0.87,0.82c0.2,0.19,0.39,0.39,0.59,0.58c0.02-0.18,0.04-0.36,0.06-0.55
			c0.03-0.35,0.07-0.71,0.15-1.05c0.21-0.96,1.08-1.6,2.05-1.54c0.93,0.04,1.64,0.71,1.82,1.66c0.04,0.21,0.05,0.43,0.05,0.65
			C292.16,315.86,292.14,316.01,292.13,316.15z M323.52,351.47c-0.35,0.09-0.7,0.1-1.02,0.12c-7.15,0.38-14.27,0.76-21.39,1.13
			l-0.16,0.01c-0.06,0-0.11,0.01-0.16,0.01c-0.15,0.01-0.3,0.01-0.45,0c-1.12-0.06-1.97-0.87-2.02-1.91
			c-0.04-1.02,0.7-1.88,1.77-2.05c0.33-0.05,0.67-0.07,1.01-0.08l0.77-0.04c0.19-0.01,0.38-0.02,0.57-0.03
			c0.45-0.04,0.46-0.04,0.47-0.53c0-0.21-0.01-0.43-0.02-0.64l-0.01-0.21c-0.13-2.48-0.44-8.6-0.76-14.79
			c-0.33-6.41-0.66-12.88-0.79-15.45l-0.01-0.19c-0.01-0.15-0.01-0.29-0.03-0.44c-0.01-0.17-0.03-0.26-0.04-0.32
			c-0.06-0.01-0.16-0.01-0.34,0c-0.37,0.01-0.74,0.03-1.11,0.05l-0.77,0.04c-0.18,0-0.37,0.02-0.56,0.01
			c-1.15-0.04-2-0.79-2.07-1.84c-0.07-1.08,0.73-1.97,1.9-2.11c0.2-0.03,0.4-0.04,0.61-0.04l5.93-0.3
			c5.17-0.26,10.33-0.52,15.5-0.82c1.01-0.03,1.76,0.14,2.27,0.62c0.49,0.46,0.73,1.14,0.74,2.08c0.01,0.62,0.06,1.25,0.1,1.87
			c0.03,0.33,0.05,0.66,0.07,0.98c0.02,0.27,0.03,0.57,0.01,0.88c-0.1,1-0.82,1.73-1.79,1.81c-1.03,0.07-1.92-0.59-2.09-1.6
			c-0.07-0.42-0.1-0.84-0.12-1.24l-0.03-0.48c-0.07-0.82-0.07-0.82-0.89-0.79c-0.87,0.03-1.73,0.07-2.59,0.12l-1.08,0.06l-8.95,0.46
			c-0.14,0.01-0.29,0.01-0.43,0.03c-0.16,0.03-0.21,0.06-0.22,0.06c0,0-0.02,0.05-0.03,0.22c0,0.09,0,0.19,0.01,0.29l0.01,0.15
			l0.67,13.08c0,0.08,0.01,0.16,0.02,0.25c0.02,0.19,0.05,0.25,0.06,0.27c0,0,0.06,0.01,0.23,0.02c0.13,0.01,0.26,0,0.39-0.01
			l1.27-0.07c1.85-0.1,3.71-0.2,5.56-0.31c0.34-0.02,0.45-0.05,0.49-0.06c-0.02,0-0.01-0.17-0.01-0.45c0-0.32,0-0.62,0.07-0.91
			c0.2-0.84,0.89-1.43,1.74-1.5c0.89-0.06,1.69,0.43,2,1.29c0.11,0.29,0.17,0.63,0.19,1c0.1,1.6,0.2,3.2,0.27,4.8
			c0.02,0.38-0.01,0.72-0.1,1.03c-0.22,0.79-0.9,1.34-1.72,1.4c-0.87,0.05-1.67-0.42-1.96-1.22c-0.13-0.33-0.17-0.67-0.21-1
			l-0.03-0.2c-0.01-0.04-0.02-0.11-0.03-0.17c-0.02,0-0.05,0-0.09,0c-2.56,0.13-5.12,0.27-7.67,0.42c-0.13,0.01-0.19,0.03-0.21,0.03
			c0.01,0.01-0.01,0.08-0.02,0.25l0.18,3.49c0.17,3.36,0.34,6.72,0.51,10.08c0.01,0.17,0.02,0.27,0.03,0.32c0.06,0,0.16,0,0.32,0
			c4.42-0.23,8.85-0.46,13.28-0.7c0.4-0.02,0.49-0.07,0.51-0.08c0.01-0.02,0.05-0.13,0.04-0.56c0-0.2-0.01-0.4-0.02-0.6
			c-0.02-0.42-0.04-0.85-0.01-1.28c0.04-0.7,0.42-1.32,1.02-1.66c0.57-0.32,1.26-0.33,1.85-0.02c0.64,0.34,1.01,0.89,1.05,1.55
			c0.08,1.51,0.17,2.97,0.18,4.42C325.19,350.42,324.54,351.22,323.52,351.47z"/>
		<g>
			<g>
				<path d="M284.36,241.18c-1.59,0-2.8,1.23-2.79,2.86c0,1.69,1.49,3.17,3.19,3.18c1.56,0.01,2.82-1.28,2.8-2.87
					C287.54,242.65,286.07,241.18,284.36,241.18z"/>
				<path d="M343.73,238.04c-1.96-10.63-7.46-18.8-16.83-24.27c-2.38-1.39-4.83-2.66-7.22-4.03c-1.19-0.68-2.36-1.42-3.49-2.21
					c-0.72-0.5-1.14-1.24-1.12-2.17c0.01-0.64-0.03-1.27-0.03-1.91c0.04-9.87,0.08-17.17,0.14-27.03c0.01-1.16,0.15-2.33,0.26-3.49
					c0.17-1.64,0.68-3.06,2.21-4.01c1.58-0.98,2.13-2.59,2.15-4.38c0.01-0.84-0.09-1.69-0.2-2.53c-0.26-1.94-1.25-3.33-3.12-4.06
					c-0.87-0.34-1.7-0.76-2.5-1.12c-0.07-0.86-0.13-1.49-0.18-2.12c-0.42-5.02-1.95-6.57-6.96-6.7c-4.13-0.1-8.27-0.02-12.41,0.02
					c-0.95,0.01-1.9,0.18-2.84,0.31c-2.43,0.33-3.78,1.8-4.22,4.12c-0.25,1.35-0.35,2.73-0.56,4.43c-0.96,0.42-1.82,0.8-2.68,1.17
					c-1.61,0.67-2.51,1.91-2.8,3.59c-0.16,0.94-0.26,1.9-0.26,2.85c0,1.78,0.54,3.41,2.11,4.39c1.52,0.95,2.08,2.34,2.24,3.99
					c0.11,1.16,0.26,2.32,0.27,3.49c0.07,9.87,0.1,17.17,0.15,27.03c0,0.64-0.04,1.27-0.02,1.91c0.02,0.93-0.38,1.68-1.09,2.19
					c-1.12,0.79-2.29,1.53-3.48,2.22c-2.67,1.53-5.41,2.93-8.04,4.52c-5.28,3.19-9.5,7.46-12.39,12.94
					c-2.51,4.76-3.77,9.89-4.31,15.21c-1.02,10.01,1.55,19.14,7.01,27.5c6.08,9.3,14.46,15.38,25.38,17.76
					c8.43,1.83,16.86,1.72,25.21-0.52c5.92-1.59,11.36-4.27,15.81-8.53C341.5,267.51,346.69,254.15,343.73,238.04z M297.1,255.99
					c-0.78,1.31-1.71,2.5-2.81,3.56c-5.09,4.93-12.44,5.32-18.02,0.94c-3.33-2.62-5.35-6.09-6.43-10.15
					c-0.47-1.78-0.71-3.74-0.71-5.83c0.1-4.43,1.38-8.78,4.48-12.48c2.29-2.73,5.17-4.52,8.73-5.07c3-0.46,5.83,0.12,8.48,1.59
					c2.26,1.26,4.08,3.01,5.54,5.13C300.79,240.13,301.09,249.28,297.1,255.99z M329.67,238.34c-0.34,1.97-1.38,3-3.21,3.37
					c-1.56,0.31-3.12,0.26-4.69,0.15c-1.22-0.08-2.45-0.21-3.67-0.28c-1.12-0.07-1.83,0.46-1.97,1.44
					c-0.12,0.86,0.21,1.47,1.04,1.69c0.63,0.17,1.3,0.25,1.96,0.28c0.88,0.05,1.77-0.01,2.65,0.04c0.48,0.03,0.96,0.16,1.44,0.28
					c0.77,0.2,1.18,0.75,1.32,1.52c0.19,1.1,0.13,2.21-0.08,3.29c-0.22,1.13-0.85,1.68-2,1.85c-0.41,0.06-0.83,0.07-1.24,0.11
					c-0.54,0.04-1.08,0.04-1.61,0.12c-1.3,0.2-1.97,0.84-2.12,2.16c-0.1,0.95-0.1,1.91-0.08,2.86c0.01,0.71,0.14,1.42,0.16,2.13
					c0.02,0.58,0.01,1.18-0.1,1.76c-0.22,1.17-0.9,1.94-2.11,2.17c-1.67,0.32-3.36,0.44-5.06,0.24c-0.85-0.1-1.7-0.27-2.52-0.49
					c-1.81-0.49-2.79-1.77-3.1-3.55c-0.29-1.64-0.5-3.3-0.72-4.95c-0.33-2.41-0.72-4.81-0.96-7.22c-0.32-3.07-0.52-6.16-0.77-9.24
					c0.07-1.97,0.08-3.93,0.35-5.89c0.4-2.96,2.17-4.5,5.01-5.11c2.04-0.44,4.1-0.37,6.16-0.25c2.57,0.15,5.14,0.36,7.71,0.54
					c1.88,0.14,3.69,0.52,5.35,1.46c0.38,0.22,0.76,0.45,1.12,0.7c1.16,0.81,1.78,1.92,1.94,3.32
					C330.06,234.68,329.98,236.52,329.67,238.34z"/>
			</g>
			<path d="M194.17,236.37c-0.04,0.36-0.1,0.67-0.12,0.98c-0.13,3.16-0.06,6.32,0.18,9.47c0.16,2.13,0.41,4.25,0.71,6.37
				c0.16,1.14,0.51,2.26,0.82,3.38c0.16,0.57,0.35,1.15,0.79,1.56c0.38,0.08,0.57-0.15,0.74-0.35c0.45-0.53,0.93-1.05,1.3-1.63
				c1.39-2.2,2.74-4.42,4.11-6.63c0.38-0.61,0.47-1.3,0.58-1.99c0.42-2.57,0.89-5.13,1.68-7.61c0.27-0.84,0.59-1.66,0.98-2.45
				c0.38-0.78,1.02-1.3,1.88-1.54c1.5-0.42,2.78,0.21,3.36,1.67c0.05,0.13,0.08,0.27,0.13,0.4c0.05,0.12,0.11,0.23,0.21,0.42
				c0.3-0.43,0.57-0.8,0.84-1.17c0.99-1.42,2.1-2.72,3.43-3.83c0.79-0.66,1.66-1.2,2.64-1.53c2.87-0.96,6.69,0.25,7.69,4.22
				c0.46,1.83,0.47,3.7,0.16,5.54c-0.49,2.93-1.11,5.84-1.65,8.76c-0.76,4.11-1.53,8.22-2.23,12.34c-0.33,1.97-0.37,3.98-0.17,5.98
				c0.04,0.39,0,0.83,0.45,1.18c0.31-0.43,0.62-0.83,0.89-1.25c2.27-3.57,4.27-7.3,6.17-11.07c0.36-0.71,0.66-1.44,1.05-2.12
				c0.54-0.95,0.75-1.98,0.86-3.05c0.55-5.46,1.52-10.86,2.72-16.21c0.86-3.85,1.85-7.68,2.77-11.51c0.09-0.35,0.14-0.71,0.21-1.1
				c-0.19-0.13-0.33-0.26-0.49-0.33c-2.38-0.92-4.76-1.86-7.15-2.73c-1.71-0.63-3.49-0.97-5.32-0.95c-2.19,0.02-4.22,0.56-5.99,1.91
				c-0.29,0.22-0.63,0.4-0.98,0.5c-0.53,0.14-1.02-0.04-1.37-0.47c-0.3-0.36-0.25-0.78-0.1-1.19c0.25-0.67,0.7-1.2,1.23-1.66
				c1.04-0.89,2.23-1.51,3.54-1.88c2.79-0.79,5.6-0.75,8.41-0.13c2.28,0.5,4.43,1.37,6.59,2.22c0.85,0.34,1.71,0.67,2.65,1.04
				c0.14-0.33,0.25-0.58,0.34-0.83c0.37-1.1,0.71-2.21,1.09-3.31c0.18-0.53,0.37-1.06,0.62-1.55c0.87-1.73,3-2.3,4.63-1.24
				c0.75,0.49,1.2,1.17,1.19,2.08c-0.01,0.65-0.04,1.31-0.16,1.94c-0.23,1.18-0.54,2.35-0.82,3.53c-0.1,0.45-0.2,0.9-0.3,1.34
				c1.79,0.5,4.03,0.28,5.87-0.55c2.21-1,3.98-2.54,5.51-4.4c0.35-0.43,0.68-0.89,1.04-1.31c0.71-0.81,1.61-1.07,2.64-0.83
				c1.16,0.27,1.65,1.19,1.03,2.2c-0.65,1.06-1.41,2.08-2.23,3.02c-1.13,1.3-2.47,2.38-3.94,3.31c-2.98,1.89-6.24,2.57-9.72,2.28
				c-0.32-0.03-0.64-0.07-0.92-0.1c-0.42,0.24-0.44,0.63-0.53,0.98c-1.67,6.62-3.27,13.26-4.36,20.01
				c-0.88,5.47-1.5,10.96-1.19,16.52c0.21,3.81,0.59,7.6,1.94,11.22c0.35,0.95,0.8,1.88,1.25,2.79c0.18,0.37,0.48,0.68,0.75,1
				c0.11,0.13,0.29,0.21,0.46,0.34c0.63-0.35,0.92-0.94,1.22-1.5c0.85-1.61,1.48-3.31,1.88-5.08c0.51-2.22,0.91-4.46,1.37-6.69
				c0.08-0.41,0.15-0.83,0.3-1.21c0.37-0.93,1.53-1.39,2.45-0.98c0.36,0.16,0.61,0.44,0.61,0.86c0,0.32,0,0.65-0.06,0.97
				c-0.53,3.16-1.05,6.32-1.88,9.42c-0.4,1.48-0.88,2.93-1.63,4.29c-0.84,1.54-2.07,2.6-3.77,3.09c-1.67,0.48-3.22,0.21-4.67-0.71
				c-1.11-0.71-2.02-1.64-2.77-2.71c-1.8-2.54-2.97-5.35-3.62-8.38c-0.47-2.19-0.59-4.42-0.76-6.64c-0.02-0.25-0.07-0.51-0.14-1.05
				c-0.34,0.6-0.54,0.95-0.73,1.3c-1.39,2.52-2.75,5.06-4.17,7.56c-0.41,0.72-0.92,1.4-1.5,2c-0.96,0.98-2.18,1.39-3.56,1.23
				c-1.17-0.14-2.09-0.74-2.76-1.7c-0.64-0.92-1.09-1.94-1.42-3.01c-0.51-1.65-0.74-3.35-0.82-5.08c-0.15-3.17,0.11-6.32,0.7-9.43
				c0.69-3.7,1.47-7.38,2.18-11.07c0.26-1.37,0.46-2.75,0.61-4.13c0.12-1.09,0.13-2.2-0.26-3.32c-0.59,0.2-0.94,0.58-1.3,0.92
				c-1.1,1.02-1.98,2.22-2.76,3.49c-1.56,2.55-2.7,5.29-3.63,8.12c-1.21,3.67-2,7.44-2.54,11.27c-0.44,3.08-0.83,6.17-0.87,9.29
				c-0.01,1.09-0.54,1.84-1.49,2.32c-0.72,0.36-1.48,0.56-2.29,0.45c-1.3-0.18-2.01-0.81-2.26-2.1c-0.16-0.87-0.24-1.75-0.33-2.63
				c-0.37-3.53-0.23-7.06,0.1-10.58c0.01-0.13,0-0.27,0-0.39c-0.29-0.11-0.35,0.09-0.44,0.24c-0.39,0.63-0.76,1.28-1.18,1.89
				c-0.34,0.5-0.7,0.99-1.12,1.42c-1.84,1.83-4.62,1.92-6.54,0.18c-0.64-0.58-1.19-1.31-1.67-2.04c-0.87-1.33-1.43-2.81-1.95-4.31
				c-0.15-0.43-0.31-0.86-0.45-1.26c-0.32-0.04-0.36,0.15-0.41,0.33c-0.75,2.73-1.47,5.47-2.25,8.19c-0.24,0.84-0.56,1.68-0.94,2.47
				c-0.5,1.05-1.34,1.77-2.48,2.1c-1.34,0.39-2.67,0.02-3.48-1.11c-0.48-0.67-0.85-1.44-1.14-2.22c-0.61-1.57-0.89-3.22-1.14-4.88
				c-0.74-5.04-0.69-10.1-0.16-15.16c0.31-3,0.63-6.01,0.96-9.01c0.22-2.03,0.5-4.06,0.7-6.09c0.23-2.36,0.44-4.72,0.35-7.1
				c-0.03-0.83-0.15-1.66-0.24-2.49c-0.02-0.17-0.12-0.34-0.23-0.6c-0.24,0.13-0.45,0.2-0.61,0.33c-0.86,0.73-1.52,1.63-2.11,2.58
				c-1.24,1.98-2.12,4.13-2.84,6.34c-0.17,0.53-0.33,1.07-0.49,1.6c-0.32,1.03-0.42,2.08-0.47,3.15c-0.14,3.06-0.35,6.12-0.59,9.18
				c-0.22,2.83-0.5,5.65-0.75,8.47c-0.02,0.23-0.03,0.46-0.06,0.69c-0.28,1.99-2.53,3.14-4.34,2.22c-0.48-0.25-0.82-0.62-0.96-1.14
				c-0.11-0.4-0.18-0.82-0.24-1.23c-0.56-3.69-0.63-7.4-0.34-11.12c0.27-3.47,0.55-6.95,0.38-10.44c-0.04-0.88-0.15-1.75-0.23-2.58
				c-0.38-0.19-0.49,0.05-0.6,0.23c-0.97,1.65-1.66,3.43-2.2,5.26c-0.88,2.95-1.32,5.98-1.7,9.03c-0.34,2.78-0.29,5.57-0.28,8.35
				c0.01,2.51,0.01,5.02,0.05,7.53c0.02,1.3,0.05,2.61,0.23,3.89c0.32,2.25-1.9,3.17-3.47,2.8c-0.58-0.14-0.99-0.5-1.2-1.06
				c-0.13-0.35-0.23-0.71-0.31-1.07c-0.82-3.53-1.39-7.1-1.75-10.72c-0.61-6.17-0.62-12.34-0.46-18.53c0.01-0.32,0-0.64,0-1.12
				c-0.26,0.16-0.43,0.22-0.52,0.34c-0.78,0.92-1.53,1.87-2.32,2.79c-0.36,0.41-0.48,0.86-0.48,1.4c0,1.91,0.02,3.81-0.07,5.72
				c-0.24,5.26-0.98,10.45-2.24,15.56c-0.43,1.72-1.01,3.38-1.91,4.92c-0.45,0.77-0.96,1.48-1.62,2.08
				c-1.93,1.74-4.97,2.4-7.67,0.39c-1.09-0.82-1.95-1.85-2.71-2.97c-1.18-1.75-1.91-3.71-2.5-5.72c-0.1-0.34-0.23-0.68-0.41-1.2
				c-0.28,0.66-0.49,1.12-0.67,1.59c-0.83,2.12-1.73,4.21-2.83,6.21c-0.34,0.61-0.7,1.21-1.11,1.77c-1.22,1.66-4.02,2.35-5.91,0.11
				c-0.7-0.83-1.2-1.77-1.64-2.74c-0.92-2.04-1.48-4.2-1.94-6.39c-0.64-3.05-1.07-6.13-1.19-9.25c-0.13-3.48-0.21-6.97-0.33-10.45
				c-0.11-3.39-0.06-6.79-0.46-10.16c-0.1-0.88-0.24-1.75-0.38-2.62c-0.05-0.3-0.17-0.59-0.28-0.92c-0.51,0.23-0.64,0.64-0.84,0.99
				c-1.15,2.09-1.87,4.35-2.41,6.66c-0.71,3.05-0.98,6.15-1.08,9.26c-0.13,4.04-0.06,8.09,0.26,12.12c0.19,2.45,0.35,4.91,0.52,7.37
				c0.02,0.32,0.02,0.65,0.04,0.98c0.06,0.98-0.37,1.72-1.2,2.2c-0.43,0.25-0.92,0.48-1.41,0.55c-2.22,0.36-3.07-0.59-3.45-2.13
				c-0.54-2.21-0.98-4.45-1.2-6.72c-0.31-3.33-0.57-6.67-0.9-10c-0.27-2.78-0.73-5.53-1.7-8.16c-0.25-0.68-0.44-1.39-0.95-1.98
				c-0.53,0.32-0.68,0.83-0.89,1.28c-0.71,1.48-1.13,3.05-1.39,4.66c-0.82,5.16-1.05,10.34-0.74,15.56c0.19,3.25,0.65,6.47,1.04,9.7
				c0.08,0.64,0.22,1.28,0.37,1.91c0.2,0.83,0.02,1.57-0.44,2.25c-0.78,1.16-1.9,1.76-3.27,1.87c-1.38,0.1-2.49-0.7-2.89-2.12
				c-0.3-1.07-0.53-2.17-0.77-3.25c-0.86-3.95-1.68-7.91-2.17-11.92c-0.38-3.09-0.67-6.19-0.95-9.29
				c-0.44-4.82-0.41-9.66-0.24-14.49c0.12-3.44,0.32-6.87,0.82-10.28c0.13-0.87,0.34-1.74,0.65-2.55c0.45-1.15,1.31-1.89,2.56-2.14
				c1.59-0.33,2.95,0.49,3.22,2.07c0.16,0.95,0.16,1.94,0.12,2.91c-0.18,4.41-0.4,8.82-0.6,13.23c-0.03,0.69,0.01,1.39,0.03,2.09
				c0,0.02,0.07,0.04,0.2,0.1c0.08-0.19,0.17-0.38,0.25-0.57c0.37-0.9,0.69-1.83,1.13-2.69c1.93-3.77,6.65-4.01,9.31-1.31
				c0.29,0.29,0.57,0.6,0.94,1c0.12-0.35,0.24-0.58,0.28-0.84c0.49-2.66,1.25-5.24,2.27-7.74c0.51-1.25,1.1-2.46,1.91-3.55
				c0.5-0.68,1.06-1.29,1.74-1.79c1.9-1.38,5.46-1.5,7.36,1.41c0.56,0.86,0.94,1.81,1.22,2.8c0.46,1.61,0.7,3.27,0.87,4.93
				c0.32,3.15,0.33,6.31,0.34,9.47c0.01,3.49-0.05,6.97-0.03,10.46c0.02,3.49,0.22,6.97,0.79,10.41c0.26,1.6,0.59,3.18,1.23,4.65
				c0.43,0.02,0.5-0.31,0.63-0.53c1.1-1.95,2.03-3.97,2.83-6.05c0.72-1.86,1.39-3.74,2.04-5.63c0.16-0.47,0.27-1,0.24-1.49
				c-0.15-3.02-0.12-6.04,0.13-9.06c-0.13-0.15-0.24-0.3-0.38-0.42c-2.29-1.95-3.6-4.48-4.2-7.38c-1.12-5.49-0.1-10.62,2.87-15.36
				c0.54-0.86,1.23-1.64,1.95-2.35c2.74-2.67,6.66-2.91,9.57-1.53c1.76,0.84,3.19,2.07,4.4,3.57c1.56,1.94,2.65,4.14,3.49,6.47
				c1,2.77,1.6,5.63,1.94,8.54c0.03,0.27,0.06,0.55,0.09,0.79c0.31,0.19,0.47,0,0.62-0.17c0.98-1.12,1.95-2.25,2.94-3.35
				c0.37-0.4,0.48-0.86,0.56-1.38c0.24-1.61,0.51-3.21,0.82-4.8c0.11-0.59,0.3-1.17,0.54-1.72c0.66-1.56,1.91-2.25,3.57-2.02
				c1.07,0.15,1.76,0.76,2.05,1.81c0.22,0.82,0.19,1.66,0.13,2.49c-0.04,0.6-0.11,1.2-0.16,1.81c-0.01,0.16,0.02,0.33,0.05,0.72
				c0.47-0.62,0.78-1.06,1.13-1.48c1.2-1.46,2.72-2.2,4.64-2.08c1.48,0.1,2.67,0.71,3.61,1.85c0.23,0.28,0.45,0.55,0.73,0.89
				c0.44-0.89,0.82-1.68,1.22-2.47c0.75-1.45,1.61-2.83,2.76-4c1.03-1.05,2.2-1.84,3.68-2.13c2.82-0.54,5.45,0.88,6.5,3.56
				c0.52,1.31,0.68,2.7,0.75,4.09c0.14,2.75-0.06,5.48-0.37,8.21c-0.68,5.95-1.44,11.9-1.9,17.88c-0.22,2.87-0.52,5.74-0.62,8.62
				c-0.05,1.39-0.07,2.78,0.13,4.24c0.39-0.15,0.44-0.48,0.52-0.74c0.84-2.9,1.7-5.79,2.5-8.7c0.45-1.61,0.78-3.25,1.21-4.87
				c0.21-0.78,0.26-1.55,0.25-2.34c-0.02-2.09-0.07-4.19,0.02-6.27c0.2-4.24,0.91-8.4,2.18-12.46c0.86-2.73,2.09-5.27,4.05-7.4
				c1.63-1.78,3.49-3.2,5.87-3.82c4.49-1.17,9.3,1.05,10.48,6.37c0.41,1.86,0.28,3.7-0.17,5.52c-0.79,3.23-2.34,6.05-4.59,8.5
				c-0.89,0.97-1.89,1.79-3.06,2.4c-2.11,1.1-4.32,1.36-6.62,0.78C194.95,236.56,194.59,236.47,194.17,236.37z M145.26,233.75
				c0-0.47,0.02-0.89,0-1.3c-0.19-3.25-0.57-6.48-1.41-9.63c-0.59-2.2-1.37-4.34-2.5-6.33c-0.65-1.14-1.4-2.19-2.36-3.09
				c-0.61-0.58-1.29-1.06-2.07-1.39c-0.97-0.41-1.92-0.37-2.8,0.17c-0.51,0.31-1.01,0.69-1.38,1.15c-0.61,0.76-1.17,1.57-1.63,2.42
				c-1.11,2.07-1.71,4.32-1.92,6.65c-0.28,3.01,0.13,5.93,1.47,8.68c0.16,0.32,0.38,0.62,0.58,0.95c0.32-0.12,0.58-0.22,0.84-0.32
				c0.67-0.25,1.37-0.26,2.06-0.15c1.14,0.18,1.82,0.85,2.01,1.99c0.08,0.5,0.08,1.02,0.12,1.52c0.03,0.31,0.07,0.62,0.11,0.96
				C139.78,236.79,142.66,235.85,145.26,233.75z M194.42,232.9c0.16,0.18,0.27,0.33,0.42,0.44c1.52,1.12,3.16,1.24,4.88,0.54
				c1.28-0.52,2.31-1.38,3.21-2.4c1.61-1.84,2.8-3.92,3.56-6.26c0.43-1.35,0.56-2.73,0.45-4.13c-0.09-1.18-0.47-2.27-1.11-3.26
				c-0.41-0.63-0.93-1.16-1.6-1.52c-0.88-0.48-1.79-0.55-2.66-0.04c-0.59,0.35-1.19,0.76-1.65,1.26c-0.62,0.68-1.17,1.45-1.65,2.24
				c-0.46,0.75-0.82,1.56-1.17,2.37C195.64,225.59,194.95,229.23,194.42,232.9z M145.23,237.47c-0.23,0.05-0.38,0.05-0.49,0.11
				c-2.47,1.34-5.1,1.92-7.9,1.77c-0.21-0.01-0.43,0.06-0.69,0.1c-0.02,0.44-0.07,0.81-0.05,1.17c0.09,1.99,0.11,3.99,0.3,5.97
				c0.3,3.06,0.96,6.04,2.15,8.89c0.46,1.12,0.99,2.2,1.71,3.18c0.15,0.21,0.37,0.37,0.55,0.54c0.49-0.33,0.66-0.77,0.83-1.19
				c0.41-0.98,0.81-1.97,1.14-2.98c0.74-2.3,1.16-4.68,1.53-7.06c0.49-3.07,0.84-6.16,0.96-9.27
				C145.29,238.31,145.25,237.91,145.23,237.47z"/>
		</g>
		<g>
			<path d="M237.06,125.52c-0.14,0.46-0.28,0.91-0.41,1.37c-0.89,3.37-1.77,6.74-2.66,10.11c-0.42,1.58-0.92,3.13-1.63,4.61
				c-0.71,1.48-1.58,2.85-2.68,4.08c-1.14,1.27-2.47,2.28-4.11,2.79c-1.96,0.61-3.91,0.5-5.85-0.15c-1.96-0.66-3.62-1.8-5.11-3.21
				c-1.59-1.5-2.85-3.25-3.93-5.13c-1.63-2.85-2.8-5.89-3.69-9.04c-0.12-0.42-0.24-0.85-0.4-1.43c-0.18,0.33-0.33,0.52-0.39,0.74
				c-0.46,1.75-0.9,3.5-1.34,5.25c-0.33,1.28-0.74,2.54-1.35,3.73c-0.3,0.59-0.63,1.17-1.03,1.69c-1.44,1.89-4.04,2.93-6.76,1.8
				c-1.45-0.6-2.69-1.5-3.83-2.56c-1.49-1.39-2.72-3.01-3.83-4.72c-0.26-0.41-0.53-0.81-0.85-1.3c-0.32,0.33-0.6,0.59-0.86,0.88
				c-1.33,1.48-2.73,2.89-4.3,4.11c-1.4,1.09-2.9,2.01-4.59,2.59c-2.09,0.72-4.2,0.95-6.38,0.48c-1.14-0.24-2.2-0.67-3.12-1.37
				c-0.77-0.58-1.54-1.2-2.17-1.93c-2.52-2.96-3.86-6.39-3.88-10.3c0-0.58,0.06-1.15,0.33-1.67c0.3-0.59,0.77-0.96,1.46-0.98
				c0.53-0.01,0.85,0.19,0.98,0.7c0.09,0.34,0.12,0.69,0.16,1.04c0.21,2.08,0.73,4.08,1.59,5.98c0.7,1.54,1.61,2.94,2.83,4.12
				c1,0.97,2.14,1.68,3.52,2c1.61,0.38,3.17,0.19,4.65-0.48c0.76-0.34,1.5-0.76,2.18-1.24c2.35-1.68,4.32-3.76,6.12-6.01
				c0.08-0.1,0.12-0.23,0.19-0.38c-0.1-0.23-0.19-0.47-0.3-0.71c-2.06-4.43-3.39-9.08-4.33-13.85c-1.34-6.78-1.95-13.62-1.83-20.53
				c0.09-4.82,0.48-9.6,1.55-14.32c0.49-2.16,1.16-4.25,2.09-6.26c0.6-1.29,1.31-2.5,2.19-3.61c0.77-0.97,1.66-1.83,2.73-2.48
				c2.8-1.72,6-1.41,8.43,0.81c0.95,0.87,1.69,1.91,2.33,3.03c1.28,2.24,2.12,4.65,2.62,7.18c0.71,3.57,0.85,7.17,0.65,10.8
				c-0.12,2.2-0.29,4.4-0.57,6.59c-0.53,4.3-1.49,8.51-2.77,12.65c-1.77,5.7-3.97,11.22-6.9,16.44c-0.11,0.19-0.19,0.39-0.27,0.56
				c0.04,0.17,0.05,0.31,0.11,0.42c1.2,2.56,2.45,5.09,4.08,7.41c0.63,0.9,1.36,1.74,2.08,2.57c0.37,0.42,0.79,0.83,1.39,1
				c0.52-0.38,0.77-0.96,1-1.53c0.6-1.51,1.25-3.02,1.72-4.58c1.1-3.67,2.1-7.38,3.14-11.07c0.17-0.6,0.19-1.21,0.15-1.83
				c-0.25-4.56-0.01-9.09,0.99-13.55c0.58-2.59,1.42-5.1,2.69-7.44c1.19-2.2,2.67-4.16,4.77-5.58c1.67-1.13,3.47-1.9,5.51-2.07
				c1.07-0.09,2.12,0.01,3.14,0.31c2.51,0.73,4.5,2.19,6.02,4.3c1.09,1.51,1.62,3.22,1.7,5.07c0.1,2.19-0.28,4.31-1.05,6.35
				c-1.46,3.87-3.91,6.98-7.36,9.28c-1.41,0.94-2.93,1.59-4.62,1.88c-1.47,0.26-2.9,0.17-4.32-0.22c-0.28-0.08-0.57-0.12-0.94-0.19
				c-0.07,0.79-0.02,1.49,0.04,2.18c0.39,4.06,1.19,8.02,2.63,11.85c1.19,3.16,2.84,6.07,4.91,8.73c0.65,0.83,1.4,1.58,2.18,2.3
				c0.48,0.44,1.06,0.79,1.65,1.09c1.55,0.78,2.49,0.63,3.68-0.61c0.49-0.51,0.95-1.06,1.3-1.67c0.61-1.07,1.18-2.17,1.66-3.3
				c1.16-2.77,1.98-5.66,2.82-8.54c1.14-3.89,2.26-7.79,3.39-11.69c0.19-0.64,0.26-1.27,0.19-1.95c-0.31-3.3-0.43-6.61-0.42-9.92
				c0.01-3.49-0.01-6.97,0.1-10.46c0.09-3,0.35-5.99,0.53-8.98c0.02-0.35,0-0.7,0-1.13c-0.15-0.08-0.32-0.23-0.52-0.29
				c-2.64-0.86-5.27-1.78-7.99-2.34c-3.93-0.82-7.87-0.99-11.82-0.16c-1.7,0.35-3.3,0.94-4.79,1.85c-0.37,0.23-0.76,0.45-1.18,0.59
				c-0.27,0.09-0.61,0.1-0.89,0.04c-0.58-0.13-0.81-0.63-0.5-1.1c0.32-0.47,0.69-0.92,1.12-1.29c1.44-1.28,3.12-2.14,4.94-2.73
				c2.93-0.95,5.96-1.17,9.02-1.13c3.84,0.05,7.51,0.97,11.14,2.11c0.57,0.18,1.13,0.51,1.81,0.4c0.04-0.23,0.09-0.45,0.11-0.66
				c0.19-2.42,0.34-4.84,0.56-7.26c0.14-1.49,0.35-2.98,0.57-4.46c0.07-0.48,0.23-0.94,0.39-1.4c0.35-0.97,1.05-1.52,2.08-1.58
				c1-0.05,1.81,0.36,2.34,1.23c0.4,0.65,0.61,1.36,0.74,2.11c0.28,1.67,0.2,3.34,0.12,5.02c-0.14,2.91-0.29,5.82-0.43,8.73
				c-0.01,0.17,0.02,0.35,0.03,0.58c0.23,0.11,0.45,0.25,0.69,0.32c2.36,0.72,4.7,1.5,7.15,1.92c2.1,0.35,4.13,0.15,6.13-0.53
				c0.67-0.23,1.33-0.48,1.99-0.71c0.7-0.24,1.39-0.25,2.05,0.1c0.85,0.45,0.97,1.31,0.24,1.94c-0.23,0.2-0.51,0.35-0.79,0.47
				c-2.26,1.02-4.61,1.75-7.1,1.97c-1.96,0.17-3.88-0.12-5.78-0.54c-1.42-0.31-2.82-0.7-4.23-1.06c-0.16-0.04-0.33-0.07-0.49-0.1
				c-0.36,0.4-0.3,0.86-0.32,1.29c-0.19,3.92-0.42,7.84-0.53,11.77c-0.11,4.23-0.11,8.47,0.21,12.7c0.34,4.53,0.81,9.05,2.08,13.44
				c0.63,2.17,1.46,4.25,2.45,6.28c0.61,1.23,1.35,2.38,2.32,3.36c0.49,0.5,1.01,0.99,1.81,1.2c0.18-0.2,0.41-0.4,0.56-0.65
				c0.67-1.16,1.04-2.43,1.37-3.71c0.54-2.1,0.82-4.24,1.06-6.39c0.37-3.43,0.42-6.87,0.35-10.31c-0.01-0.62-0.03-1.24,0.04-1.85
				c0.08-0.76,0.54-1.18,1.29-1.27c0.88-0.11,1.33,0.23,1.43,1.13c0.04,0.31,0.04,0.62,0.04,0.93c0.02,4.02,0.05,8.03-0.25,12.04
				c-0.22,2.95-0.59,5.88-1.55,8.7c-0.27,0.79-0.59,1.57-1,2.3c-0.99,1.74-2.53,2.65-4.52,2.82c-1.4,0.12-2.72-0.16-3.96-0.82
				c-1.18-0.63-2.2-1.47-3.08-2.47c-1.21-1.37-2.15-2.9-2.89-4.57c-1.18-2.67-1.98-5.47-2.58-8.32c-0.03-0.16-0.08-0.33-0.13-0.49
				C237.23,125.52,237.14,125.52,237.06,125.52z M190.29,125.04c0.35-0.64,0.58-1.02,0.77-1.41c2.33-4.67,4.18-9.52,5.58-14.54
				c1.38-4.94,2.15-9.99,2.47-15.11c0.25-3.98,0.13-7.93-0.62-11.85c-0.45-2.35-1.16-4.61-2.31-6.73c-0.51-0.93-1.08-1.83-1.85-2.57
				c-0.34-0.33-0.75-0.61-1.15-0.88c-0.32-0.21-0.69-0.19-1,0.03c-0.35,0.26-0.73,0.52-0.98,0.87c-0.51,0.71-1.04,1.44-1.38,2.24
				c-0.62,1.45-1.2,2.94-1.65,4.46c-1.4,4.72-1.92,9.59-2.12,14.49c-0.26,6.23,0.09,12.43,1.08,18.59c0.6,3.7,1.4,7.36,2.6,10.92
				C189.87,123.95,190.03,124.35,190.29,125.04z M211.71,115.82c2.01,1.42,4.12,1.61,6.33,0.78c1.5-0.57,2.8-1.48,3.96-2.59
				c2.13-2.03,3.46-4.54,4.31-7.32c0.5-1.62,0.66-3.28,0.54-4.96c-0.08-1.12-0.38-2.17-0.88-3.16c-0.72-1.41-1.8-2.49-3.18-3.26
				c-1.43-0.8-2.79-0.71-4.03,0.37c-0.53,0.46-1.03,0.97-1.47,1.51c-1.33,1.61-2.32,3.43-3.1,5.35c-1.1,2.71-1.77,5.53-2.15,8.43
				C211.81,112.54,211.65,114.12,211.71,115.82z"/>
			<path d="M278.39,97.43c0.63-0.43,1.1-0.75,1.58-1.06c1.99-1.27,4.11-2.2,6.47-2.54c5.06-0.72,9.66,1.98,11.44,6.78
				c0.57,1.54,0.86,3.15,0.94,4.78c0.05,1.06,0.04,2.12,0.02,3.18c-0.02,1.08-0.66,1.82-1.72,2.02c-0.3,0.06-0.62,0.06-0.92,0.03
				c-0.99-0.08-1.41-0.48-1.53-1.49c-0.12-0.96-0.16-1.93-0.31-2.89c-0.28-1.84-0.76-3.62-1.68-5.26c-0.46-0.81-0.99-1.58-1.69-2.19
				c-1.51-1.34-3.24-1.95-5.25-1.4c-2,0.55-3.66,1.68-5.25,3.06c0.27,0.43,0.49,0.8,0.73,1.16c1.88,2.93,3.8,5.85,5.65,8.8
				c1.83,2.92,3.43,5.96,4.72,9.17c1.23,3.07,1.85,6.25,1.7,9.57c-0.08,1.77-0.34,3.51-0.85,5.21c-0.83,2.73-2.35,5.01-4.54,6.85
				c-2.57,2.16-5.56,3.36-8.86,3.86c-1.45,0.22-2.89,0.37-4.35,0.15c-4.07-0.63-7.05-2.85-9.1-6.36c-1.06-1.81-1.6-3.82-1.94-5.87
				c-0.58-3.57-0.45-7.13,0.31-10.65c1-4.64,2.57-9.08,4.8-13.27c1.23-2.3,2.67-4.47,4.35-6.47c0.2-0.23,0.39-0.48,0.63-0.77
				c-0.17-0.3-0.34-0.6-0.51-0.89c-1.2-1.96-2.46-3.88-3.58-5.87c-1.52-2.7-2.74-5.53-3.47-8.56c-0.68-2.81-0.97-5.66-0.41-8.53
				c0.76-3.93,2.58-7.31,5.53-10.02c2.16-1.98,4.74-3.01,7.68-3.13c2.44-0.1,4.6,0.66,6.53,2.13c2.33,1.78,4.07,4.03,5.14,6.77
				c1.48,3.75,1.8,7.61,1.08,11.57c-0.06,0.35-0.14,0.7-0.28,1.02c-0.1,0.22-0.3,0.44-0.5,0.58c-0.53,0.34-1.24,0.04-1.31-0.59
				c-0.08-0.7-0.07-1.41-0.09-2.11c-0.05-2.44-0.34-4.84-1.03-7.18c-0.85-2.84-2.2-5.39-4.51-7.33c-0.57-0.48-1.18-0.93-1.83-1.3
				c-1.39-0.8-2.84-0.84-4.32-0.21c-1.3,0.55-2.31,1.45-3.14,2.57c-1.28,1.73-2.15,3.65-2.57,5.75c-0.67,3.37-0.33,6.67,0.67,9.93
				c0.82,2.67,2.04,5.16,3.45,7.57C276.9,95.1,277.63,96.2,278.39,97.43z M275.96,105.24c-0.63,0.95-1.19,1.74-1.69,2.57
				c-2.61,4.26-4.3,8.87-5.35,13.74c-0.64,2.99-0.97,6.01-0.53,9.07c0.24,1.67,0.62,3.29,1.34,4.82c0.92,1.94,2.32,3.41,4.23,4.41
				c1,0.52,2.05,0.79,3.18,0.75c1.79-0.06,3.49-0.51,5.09-1.28c1.92-0.93,3.23-2.41,3.93-4.43c0.45-1.3,0.69-2.64,0.79-4.01
				c0.21-3.05-0.3-5.97-1.43-8.8c-1.12-2.79-2.46-5.47-4.01-8.04c-1.64-2.72-3.34-5.4-5.02-8.1
				C276.37,105.75,276.22,105.58,275.96,105.24z"/>
			<path d="M256.02,71.01c0.03,1.54-0.51,3.08-1.12,4.59c-0.14,0.35-0.44,0.67-0.74,0.9c-0.97,0.74-2.74,0.75-3.75,0.05
				c-0.71-0.49-0.95-1.1-0.73-1.95c0.13-0.47,0.32-0.92,0.43-1.39c0.4-1.62,0.37-3.23-0.15-4.82c-0.07-0.21-0.14-0.42-0.19-0.63
				c-0.21-0.85,0.06-1.47,0.84-1.86c0.79-0.4,1.61-0.41,2.44-0.15c0.92,0.29,1.61,0.9,2.11,1.71
				C255.81,68.51,256.06,69.66,256.02,71.01z"/>
		</g>
	</g>
</g>
</svg>
