<?xml version="1.0" encoding="utf-8"?>
<!-- Generator: Adobe Illustrator 25.2.1, SVG Export Plug-In . SVG Version: 6.00 Build 0)  -->
<svg version="1.1" id="Calque_1" xmlns="http://www.w3.org/2000/svg" xmlns:xlink="http://www.w3.org/1999/xlink" x="0px" y="0px"
	 viewBox="0 0 432 432" style="enable-background:new 0 0 432 432;" xml:space="preserve">
<style type="text/css">
	.st0{fill:#F9D53D;}
	.st1{fill:#D3B844;}
	.st2{fill:#E0AAAF;}
	.st3{fill:#BA9196;}
	.st4{fill:#EAB978;}
	.st5{fill:#FBB03B;}
	.st6{fill:#A1C3CE;}
	.st7{fill:#8CC63F;}
	.st8{fill:#C7B299;}
	.st9{fill:#CCCCCC;}
	.st10{fill:#C44750;}
	.st11{fill:#998675;}
	.st12{fill:#29ABE2;}
	.st13{fill:#C79C52;}
	.st14{fill:#766FBF;}
	.st15{fill:#E8A3AB;}
</style>
<g>
	<g>
		<path d="M148.43,138.1c-0.31,0.06-0.35,0.28-0.38,0.48c-0.26,1.61-0.56,3.22-0.75,4.84c-0.54,4.58-0.66,9.19-0.52,13.8
			c0.11,3.65,0.51,7.27,1.09,10.87c0.03,0.21,0.08,0.41,0.11,0.62c0.34,1.82-1.27,3.02-2.5,3.2c-0.72,0.1-1.34-0.12-1.76-0.73
			c-0.31-0.44-0.6-0.91-0.86-1.39c-2.24-4.11-3.8-8.47-4.87-13.01c-1.03-4.38-1.64-8.81-1.47-13.32c0.08-2.05,0.2-4.1,0.68-6.11
			c0.21-0.9,0.53-1.77,1.04-2.54c0.77-1.16,1.86-1.78,3.26-1.82c1.13-0.03,2.04,0.39,2.61,1.41c0.1,0.17,0.21,0.33,0.29,0.47
			c0.3-0.03,0.3-0.23,0.33-0.38c0.28-1.14,0.6-2.27,1.13-3.32c0.69-1.37,1.81-2.19,3.31-2.42c1.67-0.26,3.15,0.19,4.38,1.38
			c0.64,0.62,1.13,1.35,1.47,2.17c0.3,0.73,0.54,1.49,0.81,2.24c0.05,0.14,0.14,0.26,0.34,0.61c0.09-0.58,0.14-0.93,0.2-1.28
			c0.05-0.33,0.12-0.66,0.17-0.99c0.34-2.07,0.77-4.11,1.47-6.09c0.2-0.55,0.42-1.1,0.68-1.62c1.73-3.46,5.86-3.73,8.35-1.75
			c1.04,0.83,1.75,1.91,2.28,3.11c0.72,1.62,1.11,3.34,1.28,5.1c0.24,2.42,0.41,4.84,0.55,7.26c0.27,4.68,0.47,9.37,0.97,14.03
			c0.17,1.58,0.45,3.15,0.97,4.66c0.17,0.5,0.32,1.01,0.78,1.49c0.19-0.31,0.36-0.54,0.49-0.79c1.04-2.16,1.79-4.42,2.47-6.71
			c0.13-0.42,0.09-0.82,0-1.24c-0.83-4.02-0.87-8.06-0.42-12.13c0.12-1.08,0.39-2.15,0.8-3.15c0.22-0.54,0.5-1.07,0.84-1.53
			c0.72-0.98,1.72-1.42,2.95-1.36c0.81,0.04,1.48,0.36,1.91,1.04c0.33,0.52,0.58,1.11,0.78,1.7c0.52,1.56,0.62,3.2,0.7,4.83
			c0.13,2.55,0.21,5.11,0.33,7.66c0.12,2.51,0.37,5.01,0.99,7.46c0.2,0.81,0.49,1.6,0.79,2.38c0.16,0.42,0.35,0.86,0.9,1.1
			c0.34-0.39,0.73-0.77,1.02-1.22c0.7-1.09,1.4-2.19,2-3.33c2-3.78,3.54-7.77,4.99-11.78c0.08-0.23,0.1-0.48,0.16-0.75
			c-0.34-0.28-0.66-0.54-0.99-0.8c-1.31-1.05-2.56-2.16-3.62-3.47c-1.43-1.75-2.48-3.69-2.87-5.92c-0.73-4.19,0.55-7.69,3.8-10.43
			c1.15-0.97,2.51-1.48,4.04-1.5c2.05-0.02,3.63,0.84,4.8,2.5c0.58,0.83,0.98,1.76,1.25,2.73c0.52,1.83,0.65,3.7,0.44,5.6
			c-0.19,1.67-0.55,3.3-0.99,4.92c-0.09,0.32-0.15,0.64-0.24,1.02c0.27,0.22,0.5,0.45,0.77,0.64c1.14,0.79,2.28,1.56,3.42,2.34
			c1.97,1.35,3.88,2.78,5.62,4.42c0.09,0.08,0.2,0.15,0.28,0.21c0.07,0.01,0.11,0.03,0.15,0.03c0.04,0,0.09-0.01,0.12-0.03
			c0.86-0.6,1.74-1.16,2.57-1.8c1.67-1.27,3.31-2.57,4.95-3.86c0.26-0.21,0.49-0.45,0.65-0.6c0.26-3.32,0.51-6.52,0.75-9.73
			c0-0.04-0.03-0.07-0.05-0.11c-0.07-0.04-0.14-0.12-0.21-0.12c-1.5-0.14-3.01-0.19-4.51,0c-1.64,0.21-3.16,0.81-4.53,1.75
			c-0.46,0.32-0.94,0.55-1.52,0.46c-0.2-0.03-0.41-0.09-0.59-0.19c-0.41-0.23-0.53-0.63-0.33-1.07c0.39-0.81,1.01-1.43,1.74-1.95
			c1.39-0.98,2.95-1.56,4.62-1.84c1.62-0.28,3.25-0.29,4.88-0.18c0.29,0.02,0.58,0.04,0.89,0.05c0.34-0.37,0.35-0.85,0.48-1.28
			c0.28-0.97,0.64-1.91,1.23-2.73c0.71-1,1.68-1.48,2.91-1.43c1.13,0.05,2,0.55,2.58,1.53c0.49,0.85,0.73,1.78,0.83,2.74
			c0.04,0.41,0.07,0.82,0.11,1.31c0.23,0.02,0.43,0.07,0.62,0.06c2.47-0.2,4.45-1.35,6.13-3.1c0.29-0.3,0.54-0.65,0.87-0.9
			c0.71-0.55,1.5-0.74,2.35-0.31c0.6,0.3,0.8,0.86,0.53,1.47c-0.08,0.19-0.2,0.37-0.33,0.53c-2.02,2.5-4.55,4.17-7.74,4.76
			c-0.58,0.11-1.16,0.17-1.74,0.27c-0.24,0.04-0.47,0.12-0.74,0.2c-0.08,0.95-0.18,1.86-0.22,2.78c-0.12,2.8-0.29,5.61-0.29,8.41
			c0.01,4.77,0.23,9.55,0.74,14.3c0.18,1.71,0.44,3.41,0.98,5.05c0.19,0.59,0.47,1.16,0.73,1.73c0.08,0.17,0.25,0.3,0.44,0.51
			c0.19-0.27,0.36-0.45,0.46-0.66c0.3-0.6,0.62-1.19,0.86-1.82c0.97-2.5,1.9-5.01,2.87-7.51c0.19-0.49,0.23-0.96,0.11-1.47
			c-0.7-3-0.87-6.05-0.69-9.11c0.18-3.22,0.99-6.28,2.5-9.14c1.03-1.96,2.41-3.62,4.25-4.87c1.05-0.71,2.17-1.23,3.43-1.5
			c1.95-0.42,3.77-0.08,5.42,0.96c2.78,1.75,4.32,4.31,4.47,7.58c0.17,3.66-1.17,6.81-3.73,9.41c-1.75,1.78-3.91,2.68-6.42,2.71
			c-0.33,0-0.65,0.04-1.07,0.07c0.16,1.05,0.3,2.04,0.47,3.02c0.36,2.2,0.91,4.34,1.79,6.39c0.69,1.62,1.55,3.16,2.69,4.51
			c0.62,0.74,1.33,1.39,2.19,1.86c1.62,0.88,3.14,0.78,4.55-0.4c0.57-0.48,1.08-1.05,1.56-1.63c1.25-1.54,2.19-3.27,3.03-5.05
			c1.46-3.07,2.54-6.28,3.52-9.53c0.83-2.73,1.5-5.49,1.9-8.32c0.27-1.87,0.43-3.74,0.34-5.63c-0.02-0.54-0.04-1.08-0.28-1.66
			c-0.26,0.07-0.49,0.14-0.72,0.2c-0.84,0.24-1.68,0.55-2.53,0.7c-1.74,0.32-3.42,0.05-4.98-0.83c-2.08-1.17-3.11-3.31-2.73-5.61
			c0.38-2.28,2.08-4.06,4.32-4.54c2.01-0.43,3.81,0.11,5.47,1.23c1.13,0.77,1.96,1.81,2.67,2.96c0.21,0.35,0.43,0.7,0.67,1.1
			c0.62-0.43,1.16-0.81,1.71-1.19c1.31-0.9,2.61-1.82,3.94-2.69c1.09-0.71,2.24-1.32,3.48-1.73c2.89-0.96,5.61-0.65,8.12,1.13
			c1.5,1.07,2.41,2.53,2.77,4.34c0.4,2.04,0.28,4.09,0.11,6.13c-0.26,3.18-0.92,6.29-1.51,9.42c-0.82,4.36-1.53,8.74-1.92,13.17
			c-0.19,2.17-0.43,4.33-0.57,6.51c-0.13,2.1-0.05,4.19,0.58,6.22c0.12,0.4,0.23,0.81,0.43,1.18c0.27,0.51,0.57,1.03,0.94,1.48
			c0.88,1.06,1.46,1.05,2.32-0.01c0.83-1.02,1.42-2.17,1.87-3.4c0.84-2.28,1.48-4.62,2.02-6.99c0.82-3.59,1.42-7.23,2-10.86
			c0.11-0.7,0.26-1.4,0.43-2.09c0.19-0.75,0.75-1.08,1.47-1.17c0.73-0.09,1.24,0.36,1.19,1.09c-0.07,1.04-0.2,2.08-0.32,3.12
			c-0.62,5.38-1.58,10.68-3.27,15.83c-0.4,1.23-0.9,2.44-1.47,3.6c-0.44,0.89-1.01,1.74-1.64,2.52c-1.71,2.12-5.04,3.21-8.07,1.54
			c-1.77-0.98-3.14-2.36-4.12-4.11c-1.14-2.04-1.74-4.25-2.05-6.55c-0.51-3.81-0.28-7.6,0.15-11.4c0.55-4.87,1.44-9.69,2.27-14.51
			c0.52-3.01,0.89-6.05,0.83-9.12c-0.01-0.66-0.12-1.33-0.23-1.99c-0.06-0.32-0.2-0.64-0.35-0.93c-0.17-0.33-0.47-0.49-0.84-0.43
			c-0.41,0.07-0.82,0.16-1.22,0.29c-0.44,0.14-0.86,0.32-1.28,0.51c-2.34,1.06-4.44,2.51-6.62,3.89c0.02,0.28,0,0.53,0.06,0.77
			c0.68,2.68,0.66,5.41,0.33,8.12c-0.79,6.49-2.7,12.67-5.38,18.63c-0.76,1.68-1.64,3.3-2.69,4.82c-0.91,1.32-1.95,2.51-3.18,3.55
			c-1.71,1.45-3.68,2.31-5.92,2.51c-1.92,0.17-3.75-0.22-5.48-1.05c-1.53-0.73-2.85-1.75-4.05-2.93c-1.81-1.77-3.28-3.8-4.54-5.99
			c-0.18-0.31-0.25-0.72-0.72-0.9c-0.12,0.31-0.24,0.61-0.36,0.91c-0.6,1.56-1.17,3.14-1.82,4.68c-0.31,0.73-0.69,1.44-1.16,2.08
			c-1.69,2.29-4.45,2.69-6.76,1.03c-0.97-0.7-1.71-1.6-2.37-2.58c-1.32-1.96-2.24-4.11-2.98-6.35c-1.27-3.84-1.92-7.8-2-11.84
			c-0.01-0.33-0.02-0.67-0.03-1c0-0.08-0.05-0.15-0.1-0.31c-0.14,0.05-0.31,0.06-0.42,0.14c-1.97,1.49-3.94,2.98-5.9,4.48
			c-0.1,0.07-0.17,0.18-0.29,0.31c0.22,0.3,0.45,0.6,0.65,0.91c0.65,1.02,1.4,2,1.92,3.08c1.94,4.06,1.65,7.94-1.08,11.58
			c-1.07,1.42-2.36,2.61-3.93,3.46c-1.61,0.87-3.32,1.17-5.1,0.76c-2.73-0.63-4.51-2.39-5.27-5.03c-1.05-3.63-0.3-6.96,2.06-9.91
			c0.42-0.52,0.93-0.97,1.4-1.44c0.17-0.17,0.37-0.32,0.54-0.46c-0.93-1.41-4.21-4.18-5.79-4.9c-0.16,0.38-0.33,0.75-0.49,1.13
			c-1.19,2.82-2.34,5.64-3.57,8.44c-0.81,1.84-1.77,3.61-2.96,5.24c-0.74,1.02-1.55,1.98-2.58,2.72c-0.83,0.6-1.74,0.99-2.77,1.1
			c-1.26,0.13-2.43-0.16-3.43-0.92c-0.63-0.48-1.2-1.04-1.72-1.63c-0.78-0.88-1.37-1.9-1.91-2.94c-0.18-0.36-0.39-0.71-0.58-1.05
			c-0.44,0.11-0.41,0.46-0.52,0.71c-0.52,1.14-0.98,2.31-1.52,3.44c-0.23,0.49-0.53,0.96-0.87,1.37c-1.16,1.39-2.93,1.66-4.4,0.75
			c-0.72-0.44-1.34-1-1.89-1.63c-0.89-1.01-1.6-2.14-2.21-3.34c-1.44-2.86-2.38-5.89-2.99-9.03c-0.85-4.36-1.41-8.76-1.81-13.18
			c-0.13-1.5-0.34-2.99-0.53-4.49c-0.03-0.27-0.16-0.53-0.27-0.87c-0.41,0.53-0.52,1.07-0.68,1.58c-0.75,2.36-1.19,4.79-1.48,7.25
			c-0.5,4.13-0.62,8.27-0.44,12.42c0.12,2.8,0.31,5.6,0.47,8.4c0.03,0.46,0.03,0.92,0.02,1.38c-0.04,1.59-1.82,2.6-2.96,2.5
			c-0.57-0.05-1.06-0.3-1.39-0.76c-0.34-0.48-0.64-0.98-0.92-1.5c-1.7-3.21-2.78-6.63-3.6-10.15c-0.78-3.3-1.26-6.66-1.77-10.01
			C148.65,139.66,148.54,138.88,148.43,138.1z M243.64,142.46c1.59,0.54,3.07,0.41,4.39-0.63c0.58-0.46,1.1-1.04,1.54-1.64
			c1.08-1.48,1.71-3.17,1.95-4.97c0.22-1.59,0.13-3.18-0.5-4.69c-0.45-1.07-1.13-1.95-2.16-2.53c-0.73-0.41-0.96-0.38-1.56,0.17
			c-0.69,0.64-1.14,1.44-1.52,2.29c-1.26,2.81-2.02,5.76-2.21,8.84C243.51,140.33,243.46,141.37,243.64,142.46z M206.16,150.57
			c-0.08,0.03-0.17,0.04-0.23,0.09c-0.13,0.1-0.25,0.22-0.36,0.34c-1.75,1.99-2.31,4.32-1.93,6.89c0.15,1.05,0.59,2.01,1.37,2.77
			c0.49,0.47,1.05,0.83,1.72,0.97c0.59,0.12,1.05-0.02,1.43-0.52c1.04-1.38,1.43-2.91,1.07-4.61c-0.47-2.22-1.57-4.12-2.96-5.88
			C206.25,150.59,206.19,150.59,206.16,150.57z M264.95,125.42c-0.42-1.47-1.06-2.7-1.95-3.57c-0.44-0.43-0.94-0.84-1.48-1.12
			c-1.21-0.62-2.3-0.21-2.88,1.03c-0.51,1.09-0.41,2.19,0.12,3.25c0.65,1.29,1.75,1.89,3.18,1.67
			C263.01,126.5,264,126.07,264.95,125.42z M196.38,122.35c-0.54,0.17-0.81,0.6-1.05,1.03c-0.62,1.08-0.86,2.26-0.71,3.49
			c0.3,2.36,1.39,4.34,3.03,6.04c0.05,0.05,0.15,0.05,0.26,0.09c0.05-0.09,0.13-0.19,0.15-0.29c0.42-1.84,0.6-3.71,0.42-5.59
			c-0.12-1.21-0.42-2.38-0.99-3.47C197.23,123.14,196.97,122.6,196.38,122.35z"/>
		<path d="M179.42,122.11c1.94-0.08,3.52,1.57,3.53,3.46c0.01,2.18-1.53,3.87-3.56,3.9c-2,0.03-3.64-1.53-3.63-3.51
			C175.78,123.99,177.34,122.07,179.42,122.11z"/>
	</g>
	<g>
		<path class="st4" d="M292.93,252.04v-18.01h-7.33v7h-3.16v-7h-8.91v11.54h-3.16v-11.54h-8.22v7h-3.16v-7h-8.91v11.54h-3.16v-11.54
			h-8.22v7h-3.16v-7h-8.91v11.54h-3.16v-11.54h-8.22v7h-3.16v-7h-8.91v11.54h-3.16v-11.54h-8.22v7h-3.16v-7h-8.91v11.54h-3.16
			v-11.54h-8.22v7h-3.16v-7h-8.91v11.54h-3.16v-11.54h-16.63v18.01H292.93z M143.56,241.03c1.64,0,2.98,1.33,2.98,2.98
			s-1.33,2.98-2.98,2.98c-1.64,0-2.98-1.33-2.98-2.98S141.92,241.03,143.56,241.03z"/>
		<rect x="136.57" y="255.2" class="st5" width="156.36" height="9.27"/>
	</g>
	<g>
		<g>
			<path d="M242.89,198.39c0-7.92,0.04-15.84-0.02-23.76c-0.02-2.22,1.09-3.36,3.29-3.29c3.68,0.12,7.37,0.11,11.05,0.16
				c0.28,0,0.55,0,0.83,0.04c1.16,0.16,2.02,1.11,2.06,2.25c0.04,1.12-0.69,2.09-1.81,2.35c-0.41,0.09-0.85,0.11-1.28,0.1
				c-2.55-0.02-5.1-0.06-7.64-0.1c-0.25,0-0.49-0.01-0.74,0.01c-0.65,0.05-0.87,0.25-0.94,0.9c-0.03,0.27-0.02,0.55-0.02,0.83
				c0,8.63-0.01,17.25-0.01,25.88c0,1.78,0.13,1.91,1.94,1.94c1.6,0.03,3.19,0.04,4.79,0.07c0.36,0.01,0.74,0.04,1.08,0.15
				c1.04,0.33,1.66,1.23,1.62,2.3c-0.03,1.05-0.74,1.93-1.79,2.18c-0.35,0.08-0.73,0.11-1.09,0.11c-1.41,0-2.82-0.03-4.24-0.05
				c-0.31,0-0.61-0.02-0.92-0.01c-1.1,0.04-1.37,0.27-1.38,1.37c-0.02,2.58-0.02,5.16,0.01,7.74c0.01,1.19,0.2,1.35,1.43,1.35
				c2.49,0,4.97-0.02,7.46-0.01c0.45,0,0.93,0.05,1.36,0.19c0.98,0.32,1.58,1.24,1.55,2.26c-0.03,0.98-0.66,1.84-1.62,2.12
				c-0.38,0.11-0.78,0.16-1.18,0.17c-3.68,0.02-7.37,0.04-11.05,0.03c-1.58,0-2.45-0.78-2.64-2.35c-0.06-0.52-0.07-1.04-0.07-1.56
				C242.89,213.98,242.89,206.18,242.89,198.39z"/>
			<path d="M229.44,219.35c0,0.19,0,0.37,0,0.56c0.02,0.79,0.11,0.9,0.94,0.92c1.84,0.04,3.68,0.06,5.52,0.1
				c0.4,0.01,0.81,0.01,1.21,0.07c1.18,0.18,2.03,1.18,2.03,2.33c0,1.19-0.89,2.2-2.11,2.36c-0.28,0.04-0.56,0.04-0.84,0.04
				c-2.77-0.02-5.55-0.05-8.32-0.08c-0.25,0-0.5,0-0.75-0.03c-1.27-0.13-2.06-0.81-2.34-2.06c-0.1-0.45-0.17-0.92-0.17-1.38
				c-0.02-15.96-0.02-31.92-0.02-47.88c0-0.46,0.04-0.94,0.17-1.38c0.31-1.01,1.26-1.66,2.26-1.64c1.05,0.02,1.99,0.73,2.25,1.79
				c0.12,0.48,0.14,0.99,0.14,1.48C229.43,182.04,229.44,211.9,229.44,219.35z"/>
			<path d="M173.31,174.29c0-0.21,0-0.43,0.01-0.64c0.06-1.29,0.7-2.1,1.98-2.27c6.49-0.87,11.66,1.17,14.73,7.6
				c1.09,2.29,1.57,4.77,1.92,7.27c0.39,2.8,0.56,5.62,0.39,8.45c-0.18,2.85-0.58,5.67-1.42,8.42c-0.72,2.35-1.96,4.28-4.16,5.5
				c-0.54,0.3-0.72,0.75-0.4,1.23c1.64,2.41,1.8,5.24,2.31,7.97c0.13,0.66,0.29,1.32,0.47,1.96c0.27,0.94,0.92,1.5,1.87,1.71
				c0.39,0.08,0.79,0.12,1.18,0.18c1.19,0.18,2.01,1.1,1.96,2.18c-0.06,1.14-0.98,2.02-2.22,2.01c-3.36-0.05-5.97-1.89-6.76-4.69
				c-0.47-1.68-0.73-3.41-1.09-5.12c-0.17-0.81-0.32-1.63-0.56-2.42c-0.5-1.6-1.62-2.49-3.29-2.65c-0.49-0.05-0.98-0.08-1.47-0.04
				c-0.9,0.07-1.12,0.31-1.12,1.21c0,2.36,0.01,4.73,0.01,7.09c0,1.44,0.01,2.88,0,4.33c-0.01,0.94-0.39,1.67-1.26,2.08
				c-1.12,0.52-2.46-0.08-2.8-1.28c-0.14-0.49-0.16-1.03-0.16-1.55C173.39,214.7,173.31,182.36,173.31,174.29z M188.25,192.49
				c-0.19-2.04-0.33-4.09-0.58-6.13c-0.25-2.01-0.71-3.98-1.59-5.83c-0.75-1.58-1.83-2.89-3.29-3.88c-1.24-0.85-2.63-1.13-4.09-1.17
				c-0.73-0.02-1.07,0.33-1.13,1.05c-0.03,0.4-0.03,0.8-0.03,1.2c0.01,8.77,0.03,17.54,0.05,26.31c0,0.34-0.01,0.68,0.03,1.01
				c0.1,0.86,0.4,1.16,1.26,1.1c1.25-0.09,2.51-0.21,3.73-0.45c2.32-0.46,3.83-1.83,4.35-4.19c0.01-0.06,0.03-0.12,0.04-0.18
				C187.81,198.43,188.14,195.49,188.25,192.49z"/>
			<path d="M201.16,208.37c0.1,2.72,0.39,5.44,0.69,8.15c0.09,0.83,0.43,1.66,0.77,2.44c0.4,0.95,1.15,1.56,2.14,1.88
				c1.9,0.63,3.79,0.63,5.69,0.02c1.06-0.34,1.79-1.02,2.27-2.01c0.52-1.1,0.81-2.26,0.89-3.46c0.22-3.03,0.5-6.06,0.55-9.09
				c0.11-7.18,0.12-14.36,0.15-21.55c0.01-3.25-0.05-6.51-0.07-9.76c0-0.49,0.02-0.98,0.07-1.47c0.14-1.22,1-1.99,2.15-1.96
				c1.13,0.03,1.92,0.87,2.01,2.1c0.01,0.12,0.01,0.25,0.01,0.37c0.04,6.6,0.04,29.07-0.12,33.7c-0.11,3.03-0.41,6.06-0.69,9.08
				c-0.12,1.35-0.55,2.64-1.13,3.87c-0.79,1.66-1.94,2.99-3.7,3.66c-2.88,1.1-5.83,1.44-8.84,0.67c-2.65-0.68-4.46-2.34-5.5-4.87
				c-0.83-2.02-1.09-4.15-1.25-6.29c-0.46-6.03-0.48-32.61-0.44-39.86c0-0.24,0.01-0.49,0.05-0.73c0.18-0.99,1.01-1.69,2-1.7
				c1-0.01,1.87,0.64,2.06,1.63c0.1,0.54,0.12,1.1,0.12,1.65c-0.03,4.73-0.07,9.45-0.1,14.18
				C200.91,190.39,200.99,203.28,201.16,208.37z"/>
		</g>
		<g>
			<g>
				<path class="st5" d="M143.25,199.14c0,6.47-0.72,8.17,3.96,5.93c7.17-3.42,15.59-5.63,17.23-6.14c0.88-0.28,0.74-1.33,0.08-1.58
					c-2.25-0.86-2.78-0.76-8.25-2.19C142.36,191.52,143.25,188.4,143.25,199.14C143.25,199.14,143.25,199.14,143.25,199.14z"/>
				<path class="st5" d="M159.66,180.12c-7.39-6.03-7.14-6.7-9.33-2.71c-3.97,7.22-3.99,6.5,12.08,8.84
					C167.85,187.04,163.92,183.59,159.66,180.12z"/>
				<path class="st5" d="M150.19,214.42c-0.04-0.5,0.23,2.7,2.4,6.42c1.13,1.93,2.82,0.66,4.42-0.9c3.84-3.73,11.51-11.7,6.31-10.41
					c-11.86,2.93-11.6,2.86-12.32,3.21C150.42,213.01,150.13,213.5,150.19,214.42z"/>
			</g>
			<g>
				<path class="st5" d="M286.25,199.14c0,6.47,0.72,8.17-3.96,5.93c-7.17-3.42-15.59-5.63-17.23-6.14
					c-0.88-0.28-0.74-1.33-0.08-1.58c2.25-0.86,2.78-0.76,8.25-2.19C287.14,191.52,286.25,188.4,286.25,199.14
					C286.25,199.14,286.25,199.14,286.25,199.14z"/>
				<path class="st5" d="M269.84,180.12c7.39-6.03,7.14-6.7,9.33-2.71c3.97,7.22,3.99,6.5-12.08,8.84
					C261.66,187.04,265.58,183.59,269.84,180.12z"/>
				<path class="st5" d="M279.32,214.42c0.04-0.5-0.23,2.7-2.4,6.42c-1.13,1.93-2.82,0.66-4.42-0.9
					c-3.84-3.73-11.51-11.7-6.31-10.41c11.86,2.93,11.6,2.86,12.32,3.21C279.09,213.01,279.37,213.5,279.32,214.42z"/>
			</g>
		</g>
	</g>
	<path d="M288.62,87.52c-0.06-0.26-0.06-0.54,0-0.8l4.26-19.63c0.26-1.18-0.64-2.29-1.84-2.29H138.46c-1.2,0-2.1,1.11-1.84,2.29
		l4.26,19.63c0.06,0.26,0.06,0.54,0,0.8l-4.26,19.63c-0.26,1.18,0.64,2.29,1.84,2.29h152.59c1.2,0,2.1-1.11,1.84-2.29L288.62,87.52z
		 M172.59,95.2c-0.09,1.25-0.2,2.49-0.3,3.74c-0.03,0.33-0.08,0.66-0.13,0.99c-0.07,0.45-0.34,0.68-0.79,0.72
		c-0.37,0.03-0.74,0.07-1.11,0.09c-2.47,0.17-4.95,0.35-7.42,0.52c-2.22,0.16-4.44,0.32-6.66,0.48c-0.12,0.01-0.23,0.02-0.35,0.02
		c-0.45-0.03-0.67-0.26-0.67-0.72c0-0.72,0.02-1.44,0.04-2.17c0.08-3.81,0.16-7.61,0.22-10.55c0.09-5.19,0.17-9.5,0.25-13.82
		c0-0.25,0.01-0.51,0.03-0.76c0.05-0.54,0.19-0.67,0.74-0.7c0.68-0.04,1.36-0.09,2.05-0.13c2.08-0.14,4.17-0.29,6.25-0.43
		c0.7-0.05,0.93,0.16,0.9,0.87c-0.09,2.09-0.2,4.17-0.3,6.26c-0.1,1.93-0.21,3.86-0.31,5.79c-0.12,2.18-0.23,4.37-0.34,6.55
		c-0.06,1.11-0.02,1.14,1.09,0.94c2.02-0.36,4.03-0.71,6.05-1.07c0.69-0.12,0.94,0.07,0.92,0.8
		C172.71,93.49,172.65,94.34,172.59,95.2z M187.06,76.23c-0.1,1.79-0.2,3.59-0.29,5.38c-0.2,3.86-0.4,7.72-0.6,11.58
		c-0.12,2.3-0.24,4.6-0.36,6.9c-0.03,0.66-0.28,0.9-0.93,0.96c-2.35,0.22-4.7,0.44-7.05,0.66c-0.16,0.01-0.31,0.03-0.47,0.01
		c-0.4-0.04-0.58-0.24-0.62-0.65c-0.01-0.17,0-0.35,0-0.53c0.08-4.39,0.16-8.78,0.22-11.94c0.11-5.69,0.2-10.14,0.29-14.59
		c0-0.1,0-0.2,0.01-0.29c0.04-0.45,0.21-0.62,0.66-0.65c1.34-0.09,2.69-0.18,4.03-0.27c1.42-0.1,2.84-0.19,4.27-0.29
		c0.06,0,0.12-0.01,0.17-0.02c0.59-0.02,0.83,0.2,0.81,0.8C187.17,74.28,187.11,75.25,187.06,76.23z M209.08,78.96
		c-0.01,0.89-0.24,1.15-1.13,1.25c-0.92,0.1-1.84,0.18-2.75,0.28c-0.57,0.06-0.73,0.2-0.77,0.77c-0.06,0.8-0.09,1.61-0.13,2.41
		c-0.18,3.47-0.35,6.94-0.53,10.41c-0.1,2.02-0.22,4.04-0.33,6.06c-0.04,0.75-0.24,0.98-0.98,1.06c-1.43,0.14-2.85,0.27-4.28,0.4
		c-0.94,0.09-1.88,0.17-2.82,0.25c-0.17,0.01-0.35,0.02-0.53,0c-0.31-0.04-0.49-0.24-0.51-0.55c-0.01-0.18-0.01-0.35-0.01-0.53
		c0.05-3.04,0.11-6.09,0.17-9.13c0,0,0,0-0.01,0c0.06-3.02,0.12-6.05,0.19-9.07c0.02-0.91-0.04-0.98-0.96-0.9
		c-0.66,0.06-1.33,0.12-1.99,0.2c-0.63,0.07-1.1-0.11-1.15-0.95c-0.14-2.27-0.32-4.54-0.49-6.81c-0.01-0.16-0.03-0.31-0.01-0.47
		c0.03-0.33,0.22-0.54,0.55-0.61c0.19-0.04,0.39-0.05,0.58-0.05c4.42-0.12,8.83-0.24,13.25-0.37c1.12-0.03,2.24-0.12,3.35-0.18
		c0.22-0.01,0.43-0.04,0.65-0.02c0.41,0.04,0.63,0.28,0.68,0.68c0.02,0.16,0.01,0.31,0.01,0.47
		C209.12,75.35,209.1,77.16,209.08,78.96z M231.11,78.96c-0.01,0.89-0.24,1.15-1.13,1.25c-0.92,0.1-1.84,0.18-2.75,0.28
		c-0.57,0.06-0.73,0.2-0.77,0.77c-0.06,0.8-0.09,1.61-0.13,2.41c-0.18,3.47-0.35,6.94-0.53,10.41c-0.1,2.02-0.22,4.04-0.33,6.06
		c-0.04,0.75-0.24,0.98-0.98,1.06c-1.43,0.14-2.85,0.27-4.28,0.4c-0.94,0.09-1.88,0.17-2.82,0.25c-0.17,0.01-0.35,0.02-0.53,0
		c-0.31-0.04-0.49-0.24-0.51-0.55c-0.01-0.18-0.01-0.35-0.01-0.53c0.05-3.04,0.11-6.09,0.17-9.13c0,0,0,0-0.01,0
		c0.06-3.02,0.12-6.05,0.19-9.07c0.02-0.91-0.04-0.98-0.96-0.9c-0.66,0.06-1.33,0.12-1.99,0.2c-0.63,0.07-1.1-0.11-1.15-0.95
		c-0.14-2.27-0.32-4.54-0.49-6.81c-0.01-0.16-0.03-0.31-0.01-0.47c0.03-0.33,0.22-0.54,0.55-0.61c0.19-0.04,0.39-0.05,0.59-0.05
		c4.42-0.12,8.83-0.24,13.25-0.37c1.12-0.03,2.24-0.12,3.35-0.18c0.22-0.01,0.43-0.04,0.65-0.02c0.41,0.04,0.63,0.28,0.68,0.68
		c0.02,0.16,0.01,0.31,0.01,0.47C231.15,75.35,231.13,77.16,231.11,78.96z M251.55,95.2c-0.09,1.25-0.2,2.49-0.3,3.74
		c-0.03,0.33-0.08,0.66-0.13,0.99c-0.07,0.45-0.34,0.68-0.79,0.72c-0.37,0.03-0.74,0.07-1.11,0.09c-2.47,0.17-4.95,0.35-7.42,0.52
		c-2.22,0.16-4.44,0.32-6.66,0.48c-0.12,0.01-0.23,0.02-0.35,0.02c-0.45-0.03-0.67-0.26-0.67-0.72c0-0.72,0.02-1.44,0.04-2.17
		c0.08-3.81,0.16-7.61,0.22-10.55c0.09-5.19,0.17-9.5,0.25-13.82c0-0.25,0.01-0.51,0.03-0.76c0.05-0.54,0.19-0.67,0.74-0.7
		c0.68-0.04,1.36-0.09,2.05-0.13c2.08-0.14,4.17-0.29,6.25-0.43c0.7-0.05,0.93,0.16,0.9,0.87c-0.09,2.09-0.2,4.17-0.3,6.26
		c-0.1,1.93-0.21,3.86-0.31,5.79c-0.12,2.18-0.23,4.37-0.34,6.55c-0.06,1.11-0.02,1.14,1.09,0.94c2.02-0.36,4.03-0.71,6.05-1.07
		c0.69-0.12,0.94,0.07,0.92,0.8C251.67,93.49,251.61,94.34,251.55,95.2z M273.18,101.56c-1.99,0.04-3.99,0.07-5.98,0.11
		c-3.69,0.06-7.37,0.12-11.06,0.18c-0.91,0.01-1.16-0.23-1.18-1.16c-0.05-3.61-0.1-7.21-0.14-10.82c-0.01-0.68-0.15-10.48-0.2-14.71
		c0-0.12,0-0.24,0-0.36c0.04-0.82,0.5-1.34,1.33-1.42c0.87-0.08,1.75-0.11,2.62-0.17c2.33-0.14,4.65-0.27,6.98-0.41
		c2.31-0.14,4.61-0.28,6.92-0.42c0.08,0,0.16-0.01,0.24-0.01c0.59,0.01,0.91,0.29,0.91,0.87c0.02,2.23,0.03,4.46,0.03,6.7
		c0,0.57-0.25,0.79-0.87,0.82c-2.05,0.11-4.1,0.21-6.15,0.31c-0.26,0.01-0.52,0.02-0.77,0.07c-0.59,0.12-0.81,0.38-0.84,0.99
		c-0.01,0.32-0.01,0.64,0,0.96c0.03,0.54,0.2,0.72,0.74,0.71c0.58-0.01,1.15-0.07,1.73-0.11c1.09-0.08,2.19-0.16,3.28-0.23
		c0.77-0.05,1.04,0.22,1.06,1.01c0.03,1.18,0.06,2.35,0.08,3.53c0.02,0.88-0.31,1.21-1.21,1.25c-1.53,0.07-3.06,0.15-4.6,0.24
		c-0.45,0.02-0.71,0.2-0.73,0.63c-0.04,0.81-0.04,1.63,0,2.44c0.02,0.4,0.21,0.53,0.66,0.51c1.33-0.05,2.67-0.11,4-0.18
		c0.9-0.05,1.79-0.11,2.69-0.16c0.08,0,0.16-0.01,0.24,0c0.89,0.02,1.01,0.15,1.06,1.05c0.1,2.09,0.2,4.18,0.3,6.27
		c0,0.1,0.01,0.2,0.01,0.3C274.36,101.21,274.04,101.55,273.18,101.56z"/>
	<path d="M200.18,349.98c0.13-0.49,0.26-0.98,0.38-1.47c0.71-2.9,1.61-5.73,2.88-8.43c0.39-0.83,0.82-1.65,1.32-2.42
		c0.45-0.69,0.97-1.36,1.56-1.93c1.65-1.6,3.66-2.19,5.92-1.77c1.74,0.32,3.01,1.34,3.89,2.86c0.69,1.19,1.07,2.5,1.25,3.85
		c0.23,1.73,0.38,3.48,0.52,5.22c0.12,1.53,0.16,3.06,0.28,4.59c0.06,0.74,0.21,1.47,0.31,2.16c0.29,0.08,0.41-0.01,0.47-0.2
		c0.57-2.11,1.15-4.22,1.68-6.34c0.09-0.36-0.03-0.77-0.09-1.15c-0.27-1.73-0.59-3.45-0.82-5.18c-0.37-2.7-0.31-5.42-0.23-8.13
		c0.01-0.31,0.02-0.61,0.04-0.92c0.02-0.33-0.07-0.6-0.32-0.82c-0.13-0.12-0.24-0.26-0.36-0.39c-2.39-2.63-3.6-5.76-3.87-9.27
		c-0.21-2.61,0.06-5.16,1.05-7.61c0.5-1.23,1.12-2.38,1.97-3.4c2.83-3.4,6.4-4.57,10.69-3.51c2.8,0.69,5.12,2.23,7.1,4.29
		c1.47,1.52,2.65,3.26,3.63,5.13c1.89,3.6,3.07,7.43,3.71,11.44c0.07,0.43,0.16,0.85,0.26,1.37c0.26-0.09,0.47-0.13,0.64-0.22
		c1.02-0.6,2.02-1.23,3.04-1.83c0.46-0.27,0.68-0.62,0.73-1.16c0.09-1.05,0.22-2.09,0.34-3.19c-0.27-0.35-0.58-0.71-0.87-1.09
		c-3.81-5.07-4.88-10.65-3.08-16.75c0.4-1.35,1.02-2.62,1.9-3.72c1.96-2.46,4.47-3.88,7.69-3.86c1.33,0.01,2.59,0.39,3.79,0.95
		c2.6,1.22,4.66,3.08,6.31,5.41c1.53,2.16,2.58,4.57,3.4,7.08c1.02,3.13,1.68,6.34,2.11,9.6c0.02,0.17,0.06,0.34,0.1,0.6
		c0.22-0.05,0.44-0.05,0.6-0.15c0.38-0.22,0.73-0.48,1.11-0.73c0-0.43,0-0.82,0-1.21c-0.01-3.85,0.03-7.71,0.33-11.55
		c0.47-6.08,1.28-12.1,2.86-18c0.83-3.11,2.13-6.02,3.96-8.68c0.85-1.24,1.85-2.33,3.1-3.18c1.33-0.91,2.79-1.49,4.39-1.59
		c2.16-0.14,4.06,0.55,5.59,2.1c1.39,1.41,2.22,3.13,2.68,5.04c0.57,2.38,0.49,4.78,0.11,7.17c-0.72,4.56-2.49,8.74-4.74,12.73
		c-2.46,4.36-5.33,8.44-8.73,12.12c-0.48,0.52-0.68,1.06-0.68,1.76c-0.03,4.34,0.09,8.67,0.54,12.99c0.36,3.44,0.76,6.87,1.41,10.27
		c0.51,2.67,1.12,5.31,2.09,7.86c0.41,1.06,0.92,2.08,1.42,3.1c0.25,0.5,0.58,0.98,1.2,1.28c0.21-0.16,0.48-0.3,0.67-0.52
		c0.65-0.73,1.06-1.6,1.43-2.5c0.68-1.67,1.02-3.44,1.31-5.21c0.74-4.5,1.06-9.04,1.32-13.59c0.04-0.7,0.11-1.4,0.28-2.07
		c0.2-0.81,0.99-1.28,1.81-1.2c0.43,0.04,0.76,0.24,0.87,0.68c0.09,0.34,0.15,0.69,0.16,1.03c0.03,0.74,0.04,1.49,0.01,2.23
		c-0.18,4.51-0.48,9.01-1.3,13.45c-0.28,1.55-0.65,3.08-1.07,4.6c-0.41,1.49-1.1,2.85-2.06,4.08c-0.68,0.87-1.46,1.63-2.42,2.18
		c-1.77,1.01-3.57,1.07-5.4,0.18c-0.8-0.39-1.48-0.93-2.12-1.54c-1.43-1.38-2.57-2.98-3.48-4.74c-1.52-2.93-2.61-6.02-3.4-9.22
		c-1.04-4.22-1.64-8.51-1.89-12.84c-0.07-1.18-0.15-2.36-0.23-3.54c-0.01-0.12-0.07-0.23-0.12-0.41c-0.51,0.09-0.9,0.35-1.32,0.66
		c-0.01,0.23-0.05,0.49-0.03,0.75c0.23,3.46,0.19,6.91,0,10.37c-0.19,3.63-0.59,7.24-1.16,10.83c-0.38,2.38-0.8,4.75-1.56,7.04
		c-0.29,0.87-0.65,1.72-1.03,2.55c-0.19,0.44-0.45,0.85-0.73,1.24c-1.82,2.54-4.78,3.25-7.55,1.82c-1.26-0.65-2.31-1.57-3.26-2.62
		c-1.57-1.74-2.76-3.73-3.72-5.85c-1.17-2.57-1.91-5.26-2.37-8.03c-0.59-3.59-0.87-7.21-0.86-10.86c0-0.33,0.09-0.69-0.11-1
		c-0.78,0.22-2.62,1.28-3.77,2.16c0,0.27-0.01,0.57,0,0.88c0.13,4.61-0.17,9.19-0.81,13.75c-0.34,2.38-0.79,4.75-1.53,7.05
		c-0.38,1.17-0.84,2.3-1.46,3.37c-0.53,0.92-1.17,1.75-2.01,2.4c-2.01,1.58-4.23,2.01-6.66,1.13c-1.17-0.42-2.2-1.07-3.15-1.86
		c-1.95-1.61-3.48-3.56-4.73-5.75c-0.21-0.37-0.32-0.81-0.8-1.13c-0.14,0.43-0.26,0.78-0.37,1.14c-0.25,0.79-0.48,1.59-0.76,2.37
		c-0.16,0.45-0.36,0.9-0.63,1.29c-1.12,1.69-3.17,2.19-4.97,1.25c-0.91-0.48-1.61-1.2-2.23-2c-1.21-1.58-2.1-3.32-2.76-5.2
		c-0.68-1.96-1-3.99-1.28-6.03c-0.18-1.3-0.36-2.6-0.55-3.9c-0.02-0.16-0.09-0.32-0.13-0.44c-0.35-0.13-0.48,0.09-0.58,0.26
		c-0.57,0.98-1.18,1.95-1.65,2.98c-1.36,2.97-2.14,6.11-2.61,9.32c-0.48,3.26-0.6,6.54-0.52,9.83c0.01,0.48-0.02,0.97,0.02,1.44
		c0.15,1.76-1.13,3.12-2.67,3.63c-1.32,0.44-2.53,0.2-3.49-0.83c-0.5-0.54-0.96-1.14-1.37-1.75c-1.89-2.83-3.18-5.94-4.03-9.22
		c-0.41-1.57-0.72-3.16-1.08-4.73c-0.06-0.24-0.14-0.48-0.23-0.8c-0.28,0.11-0.47,0.18-0.66,0.26c-4.91,2.31-9.54,1.7-13.87-1.42
		c-3.37-2.43-5.66-5.69-7.06-9.58c-1.21-3.35-1.98-6.8-2.39-10.34c-0.23-2.01-0.28-4.02-0.31-6.03c-0.01-0.34-0.03-0.67-0.05-1.01
		c-0.17,0-0.29-0.04-0.33,0.01c-1.36,1.23-2.71,2.47-4.11,3.75c0.2,0.45,0.37,0.85,0.56,1.23c1.77,3.58,3.2,7.29,4.14,11.18
		c0.74,3.08,1.12,6.2,0.93,9.37c-0.1,1.67-0.35,3.31-0.89,4.9c-1.96,5.75-6.01,9.22-11.86,10.6c-3.42,0.8-6.79,0.49-9.99-1.05
		c-1.31-0.63-2.49-1.46-3.52-2.49c-1.98-1.97-3.03-4.36-3.2-7.14c-0.15-2.37,0.34-4.61,1.25-6.78c0.91-2.16,2.19-4.09,3.66-5.89
		c1.86-2.28,3.96-4.33,6.14-6.3c1.1-1,2.23-1.98,3.34-2.96c0.33-0.29,0.65-0.57,1.02-0.9c-0.26-0.51-0.46-0.94-0.69-1.35
		c-2.05-3.57-4.1-7.13-6.17-10.69c-1.81-3.1-3.69-6.16-5.44-9.29c-2.08-3.71-3.83-7.58-5.02-11.68c-0.8-2.75-1.28-5.54-1.17-8.42
		c0.15-3.76,1.37-7.12,3.85-9.97c2.55-2.93,5.79-4.32,9.67-4.11c2.22,0.12,4.29,0.82,6.21,1.94c3.8,2.2,6.32,5.46,7.83,9.55
		c1.66,4.49,1.76,9.07,0.7,13.7c-0.15,0.64-0.37,1.26-0.62,1.87c-0.31,0.74-1.12,1.03-1.86,0.7c-0.35-0.15-0.56-0.43-0.56-0.82
		c-0.01-0.44,0.01-0.88,0.05-1.31c0.11-1.18,0.25-2.35,0.35-3.53c0.35-4.1-0.35-8.03-2.04-11.77c-0.78-1.73-1.83-3.29-3.22-4.6
		c-1-0.94-2.12-1.7-3.41-2.17c-0.49-0.18-1-0.35-1.51-0.42c-2-0.29-3.61,0.4-4.82,2.01c-0.97,1.29-1.47,2.77-1.71,4.35
		c-0.6,4.03-0.12,7.94,1.2,11.77c1.1,3.2,2.54,6.24,4.22,9.17c1.17,2.05,2.42,4.06,3.63,6.09c2.34,3.91,4.67,7.82,7.01,11.72
		c0.15,0.26,0.32,0.51,0.53,0.84c0.25-0.19,0.45-0.33,0.64-0.49c1.54-1.37,3.05-2.76,4.63-4.09c0.63-0.53,0.9-1.12,0.96-1.91
		c0.16-2.23,0.54-4.43,1.1-6.6c0.77-2.96,2.1-5.65,4.03-8.04c0.72-0.89,1.55-1.67,2.53-2.28c3.99-2.52,8.59-1.18,10.81,2.34
		c0.42,0.66,0.79,1.37,1.04,2.11c0.92,2.69,1.24,5.45,0.79,8.28c-0.06,0.38-0.15,0.78-0.33,1.13c-0.13,0.25-0.38,0.49-0.63,0.63
		c-0.72,0.39-1.45,0.07-1.61-0.74c-0.16-0.81-0.24-1.65-0.34-2.47c-0.18-1.48-0.37-2.96-0.83-4.38c-0.29-0.91-0.66-1.81-1.12-2.65
		c-0.33-0.6-0.81-1.15-1.32-1.61c-0.93-0.85-1.59-0.75-2.27,0.27c-0.31,0.47-0.6,0.98-0.78,1.51c-0.38,1.12-0.79,2.24-0.98,3.4
		c-0.9,5.27-1.5,10.57-1.39,15.94c0.08,4.06,0.72,8.02,1.95,11.88c0.62,1.96,1.3,3.9,2.19,5.77c0.75,1.59,1.65,3.09,2.89,4.35
		c0.84,0.86,1.82,1.5,2.98,1.84c1.75,0.52,3.27,0.1,4.66-1.08c-0.08-0.66-0.14-1.31-0.23-1.96c-0.51-3.69-0.8-7.4-0.89-11.12
		c-0.13-5.67,0.22-11.29,1.45-16.84c0.58-2.62,1.43-5.14,2.86-7.44c0.96-1.53,2.05-2.95,3.48-4.08c1.08-0.86,2.26-1.48,3.63-1.75
		c2.3-0.46,4.24,0.18,5.81,1.92c0.83,0.92,1.4,2.01,1.82,3.17c0.61,1.66,0.85,3.39,0.87,5.15c0.04,2.83-0.46,5.58-1.23,8.29
		c-1.94,6.82-4.69,13.28-8.5,19.27c-0.46,0.72-0.59,1.38-0.44,2.21c0.43,2.28,0.78,4.57,1.17,6.86
		C199.82,349.64,199.82,349.89,200.18,349.98z M154.77,332.04c-0.17,0.1-0.29,0.15-0.38,0.24c-2.49,2.46-5.04,4.86-7.33,7.52
		c-1.46,1.7-2.73,3.53-3.59,5.61c-0.66,1.59-1.07,3.24-0.99,4.98c0.12,2.63,1.22,4.71,3.44,6.16c2.3,1.5,4.8,1.79,7.42,1.08
		c2.07-0.55,3.6-1.76,4.4-3.78c0.3-0.77,0.59-1.55,0.8-2.35c0.65-2.46,0.53-4.95,0.16-7.43c-0.59-3.96-1.86-7.73-3.51-11.37
		C155.07,332.47,154.91,332.27,154.77,332.04z M256.59,322.43c3.28,1.01,6.29,0.4,9.31-0.74c0.01-0.27,0.05-0.49,0.03-0.7
		c-0.35-3.71-0.98-7.37-2.1-10.93c-0.65-2.09-1.44-4.13-2.58-6.01c-0.89-1.47-1.98-2.78-3.34-3.84c-0.87-0.68-1.8-1.23-2.86-1.56
		c-1.44-0.45-2.76-0.25-3.97,0.65c-1.08,0.8-1.86,1.85-2.38,3.08c-0.65,1.54-1.02,3.16-1.1,4.83c-0.15,3.1,0.66,5.97,2.07,8.7
		c0.11,0.21,0.28,0.4,0.43,0.61c0.37-0.3,0.67-0.55,0.98-0.78c0.73-0.53,1.54-0.82,2.44-0.85c1.29-0.04,2.28,0.6,2.78,1.8
		c0.13,0.32,0.22,0.66,0.29,1c0.22,1.08,0.17,2.18,0.1,3.27C256.65,321.39,256.63,321.82,256.59,322.43z M228.39,330.68
		c2.4,1.24,8.11,0.87,11.01-0.71c0-0.28,0.04-0.58-0.01-0.88c-0.34-2.03-0.62-4.07-1.08-6.07c-0.71-3.13-1.89-6.1-3.58-8.84
		c-1.02-1.65-2.21-3.15-3.75-4.35c-1.05-0.82-2.19-1.44-3.49-1.76c-1.67-0.42-3.2-0.17-4.6,0.88c-1.18,0.9-2.04,2.04-2.62,3.39
		c-1.57,3.7-1.52,7.4,0.01,11.1c0.05,0.13,0.21,0.22,0.33,0.35c0.35-0.7,0.62-1.35,0.98-1.94c0.73-1.23,1.83-1.98,3.24-2.25
		c1.99-0.37,3.58,0.74,3.89,2.74c0.08,0.52,0.13,1.05,0.1,1.57c-0.07,1.22-0.19,2.44-0.3,3.66
		C228.45,328.61,228.33,329.65,228.39,330.68z M262.47,353.24c0.56-0.83,0.86-1.75,1.15-2.66c1.17-3.64,1.75-7.41,2.11-11.2
		c0.19-2,0.35-4.02,0.4-6.03c0.08-2.67,0.05-5.34,0.05-8.01c0-0.28,0.09-0.63-0.31-0.84c-0.13,0.03-0.3,0.06-0.46,0.12
		c-2.68,0.92-5.43,1.35-8.27,1.17c-0.24-0.02-0.49,0.05-0.69,0.07c-0.07,0.18-0.12,0.26-0.13,0.34c-0.02,0.22-0.03,0.44-0.04,0.65
		c-0.17,5.14,0.25,10.23,1.38,15.26c0.57,2.52,1.18,5.03,2.24,7.4c0.41,0.92,0.91,1.79,1.42,2.66
		C261.6,352.61,261.92,353.03,262.47,353.24z M228.31,334.39c-0.04,1.47,0.07,2.72,0.21,3.97c0.35,3.09,1.1,6.11,2.02,9.08
		c0.58,1.88,1.28,3.73,2.34,5.4c0.44,0.7,0.96,1.35,1.5,1.98c0.31,0.35,0.68,0.7,1.26,0.67c0.54-0.38,0.8-1,1.09-1.58
		c0.63-1.26,1.04-2.6,1.39-3.95c1.4-5.38,1.82-10.86,1.59-16.4c0-0.12-0.08-0.23-0.17-0.46
		C235.95,334.44,232.24,334.77,228.31,334.39z M287.34,278.52c-0.17,0.14-0.33,0.23-0.43,0.36c-0.24,0.31-0.48,0.63-0.68,0.96
		c-0.68,1.13-1.19,2.34-1.6,3.59c-1,3-1.72,6.06-2.32,9.15c-0.65,3.31-1.14,6.64-1.5,9.99c-0.24,2.26-0.38,4.54-0.54,6.81
		c-0.02,0.23-0.15,0.52,0.24,0.71c0.19-0.21,0.41-0.41,0.59-0.64c1.68-2.13,3.26-4.34,4.62-6.69c1.57-2.69,2.92-5.48,3.82-8.48
		c0.91-3.04,1.4-6.14,1.2-9.33c-0.09-1.41-0.4-2.77-1.05-4.04C289.15,279.88,288.45,279.01,287.34,278.52z M198.14,334.72
		c0.13-0.21,0.28-0.41,0.39-0.63c2.27-4.31,4.11-8.8,5.42-13.49c0.72-2.58,1.2-5.2,1.11-7.9c-0.04-1.19-0.21-2.35-0.59-3.48
		c-0.32-0.96-0.75-1.87-1.48-2.6c-0.2-0.2-0.47-0.32-0.78-0.53c-0.32,0.52-0.66,0.93-0.86,1.41c-0.41,0.96-0.84,1.94-1.08,2.95
		c-0.58,2.42-1.09,4.86-1.55,7.31c-0.6,3.19-0.82,6.42-0.95,9.66C197.69,329.83,197.7,332.23,198.14,334.72z"/>
	<g>
		<g>
			<path d="M224.06,284.92c-0.04,1.13-0.08,2.78-0.17,4.43c-0.05,0.79-0.2,1.58-0.33,2.37c-0.04,0.23-0.12,0.45-0.2,0.66
				c-0.4,1.13-1.37,1.97-2.55,2.21c-1.2,0.24-2.38,0.17-3.54-0.19c-0.71-0.22-1.15-0.67-1.21-1.43c-0.02-0.28-0.04-0.57-0.05-0.85
				c-0.03-0.64-0.04-1.28-0.08-1.92c-0.01-0.2-0.05-0.4-0.1-0.59c-0.06-0.23-0.21-0.41-0.43-0.5c-0.46-0.2-0.92-0.16-1.38-0.01
				c-0.19,0.06-0.26,0.22-0.28,0.4c-0.03,0.28-0.03,0.57-0.05,0.85c-0.05,0.68-0.1,1.37-0.16,2.05c-0.02,0.18-0.08,0.36-0.14,0.54
				c-0.29,0.93-0.94,1.42-1.91,1.53c-0.69,0.08-1.37,0.05-2.04-0.1c-0.93-0.21-1.58-0.76-1.92-1.66c-0.35-0.93-0.53-1.9-0.68-2.87
				c-0.38-2.43-0.63-4.87-0.79-7.32c-0.13-1.91-0.18-3.82-0.24-5.73c-0.03-0.8,0.06-1.6,0.24-2.38c0.04-0.18,0.1-0.36,0.17-0.53
				c0.19-0.47,0.6-0.82,1.1-0.93c0.33-0.07,0.67-0.14,1-0.15c1.07-0.03,2.14-0.04,3.2,0.14c0.42,0.07,0.83,0.21,1.24,0.33
				c0.63,0.19,0.95,0.66,1.09,1.27c0.07,0.3,0.1,0.62,0.1,0.93c0.01,1.1,0,2.2,0.01,3.3c0,0.28,0.02,0.57,0.08,0.85
				c0.1,0.51,0.43,0.79,0.91,0.82c0.47,0.03,0.84-0.21,0.99-0.71c0.08-0.26,0.13-0.53,0.14-0.8c0.02-0.8,0.02-1.6,0.03-2.4
				c0.01-0.54,0.02-1.09,0.06-1.62c0.08-1,0.58-1.55,1.55-1.79c0.85-0.21,1.7-0.14,2.55-0.06c0.28,0.03,0.56,0.09,0.85,0.13
				c0.81,0.11,1.34,0.59,1.67,1.31c0.12,0.27,0.22,0.56,0.3,0.85c0.46,1.77,0.72,3.58,0.79,5.41
				C223.95,281.96,224,283.18,224.06,284.92z"/>
			<path d="M226.06,280.13c0.04-0.97,0.07-2.01,0.14-3.04c0.02-0.36,0.11-0.72,0.21-1.07c0.33-1.17,1.06-1.99,2.19-2.47
				c1.15-0.48,2.35-0.7,3.58-0.79c2.36-0.19,4.7-0.04,7.03,0.35c0.73,0.12,1.46,0.29,2.15,0.6c1.02,0.47,1.59,1.26,1.72,2.37
				c0.13,1.08,0.19,2.16-0.02,3.23c-0.07,0.34-0.18,0.68-0.31,1c-0.21,0.49-0.6,0.81-1.13,0.86c-0.59,0.06-1.2,0.09-1.79,0.05
				c-1.02-0.06-2.04-0.18-3.06-0.26c-0.45-0.03-0.91-0.05-1.36-0.02c-0.6,0.05-0.89,0.48-0.8,1.08c0.06,0.36,0.24,0.55,0.62,0.56
				c0.36,0.01,0.73-0.03,1.09-0.05c0.44-0.02,0.87-0.06,1.31-0.06c0.44-0.01,0.71,0.24,0.84,0.64c0.22,0.66,0.28,1.34,0.18,2.03
				c-0.09,0.59-0.38,0.9-0.97,0.96c-0.62,0.06-1.25,0.05-1.88,0.07c-0.17,0.01-0.35,0.01-0.52,0.06c-0.24,0.07-0.32,0.22-0.3,0.47
				c0.03,0.39,0.33,0.69,0.77,0.69c0.42,0,0.84-0.07,1.27-0.1c1.15-0.1,2.3-0.22,3.45-0.3c0.42-0.03,0.85,0.01,1.27,0.06
				c1.12,0.13,1.84,0.81,2.03,1.91c0.17,0.96,0.13,1.92-0.11,2.87c-0.25,0.98-0.83,1.68-1.78,2.08c-0.81,0.34-1.65,0.5-2.51,0.59
				c-1.26,0.14-2.53,0.26-3.8,0.31c-1.62,0.06-3.24-0.04-4.84-0.38c-0.28-0.06-0.56-0.17-0.83-0.26c-0.75-0.27-1.29-0.77-1.67-1.47
				c-0.44-0.8-0.73-1.66-0.93-2.54c-0.44-1.87-0.74-3.76-0.9-5.67C226.25,283.06,226.16,281.63,226.06,280.13z"/>
			<path d="M192.6,272.74c1.8,0.12,3.91,0.25,6.01,0.42c0.93,0.07,1.86,0.15,2.75,0.42c0.11,0.03,0.23,0.06,0.34,0.1
				c0.92,0.3,1.44,0.93,1.58,1.89c0.15,1.05,0.11,2.09-0.1,3.13c-0.06,0.3-0.17,0.6-0.31,0.87c-0.36,0.69-0.94,1.05-1.73,1.02
				c-0.58-0.02-1.15-0.09-1.72-0.11c-1.25-0.05-1.41,0.17-1.62,1.36c-0.27,1.55-0.2,3.12-0.14,4.69c0.05,1.54,0.11,3.07,0.13,4.61
				c0.01,0.6-0.07,1.21-0.19,1.8c-0.07,0.35-0.25,0.69-0.42,1.02c-0.25,0.48-0.68,0.74-1.21,0.8c-0.69,0.08-1.38,0.08-2.07-0.06
				c-0.77-0.16-1.3-0.58-1.42-1.38c-0.11-0.73-0.22-1.46-0.25-2.2c-0.05-1-0.01-2.01-0.03-3.01c-0.02-1.63-0.09-3.25-0.35-4.86
				c-0.05-0.33-0.12-0.67-0.22-0.99c-0.27-0.86-0.82-1.44-1.73-1.58c-0.58-0.09-1.18-0.1-1.76-0.17c-0.33-0.04-0.67-0.1-0.99-0.2
				c-0.72-0.23-1.16-0.74-1.33-1.47c-0.17-0.71-0.21-1.44-0.16-2.16c0.05-0.76,0.12-1.53,0.26-2.29c0.22-1.17,0.62-1.51,1.8-1.65
				c0.32-0.04,0.65-0.05,0.97-0.04C189.89,272.71,191.09,272.73,192.6,272.74z"/>
		</g>
		<g>
			<circle cx="175.98" cy="280.68" r="4"/>
			<circle cx="253.91" cy="280.68" r="4"/>
		</g>
	</g>
</g>
</svg>
