<?xml version="1.0" encoding="utf-8"?>
<!-- Generator: Adobe Illustrator 25.2.1, SVG Export Plug-In . SVG Version: 6.00 Build 0)  -->
<svg version="1.1" id="Calque_1" xmlns="http://www.w3.org/2000/svg" xmlns:xlink="http://www.w3.org/1999/xlink" x="0px" y="0px"
	 viewBox="0 0 432 432" style="enable-background:new 0 0 432 432;" xml:space="preserve">
<style type="text/css">
	.st0{fill:#E0AAAF;}
	.st1{fill:#F9D53D;}
	.st2{fill:#FBB03B;}
	.st3{fill:#CCCCCC;}
	.st4{fill:#8CC63F;}
	.st5{fill:#C5D8A7;}
	.st6{fill:#C44750;}
	.st7{fill:#998675;}
	.st8{fill:#C7B299;}
	.st9{fill:none;}
	.st10{fill:#29ABE2;}
	.st11{fill:#B3B3B3;}
	.st12{fill:#C79C52;}
	.st13{fill:#65C8D0;}
	.st14{fill:#BA9BC9;}
	.st15{fill:#A57A7F;}
	.st16{fill:#FFFFFF;}
</style>
<g>
	<g>
		<path class="st3" d="M196.69,70.45c-0.37-0.83-0.71-1.57-1.04-2.31c-0.12-0.26-0.23-0.53-0.3-0.81c-0.23-0.94,0.22-1.89,1.08-2.31
			c0.85-0.42,1.89-0.2,2.5,0.56c0.18,0.22,0.31,0.49,0.44,0.75c0.32,0.67,0.61,1.34,0.92,2.01c0.1,0.21,0.21,0.42,0.33,0.66
			c0.22-0.05,0.43-0.08,0.62-0.13c1.57-0.44,3.16-0.81,4.77-1.08c0.49-0.08,0.94-0.03,1.38,0.17c0.77,0.37,1.21,1.12,1.15,1.99
			c-0.05,0.83-0.6,1.55-1.41,1.82c-0.25,0.08-0.51,0.13-0.77,0.17c-6.05,1.06-11.52,3.46-16.36,7.24
			c-6.73,5.24-11.15,12.03-13.41,20.24c-0.92,3.34-1.37,6.76-1.35,10.22c0.08,9.65,3.15,18.24,9.31,25.67
			c5.16,6.23,11.67,10.47,19.46,12.72c3.69,1.07,7.47,1.55,11.31,1.44c6.61-0.18,12.76-1.97,18.43-5.38
			c0.27-0.16,0.55-0.32,0.84-0.43c0.91-0.34,1.9,0,2.42,0.81c0.5,0.77,0.43,1.8-0.21,2.48c-0.23,0.25-0.52,0.45-0.8,0.63
			c-1.39,0.86-2.83,1.62-4.32,2.3c-0.24,0.11-0.47,0.22-0.75,0.36c0.03,0.16,0.05,0.31,0.1,0.45c0.32,0.83,0.67,1.66,0.98,2.5
			c0.12,0.32,0.21,0.66,0.23,0.99c0.05,0.93-0.49,1.71-1.35,2.01c-0.88,0.31-1.83,0.02-2.37-0.76c-0.16-0.23-0.28-0.51-0.39-0.77
			c-0.32-0.78-0.62-1.57-0.93-2.35c-0.07-0.17-0.15-0.33-0.24-0.54c-0.13,0.02-0.26,0.02-0.38,0.05c-2.04,0.62-4.12,1.09-6.23,1.39
			c-0.65,0.09-1.29,0.27-1.93,0.42c-0.1,0.02-0.21,0.04-0.31,0.08c-0.87,0.29-1.2,0.7-1.23,1.61c-0.04,1.19,0.03,2.37,0.21,3.54
			c0.16,1.05,0.71,1.85,1.62,2.41c0.88,0.54,1.78,1.02,2.74,1.39c1.23,0.46,2.46,0.92,3.69,1.4c1.51,0.58,2.9,1.37,4.17,2.37
			c0.85,0.66,1.7,1.33,2.56,1.98c0.93,0.71,1.92,1.3,3.06,1.58c0.48,0.12,0.98,0.21,1.47,0.28c1.49,0.21,2.98,0.34,4.49,0.3
			c0.23-0.01,0.48,0.02,0.7,0.07c0.97,0.25,1.59,1.04,1.59,2c0,0.95-0.64,1.79-1.59,2.01c-0.38,0.09-0.78,0.11-1.17,0.11
			c-3.92,0.01-7.85,0-11.77,0c-13.8-0.01-27.59-0.03-41.39-0.04c-0.34,0-0.69,0-1.03-0.03c-1.12-0.1-1.91-0.94-1.92-2.03
			c-0.01-1.11,0.8-1.99,1.94-2.1c0.1-0.01,0.21-0.01,0.32-0.01c1.51,0.05,2.99-0.13,4.49-0.29c1.64-0.18,3.1-0.77,4.41-1.76
			c0.73-0.56,1.46-1.12,2.18-1.7c1.74-1.41,3.68-2.44,5.77-3.19c0.87-0.31,1.73-0.63,2.59-0.95c0.97-0.36,1.87-0.84,2.74-1.38
			c0.99-0.61,1.52-1.48,1.67-2.63c0.14-1.13,0.21-2.25-0.01-3.38c-0.04-0.23-0.1-0.46-0.18-0.69c-0.16-0.44-0.45-0.76-0.87-0.97
			c-0.62-0.31-1.29-0.45-1.96-0.57c-9.67-1.69-17.84-6.16-24.51-13.33c-5.73-6.16-9.36-13.43-10.99-21.69
			c-0.63-3.19-0.92-6.41-0.79-9.66c0.44-10.94,4.3-20.46,11.85-28.42c3.7-3.9,8.05-6.92,12.96-9.12
			C196.16,70.71,196.39,70.59,196.69,70.45z"/>
		<g>
			<g>
				<path class="st10" d="M240.06,132.76c-3.77,4.35-8.35,7.64-13.75,9.83c-4.12,1.67-9.76,2.58-11.69,2.31
					c-0.02-0.29,0.06-0.56,0.13-0.84c0.3-1.15,0.73-2.25,1.35-3.27c0.15-0.25,0.29-0.5,0.45-0.75c0.84-1.32,1.25-2.77,1.27-4.34
					c0-0.39,0.04-0.79,0.08-1.18c0.1-0.98,0.41-1.9,0.8-2.8c0.29-0.68,0.63-1.33,0.91-2.01c0.17-0.41,0.33-0.83,0.44-1.26
					c0.2-0.79,0-1.51-0.47-2.16c-0.39-0.55-0.9-0.95-1.5-1.25c-0.67-0.33-1.37-0.55-2.11-0.63c-1.23-0.13-2.46-0.24-3.7-0.29
					c-1.44-0.06-2.81-0.36-4.14-0.92c-0.46-0.2-0.93-0.37-1.4-0.55c-1.38-0.52-2.78-0.53-4.18-0.06c-0.67,0.23-1.33,0.51-1.99,0.77
					c-0.56,0.22-1.12,0.46-1.68,0.68c-1.15,0.43-2.31,0.47-3.49,0.12c-0.76-0.22-1.52-0.43-2.29-0.61c-0.46-0.11-0.94-0.13-1.4-0.22
					c-0.49-0.09-0.68-0.3-0.72-0.8c-0.05-0.58,0.1-1.11,0.51-1.52c0.26-0.26,0.55-0.49,0.86-0.69c0.4-0.25,0.83-0.45,1.24-0.68
					c0.43-0.25,0.88-0.48,1.29-0.76c1.01-0.66,1.55-1.62,1.74-2.79c0.1-0.63,0.13-1.25,0.08-1.89c-0.03-0.44-0.04-0.9-0.01-1.34
					c0.07-0.94,0.45-1.78,0.97-2.55c0.38-0.56,0.82-1.1,1.23-1.64c0.27-0.36,0.54-0.71,0.79-1.09c0.36-0.56,0.58-1.17,0.62-1.85
					c0.05-0.74-0.15-1.41-0.62-1.99c-0.18-0.22-0.38-0.44-0.6-0.62c-0.78-0.63-1.63-1.16-2.53-1.6c-0.56-0.28-1.15-0.35-1.77-0.18
					c-0.3,0.08-0.61,0.18-0.91,0.25c-0.53,0.13-0.94-0.12-1.02-0.67c-0.04-0.25-0.02-0.53,0.04-0.78c0.08-0.36,0.21-0.71,0.34-1.05
					c0.38-1,0.42-2,0.1-3.02c-0.23-0.73-0.48-1.45-0.75-2.16c-0.39-1.06-1.28-1.6-2.59-1.49c-0.91,0.08-1.72,0.48-2.45,1.01
					c-0.38,0.28-0.75,0.59-1.14,0.85c-0.28,0.19-0.59,0.34-0.9,0.47c-0.42,0.18-0.83,0.1-1.19-0.18c-0.29-0.23-0.56-0.47-0.83-0.69
					c0.63-2.12,4.96-7.94,7.13-9.6c0.32,0.2,0.64,0.44,0.99,0.61c0.57,0.28,1.19,0.41,1.82,0.5c0.39,0.05,0.78,0.11,1.17,0.16
					c0.49,0.07,0.89,0.29,1.16,0.73c0.53,0.88,1.28,1.52,2.15,2.05c0.99,0.6,1.76,1.41,2.35,2.4c0.2,0.34,0.4,0.68,0.63,1
					c0.24,0.34,0.49,0.68,0.78,0.99c1.78,1.9,4.49,1.02,5.39-0.91c0.27-0.58,0.39-1.2,0.47-1.83c0.09-0.65,0.17-1.3,0.29-1.95
					c0.16-0.89,0.53-1.7,1.08-2.43c0.27-0.36,0.53-0.72,0.79-1.08c0.69-0.98,1.05-2.05,1.01-3.26c-0.02-0.63-0.02-1.26-0.03-1.9
					c-0.01-0.51,0.07-1,0.29-1.46c0.47-1.03,0.89-2.07,1.01-3.18c2.69-0.47,8.65,0.09,10.77,0.91c0.04,0.21-0.08,0.39-0.15,0.58
					c-0.32,0.87-0.37,1.75-0.04,2.62c0.3,0.78,0.26,1.54-0.07,2.3c-0.25,0.58-0.43,1.19-0.51,1.82c-0.1,0.7-0.01,1.37,0.28,2.01
					c0.45,0.97,1.22,1.48,2.29,1.55c0.59,0.03,1.16-0.07,1.72-0.22c0.42-0.11,0.79-0.06,1.13,0.16c0.4,0.25,0.79,0.52,1.16,0.81
					c0.19,0.14,0.36,0.31,0.4,0.57c-0.09,0.3-0.33,0.47-0.6,0.58c-0.27,0.1-0.55,0.18-0.82,0.28c-0.32,0.12-0.65,0.22-0.96,0.36
					c-0.67,0.31-1.17,0.8-1.49,1.47c-0.17,0.36-0.32,0.72-0.44,1.1c-0.27,0.84-0.77,1.47-1.48,1.99c-0.51,0.37-0.99,0.78-1.44,1.22
					c-0.64,0.62-1.04,1.39-1.19,2.27c-0.14,0.84,0.03,1.62,0.54,2.32c0.66,0.9,1.67,1.21,2.73,0.88c0.43-0.14,0.82-0.36,1.17-0.64
					c0.47-0.38,0.94-0.76,1.39-1.17c0.55-0.51,1.17-0.77,1.93-0.77c1.04,0,2.03-0.28,2.98-0.69c0.48-0.21,0.96-0.43,1.44-0.64
					c0.27-0.11,0.54-0.2,0.81-0.31c0.29-0.12,0.53-0.05,0.7,0.18c0.49,0.65,0.98,1.31,1.29,2.07c0.21,0.52,0.21,1.03-0.07,1.52
					c-0.15,0.27-0.38,0.45-0.7,0.44c-0.37-0.01-0.74-0.01-1.1-0.09c-1.16-0.28-2.29-0.21-3.42,0.17c-1.77,0.6-3.6,0.99-5.44,1.29
					c-0.26,0.04-0.52,0.1-0.77,0.17c-0.9,0.24-1.52,0.8-1.89,1.65c-0.22,0.51-0.38,1.04-0.38,1.6c0,0.58,0.02,1.16,0.08,1.73
					c0.1,0.92,0.2,1.83,0.13,2.75c-0.05,0.79-0.06,1.58-0.05,2.37c0.03,1.15,0.29,2.24,0.83,3.26c0.76,1.42,1.91,2.3,3.54,2.45
					c0.65,0.06,1.31,0.08,1.97,0.1c0.37,0.01,0.74-0.03,1.1-0.03c0.9,0.01,1.78-0.11,2.66-0.31c0.33-0.08,0.67-0.14,1.01-0.17
					c0.83-0.09,1.44,0.27,1.71,1.07c0.14,0.42,0.22,0.87,0.28,1.31c0.11,0.73,0.18,1.46,0.28,2.19c0.19,1.3,0.68,2.48,1.39,3.57
					c0.39,0.59,0.8,1.18,1.24,1.73c0.93,1.18,1.57,2.48,1.85,3.96C239.92,131.6,240.14,132.12,240.06,132.76z"/>
				<path class="st10" d="M182.03,123.31c0.28-0.06,0.55,0.01,0.83,0.1c1.06,0.32,1.96,0.89,2.72,1.69c0.38,0.4,0.76,0.81,1.11,1.23
					c1.04,1.28,2.42,1.91,4,2.18c0.52,0.09,1.04,0.17,1.56,0.26c0.5,0.08,0.96,0.27,1.4,0.52c1.16,0.68,2.33,1.33,3.48,2.02
					c0.45,0.27,0.87,0.59,1.29,0.91c0.49,0.37,0.86,0.85,1.15,1.39c0.36,0.67,0.7,1.35,1.07,2.02c0.33,0.6,0.67,1.19,1.04,1.77
					c0.6,0.91,1.36,1.67,2.26,2.29c0.37,0.26,0.74,0.5,1.1,0.77c0.87,0.65,1.48,1.49,1.72,2.57c0.09,0.41,0.21,0.81,0.31,1.21
					c-0.26,0.16-0.48,0.06-0.71,0.01c-3.65-0.8-7.09-2.16-10.28-4.11c-6.33-3.87-10.92-9.25-13.84-16.06
					c-0.08-0.19-0.16-0.39-0.23-0.59C181.98,123.45,182.02,123.39,182.03,123.31z"/>
			</g>
			<g>
				<path class="st4" d="M224.67,76.08c1.99,0.61,3.81,1.35,5.55,2.28c8.47,4.53,14.1,11.42,16.98,20.56
					c0.84,2.64,1.31,5.36,1.47,8.13c0.47,8.37-1.71,15.99-6.45,22.88c-0.16,0.23-0.27,0.5-0.61,0.67c-0.09-0.29-0.17-0.53-0.23-0.78
					c-0.27-1.11-0.75-2.13-1.41-3.06c-0.48-0.66-0.97-1.31-1.44-1.98c-0.66-0.93-1.16-1.94-1.37-3.08c-0.1-0.57-0.14-1.15-0.23-1.72
					c-0.1-0.68-0.17-1.36-0.34-2.02c-0.33-1.26-1.13-2.12-2.4-2.49c-0.59-0.17-1.2-0.11-1.8-0.03c-0.18,0.02-0.36,0.06-0.54,0.11
					c-1.57,0.43-3.19,0.35-4.79,0.31c-1.59-0.04-2.4-0.66-2.93-2.17c-0.15-0.44-0.24-0.91-0.31-1.38c-0.06-0.39-0.07-0.79-0.04-1.18
					c0.1-1.76,0.08-3.52-0.16-5.28c-0.06-0.41,0-0.84,0.08-1.25c0.11-0.59,0.44-1,1.08-1.1c0.7-0.11,1.4-0.26,2.09-0.39
					c1.22-0.23,2.41-0.54,3.59-0.92c0.3-0.1,0.61-0.17,0.91-0.26c0.54-0.16,1.08-0.15,1.64-0.04c0.54,0.11,1.09,0.2,1.64,0.21
					c1.21,0.03,2.05-0.56,2.55-1.64c0.39-0.85,0.43-1.73,0.13-2.61c-0.09-0.27-0.19-0.55-0.34-0.79c-0.38-0.63-0.76-1.27-1.2-1.85
					c-0.79-1.04-1.69-1.3-2.93-0.86c-0.62,0.22-1.22,0.49-1.82,0.76c-0.89,0.41-1.8,0.73-2.8,0.74c-1.28,0-2.34,0.52-3.25,1.4
					c-0.32,0.31-0.67,0.59-1.02,0.87c-0.16,0.13-0.34,0.25-0.53,0.34c-0.49,0.22-0.9,0.01-1.02-0.51c-0.09-0.37-0.04-0.73,0.11-1.08
					c0.17-0.39,0.43-0.72,0.75-1c0.34-0.3,0.68-0.58,1.04-0.84c1-0.71,1.68-1.64,2.08-2.8c0.49-1.41,0.57-1.46,2.03-1.92
					c0.3-0.1,0.6-0.2,0.88-0.33c0.57-0.26,1.01-0.67,1.29-1.23c0.33-0.66,0.33-1.32-0.04-1.96c-0.1-0.18-0.23-0.36-0.37-0.51
					c-0.67-0.73-1.47-1.27-2.37-1.67c-0.63-0.28-1.28-0.25-1.94-0.12c-0.31,0.06-0.62,0.14-0.93,0.17
					c-0.72,0.07-1.09-0.25-1.13-0.98c-0.02-0.34,0.03-0.68,0.11-1.01c0.1-0.41,0.24-0.81,0.4-1.2c0.38-0.95,0.38-1.9,0.1-2.86
					c-0.02-0.08-0.04-0.15-0.07-0.22C223.99,77.57,224.31,76.86,224.67,76.08z"/>
				<path class="st4" d="M209.31,144.74c-0.27-0.3-0.36-0.66-0.47-1.01c-0.15-0.48-0.28-0.96-0.41-1.44
					c-0.33-1.21-0.99-2.2-1.95-2.99c-0.39-0.32-0.79-0.62-1.21-0.89c-1.06-0.68-1.89-1.59-2.51-2.68c-0.27-0.48-0.53-0.97-0.79-1.46
					c-0.17-0.32-0.36-0.65-0.51-0.98c-0.72-1.54-1.9-2.63-3.32-3.49c-0.72-0.43-1.46-0.84-2.19-1.27c-0.25-0.14-0.51-0.27-0.75-0.43
					c-1.13-0.79-2.41-1.15-3.76-1.32c-0.49-0.06-0.98-0.2-1.46-0.33c-0.62-0.17-1.16-0.5-1.59-0.98c-0.46-0.51-0.92-1.01-1.38-1.52
					c-0.79-0.87-1.73-1.54-2.81-2c-0.8-0.35-1.64-0.58-2.52-0.55c-0.13,0-0.26-0.01-0.37-0.02c-1.22-2.51-2.08-9.09-1.82-13.13
					c0.36-5.7,2.22-11.07,3.19-12.63c0.15,0.1,0.3,0.2,0.44,0.31c1.14,0.92,2.37,0.91,3.63,0.3c0.4-0.19,0.75-0.48,1.12-0.73
					c0.3-0.21,0.58-0.45,0.88-0.66c0.41-0.29,0.86-0.51,1.36-0.59c0.49-0.08,0.69,0.03,0.86,0.48c0.22,0.59,0.42,1.19,0.63,1.79
					c0.23,0.68,0.2,1.34-0.07,2.01c-0.24,0.59-0.43,1.19-0.49,1.82c-0.09,0.88,0.15,1.67,0.76,2.33c0.62,0.66,1.37,0.96,2.28,0.75
					c0.36-0.08,0.71-0.18,1.07-0.28c0.27-0.08,0.52-0.07,0.76,0.08c0.69,0.43,1.41,0.83,2.05,1.32c0.65,0.49,0.74,1,0.38,1.74
					c-0.18,0.37-0.44,0.72-0.69,1.05c-0.39,0.53-0.81,1.03-1.2,1.57c-0.53,0.73-0.95,1.51-1.24,2.37c-0.19,0.58-0.31,1.17-0.31,1.78
					c0,0.58,0.03,1.16,0.02,1.74c-0.01,0.39-0.05,0.79-0.11,1.17c-0.1,0.64-0.45,1.12-0.99,1.45c-0.38,0.23-0.77,0.45-1.17,0.66
					c-0.41,0.23-0.85,0.42-1.24,0.69c-0.43,0.29-0.86,0.61-1.22,0.99c-0.91,0.94-1.17,2.11-0.93,3.37c0.19,1.01,0.81,1.69,1.84,1.95
					c0.18,0.04,0.36,0.1,0.54,0.11c0.95,0.08,1.86,0.32,2.77,0.6c1.14,0.35,2.3,0.54,3.5,0.38c0.71-0.1,1.39-0.31,2.05-0.56
					c0.64-0.24,1.26-0.53,1.9-0.78c0.51-0.2,1.03-0.4,1.56-0.56c0.88-0.27,1.77-0.22,2.64,0.09c0.42,0.15,0.84,0.31,1.25,0.49
					c1.69,0.74,3.46,1.07,5.29,1.14c0.87,0.03,1.74,0.08,2.6,0.17c0.57,0.06,1.14,0.2,1.69,0.36c0.43,0.12,0.82,0.36,1.12,0.72
					c0.28,0.33,0.39,0.68,0.22,1.09c-0.1,0.24-0.19,0.49-0.3,0.73c-0.21,0.46-0.42,0.91-0.64,1.36c-0.83,1.71-1.29,3.5-1.31,5.4
					c-0.01,1.17-0.33,2.23-0.95,3.21c-0.93,1.45-1.61,3.01-2.1,4.66c-0.1,0.33-0.24,0.64-0.38,0.95c-0.11,0.23-0.29,0.35-0.56,0.35
					C211.07,144.96,210.19,144.88,209.31,144.74z"/>
				<path class="st4" d="M192.11,82.98c1.03-1.18,4.6-3.57,7.34-4.91c3.33-1.63,6.83-2.71,10.46-3.19c0.19,0.13,0.17,0.26,0.13,0.39
					c-0.13,0.4-0.24,0.81-0.43,1.18c-0.65,1.28-0.85,2.64-0.74,4.06c0.03,0.42,0.02,0.84,0,1.26c-0.02,0.54-0.22,1.03-0.51,1.47
					c-0.22,0.33-0.44,0.66-0.68,0.97c-1.15,1.42-1.69,3.07-1.86,4.87c-0.04,0.42-0.09,0.84-0.18,1.25c-0.07,0.3-0.17,0.61-0.33,0.88
					c-0.39,0.68-1.51,1.11-2.29,0.26c-0.23-0.25-0.44-0.53-0.63-0.81c-0.24-0.35-0.45-0.71-0.67-1.07c-0.68-1.09-1.54-2-2.63-2.68
					c-0.77-0.48-1.43-1.05-1.93-1.83c-0.46-0.72-1.16-1.13-2-1.29c-0.59-0.11-1.2-0.18-1.79-0.29c-0.31-0.06-0.61-0.15-0.91-0.25
					C192.34,83.2,192.23,83.08,192.11,82.98z"/>
			</g>
		</g>
	</g>
	<g>
		<g>
			<path class="st10" d="M341.41,343.2c-0.35-0.44-0.75-0.85-1.14-1.26c-1.84-1.96-3.44-4.1-4.86-6.38
				c-0.86-1.38-0.96-2.69-0.18-4.18c0.9-1.73,1.66-3.53,2.4-5.34c0.8-1.96,1.35-4,1.61-6.1c0.05-0.43,0.18-0.98-0.28-1.2
				c-0.26-0.12-0.72,0.06-1.04,0.21c-4.41,2.1-9.06,3.01-13.93,2.89c-3.75-0.09-7.39-0.85-10.94-1.99
				c-4.14-1.33-8.23-2.79-12.34-4.18c-5.81-1.97-11.73-3.43-17.9-3.76c-1.76,0.09-3.53,0.1-5.28,0.27
				c-1.98,0.19-3.92,0.65-5.72,1.53c-1.06,0.52-2.03,1.15-2.79,2.07c-1.23,1.48-1.18,3.09,0.26,4.36c0.82,0.72,1.77,1.33,2.74,1.82
				c2.65,1.34,5.52,1.51,8.4,1.15c2.5-0.32,4.97-0.82,7.45-1.26c0.9-0.16,1.79-0.37,2.69-0.53c0.68-0.12,1.27,0.06,1.59,0.72
				c0.15,0.3,0.23,0.66,0.26,0.99c0.24,2.35,0.56,4.7,0.65,7.06c0.24,6.14,0.38,12.28,0.54,18.43c0.04,1.32,0.27,1.73,1.5,2.19
				c3.92,1.47,8,2.24,12.16,2.56c3.85,0.3,7.68,0.15,11.51-0.34c7.02-0.9,13.62-3.08,19.76-6.62c0.93-0.53,1.81-1.14,2.69-1.76
				C341.85,344.11,341.88,343.79,341.41,343.2z"/>
			<path class="st10" d="M161.34,357.96c-2.21-1.43-4.66-2.01-7.27-2.02c-2.57-0.01-5.08,0.37-7.59,0.88
				c-1.54,0.32-3.08,0.66-4.62,0.95c-1.54,0.29-2.07-0.11-2.3-1.68c-0.07-0.5-0.13-1-0.18-1.5c-0.65-5.93-0.73-11.89-0.91-17.84
				c-0.06-2.08-0.07-4.16-0.08-6.24c0-1.04-0.44-1.67-1.46-2.05c-3.93-1.45-8-2.23-12.16-2.57c-3.34-0.27-6.67-0.17-10.01,0.16
				c-6.2,0.62-12.12,2.24-17.75,4.92c-2.14,1.02-4.21,2.15-6.13,3.55c-0.75,0.55-0.79,0.83-0.21,1.53c0.4,0.48,0.85,0.93,1.28,1.39
				c1.85,2,3.48,4.15,4.83,6.52c0.45,0.78,0.78,1.6,0.49,2.52c-0.15,0.48-0.37,0.94-0.57,1.4c-0.81,1.84-1.68,3.66-2.43,5.53
				c-0.75,1.87-1.3,3.82-1.48,5.84c-0.12,1.34,0.14,1.52,1.32,0.95c4.35-2.08,8.94-2.99,13.74-2.9c3.78,0.07,7.45,0.83,11.03,1.98
				c4.34,1.4,8.64,2.94,12.97,4.39c5.61,1.87,11.33,3.24,17.27,3.48c2.11,0.07,4.22,0.04,6.31-0.3c1.97-0.32,3.91-0.79,5.6-1.89
				c0.78-0.51,1.53-1.13,2.11-1.85c1.03-1.27,0.89-2.77-0.26-3.93C162.43,358.73,161.9,358.32,161.34,357.96z"/>
			<path class="st10" d="M268.77,329.49c3.88-0.65,7.69-1.6,11.43-2.83c1.52-0.5,2.99-1.14,4.47-1.76c0.38-0.16,0.72-0.44,1.09-0.68
				c-0.49-0.47-0.49-0.48-1.03-0.39c-2.55,0.39-5.09,0.85-7.68,0.82c-3.28-0.04-6.39-0.57-8.96-2.84c-0.1-0.09-0.27-0.11-0.51-0.2
				c-0.11,0.35-0.27,0.64-0.27,0.92c0.01,1.98,0.01,3.96,0.11,5.93C267.46,329.46,267.8,329.65,268.77,329.49z"/>
			<path class="st10" d="M163.4,350.42c-0.31-0.04-0.63-0.07-0.94-0.05c-3.73,0.23-7.36,0.95-10.87,2.23
				c-1.41,0.52-2.78,1.17-4.16,1.79c-0.34,0.16-0.78,0.32-0.69,1.01c0.53-0.07,1.04-0.13,1.55-0.22c2.93-0.46,5.86-0.88,8.83-0.55
				c2.42,0.27,4.69,0.91,6.58,2.55c0.18,0.15,0.4,0.25,0.62,0.38c0.13-0.17,0.25-0.26,0.27-0.37c0.32-1.88,0.28-3.76,0.03-5.64
				C164.54,350.9,164.07,350.5,163.4,350.42z"/>
			<path class="st10" d="M249.93,344.68c-0.82-0.04-1.28,0.34-1.45,1.14c-0.03,0.13-0.05,0.25-0.07,0.38c0.01,0.22,0,0.43,0.02,0.64
				c0.07,0.76,0.47,1.09,1.23,1.05c0.06,0,0.11,0,0.17-0.01c0.57-0.07,1.13-0.19,1.59-0.57c0.51-0.41,0.64-0.95,0.33-1.53
				C251.37,345.05,250.73,344.71,249.93,344.68z"/>
			<path class="st10" d="M229.54,344.9c-0.91-0.15-1.72,0.44-1.87,1.38c-0.16,0.97,0.56,1.96,1.54,2.13
				c0.89,0.15,1.74-0.47,1.88-1.39C231.23,346.04,230.52,345.06,229.54,344.9z"/>
			<path class="st10" d="M290.63,325.55c-0.15-0.86-0.59-1.11-1.42-0.87c-0.27,0.08-0.52,0.22-0.78,0.33
				c-1.13,0.48-2.24,1.02-3.39,1.45c-10.81,4.05-21.95,6.55-33.49,7.16c-4.96,0.26-9.9-0.07-14.78-0.99
				c-6.29-1.18-12.45-2.89-18.54-4.84c-6.22-1.99-12.2-4.59-18.16-7.22c-7.16-3.15-14.42-6-22.07-7.76
				c-6.46-1.49-12.96-2.31-19.59-1.7c-4.83,0.45-9.5,1.56-13.96,3.49c-0.95,0.41-1.84,0.96-2.74,1.47
				c-0.59,0.33-0.85,0.83-0.87,1.54c-0.12,4.28-0.41,8.57-0.4,12.85c0.01,5.39,0.21,10.78,0.39,16.16c0.08,2.23,0.31,4.46,0.53,6.69
				c0.12,1.24,0.67,1.53,1.8,1.04c0.66-0.29,1.31-0.63,1.94-0.97c6.63-3.63,13.77-5.14,21.27-5.08c6.03,0.05,11.91,1.14,17.69,2.8
				c7.99,2.29,15.96,4.66,23.93,7.03c8.13,2.42,16.36,4.43,24.76,5.63c6.46,0.93,12.96,1.52,19.12,1.7
				c6.39,0.23,12.41,0.14,18.42-0.25c6.48-0.41,12.9-1.35,19.25-2.74c1.25-0.27,1.49-0.53,1.69-1.8c0.05-0.31,0.09-0.62,0.1-0.94
				c0.07-1.35,0.15-2.71,0.19-4.06c0.29-9.33-0.01-18.66-0.6-27.97C290.85,326.98,290.75,326.26,290.63,325.55z M173.23,336.42
				c-0.07,0.76-0.25,1.5-0.39,2.25c-0.04,0.21-0.13,0.42-0.21,0.63c-0.42,1.07-1.37,1.84-2.5,2.03c-1.16,0.19-2.27,0.08-3.37-0.3
				c-0.67-0.23-1.07-0.67-1.11-1.41c-0.01-0.27-0.02-0.54-0.02-0.82c0-0.61,0-1.23-0.01-1.84c0-0.19-0.03-0.38-0.08-0.57
				c-0.05-0.22-0.19-0.39-0.4-0.49c-0.43-0.2-0.87-0.18-1.32-0.06c-0.18,0.05-0.26,0.2-0.28,0.37c-0.03,0.27-0.04,0.54-0.07,0.81
				c-0.07,0.65-0.14,1.3-0.22,1.95c-0.02,0.17-0.09,0.34-0.15,0.51c-0.31,0.88-0.94,1.32-1.87,1.4c-0.66,0.05-1.31,0-1.95-0.16
				c-0.88-0.23-1.48-0.78-1.78-1.64c-0.3-0.9-0.44-1.83-0.55-2.76c-0.28-2.33-0.44-4.67-0.51-7.01c-0.06-1.82-0.04-3.65-0.04-5.48
				c0-0.77,0.1-1.52,0.31-2.26c0.05-0.17,0.11-0.34,0.18-0.5c0.2-0.45,0.6-0.77,1.08-0.85c0.32-0.06,0.64-0.11,0.96-0.11
				c1.02,0,2.05,0.03,3.05,0.24c0.4,0.08,0.78,0.23,1.17,0.36c0.59,0.2,0.89,0.66,1,1.24c0.06,0.29,0.07,0.6,0.06,0.89
				c-0.02,1.05-0.07,2.1-0.1,3.15c-0.01,0.27,0.01,0.55,0.05,0.81c0.08,0.49,0.39,0.77,0.84,0.81c0.45,0.04,0.81-0.18,0.97-0.64
				c0.08-0.24,0.14-0.5,0.16-0.76c0.05-0.76,0.07-1.53,0.11-2.29c0.03-0.52,0.05-1.04,0.11-1.55c0.11-0.95,0.61-1.46,1.54-1.66
				c0.82-0.17,1.63-0.08,2.44,0.03c0.27,0.04,0.54,0.1,0.8,0.15c0.77,0.13,1.26,0.61,1.55,1.3c0.11,0.26,0.19,0.54,0.26,0.82
				c0.38,1.71,0.57,3.44,0.58,5.19c0.01,1.16,0.01,2.32,0.02,3.98C173.46,333.27,173.37,334.85,173.23,336.42z M185.1,326.66
				c-0.08,0.9-0.2,1.79-0.31,2.68c-0.31,2.54-1.32,10.16-1.55,11.26c-0.12,0.58-0.32,1.16-0.53,1.71c-0.31,0.81-0.94,1.22-1.8,1.24
				c-1.22,0.03-2.38-0.23-3.5-0.72c-0.72-0.31-1.11-0.89-1.26-1.65c-0.14-0.69-0.14-1.38-0.1-2.08c0.1-1.59,0.31-3.18,0.62-4.74
				c0.46-2.31,0.92-4.63,1.43-6.93c0.29-1.32,0.63-2.62,1.15-3.87c0.05-0.13,0.1-0.25,0.16-0.37c0.33-0.61,0.81-0.98,1.54-0.94
				c1,0.06,1.97,0.26,2.89,0.69c0.83,0.39,1.27,1.06,1.31,1.97C185.17,325.49,185.15,326.08,185.1,326.66z M201.2,334.65
				c-0.21,0.19-0.46,0.34-0.72,0.47c-0.64,0.31-1.26,0.26-1.81-0.2c-0.29-0.24-0.55-0.53-0.82-0.8c-0.41-0.4-0.8-0.82-1.23-1.21
				c-0.4-0.36-0.87-0.62-1.38-0.79c-0.23-0.08-0.48-0.13-0.72-0.12c-0.49,0.02-0.68,0.39-0.41,0.8c0.14,0.21,0.32,0.41,0.53,0.57
				c0.53,0.41,1.06,0.82,1.62,1.2c0.81,0.55,1.54,1.19,2.21,1.89c0.38,0.39,0.72,0.83,1.03,1.28c0.96,1.41,1.16,2.99,0.97,4.64
				c-0.15,1.25-0.67,2.34-1.44,3.31c-0.88,1.12-2.04,1.71-3.48,1.73c-1.29,0.02-2.54-0.21-3.64-0.56c-1.37-0.39-2.6-0.81-3.76-1.41
				c-0.34-0.18-0.67-0.38-0.98-0.6c-1.25-0.88-1.75-2.11-1.55-3.61c0.13-0.99,0.47-1.91,1.07-2.73c0.93-1.26,2.21-1.42,3.4-0.39
				c0.28,0.24,0.51,0.53,0.78,0.79c0.52,0.52,1.02,1.07,1.58,1.56c0.56,0.49,1.2,0.86,1.97,0.94c0.63,0.07,0.99-0.29,0.86-0.9
				c-0.05-0.24-0.19-0.48-0.33-0.69c-0.29-0.42-0.72-0.71-1.15-0.98c-0.73-0.44-1.47-0.85-2.19-1.3c-1.01-0.63-1.91-1.38-2.56-2.39
				c-0.93-1.44-1.26-3.01-0.84-4.68c0.5-2.02,1.78-3.36,3.76-4c1.14-0.37,2.32-0.41,3.5-0.3c2.02,0.19,3.97,0.68,5.79,1.6
				c0.38,0.19,0.73,0.44,1.05,0.7c0.55,0.45,0.84,1.06,0.84,1.76C203.11,331.98,202.54,333.49,201.2,334.65z M218.97,341.03
				c-0.53-0.14-1.05-0.32-1.59-0.46c-1.16-0.3-1.35-0.14-1.79,0.93c-0.58,1.39-0.83,2.87-1.11,4.34c-0.27,1.44-0.53,2.89-0.84,4.32
				c-0.12,0.56-0.32,1.11-0.55,1.64c-0.13,0.32-0.37,0.59-0.6,0.86c-0.33,0.4-0.79,0.55-1.29,0.5c-0.66-0.07-1.31-0.21-1.92-0.48
				c-0.69-0.31-1.09-0.81-1.04-1.58c0.04-0.7,0.1-1.41,0.22-2.1c0.17-0.94,0.41-1.88,0.6-2.82c0.31-1.52,0.59-3.05,0.68-4.6
				c0.02-0.32,0.03-0.65,0-0.97c-0.07-0.86-0.47-1.51-1.29-1.83c-0.52-0.21-1.07-0.34-1.61-0.53c-0.3-0.11-0.61-0.23-0.89-0.39
				c-0.63-0.36-0.93-0.93-0.94-1.65c-0.01-0.7,0.1-1.38,0.3-2.05c0.21-0.7,0.43-1.41,0.72-2.08c0.45-1.05,0.89-1.28,2.02-1.17
				c0.31,0.03,0.61,0.09,0.92,0.16c1.11,0.26,2.23,0.52,3.63,0.85c1.65,0.49,3.59,1.05,5.52,1.63c0.85,0.26,1.7,0.53,2.48,0.96
				c0.1,0.05,0.2,0.11,0.3,0.16c0.8,0.47,1.15,1.17,1.08,2.09c-0.08,1.01-0.33,1.98-0.74,2.9c-0.12,0.27-0.28,0.52-0.47,0.75
				C220.32,341,219.7,341.23,218.97,341.03z M235.46,354.6c-0.57,0.68-1.22,1.27-1.94,1.78c-3.39,2.35-7.64,1.89-10.43-1.15
				c-1.67-1.82-2.5-4-2.74-6.43c-0.11-1.07-0.06-2.21,0.14-3.42c0.47-2.53,1.61-4.91,3.74-6.75c1.57-1.35,3.39-2.11,5.49-2.09
				c1.77,0.02,3.34,0.62,4.72,1.71c1.18,0.93,2.06,2.11,2.7,3.47C239.07,345.83,238.38,351.12,235.46,354.6z M258.13,348.53
				c-0.57,1.4-1.54,2.43-2.88,3.11c-0.39,0.2-0.81,0.36-1.23,0.51c-0.64,0.22-0.6,0.82-0.28,1.16c0.17,0.17,0.35,0.34,0.56,0.46
				c0.52,0.28,1.05,0.52,1.58,0.78c0.55,0.27,1.11,0.53,1.64,0.84c0.44,0.26,0.65,0.69,0.56,1.21c-0.05,0.29-0.14,0.59-0.27,0.86
				c-0.49,0.99-1.09,1.93-1.83,2.74c-0.75,0.82-1.83,1.16-2.91,0.29c-1.11-0.89-2.08-1.93-2.89-3.1c-0.3-0.44-0.58-0.89-0.86-1.34
				c-0.07-0.11-0.28-0.61-0.52-0.58c-0.21-0.03-0.24,0.23-0.26,0.36c-0.09,0.56-0.15,1.13-0.2,1.7c-0.03,0.36,0,0.72-0.04,1.07
				c-0.09,0.91-0.5,1.34-1.4,1.46c-1.09,0.14-2.17,0.09-3.24-0.18c-0.77-0.2-1.34-0.66-1.63-1.4c-0.16-0.41-0.27-0.84-0.35-1.28
				c-0.25-1.4-0.32-2.82-0.42-4.23c-0.2-2.84-0.04-5.67,0.02-8.79c0.08-0.58,0.18-1.45,0.31-2.31c0.1-0.65,0.39-1.22,0.81-1.73
				c0.51-0.61,1.17-0.98,1.95-1.07c0.84-0.09,1.69-0.17,2.53-0.13c2.02,0.08,4.03,0.33,5.99,0.84c0.79,0.2,1.56,0.47,2.32,0.77
				c2.17,0.87,3.18,2.57,3.36,4.82C258.63,346.44,258.55,347.51,258.13,348.53z M278.03,345.94c-0.23,1.29-0.95,2.3-1.88,3.18
				c-0.31,0.29-0.63,0.58-0.97,0.84c-1.08,0.86-1.56,2.02-1.62,3.35c-0.05,1.12-0.01,2.25,0,3.37c0,0.48,0.02,0.97,0,1.45
				c-0.02,0.69-0.28,1.05-0.95,1.24c-0.31,0.09-0.64,0.13-0.96,0.17c-0.21,0.03-2.06-0.03-2.77-0.1c-0.2-0.02-0.39-0.09-0.58-0.15
				c-0.75-0.25-1.17-0.77-1.26-1.56c-0.12-1-0.23-2.01-0.37-3.01c-0.11-0.77-0.23-1.55-0.41-2.31c-0.28-1.18-0.88-2.17-1.81-2.98
				c-0.65-0.57-1.29-1.16-1.89-1.79c-0.69-0.73-1.11-1.62-1.34-2.59c-0.35-1.46-0.41-2.93-0.23-4.41c0.01-0.11,0.04-0.22,0.07-0.33
				c0.27-1.03,0.81-1.5,1.87-1.54c0.65-0.03,1.31-0.01,1.96,0.02c0.51,0.02,1.02,0.08,1.53,0.15c0.8,0.12,1.27,0.63,1.36,1.37
				c0.11,0.89,0.2,1.78,0.33,2.67c0.12,0.79,0.25,1.57,0.44,2.35c0.1,0.41,0.3,0.8,0.52,1.16c0.21,0.35,0.51,0.61,0.95,0.66
				c0.52,0.06,0.87-0.13,1.03-0.62c0.11-0.35,0.18-0.72,0.21-1.08c0.04-0.52,0.03-1.05,0.04-1.58c0.02-1.08,0.02-2.16,0.06-3.24
				c0.01-0.36,0.09-0.73,0.19-1.09c0.16-0.56,0.56-0.91,1.11-1.1c0.89-0.3,1.81-0.34,2.74-0.24c0.32,0.04,0.65,0.1,0.96,0.18
				c0.83,0.21,1.38,0.74,1.61,1.55c0.16,0.56,0.27,1.14,0.32,1.72C278.44,343.09,278.28,344.52,278.03,345.94z"/>
		</g>
		<g>
			<path d="M130.73,260.55c0.28-0.02,0.29-0.25,0.36-0.45c0.5-1.35,0.95-2.72,1.5-4.04c0.92-2.24,2.04-4.38,3.67-6.2
				c0.51-0.57,1.04-1.12,1.63-1.59c3.47-2.8,8.46-2.42,11.48,0.87c1.02,1.11,1.72,2.41,2.29,3.78c0.76,1.84,1.29,3.76,1.72,5.7
				c0.78,3.52,1.32,7.07,1.6,10.66c0.15,1.98,0.33,3.96,0.5,6.07c0.34-0.38,0.38-0.74,0.46-1.09c0.85-3.54,1.91-7.02,3.29-10.4
				c0.88-2.16,1.88-4.26,3.14-6.23c0.75-1.18,1.61-2.28,2.59-3.28c4.15-4.26,10.6-3.14,13.58,1.21c0.94,1.38,1.58,2.89,2.06,4.48
				c0.8,2.65,1.27,5.36,1.49,8.1c0.25,3.21,0.41,6.42,0.56,9.63c0.27,5.77,1,11.46,2.52,17.05c0.43,1.59,0.95,3.16,1.78,4.6
				c0.36,0.62,0.77,1.21,1.2,1.79c0.27,0.37,0.6,0.71,1.13,0.88c0.17-0.18,0.38-0.33,0.5-0.53c0.5-0.93,1.04-1.85,1.46-2.81
				c1.64-3.77,3.01-7.64,4.3-11.53c0.91-2.77,1.74-5.57,2.63-8.35c0.18-0.57,0.24-1.15,0.27-1.75c0.14-3.34,0.3-6.68,0.47-10.02
				c0.04-0.84,0.17-1.68,0.28-2.52c0.24-1.75,1.27-2.82,2.92-3.3c1.26-0.37,2.51-0.35,3.73,0.17c1.14,0.49,1.85,1.34,1.96,2.6
				c0.07,0.84,0.11,1.69,0.09,2.53c-0.12,4.44-0.45,8.88-0.34,13.33c0.17,7.02,1.22,13.91,3.5,20.57c0.8,2.32,1.7,4.61,2.82,6.79
				c0.44,0.86,0.99,1.68,1.54,2.47c0.39,0.55,0.89,1.01,1.55,1.23c0.53-0.11,0.81-0.51,1.07-0.88c0.59-0.83,1.2-1.65,1.68-2.54
				c1.12-2.08,2.23-4.18,3.25-6.32c2.68-5.57,5.08-11.26,7.26-17.04c0.15-0.39,0.28-0.79,0.43-1.24c-0.38-0.26-0.71-0.51-1.06-0.74
				c-1.94-1.29-3.87-2.59-5.65-4.1c-1.95-1.65-3.69-3.49-5.1-5.63c-1.13-1.71-1.98-3.54-2.47-5.53c-0.56-2.27-0.54-4.53,0.07-6.78
				c0.99-3.62,2.9-6.65,5.8-9.05c1.49-1.23,3.16-2.12,5.07-2.51c2.75-0.56,5.21,0.01,7.33,1.88c1.23,1.08,2.14,2.4,2.82,3.87
				c0.87,1.86,1.33,3.83,1.56,5.86c0.38,3.45,0.02,6.85-0.65,10.22c-0.41,2.07-0.97,4.12-1.47,6.17c-0.05,0.2-0.1,0.4-0.17,0.66
				c0.32,0.22,0.61,0.45,0.93,0.65c2.57,1.64,5.17,3.23,7.71,4.92c3.39,2.25,6.64,4.69,9.54,7.57c0.09,0.09,0.2,0.15,0.3,0.22
				c0.94-0.53,3.47-3.1,6.82-6.94c2.78-3.19,4.77-5.88,5.27-7.17c-0.4-0.12-0.79-0.26-1.18-0.37c-2.82-0.81-5.54-1.83-8.1-3.27
				c-1.29-0.73-2.53-1.54-3.65-2.52c-1.32-1.15-2.42-2.48-3.28-4.01c-1.61-2.89-1.76-5.86-0.49-8.91c0.43-1.02,0.96-1.98,1.67-2.83
				c2.24-2.67,4.96-4.6,8.45-5.24c2-0.37,3.96-0.19,5.88,0.47c2.73,0.94,4.94,2.59,6.52,5.02c2.13,3.28,3,6.86,2.58,10.76
				c-0.2,1.83-0.71,3.56-1.31,5.28c0.75,0.42,2.9,1.04,5.58,1.62c0.28-0.14,0.22-0.42,0.25-0.65c0.58-5.05,1.45-10.05,2.77-14.97
				c0.82-3.07,1.83-6.08,3.04-9.02c0.56-1.37,1.22-2.7,2.06-3.93c0.8-1.16,1.71-2.21,2.83-3.07c1.25-0.98,2.65-1.65,4.24-1.88
				c2.44-0.35,4.52,0.37,6.23,2.13c1.3,1.34,2.1,2.96,2.58,4.75c0.55,2.02,0.68,4.08,0.62,6.17c-0.05,1.89-2.3,2.48-3.51,1.7
				c-0.49-0.32-0.74-0.8-0.8-1.38c-0.09-0.8-0.18-1.6-0.27-2.4c-0.22-1.86-0.66-3.67-1.6-5.31c-0.31-0.55-0.67-1.08-1.1-1.55
				c-0.97-1.05-1.79-1.16-3.06-0.52c-0.96,0.49-1.73,1.21-2.39,2.05c-0.82,1.04-1.45,2.18-2.01,3.38c-0.94,2-1.64,4.08-2.25,6.2
				c-1.33,4.6-2.38,9.26-3.01,14.01c-0.22,1.64-0.36,3.28-0.53,4.92c-0.02,0.21,0,0.42,0,0.69c0.44,0.18,0.86,0.36,1.29,0.53
				c2.74,1.05,5.34,2.37,7.73,4.06c2.73,1.94,4.99,4.32,6.5,7.34c0.43,0.87,0.81,1.77,1.12,2.69c0.57,1.71,0.74,3.47,0.34,5.26
				c-0.87,3.95-2.86,7.13-6.38,9.22c-1.76,1.05-3.67,1.48-5.73,1.21c-1.85-0.24-3.36-1.08-4.55-2.51c-0.68-0.82-1.2-1.74-1.65-2.7
				c-1.14-2.43-1.83-5-2.29-7.64c-0.55-3.18-0.78-6.38-0.74-9.61c0.01-0.5-0.01-1-0.02-1.55c-2.83-1.17-5.74-1.9-8.68-2.69
				c-0.8,0.83-1.32,1.86-2.02,2.74c-0.71,0.89-1.39,1.81-2.12,2.7c-0.75,0.92-1.53,1.81-2.31,2.7c-0.76,0.86-1.53,1.7-2.31,2.53
				s-1.58,1.65-2.38,2.47c-0.8,0.82-1.6,1.62-2.45,2.48c0.27,0.37,0.51,0.72,0.76,1.05c1.16,1.51,2.2,3.11,3.08,4.8
				c1.57,3.03,2.37,6.25,2.16,9.67c-0.49,7.85-5.9,14.13-13.52,15.52c-2.19,0.4-4.38,0.45-6.54-0.21c-4.31-1.31-6.72-5-6.53-9.06
				c0.08-1.62,0.52-3.17,1.2-4.65c0.87-1.9,2.03-3.61,3.32-5.24c1.98-2.49,4.19-4.77,6.48-6.97c0.33-0.32,0.65-0.65,1.03-1.02
				c-0.21-0.27-0.37-0.5-0.56-0.72c-1.67-1.87-3.56-3.5-5.53-5.05c-2.69-2.13-5.52-4.06-8.44-5.88c-0.46,0.23-0.47,0.7-0.61,1.07
				c-1.67,4.57-3.41,9.12-5.34,13.58c-1.11,2.56-2.28,5.1-3.52,7.6c-0.67,1.36-1.51,2.65-2.33,3.93c-0.72,1.11-1.61,2.08-2.7,2.84
				c-2.81,1.96-5.78,2.24-8.88,0.76c-1.2-0.57-2.23-1.37-3.17-2.31c-1.86-1.85-3.24-4.02-4.28-6.4c-1.24-2.84-2.09-5.81-2.83-8.81
				c-0.69-2.84-1.21-5.71-1.59-8.6c-0.32-0.09-0.36,0.13-0.43,0.32c-1.2,3.48-2.39,6.96-3.61,10.43c-0.42,1.2-0.91,2.37-1.6,3.45
				c-1,1.55-2.36,2.65-4.18,3.09c-1.39,0.33-2.77,0.24-4.12-0.25c-1.38-0.5-2.56-1.3-3.61-2.3c-1.36-1.3-2.44-2.81-3.38-4.43
				c-1.9-3.3-3.09-6.85-3.65-10.62c-0.58-3.94-0.87-7.91-1.05-11.88c-0.16-3.42-0.31-6.85-0.75-10.26c-0.26-2.02-0.6-4.02-1.26-5.95
				c-0.26-0.76-0.61-1.48-0.96-2.21c-0.12-0.25-0.35-0.45-0.54-0.7c-0.74,0.3-1.26,0.78-1.78,1.28c-1.23,1.18-2.19,2.58-3.04,4.05
				c-1.4,2.43-2.43,5.02-3.27,7.69c-1.12,3.56-1.83,7.21-2.35,10.91c-0.63,4.5-0.87,9.01-0.76,13.55c0.02,0.76,0.01,1.52,0.01,2.29
				c0,1.09-0.48,1.96-1.31,2.63c-1,0.81-2.15,1.15-3.43,1.05c-0.9-0.07-1.64-0.45-2.17-1.17c-0.35-0.47-0.65-0.99-0.92-1.52
				c-1.6-3.17-2.53-6.54-3.09-10.03c-0.62-3.85-1.1-7.71-1.44-11.59c-0.21-2.4-0.37-4.81-0.59-7.21c-0.4-4.22-0.97-8.41-2.05-12.51
				c-0.27-1.02-0.64-2.01-1-3.01c-0.16-0.43-0.39-0.83-0.63-1.32c-0.27,0.14-0.51,0.22-0.69,0.36c-1.31,1.04-2.33,2.33-3.2,3.75
				c-1.37,2.21-2.31,4.61-3.1,7.07c-1.04,3.23-1.74,6.54-2.26,9.89c-0.71,4.52-1.09,9.08-1.15,13.66c-0.06,4.37,0.2,8.71,1.02,13.02
				c0.19,1,0.31,2.01,0.48,3.01c0.16,0.95-0.13,1.76-0.77,2.45c-0.91,0.98-2.03,1.5-3.38,1.46c-0.87-0.02-1.57-0.38-2.02-1.12
				c-0.35-0.57-0.66-1.18-0.92-1.81c-1.23-3.02-2.2-6.13-2.93-9.31c-0.78-3.35-1.23-6.74-1.57-10.15c-0.59-6-0.68-12-0.42-18.02
				c0.15-3.55,0.38-7.11,0.99-10.61c0.21-1.2,0.46-2.42,0.88-3.57c0.89-2.46,3.36-3.62,5.86-2.88c1.62,0.48,2.42,1.47,2.37,3.16
				c-0.04,1.48-0.23,2.95-0.34,4.43c-0.08,1.01-0.13,2.03-0.19,3.04c-0.01,0.04-0.02,0.07-0.03,0.11c0.01-0.01,0.03-0.02,0.03-0.03
				C130.75,260.62,130.73,260.59,130.73,260.55z M250.78,299.55c-0.12,0.09-0.27,0.17-0.38,0.29c-2.04,2.03-4.01,4.12-5.73,6.43
				c-0.83,1.12-1.59,2.29-2.21,3.55c-0.52,1.07-0.89,2.19-1.07,3.37c-0.5,3.41,1.76,6.19,5.15,6.26c2.07,0.04,3.98-0.5,5.3-2.21
				c2.33-3.02,3.33-6.42,2.57-10.23c-0.54-2.7-1.82-5.07-3.4-7.29C250.98,299.65,250.89,299.62,250.78,299.55z M233.29,274.94
				c0.11-0.33,0.19-0.55,0.26-0.79c0.83-3.11,1.41-6.27,1.59-9.48c0.15-2.68-0.09-5.32-0.93-7.89c-0.39-1.17-0.94-2.26-1.73-3.22
				c-0.48-0.6-1.04-1.1-1.72-1.47c-0.6-0.33-1.2-0.34-1.82-0.03c-0.73,0.37-1.34,0.89-1.84,1.52c-2.06,2.6-3,5.55-2.69,8.86
				c0.27,2.87,1.44,5.36,3.26,7.57c1.44,1.74,3.11,3.22,4.92,4.55C232.78,274.7,233.01,274.79,233.29,274.94z M270.8,270.02
				c1.03-2.87,1.52-5.72,0.96-8.68c-0.46-2.42-1.44-4.6-3.19-6.38c-1.1-1.12-2.42-1.83-3.97-2.1c-1.14-0.2-2.21,0.01-3.12,0.73
				c-2.1,1.68-3.29,3.83-3.2,6.59c0.06,1.92,0.88,3.51,2.16,4.88c0.88,0.94,1.91,1.66,3.03,2.29c2.15,1.21,4.46,2.03,6.84,2.67
				C270.42,270.05,270.55,270.02,270.8,270.02z M283.84,282.28c-0.02,0.33-0.06,0.58-0.04,0.81c0.18,1.98,0.3,3.96,0.57,5.92
				c0.25,1.84,0.73,3.64,1.41,5.38c0.44,1.1,0.97,2.15,1.71,3.09c0.45,0.57,0.93,1.1,1.58,1.45c1.38,0.74,2.08,0.36,2.65-0.67
				c0.74-1.33,1.08-2.75,0.88-4.27c-0.17-1.35-0.52-2.65-1.1-3.88c-1.55-3.32-3.97-5.84-7.14-7.66
				C284.23,282.38,284.07,282.36,283.84,282.28z"/>
			<path d="M198.88,252.01c0.01-2.49,2.06-4.55,4.54-4.5c2.6,0.06,4.49,2.08,4.49,4.56c-0.01,2.49-2.06,4.52-4.54,4.5
				C200.87,256.55,198.87,254.51,198.88,252.01z"/>
		</g>
		<g>
			<g>
				<path d="M248.18,211.89c0-7.97,0.04-15.94-0.02-23.91c-0.02-2.24,1.09-3.38,3.31-3.31c3.7,0.12,7.41,0.12,11.12,0.17
					c0.28,0,0.56,0,0.83,0.04c1.17,0.16,2.03,1.12,2.07,2.26c0.04,1.12-0.69,2.11-1.83,2.36c-0.42,0.09-0.86,0.11-1.29,0.11
					c-2.56-0.02-5.13-0.06-7.69-0.1c-0.25,0-0.5-0.01-0.74,0.01c-0.65,0.05-0.87,0.26-0.94,0.91c-0.03,0.28-0.02,0.56-0.02,0.83
					c0,8.68-0.01,17.36-0.01,26.05c0,1.79,0.13,1.93,1.95,1.95c1.61,0.03,3.21,0.04,4.82,0.07c0.37,0.01,0.75,0.04,1.09,0.15
					c1.05,0.33,1.67,1.24,1.63,2.32c-0.03,1.05-0.74,1.94-1.8,2.19c-0.36,0.08-0.73,0.11-1.1,0.11c-1.42,0-2.84-0.03-4.26-0.05
					c-0.31,0-0.62-0.02-0.93-0.01c-1.11,0.04-1.38,0.27-1.39,1.38c-0.02,2.6-0.02,5.19,0.01,7.79c0.01,1.2,0.2,1.36,1.44,1.36
					c2.5,0,5.01-0.02,7.51-0.01c0.46,0,0.93,0.05,1.36,0.19c0.99,0.32,1.59,1.25,1.56,2.28c-0.03,0.99-0.67,1.85-1.63,2.14
					c-0.38,0.11-0.79,0.17-1.19,0.17c-3.71,0.02-7.41,0.04-11.12,0.03c-1.59,0-2.46-0.79-2.66-2.36c-0.06-0.52-0.07-1.05-0.07-1.57
					C248.18,227.58,248.18,219.74,248.18,211.89z"/>
				<path d="M159.21,232.99c0,0.19,0,0.38,0,0.56c0.02,0.8,0.11,0.91,0.94,0.93c1.85,0.04,3.7,0.06,5.55,0.1
					c0.41,0.01,0.82,0.01,1.22,0.07c1.18,0.18,2.04,1.18,2.05,2.35c0,1.2-0.9,2.22-2.12,2.38c-0.28,0.04-0.56,0.04-0.85,0.04
					c-2.79-0.02-5.58-0.05-8.38-0.08c-0.25,0-0.5,0-0.75-0.03c-1.28-0.14-2.07-0.81-2.35-2.07c-0.1-0.45-0.17-0.93-0.17-1.39
					c-0.02-16.06-0.02-32.13-0.02-48.19c0-0.46,0.04-0.95,0.17-1.39c0.32-1.02,1.27-1.67,2.28-1.65c1.06,0.02,2,0.74,2.26,1.8
					c0.12,0.48,0.14,0.99,0.14,1.49C159.2,195.44,159.21,225.49,159.21,232.99z"/>
				<path d="M235.44,232.99c0,0.19,0,0.38,0,0.56c0.02,0.8,0.11,0.91,0.94,0.93c1.85,0.04,3.7,0.06,5.55,0.1
					c0.41,0.01,0.82,0.01,1.22,0.07c1.18,0.18,2.04,1.18,2.05,2.35c0,1.2-0.9,2.22-2.12,2.38c-0.28,0.04-0.56,0.04-0.85,0.04
					c-2.79-0.02-5.58-0.05-8.38-0.08c-0.25,0-0.5,0-0.75-0.03c-1.28-0.14-2.07-0.81-2.35-2.07c-0.1-0.45-0.17-0.93-0.17-1.39
					c-0.02-16.06-0.02-32.13-0.02-48.19c0-0.46,0.04-0.95,0.17-1.39c0.32-1.02,1.27-1.67,2.28-1.65c1.06,0.02,2,0.74,2.26,1.8
					c0.12,0.48,0.14,0.99,0.14,1.49C235.43,195.44,235.44,225.49,235.44,232.99z"/>
				<path d="M189.49,191.69c0-0.5-0.04-0.99-0.11-1.48c-0.12-0.9-0.36-1.13-1.26-1.15c-1.4-0.02-2.8,0.01-4.19-0.01
					c-0.46-0.01-0.94-0.04-1.37-0.19c-1.45-0.51-1.86-2.37-0.74-3.41c0.34-0.32,0.85-0.47,1.31-0.63c0.22-0.08,0.49-0.03,0.74-0.03
					c5.34-0.01,10.69-0.02,16.03-0.03c0.37,0,0.75,0,1.12,0.05c1.05,0.14,1.84,0.98,1.89,1.99c0.05,1.01-0.65,1.91-1.71,2.14
					c-0.36,0.08-0.74,0.1-1.11,0.1c-1.46,0.01-2.92,0.01-4.38,0.02c-0.4,0-0.81,0.02-1.21,0.07c-0.41,0.06-0.67,0.31-0.69,0.75
					c-0.01,0.25-0.01,0.5-0.01,0.75c0.04,15.22,0.09,30.45,0.12,45.67c0,0.46-0.01,0.94-0.1,1.39c-0.2,0.97-1.03,1.62-2,1.63
					c-1,0.01-1.88-0.67-2.08-1.66c-0.07-0.33-0.07-0.68-0.07-1.02C189.66,229.09,189.5,199.14,189.49,191.69z"/>
				<path d="M214.21,191.69c0-0.5-0.04-0.99-0.11-1.48c-0.12-0.9-0.36-1.13-1.26-1.15c-1.4-0.02-2.8,0.01-4.19-0.01
					c-0.46-0.01-0.94-0.04-1.37-0.19c-1.45-0.51-1.86-2.37-0.74-3.41c0.34-0.32,0.85-0.47,1.31-0.63c0.22-0.08,0.49-0.03,0.74-0.03
					c5.34-0.01,10.69-0.02,16.03-0.03c0.37,0,0.75,0,1.12,0.05c1.05,0.14,1.84,0.98,1.89,1.99c0.05,1.01-0.65,1.91-1.71,2.14
					c-0.36,0.08-0.74,0.1-1.11,0.1c-1.46,0.01-2.92,0.01-4.38,0.02c-0.4,0-0.81,0.02-1.21,0.07c-0.41,0.06-0.67,0.31-0.69,0.75
					c-0.01,0.25-0.01,0.5-0.01,0.75c0.04,15.22,0.09,30.45,0.12,45.67c0,0.46-0.01,0.94-0.1,1.39c-0.2,0.97-1.03,1.62-2,1.63
					c-1,0.01-1.88-0.67-2.08-1.66c-0.07-0.33-0.07-0.68-0.07-1.02C214.38,229.09,214.21,199.14,214.21,191.69z"/>
				<path d="M177.44,235.92c0,0.41,0.01,0.82-0.04,1.22c-0.16,1.24-1.16,2.14-2.35,2.16c-1.16,0.02-2.15-0.8-2.38-2.01
					c-0.07-0.37-0.1-0.75-0.1-1.12c0.05-16.17,0.1-32.34,0.15-48.51c0-0.37,0.03-0.76,0.13-1.12c0.29-1.14,1.2-1.83,2.32-1.83
					c1.11,0.01,2.04,0.73,2.31,1.85c0.09,0.39,0.1,0.81,0.1,1.21C177.59,195.86,177.44,227.95,177.44,235.92z"/>
			</g>
			<g>
				<g>
					<path class="st4" d="M142.73,211.02c0-0.59-0.29-1.22-1-1.4c-2.72-0.69-17.75-2.5-25.66-1.98c-0.83,0.05-1.65,0.16-2.44,0.41
						c-1.3,0.41-2.24,1.66-2.24,2.97c0,1.31,0.94,2.57,2.24,2.97c0.79,0.25,1.61,0.36,2.44,0.41c7.91,0.51,22.94-1.3,25.66-1.98
						C142.43,212.24,142.73,211.62,142.73,211.02z"/>
					<path class="st4" d="M121.48,195.58c0.49,0.39,1.03,0.66,1.59,0.88c5.39,2.05,16.39,3.27,18.48,3.15
						c0.54-0.03,0.92-0.58,1.08-1.15c0.16-0.57,0.13-1.23-0.32-1.55c-1.71-1.2-11.73-5.9-17.4-6.97c-0.59-0.11-1.2-0.17-1.82-0.08
						c-1.02,0.13-2.02,1.16-2.37,2.42C120.37,193.54,120.69,194.94,121.48,195.58z"/>
					<path class="st4" d="M141.56,223.43c-2.09-0.12-13.09,1.1-18.48,3.15c-0.56,0.21-1.11,0.48-1.59,0.88
						c-0.8,0.65-1.12,2.04-0.76,3.3c0.36,1.26,1.36,2.28,2.37,2.42c0.62,0.08,1.22,0.03,1.82-0.08c5.67-1.07,15.69-5.77,17.4-6.97
						c0.45-0.31,0.48-0.97,0.32-1.55C142.48,224.01,142.1,223.46,141.56,223.43z"/>
				</g>
				<g>
					<path class="st4" d="M272.07,211.02c0-0.59,0.29-1.22,1-1.4c2.72-0.69,17.75-2.5,25.66-1.98c0.83,0.05,1.65,0.16,2.44,0.41
						c1.3,0.41,2.24,1.66,2.24,2.97c0,1.31-0.94,2.57-2.24,2.97c-0.79,0.25-1.61,0.36-2.44,0.41c-7.91,0.51-22.94-1.3-25.66-1.98
						C272.36,212.24,272.07,211.62,272.07,211.02z"/>
					<path class="st4" d="M293.31,195.58c-0.49,0.39-1.03,0.66-1.59,0.88c-5.39,2.05-16.39,3.27-18.48,3.15
						c-0.54-0.03-0.92-0.58-1.08-1.15c-0.16-0.57-0.13-1.23,0.32-1.55c1.71-1.2,11.73-5.9,17.4-6.97c0.59-0.11,1.2-0.17,1.82-0.08
						c1.02,0.13,2.02,1.16,2.37,2.42C294.43,193.54,294.11,194.94,293.31,195.58z"/>
					<path class="st4" d="M273.24,223.43c2.09-0.12,13.09,1.1,18.48,3.15c0.56,0.21,1.11,0.48,1.59,0.88
						c0.8,0.65,1.12,2.04,0.76,3.3c-0.36,1.26-1.36,2.28-2.37,2.42c-0.62,0.08-1.22,0.03-1.82-0.08c-5.67-1.07-15.69-5.77-17.4-6.97
						c-0.45-0.31-0.48-0.97-0.32-1.55C272.32,224.01,272.7,223.46,273.24,223.43z"/>
				</g>
			</g>
		</g>
	</g>
</g>
</svg>
