<?xml version="1.0" encoding="utf-8"?>
<!-- Generator: Adobe Illustrator 25.2.1, SVG Export Plug-In . SVG Version: 6.00 Build 0)  -->
<svg version="1.1" id="Calque_1" xmlns="http://www.w3.org/2000/svg" xmlns:xlink="http://www.w3.org/1999/xlink" x="0px" y="0px"
	 viewBox="0 0 432 432" style="enable-background:new 0 0 432 432;" xml:space="preserve">
<style type="text/css">
	.st0{fill:#F9D53D;}
	.st1{fill:#D3B844;}
	.st2{fill:#E0AAAF;}
	.st3{fill:#BA9196;}
	.st4{fill:#EAB978;}
	.st5{fill:#FBB03B;}
	.st6{fill:#A1C3CE;}
	.st7{fill:#8CC63F;}
	.st8{fill:#C7B299;}
	.st9{fill:#CCCCCC;}
	.st10{fill:#C44750;}
	.st11{fill:#998675;}
	.st12{fill:#29ABE2;}
	.st13{fill:#C79C52;}
	.st14{fill:#766FBF;}
	.st15{fill:#E8A3AB;}
</style>
<g>
	<g>
		<path class="st2" d="M294.42,252.61v-18.07h-7.35v7.02h-3.17v-7.02h-8.94v11.58h-3.17v-11.58h-8.24v7.02h-3.17v-7.02h-8.94v11.58
			h-3.17v-11.58h-8.24v7.02h-3.17v-7.02h-8.94v11.58h-3.17v-11.58h-8.24v7.02h-3.17v-7.02h-8.94v11.58h-3.17v-11.58h-8.24v7.02
			h-3.17v-7.02h-8.94v11.58h-3.17v-11.58h-8.24v7.02h-3.17v-7.02h-8.94v11.58h-3.17v-11.58h-16.68v18.07H294.42z M144.6,241.57
			c1.65,0,2.99,1.34,2.99,2.99c0,1.65-1.34,2.99-2.99,2.99s-2.99-1.34-2.99-2.99C141.61,242.91,142.95,241.57,144.6,241.57z"/>
		<rect x="137.58" y="255.78" class="st3" width="156.83" height="9.29"/>
	</g>
	<g>
		<g>
			<path d="M244.23,198.79c0-7.94,0.04-15.89-0.02-23.83c-0.02-2.23,1.09-3.37,3.3-3.3c3.69,0.12,7.39,0.12,11.08,0.16
				c0.28,0,0.56,0,0.83,0.04c1.16,0.16,2.02,1.11,2.06,2.26c0.04,1.12-0.69,2.1-1.82,2.36c-0.41,0.09-0.85,0.11-1.28,0.11
				c-2.56-0.02-5.11-0.06-7.67-0.1c-0.25,0-0.49-0.01-0.74,0.01c-0.65,0.05-0.87,0.25-0.94,0.91c-0.03,0.27-0.02,0.55-0.02,0.83
				c0,8.65-0.01,17.31-0.01,25.96c0,1.79,0.13,1.92,1.94,1.95c1.6,0.03,3.2,0.04,4.8,0.07c0.36,0.01,0.74,0.04,1.09,0.15
				c1.05,0.33,1.66,1.23,1.63,2.31c-0.03,1.05-0.74,1.93-1.8,2.18c-0.35,0.08-0.73,0.11-1.1,0.11c-1.42,0-2.83-0.03-4.25-0.05
				c-0.31,0-0.62-0.02-0.92-0.01c-1.11,0.04-1.38,0.27-1.39,1.38c-0.02,2.59-0.02,5.17,0.01,7.76c0.01,1.2,0.2,1.36,1.44,1.36
				c2.49,0,4.99-0.02,7.48-0.01c0.45,0,0.93,0.05,1.36,0.19c0.99,0.32,1.58,1.24,1.55,2.27c-0.03,0.98-0.67,1.85-1.63,2.13
				c-0.38,0.11-0.79,0.16-1.18,0.17c-3.7,0.02-7.39,0.04-11.09,0.03c-1.59,0-2.46-0.79-2.65-2.36c-0.06-0.52-0.07-1.04-0.07-1.57
				C244.23,214.43,244.23,206.61,244.23,198.79z"/>
			<path d="M230.74,219.82c0,0.19,0,0.38,0,0.56c0.02,0.8,0.11,0.91,0.94,0.93c1.84,0.04,3.69,0.06,5.53,0.1
				c0.41,0.01,0.82,0.01,1.22,0.07c1.18,0.18,2.04,1.18,2.04,2.34c0,1.19-0.9,2.21-2.11,2.37c-0.28,0.04-0.56,0.04-0.84,0.04
				c-2.78-0.02-5.57-0.05-8.35-0.08c-0.25,0-0.5,0-0.75-0.03c-1.28-0.14-2.06-0.81-2.35-2.06c-0.1-0.45-0.17-0.93-0.17-1.39
				c-0.02-16.01-0.02-32.02-0.02-48.03c0-0.46,0.04-0.95,0.17-1.38c0.32-1.01,1.26-1.66,2.27-1.64c1.05,0.02,2,0.74,2.26,1.79
				c0.12,0.48,0.14,0.99,0.14,1.49C230.73,182.39,230.74,212.35,230.74,219.82z"/>
			<path d="M174.43,174.62c0-0.22,0-0.43,0.01-0.65c0.06-1.3,0.7-2.11,1.98-2.28c6.51-0.87,11.7,1.17,14.77,7.63
				c1.1,2.3,1.58,4.78,1.92,7.29c0.39,2.81,0.56,5.64,0.39,8.47c-0.18,2.86-0.58,5.69-1.43,8.44c-0.72,2.35-1.96,4.29-4.18,5.52
				c-0.54,0.3-0.73,0.75-0.4,1.23c1.65,2.42,1.8,5.26,2.32,7.99c0.13,0.66,0.29,1.32,0.48,1.97c0.27,0.95,0.92,1.5,1.87,1.71
				c0.39,0.09,0.79,0.12,1.18,0.18c1.19,0.18,2.02,1.1,1.97,2.19c-0.06,1.15-0.98,2.03-2.23,2.01c-3.37-0.05-5.99-1.9-6.78-4.71
				c-0.47-1.68-0.73-3.42-1.09-5.14c-0.17-0.81-0.32-1.63-0.56-2.42c-0.5-1.6-1.62-2.5-3.3-2.65c-0.49-0.05-0.99-0.08-1.47-0.04
				c-0.9,0.07-1.12,0.31-1.12,1.22c0,2.37,0.01,4.74,0.01,7.11c0,1.45,0.01,2.89,0,4.34c-0.01,0.94-0.39,1.68-1.26,2.09
				c-1.13,0.52-2.47-0.08-2.81-1.29c-0.14-0.49-0.16-1.03-0.16-1.55C174.52,215.16,174.43,182.72,174.43,174.62z M189.42,192.88
				c-0.19-2.05-0.33-4.1-0.59-6.14c-0.25-2.02-0.71-3.99-1.6-5.85c-0.76-1.59-1.84-2.9-3.3-3.9c-1.24-0.85-2.64-1.14-4.11-1.17
				c-0.73-0.02-1.07,0.33-1.13,1.05c-0.03,0.4-0.03,0.8-0.03,1.2c0.01,8.8,0.03,17.59,0.05,26.39c0,0.34-0.01,0.68,0.03,1.01
				c0.1,0.86,0.4,1.16,1.26,1.1c1.25-0.09,2.51-0.21,3.74-0.45c2.33-0.46,3.84-1.83,4.36-4.2c0.01-0.06,0.03-0.12,0.04-0.18
				C188.97,198.84,189.31,195.88,189.42,192.88z"/>
			<path d="M202.37,208.81c0.1,2.73,0.39,5.46,0.69,8.18c0.09,0.84,0.44,1.66,0.77,2.45c0.4,0.95,1.16,1.56,2.15,1.89
				c1.91,0.63,3.8,0.64,5.71,0.02c1.06-0.34,1.8-1.02,2.27-2.02c0.52-1.1,0.81-2.27,0.9-3.47c0.22-3.04,0.5-6.08,0.55-9.12
				c0.12-7.2,0.12-14.41,0.15-21.61c0.01-3.26-0.05-6.53-0.07-9.79c0-0.49,0.02-0.99,0.07-1.47c0.14-1.22,1-2,2.15-1.96
				c1.13,0.03,1.93,0.87,2.01,2.11c0.01,0.12,0.01,0.25,0.01,0.37c0.04,6.62,0.04,29.16-0.12,33.8c-0.11,3.04-0.41,6.08-0.69,9.11
				c-0.12,1.35-0.55,2.65-1.14,3.88c-0.79,1.67-1.95,3-3.71,3.67c-2.88,1.1-5.85,1.45-8.87,0.67c-2.66-0.68-4.47-2.35-5.51-4.89
				c-0.83-2.03-1.1-4.16-1.26-6.31c-0.46-6.05-0.48-32.71-0.45-39.98c0-0.25,0.01-0.49,0.05-0.74c0.18-0.99,1.01-1.69,2-1.71
				c1-0.01,1.88,0.65,2.06,1.63c0.1,0.54,0.13,1.1,0.12,1.65c-0.03,4.74-0.07,9.48-0.1,14.22
				C202.12,190.77,202.19,203.7,202.37,208.81z"/>
		</g>
		<g>
			<g>
				<path class="st3" d="M144.28,199.55c0,6.49-0.73,8.2,3.98,5.95c7.19-3.44,15.64-5.64,17.28-6.16c0.89-0.28,0.74-1.33,0.08-1.59
					c-2.25-0.86-2.79-0.76-8.27-2.2C143.39,191.91,144.28,188.77,144.28,199.55C144.28,199.55,144.28,199.55,144.28,199.55z"/>
				<path class="st3" d="M160.74,180.47c-7.41-6.05-7.16-6.72-9.36-2.71c-3.98,7.24-4.01,6.52,12.11,8.87
					C168.95,187.41,165.01,183.95,160.74,180.47z"/>
				<path class="st3" d="M151.24,214.88c-0.04-0.5,0.23,2.71,2.4,6.44c1.13,1.94,2.82,0.66,4.44-0.91
					c3.86-3.74,11.54-11.73,6.32-10.44c-11.9,2.93-11.64,2.87-12.36,3.22C151.47,213.46,151.18,213.95,151.24,214.88z"/>
			</g>
			<g>
				<path class="st3" d="M287.72,199.55c0,6.49,0.73,8.2-3.98,5.95c-7.19-3.44-15.64-5.64-17.28-6.16
					c-0.89-0.28-0.74-1.33-0.08-1.59c2.25-0.86,2.79-0.76,8.27-2.2C288.61,191.91,287.72,188.77,287.72,199.55
					C287.72,199.55,287.72,199.55,287.72,199.55z"/>
				<path class="st3" d="M271.26,180.47c7.41-6.05,7.16-6.72,9.36-2.71c3.98,7.24,4.01,6.52-12.11,8.87
					C263.05,187.41,266.99,183.95,271.26,180.47z"/>
				<path class="st3" d="M280.76,214.88c0.04-0.5-0.23,2.71-2.4,6.44c-1.13,1.94-2.82,0.66-4.44-0.91
					c-3.86-3.74-11.54-11.73-6.32-10.44c11.9,2.93,11.64,2.87,12.36,3.22C280.53,213.46,280.82,213.95,280.76,214.88z"/>
			</g>
		</g>
	</g>
	<path d="M290.1,87.59c-0.06-0.26-0.06-0.54,0-0.8l4.28-19.69c0.26-1.18-0.64-2.29-1.85-2.29H139.47c-1.21,0-2.1,1.11-1.85,2.29
		l4.28,19.69c0.06,0.26,0.06,0.54,0,0.8l-4.28,19.69c-0.26,1.18,0.64,2.29,1.85,2.29h153.05c1.21,0,2.1-1.11,1.85-2.29L290.1,87.59z
		 M173.71,95.29c-0.09,1.25-0.2,2.5-0.3,3.75c-0.03,0.33-0.08,0.66-0.13,0.99c-0.07,0.45-0.35,0.68-0.79,0.72
		c-0.37,0.03-0.74,0.07-1.11,0.09c-2.48,0.18-4.96,0.35-7.44,0.52c-2.23,0.16-4.45,0.32-6.68,0.48c-0.12,0.01-0.24,0.02-0.35,0.02
		c-0.45-0.03-0.67-0.26-0.67-0.72c0-0.72,0.02-1.45,0.04-2.17c0.08-3.82,0.16-7.64,0.22-10.58c0.09-5.2,0.17-9.53,0.25-13.86
		c0-0.25,0.01-0.51,0.03-0.76c0.05-0.54,0.19-0.67,0.74-0.7c0.68-0.04,1.37-0.09,2.05-0.13c2.09-0.14,4.18-0.29,6.27-0.43
		c0.71-0.05,0.93,0.16,0.9,0.88c-0.09,2.09-0.2,4.19-0.31,6.28c-0.1,1.94-0.21,3.87-0.31,5.81c-0.12,2.19-0.23,4.38-0.34,6.57
		c-0.06,1.12-0.02,1.14,1.09,0.95c2.02-0.36,4.05-0.72,6.07-1.07c0.69-0.12,0.94,0.07,0.92,0.8
		C173.83,93.57,173.77,94.43,173.71,95.29z M188.22,76.26c-0.1,1.8-0.2,3.6-0.3,5.4c-0.2,3.87-0.4,7.74-0.6,11.62
		c-0.12,2.31-0.24,4.61-0.36,6.92c-0.04,0.66-0.28,0.9-0.94,0.96c-2.36,0.22-4.72,0.45-7.07,0.67c-0.16,0.01-0.31,0.03-0.47,0.01
		c-0.4-0.04-0.59-0.24-0.62-0.65c-0.01-0.17,0-0.35,0-0.53c0.08-4.41,0.16-8.81,0.22-11.97c0.11-5.71,0.2-10.17,0.29-14.64
		c0-0.1,0-0.2,0.01-0.29c0.04-0.46,0.21-0.63,0.66-0.66c1.35-0.09,2.7-0.18,4.04-0.27c1.43-0.1,2.85-0.19,4.28-0.29
		c0.06,0,0.12-0.01,0.18-0.02c0.59-0.02,0.83,0.2,0.82,0.8C188.33,74.31,188.28,75.28,188.22,76.26z M210.31,79
		c-0.01,0.89-0.24,1.15-1.13,1.26c-0.92,0.11-1.84,0.18-2.76,0.28c-0.57,0.06-0.73,0.2-0.77,0.77c-0.06,0.81-0.09,1.61-0.13,2.42
		c-0.18,3.48-0.35,6.96-0.53,10.44c-0.1,2.03-0.22,4.05-0.33,6.08c-0.04,0.75-0.24,0.98-0.98,1.06c-1.43,0.14-2.86,0.27-4.29,0.4
		c-0.94,0.09-1.88,0.17-2.82,0.25c-0.18,0.01-0.36,0.02-0.53,0c-0.31-0.04-0.49-0.24-0.51-0.55c-0.01-0.18-0.01-0.35-0.01-0.53
		c0.05-3.05,0.11-6.1,0.17-9.16c0,0,0,0-0.01,0c0.06-3.03,0.12-6.06,0.19-9.1c0.02-0.92-0.04-0.98-0.96-0.9
		c-0.67,0.06-1.33,0.12-2,0.2c-0.63,0.07-1.1-0.11-1.16-0.96c-0.14-2.28-0.32-4.56-0.49-6.83c-0.01-0.16-0.03-0.32-0.01-0.47
		c0.03-0.33,0.22-0.55,0.55-0.61c0.19-0.04,0.39-0.05,0.59-0.05c4.43-0.13,8.86-0.24,13.29-0.38c1.12-0.03,2.24-0.12,3.36-0.18
		c0.22-0.01,0.43-0.04,0.65-0.02c0.41,0.04,0.63,0.28,0.68,0.69c0.02,0.16,0.01,0.31,0.01,0.47C210.35,75.38,210.33,77.19,210.31,79
		z M232.4,79c-0.01,0.89-0.24,1.15-1.13,1.26c-0.92,0.11-1.84,0.18-2.76,0.28c-0.57,0.06-0.73,0.2-0.77,0.77
		c-0.06,0.81-0.09,1.61-0.13,2.42c-0.18,3.48-0.35,6.96-0.53,10.44c-0.1,2.03-0.22,4.05-0.33,6.08c-0.04,0.75-0.24,0.98-0.98,1.06
		c-1.43,0.14-2.86,0.27-4.29,0.4c-0.94,0.09-1.88,0.17-2.82,0.25c-0.18,0.01-0.36,0.02-0.53,0c-0.31-0.04-0.49-0.24-0.51-0.55
		c-0.01-0.18-0.01-0.35-0.01-0.53c0.05-3.05,0.11-6.1,0.17-9.16c0,0,0,0-0.01,0c0.06-3.03,0.12-6.06,0.19-9.1
		c0.02-0.92-0.04-0.98-0.96-0.9c-0.67,0.06-1.33,0.12-2,0.2c-0.63,0.07-1.1-0.11-1.16-0.96c-0.14-2.28-0.32-4.56-0.49-6.83
		c-0.01-0.16-0.03-0.32-0.01-0.47c0.03-0.33,0.22-0.55,0.55-0.61c0.19-0.04,0.39-0.05,0.59-0.05c4.43-0.13,8.86-0.24,13.29-0.38
		c1.12-0.03,2.24-0.12,3.36-0.18c0.22-0.01,0.43-0.04,0.65-0.02c0.41,0.04,0.63,0.28,0.68,0.69c0.02,0.16,0.01,0.31,0.01,0.47
		C232.44,75.38,232.43,77.19,232.4,79z M252.91,95.29c-0.09,1.25-0.2,2.5-0.3,3.75c-0.03,0.33-0.08,0.66-0.13,0.99
		c-0.07,0.45-0.35,0.68-0.79,0.72c-0.37,0.03-0.74,0.07-1.11,0.09c-2.48,0.18-4.96,0.35-7.44,0.52c-2.23,0.16-4.45,0.32-6.68,0.48
		c-0.12,0.01-0.24,0.02-0.35,0.02c-0.45-0.03-0.67-0.26-0.67-0.72c0-0.72,0.02-1.45,0.04-2.17c0.08-3.82,0.16-7.64,0.22-10.58
		c0.09-5.2,0.17-9.53,0.25-13.86c0-0.25,0.01-0.51,0.03-0.76c0.05-0.54,0.19-0.67,0.74-0.7c0.68-0.04,1.37-0.09,2.05-0.13
		c2.09-0.14,4.18-0.29,6.27-0.43c0.71-0.05,0.93,0.16,0.9,0.88c-0.09,2.09-0.2,4.19-0.31,6.28c-0.1,1.94-0.21,3.87-0.31,5.81
		c-0.12,2.19-0.23,4.38-0.34,6.57c-0.06,1.12-0.02,1.14,1.09,0.95c2.02-0.36,4.05-0.72,6.07-1.07c0.69-0.12,0.94,0.07,0.92,0.8
		C253.03,93.57,252.97,94.43,252.91,95.29z M274.61,101.68c-2,0.04-4,0.07-6,0.11c-3.7,0.06-7.4,0.12-11.09,0.18
		c-0.91,0.01-1.17-0.23-1.18-1.17c-0.05-3.62-0.1-7.24-0.14-10.85c-0.01-0.68-0.15-10.51-0.21-14.75c0-0.12,0-0.24,0-0.36
		c0.04-0.82,0.51-1.35,1.33-1.43c0.87-0.08,1.75-0.11,2.63-0.17c2.33-0.14,4.67-0.27,7-0.41c2.31-0.14,4.63-0.28,6.94-0.42
		c0.08,0,0.16-0.01,0.24-0.01c0.59,0.01,0.91,0.29,0.92,0.87c0.02,2.24,0.03,4.48,0.03,6.72c0,0.57-0.25,0.79-0.87,0.82
		c-2.06,0.11-4.11,0.21-6.17,0.31c-0.26,0.01-0.52,0.02-0.77,0.07c-0.6,0.12-0.82,0.38-0.84,0.99c-0.01,0.32-0.01,0.64,0,0.96
		c0.03,0.54,0.2,0.72,0.74,0.71c0.58-0.01,1.16-0.07,1.74-0.11c1.1-0.08,2.19-0.16,3.29-0.23c0.77-0.05,1.05,0.22,1.07,1.01
		c0.03,1.18,0.06,2.36,0.08,3.54c0.02,0.88-0.31,1.21-1.22,1.25c-1.54,0.07-3.07,0.15-4.61,0.24c-0.45,0.02-0.71,0.2-0.73,0.63
		c-0.04,0.81-0.04,1.63,0,2.45c0.02,0.4,0.22,0.53,0.66,0.52c1.34-0.05,2.68-0.11,4.01-0.18c0.9-0.05,1.8-0.11,2.69-0.16
		c0.08,0,0.16-0.01,0.24,0c0.89,0.02,1.02,0.15,1.06,1.05c0.1,2.1,0.2,4.19,0.31,6.29c0,0.1,0.01,0.2,0.01,0.3
		C275.79,101.32,275.47,101.66,274.61,101.68z"/>
	<path d="M201.38,349.93c0.13-0.49,0.26-0.98,0.38-1.47c0.71-2.91,1.61-5.75,2.89-8.46c0.39-0.83,0.82-1.66,1.32-2.43
		c0.45-0.69,0.97-1.37,1.57-1.94c1.66-1.6,3.68-2.19,5.94-1.78c1.74,0.32,3.02,1.34,3.9,2.87c0.69,1.2,1.08,2.51,1.25,3.86
		c0.23,1.74,0.38,3.49,0.52,5.24c0.12,1.53,0.16,3.07,0.28,4.6c0.06,0.74,0.21,1.47,0.31,2.17c0.29,0.08,0.41-0.01,0.47-0.21
		c0.57-2.12,1.16-4.23,1.69-6.36c0.09-0.36-0.03-0.77-0.09-1.16c-0.27-1.73-0.59-3.46-0.83-5.2c-0.37-2.71-0.31-5.43-0.23-8.16
		c0.01-0.31,0.02-0.61,0.04-0.92c0.02-0.33-0.07-0.6-0.32-0.83c-0.13-0.12-0.24-0.26-0.36-0.39c-2.39-2.64-3.61-5.78-3.89-9.3
		c-0.21-2.62,0.06-5.17,1.06-7.63c0.5-1.23,1.12-2.39,1.97-3.41c2.84-3.41,6.42-4.59,10.72-3.52c2.81,0.7,5.13,2.23,7.12,4.3
		c1.47,1.53,2.66,3.27,3.64,5.14c1.89,3.61,3.08,7.45,3.73,11.47c0.07,0.43,0.16,0.85,0.26,1.37c0.27-0.09,0.47-0.13,0.64-0.23
		c1.02-0.61,2.02-1.24,3.05-1.84c0.46-0.27,0.68-0.63,0.73-1.16c0.09-1.05,0.22-2.09,0.34-3.2c-0.28-0.35-0.58-0.72-0.87-1.1
		c-3.82-5.09-4.89-10.69-3.08-16.8c0.4-1.36,1.02-2.62,1.91-3.73c1.97-2.47,4.49-3.89,7.71-3.87c1.34,0.01,2.6,0.39,3.8,0.96
		c2.61,1.22,4.68,3.09,6.33,5.42c1.54,2.17,2.59,4.58,3.41,7.1c1.02,3.14,1.68,6.36,2.12,9.63c0.02,0.17,0.06,0.34,0.1,0.6
		c0.22-0.05,0.44-0.05,0.6-0.15c0.38-0.22,0.73-0.48,1.12-0.74c0-0.43,0-0.82,0-1.21c-0.01-3.87,0.03-7.73,0.33-11.59
		c0.47-6.09,1.29-12.14,2.87-18.05c0.84-3.12,2.14-6.04,3.97-8.7c0.85-1.24,1.86-2.34,3.11-3.19c1.33-0.92,2.79-1.49,4.4-1.6
		c2.17-0.14,4.07,0.55,5.61,2.11c1.4,1.41,2.23,3.14,2.69,5.05c0.57,2.39,0.49,4.79,0.11,7.2c-0.72,4.58-2.5,8.76-4.75,12.77
		c-2.47,4.38-5.34,8.47-8.76,12.16c-0.49,0.52-0.68,1.06-0.69,1.76c-0.03,4.35,0.09,8.69,0.54,13.03c0.36,3.45,0.76,6.89,1.42,10.3
		c0.51,2.68,1.12,5.33,2.1,7.88c0.41,1.06,0.92,2.09,1.43,3.11c0.25,0.5,0.59,0.98,1.21,1.28c0.21-0.16,0.48-0.31,0.67-0.52
		c0.65-0.73,1.07-1.61,1.43-2.5c0.69-1.68,1.02-3.45,1.31-5.23c0.74-4.51,1.06-9.07,1.32-13.63c0.04-0.7,0.11-1.41,0.28-2.08
		c0.2-0.81,0.99-1.28,1.82-1.2c0.43,0.04,0.76,0.24,0.87,0.68c0.09,0.34,0.15,0.69,0.16,1.03c0.03,0.75,0.04,1.49,0.01,2.24
		c-0.19,4.52-0.48,9.04-1.3,13.49c-0.29,1.55-0.65,3.09-1.07,4.61c-0.41,1.49-1.11,2.86-2.06,4.09c-0.68,0.88-1.46,1.64-2.43,2.19
		c-1.77,1.01-3.58,1.08-5.42,0.18c-0.8-0.39-1.49-0.93-2.12-1.54c-1.43-1.39-2.58-2.99-3.49-4.76c-1.53-2.94-2.62-6.04-3.41-9.25
		c-1.04-4.23-1.65-8.53-1.89-12.88c-0.07-1.18-0.15-2.37-0.23-3.55c-0.01-0.12-0.07-0.23-0.13-0.41c-0.51,0.09-0.9,0.35-1.32,0.67
		c-0.01,0.23-0.05,0.49-0.03,0.75c0.23,3.47,0.19,6.93,0,10.4c-0.19,3.64-0.6,7.26-1.17,10.87c-0.38,2.39-0.8,4.76-1.57,7.06
		c-0.29,0.87-0.65,1.72-1.03,2.56c-0.19,0.44-0.46,0.85-0.74,1.24c-1.83,2.54-4.79,3.25-7.58,1.82c-1.27-0.65-2.32-1.58-3.27-2.63
		c-1.58-1.74-2.76-3.74-3.73-5.87c-1.17-2.57-1.92-5.27-2.38-8.06c-0.59-3.61-0.87-7.23-0.87-10.89c0-0.33,0.09-0.69-0.11-1.01
		c-0.78,0.22-2.63,1.28-3.78,2.17c0,0.27-0.01,0.58,0,0.88c0.13,4.62-0.17,9.22-0.81,13.79c-0.34,2.39-0.79,4.76-1.54,7.07
		c-0.38,1.17-0.84,2.31-1.46,3.38c-0.53,0.92-1.18,1.75-2.02,2.41c-2.02,1.58-4.24,2.02-6.68,1.14c-1.17-0.42-2.2-1.08-3.16-1.86
		c-1.96-1.61-3.49-3.57-4.75-5.76c-0.21-0.37-0.32-0.81-0.8-1.13c-0.14,0.43-0.26,0.78-0.37,1.14c-0.25,0.79-0.48,1.6-0.76,2.38
		c-0.16,0.45-0.37,0.9-0.63,1.3c-1.12,1.69-3.18,2.2-4.98,1.25c-0.92-0.48-1.62-1.2-2.24-2.01c-1.21-1.58-2.11-3.33-2.77-5.21
		c-0.69-1.96-1-4-1.28-6.04c-0.18-1.3-0.36-2.61-0.55-3.91c-0.02-0.16-0.1-0.32-0.13-0.44c-0.35-0.13-0.48,0.09-0.58,0.26
		c-0.57,0.99-1.18,1.96-1.66,2.99c-1.37,2.97-2.14,6.12-2.62,9.35c-0.48,3.27-0.6,6.56-0.52,9.86c0.01,0.48-0.02,0.97,0.02,1.45
		c0.15,1.76-1.13,3.13-2.68,3.64c-1.32,0.44-2.53,0.2-3.5-0.84c-0.51-0.54-0.97-1.14-1.38-1.76c-1.89-2.84-3.18-5.96-4.04-9.25
		c-0.41-1.57-0.72-3.17-1.09-4.75c-0.06-0.24-0.14-0.48-0.23-0.81c-0.28,0.11-0.48,0.18-0.66,0.27c-4.92,2.32-9.57,1.71-13.91-1.42
		c-3.38-2.44-5.68-5.71-7.09-9.61c-1.21-3.36-1.98-6.82-2.4-10.37c-0.24-2.01-0.28-4.03-0.32-6.05c-0.01-0.34-0.03-0.67-0.05-1.01
		c-0.17,0-0.29-0.04-0.33,0.01c-1.36,1.23-2.72,2.48-4.12,3.76c0.21,0.45,0.37,0.85,0.56,1.23c1.77,3.59,3.21,7.31,4.15,11.22
		c0.74,3.09,1.12,6.22,0.93,9.4c-0.1,1.67-0.35,3.32-0.9,4.91c-1.97,5.77-6.03,9.25-11.9,10.63c-3.43,0.81-6.81,0.49-10.02-1.05
		c-1.32-0.63-2.5-1.46-3.53-2.5c-1.98-1.98-3.04-4.37-3.21-7.16c-0.15-2.37,0.34-4.63,1.26-6.8c0.91-2.16,2.19-4.1,3.67-5.91
		c1.86-2.29,3.97-4.34,6.15-6.32c1.11-1,2.23-1.98,3.35-2.97c0.33-0.29,0.65-0.58,1.03-0.91c-0.26-0.51-0.46-0.94-0.7-1.35
		c-2.06-3.58-4.12-7.16-6.19-10.72c-1.81-3.11-3.7-6.18-5.46-9.32c-2.09-3.72-3.84-7.6-5.04-11.71c-0.8-2.76-1.29-5.56-1.17-8.44
		c0.15-3.77,1.38-7.14,3.86-10c2.55-2.94,5.8-4.34,9.69-4.12c2.23,0.12,4.3,0.82,6.23,1.94c3.81,2.21,6.34,5.48,7.85,9.58
		c1.67,4.51,1.76,9.1,0.71,13.74c-0.15,0.64-0.37,1.27-0.62,1.87c-0.31,0.74-1.12,1.03-1.86,0.71c-0.35-0.15-0.56-0.44-0.56-0.82
		c-0.01-0.44,0.01-0.88,0.05-1.31c0.11-1.18,0.25-2.36,0.35-3.54c0.35-4.11-0.35-8.05-2.05-11.81c-0.78-1.74-1.84-3.3-3.23-4.61
		c-1-0.95-2.12-1.71-3.42-2.18c-0.49-0.18-1-0.35-1.52-0.42c-2-0.29-3.62,0.4-4.84,2.02c-0.97,1.3-1.48,2.78-1.71,4.37
		c-0.6,4.04-0.12,7.97,1.2,11.81c1.11,3.21,2.55,6.26,4.23,9.2c1.18,2.06,2.43,4.07,3.64,6.11c2.34,3.92,4.69,7.84,7.03,11.76
		c0.15,0.26,0.32,0.51,0.54,0.84c0.25-0.19,0.46-0.33,0.64-0.49c1.54-1.37,3.06-2.77,4.64-4.1c0.63-0.53,0.9-1.12,0.96-1.91
		c0.16-2.24,0.54-4.44,1.11-6.62c0.78-2.97,2.11-5.67,4.05-8.06c0.72-0.89,1.56-1.67,2.53-2.28c4-2.52,8.62-1.19,10.85,2.35
		c0.42,0.66,0.79,1.38,1.05,2.12c0.92,2.7,1.24,5.47,0.79,8.31c-0.06,0.39-0.15,0.78-0.33,1.13c-0.13,0.25-0.38,0.49-0.63,0.63
		c-0.72,0.39-1.45,0.07-1.61-0.74c-0.16-0.82-0.24-1.65-0.34-2.48c-0.18-1.48-0.37-2.97-0.83-4.39c-0.3-0.91-0.66-1.82-1.12-2.66
		c-0.33-0.6-0.81-1.15-1.32-1.62c-0.93-0.85-1.59-0.76-2.28,0.27c-0.32,0.47-0.6,0.98-0.78,1.52c-0.38,1.12-0.79,2.25-0.99,3.41
		c-0.9,5.29-1.51,10.61-1.4,15.99c0.08,4.07,0.72,8.04,1.95,11.92c0.62,1.97,1.31,3.91,2.19,5.78c0.76,1.6,1.66,3.1,2.9,4.37
		c0.84,0.86,1.82,1.5,2.99,1.85c1.76,0.52,3.28,0.1,4.67-1.08c-0.08-0.67-0.14-1.32-0.23-1.96c-0.51-3.7-0.8-7.42-0.89-11.16
		c-0.13-5.68,0.22-11.33,1.45-16.89c0.58-2.63,1.43-5.16,2.87-7.46c0.96-1.54,2.06-2.96,3.49-4.09c1.08-0.86,2.27-1.49,3.64-1.76
		c2.31-0.46,4.26,0.18,5.82,1.93c0.83,0.93,1.4,2.01,1.83,3.18c0.61,1.67,0.85,3.4,0.88,5.17c0.04,2.84-0.46,5.6-1.23,8.31
		c-1.94,6.84-4.71,13.32-8.53,19.33c-0.46,0.72-0.59,1.39-0.44,2.22c0.43,2.29,0.78,4.59,1.17,6.88
		C201.03,349.59,201.02,349.83,201.38,349.93z M155.83,331.94c-0.17,0.1-0.3,0.15-0.39,0.24c-2.5,2.46-5.06,4.87-7.35,7.54
		c-1.47,1.7-2.74,3.54-3.61,5.63c-0.66,1.6-1.07,3.25-0.99,4.99c0.12,2.63,1.22,4.73,3.45,6.17c2.31,1.5,4.81,1.79,7.44,1.09
		c2.07-0.56,3.61-1.76,4.41-3.79c0.3-0.77,0.59-1.56,0.8-2.36c0.65-2.47,0.53-4.97,0.16-7.45c-0.59-3.97-1.87-7.75-3.53-11.4
		C156.14,332.36,155.97,332.16,155.83,331.94z M257.97,322.29c3.29,1.02,6.31,0.4,9.34-0.74c0.01-0.27,0.05-0.49,0.03-0.7
		c-0.35-3.72-0.99-7.39-2.1-10.96c-0.66-2.1-1.45-4.14-2.59-6.03c-0.89-1.48-1.99-2.79-3.35-3.85c-0.87-0.68-1.81-1.23-2.87-1.56
		c-1.44-0.46-2.77-0.25-3.98,0.65c-1.09,0.8-1.86,1.85-2.39,3.09c-0.66,1.55-1.03,3.17-1.11,4.85c-0.15,3.11,0.66,5.99,2.08,8.73
		c0.11,0.21,0.28,0.4,0.43,0.61c0.37-0.3,0.67-0.55,0.99-0.78c0.73-0.53,1.55-0.82,2.45-0.85c1.3-0.04,2.29,0.6,2.79,1.8
		c0.13,0.32,0.22,0.67,0.29,1.01c0.22,1.09,0.17,2.18,0.1,3.28C258.03,321.25,258,321.69,257.97,322.29z M229.68,330.57
		c2.41,1.24,8.13,0.87,11.05-0.71c0-0.28,0.04-0.59-0.01-0.88c-0.34-2.03-0.62-4.08-1.08-6.09c-0.71-3.14-1.89-6.12-3.59-8.87
		c-1.02-1.66-2.22-3.16-3.76-4.37c-1.05-0.82-2.2-1.44-3.5-1.77c-1.67-0.42-3.21-0.17-4.61,0.89c-1.19,0.9-2.05,2.05-2.62,3.4
		c-1.57,3.71-1.52,7.43,0.01,11.14c0.05,0.13,0.21,0.22,0.33,0.35c0.35-0.7,0.62-1.35,0.98-1.95c0.74-1.23,1.83-1.99,3.25-2.25
		c2-0.37,3.59,0.74,3.9,2.74c0.08,0.52,0.13,1.05,0.1,1.57c-0.07,1.23-0.19,2.45-0.3,3.68C229.74,328.5,229.62,329.54,229.68,330.57
		z M263.86,353.2c0.57-0.83,0.86-1.75,1.16-2.67c1.17-3.66,1.76-7.43,2.12-11.24c0.19-2.01,0.35-4.03,0.41-6.04
		c0.08-2.68,0.05-5.36,0.05-8.04c0-0.29,0.09-0.63-0.31-0.84c-0.13,0.03-0.3,0.06-0.46,0.12c-2.69,0.92-5.45,1.35-8.29,1.17
		c-0.24-0.02-0.49,0.05-0.69,0.07c-0.07,0.18-0.12,0.26-0.13,0.34c-0.02,0.22-0.03,0.44-0.04,0.66c-0.17,5.16,0.25,10.27,1.38,15.31
		c0.57,2.53,1.19,5.05,2.24,7.42c0.41,0.92,0.92,1.8,1.43,2.66C262.99,352.56,263.32,352.99,263.86,353.2z M229.6,334.29
		c-0.04,1.47,0.07,2.73,0.21,3.99c0.36,3.1,1.1,6.13,2.02,9.11c0.59,1.89,1.28,3.74,2.34,5.42c0.44,0.7,0.97,1.35,1.51,1.98
		c0.31,0.36,0.68,0.7,1.26,0.67c0.55-0.39,0.81-1,1.1-1.58c0.63-1.26,1.04-2.61,1.39-3.97c1.41-5.4,1.83-10.89,1.6-16.45
		c0-0.12-0.08-0.23-0.17-0.46C237.26,334.34,233.54,334.67,229.6,334.29z M288.81,278.25c-0.17,0.14-0.33,0.23-0.43,0.36
		c-0.24,0.31-0.48,0.63-0.68,0.97c-0.68,1.13-1.19,2.35-1.61,3.6c-1,3-1.72,6.08-2.33,9.18c-0.65,3.32-1.15,6.66-1.51,10.02
		c-0.24,2.27-0.38,4.55-0.55,6.83c-0.02,0.23-0.15,0.52,0.24,0.71c0.19-0.21,0.41-0.41,0.59-0.65c1.69-2.14,3.27-4.36,4.64-6.71
		c1.57-2.7,2.93-5.5,3.83-8.51c0.92-3.05,1.41-6.16,1.2-9.35c-0.09-1.42-0.4-2.78-1.05-4.05
		C290.62,279.61,289.93,278.74,288.81,278.25z M199.34,334.62c0.13-0.21,0.28-0.41,0.39-0.63c2.28-4.32,4.12-8.82,5.44-13.53
		c0.72-2.59,1.2-5.21,1.11-7.92c-0.04-1.19-0.22-2.36-0.59-3.49c-0.32-0.97-0.75-1.88-1.49-2.61c-0.2-0.2-0.47-0.32-0.78-0.53
		c-0.32,0.52-0.66,0.94-0.86,1.41c-0.41,0.97-0.84,1.94-1.08,2.96c-0.58,2.43-1.09,4.88-1.55,7.34c-0.6,3.2-0.83,6.44-0.95,9.69
		C198.89,329.72,198.9,332.13,199.34,334.62z"/>
	<g>
		<path d="M150.33,151.39c-0.22,0.21-0.42,0.36-0.58,0.55c-2.1,2.46-4.15,4.96-6,7.62c-2.91,4.17-5.16,8.65-6.49,13.57
			c-0.81,3.02-1.26,6.08-1.17,9.21c0.02,0.67,0.01,1.34-0.01,2.02c-0.02,0.55-0.3,0.95-0.79,1.2c-0.68,0.35-1.26,0.17-1.52-0.55
			c-0.21-0.59-0.35-1.21-0.45-1.83c-0.43-2.73-0.21-5.45,0.35-8.14c1.06-5.12,3.09-9.84,5.82-14.27c1.79-2.9,3.84-5.62,6-8.25
			c1.09-1.33,2.19-2.66,3.31-3.97c0.34-0.39,0.43-0.76,0.29-1.26c-0.75-2.67-1.23-5.4-1.57-8.16c-0.4-3.22-0.55-6.45-0.1-9.68
			c0.4-2.88,1.3-5.55,3.13-7.86c0.95-1.21,2.1-2.18,3.52-2.78c1.22-0.52,2.48-0.76,3.81-0.5c1.47,0.28,2.66,0.99,3.6,2.14
			c1.44,1.75,2.12,3.79,2.3,6.02c0.13,1.7-0.14,3.35-0.61,4.98c-0.5,1.74-1.22,3.4-2.05,5c-0.99,1.9-2.11,3.73-3.34,5.49
			c-0.24,0.34-0.47,0.69-0.69,1.01c0.24,1.9,2.31,8.97,2.93,9.99c0.28-0.08,0.2-0.33,0.23-0.51c0.76-5.59,2.05-11.06,4.06-16.34
			c0.66-1.72,1.45-3.4,2.24-5.06c0.6-1.25,1.36-2.42,2.36-3.4c2.16-2.12,4.73-2.81,7.65-2.04c1.83,0.48,3.2,1.61,4.18,3.23
			c0.86,1.42,1.36,2.97,1.71,4.58c0.04,0.2,0.11,0.4,0.18,0.59c0.01,0.03,0.07,0.04,0.18,0.09c0.06-0.14,0.12-0.27,0.17-0.4
			c0.59-1.66,1.12-3.34,1.78-4.98c0.74-1.84,1.75-3.54,3.05-5.05c1.09-1.28,2.41-2.19,4.09-2.55c2.78-0.59,5.57,0.67,6.93,3.19
			c0.69,1.27,1.04,2.65,1.27,4.07c0.48,2.95,0.63,5.93,0.73,8.91c0.14,4.12,0.43,8.22,0.92,12.31c0.21,1.71,0.38,3.42,0.64,5.12
			c0.17,1.11,0.41,2.22,0.98,3.2c0.33,0.05,0.39-0.19,0.46-0.35c0.35-0.81,0.72-1.61,1.01-2.45c0.62-1.83,1.18-3.68,1.8-5.5
			c0.32-0.94,0.37-1.87,0.22-2.85c-0.54-3.5-0.62-7.03-0.44-10.56c0.06-1.21,0.28-2.42,0.45-3.62c0.04-0.29,0.15-0.57,0.24-0.85
			c0.59-1.89,2.53-3.21,5.07-2.63c1.08,0.25,1.88,0.94,2.25,2.01c0.16,0.47,0.27,0.98,0.3,1.47c0.09,1.26,0.15,2.52,0.17,3.78
			c0.02,2.48,0.05,4.95,0.31,7.43c0.41,3.86,1.27,7.62,2.57,11.27c0.21,0.59,0.49,1.17,0.8,1.71c0.23,0.39,0.54,0.75,0.86,1.07
			c0.33,0.33,0.63,0.36,1.02,0.07c0.5-0.37,0.99-0.78,1.44-1.21c1.39-1.35,2.6-2.86,3.71-4.45c1.79-2.55,3.34-5.24,4.78-8
			c0.06-0.11,0.09-0.23,0.16-0.41c-0.22-0.17-0.43-0.35-0.66-0.51c-0.96-0.68-1.95-1.32-2.89-2.02c-1.05-0.78-1.98-1.69-2.82-2.69
			c-1.84-2.2-2.85-4.73-3.09-7.58c-0.11-1.31,0.03-2.61,0.43-3.86c1.16-3.63,3.47-6.3,6.95-7.87c1.59-0.72,3.27-1.02,5.04-0.65
			c1.59,0.33,2.9,1.09,3.9,2.35c1.07,1.34,1.68,2.89,2.01,4.57c0.41,2.06,0.23,4.1-0.14,6.14c-0.37,2.03-0.99,3.99-1.68,5.93
			c-0.14,0.39-0.29,0.78-0.45,1.21c0.25,0.17,0.43,0.33,0.65,0.44c1.38,0.71,2.77,1.4,4.16,2.1c1.99,1,3.95,2.05,5.81,3.29
			c0.17,0.11,0.36,0.2,0.58,0.33c0.31-0.23,0.62-0.45,0.91-0.68c2.16-1.74,4.28-3.53,6.24-5.5c0.11-0.11,0.19-0.25,0.33-0.43
			c-0.39-0.27-0.72-0.5-1.07-0.73c-1.33-0.89-2.57-1.89-3.65-3.08c-1.32-1.45-2.3-3.11-2.71-5.05c-0.57-2.7-0.1-5.21,1.61-7.38
			c1.83-2.31,4.21-3.84,7.17-4.33c2.11-0.35,4.11,0.01,5.96,1.05c2.88,1.63,4.32,4.96,3.63,8.31c-0.32,1.58-0.97,3.04-1.75,4.43
			c-0.35,0.62-0.74,1.22-1.11,1.83c-0.12,0.21-0.23,0.43-0.33,0.64c1.02,0.64,6.06,2.67,7.92,3.2c0.21-0.38,0.43-0.77,0.64-1.17
			c1.7-3.29,3.59-6.46,5.73-9.48c1.56-2.2,3.28-4.26,5.35-6.01c1.16-0.98,2.39-1.86,3.74-2.55c1.68-0.85,3.44-1.35,5.34-1.21
			c2.83,0.21,4.78,1.68,5.87,4.28c0.7,1.66,0.86,3.41,0.67,5.19c-0.07,0.63-0.14,1.26-0.29,1.87c-0.22,0.9-1,1.39-1.9,1.27
			c-0.9-0.12-1.34-0.61-1.32-1.52c0.02-0.92,0.09-1.85,0.08-2.77c-0.01-1.28-0.36-2.49-0.92-3.63c-0.04-0.08-0.07-0.15-0.11-0.22
			c-1-1.81-2.22-2.29-4.21-1.64c-0.85,0.28-1.62,0.7-2.35,1.2c-1.5,1.02-2.82,2.25-4.04,3.59c-1.84,2.03-3.45,4.23-4.9,6.55
			c-1.35,2.18-2.61,4.41-3.71,6.73c-0.14,0.3-0.25,0.61-0.41,0.97c0.45,0.22,0.86,0.43,1.27,0.62c2.06,0.97,4.04,2.06,5.87,3.42
			c2.01,1.5,3.71,3.28,5,5.44c2.46,4.15,2.65,8.44,0.65,12.78c-1.62,3.54-4.24,6.13-7.95,7.47c-1.77,0.64-3.59,0.81-5.45,0.43
			c-2.13-0.43-3.79-1.53-4.96-3.36c-1-1.58-1.62-3.32-2.04-5.13c-0.79-3.41-0.78-6.84-0.1-10.26c0.4-2.05,0.97-4.08,1.48-6.19
			c-0.18-0.33-0.64-0.38-1.01-0.53c-2.33-0.96-4.67-1.88-7-2.83c-0.62-0.25-1.22-0.53-1.82-0.78c-2.7,2.36-5.35,4.67-8.06,7.04
			c0.31,0.33,0.59,0.64,0.87,0.94c0.96,1.01,1.8,2.11,2.43,3.36c1.13,2.24,1.58,4.59,1.14,7.08c-0.21,1.18-0.67,2.26-1.37,3.22
			c-2.35,3.16-5.52,4.85-9.44,5.04c-0.9,0.04-1.85-0.12-2.73-0.37c-3.15-0.9-5.08-3.85-4.75-7.12c0.15-1.5,0.66-2.86,1.42-4.13
			c0.78-1.31,1.75-2.46,2.8-3.56c0.29-0.3,0.58-0.6,0.94-0.96c-0.18-0.19-0.32-0.38-0.5-0.52c-1.53-1.12-3.17-2.06-4.86-2.9
			c-0.82-0.41-1.62-0.86-2.53-1.23c-0.26,0.45-0.48,0.84-0.7,1.24c-1.7,3.1-3.52,6.12-5.66,8.93c-1.1,1.44-2.27,2.81-3.61,4.03
			c-0.78,0.71-1.6,1.37-2.55,1.83c-2.99,1.46-5.84,1.3-8.48-0.85c-1.72-1.41-2.95-3.21-3.91-5.2c-0.22-0.45-0.43-0.9-0.62-1.31
			c-0.3-0.07-0.32,0.11-0.37,0.26c-0.37,1.07-0.71,2.15-1.1,3.22c-0.25,0.67-0.54,1.32-0.87,1.95c-0.39,0.76-0.94,1.4-1.65,1.87
			c-1.45,0.95-2.97,1.1-4.53,0.31c-0.95-0.48-1.73-1.18-2.42-1.98c-1.48-1.71-2.49-3.67-3.3-5.77c-0.86-2.22-1.22-4.53-1.47-6.88
			c-0.43-4.01-0.54-8.05-0.79-12.07c-0.15-2.56-0.27-5.12-0.74-7.64c-0.03-0.16-0.08-0.32-0.12-0.44c-0.3-0.16-0.43,0.03-0.56,0.18
			c-0.98,1.17-1.73,2.48-2.35,3.86c-1.05,2.35-1.75,4.81-2.26,7.33c-0.71,3.51-1.07,7.06-1.28,10.62c-0.13,2.22-0.23,4.45-0.38,6.67
			c-0.15,2.13-1.74,3.6-3.89,3.65c-1.09,0.03-1.97-0.37-2.6-1.27c-0.26-0.38-0.48-0.79-0.69-1.2c-1.09-2.13-1.51-4.44-1.73-6.79
			c-0.36-3.93-0.68-7.87-1.07-11.8c-0.16-1.58-0.43-3.16-0.73-4.73c-0.15-0.77-0.48-1.52-0.75-2.27c-0.08-0.22-0.24-0.41-0.38-0.64
			c-0.5,0.22-0.78,0.59-1.08,0.94c-0.83,0.96-1.48,2.03-2.07,3.15c-1.35,2.58-2.26,5.33-3.01,8.14c-1.03,3.86-1.72,7.79-2.07,11.77
			c-0.15,1.72-0.29,3.43-0.47,5.14c-0.15,1.52-0.97,2.56-2.4,3.1c-1.09,0.42-2.16,0.36-3.13-0.3c-0.62-0.42-1.2-0.92-1.72-1.46
			c-2.01-2.07-3.51-4.49-4.82-7.05c-0.36-0.71-0.68-1.44-1.02-2.17C150.6,151.89,150.47,151.68,150.33,151.39z M272.21,145.72
			c-0.12,0.2-0.19,0.26-0.21,0.34c-0.98,3.34-1.35,6.74-1.03,10.2c0.18,1.94,0.75,3.78,1.77,5.46c0.44,0.72,0.96,1.38,1.65,1.88
			c0.84,0.6,1.75,0.77,2.75,0.5c0.83-0.23,1.36-0.84,1.76-1.54c1.66-2.92,2.21-5.97,0.85-9.16
			C278.25,149.88,275.63,147.45,272.21,145.72z M233.79,136.75c0.28-0.9,0.52-1.61,0.72-2.33c0.66-2.39,1.07-4.82,0.9-7.31
			c-0.08-1.1-0.32-2.16-0.82-3.14c-0.26-0.51-0.61-1-1-1.43c-0.51-0.56-0.94-0.55-1.54-0.09c-0.61,0.47-1.07,1.07-1.41,1.74
			c-1.33,2.64-1.55,5.37-0.51,8.14C230.8,134.15,232.04,135.53,233.79,136.75z M260.72,132.63c1.27-1.89,2.18-3.76,2.54-5.86
			c0.08-0.49,0.12-1.01,0.08-1.5c-0.11-1.35-0.6-2.53-1.69-3.39c-1.31-1.03-2.76-0.85-3.73,0.49c-0.32,0.43-0.57,0.94-0.74,1.45
			c-0.21,0.59-0.32,1.21-0.43,1.83c-0.25,1.38,0.05,2.67,0.76,3.86C258.27,130.8,259.36,131.75,260.72,132.63z M156.28,138.55
			c0.25-0.32,0.36-0.44,0.44-0.58c0.9-1.52,1.72-3.08,2.39-4.71c0.61-1.48,1.08-3,1.3-4.59c0.28-1.97,0.01-3.86-1.05-5.58
			c-0.37-0.61-0.77-1.2-1.48-1.49c-0.5,0.26-0.71,0.74-0.88,1.2c-0.29,0.83-0.57,1.67-0.74,2.53c-0.8,4.08-0.71,8.19-0.2,12.29
			C156.09,137.87,156.17,138.11,156.28,138.55z M244.37,152.42c-1.01,1.02-1.78,2.01-2.36,3.13c-0.43,0.83-0.71,1.71-0.78,2.64
			c-0.08,1.2,0.27,2.24,1.22,3.03c0.9,0.74,2.06,0.79,3.04,0.14c0.74-0.49,1.15-1.19,1.28-2.07
			C247.14,156.63,246.12,154.47,244.37,152.42z"/>
		<path d="M207.62,123.02c0.04-1.98,1.61-3.46,3.61-3.39c1.91,0.06,3.37,1.62,3.34,3.55c-0.03,1.97-1.71,3.49-3.62,3.39
			C209.03,126.48,207.59,124.96,207.62,123.02z"/>
	</g>
	<g>
		<g>
			<path d="M225.34,285.59c-0.04,1.13-0.08,2.79-0.17,4.45c-0.05,0.8-0.2,1.59-0.33,2.38c-0.04,0.23-0.12,0.45-0.2,0.67
				c-0.41,1.14-1.37,1.98-2.55,2.22c-1.21,0.24-2.38,0.17-3.55-0.19c-0.72-0.22-1.15-0.67-1.21-1.44c-0.02-0.29-0.04-0.57-0.05-0.86
				c-0.03-0.64-0.04-1.29-0.08-1.93c-0.01-0.2-0.05-0.4-0.1-0.59c-0.06-0.23-0.21-0.41-0.43-0.5c-0.46-0.2-0.92-0.16-1.38-0.01
				c-0.19,0.06-0.26,0.22-0.28,0.4c-0.03,0.28-0.03,0.57-0.05,0.86c-0.05,0.68-0.1,1.37-0.16,2.05c-0.02,0.18-0.08,0.36-0.14,0.54
				c-0.3,0.94-0.94,1.42-1.91,1.54c-0.69,0.08-1.37,0.05-2.05-0.1c-0.94-0.21-1.59-0.76-1.93-1.66c-0.35-0.93-0.53-1.9-0.68-2.88
				c-0.38-2.43-0.63-4.88-0.79-7.34c-0.13-1.91-0.18-3.83-0.24-5.75c-0.03-0.8,0.06-1.6,0.24-2.39c0.04-0.18,0.1-0.36,0.17-0.53
				c0.19-0.47,0.6-0.83,1.1-0.93c0.33-0.07,0.67-0.14,1.01-0.15c1.07-0.03,2.15-0.04,3.21,0.14c0.42,0.07,0.83,0.21,1.24,0.33
				c0.63,0.19,0.95,0.66,1.09,1.27c0.07,0.3,0.1,0.62,0.1,0.94c0.01,1.1,0,2.21,0.01,3.31c0,0.28,0.02,0.57,0.08,0.85
				c0.1,0.51,0.44,0.79,0.91,0.82c0.48,0.03,0.84-0.21,1-0.71c0.08-0.26,0.13-0.53,0.14-0.8c0.02-0.8,0.02-1.6,0.03-2.4
				c0.01-0.54,0.02-1.09,0.06-1.63c0.08-1,0.59-1.56,1.56-1.79c0.85-0.21,1.71-0.14,2.56-0.06c0.28,0.03,0.57,0.09,0.85,0.13
				c0.81,0.11,1.35,0.59,1.68,1.31c0.12,0.27,0.22,0.56,0.3,0.85c0.46,1.78,0.72,3.59,0.79,5.43
				C225.23,282.62,225.27,283.84,225.34,285.59z"/>
			<path d="M227.34,280.79c0.04-0.97,0.07-2.01,0.14-3.05c0.02-0.36,0.11-0.73,0.21-1.08c0.33-1.17,1.06-2,2.19-2.48
				c1.15-0.48,2.36-0.7,3.59-0.79c2.37-0.19,4.72-0.04,7.06,0.35c0.74,0.12,1.46,0.29,2.15,0.6c1.02,0.47,1.59,1.27,1.72,2.37
				c0.13,1.08,0.19,2.16-0.02,3.24c-0.07,0.34-0.18,0.68-0.31,1c-0.21,0.49-0.6,0.81-1.14,0.87c-0.59,0.06-1.2,0.09-1.8,0.05
				c-1.02-0.06-2.04-0.18-3.07-0.26c-0.45-0.03-0.91-0.05-1.36-0.02c-0.6,0.05-0.9,0.49-0.8,1.08c0.06,0.36,0.25,0.55,0.62,0.56
				c0.37,0.01,0.73-0.03,1.1-0.05c0.44-0.02,0.88-0.06,1.32-0.06c0.44-0.01,0.71,0.24,0.84,0.64c0.23,0.66,0.28,1.35,0.18,2.04
				c-0.09,0.59-0.38,0.9-0.97,0.96c-0.63,0.06-1.26,0.05-1.89,0.07c-0.17,0.01-0.35,0.01-0.52,0.06c-0.24,0.07-0.32,0.22-0.3,0.47
				c0.03,0.39,0.33,0.69,0.77,0.69c0.42,0,0.85-0.07,1.27-0.1c1.15-0.1,2.31-0.22,3.46-0.3c0.42-0.03,0.85,0.01,1.27,0.06
				c1.13,0.13,1.84,0.81,2.04,1.92c0.17,0.97,0.13,1.93-0.11,2.88c-0.25,0.98-0.83,1.69-1.79,2.09c-0.81,0.34-1.66,0.5-2.52,0.59
				c-1.27,0.14-2.54,0.26-3.81,0.31c-1.63,0.06-3.25-0.04-4.85-0.38c-0.28-0.06-0.56-0.17-0.84-0.27c-0.75-0.27-1.3-0.78-1.68-1.47
				c-0.44-0.8-0.73-1.66-0.94-2.55c-0.44-1.87-0.74-3.77-0.9-5.68C227.53,283.73,227.45,282.29,227.34,280.79z"/>
			<path d="M193.78,273.38c1.8,0.12,3.92,0.25,6.03,0.42c0.93,0.07,1.86,0.15,2.76,0.42c0.11,0.03,0.23,0.06,0.34,0.1
				c0.92,0.3,1.44,0.94,1.58,1.9c0.15,1.05,0.11,2.1-0.1,3.14c-0.06,0.3-0.17,0.6-0.31,0.87c-0.36,0.69-0.94,1.06-1.73,1.02
				c-0.58-0.02-1.15-0.09-1.73-0.11c-1.26-0.05-1.41,0.17-1.62,1.36c-0.27,1.56-0.2,3.13-0.14,4.7c0.05,1.54,0.11,3.08,0.13,4.62
				c0.01,0.6-0.07,1.21-0.19,1.81c-0.07,0.35-0.25,0.69-0.42,1.02c-0.25,0.48-0.69,0.74-1.21,0.8c-0.69,0.08-1.39,0.08-2.08-0.06
				c-0.77-0.16-1.3-0.58-1.43-1.38c-0.11-0.73-0.22-1.47-0.25-2.2c-0.05-1.01-0.01-2.02-0.03-3.02c-0.02-1.63-0.1-3.26-0.35-4.87
				c-0.05-0.34-0.12-0.67-0.22-1c-0.27-0.86-0.82-1.44-1.74-1.58c-0.58-0.09-1.18-0.1-1.77-0.17c-0.34-0.04-0.68-0.1-1-0.2
				c-0.72-0.23-1.16-0.74-1.34-1.47c-0.17-0.71-0.21-1.44-0.16-2.17c0.05-0.77,0.12-1.54,0.26-2.29c0.22-1.18,0.62-1.51,1.81-1.66
				c0.32-0.04,0.65-0.05,0.98-0.04C191.07,273.34,192.27,273.36,193.78,273.38z"/>
		</g>
		<g>
			<circle cx="176.9" cy="281.34" r="4.01"/>
			<circle cx="255.07" cy="281.34" r="4.01"/>
		</g>
	</g>
</g>
</svg>
