<?xml version="1.0" encoding="utf-8"?>
<!-- Generator: Adobe Illustrator 25.2.1, SVG Export Plug-In . SVG Version: 6.00 Build 0)  -->
<svg version="1.1" id="Calque_1" xmlns="http://www.w3.org/2000/svg" xmlns:xlink="http://www.w3.org/1999/xlink" x="0px" y="0px"
	 viewBox="0 0 432 432" style="enable-background:new 0 0 432 432;" xml:space="preserve">
<style type="text/css">
	.st0{fill:#F9D53D;}
	.st1{fill:#D3B844;}
	.st2{fill:#E0AAAF;}
	.st3{fill:#BA9196;}
	.st4{fill:#EAB978;}
	.st5{fill:#FBB03B;}
	.st6{fill:#A1C3CE;}
	.st7{fill:#8CC63F;}
	.st8{fill:#C7B299;}
	.st9{fill:#CCCCCC;}
	.st10{fill:#C44750;}
	.st11{fill:#998675;}
	.st12{fill:#29ABE2;}
	.st13{fill:#C79C52;}
	.st14{fill:#766FBF;}
	.st15{fill:#E8A3AB;}
</style>
<g>
	<g>
		<g>
			<g>
				<path d="M241.96,195.96c0.24-0.47,0.5-0.92,0.7-1.39c1.14-2.66,2.65-5.06,4.9-6.92c3.14-2.6,6.68-3.73,10.72-2.59
					c2.83,0.8,4.89,2.66,6.52,5.04c1.94,2.85,3.1,6.02,3.82,9.36c1.19,5.51,1.47,11.11,1.53,16.72c0.11,10.92,0.15,21.84,0.2,32.76
					c0.01,1.77-0.09,3.54-0.19,5.31c-0.06,1.12-0.4,1.53-1.51,1.61c-1.32,0.09-2.66,0.07-3.98-0.01c-0.93-0.05-1.25-0.45-1.3-1.46
					c-0.05-0.93,0.01-1.87,0.01-2.8c-0.04-12.49-0.03-24.99-0.16-37.48c-0.05-4.47-0.33-8.95-1.38-13.33
					c-0.37-1.52-0.92-3.01-1.47-4.47c-0.29-0.77-0.72-1.51-1.18-2.2c-2.08-3.15-4.91-3.42-7.64-0.77c-1.26,1.23-2.06,2.75-2.71,4.35
					c-1.27,3.12-1.92,6.4-2.34,9.72c-1.01,7.97-1.11,15.98-1.07,24.01c0.04,7.08-0.08,14.17-0.17,21.25c-0.04,2.73-0.36,3-3.11,3.03
					c-0.84,0.01-1.67,0-2.51-0.07c-1.07-0.09-1.49-0.51-1.62-1.55c-0.07-0.53-0.04-1.08-0.04-1.62c-0.13-10.62-0.2-21.25-0.42-31.87
					c-0.13-5.95-0.46-11.9-1.71-17.74c-0.35-1.63-0.89-3.22-1.41-4.8c-0.21-0.64-0.56-1.26-0.94-1.83
					c-1.76-2.64-4.69-3.05-7.12-0.99c-1.54,1.31-2.55,2.98-3.21,4.87c-0.98,2.8-1.52,5.7-1.79,8.64c-0.81,8.78-0.76,17.59-0.9,26.39
					c-0.09,5.85-0.2,11.71-0.3,17.56c-0.01,0.3-0.01,0.59-0.03,0.88c-0.11,1.63-0.45,1.97-2.07,2.03c-0.88,0.03-1.77,0.04-2.66,0.02
					c-1.94-0.04-2.22-0.31-2.23-2.25c-0.03-8.12-0.04-16.23-0.07-24.35c-0.05-12.5-0.12-24.99-0.17-37.49
					c0-0.88,0.11-1.76,0.23-2.64c0.12-0.9,0.71-1.4,1.61-1.44c1.13-0.05,2.26-0.08,3.39-0.03c1.09,0.05,1.28,0.28,1.5,1.42
					c0.04,0.19,0.05,0.39,0.11,0.58c0.24,0.79,0.62,0.94,1.3,0.45c0.55-0.4,1.05-0.89,1.56-1.35c4.89-4.34,12.41-3.78,16.3,2.4
					c0.75,1.2,1.3,2.53,1.88,3.83C241.12,195.42,241.07,195.44,241.96,195.96z"/>
				<path d="M288.94,219.5c-0.05-2.32-0.72-4.43-2.07-6.35c-5.22-7.4-10.4-14.83-15.6-22.25c-0.14-0.21-0.29-0.41-0.43-0.62
					c-1.16-1.68-1.09-2.15,0.55-3.29c0.74-0.52,1.51-1,2.3-1.44c1.34-0.77,1.74-0.69,2.63,0.57c2.36,3.33,4.69,6.67,7.03,10.01
					c2.57,3.67,5.14,7.34,7.72,11c1.62,2.31,2.17,2.31,3.79,0c4.77-6.79,9.54-13.6,14.31-20.39c1.45-2.06,1.61-2.1,3.73-0.8
					c0.73,0.45,1.46,0.9,2.13,1.43c1.05,0.83,1.11,1.33,0.4,2.43c-0.3,0.47-0.63,0.91-0.95,1.36c-4.91,7.01-9.75,14.06-14.76,21
					c-1.85,2.57-2.75,5.29-2.79,8.42c-0.11,10.77-0.29,21.54-0.43,32.31c-0.01,0.45-0.01,0.91,0,1.36c0.01,0.74-0.38,1.15-1.09,1.17
					c-1.66,0.05-3.32,0.06-4.98,0.06c-0.62,0-0.89-0.37-0.92-0.96c-0.01-0.3-0.04-0.6-0.04-0.9
					C289.46,247.88,289.07,225.13,288.94,219.5z"/>
			</g>
			<g>
				<path d="M174.69,255.56c-1.44,0.14-2.89,0.11-4.32-0.07c-0.62-0.08-1.26-0.17-1.89-0.3c-6.21-1.28-10-5.29-12-11.1
					c-1.18-3.41-1.52-6.99-1.54-10.58c-0.01-1.56,0.49-2.1,2.01-2.19c0.86-0.05,1.75-0.02,2.61,0.11c1.09,0.17,1.91,1.1,2.01,2.2
					c0.17,1.86,0.35,3.72,0.58,5.57c0.08,0.69,0.23,1.37,0.43,2.03c1.78,5.86,5.17,7.65,9.94,7.74c1.61,0.03,3.26-0.21,4.83-0.61
					c4.86-1.25,8.27-6.16,7.67-11.14c-0.34-2.78-1.31-5.29-2.9-7.58c-2.01-2.9-4.49-5.32-7.27-7.45c-1.63-1.25-3.38-2.33-4.99-3.6
					c-2.55-2.01-5.14-3.98-7.49-6.2c-2.75-2.59-4.65-5.78-5.49-9.54c-1.77-7.97,3.13-16.73,12.33-17.85
					c7.72-0.94,14.48,3.99,16.1,12.02c0.47,2.33,0.62,4.73,0.83,7.1c0.12,1.4-0.26,1.8-1.67,1.93c-0.99,0.09-2,0.15-3,0.09
					c-1.55-0.09-1.86-0.45-2.01-2.03c-0.13-1.38-0.18-2.77-0.39-4.13c-0.18-1.17-0.44-2.35-0.85-3.46
					c-1.27-3.45-4.48-5.28-8.34-4.85c-3.45,0.38-6.06,3.01-6.57,6.56c-0.38,2.65,0.39,5,1.85,7.17c1.16,1.71,2.6,3.18,4.23,4.45
					c2,1.55,4.02,3.07,6.09,4.52c4.72,3.31,9.1,6.96,12.35,11.8c2.34,3.49,3.74,7.31,3.86,11.52c0.24,8.95-6.09,16.4-14.95,17.64
					C176.07,255.43,175.4,255.5,174.69,255.56z"/>
				<g>
					<path d="M142.09,233.49c0-6.47,0-25.97,0-32.44c0-0.37-0.01-0.75,0-1.12c0.04-1.59,0.33-1.89,1.87-1.9c1.07,0,2.14,0,3.21,0.08
						c0.96,0.07,1.2,0.33,1.38,1.27c0.09,0.45,0.09,0.93,0.09,1.39c0,13.04-0.01,39.1-0.02,52.14c0,2.68-0.17,2.85-2.83,2.86
						c-0.88,0-1.76-0.06-2.65-0.1c-0.68-0.03-0.99-0.45-1.03-1.09c-0.02-0.37-0.03-0.74-0.03-1.12
						C142.09,246.81,142.1,240.15,142.09,233.49z"/>
					<path d="M150.11,189.42c0.01,2.61-2.07,4.74-4.66,4.76c-2.63,0.03-4.77-2.05-4.79-4.63c-0.02-2.59,2.23-4.81,4.84-4.79
						C148.04,184.79,150.1,186.87,150.11,189.42z"/>
				</g>
			</g>
		</g>
		<g>
			<path d="M261.64,338.02c0.5-14.54,1.34-28.05,3.82-41.4c0.98-5.27,2.14-10.5,4.14-15.49c0.75-1.88,1.68-3.69,2.58-5.51
				c1.77-3.59,4.88-5.51,8.59-6.41c4.43-1.08,8.91-0.94,13.31,0.39c0.94,0.28,1.83,0.71,2.73,1.11c2.43,1.1,4.17,2.88,4.9,5.45
				c0.81,2.83,1.43,5.72,2.15,8.58c0.22,0.89,0.39,1.81,0.74,2.66c0.93,2.29,2.85,2.57,4.38,0.59c0.63-0.82,1.11-1.77,1.52-2.73
				c0.92-2.15,1.84-4.3,2.6-6.51c2.02-5.86,6.21-8.64,12.28-8.77c1.9-0.04,3.82-0.07,5.71,0.12c4.33,0.44,7.51,2.87,10.07,6.21
				c2.23,2.92,3.69,6.24,4.86,9.69c2.13,6.26,3.42,12.71,4.38,19.23c0.99,6.76,1.93,13.52,2.75,20.3
				c0.83,6.85,1.19,13.74,0.89,20.64c-0.12,2.77-0.52,5.51-1.45,8.15c-1.36,3.86-4,6.3-8.02,7.12c-4.75,0.97-9.53,1.16-14.3,0.15
				c-1.01-0.21-2.01-0.57-2.95-1c-1.8-0.83-2.89-2.28-3.15-4.26c-0.18-1.4-0.27-2.82-0.33-4.23c-0.37-9.6-0.69-19.19-1.1-28.79
				c-0.05-1.27-0.41-2.54-0.77-3.77c-0.25-0.85-0.85-1.53-1.86-1.54c-0.99-0.01-1.64,0.6-1.96,1.44c-0.41,1.08-0.79,2.21-0.97,3.35
				c-0.66,4.13-1.22,8.28-1.83,12.42c-0.09,0.61-0.25,1.2-0.38,1.8c-0.55,2.53-2.15,4.22-4.58,4.83c-2.06,0.52-4.24,0.8-6.37,0.78
				c-2.64-0.02-4.55-1.49-5.42-4.02c-0.8-2.32-1.38-4.72-2.12-7.07c-0.94-2.99-1.91-5.98-2.94-8.94c-0.32-0.92-0.79-1.82-1.37-2.59
				c-1.06-1.4-2.63-1.22-3.33,0.41c-0.38,0.88-0.56,1.91-0.55,2.86c0.02,4.43,0.07,8.87,0.25,13.29c0.23,5.61,0.14,11.2-0.54,16.78
				c-0.3,2.49-1.21,4.76-2.81,6.72c-1.26,1.55-2.84,2.5-4.87,2.67c-3.21,0.27-6.41,0.13-9.54-0.59c-5.34-1.22-7.91-4.02-8.61-9.48
				c-0.35-2.74-0.44-5.52-0.54-8.28C261.57,341.95,261.64,339.48,261.64,338.02z"/>
			<path d="M236.04,362.65c-3.53-0.14-7.03-0.42-10.46-1.23c-0.72-0.17-1.43-0.39-2.12-0.63c-2.75-0.98-4.67-2.82-5.25-5.72
				c-0.61-3.01-0.99-6.07-1.46-9.11c-0.26-1.7-0.41-3.43-0.78-5.11c-0.58-2.64-1.96-3.44-4.58-2.89c-2.33,0.49-4.07,1.74-5,3.95
				c-0.77,1.81-1.37,3.7-2.18,5.49c-0.93,2.07-1.85,4.17-3.04,6.1c-1.91,3.11-4.77,5.05-8.29,6.1c-4.63,1.38-9.34,1.51-14.1,1.2
				c-1.1-0.07-2.21-0.21-3.29-0.43c-5.19-1.06-8.63-4.84-9.44-10.07c-0.48-3.1-0.21-6.15,0.22-9.2c0.82-5.69,2.55-11.16,4.42-16.58
				c4.75-13.76,10.38-27.15,17.42-39.91c1.66-3.01,3.55-5.91,5.5-8.75c0.97-1.4,2.23-2.63,3.5-3.79c2.11-1.93,4.66-2.97,7.52-3.18
				c5.56-0.41,11.08-0.12,16.54,1.1c4.28,0.95,7.61,3.29,9.57,7.2c2.53,5.06,4.98,10.18,7.18,15.39
				c5.24,12.38,9.67,25.04,12.69,38.17c1.37,5.96,2.46,11.97,1.95,18.12c-0.18,2.12-0.6,4.29-1.3,6.3
				c-1.43,4.09-4.51,6.37-8.78,6.95C240.35,362.41,238.19,362.48,236.04,362.65z M212.57,317.03c2.29-0.48,3.27-1.85,2.72-4.15
				c-0.5-2.08-1.19-4.12-1.98-6.11c-0.34-0.87-1.02-1.7-1.74-2.32c-1.43-1.23-3.12-1.08-4.17,0.46c-1.95,2.86-2.75,6.14-2.84,9.56
				c-0.04,1.46,0.74,2.25,2.17,2.57C207.68,317.25,211.61,317.23,212.57,317.03z"/>
			<path d="M161.54,299.74c-0.49,10.76-0.96,21.68-2.95,32.47c-0.93,5.05-2.19,10.02-4.47,14.65c-1.15,2.34-2.48,4.64-4.04,6.73
				c-4.96,6.65-11.74,9.85-19.97,9.45c-14.04-0.69-25.07-6.91-32.89-18.66c-1.39-2.1-2.43-4.36-3-6.83
				c-0.69-3.03-0.05-5.72,2.16-7.94c2.49-2.5,5.3-4.57,8.45-6.15c2.91-1.45,5.6-0.97,7.89,1.31c0.71,0.7,1.32,1.5,2.03,2.21
				c1.56,1.56,3.25,2.94,5.48,3.43c2.67,0.6,4.96-0.39,5.97-2.93c0.66-1.66,1.05-3.48,1.22-5.25c0.42-4.59-0.21-9.1-1.34-13.55
				c-1.47-5.81-3.07-11.59-4.37-17.44c-0.72-3.21-1.01-6.53-1.36-9.82c-0.12-1.16,0.07-2.37,0.28-3.53c0.93-5.27,4-8.33,9.32-9.06
				c6.75-0.93,13.47-0.64,20.05,1.26c5.27,1.52,8.72,4.92,10.12,10.3c0.96,3.72,1.29,7.51,1.41,11.32
				C161.6,294.33,161.54,296.95,161.54,299.74z"/>
		</g>
		<path d="M362.58,164.46c1.03-0.41,1.37-1.4,1.68-2.28c0.65-1.84,1.32-3.7,1.65-5.62c0.66-3.85,1.13-7.74,1.63-11.62
			c0.25-1.94,0.38-3.9,0.61-5.84c0.07-0.61,0.23-1.22,0.43-1.81c0.35-1,1.13-1.59,2.12-1.85c1.81-0.48,2.96,0.35,3.12,2.23
			c0.03,0.35,0.02,0.71-0.01,1.07c-0.42,5.86-0.88,11.72-1.98,17.5c-0.57,2.98-1.23,5.94-2.63,8.65c-2,3.88-5.2,6.11-9.61,6.07
			c-3.77-0.04-7.13-1.4-9.83-4.15c-1.7-1.74-3.01-3.73-4.01-5.94c-1.64-3.62-2.45-7.43-2.63-11.37c-0.36-7.56-0.25-15.13,0.15-22.69
			c0.42-7.91,1.16-15.81,0.75-23.74c-0.14-2.74-0.63-5.47-1-8.2c-0.05-0.4-0.31-0.78-0.56-1.36c-0.64,0.47-1.16,0.77-1.58,1.18
			c-1.91,1.88-3.46,4.06-4.86,6.34c-2.53,4.12-4.33,8.57-5.81,13.15c-2.36,7.3-3.98,14.77-5.3,22.31
			c-1.46,8.33-2.48,16.72-3.33,25.13c-0.26,2.57-0.64,5.12-0.98,7.68c-0.47,3.54-3.88,5.73-6.73,5.73c-1.51,0-2.82-0.43-3.89-1.45
			c-0.71-0.67-1.35-1.42-1.96-2.18c-3.14-3.9-5.69-8.17-7.81-12.71c-0.41-0.88-0.83-1.75-1.23-2.58c-0.8-0.1-0.97,0.51-1.29,0.89
			c-1.78,2.11-3.48,4.28-5.33,6.32c-1.56,1.72-3.42,3.11-5.44,4.28c-5.7,3.31-11.61,3.66-17.68,1.13c-3.77-1.57-6.95-4-9.54-7.12
			c-1.59-1.91-2.91-4.03-4.33-6.08c-0.5-0.72-0.91-1.51-1.31-2.19c-0.61-0.06-0.68,0.28-0.76,0.63c-0.87,3.45-1.71,6.9-2.63,10.34
			c-0.27,1.02-0.65,2.04-1.14,2.98c-1.69,3.3-5.1,4.9-8.72,4.17c-2.52-0.51-4.64-1.76-6.51-3.48c-2.19-2.01-3.85-4.42-5.24-7.03
			c-2.72-5.1-4.18-10.57-4.59-16.32c-0.6-8.54-0.21-17.08,0.21-25.62c0.3-6.04,0.58-12.09,0.68-18.14
			c0.08-4.63-0.33-9.25-1.41-13.78c-0.12-0.52-0.27-1.03-0.43-1.54c-0.08-0.25-0.23-0.48-0.42-0.87c-0.41,0.42-0.83,0.73-1.1,1.15
			c-1.7,2.63-2.91,5.5-3.97,8.43c-2,5.54-3.24,11.28-4.27,17.06c-1.9,10.72-2.75,21.53-3.01,32.4c-0.15,6.32,0.15,12.64,0.65,18.94
			c0.27,3.44-1.93,6.05-5.37,6.33c-1.63,0.14-3-0.39-3.96-1.73c-0.52-0.72-0.98-1.49-1.36-2.29c-1.02-2.17-1.98-4.37-2.97-6.56
			c-0.25-0.56-0.49-1.13-0.85-1.96c-0.34,0.82-0.6,1.36-0.79,1.93c-0.56,1.59-0.99,3.24-1.66,4.79c-2.07,4.77-7.1,6.33-11.55,3.64
			c-1.78-1.07-3.21-2.53-4.5-4.13c-2.61-3.22-4.44-6.86-5.85-10.73c-0.45-1.23-0.9-2.47-1.32-3.64c-0.69-0.08-0.66,0.36-0.74,0.67
			c-0.71,2.66-1.31,5.36-2.16,7.98c-0.6,1.85-1.45,3.63-2.37,5.35c-0.98,1.83-2.46,3.27-4.29,4.29c-3.21,1.78-6.47,1.9-9.65,0.04
			c-1.29-0.75-2.48-1.73-3.57-2.77c-2.73-2.61-4.74-5.76-6.36-9.16c-0.38-0.79-0.78-1.57-1.28-2.59c-0.36,0.82-0.62,1.37-0.85,1.94
			c-1.06,2.74-2.09,5.49-3.18,8.21c-0.43,1.07-0.92,2.13-1.51,3.12c-2.61,4.34-7.19,5.95-11.99,4.31c-2.49-0.85-4.58-2.34-6.55-4.03
			c-0.87-0.75-1.71-1.55-2.63-2.4c-0.72,0.58-1.39,1.14-2.08,1.69c-2.18,1.75-4.6,2.99-7.36,3.59c-3.96,0.86-7.63,0.11-11-2
			c-1.49-0.93-2.9-2.09-4.09-3.39c-4.18-4.55-6.41-9.99-6.85-16.14c-0.08-1.05,0.03-2.14,0.19-3.19c0.2-1.27,1.03-2.03,2.31-2.25
			c1.35-0.24,2.18,0.36,2.48,1.73c0.52,2.34,0.96,4.71,1.63,7.01c0.89,3.1,2.34,5.96,4.28,8.55c1.24,1.65,2.67,3.1,4.43,4.2
			c3.6,2.25,7.05,2.08,10.41-0.51c0.63-0.49,1.22-1.04,1.78-1.61c0.36-0.37,0.64-0.83,1-1.29c-2.49-3.68-4.5-7.53-6.12-11.59
			c-3.04-7.66-4.85-15.6-5.75-23.79c-0.55-4.97-0.63-9.95-0.4-14.93c0.27-5.79,0.91-11.53,2.58-17.11c0.84-2.83,1.95-5.54,3.52-8.04
			c1.39-2.21,3.1-4.12,5.31-5.55c1.67-1.08,3.48-1.79,5.46-2c3.84-0.42,7,0.9,9.43,3.9c3.16,3.9,4.93,8.41,5.71,13.34
			c0.93,5.93,0.79,11.9,0.36,17.85c-0.71,9.89-2.6,19.57-5.7,29c-1.25,3.79-2.74,7.51-4.17,11.36c1.76,5.41,4.91,10.12,8.07,11.85
			c0.31-0.34,0.73-0.67,0.97-1.1c0.73-1.32,1.49-2.64,2.05-4.04c1.73-4.38,3.36-8.81,5.07-13.2c0.51-1.3,0.5-2.56,0.22-3.91
			c-1.79-8.68-2.14-17.48-1.8-26.3c0.16-4.27,0.35-8.55,1.32-12.73c0.36-1.55,0.83-3.11,1.51-4.53c1.01-2.09,2.69-3.49,5.03-4.03
			c3.64-0.85,6.69,1,7.31,4.69c0.3,1.83,0.34,3.72,0.26,5.58c-0.29,7.29-0.67,14.59-0.22,21.89c0.47,7.55,1.03,15.1,2.68,22.51
			c0.58,2.59,1.43,5.14,2.32,7.65c0.59,1.66,1.45,3.23,2.78,4.34c0.8,0.02,1.03-0.51,1.31-0.93c1.44-2.17,2.45-4.56,3.12-7.05
			c1.59-5.92,3.07-11.88,4.54-17.84c0.19-0.75,0.16-1.58,0.11-2.37c-0.22-3.55-0.6-7.1-0.71-10.65c-0.27-8.99-0.2-17.98,0.46-26.96
			c0.18-2.48,0.58-4.95,1.04-7.39c0.23-1.2,0.7-2.4,1.29-3.48c1.03-1.89,2.68-3.03,4.84-3.42c3.2-0.57,6.17,1.11,7.08,4.24
			c0.39,1.35,0.57,2.8,0.59,4.21c0.04,3.92,0.03,7.84-0.13,11.75c-0.45,11.4-0.06,22.78,0.55,34.16c0.27,4.99,0.78,9.93,1.79,14.82
			c0.58,2.79,1.34,5.53,2.53,8.14c0.47,1.04,0.91,2.11,1.92,3.08c0.29-0.45,0.58-0.76,0.72-1.12c1.63-4.14,2.94-8.39,4.01-12.71
			c0.2-0.8,0.16-1.56,0.04-2.36c-1.54-10.44-1.49-20.93-0.86-31.44c0.18-3.02,0.44-6.03,1.2-8.98c0.36-1.39,0.84-2.73,1.71-3.88
			c1.76-2.34,4.13-3.33,7.01-2.88c1.96,0.31,3.45,1.37,4.29,3.23c0.21,0.48,0.43,0.95,0.77,1.71c0.28-0.81,0.53-1.36,0.67-1.93
			c1.14-4.86,2.44-9.67,4.3-14.3c0.86-2.14,1.83-4.25,2.98-6.25c3.64-6.37,10.12-6.2,14.55-3.82c2.91,1.57,5,3.95,6.49,6.88
			c1.26,2.49,2.01,5.14,2.47,7.87c0.34,2.01,0.6,4.06,0.69,6.1c0.25,5.78,0.1,11.57-0.25,17.35c-0.48,7.91-1.08,15.82-0.79,23.75
			c0.25,6.85,0.74,13.68,2.12,20.42c0.29,1.39,0.68,2.76,1.09,4.12c0.28,0.92,0.65,1.82,1.54,2.48c0.76-0.4,0.95-1.11,1.14-1.75
			c0.87-2.89,1.76-5.79,2.53-8.71c0.79-3.01,1.43-6.06,2.17-9.08c0.35-1.41,0.35-2.79,0.03-4.21c-1.9-8.24-1.99-16.58-1.17-24.95
			c0.47-4.8,1.38-9.5,2.85-14.1c1.03-3.24,2.37-6.34,4.5-9.03c3.29-4.17,7.54-6.72,12.85-7.36c5.6-0.67,10.12,1.36,13.65,5.67
			c2.19,2.67,3.4,5.81,4.2,9.14c0.72,2.98,0.75,6,0.52,9.03c-0.07,0.88-0.27,1.76-0.56,2.6c-0.35,1.05-1.22,1.55-2.27,1.48
			c-1.02-0.07-1.68-0.65-1.89-1.6c-0.41-1.91-0.75-3.84-1.07-5.77c-0.57-3.47-1.74-6.71-3.62-9.68c-0.81-1.29-1.75-2.47-3.05-3.32
			c-0.9-0.59-1.38-0.66-2.17,0.04c-0.92,0.82-1.8,1.72-2.52,2.72c-1.67,2.33-2.82,4.95-3.63,7.69c-3.39,11.47-4.22,23.07-1.6,34.81
			c1.09,4.87,2.64,9.61,4.78,14.13c0.76,1.6,1.66,3.15,2.61,4.65c1.05,1.67,2.4,3.09,4.01,4.25c2.32,1.68,4.76,1.83,7.26,0.41
			c0.77-0.44,1.54-0.92,2.19-1.52c1.38-1.25,2.83-2.48,3.99-3.93c1.94-2.43,3.65-5.04,5.5-7.54c0.77-1.04,0.73-2.07,0.45-3.27
			c-0.99-4.24-2-8.49-2.78-12.77c-0.98-5.43-1.68-10.91-1.89-16.43c-0.16-4.18-0.39-8.36-0.32-12.54c0.08-5.52,0.57-11.02,1.97-16.4
			c0.9-3.45,1.99-6.83,3.72-9.98c1.61-2.94,3.74-5.41,6.59-7.22c1.77-1.12,3.68-1.78,5.77-1.87c4.2-0.18,7.42,1.49,9.53,5.17
			c0.99,1.72,1.6,3.58,2.02,5.49c1.12,5.17,1.44,10.38,0.96,15.66c-0.89,9.83-3.61,19.21-6.96,28.43c-1.39,3.84-2.99,7.62-4.56,11.4
			c-0.43,1.02-0.68,1.99-0.41,3.09c1.33,5.53,3.11,10.93,4.87,16.31c0.93-0.02,0.77-0.7,0.84-1.14c1.32-8.8,2.88-17.56,4.86-26.23
			c1.63-7.11,3.46-14.17,5.88-21.06c1.53-4.38,3.47-8.57,5.92-12.52c1.41-2.28,3.04-4.37,4.98-6.24c5.64-5.41,14.97-4.16,19.17,2.61
			c1.33,2.15,2.11,4.5,2.54,6.98c0.72,4.14,0.97,8.32,0.79,12.5c-0.29,6.85-0.73,13.69-1.07,20.53c-0.33,6.76-0.52,13.52,0.12,20.28
			c0.24,2.48,0.36,4.97,0.69,7.44c0.18,1.31,0.6,2.6,1.07,3.84C360.67,162.96,361.1,163.37,362.58,164.46z M118.46,82.86
			c-0.91,0.65-1.33,1.66-1.67,2.65c-0.69,2.01-1.37,4.04-1.84,6.11c-1.07,4.79-1.35,9.68-1.48,14.57
			c-0.15,5.61,0.27,11.19,0.86,16.77c0.72,6.82,2,13.53,3.88,20.13c0.15,0.54,0.43,1.05,0.68,1.64c0.23-0.27,0.38-0.39,0.44-0.54
			c0.2-0.49,0.39-0.99,0.56-1.49c4.28-13.21,6.59-26.73,6.18-40.65c-0.12-4-0.64-7.97-2.03-11.77c-0.86-2.36-2.06-4.53-3.81-6.36
			C119.76,83.41,119.3,82.83,118.46,82.86z M307.48,124.31c0.27-0.6,0.56-1.14,0.76-1.7c2.11-5.86,3.9-11.82,5.25-17.9
			c1.08-4.87,1.91-9.78,1.7-14.8c-0.16-3.85-0.77-7.61-2.33-11.16c-0.19-0.42-0.6-0.75-1.05-1.28c-0.45,0.96-0.83,1.66-1.12,2.4
			c-2.64,6.67-4.19,13.59-4.52,20.76c-0.32,7.12-0.16,14.23,0.59,21.33C306.84,122.72,306.75,123.56,307.48,124.31z"/>
	</g>
	<g>
		<g>
			<path class="st10" d="M378,228.35c-0.02-4.9-0.55-9.74-1.84-14.49c-0.68-2.51-1.68-4.9-2.99-7.17c-0.69-1.2-1.49-2.34-2.41-3.4
				c-2.78-3.18-6.37-4.95-10.63-5.49c-2.35-0.3-4.62,0.05-6.74,1.1c-1.12,0.55-2.28,1.07-3.31,1.76c-1.94,1.3-3.94,1.22-6.01,0.47
				c-0.7-0.26-1.35-0.65-2.02-0.98c-0.9-0.44-1.78-0.92-2.7-1.31c-3.13-1.35-6.34-1.42-9.61-0.46c-3.5,1.03-6.34,2.94-8.51,5.76
				c-2.07,2.7-3.46,5.71-4.46,8.89c-0.75,2.4-1.2,4.86-1.55,7.34c-0.49,3.53-0.68,7.07-0.48,10.62c0.35,6.47,1.45,12.82,3.79,18.93
				c0.83,2.16,1.87,4.23,3.21,6.15c1.23,1.76,2.68,3.32,4.46,4.57c2.42,1.7,5.09,2.65,8.13,2.45c1.43-0.1,2.82-0.43,4.19-0.85
				c1.32-0.41,2.64-0.83,3.96-1.22c1.41-0.42,2.86-0.66,4.35-0.65c1.54,0.01,3,0.32,4.42,0.86c1.48,0.57,2.99,1.06,4.54,1.45
				c4.05,1.02,7.66,0.15,10.92-2.26c1.72-1.27,3.12-2.81,4.31-4.55c1.86-2.72,3.12-5.71,4.09-8.81c1.12-3.56,1.83-7.2,2.32-10.89
				C377.81,233.59,378.01,230.98,378,228.35z"/>
			<path class="st7" d="M370.43,180.05c-0.1-0.64-0.18-1.4-0.35-2.13c-0.15-0.61-0.58-0.77-1.16-0.49
				c-0.19,0.09-0.37,0.21-0.54,0.32c-1.66,1.03-3.46,1.7-5.36,2.14c-1.8,0.42-3.6,0.82-5.4,1.27c-1.43,0.36-2.79,0.92-4.09,1.62
				c-3.38,1.81-4.71,4.74-4.66,8.45c0,0.08,0.01,0.17,0.02,0.25c0.1,0.77,0.52,1.1,1.3,1.01c0.42-0.05,0.82-0.17,1.24-0.21
				c1.67-0.18,3.35-0.34,5.02-0.51c2.05-0.21,4.1-0.42,6.09-0.98c4.28-1.2,6.76-4.04,7.58-8.36
				C370.27,181.68,370.32,180.92,370.43,180.05z"/>
			<path class="st11" d="M337.16,178.31c-1.64-0.07-3.74,2.1-3.66,3.78c0.04,0.83,0.35,1.57,0.93,2.16
				c0.41,0.42,0.86,0.81,1.33,1.15c0.99,0.72,2,1.4,3.01,2.08c3.08,2.07,5.16,4.9,6.38,8.38c0.08,0.24,0.17,0.48,0.3,0.7
				c0.27,0.47,0.77,0.67,1.3,0.54c0.51-0.13,0.85-0.54,0.82-1.12c-0.03-0.59-0.11-1.17-0.23-1.75c-0.82-4.08-2.24-7.93-4.62-11.37
				c-0.82-1.18-1.73-2.28-2.82-3.22c-0.38-0.33-0.79-0.63-1.21-0.9C338.2,178.42,337.67,178.29,337.16,178.31z"/>
		</g>
		<g>
			<path class="st9" d="M57.32,280.26c-0.01-0.65,0.23-1.2,0.4-1.75c1.1-3.55,2.19-7.1,3.31-10.64c2.16-6.82,4.35-13.64,6.5-20.46
				c0.79-2.5,1.51-5.02,2.26-7.53c0.12-0.41,0.27-0.8,0.44-1.27c0.27,0.04,0.49,0.06,0.71,0.12c0.26,0.07,0.52,0.16,0.78,0.24
				c14.19,4.53,28.39,9.06,42.58,13.59c0.44,0.14,0.89,0.28,1.38,0.44c-0.03,0.28-0.03,0.52-0.09,0.73
				c-0.36,1.12-0.74,2.23-1.11,3.34c-2.37,7.29-4.75,14.58-7.12,21.87c-1.47,4.54-2.94,9.08-4.41,13.62
				c-0.24,0.74-0.52,1.47-0.79,2.24c-0.28-0.03-0.51-0.03-0.72-0.07c-0.27-0.06-0.52-0.16-0.78-0.25
				c-13.31-4.33-26.63-8.66-39.94-13c-0.89-0.29-1.78-0.58-2.67-0.89C57.8,280.51,57.56,280.37,57.32,280.26z"/>
			<path class="st12" d="M116.98,249.2c-1.15-0.2-44.46-14.03-45.43-14.5c0.03-0.19,0.03-0.42,0.1-0.63
				c1.21-3.8,2.47-7.59,4.08-11.24c1.3-2.95,3.07-5.62,5.17-8.07c2.86-3.32,5.92-6.45,8.99-9.57c2.88-2.92,5.76-5.85,8.63-8.78
				c0.08-0.08,0.17-0.16,0.24-0.25c0.62-0.74,1.38-0.98,2.31-0.68c0.52,0.17,1.05,0.3,1.58,0.46c4.02,1.29,8.05,2.58,12.07,3.87
				c0.41,0.13,0.82,0.27,1.21,0.45c0.61,0.27,1,0.73,1.1,1.41c0.04,0.31,0.09,0.62,0.14,0.93c0.59,3.71,1.17,7.41,1.79,11.12
				c0.73,4.4,1.42,8.8,1.87,13.23c0.32,3.21,0.28,6.4-0.3,9.58c-0.17,0.92-0.33,1.85-0.59,2.75c-0.87,3.09-1.78,6.16-2.68,9.24
				C117.2,248.73,117.09,248.93,116.98,249.2z"/>
			<path class="st12" d="M100.44,299.7c-0.23,0.72-0.39,1.32-0.61,1.9c-0.9,2.34-1.92,4.62-3.36,6.69c-0.47,0.67-1,1.31-1.56,1.89
				c-1.27,1.31-2.86,2.01-4.68,2.19c-1.58,0.16-3.12-0.06-4.65-0.37c-2.15-0.43-4.25-1.07-6.33-1.73
				c-4.92-1.57-9.83-3.15-14.74-4.74c-1.79-0.58-3.52-1.3-5.2-2.14c-0.88-0.44-1.7-0.97-2.45-1.59c-1.54-1.28-2.49-2.91-2.73-4.9
				c-0.12-1-0.15-2.03-0.09-3.04c0.15-2.79,0.76-5.49,1.56-8.16c0.04-0.14,0.13-0.27,0.22-0.47c0.25,0.05,0.47,0.09,0.69,0.15
				c0.26,0.07,0.52,0.16,0.78,0.25c13.87,4.51,27.74,9.03,41.61,13.55C99.37,299.34,99.85,299.5,100.44,299.7z"/>
			<path class="st9" d="M112.63,183.57c2.87,0.92,5.74,1.83,8.61,2.75c1.28,0.41,1.36,0.55,1.12,1.85
				c-0.08,0.42-0.17,0.85-0.31,1.25c-0.64,1.85-1.29,3.69-1.96,5.53c-0.13,0.36-0.35,0.69-0.55,1.03c-0.41,0.71-1.03,0.91-1.8,0.73
				c-0.3-0.07-0.6-0.16-0.9-0.26c-5.14-1.64-10.28-3.28-15.42-4.94c-1.67-0.54-1.9-0.93-1.64-2.67c0.05-0.31,0.08-0.62,0.17-0.92
				c0.61-1.98,1.22-3.96,1.84-5.94c0.05-0.15,0.11-0.29,0.17-0.44c0.55-1.21,0.95-1.05,1.72-0.8c2.97,0.97,5.96,1.91,8.94,2.86
				C112.62,183.59,112.63,183.58,112.63,183.57z"/>
		</g>
	</g>
</g>
</svg>
