<?xml version="1.0" encoding="utf-8"?>
<!-- Generator: Adobe Illustrator 25.2.1, SVG Export Plug-In . SVG Version: 6.00 Build 0)  -->
<svg version="1.1" id="Calque_1" xmlns="http://www.w3.org/2000/svg" xmlns:xlink="http://www.w3.org/1999/xlink" x="0px" y="0px"
	 viewBox="0 0 432 432" style="enable-background:new 0 0 432 432;" xml:space="preserve">
<style type="text/css">
	.st0{fill:#E0AAAF;}
	.st1{fill:#F9D53D;}
	.st2{fill:#FBB03B;}
	.st3{fill:#CCCCCC;}
	.st4{fill:#8CC63F;}
	.st5{fill:#C5D8A7;}
	.st6{fill:#C44750;}
	.st7{fill:#998675;}
	.st8{fill:#C7B299;}
	.st9{fill:none;}
	.st10{fill:#29ABE2;}
	.st11{fill:#B3B3B3;}
	.st12{fill:#C79C52;}
	.st13{fill:#65C8D0;}
	.st14{fill:#BA9BC9;}
	.st15{fill:#A57A7F;}
	.st16{fill:#FFFFFF;}
</style>
<g>
	<g>
		<path class="st2" d="M353.05,177.81c-0.25-2.48-0.91-4.85-2.1-7.06c-0.85-1.57-1.98-2.89-3.4-3.97c-1.29-0.97-2.72-1.66-4.23-2.19
			c-2.35-0.8-4.77-1.29-7.21-1.69c-3.58-0.57-7.18-0.97-10.81-1.26c-4.25-0.34-8.52-0.52-12.78-0.59
			c-5.94-0.11-11.88,0.05-17.81,0.37c-4.27,0.23-8.52,0.59-12.75,1.07c-4.12,0.47-8.22,1.08-12.29,1.86
			c-5.67,1.11-11.28,2.46-16.72,4.46c-4.41,1.62-8.79,3.33-13.18,5.01c-5.37,2.04-10.82,3.78-16.55,4.53
			c-3.76,0.49-7.54,0.7-11.33,0.53c-0.96-0.04-1.92-0.13-2.86-0.28c-4.57-0.73-9.06-1.81-13.41-3.42c-4.18-1.55-8.35-3.14-12.5-4.77
			c-7.3-2.85-14.82-4.89-22.52-6.26c-4.24-0.76-8.5-1.37-12.79-1.76c-3.57-0.32-7.15-0.67-10.72-0.86
			c-3.9-0.22-7.81-0.29-11.71-0.42c-7.66,0.01-15.31,0.21-22.94,1.04c-3.29,0.36-6.56,0.79-9.8,1.48c-2.03,0.43-4.03,0.97-5.91,1.88
			c-2.68,1.29-4.71,3.24-5.99,5.94c-0.52,1.09-0.96,2.19-1.24,3.35c-0.79,3.17-0.88,6.39-0.55,9.62c0.25,2.51,1.46,4.52,3.34,6.15
			c0.57,0.49,1.14,0.99,1.75,1.44c2.27,1.69,3.85,3.88,4.94,6.49c0.95,2.28,1.64,4.65,2.33,7.03c2.39,8.21,5.35,16.19,9.32,23.77
			c1.39,2.66,2.95,5.2,4.78,7.57c2.62,3.4,5.62,6.41,9.17,8.84c2.14,1.47,4.36,2.8,6.67,3.99c2.41,1.25,4.94,2.23,7.59,2.84
			c3.58,0.82,7.22,1.28,10.89,1.5c6.2,0.37,12.35-0.15,18.45-1.25c5.93-1.08,11.67-2.86,17.23-5.22c5.57-2.36,10.51-5.67,14.8-9.93
			c2.17-2.15,3.98-4.56,5.45-7.24c1.58-2.91,2.84-5.96,4.04-9.05c1.86-4.79,3.53-9.65,5.25-14.5c1.06-3,2.19-5.99,3.63-8.84
			c0.5-1,1.06-1.98,1.71-2.87c1.67-2.27,4.95-3.34,7.7-2.63c1.65,0.43,2.96,1.35,3.93,2.75c0.87,1.25,1.59,2.59,2.16,3.99
			c1.08,2.61,2.16,5.23,3.11,7.89c1.68,4.65,3.26,9.32,5.05,13.93c1.27,3.27,2.6,6.52,4.31,9.59c1.1,1.95,2.36,3.79,3.88,5.44
			c4.52,4.91,9.86,8.67,16,11.28c6.63,2.83,13.49,4.83,20.64,5.81c3.52,0.49,7.05,0.81,10.6,0.87c4.12,0.07,8.2-0.34,12.26-0.99
			c2.68-0.43,5.33-1.03,7.83-2.11c6.41-2.77,12.16-6.47,16.82-11.75c1.88-2.13,3.6-4.39,5.02-6.83c2.08-3.58,3.9-7.31,5.53-11.13
			c2.17-5.1,3.94-10.35,5.5-15.67c0.7-2.36,1.38-4.74,2.31-7.03c1.11-2.68,2.71-4.95,5.05-6.68c0.67-0.5,1.31-1.05,1.93-1.61
			c1.93-1.73,2.96-3.88,3.19-6.47C353.28,181.77,353.25,179.79,353.05,177.81z M189.24,203.06c-0.55,4.61-1.68,9.08-3.19,13.46
			c-0.9,2.6-2.07,5.09-3.51,7.45c-2.33,3.79-5.37,6.91-9.07,9.38c-5.06,3.38-10.6,5.66-16.49,7.1c-4.52,1.11-9.11,1.54-13.75,1.38
			c-3.95-0.13-7.83-0.72-11.66-1.8c-4.9-1.38-9.13-3.88-12.86-7.31c-5.54-5.09-9.56-11.18-12.09-18.26
			c-1.32-3.68-2.36-7.44-3.03-11.29c-0.52-3.03-0.73-6.1-0.54-9.17c0.12-1.99,0.39-3.97,1-5.87c1.48-4.65,4.35-8.19,8.6-10.6
			c2.21-1.25,4.56-2.07,7.03-2.63c2.57-0.59,5.16-0.97,7.78-1.25c3.76-0.41,7.55-0.49,10.97-0.54c4.92,0.01,9.44,0.27,13.97,0.77
			c5.23,0.58,10.41,1.43,15.53,2.69c4.07,1.01,8.02,2.33,11.74,4.31c1.88,1,3.61,2.17,5.13,3.67c3.13,3.11,4.67,6.88,4.83,11.25
			C189.71,198.21,189.52,200.64,189.24,203.06z M328.75,200.32c-0.62,5.63-2.16,11.01-4.27,16.25c-2.21,5.47-5.42,10.27-9.59,14.43
			c-1.02,1.01-2.07,1.99-3.16,2.93c-3.61,3.08-7.77,5.07-12.35,6.27c-4.04,1.05-8.14,1.5-12.3,1.51
			c-9.34,0.01-18.02-2.38-26.13-6.97c-6.56-3.72-11.24-9.05-14.11-16.01c-1.51-3.66-2.54-7.45-3.36-11.32
			c-0.61-2.89-0.94-5.82-1.1-8.77c-0.12-2.35-0.04-4.7,0.58-7c0.66-2.47,1.86-4.65,3.59-6.53c1.39-1.5,2.95-2.78,4.74-3.79
			c3.28-1.86,6.76-3.22,10.37-4.24c4.3-1.21,8.67-2.06,13.09-2.72c3.28-0.48,6.56-0.85,9.86-1.09c2.9-0.19,5.81-0.26,8.72-0.39
			c3.64,0.06,7.26,0.22,10.87,0.58c3.73,0.37,7.43,0.93,11.01,2.1c1.94,0.64,3.77,1.5,5.47,2.65c4.17,2.81,6.71,6.73,7.74,11.64
			C329.14,193.31,329.13,196.82,328.75,200.32z"/>
		<g>
			<g>
				<path class="st3" d="M168.56,222.83c0.02-0.56,0.02-0.96,0.06-1.35c0.09-0.72,0.58-1.21,1.23-1.26
					c0.62-0.05,1.19,0.35,1.35,0.95c0.06,0.23,0.08,0.47,0.08,0.71c0.03,1.44,0.06,2.87,0.09,4.31c0,0.16,0,0.32-0.02,0.48
					c-0.11,0.82-0.59,1.31-1.29,1.33c-0.71,0.02-1.23-0.43-1.38-1.23c-0.06-0.35-0.07-0.71-0.11-1.07
					c-0.48-0.22-0.96-0.12-1.43-0.12c-9.49,0.01-18.98,0.02-28.47,0.04c-4.31,0.01-8.61,0.02-12.92,0.03c-0.4,0-0.8,0.01-1.19-0.03
					c-0.64-0.07-1.11-0.51-1.2-1.15c-0.07-0.47-0.06-0.95-0.06-1.43c0-9.65,0-19.3,0-28.95c0-3.47,0-6.94,0-10.41
					c0-0.43,0.09-0.88-0.13-1.34c-0.22-0.03-0.45-0.04-0.68-0.08c-0.27-0.06-0.56-0.1-0.79-0.23c-0.46-0.24-0.69-0.66-0.67-1.18
					c0.01-0.51,0.4-1.01,0.88-1.17c0.19-0.06,0.39-0.1,0.59-0.1c1.44-0.03,2.87-0.06,4.31-0.08c0.12,0,0.24,0.01,0.36,0.03
					c0.81,0.13,1.27,0.62,1.26,1.34c-0.01,0.68-0.42,1.15-1.17,1.3c-0.35,0.07-0.71,0.08-1.13,0.12c-0.04,0.22-0.1,0.44-0.12,0.66
					c-0.02,0.24-0.01,0.48-0.01,0.72c0,12.6,0,25.2,0,37.81c0,0.44,0,0.87,0,1.36c0.28,0.05,0.5,0.11,0.73,0.13
					c0.32,0.02,0.64,0.01,0.96,0.01c13.12-0.03,26.24-0.07,39.36-0.1C167.51,222.87,167.98,222.85,168.56,222.83z"/>
				<path class="st3" d="M131.34,189.72c8.91,0.43,16.24,4.26,21.75,11.54c3,3.97,4.94,8.44,6.15,13.24
					c0.35,1.39,0.59,2.8,0.87,4.21c0.05,0.27,0.09,0.56,0.07,0.83c-0.05,0.69-0.56,1.21-1.21,1.26c-0.6,0.05-1.17-0.32-1.36-0.95
					c-0.13-0.42-0.18-0.86-0.25-1.29c-0.75-4.39-2.11-8.58-4.31-12.47c-1.85-3.26-4.19-6.11-7.16-8.41
					c-3.95-3.06-8.42-4.78-13.4-5.16c-0.79-0.06-1.59-0.09-2.39-0.13c-0.2-0.01-0.4-0.01-0.6-0.04c-0.61-0.1-1.03-0.53-1.11-1.09
					c-0.09-0.62,0.24-1.19,0.85-1.42c0.22-0.08,0.46-0.12,0.7-0.13C130.34,189.71,130.74,189.72,131.34,189.72z"/>
			</g>
			<path class="st3" d="M316.99,184.18c-0.23-0.61-0.7-0.93-1.47-0.93c-0.11,0.01-0.31,0.02-0.51,0.06
				c-1.41,0.25-2.83,0.49-4.24,0.74c-1.44,0.25-2.87,0.51-4.31,0.76l0.43,3.03c0.09,0.61-0.34,1.18-0.95,1.26
				c-0.06,0.01-0.12,0.01-0.17,0.01c-0.55-0.01-1.02-0.41-1.1-0.97l-0.42-2.96c-1.87,0.34-3.73,0.67-5.6,1l0.49,3.44
				c0.09,0.61-0.34,1.18-0.95,1.27c-0.06,0.01-0.12,0.01-0.17,0.01c-0.55-0.01-1.02-0.41-1.1-0.97l-0.48-3.37
				c-2.1,0.37-4.2,0.74-6.29,1.11l0.51,3.58c0.09,0.61-0.34,1.18-0.95,1.27c-0.06,0.01-0.12,0.01-0.17,0.01
				c-0.55-0.01-1.02-0.4-1.1-0.97l-0.49-3.51c-1.02,0.18-2.03,0.35-3.04,0.53c-0.92,0.16-1.85,0.32-2.77,0.49l0.56,3.97
				c0.09,0.61-0.34,1.18-0.95,1.27c-0.06,0.01-0.12,0.01-0.17,0.01c-0.55-0.01-1.02-0.41-1.1-0.97l-0.55-3.9
				c-2.01,0.36-4.01,0.71-6.02,1.06l0.54,3.85c0.09,0.61-0.34,1.18-0.95,1.26c-0.06,0.01-0.11,0.01-0.17,0.01
				c-0.55-0.01-1.02-0.41-1.1-0.97l-0.53-3.77c-2.04,0.37-4.08,0.72-6.12,1.08l0.59,4.19c0.09,0.61-0.34,1.18-0.95,1.26
				c-0.06,0.01-0.12,0.01-0.17,0.01c-0.55-0.01-1.02-0.41-1.1-0.97l-0.58-4.12c-1.76,0.31-3.52,0.61-5.28,0.92
				c-0.19,0.04-0.39,0.08-0.58,0.15c-0.7,0.24-1.04,0.7-1.04,1.43c0,0.28,0.06,0.55,0.11,0.82c0.67,3.29,1.32,6.56,1.99,9.84
				c1.3,6.44,2.6,12.88,3.91,19.32c0.07,0.35,0.13,0.71,0.26,1.04c0.33,0.83,1.18,1.12,1.97,0.69c0.25-0.13,0.46-0.32,0.67-0.49
				c10.3-8.11,20.59-16.23,30.9-24.34c6.51-5.13,13.02-10.26,19.53-15.39c0.28-0.22,0.57-0.43,0.82-0.69
				C317.05,185.27,317.23,184.77,316.99,184.18z M290.98,195.96c-3.85,3.02-7.71,6.04-11.57,9.05c-3.14,2.45-6.27,4.91-9.41,7.36
				c-0.31,0.24-0.64,0.46-1.11,0.82c-0.97-4.48-1.91-8.79-2.81-13.15c0.19-0.1,0.31-0.21,0.46-0.23c8.3-1.52,16.59-3.03,24.89-4.54
				c0.03-0.01,0.07,0.02,0.13,0.04C291.53,195.67,291.2,195.78,290.98,195.96z"/>
		</g>
	</g>
	<g>
		<g>
			<path d="M344.88,330.8c-0.02-0.92-0.06-1.83-0.13-2.75c-0.07-0.82-0.52-1.21-1.32-1.26c-1.3-0.07-2.33,0.76-2.44,2.08
				c-0.08,0.99-0.07,1.99-0.08,2.99c-0.04,2.55-0.01,5.11-0.13,7.66c-0.13,2.87-0.37,5.73-0.58,8.59c-0.18,2.42-0.52,4.83-1,7.22
				c-0.33,1.6-0.75,3.19-1.44,4.67c-0.22,0.47-0.48,0.93-0.78,1.35c-0.45,0.61-1.26,0.64-1.74,0.06c-0.3-0.37-0.55-0.79-0.73-1.23
				c-0.29-0.7-0.54-1.41-0.76-2.14c-0.97-3.08-1.72-6.22-2.41-9.37c-1.49-6.79-2.54-13.63-3.17-20.55
				c-0.43-4.77-0.84-9.53-0.94-14.32c-0.07-3.79-0.13-7.58-0.09-11.37c0.04-3.51,0.2-7.01,0.36-10.52c0.19-4.1,0.45-8.2,0.64-12.3
				c0.07-1.75,0.1-3.51,0.05-5.26c-0.03-1.39-0.24-2.78-0.77-4.09c-0.64-1.56-1.73-2.68-3.4-3.11c-0.8-0.2-1.64-0.31-2.46-0.4
				c-0.85-0.09-1.66,0.11-2.46,0.4c-1.28,0.46-2.14,1.32-2.59,2.62c-0.35,1.03-0.56,2.07-0.7,3.14c-0.27,2.05-0.52,4.11-0.77,6.17
				c-0.05,0.38-0.07,0.77-0.32,1.23c-0.25-0.34-0.42-0.59-0.61-0.84c-0.7-0.97-1.38-1.96-2.12-2.9c-2.2-2.76-4.71-5.2-7.69-7.12
				c-4.95-3.17-10.31-4.3-16.12-3.2c-2.96,0.56-5.6,1.77-7.87,3.79c-1.01,0.91-1.95,1.88-2.81,2.93c-1.6,2.01-2.92,4.18-4.06,6.48
				c-2.61,5.28-4.4,10.84-5.49,16.63c-0.17,0.89-0.55,1.5-1.29,2c-1.89,1.27-3.86,2.39-5.93,3.34c-1.56,0.71-3.16,1.32-4.81,1.79
				c-0.57,0.16-1.14,0.28-1.8,0.17c0-0.28-0.01-0.51,0.01-0.74c0.22-2.62,0.48-5.24,0.69-7.86c0.13-1.71,0.22-3.42,0.3-5.13
				c0.28-5.83,0.15-11.64-0.82-17.41c-0.45-2.68-1.11-5.31-2.14-7.82c-0.72-1.74-1.6-3.39-2.81-4.85s-2.63-2.66-4.4-3.4
				c-2.9-1.2-5.68-0.98-8.31,0.77c-0.87,0.58-1.62,1.29-2.3,2.07c-2.34,2.69-3.73,5.82-4.42,9.29c-0.69,3.47-0.7,6.97-0.29,10.48
				c0.62,5.37,2.26,10.42,4.86,15.15c1.79,3.24,4.03,6.12,6.86,8.53c1.89,1.62,3.97,2.94,6.33,3.76c0.22,0.07,0.43,0.19,0.66,0.3
				c0.06,1.04-0.18,2.01-0.34,2.99c-0.57,3.67-1.17,7.32-1.8,10.97c-1.11,6.36-2.34,12.7-3.87,18.97c-0.66,2.71-1.43,5.4-2.16,8.09
				c-0.04,0.15-0.08,0.31-0.15,0.45c-0.07,0.16-0.02,0.42-0.37,0.42c-0.12-0.16-0.26-0.35-0.38-0.55c-1.23-2.06-2.26-4.21-3.14-6.44
				c-1.27-3.23-2.36-6.53-3.37-9.84c-3.75-12.25-6.39-24.75-8.6-37.36c-0.87-4.99-1.75-9.97-2.67-14.94
				c-0.36-1.92-0.71-3.85-1.39-5.69c-0.25-0.67-0.52-1.35-0.88-1.95c-0.81-1.35-2.01-2.16-3.61-2.24c-1.53-0.09-3.02,0.18-4.41,0.84
				c-2.07,0.97-3.17,2.63-3.31,4.89c-0.07,1.03-0.03,2.08,0.09,3.11c0.36,3.2,0.88,6.39,1.48,9.56c0.61,3.17,1.2,6.35,1.81,9.51
				c0.09,0.44,0.1,0.86,0.04,1.3c-0.22,1.54-0.38,3.08-0.61,4.62c-0.76,4.96-1.51,9.93-2.3,14.88c-1.14,7.24-2.42,14.46-3.89,21.65
				c-0.54,2.66-1.18,5.29-2.08,7.85c-0.16,0.49-0.38,0.95-0.55,1.37c-0.52,0.17-0.81-0.07-1.02-0.35c-0.31-0.41-0.6-0.85-0.85-1.3
				c-1.07-1.97-1.8-4.08-2.42-6.23c-1.96-6.75-3.31-13.62-4.13-20.61c-0.62-5.35-0.97-10.72-1.09-16.1
				c-0.1-4.06-0.07-8.13-0.08-12.2c-0.01-2.07,0.03-4.15-0.01-6.23c-0.04-2.27-0.13-4.54-0.67-6.77c-0.16-0.69-0.4-1.37-0.68-2.03
				c-0.43-1-1.2-1.66-2.22-2.07c-0.86-0.34-1.76-0.49-2.69-0.47c-2.67,0.07-4.58,1.46-5.18,4.09c-0.22,0.97-0.38,1.95-0.47,2.94
				c-0.31,3.22-0.46,6.44-0.47,9.68c-0.01,0.55-0.1,1.11-0.22,1.65c-0.27,1.16-0.58,2.32-0.89,3.47
				c-3.84,14.36-8.13,28.59-12.64,42.75c-1.28,4.02-2.56,8.05-4.21,11.94c-0.51,1.21-1.09,2.39-1.71,3.55
				c-0.31,0.59-0.73,1.14-1.19,1.64c-0.73,0.81-1.4,0.89-2.35,0.37c-0.31-0.17-0.59-0.41-0.85-0.65c-0.68-0.64-1.2-1.39-1.58-2.23
				c-0.51-1.13-1.01-2.26-1.43-3.42c-1.05-2.93-1.76-5.96-2.39-9c-0.97-4.69-1.65-9.42-2.21-14.17c-0.51-4.36-0.91-8.73-1.06-13.11
				c-0.19-5.74-0.14-11.48,0.13-17.22c0.01-0.23,0.07-0.46,0.13-0.76c0.4,0.06,0.75,0.1,1.1,0.16c2.38,0.39,4.76,0.5,7.14,0.04
				c6.79-1.31,12.74-6.5,13.62-14.99c0.49-4.73-1-8.93-4.24-12.41c-3.44-3.69-7.8-4.95-12.74-4.26c-2.81,0.4-5.32,1.61-7.65,3.21
				c-0.99,0.69-1.86,1.5-2.62,2.44c-1.26,1.55-2.38,3.2-3.37,4.93c-1.75,3.06-3.04,6.32-4.03,9.7c-0.05,0.19-0.1,0.38-0.18,0.57
				c-0.07,0.16-0.01,0.4-0.34,0.48c-0.3-0.19-0.64-0.4-0.96-0.63c-1.91-1.38-3.81-2.76-5.7-4.15c-2.63-1.94-5.3-3.83-8.11-5.51
				c-2.4-1.43-4.88-2.7-7.52-3.63c-4.2-1.48-8.46-1.89-12.82-0.82c-2.66,0.65-5.13,1.74-7.3,3.43c-1.63,1.26-2.92,2.82-3.85,4.66
				c-0.37,0.72-0.65,1.47-0.76,2.26c-0.12,0.86,0.34,1.39,1.19,1.44c0.79,0.05,1.38-0.27,1.83-0.91c0.5-0.72,1-1.44,1.53-2.14
				c1.53-1.96,3.45-3.4,5.76-4.33c3.21-1.29,6.5-1.46,9.86-0.71c2.59,0.58,4.99,1.65,7.3,2.91c2.7,1.47,5.25,3.18,7.77,4.93
				c3.46,2.41,6.91,4.87,10.51,7.09c0.13,0.08,0.24,0.2,0.41,0.35c-0.88,4.17-1.51,8.37-1.98,12.61c-0.01,0.06-0.08,0.11-0.18,0.24
				c-0.19-0.38-0.37-0.73-0.54-1.07c-1.09-2.35-2.22-4.68-3.63-6.87c-1.36-2.13-2.92-4.09-4.86-5.72c-2.99-2.54-6.4-3.79-10.34-3.62
				c-1.87,0.08-3.61,0.52-5.28,1.38c-1.98,1.01-3.67,2.39-5.16,4.02c-1.82,1.98-3.27,4.22-4.42,6.65c-1.15,2.46-1.95,5.05-2.69,7.66
				c-1.06,3.7-1.56,7.49-1.86,11.31c-0.34,4.34-0.29,8.68,0.14,13.02c0.4,4.03,1.26,7.95,2.54,11.78c0.96,2.88,2.2,5.64,3.83,8.22
				c1.82,2.87,4.13,5.25,7.11,6.95c2.68,1.54,5.51,2.25,8.6,1.81c1.84-0.26,3.57-0.77,5.15-1.79c2.12-1.38,3.73-3.23,5.04-5.35
				c0.82-1.33,1.46-2.75,2.01-4.21c1.53-4.11,2.99-8.25,4.22-12.45c0.4-1.34,0.71-2.69,1.09-4.04c0.04-0.16,0.18-0.28,0.3-0.46
				c0.54,2.25,1.01,4.43,1.59,6.59c1.58,5.84,3.93,11.36,7.21,16.47c1.74,2.69,3.94,4.91,6.47,6.82c1.06,0.79,2.19,1.44,3.43,1.91
				c2.04,0.76,4.12,0.88,6.23,0.36c2.4-0.6,4.35-1.94,5.99-3.76c1.18-1.31,2.13-2.79,2.91-4.36c1.1-2.18,1.95-4.45,2.69-6.77
				c2.78-8.82,5.39-17.68,7.89-26.59c1.06-3.76,2.07-7.53,3.11-11.29c0.07-0.25,0.06-0.55,0.43-0.71c0.02,0.34,0.04,0.65,0.06,0.96
				c0.1,1.39,0.16,2.79,0.32,4.18c0.33,2.93,0.68,5.86,1.1,8.78c0.62,4.34,1.51,8.64,2.7,12.86c1.03,3.65,2.31,7.21,4,10.62
				c1.23,2.5,2.94,4.63,5.05,6.45c0.91,0.78,1.9,1.46,3.03,1.89c0.66,0.25,1.36,0.47,2.07,0.56c2.63,0.32,4.75-0.66,6.45-2.64
				c0.68-0.8,1.18-1.71,1.61-2.65c0.76-1.68,1.29-3.43,1.66-5.24c0.46-2.26,0.88-4.53,1.27-6.81c0.79-4.64,1.56-9.27,2.29-13.92
				c0.63-4.02,1.18-8.04,1.77-12.07c0.05-0.36,0.15-0.72,0.25-1.16c0.1,0.17,0.16,0.23,0.18,0.3c0.24,0.93,0.46,1.86,0.7,2.78
				c2.69,10.72,6.12,21.2,10.51,31.36c1.36,3.16,2.97,6.18,4.84,9.05c0.63,0.97,1.32,1.9,2.09,2.77c0.54,0.62,1.19,1.18,1.88,1.65
				c1.17,0.79,2.48,1.03,3.88,0.67c1.35-0.34,2.48-1.04,3.46-2.03c0.73-0.74,1.35-1.57,1.82-2.51c0.52-1.07,1.03-2.16,1.44-3.28
				c1.2-3.17,2.06-6.45,2.86-9.74c1.01-4.15,1.83-8.33,2.57-12.53c0.72-4,1.38-8.01,2.01-12.03c0.5-3.15,0.91-6.31,1.36-9.47
				c0.04-0.22,0.1-0.45,0.14-0.64c0.19-0.06,0.3-0.13,0.41-0.13c1.68-0.16,3.26-0.73,4.83-1.33c2.49-0.96,4.89-2.13,7.18-3.51
				c0.25-0.15,0.48-0.41,0.88-0.26c-0.04,0.4-0.07,0.79-0.1,1.19c-0.21,2.54-0.49,5.08-0.6,7.63c-0.3,7.08,0.21,14.11,1.42,21.09
				c0.73,4.16,1.69,8.27,3.1,12.26c1.34,3.82,3.04,7.45,5.38,10.78c0.69,0.98,1.46,1.89,2.34,2.71c2.16,2,4.54,3.63,7.39,4.5
				c3.91,1.19,7.4,0.43,10.48-2.25c1.06-0.93,1.96-1.99,2.69-3.19c0.82-1.36,1.63-2.74,2.34-4.16c1.46-2.89,2.61-5.91,3.58-8.99
				c2.02-6.43,4-12.86,5.97-19.3c0.91-2.97,1.78-5.96,2.67-8.93c0.08-0.25,0.1-0.56,0.45-0.8c0.06,1.35,0.13,2.58,0.18,3.82
				c0.16,4.74,0.48,9.47,0.99,14.19c0.52,4.77,1.29,9.48,2.46,14.13c1,4.03,2.28,7.95,4.02,11.74c1.1,2.41,2.72,4.39,4.71,6.1
				c1.57,1.35,3.39,2.2,5.43,2.63c1.54,0.33,3.01,0.14,4.44-0.46c1.94-0.82,3.4-2.19,4.53-3.94c0.64-0.98,1.09-2.04,1.48-3.14
				c0.86-2.41,1.32-4.92,1.66-7.45c0.4-3.01,0.56-6.04,0.69-9.06C344.85,338.93,344.97,334.86,344.88,330.8z M147.84,289.63
				c0.57-4.64,1.59-9.17,3.14-13.58c0.45-1.27,1.03-2.5,1.62-3.71c0.55-1.14,1.41-2.03,2.51-2.65c1.43-0.8,2.89-0.79,4.35-0.09
				c0.88,0.43,1.57,1.08,2.18,1.83c1.21,1.47,2.04,3.13,2.52,4.97c1.11,4.32,0.49,8.38-1.98,12.1c-1.75,2.63-4.18,4.34-7.33,4.92
				c-1.46,0.28-2.94,0.23-4.4,0.02c-0.94-0.13-1.9-0.24-2.87-0.67C147.49,291.66,147.72,290.65,147.84,289.63z M130.37,320.97
				c-1.7,5.31-3.34,10.64-5.51,15.78c-1.06,2.49-2.18,4.95-3.34,7.4c-0.49,1.04-1.12,2.02-1.76,2.98c-0.28,0.43-0.67,0.79-1.08,1.09
				c-0.86,0.64-1.8,0.64-2.68,0.05c-0.45-0.3-0.87-0.71-1.18-1.15c-0.45-0.65-0.84-1.36-1.17-2.08c-1.14-2.42-1.89-4.98-2.43-7.6
				c-0.88-4.18-1.37-8.41-1.47-12.68c-0.04-1.76-0.07-3.51-0.1-4.77c0.05-3.85,0.07-7.19,0.37-10.53c0.37-4.01,0.92-8,2.15-11.85
				c0.31-0.98,0.71-1.95,1.18-2.86c0.32-0.63,0.78-1.21,1.29-1.71c0.94-0.93,2.17-1,3.28-0.28c1.07,0.7,2.02,1.55,2.89,2.49
				c0.97,1.06,1.83,2.2,2.62,3.4c2.67,4.15,4.65,8.61,6.2,13.28c0.35,1.06,0.7,2.12,1.02,3.19c0.13,0.42,0.19,0.85,0.26,1.28
				C131.15,317.97,130.85,319.45,130.37,320.97z M249.9,291.04c-0.2,3.5-0.59,6.99-0.9,10.48c-0.01,0.11-0.06,0.22-0.11,0.4
				c-0.58-0.04-0.91-0.36-1.26-0.59c-1.37-0.91-2.56-2.04-3.66-3.25c-3.11-3.45-5.34-7.42-6.91-11.78
				c-1.17-3.23-2.01-6.55-2.33-9.97c-0.34-3.67-0.22-7.33,0.88-10.89c0.6-1.93,1.48-3.7,2.87-5.19c0.49-0.52,1.06-0.97,1.64-1.38
				c0.82-0.58,1.7-0.58,2.6-0.12c0.98,0.5,1.75,1.23,2.42,2.09c0.82,1.05,1.48,2.19,1.94,3.43c0.52,1.41,1.02,2.85,1.39,4.31
				c0.69,2.63,1.05,5.31,1.3,8.01C250.22,281.41,250.18,286.23,249.9,291.04z M314.48,293.53h-0.03c-0.04,1.11-0.1,2.23-0.11,3.34
				c-0.01,0.8-0.14,1.57-0.37,2.34c-3.35,11.22-6.88,22.39-10.52,33.52c-1.59,4.84-3.22,9.68-5.16,14.4
				c-0.73,1.77-1.54,3.49-2.42,5.19c-0.54,1.06-1.24,2.04-1.92,3.03c-0.31,0.45-0.71,0.86-1.11,1.24c-0.62,0.58-0.95,0.58-1.72,0.2
				c-0.55-0.28-0.97-0.7-1.36-1.16c-0.69-0.83-1.24-1.75-1.73-2.72c-0.76-1.53-1.35-3.14-1.85-4.79c-1.06-3.55-1.76-7.18-2.25-10.87
				c-1.04-7.73-1.19-15.5-0.86-23.27c0.18-4.3,0.46-8.6,0.91-12.88c0.55-5.19,1.2-10.37,2.36-15.47c0.67-2.96,1.5-5.87,2.63-8.68
				c0.49-1.23,1.06-2.41,1.86-3.47c1.29-1.72,3-2.58,5.16-2.44c0.75,0.05,1.5,0.21,2.23,0.39c1.01,0.24,1.95,0.7,2.84,1.21
				c1.82,1.03,3.42,2.33,4.9,3.79c1.94,1.92,3.63,4.03,5.07,6.34c1.14,1.82,2.19,3.7,3.29,5.55c0.25,0.43,0.36,0.86,0.33,1.36
				C314.58,290.98,314.54,292.25,314.48,293.53z"/>
			<path d="M186.36,269.47c-3.05-0.02-5.53-2.53-5.53-5.6c0-2.63,2.02-5.53,5.57-5.55c3.19-0.02,5.6,2.51,5.58,5.65
				C191.97,267.03,189.42,269.49,186.36,269.47z"/>
		</g>
		<g>
			<path d="M266.57,64.85c5.3,0,10.6-0.02,15.9,0.01c2.88,0.01,4.53,1.94,3.81,4.37c-0.33,1.11-1.05,1.85-2.4,1.91
				c-2.32,0.1-4.65,0.2-6.97,0.25c-2.46,0.05-4.91,0-7.37,0.04c-2.1,0.03-2.7,0.54-2.67,2.36c0.18,13.11,0.41,26.22,0.56,39.34
				c0.12,10.7,0.14,21.4,0.22,32.09c0.01,1.47-0.57,2.72-1.75,3.7c-2.53,2.09-5.52,2.94-8.93,2.25c-2.67-0.54-3.96-1.95-4.04-4.39
				c-0.06-1.78-0.01-3.57-0.04-5.35c-0.22-12.48-0.48-24.96-0.66-37.44c-0.13-9.55-0.16-19.1-0.23-28.64
				c-0.02-3.42-0.38-3.75-4.22-3.72c-2.97,0.02-5.95,0.09-8.92,0.07c-1.16-0.01-2.34-0.09-3.45-0.34c-0.7-0.16-1.44-0.58-1.89-1.07
				c-1.16-1.27-0.57-2.94,1.21-3.41c1.17-0.31,2.4-0.48,3.61-0.6C247.71,65.4,257.12,64.75,266.57,64.85z"/>
			<path d="M97.45,85.71c0.28-0.6,0.57-1.2,0.83-1.81c1.72-4.07,3.92-7.88,7.29-11.09c2.54-2.42,5.5-4.23,9.19-4.91
				c6.01-1.11,10.94,0.5,14.68,4.84c2.01,2.33,3.14,5.05,4.01,7.85c0.31,0.98,0.52,1.99,0.83,2.97c0.14,0.45,0.4,0.88,0.8,1.71
				c0.39-0.79,0.59-1.16,0.76-1.55c1.15-2.7,2.16-5.45,3.47-8.09c1.32-2.66,3.23-5.02,5.75-6.93c5.39-4.08,13.29-4.42,18.98-0.79
				c2.23,1.42,3.8,3.33,5.04,5.47c1.73,3,2.73,6.22,3.44,9.52c1.27,5.91,1.92,11.88,2.4,17.88c1.05,13.08,1.34,26.18,1.43,39.28
				c0.01,1.3-0.02,2.61-0.01,3.91c0.02,1.83-0.8,3.32-2.35,4.47c-2.37,1.75-5.08,2.59-8.17,1.99c-2.61-0.51-3.82-1.82-3.88-4.18
				c-0.05-1.98,0.02-3.97-0.04-5.96c-0.29-9.36-0.5-18.71-0.96-28.06c-0.38-7.75-0.97-15.5-2.19-23.2
				c-0.59-3.7-1.19-7.41-2.65-10.95c-0.48-1.17-1.07-2.31-1.74-3.4c-0.67-1.1-1.51-1.31-2.67-0.62c-0.83,0.5-1.68,1.11-2.2,1.84
				c-1.46,2.05-2.95,4.12-4.07,6.32c-2.62,5.15-3.99,10.63-4.98,16.19c-1.48,8.3-2.25,16.66-2.76,25.04
				c-0.41,6.62-0.75,13.25-1.15,19.88c-0.04,0.61-0.18,1.25-0.43,1.82c-1.55,3.48-7.57,5.52-11.37,3.89
				c-1.35-0.58-2.25-1.48-2.44-2.84c-0.1-0.73-0.13-1.47-0.13-2.2c-0.02-12.71-0.01-25.42-0.06-38.12
				c-0.03-7.9-0.92-15.73-3.14-23.41c-0.49-1.69-1.19-3.35-1.96-4.96c-0.76-1.57-1.88-1.88-3.54-1.05
				c-0.87,0.44-1.66,1.06-2.33,1.72c-2.31,2.25-3.84,4.93-5.16,7.71c-2.84,5.99-4.49,12.27-5.73,18.66
				c-1.76,9.08-2.5,18.23-2.38,27.44c0.05,3.91-0.17,7.84,0.06,11.74c0.29,4.85-6.63,8.3-10.96,7.03c-1.9-0.56-3.01-1.67-3.17-3.45
				c-0.42-4.86-0.85-9.72-1.19-14.59c-1-14.45-0.84-28.92-0.64-43.38c0.07-5.27,0.44-10.54,0.72-15.81
				c0.05-1.02,0.21-2.03,0.42-3.04c0.53-2.59,2.24-4.33,5.09-4.98c1.32-0.3,2.78-0.39,4.14-0.26c3.03,0.3,4.86,2.06,4.9,4.77
				c0.04,2.95-0.14,5.9-0.24,8.84c-0.06,1.93-0.15,3.86-0.21,5.78c-0.01,0.31,0.07,0.63,0.11,0.94
				C97.07,85.64,97.26,85.67,97.45,85.71z"/>
			<path d="M349.41,77.54c-0.02-2.34-0.07-4.67-0.21-7c-0.16-2.6-1.65-4.21-4.43-4.98c-2.01-0.56-4.02-0.46-5.99,0.15
				c-2.93,0.91-4.43,2.76-4.57,5.52c-0.03,0.52-0.03,1.05-0.03,1.58c0.08,10.22,0.16,20.44,0.24,30.66c0,0.23,0,0.47,0.02,0.7
				c0.06,0.88-0.46,1.29-1.39,1.36c-0.46,0.03-0.92,0.02-1.38,0.03c-5.31,0.11-10.63,0.22-15.94,0.33c-1.84,0.04-3.67,0.14-5.51,0.1
				c-1.55-0.03-1.95-0.41-2.1-1.79c-0.09-0.87-0.12-1.75-0.12-2.62c-0.08-9.81-0.15-19.62-0.24-29.43c-0.01-0.7-0.1-1.39-0.19-2.09
				c-0.3-2.46-1.92-3.97-4.52-4.49c-1.49-0.29-3.15-0.36-4.65-0.11c-3.71,0.62-5.53,2.57-5.78,5.92c-0.11,1.57-0.07,3.15-0.05,4.73
				c0.25,15.77,0.93,62.48,1.02,70.07c0.03,2.7,1.3,4.1,4.25,4.67c2.94,0.57,5.6-0.09,7.99-1.63c1.81-1.17,2.75-2.75,2.74-4.79
				c-0.09-9.4-0.15-18.8-0.21-28.21c0-0.76,0.02-1.52,0.16-2.26c0.26-1.42,0.59-1.67,2.17-1.71c7.35-0.17,14.69-0.33,22.04-0.5
				c0.52-0.01,1.03,0,1.75,0c0.08,0.54,0.15,0.81,0.16,1.09c0.1,2.68,0.4,24.29,0.45,32.41c0,0.64,0.01,1.29,0.09,1.92
				c0.19,1.52,1.16,2.56,2.68,3.23c4.52,2,12.59-0.83,12.33-6.65C349.65,132.09,349.5,87.93,349.41,77.54z"/>
			<path d="M235.43,128.72c0.18,5.17,0.32,10.35,0.55,15.52c0.11,2.47-1.14,4.18-3.41,5.4c-2.24,1.21-4.67,1.67-7.25,1.13
				c-2.7-0.57-3.95-1.91-4.08-4.37c-0.17-3.04-0.27-6.09-0.43-9.13c-0.24-4.59-0.49-9.19-0.78-13.78c-0.13-2-0.42-2.27-2.76-2.15
				c-6.45,0.35-12.89,0.78-19.33,1.18c-1.1,0.07-2.19,0.13-3.29,0.23c-2.29,0.21-2.51,0.36-2.78,2.35
				c-0.25,1.88-0.42,3.78-0.59,5.67c-0.52,5.67-1.02,11.35-1.55,17.02c-0.06,0.63-0.16,1.26-0.36,1.86
				c-0.43,1.29-1.64,1.94-3.12,1.76c-1.26-0.15-1.9-0.73-1.93-2.2c-0.05-3.27-0.06-6.56,0.11-9.83c0.27-5.17,0.61-10.34,1.08-15.49
				c1.23-13.65,2.99-27.24,7.72-40.35c1.18-3.27,2.71-6.45,4.28-9.6c1.19-2.38,3.08-4.38,5.37-6.04c5.72-4.15,13.17-4.13,18.87,0.04
				c2.24,1.64,3.89,3.67,5.16,5.97c2.23,4.05,3.7,8.33,4.58,12.77c1.2,6.06,2.11,12.15,2.5,18.29c0.46,7.29,0.82,14.58,1.23,21.87
				c0.04,0.63,0.1,1.26,0.15,1.89C235.4,128.73,235.41,128.72,235.43,128.72z M219.84,112.15c-0.88-7.02-1.68-14.04-2.66-21.05
				c-0.69-4.98-2.15-9.81-4.57-14.37c-0.44-0.83-0.89-1.67-1.49-2.41c-1-1.25-2.2-1.36-3.39-0.25c-1.06,0.99-2.05,2.07-2.91,3.21
				c-2.03,2.69-3.45,5.65-4.64,8.7c-2.7,6.91-4.43,14.04-5.77,21.25c-0.48,2.61-0.91,5.23-1.23,7.85c-0.23,1.85,0.24,2.12,2.24,1.96
				c6.95-0.55,13.89-1.16,20.85-1.53C220.5,115.28,219.68,114.69,219.84,112.15z"/>
		</g>
	</g>
</g>
</svg>
