<?xml version="1.0" encoding="utf-8"?>
<!-- Generator: Adobe Illustrator 25.2.1, SVG Export Plug-In . SVG Version: 6.00 Build 0)  -->
<svg version="1.1" id="Calque_1" xmlns="http://www.w3.org/2000/svg" xmlns:xlink="http://www.w3.org/1999/xlink" x="0px" y="0px"
	 viewBox="0 0 432 432" style="enable-background:new 0 0 432 432;" xml:space="preserve">
<style type="text/css">
	.st0{fill:#F9D53D;}
	.st1{fill:#D3B844;}
	.st2{fill:#E0AAAF;}
	.st3{fill:#BA9196;}
	.st4{fill:#EAB978;}
	.st5{fill:#FBB03B;}
	.st6{fill:#A1C3CE;}
	.st7{fill:#8CC63F;}
	.st8{fill:#C7B299;}
	.st9{fill:#CCCCCC;}
	.st10{fill:#C44750;}
	.st11{fill:#998675;}
	.st12{fill:#29ABE2;}
	.st13{fill:#C79C52;}
	.st14{fill:#766FBF;}
	.st15{fill:#E8A3AB;}
</style>
<g>
	<g>
		<g>
			<g>
				<path class="st0" d="M271.03,194.43v-17.15h-6.98v6.66h-3v-6.66h-8.48v10.99h-3v-10.99h-7.82v6.66h-3v-6.66h-8.48v10.99h-3
					v-10.99h-7.82v6.66h-3v-6.66h-8.48v10.99h-3v-10.99h-7.82v6.66h-3v-6.66h-8.48v10.99h-3v-10.99h-7.82v6.66h-3v-6.66h-8.48v10.99
					h-3v-10.99h-7.82v6.66h-3v-6.66H141v10.99h-3v-10.99h-15.83v17.15H271.03z M128.82,183.94c1.57,0,2.84,1.27,2.84,2.84
					c0,1.57-1.27,2.84-2.84,2.84c-1.57,0-2.84-1.27-2.84-2.84C125.98,185.21,127.25,183.94,128.82,183.94z"/>
				<rect x="122.16" y="197.43" class="st0" width="148.87" height="8.82"/>
			</g>
			<g>
				<path class="st0" d="M309.83,191.69c-0.05-2.29-0.37-4.54-1.04-6.73c-0.55-1.8-1.3-3.51-2.48-5.02c-0.63-0.8-1.35-1.5-2.24-2.02
					c-2.03-1.2-4.07-1.18-6.07,0.05c-0.59,0.36-1.12,0.84-1.61,1.33c-0.9,0.9-1.53,1.97-2.05,3.11c-1.12,2.4-1.66,4.94-1.87,7.55
					c-0.26,3.2,0.01,6.36,0.91,9.46c0.51,1.77,1.24,3.46,2.37,4.96c0.75,0.99,1.63,1.85,2.77,2.43c1.74,0.89,3.5,0.89,5.25,0.02
					c0.98-0.49,1.77-1.2,2.45-2.03c0.94-1.14,1.61-2.42,2.13-3.77C309.5,198.01,309.89,194.88,309.83,191.69z M304.67,199.86
					c-0.32,0.82-0.72,1.6-1.25,2.32c-0.36,0.49-0.78,0.93-1.32,1.26c-0.62,0.37-1.23,0.38-1.86,0.01c-0.61-0.35-1.06-0.86-1.45-1.41
					c-0.77-1.09-1.29-2.28-1.65-3.54c-1.26-4.49-1.24-8.96,0.24-13.41c0.31-0.92,0.71-1.8,1.3-2.58c0.33-0.44,0.7-0.87,1.13-1.22
					c0.83-0.68,1.6-0.66,2.46-0.03c0.52,0.38,0.91,0.86,1.26,1.38c0.79,1.18,1.29,2.47,1.67,3.81c0.48,1.74,0.7,3.52,0.77,5.46
					C306,194.55,305.68,197.26,304.67,199.86z"/>
				<path class="st0" d="M291.36,177.08c-0.37-0.03-0.75-0.04-1.12-0.04c-4.43,0-8.86,0-13.29,0c-0.18,0-0.36,0-0.53,0.01
					c-0.54,0.05-0.68,0.19-0.69,0.71c0,0.69,0,1.37,0.01,2.06c0.02,1.03,0.04,1.04,1.13,1.06c0.07,0,0.14,0,0.21,0
					c1.3,0,2.6,0,3.9,0.01c0.81,0.01,0.81,0.02,0.81,0.82c0,4.12-0.07,20.6-0.07,24.71c0,0.17-0.01,0.35,0.02,0.51
					c0.06,0.36,0.19,0.51,0.55,0.51c0.92,0.02,1.85,0.02,2.78,0c0.42-0.01,0.55-0.17,0.58-0.58c0.01-0.1,0.01-0.21,0.01-0.31
					c0.01-5.73,0.04-22.41,0.05-25.02c0-0.58,0.08-0.65,0.68-0.66c0.75-0.01,1.49,0,2.24,0c0.91,0,1.82,0,2.72-0.03
					c0.52-0.02,0.59-0.09,0.6-0.59c0.02-0.86,0.02-1.72,0.02-2.57C291.96,177.25,291.83,177.12,291.36,177.08z"/>
			</g>
		</g>
		<g>
			<path d="M136.73,103.84c0.06-0.22,0.15-0.66,0.28-1.08c3.73-11.44,7.46-22.87,11.19-34.31c0.25-0.76,0.51-1.52,0.74-2.28
				c0.16-0.52,0.32-1.05,0.95-1.16c0.63-0.11,0.96,0.35,1.3,0.76c1.31,1.61,2.63,3.21,3.95,4.82c2.07,2.52,4.14,5.04,6.2,7.57
				c0.11,0.14,0.22,0.28,0.34,0.41c0.38,0.4,0.55,0.4,0.94-0.02c0.12-0.13,0.22-0.28,0.33-0.42c2.75-3.61,5.49-7.22,8.24-10.83
				c0.07-0.09,0.14-0.19,0.21-0.28c0.68-0.81,1.5-0.67,1.91,0.32c2.24,5.39,4.48,10.78,6.72,16.17c2.43,5.83,4.86,11.65,7.29,17.48
				c0.08,0.19,0.17,0.38,0.23,0.58c0.2,0.64,0.1,0.98-0.44,1.4c-0.23,0.18-0.49,0.33-0.75,0.46c-3.75,1.9-7.51,3.8-11.26,5.7
				c-0.13,0.07-0.26,0.14-0.4,0.2c-0.97,0.45-1.7,0.15-2.01-0.88c-0.45-1.47-0.85-2.96-1.26-4.45c-0.66-2.34-1.32-4.68-1.98-7.01
				c-0.04-0.14-0.07-0.3-0.14-0.42c-0.09-0.17-0.22-0.31-0.34-0.47c-0.18,0.13-0.4,0.23-0.52,0.41c-0.16,0.24-0.25,0.53-0.37,0.81
				c-1.58,3.71-3.16,7.41-4.75,11.12c-0.07,0.16-0.14,0.33-0.22,0.49c-0.5,1.01-1.41,1.08-2.06,0.15c-0.15-0.22-0.25-0.47-0.36-0.71
				c-1.63-3.55-3.27-7.11-4.9-10.66c-0.1-0.22-0.18-0.45-0.31-0.64c-0.09-0.13-0.27-0.29-0.39-0.28c-0.13,0.01-0.3,0.19-0.35,0.33
				c-0.11,0.3-0.15,0.63-0.22,0.95c-0.7,3.09-1.4,6.18-2.11,9.27c-0.07,0.29-0.15,0.58-0.26,0.85c-0.34,0.87-0.84,1.11-1.75,0.86
				c-1.11-0.31-2.22-0.64-3.33-0.97c-3.07-0.9-6.14-1.8-9.21-2.7C136.95,105.09,136.72,104.82,136.73,103.84z"/>
			<path d="M230.33,88.37c-0.26,6.52-3.32,13.05-9.95,17.61c-9.13,6.29-21.21,4.12-27.73-4.85c-7.45-10.25-4.86-25.23,5.61-32.35
				c10.06-6.84,22.61-3.57,28.64,6.03C229.16,78.41,230.35,82.6,230.33,88.37z M214.29,87.9c0-0.43,0.04-0.87-0.01-1.3
				c-0.19-1.97-0.75-3.81-2.02-5.37c-1.74-2.13-4.23-2.58-6.62-1.21c-1.32,0.75-2.3,1.85-3.07,3.13c-1.57,2.63-2.12,5.5-1.81,8.53
				c0.18,1.69,0.68,3.29,1.68,4.7c1.9,2.67,4.87,3.17,7.52,1.26c1-0.72,1.8-1.64,2.44-2.69C213.71,92.78,214.33,90.43,214.29,87.9z"
				/>
			<path d="M251.34,64.8c3.37,0.12,6.44,0.4,9.46,1.1c0.46,0.11,0.91,0.25,1.34,0.43c1.07,0.44,1.25,0.81,0.98,1.92
				c-0.39,1.66-0.8,3.32-1.2,4.98c-0.45,1.86-0.9,3.72-1.36,5.57c-0.05,0.2-0.09,0.4-0.15,0.6c-0.3,0.95-1.05,1.27-1.92,0.82
				c-0.71-0.36-1.39-0.76-2.09-1.14c-1.05-0.56-2.15-1-3.34-1.07c-0.72-0.04-1.49-0.02-2.17,0.18c-1.44,0.42-1.74,1.68-0.63,2.68
				c0.67,0.6,1.47,1.07,2.28,1.49c0.73,0.37,1.53,0.61,2.31,0.87c1.76,0.58,3.5,1.21,5.13,2.13c3.22,1.82,5.21,4.53,5.79,8.21
				c0.35,2.23-0.12,4.33-1.23,6.29c-0.79,1.4-1.84,2.58-3.09,3.6c-3.42,2.78-7.33,4.57-11.6,5.56c-3.64,0.84-7.32,1.14-11.05,0.72
				c-2.45-0.28-4.77-1-7.04-1.92c-0.81-0.33-1-0.77-0.74-1.62c0.99-3.3,1.98-6.59,2.99-9.88c0.31-1.01,0.82-1.26,1.81-0.88
				c1.66,0.63,3.35,1.12,5.12,1.26c1.6,0.13,3.18,0.07,4.72-0.42c0.61-0.19,1.22-0.46,1.76-0.8c0.95-0.6,1.15-1.71,0.44-2.58
				c-0.4-0.49-0.91-0.94-1.45-1.26c-0.93-0.55-1.92-1.02-2.91-1.48c-1.44-0.67-2.93-1.24-4.33-1.98c-1.17-0.61-2.31-1.31-3.34-2.14
				c-2.97-2.38-4.01-5.96-2.9-9.6c0.83-2.73,2.43-4.95,4.57-6.79c3.1-2.68,6.7-4.21,10.78-4.63C249.38,64.9,250.5,64.86,251.34,64.8
				z"/>
			<path d="M272.92,94.24c0.1-4.61,0.19-9.22,0.29-13.83c0.03-1.39-0.07-1.5-1.46-1.37c-1.01,0.09-2.02,0.19-3.03,0.31
				c-0.96,0.11-1.68-0.17-1.76-1.46c-0.21-3.47-0.49-6.93-0.74-10.39c-0.02-0.24-0.04-0.48-0.02-0.72c0.05-0.5,0.34-0.83,0.83-0.93
				c0.29-0.06,0.59-0.07,0.89-0.08c6.73-0.19,13.47-0.37,20.2-0.57c1.71-0.05,3.41-0.18,5.11-0.27c0.33-0.02,0.66-0.06,0.99-0.03
				c0.62,0.06,0.96,0.42,1.04,1.04c0.03,0.24,0.02,0.48,0.02,0.72c-0.03,2.75-0.06,5.51-0.09,8.26c-0.02,1.36-0.36,1.75-1.72,1.91
				c-1.4,0.16-2.8,0.28-4.2,0.43c-0.87,0.09-1.11,0.31-1.17,1.17c-0.09,1.22-0.14,2.45-0.2,3.68c-0.27,5.29-0.53,10.58-0.8,15.88
				c-0.16,3.08-0.33,6.16-0.5,9.24c-0.06,1.14-0.36,1.49-1.49,1.61c-2.17,0.22-4.35,0.41-6.53,0.6c-1.43,0.13-2.86,0.26-4.29,0.38
				c-0.27,0.02-0.54,0.03-0.81,0c-0.48-0.06-0.74-0.36-0.78-0.84c-0.02-0.27-0.01-0.54-0.01-0.81
				C272.76,103.52,272.85,98.88,272.92,94.24C272.93,94.24,272.92,94.24,272.92,94.24z"/>
		</g>
		<g>
			<path d="M209.29,275.51c-0.03-0.28-0.27-0.49-0.56-0.49c-0.09,0-0.19,0-0.28,0c-3.88,0-7.76,0-11.64,0c-0.76,0-1.52-0.01-2.28,0
				c-0.59,0.01-0.68,0.09-0.69,0.67c-0.01,0.49,0,0.99,0.01,1.48c0,0.21,0.02,0.42,0.03,0.65c0.02,0.3,0.26,0.53,0.56,0.53
				c0.08,0,0.16,0,0.24,0c1.27,0,2.55,0,3.82,0c0.16,0,0.33,0,0.49,0.01c0.31,0.01,0.51,0.15,0.54,0.47
				c0.03,0.26,0.06,0.53,0.05,0.8c-0.02,8.13-0.03,16.26-0.05,24.4c0,0.29,0.01,0.57,0.03,0.86c0.01,0.28,0.16,0.48,0.45,0.48
				c0.78,0.01,1.56,0,2.34-0.01c0.29,0,0.45-0.18,0.47-0.47c0.02-0.29,0.02-0.57,0.02-0.86c0.02-8.26,0.04-16.51,0.05-24.77
				c0-0.11,0-0.23,0-0.35c0-0.28,0.22-0.52,0.5-0.55c0.08-0.01,0.15-0.01,0.23-0.01c0.9,0,1.81,0.01,2.71,0.01c0.8,0,1.6,0.01,2.4,0
				c0.28,0,0.5-0.23,0.51-0.5c0.03-0.68,0.05-1.35,0.06-2.03C209.31,275.71,209.3,275.61,209.29,275.51z"/>
			<path d="M224.67,275.83c0-0.69-0.08-0.77-0.79-0.79c-0.45-0.02-0.9-0.02-1.36-0.02c-1.13,0-1.17,0.04-1.17,1.18
				c0,3.84-0.01,7.68-0.01,11.53c0,0.07,0,0.14-0.01,0.21c-0.02,0.3-0.25,0.53-0.55,0.53h-5.64c-0.3,0-0.55-0.25-0.55-0.55
				c0-0.08,0-0.17,0-0.25c0.01-3.8,0.02-7.6,0.03-11.4c0-0.25-0.02-0.49-0.02-0.74c-0.01-0.3-0.19-0.46-0.47-0.47
				c-0.75-0.02-1.49-0.04-2.24-0.02c-0.3,0.01-0.55,0.24-0.57,0.54c-0.02,0.25-0.01,0.49-0.01,0.74
				c-0.02,8.88-0.04,17.75-0.05,26.63c0,0.62-0.01,1.23,0.02,1.85c0.02,0.3,0.26,0.54,0.55,0.55c0.52,0.02,1.05,0.01,1.57,0.01
				c1.14,0,1.15-0.01,1.15-1.18c0.01-3.84,0.01-7.68,0.02-11.53c0-0.11,0.01-0.22,0.01-0.33c0.02-0.29,0.26-0.52,0.55-0.52
				c0.07,0,0.14,0,0.2,0c1.62,0,3.25-0.01,4.87,0.01c1.05,0.01,1.12-0.25,1.11,1.09c-0.01,3.7-0.01,7.4-0.02,11.1
				c0,0.27-0.01,0.54,0.01,0.8c0.03,0.39,0.15,0.54,0.51,0.55c0.74,0.02,1.48,0.02,2.22-0.01c0.37-0.01,0.51-0.16,0.55-0.54
				c0.03-0.24,0.02-0.49,0.02-0.74c0.01-7.79,0.02-15.57,0.03-23.36C224.67,279.08,224.67,277.46,224.67,275.83z"/>
			<path d="M230.36,281.71c0-0.82,0-1.64,0.01-2.46c0.01-0.84,0.11-0.93,0.92-0.92c1.4,0.02,2.79,0.04,4.19,0.05
				c0.66,0.01,1.31,0.02,1.97,0.02c0.77-0.01,0.69-0.15,0.7-1.44c0-0.32,0-0.65-0.01-0.97c-0.03-0.74-0.08-0.81-0.75-0.82
				c-2.69-0.03-5.38-0.07-8.07-0.09c-0.25,0-0.5,0-0.74,0.04c-0.78,0.13-1.24,0.59-1.39,1.36c-0.05,0.28-0.06,0.57-0.06,0.86
				c-0.01,7.89-0.02,15.78-0.03,23.66c0,1.21-0.01,2.42,0,3.63c0,0.37,0.28,0.68,0.65,0.71c0.07,0.01,0.14,0.01,0.21,0.01
				c2.65,0.01,5.3,0.02,7.95,0.02c0.51,0,1.03-0.05,1.54-0.07c0.31-0.01,0.47-0.15,0.47-0.45c0.01-0.74,0.01-1.48,0.01-2.22
				c0-0.27-0.17-0.4-0.43-0.42c-0.16-0.01-0.33-0.01-0.49-0.01c-1.91,0-3.82,0-5.73,0c-0.19,0-0.38,0-0.6,0
				c-0.15,0-0.28-0.11-0.29-0.26c-0.03-0.2-0.05-0.38-0.05-0.56c0-2.1,0-4.19,0-6.29c0-0.8,0-1.6,0-2.4
				c0.01-0.76,0.1-0.85,0.84-0.85c1.64,0.01,3.29,0.02,4.93,0.03c0.7,0,0.82-0.1,0.86-0.81c0.02-0.53,0.01-1.07-0.01-1.6
				c-0.03-0.69-0.16-0.81-0.86-0.82c-1.56-0.01-3.12-0.01-4.68-0.02c-0.14,0-0.29,0-0.43-0.01c-0.51-0.03-0.61-0.13-0.64-0.62
				c-0.01-0.18,0-0.37,0-0.55C230.35,285.53,230.36,283.62,230.36,281.71z"/>
		</g>
		<path d="M147.66,226.68c1.28-0.22,2.49-0.45,3.72-0.62c2.19-0.3,4.4-0.37,6.56,0.17c0.92,0.23,1.84,0.55,2.69,0.97
			c2.12,1.03,3.57,2.7,4.38,4.91c0.65,1.76,1.02,3.59,1.19,5.45c0.19,2.1,0.34,4.2,0.48,6.3c0.24,3.68,0.41,7.36,0.7,11.03
			c0.45,5.72,1.04,11.44,2.26,17.06c0.89,4.07,2.03,8.07,3.49,11.97c0.57,1.52,1.23,3.02,2.11,4.39c0.52,0.8,1.05,1.6,2.01,2.11
			c0.2-0.18,0.44-0.33,0.59-0.54c0.75-1.07,1.25-2.27,1.53-3.54c0.45-1.96,0.87-3.92,1.16-5.91c0.69-4.83,1.37-9.66,1.93-14.51
			c0.5-4.37,0.83-8.76,1.22-13.15c0.12-1.34,0.06-2.66-0.19-3.99c-0.67-3.54-0.8-7.13-0.69-10.72c0.08-2.77,0.21-5.55,0.39-8.32
			c0.09-1.33,0.34-2.65,0.53-3.98c0.04-0.28,0.13-0.56,0.22-0.83c0.68-2.03,2.74-2.98,4.72-2.2c0.93,0.37,1.5,1.03,1.64,2
			c0.09,0.61,0.12,1.24,0.11,1.86c-0.05,2.39-0.09,4.79-0.2,7.18c-0.17,3.54-0.25,7.07,0.09,10.61c0.44,4.53,1.65,8.83,3.86,12.82
			c0.35,0.63,0.74,1.23,1.15,1.82c0.24,0.35,0.52,0.69,0.82,1c1.45,1.51,2.51,1.58,4.05,0.14c0.76-0.71,1.48-1.52,2.05-2.39
			c1.02-1.56,2.01-3.15,2.86-4.8c3.58-6.98,6.81-14.13,9.89-21.35c0.22-0.52,0.35-1.09,0.42-1.65c0.27-2.18,0.48-4.38,1.04-6.51
			c0.16-0.6,0.33-1.21,0.59-1.76c0.79-1.66,2.84-2.39,4.52-1.64c0.85,0.38,1.4,1.03,1.5,1.95c0.08,0.71,0.11,1.43,0.06,2.15
			c-0.14,2.15-0.34,4.29-0.49,6.44c-0.43,6.21,0.01,12.33,1.84,18.32c0.64,2.11,1.48,4.14,2.46,6.12c0.7,1.42,1.53,2.76,2.61,3.93
			c0.56,0.6,1.17,1.13,1.9,1.51c0.89,0.47,1.75,0.46,2.57-0.12c0.47-0.33,0.91-0.7,1.33-1.09c1.09-1.02,1.96-2.22,2.84-3.42
			c0.4-0.56,0.47-1.09,0.3-1.74c-0.51-1.99-1.01-3.99-1.44-6c-0.73-3.47-1.16-6.98-1.4-10.52c-0.19-2.87-0.22-5.74,0.04-8.6
			c0.27-2.92,0.82-5.78,1.79-8.54c0.54-1.54,1.25-3.01,2.25-4.31c1.26-1.64,2.82-2.86,4.91-3.24c2.08-0.38,3.78,0.25,5.05,1.96
			c0.93,1.25,1.45,2.69,1.79,4.2c0.52,2.3,0.62,4.63,0.45,6.99c-0.37,5.29-1.66,10.38-3.42,15.36c-0.93,2.61-1.97,5.18-3.02,7.75
			c-0.29,0.7-0.36,1.34-0.16,2.07c1.28,4.72,3.04,9.27,5.08,13.7c0.6,1.3,1.3,2.56,2.2,3.69c0.27,0.33,0.57,0.64,0.88,0.95
			c0.13,0.13,0.31,0.2,0.46,0.29c0.54-0.3,0.72-0.82,0.91-1.29c0.63-1.55,1.3-3.09,1.8-4.68c1.41-4.47,2.57-9.01,3.64-13.58
			c0.21-0.88,0.26-1.8,0.3-2.7c0.16-3.64,0.55-7.25,1.25-10.82c0.52-2.63,1.25-5.21,2.31-7.68c1.11-2.57,2.57-4.91,4.57-6.9
			c1.88-1.86,4.08-3.16,6.67-3.72c5.15-1.12,10.42,1.08,13.38,5.48c2.34,3.48,3.02,7.29,2.21,11.38c-0.68,3.42-2.01,6.58-3.93,9.48
			c-1.01,1.53-2.19,2.91-3.6,4.07c-4.23,3.49-8.98,4.23-14.15,2.59c-0.41-0.13-0.81-0.28-1.21-0.42c-0.04-0.01-0.09,0.01-0.2,0.03
			c-0.03,0.26-0.08,0.53-0.08,0.81c-0.05,7.4,0.62,14.72,2.36,21.92c1.04,4.29,2.56,8.41,4.6,12.34c1.31,2.52,2.9,4.84,4.8,6.95
			c1.32,1.46,2.78,2.78,4.47,3.8c0.69,0.41,1.45,0.74,2.21,0.99c1.14,0.38,2.2,0.09,3.03-0.78c0.56-0.58,1.07-1.23,1.5-1.91
			c1.16-1.88,1.97-3.93,2.63-6.04c1.04-3.29,1.75-6.66,2.29-10.06c0.76-4.82,1.24-9.68,1.66-14.54c0.17-2.05,0.25-4.11,0.38-6.16
			c0.08-1.34,0.15-2.68,0.27-4.01c0.1-1.09,0.74-1.74,1.8-1.93c0.98-0.18,1.72,0.35,1.82,1.33c0.05,0.47,0.01,0.96-0.01,1.43
			c-0.24,4.16-0.4,8.32-0.76,12.46c-0.58,6.82-1.5,13.6-3.42,20.2c-0.69,2.39-1.47,4.75-2.58,6.99c-0.62,1.25-1.3,2.45-2.2,3.52
			c-2.26,2.71-5.12,4.1-8.68,3.91c-1.64-0.09-3.21-0.53-4.68-1.27c-3.57-1.8-6.55-4.29-8.8-7.62c-2.1-3.11-3.69-6.48-5.02-9.97
			c-1.97-5.16-3.23-10.51-3.96-15.98c-0.25-1.9-0.46-3.8-0.69-5.71c-0.33-0.09-0.35,0.17-0.41,0.38c-0.39,1.53-0.77,3.06-1.18,4.58
			c-0.35,1.3-0.79,2.57-1.49,3.72c-0.42,0.69-0.9,1.37-1.48,1.92c-1.71,1.63-3.96,1.95-6.11,0.96c-1.1-0.51-2.03-1.26-2.89-2.09
			c-1.34-1.31-2.48-2.79-3.5-4.36c-1.28-1.97-2.32-4.07-3.18-6.26c-0.17-0.44-0.36-0.87-0.59-1.42c-0.25,0.23-0.42,0.36-0.56,0.52
			c-0.64,0.71-1.23,1.47-1.91,2.14c-0.58,0.57-1.21,1.1-1.88,1.54c-2.88,1.87-5.89,2.08-8.99,0.57c-1.75-0.85-3.2-2.08-4.46-3.55
			c-1.32-1.53-2.37-3.24-3.2-5.08c-1.33-2.94-2.23-6.01-2.8-9.17c-0.39-2.16-0.64-4.35-0.97-6.58c-0.36,0.1-0.4,0.44-0.52,0.71
			c-2.1,4.77-4.2,9.54-6.31,14.31c-0.83,1.88-1.76,3.72-2.92,5.43c-0.84,1.23-1.79,2.37-2.95,3.31c-1.6,1.29-3.38,2.14-5.45,2.34
			c-2.24,0.22-4.27-0.31-6.11-1.59c-1.64-1.15-2.83-2.7-3.82-4.42c-0.28-0.49-0.55-1-0.81-1.47c-0.35-0.01-0.31,0.22-0.33,0.39
			c-0.39,4.1-0.73,8.2-1.17,12.29c-0.52,4.85-1.15,9.69-2,14.5c-0.28,1.61-0.73,3.17-1.43,4.65c-0.47,1-1.06,1.93-1.88,2.69
			c-1.48,1.39-3.85,2.42-6.57,0.71c-0.68-0.43-1.31-0.96-1.9-1.52c-1.19-1.12-2.15-2.44-3.01-3.82c-2.34-3.72-3.97-7.73-4.98-12.01
			c-0.93-3.91-1.59-7.87-2.07-11.87c-0.83-6.99-1.4-13.99-1.73-21.02c-0.12-2.48-0.27-4.97-0.82-7.41
			c-0.21-0.93-0.49-1.85-0.83-2.74c-0.39-1.05-1.17-1.75-2.26-2.03c-2.02-0.51-4.05-0.57-6.1-0.22c-0.19,0.46,0,0.82,0.08,1.17
			c0.98,3.91,1.42,7.9,1.68,11.92c0.39,5.83,0.36,11.67,0.16,17.51c-0.19,5.64-0.48,11.28-0.84,16.92
			c-0.26,4.06-0.71,8.1-1.37,12.12c-0.32,1.94-0.7,3.86-1.4,5.7c-0.29,0.76-0.62,1.5-1,2.22c-0.43,0.81-1.01,1.51-1.73,2.09
			c-1.71,1.36-3.59,1.71-5.65,0.91c-1.27-0.49-2.34-1.29-3.31-2.23c-1.52-1.48-2.76-3.17-3.85-4.99c-2.28-3.81-3.84-7.9-4.86-12.22
			c-1-4.27-1.39-8.59-1.13-12.97c0.08-1.28,0.3-2.56,0.53-3.83c0.09-0.5,0.32-1,0.58-1.45c0.35-0.62,0.94-0.93,1.66-0.97
			c0.91-0.05,1.47,0.27,1.77,1.13c0.16,0.45,0.27,0.92,0.31,1.39c0.13,1.33,0.24,2.67,0.3,4c0.21,4.06,0.53,8.12,1.42,12.1
			c0.73,3.28,1.75,6.46,3.17,9.51c0.71,1.52,1.51,2.99,2.53,4.33c0.52,0.68,1.08,1.34,1.68,1.96c0.4,0.41,0.87,0.76,1.35,1.06
			c1.17,0.72,1.65,0.6,2.33-0.55c0.27-0.45,0.51-0.93,0.68-1.42c0.32-0.95,0.68-1.9,0.86-2.88c0.44-2.45,0.88-4.9,1.15-7.37
			c0.93-8.33,1.37-16.69,1.55-25.06c0.08-3.64,0.17-7.27,0.1-10.91c-0.09-4.69-0.28-9.37-1.04-14.01c-0.25-1.5-0.49-3.01-0.96-4.47
			c-0.52-0.22-0.99-0.05-1.45,0.03c-2.16,0.4-4.32,0.83-6.49,1.19c-2.03,0.34-4.08,0.52-6.15,0.43c-1.49-0.06-2.95-0.3-4.34-0.85
			c-0.62-0.25-1.23-0.54-1.79-0.9c-2.73-1.76-3.73-4.63-2.78-7.75c0.43-1.4,1.2-2.6,2.19-3.66c3.06-3.26,8.06-5,13.3-2.76
			c3.09,1.32,5.49,3.45,7.3,6.25C146.44,224.45,146.99,225.52,147.66,226.68z M267.92,247.06c1.4,1.13,2.84,1.85,4.44,2.24
			c3.12,0.74,5.97,0.23,8.5-1.81c1.05-0.85,1.98-1.8,2.76-2.9c2.5-3.51,3.98-7.4,4.17-11.72c0.12-2.6-0.54-5.02-2.02-7.19
			c-0.76-1.13-1.72-2.04-2.92-2.7c-1.82-1.01-3.62-1.05-5.43,0.04c-1.54,0.93-2.82,2.12-3.91,3.54c-1.56,2.04-2.61,4.33-3.38,6.76
			c-1.1,3.48-1.68,7.06-2.01,10.69C268.05,245,268,246,267.92,247.06z M144.66,227.31c-0.73-1.88-1.64-3.49-2.85-4.93
			c-1.21-1.44-2.63-2.62-4.34-3.44c-1.28-0.61-2.61-0.88-4.02-0.8c-3.21,0.19-6.14,2.7-6.77,5.84c-0.4,1.97,0.52,3.88,2.32,4.79
			c0.73,0.37,1.51,0.58,2.33,0.64c1.53,0.1,3.05,0.03,4.57-0.17c2.7-0.36,5.33-1.05,7.98-1.64
			C144.1,227.55,144.32,227.44,144.66,227.31z M246.43,216.82c-0.24,0.38-0.43,0.6-0.54,0.85c-0.45,1.05-0.94,2.09-1.31,3.18
			c-1.07,3.15-1.6,6.4-1.72,9.71c-0.12,3.16-0.01,6.32,0.35,9.46c0.16,1.36,0.37,2.72,0.57,4.18c0.22-0.17,0.37-0.23,0.42-0.33
			c0.2-0.44,0.37-0.88,0.54-1.33c1.74-4.62,3.24-9.3,3.73-14.25c0.24-2.39,0.28-4.78-0.17-7.15
			C248.01,219.63,247.58,218.17,246.43,216.82z"/>
		<g>
			<path d="M254.63,341.15c-1.09,0.59-2.1,1.18-3.15,1.7c-1.05,0.52-2.14,0.96-3.26,1.46c-0.18,1.2-0.34,2.41-0.53,3.61
				c-0.35,2.16-0.81,4.3-1.53,6.37c-0.4,1.15-0.88,2.27-1.52,3.32c-0.62,1.02-1.38,1.92-2.37,2.59c-2.42,1.64-4.93,1.81-7.49,0.38
				c-0.69-0.38-1.31-0.92-1.89-1.46c-1.18-1.1-2.09-2.42-2.87-3.82c-1.56-2.78-2.54-5.76-3.04-8.91c-0.3-1.87-0.49-3.76-0.49-5.65
				c0-0.2-0.03-0.39-0.05-0.54c-0.27-0.15-0.39,0.01-0.51,0.11c-1.55,1.23-3.08,2.48-4.64,3.7c-0.39,0.31-0.58,0.65-0.64,1.15
				c-0.46,3.63-1.02,7.25-1.98,10.79c-0.47,1.71-1.03,3.38-1.78,4.98c-0.56,1.19-1.25,2.29-2.25,3.17c-1.35,1.2-2.93,1.78-4.75,1.65
				c-0.99-0.07-1.89-0.4-2.74-0.88c-1.58-0.9-2.76-2.19-3.68-3.73c-1.02-1.71-1.72-3.55-2.25-5.47c-0.21-0.76-0.39-1.52-0.64-2.48
				c-0.19,0.38-0.31,0.59-0.4,0.81c-0.74,1.79-1.46,3.58-2.22,5.36c-0.32,0.73-0.71,1.43-1.1,2.13c-0.38,0.67-0.9,1.22-1.55,1.64
				c-1.29,0.85-3.16,1.01-4.58-0.21c-0.57-0.49-1.1-1.04-1.56-1.64c-2.1-2.77-3.47-5.85-3.89-9.32c-0.2-1.67-0.33-3.35-0.49-5.02
				c-0.18-1.88-0.3-3.78-0.73-5.63c-0.08-0.32-0.19-0.64-0.32-1.06c-0.24,0.23-0.44,0.37-0.57,0.56c-0.81,1.14-1.42,2.38-1.94,3.67
				c-1.14,2.82-1.92,5.75-2.47,8.73c-0.48,2.6-0.84,5.23-1.26,7.85c-0.07,0.41-0.14,0.83-0.28,1.22c-0.46,1.23-1.74,2.09-3.05,2.07
				c-0.7-0.01-1.35-0.23-1.81-0.77c-0.52-0.6-1.02-1.23-1.45-1.9c-1.59-2.5-2.71-5.22-3.59-8.04c-0.21-0.67-0.32-1.38-0.69-2.1
				c-0.29,0.24-0.5,0.42-0.72,0.59c-0.89,0.71-1.72,1.5-2.67,2.1c-4.18,2.63-9.03,2.17-12.7-1.14c-1.33-1.2-2.35-2.63-3.15-4.23
				c-1.35-2.7-2.1-5.58-2.5-8.56c-0.04-0.32-0.12-0.64-0.2-1.1c-1.55,1.36-2.99,2.61-4.47,3.9c0.14,0.33,0.28,0.62,0.41,0.93
				c0.62,1.47,1.34,2.91,1.83,4.43c1.3,4.05,1,7.98-1.28,11.65c-1.58,2.54-3.84,4.19-6.76,4.92c-5.14,1.29-9.2-2.26-10.25-5.82
				c-0.71-2.42-0.49-4.74,0.62-6.99c0.88-1.78,2.18-3.2,3.83-4.28c1.02-0.67,2.09-1.25,3.15-1.87c0.61-0.36,1.23-0.72,1.89-1.11
				c-0.14-0.32-0.23-0.6-0.38-0.83c-1.05-1.63-2.09-3.26-3.18-4.86c-1.21-1.77-2.51-3.48-3.71-5.26c-1.24-1.85-2.46-3.72-3.6-5.64
				c-1.36-2.29-2.42-4.72-3.03-7.32c-0.55-2.32-0.67-4.67-0.11-7c1.08-4.52,4.58-6.83,7.82-7.26c2.44-0.33,4.59,0.32,6.45,1.9
				c1.71,1.45,2.85,3.31,3.58,5.41c0.92,2.64,1.08,5.35,0.57,8.09c-0.06,0.33-0.16,0.66-0.3,0.96c-0.2,0.42-0.59,0.59-1.04,0.59
				c-0.34,0.01-0.67-0.25-0.72-0.58c-0.05-0.33-0.06-0.67-0.08-1.01c-0.11-1.42-0.09-2.86-0.38-4.27c-0.48-2.27-1.4-4.31-2.92-6.07
				c-0.55-0.64-1.17-1.21-1.92-1.62c-1.38-0.75-2.38-0.55-3.3,0.7c-1.08,1.46-1.63,3.12-1.73,4.93c-0.1,1.66,0.17,3.27,0.67,4.85
				c0.51,1.61,1.22,3.13,2.04,4.61c1.16,2.1,2.51,4.09,3.89,6.05c1.63,2.3,3.27,4.59,4.89,6.9c0.63,0.89,1.2,1.83,1.83,2.79
				c0.16-0.06,0.33-0.08,0.45-0.17c1.57-1.21,3.06-2.51,4.4-3.97c0.51-0.56,0.77-1.14,0.76-1.92c-0.02-1.78,0.26-3.52,0.76-5.23
				c0.39-1.3,0.96-2.52,1.76-3.61c1.22-1.67,2.82-2.74,4.87-3.11c1.89-0.34,3.64,0.03,5.11,1.23c2.52,2.05,3.71,4.74,3.41,8
				c-0.05,0.61-0.32,1.21-0.57,1.78c-0.2,0.44-0.61,0.68-1.12,0.69c-0.5,0.01-0.8-0.21-0.88-0.72c-0.07-0.46-0.1-0.92-0.14-1.38
				c-0.15-1.98-1.02-3.62-2.34-5.05c-0.59-0.64-0.87-0.8-1.8-1.16c-0.48,0.28-0.72,0.77-0.99,1.24c-0.78,1.37-1.25,2.86-1.47,4.41
				c-0.62,4.38-0.09,8.64,1.46,12.78c0.66,1.75,1.59,3.35,2.8,4.76c0.54,0.63,1.17,1.22,1.84,1.71c1.26,0.9,2.63,1.05,4.05,0.35
				c0.26-0.13,0.53-0.25,0.78-0.4c1.41-0.87,2.58-2.01,3.64-3.29c-0.17-1.02-0.35-2.01-0.5-3c-0.72-4.58-1.04-9.2-0.95-13.84
				c0.1-5.2,0.76-10.32,2.25-15.31c0.41-1.37,0.91-2.71,1.61-3.97c0.6-1.08,1.33-2.04,2.32-2.8c0.92-0.71,1.93-1.2,3.08-1.37
				c2.74-0.41,4.88,0.55,6.34,2.91c1.13,1.83,1.64,3.86,1.79,5.99c0.21,2.94-0.29,5.79-1.1,8.59c-0.92,3.16-2.2,6.18-3.57,9.16
				c-1.48,3.21-3.05,6.38-4.89,9.4c-0.33,0.55-0.43,1.07-0.27,1.67c0.54,2.16,1.05,4.33,1.61,6.49c0.26,1.02,0.61,2.01,0.92,3.02
				c0.04,0.14,0.15,0.26,0.33,0.58c0.17-0.66,0.3-1.13,0.41-1.6c0.85-3.74,1.83-7.43,3.28-10.99c0.52-1.28,1.12-2.54,1.79-3.75
				c0.42-0.76,1-1.46,1.59-2.1c0.86-0.93,1.99-1.41,3.25-1.5c1.84-0.12,3.26,0.63,4.25,2.2c0.66,1.05,1.03,2.22,1.22,3.42
				c0.22,1.33,0.4,2.66,0.5,4.01c0.2,2.69,0.4,5.37,0.8,8.04c0.27,1.79,0.61,3.57,1.3,5.25c0.28,0.7,0.56,1.41,1.16,2.03
				c0.16-0.14,0.35-0.24,0.44-0.4c0.46-0.8,0.93-1.6,1.33-2.43c1.53-3.2,2.72-6.52,3.67-9.93c0.12-0.44,0.16-0.91,0.17-1.37
				c0.05-1.22,0.03-2.44,0.12-3.66c0.04-0.55-0.09-0.96-0.45-1.37c-1.43-1.63-2.53-3.46-3.32-5.48c-1.9-4.85-2.06-9.75-0.38-14.69
				c0.63-1.85,1.59-3.53,2.83-5.04c1.42-1.73,3.16-3.02,5.34-3.64c2.85-0.82,5.58-0.48,8.18,0.93c1.77,0.96,3.2,2.31,4.4,3.91
				c1.77,2.37,2.85,5.04,3.49,7.91c0.71,3.22,1,6.48,1.03,9.77c0.02,1.68-0.04,3.37-0.06,5.05c0,0.29,0,0.58,0,0.86
				c0.13,0.04,0.23,0.11,0.28,0.08c1.02-0.58,3.75-2.79,4.64-3.74c-0.08-0.21-0.15-0.44-0.25-0.66c-1.25-2.57-1.91-5.3-2-8.15
				c-0.09-3.16,0.48-6.21,1.96-9.03c0.47-0.89,1.02-1.75,1.67-2.52c2.86-3.42,7.24-4.38,11.3-2.52c1.64,0.75,3,1.85,4.17,3.2
				c1.65,1.91,2.75,4.12,3.52,6.5c0.79,2.45,1.23,4.98,1.51,7.53c0.36,3.22,0.57,6.46,0.47,9.7c-0.01,0.16,0.03,0.33,0.05,0.58
				c0.27-0.06,0.51-0.07,0.72-0.15c1.58-0.62,3.54-1.73,5.07-2.87c0.17-0.6,0.02-1.23-0.05-1.85c-0.45-4.03-0.53-8.06-0.14-12.1
				c0.28-2.85,0.76-5.67,1.69-8.39c0.51-1.48,1.14-2.89,2.01-4.2c0.61-0.92,1.31-1.75,2.21-2.41c1.79-1.32,3.77-1.82,5.96-1.26
				c1.51,0.38,2.63,1.28,3.39,2.63c0.71,1.27,1.02,2.67,1.1,4.11c0.1,1.7-0.16,3.36-0.61,4.99c-0.79,2.86-2.06,5.51-3.55,8.06
				c-1.33,2.26-2.87,4.36-4.56,6.35c-0.35,0.42-0.71,0.83-1.13,1.32c0.11,0.91,0.21,1.87,0.34,2.82c0.96,6.85,3.44,13.16,7,19.06
				c0.85,1.41,1.84,2.72,3.05,3.85c0.49,0.46,1.01,0.9,1.57,1.26c0.53,0.33,1.11,0.61,1.7,0.8c1.58,0.5,2.65,0.14,3.67-1.18
				c0.7-0.9,1.21-1.92,1.66-2.96c0.83-1.95,1.33-3.99,1.73-6.06c0.7-3.68,1.08-7.41,1.29-11.15c0.16-2.73,0.25-5.47,0.37-8.2
				c0.02-0.5,0.03-1.01,0.09-1.51c0.09-0.78,0.62-1.29,1.4-1.39c0.73-0.1,1.22,0.26,1.34,1c0.05,0.33,0.05,0.67,0.06,1.01
				c0.07,3.75-0.02,7.49-0.28,11.23c-0.32,4.58-0.9,9.13-2.46,13.49c-0.45,1.26-0.97,2.51-1.56,3.72c-0.38,0.79-0.87,1.55-1.44,2.21
				c-2.39,2.8-5.39,3.76-8.96,2.77c-2.28-0.63-4.2-1.91-5.96-3.45c-2.63-2.31-4.59-5.14-6.12-8.27c-1.74-3.57-2.94-7.33-3.77-11.21
				c-0.16-0.74-0.3-1.48-0.46-2.23C254.77,341.52,254.71,341.37,254.63,341.15z M218.07,343.07c0.1-1.53,0.24-3.04,0.29-4.55
				c0.09-2.65,0.04-5.3-0.24-7.94c-0.24-2.26-0.58-4.5-1.25-6.69c-0.7-2.31-1.71-4.48-3.26-6.36c-0.84-1.02-1.82-1.87-2.98-2.5
				c-2.79-1.53-6.06-1.25-8.37,1.61c-0.83,1.02-1.5,2.14-1.98,3.36c-1.99,5.19-1.71,10.29,0.59,15.32c0.05,0.1,0.11,0.2,0.21,0.41
				c0.27-0.6,0.44-1.02,0.65-1.43c0.57-1.09,1.49-1.7,2.7-1.84c1.49-0.18,2.55,0.71,2.63,2.2c0.03,0.46,0.01,0.93-0.03,1.39
				c-0.12,1.13-0.27,2.26-0.39,3.38c-0.1,0.87-0.25,1.74-0.13,2.56C210.04,344.61,215.07,345.11,218.07,343.07z M228.33,330.78
				c0.57-0.2,1.08-0.42,1.6-0.54c1.51-0.33,2.68,0.45,2.97,1.96c0.08,0.45,0.11,0.92,0.1,1.38c-0.03,1.22-0.12,2.44-0.16,3.66
				c-0.02,0.75,0,1.5,0,2.18c3.11,2.9,8.49,4.4,11.93,3.35c0.04-0.3,0.11-0.63,0.12-0.95c0.22-4.43,0.06-8.83-0.76-13.2
				c-0.43-2.28-1.06-4.5-2.09-6.59c-0.71-1.44-1.58-2.78-2.73-3.91c-0.91-0.9-1.93-1.63-3.16-2.01c-1.5-0.47-2.92-0.3-4.17,0.7
				c-0.49,0.39-0.93,0.85-1.33,1.34c-0.72,0.89-1.24,1.9-1.64,2.97c-1.07,2.82-1.23,5.74-0.85,8.7
				C228.18,330.12,228.26,330.44,228.33,330.78z M175.84,310.62c-0.59,0.38-0.89,0.89-1.19,1.39c-0.64,1.05-1.09,2.18-1.47,3.34
				c-1.26,3.95-1.93,8.01-2.25,12.13c-0.27,3.41-0.19,6.82,0.02,10.22c0.05,0.75,0.17,1.5,0.26,2.25c0,0.02,0.06,0.04,0.13,0.09
				c0.36-0.15,0.46-0.54,0.64-0.85c2.03-3.5,3.74-7.16,5.17-10.94c0.74-1.97,1.34-3.99,1.72-6.06c0.46-2.47,0.53-4.93-0.15-7.38
				c-0.27-0.98-0.64-1.91-1.22-2.75C177.09,311.46,176.61,310.94,175.84,310.62z M134.72,346.98c-1.33,0.79-2.61,1.53-3.86,2.3
				c-0.5,0.31-0.98,0.66-1.41,1.06c-1.76,1.65-2.62,3.69-2.48,6.1c0.16,2.65,1.92,4.85,4.41,5.57c1.98,0.57,3.85-0.15,4.85-1.95
				c0.34-0.62,0.6-1.3,0.79-1.98c0.38-1.36,0.37-2.75,0.16-4.13c-0.34-2.31-1.14-4.48-2.16-6.56
				C134.97,347.28,134.88,347.19,134.72,346.98z M206.35,346.22c-0.02,0.26-0.05,0.47-0.04,0.67c0.14,2.52,0.49,5.01,1.24,7.43
				c0.67,2.15,1.69,4.11,3.07,5.88c0.43,0.56,0.87,1.13,1.58,1.39c0.54-0.25,0.81-0.74,1.11-1.19c0.79-1.2,1.33-2.52,1.8-3.87
				c1.11-3.18,1.85-6.45,2.4-9.76c0.02-0.14-0.04-0.29-0.06-0.38c-1.3,0.25-2.53,0.49-3.76,0.71c-1.21,0.22-2.44,0.12-3.64-0.08
				C208.83,346.82,207.63,346.5,206.35,346.22z M240.36,356.86c0.48-0.16,0.7-0.54,0.91-0.89c0.3-0.5,0.6-1.02,0.82-1.56
				c1.13-2.68,1.82-5.49,2.3-8.36c0.04-0.23,0.12-0.5-0.09-0.7c-7.41,0.19-5.58,0.17-11.11-1.43c-0.03,0.12-0.09,0.24-0.07,0.36
				c0.42,2.85,1.25,5.57,2.71,8.07c0.79,1.36,1.76,2.56,2.97,3.57C239.27,356.31,239.76,356.7,240.36,356.86z M260.29,332.62
				c0.22-0.05,0.27-0.05,0.29-0.07c0.14-0.15,0.29-0.3,0.42-0.47c1.57-2.09,2.97-4.28,4.1-6.63c0.68-1.4,1.24-2.85,1.67-4.35
				c0.49-1.71,0.73-3.45,0.65-5.23c-0.05-0.98-0.25-1.91-0.66-2.8c-0.23-0.5-0.54-0.95-1.01-1.26c-0.38-0.26-0.71-0.26-1.01,0.1
				c-0.41,0.48-0.8,0.98-1.12,1.52c-0.93,1.56-1.54,3.26-2.03,5c-1.12,4-1.41,8.1-1.36,12.23
				C260.24,331.28,260.27,331.91,260.29,332.62z"/>
			<g>
				<path d="M292.64,331.2c0-2.23-0.03-4.46,0.01-6.69c0.06-3.41,0.31-6.81,0.79-10.19c0.12-0.87,0.29-1.74,0.51-2.6
					c0.12-0.48,0.32-0.96,0.58-1.39c0.66-1.09,2-1.74,3.52-1.38c0.96,0.23,1.51,0.91,1.64,1.87c0.08,0.58,0.09,1.18,0.06,1.76
					c-0.09,1.6-0.2,3.19-0.33,4.78c-0.27,3.15-0.48,6.3-0.47,9.45c0,4.12-0.03,8.25,0.08,12.37c0.11,3.99,0.39,7.98,0.89,11.96
					c0.06,0.46,0.08,0.92,0.12,1.38c0.1,1.05-0.32,1.88-1.07,2.58c-0.67,0.62-1.45,1-2.35,1.12c-1.49,0.21-2.48-0.5-2.65-1.99
					c-0.27-2.38-0.54-4.77-0.73-7.16C292.8,341.8,292.55,336.51,292.64,331.2z"/>
				<path d="M300.22,361.92c-0.02,2.08-1.66,3.7-3.69,3.67c-1.99-0.03-3.6-1.67-3.59-3.65c0.02-2.05,1.77-3.7,3.88-3.65
					C298.79,358.34,300.25,359.89,300.22,361.92z"/>
			</g>
		</g>
		<g>
			<path d="M183.52,149.63c-0.34,0.86-0.56,1.4-0.76,1.95c-1.51,4.04-3.12,8.04-5.04,11.9c-0.46,0.92-0.92,1.85-1.49,2.7
				c-1.26,1.87-3.03,2.89-5.33,2.85c-1.21-0.02-2.29-0.45-3.3-1.1c-1.21-0.78-2.19-1.81-3.06-2.94c-1.79-2.32-3.02-4.92-3.8-7.73
				c-0.1-0.38-0.2-0.76-0.32-1.13c-0.02-0.07-0.11-0.13-0.23-0.26c-0.25,0.41-0.48,0.77-0.69,1.14c-1.29,2.32-2.68,4.56-4.27,6.68
				c-0.44,0.59-0.89,1.18-1.4,1.7c-2.56,2.66-6.31,3.29-9.57,1.6c-2.18-1.13-3.87-2.81-5.33-4.75c-0.41-0.54-0.79-1.11-1.25-1.76
				c-0.28,0.26-0.54,0.45-0.75,0.69c-1,1.08-2.06,2.1-3.27,2.95c-1.29,0.91-2.67,1.63-4.21,2.02c-2.42,0.61-4.66,0.2-6.76-1.11
				c-1.43-0.9-2.59-2.08-3.56-3.46c-1.02-1.46-1.77-3.05-2.33-4.73c-0.93-2.77-1.39-5.61-1.32-8.52c0.03-1.22,0.28-2.43,0.46-3.64
				c0.05-0.33,0.18-0.67,0.35-0.96c0.33-0.59,1.1-0.92,1.77-0.79c0.66,0.13,1.02,0.58,1.12,1.21c0.15,0.97,0.27,1.94,0.35,2.92
				c0.24,2.79,0.63,5.55,1.45,8.23c0.52,1.7,1.2,3.31,2.23,4.77c0.74,1.05,1.61,1.97,2.69,2.69c1.38,0.91,2.83,1,4.33,0.33
				c0.22-0.1,0.44-0.21,0.66-0.33c2.16-1.24,3.84-3,5.36-4.94c-0.3-0.75-0.58-1.43-0.84-2.11c-1.31-3.45-2.21-7-2.84-10.63
				c-0.78-4.45-1.2-8.94-0.96-13.46c0.17-3.04,0.59-6.05,1.71-8.91c0.46-1.18,1.02-2.33,1.65-3.44c0.79-1.38,1.9-2.49,3.26-3.32
				c3.44-2.11,7.52-1.04,9.47,2.49c0.89,1.61,1.29,3.38,1.55,5.18c0.55,3.83,0.27,7.63-0.46,11.4c-1.14,5.9-3.11,11.53-5.74,16.93
				c-0.13,0.26-0.26,0.53-0.38,0.79c-0.04,0.09-0.06,0.18-0.13,0.37c0.92,2.56,1.95,5.15,3.48,7.5c0.4,0.61,0.86,1.19,1.33,1.75
				c0.28,0.34,0.61,0.64,0.95,0.92c1.37,1.11,2.23,1.06,3.46-0.16c0.24-0.24,0.47-0.5,0.68-0.77c2.74-3.42,4.97-7.16,6.86-11.1
				c0.25-0.51,0.27-1.02,0.27-1.57c-0.02-2.3-0.08-4.61,0.01-6.91c0.07-1.86,0.33-3.71,0.53-5.55c0.04-0.39,0.17-0.76,0.28-1.14
				c0.66-2.33,3.3-3.18,5.06-2.61c1.04,0.34,1.67,1.02,1.74,2.12c0.04,0.73,0.02,1.47,0,2.2c-0.08,2.94-0.25,5.88-0.25,8.82
				c0,4.6,0.92,9.05,2.58,13.34c0.51,1.33,1.12,2.61,1.94,3.79c0.49,0.7,0.55,0.76,1.38,1.27c0.51-0.15,0.74-0.61,0.99-1.01
				c0.56-0.92,1.11-1.85,1.6-2.81c2.7-5.29,4.9-10.79,6.94-16.35c0.21-0.57,0.26-1.12,0.19-1.72c-0.41-3.56-0.47-7.14-0.34-10.72
				c0.12-3.29,0.45-6.55,1.43-9.71c0.51-1.64,1.15-3.23,2.06-4.69c0.87-1.4,1.99-2.54,3.42-3.37c1.46-0.85,3.03-1.1,4.68-0.82
				c1.68,0.29,2.97,1.22,3.88,2.66c1.03,1.62,1.45,3.41,1.53,5.3c0.07,1.83-0.22,3.62-0.75,5.36c-1.62,5.39-4.22,10.21-8.33,14.13
				c-0.25,2.81,2.05,12.9,3.67,16.04c0.27-0.46,0.33-0.92,0.44-1.36c1.64-6.63,3.84-13.06,6.76-19.24c1.05-2.22,2.19-4.38,3.55-6.43
				c1.01-1.52,2.17-2.9,3.63-4.02c1.56-1.2,3.28-1.94,5.29-1.89c2.39,0.06,4.24,1.09,5.54,3.07c1.11,1.7,1.53,3.6,1.29,5.61
				c-0.4,3.31-1.81,6.19-3.87,8.75c-2.13,2.64-4.83,4.56-7.87,6.03c-0.93,0.45-1.88,0.82-2.83,1.24c-0.31,0.13-0.6,0.29-0.97,0.46
				c0.1,0.43,0.15,0.81,0.28,1.17c1.41,3.75,3.4,7.16,6.2,10.06c0.57,0.59,1.23,1.13,1.93,1.58c1.38,0.89,2.13,0.78,3.22-0.4
				c0.5-0.54,0.94-1.13,1.36-1.73c2.08-2.92,3.9-5.99,5.6-9.14c0.98-1.81,1.86-3.67,2.8-5.5c0.35-0.67,0.47-1.36,0.44-2.12
				c-0.15-3.66,0.3-7.24,1.46-10.71c0.58-1.72,1.29-3.39,2.24-4.94c0.64-1.05,1.38-2.03,2.3-2.85c2.38-2.13,5.13-2.96,8.29-2.34
				c1.43,0.28,2.68,0.94,3.72,1.96c2.64,2.58,3.5,5.71,2.7,9.28c-1.19,5.36-6.18,9.98-11.94,10.75c-0.33,0.04-0.66,0.08-1.02,0.12
				c-0.17,0.83,0.1,1.54,0.21,2.25c0.44,2.62,1.19,5.15,2.38,7.54c1.13,2.26,2.57,4.29,4.46,5.97c0.69,0.61,1.46,1.16,2.27,1.6
				c1.5,0.83,3.03,0.76,4.43-0.26c0.87-0.63,1.71-1.33,2.44-2.1c1.8-1.89,3.26-4.03,4.58-6.28c0.33-0.56,0.36-1.06,0.16-1.67
				c-1.93-6.01-2.9-12.19-3.27-18.47c-0.2-3.29,0.03-6.56,0.78-9.78c0.37-1.58,0.95-3.09,1.79-4.49c0.53-0.89,1.18-1.68,1.97-2.36
				c2.64-2.28,7.39-2.1,9.54,1.61c1.08,1.87,1.57,3.9,1.69,6.03c0.18,3.1-0.14,6.17-0.72,9.21c-0.92,4.83-2.46,9.48-4.36,14
				c-0.37,0.88-0.42,1.66-0.12,2.53c0.77,2.22,1.45,4.47,2.27,6.67c0.65,1.75,1.55,3.38,2.71,4.86c0.45,0.57,0.88,1.17,1.58,1.52
				c0.53-0.37,0.77-0.92,0.99-1.45c0.58-1.45,1.21-2.9,1.64-4.4c1.69-5.94,3.09-11.94,4.32-17.99c0.11-0.55,0.14-1.03-0.12-1.55
				c-1.21-2.45-1.72-5.1-1.95-7.8c-0.23-2.75-0.1-5.49,0.54-8.18c0.17-0.71,0.37-1.43,0.68-2.09c0.8-1.7,2.82-2.51,4.6-1.88
				c1.13,0.4,1.8,1.2,1.79,2.42c-0.02,1.42-0.08,2.84-0.18,4.26c-0.2,2.91-0.01,5.78,0.76,8.6c0.52,1.9,1.24,3.72,2.34,5.36
				c0.4,0.6,0.91,1.14,1.44,1.65c0.39,0.38,0.77,0.39,1.19,0.06c0.53-0.43,1.05-0.89,1.5-1.4c1.08-1.22,1.9-2.61,2.6-4.08
				c1.51-3.15,2.53-6.47,3.25-9.88c0.27-1.24,0.46-2.5,0.64-3.76c0.27-1.81,1.16-2.69,2.98-2.85c1.9-0.17,3.37,0.56,4.24,2.27
				c0.42,0.82,0.76,1.71,0.95,2.61c0.54,2.59,1.06,5.18,1.46,7.79c0.53,3.44,0.93,6.89,1.38,10.34c0.08,0.63,0.1,1.27,0.17,1.9
				c0.03,0.28,0.12,0.54,0.2,0.92c0.35-0.21,0.62-0.32,0.83-0.5c2.47-1.96,4.07-4.47,4.78-7.55c0.43-1.87,0.63-3.77,0.79-5.67
				c0.02-0.29,0.03-0.59,0.07-0.88c0.14-1.2,1.27-1.97,2.44-1.67c0.64,0.17,1.01,0.56,1.08,1.23c0.04,0.34,0.03,0.69,0.02,1.03
				c-0.06,2.01-0.28,4.01-0.72,5.97c-1.01,4.6-3.63,8.07-7.55,10.61c-0.25,0.16-0.5,0.3-0.76,0.45c-0.25,0.15-0.5,0.3-0.83,0.49
				c-0.02,0.36-0.05,0.74-0.05,1.12c-0.03,1.81,0,3.63-0.09,5.44c-0.11,2.11-0.49,4.18-1.15,6.2c-0.65,1.98-1.63,3.78-3.01,5.34
				c-2.33,2.62-5.21,4.15-8.77,4.05c-2.94-0.08-5.28-1.36-6.85-3.9c-1.79-2.89-2.3-6.01-1.6-9.32c0.36-1.72,1.23-3.19,2.42-4.47
				c1.51-1.6,3.32-2.75,5.38-3.48c1.57-0.55,3.18-0.97,4.77-1.45c0.37-0.11,0.75-0.22,1.15-0.35c0.19-1,0.05-1.98-0.07-2.94
				c-0.53-4.33-1.11-8.65-1.67-12.97c-0.02-0.14-0.06-0.29-0.09-0.43c-0.34-0.06-0.4,0.19-0.48,0.41c-0.79,2-1.55,4.02-2.4,6
				c-0.66,1.53-1.53,2.96-2.57,4.27c-0.65,0.81-1.37,1.54-2.24,2.1c-2.12,1.37-4.37,1.6-6.75,0.8c-1.13-0.38-2.13-0.97-3.06-1.71
				c-0.33-0.27-0.68-0.51-1.14-0.85c-0.22,0.99-0.4,1.84-0.59,2.69c-1.13,5.12-2.24,10.24-3.4,15.34c-0.26,1.14-0.65,2.26-1.07,3.35
				c-0.28,0.72-0.67,1.42-1.12,2.06c-1.53,2.16-4.51,3.27-7.41,1.46c-1.21-0.76-2.28-1.69-3.24-2.75c-1.25-1.39-2.25-2.96-3.19-4.57
				c-0.25-0.42-0.49-0.84-0.73-1.25c-0.54,0.15-0.67,0.61-0.92,0.95c-1.18,1.63-2.44,3.19-3.89,4.59c-1.57,1.52-3.34,2.74-5.43,3.42
				c-3.23,1.05-6.37,0.8-9.42-0.69c-2.24-1.1-4.1-2.66-5.61-4.64c-2.27-2.97-3.68-6.34-4.64-9.92c-0.13-0.5-0.27-1-0.47-1.73
				c-0.31,0.52-0.53,0.82-0.69,1.15c-1.53,3.07-3.19,6.07-5.03,8.97c-0.68,1.07-1.4,2.13-2.14,3.17c-2.45,3.46-6.09,4.17-9.71,2.34
				c-1.54-0.78-2.92-1.81-4.14-3.02c-2.35-2.32-4.44-4.83-6.1-7.69c-0.1-0.17-0.21-0.32-0.31-0.47c-0.45,0.04-0.42,0.4-0.46,0.64
				c-0.41,2.56-0.82,5.13-1.2,7.69c-0.13,0.87-0.2,1.75-0.31,2.63c-0.26,1.93-1.5,3.19-3.41,3.5c-1.2,0.19-2.26-0.11-3.08-1
				c-0.53-0.57-1-1.21-1.41-1.87c-1.27-2.05-2.23-4.25-3-6.53c-0.91-2.69-1.72-5.41-2.36-8.18
				C183.83,150.62,183.72,150.3,183.52,149.63z M142.92,118.64c-0.53,0.29-0.76,0.8-0.98,1.28c-0.56,1.25-1.15,2.49-1.56,3.79
				c-1.21,3.82-1.52,7.76-1.3,11.75c0.09,1.71,0.26,3.42,0.45,5.12c0.3,2.63,0.82,5.22,1.49,7.77c0.04,0.17,0.17,0.32,0.33,0.61
				c0.22-0.43,0.39-0.71,0.52-1.02c1.84-4.39,3.27-8.91,4.02-13.62c0.51-3.2,0.66-6.42,0.12-9.65c-0.25-1.5-0.63-2.97-1.39-4.31
				C144.21,119.65,143.76,118.94,142.92,118.64z M234.13,142.14c0.55,0.21,1.02,0.07,1.5-0.06c3.13-0.84,5.53-2.65,7.15-5.46
				c0.98-1.7,1.35-3.56,1.15-5.52c-0.14-1.41-0.68-2.66-1.66-3.68c-0.4-0.41-0.91-0.73-1.4-1.05c-0.57-0.37-1.14-0.24-1.62,0.18
				c-0.37,0.32-0.72,0.67-1,1.07c-0.48,0.68-0.94,1.38-1.32,2.11c-1.88,3.63-2.78,7.51-2.9,11.58
				C234.03,141.6,234.1,141.89,234.13,142.14z M299.04,150.23c-0.13-0.01-0.29-0.05-0.42-0.02c-1.61,0.42-3.22,0.86-4.7,1.63
				c-0.82,0.42-1.58,0.98-2.28,1.58c-0.84,0.7-1.44,1.61-1.74,2.67c-0.73,2.56-0.31,4.95,1.19,7.13c0.27,0.4,0.62,0.78,1.02,1.04
				c1.71,1.16,2.71,0.82,3.76-0.31c1.33-1.43,2.24-3.09,2.69-4.98c0.66-2.79,0.73-5.62,0.62-8.47
				C299.17,150.41,299.09,150.33,299.04,150.23z M212.31,127.91c-0.95,0.22-1.67,0.8-2.34,1.44c-1.22,1.15-2.19,2.5-3.08,3.9
				c-2.24,3.53-3.87,7.35-5.29,11.26c-0.07,0.2-0.22,0.46,0.14,0.65c2-0.74,3.91-1.69,5.59-3.07c2.76-2.27,4.67-5.11,5.56-8.59
				c0.24-0.94,0.38-1.93,0.39-2.89C213.29,129.64,213.15,128.66,212.31,127.91z M189.77,137.19c0.25-0.19,0.35-0.23,0.4-0.3
				c2.39-3.27,4.13-6.86,5.16-10.78c0.44-1.67,0.56-3.37,0.38-5.1c-0.11-0.98-0.37-1.92-0.88-2.78c-0.29-0.51-0.63-0.98-1.22-1.19
				c-0.62,0.38-0.85,0.98-1.12,1.54c-0.78,1.64-1.38,3.34-1.79,5.11c-0.99,4.22-1.12,8.52-1.07,12.83
				C189.62,136.71,189.7,136.89,189.77,137.19z M260.44,141.06c0.25-0.48,0.39-0.67,0.46-0.89c0.84-2.5,1.58-5.03,2.09-7.63
				c0.52-2.65,0.78-5.32,0.65-8.02c-0.07-1.48-0.33-2.91-0.96-4.26c-0.28-0.61-0.57-1.25-1.3-1.53c-0.62,0.59-0.75,1.39-0.95,2.13
				c-0.51,1.89-0.8,3.82-0.94,5.78c-0.25,3.57-0.09,7.13,0.36,10.68C260,138.48,260.21,139.62,260.44,141.06z"/>
			<path d="M164.43,129.67c-1.85,0.1-4.16-1.34-4.26-4.13c-0.09-2.34,1.92-4.32,4.27-4.3c2.31,0.03,4.19,1.92,4.18,4.23
				C168.62,127.78,166.76,129.65,164.43,129.67z"/>
		</g>
	</g>
	<g>
		<path class="st0" d="M179.84,216.19c-0.58-1.07-4.83-0.1-5.14-1.24c-0.81-2.93-0.8-3.27-1.2-3.82c-0.47-0.64-1.41-0.38-1.69,0
			c-0.4,0.55-0.39,0.89-1.2,3.82c-0.31,1.14-4.56,0.17-5.14,1.24c-0.39,0.72,0.68,1.16,2.47,3.16c1.46,1.63-0.18,3.47-0.13,5
			c0.03,0.89,0.64,1.33,1.47,1.07c0.56-0.18,1.32-0.63,2.01-1.11c1.94-1.32,0.73-1.29,3.01,0.2c0.61,0.4,1.23,0.75,1.72,0.91
			c0.83,0.27,1.44-0.18,1.47-1.07c0.05-1.53-1.59-3.36-0.13-5C179.16,217.35,180.23,216.91,179.84,216.19z"/>
		<path class="st0" d="M166.54,297.23c-0.58-1.07-4.83-0.1-5.14-1.24c-0.81-2.93-0.8-3.27-1.2-3.82c-0.47-0.64-1.41-0.38-1.69,0
			c-0.4,0.55-0.39,0.89-1.2,3.82c-0.31,1.14-4.56,0.17-5.14,1.24c-0.39,0.72,0.68,1.16,2.47,3.16c1.46,1.63-0.18,3.47-0.13,5
			c0.03,0.89,0.64,1.33,1.47,1.07c0.56-0.18,1.32-0.63,2.01-1.11c1.94-1.32,0.73-1.29,3.01,0.2c0.61,0.4,1.23,0.75,1.72,0.91
			c0.83,0.27,1.44-0.18,1.47-1.07c0.05-1.53-1.59-3.36-0.13-5C165.86,298.39,166.93,297.95,166.54,297.23z"/>
		<path class="st0" d="M306.4,90.79c-0.58-1.07-4.83-0.1-5.14-1.24c-0.81-2.93-0.8-3.27-1.2-3.82c-0.47-0.64-1.41-0.38-1.69,0
			c-0.4,0.55-0.39,0.89-1.2,3.82c-0.31,1.14-4.56,0.17-5.14,1.24c-0.39,0.72,0.68,1.16,2.47,3.16c1.46,1.63-0.18,3.47-0.13,5
			c0.03,0.89,0.64,1.33,1.47,1.07c0.56-0.18,1.32-0.63,2.01-1.11c1.94-1.32,0.73-1.29,3.01,0.2c0.61,0.4,1.23,0.75,1.72,0.91
			c0.83,0.27,1.44-0.18,1.47-1.07c0.05-1.53-1.59-3.36-0.13-5C305.72,91.95,306.79,91.51,306.4,90.79z"/>
		<path class="st0" d="M259.42,289.86c-0.58-1.07-4.83-0.1-5.14-1.24c-0.81-2.93-0.8-3.27-1.2-3.82c-0.47-0.64-1.41-0.38-1.69,0
			c-0.4,0.55-0.39,0.89-1.2,3.82c-0.31,1.14-4.56,0.17-5.14,1.24c-0.39,0.72,0.68,1.16,2.47,3.16c1.46,1.63-0.18,3.47-0.13,5
			c0.03,0.89,0.64,1.33,1.47,1.07c0.56-0.18,1.32-0.63,2.01-1.11c1.94-1.32,0.73-1.29,3.01,0.2c0.61,0.4,1.23,0.75,1.72,0.91
			c0.83,0.27,1.44-0.18,1.47-1.07c0.05-1.53-1.59-3.36-0.13-5C258.74,291.01,259.8,290.58,259.42,289.86z"/>
		<path class="st0" d="M291.41,263.33c-0.61-1.14-5.12-0.1-5.46-1.31c-0.86-3.11-0.85-3.48-1.27-4.06c-0.49-0.68-1.49-0.41-1.79,0
			c-0.42,0.58-0.41,0.94-1.27,4.06c-0.33,1.21-4.84,0.18-5.46,1.31c-0.41,0.76,0.72,1.23,2.62,3.35c1.55,1.73-0.19,3.68-0.14,5.31
			c0.03,0.94,0.67,1.41,1.56,1.13c0.6-0.19,1.4-0.67,2.14-1.17c2.06-1.4,0.77-1.37,3.2,0.21c0.64,0.42,1.31,0.8,1.82,0.96
			c0.88,0.28,1.53-0.19,1.56-1.13c0.05-1.62-1.69-3.57-0.14-5.31C290.68,264.55,291.82,264.09,291.41,263.33z"/>
	</g>
</g>
</svg>
