<?xml version="1.0" encoding="utf-8"?>
<!-- Generator: Adobe Illustrator 25.2.1, SVG Export Plug-In . SVG Version: 6.00 Build 0)  -->
<svg version="1.1" id="Calque_1" xmlns="http://www.w3.org/2000/svg" xmlns:xlink="http://www.w3.org/1999/xlink" x="0px" y="0px"
	 viewBox="0 0 432 432" style="enable-background:new 0 0 432 432;" xml:space="preserve">
<style type="text/css">
	.st0{fill:#F9D53D;}
	.st1{fill:#D3B844;}
	.st2{fill:#E0AAAF;}
	.st3{fill:#BA9196;}
	.st4{fill:#EAB978;}
	.st5{fill:#FBB03B;}
	.st6{fill:#A1C3CE;}
	.st7{fill:#8CC63F;}
	.st8{fill:#C7B299;}
	.st9{fill:#CCCCCC;}
	.st10{fill:#C44750;}
	.st11{fill:#998675;}
	.st12{fill:#29ABE2;}
	.st13{fill:#C79C52;}
	.st14{fill:#766FBF;}
	.st15{fill:#E8A3AB;}
</style>
<g>
	<g>
		<path d="M190.41,183.95c-0.31-0.76-0.73-1.48-1.16-2.19c-0.91-1.52-1.45-3.16-1.63-4.9c-0.16-1.56-0.31-3.13-0.31-4.7
			c0-5.12,0.26-20.41,0.25-22.93c-0.01-2.23,0-4.46-0.05-6.69c-0.02-1.28-0.1-2.56-0.21-3.84c-0.52-6.12-4.42-10.35-10.52-10.95
			c-3.73-0.37-7.5-0.25-11.26-0.27c-1.36-0.01-2.2,1.13-1.87,2.47c0.21,0.87,0.6,1.71,1.01,2.52c1.4,2.81,1.88,5.77,1.68,8.89
			c-0.22,3.52-0.93,6.96-1.76,10.36c-0.5,2.04-1.17,4.04-1.84,6.03c-0.22,0.65-0.62,1.26-1.03,1.82c-0.6,0.81-1,0.81-1.71,0.12
			c-0.3-0.29-0.58-0.6-0.8-0.94c-0.7-1.07-1.42-2.13-2.05-3.24c-2.24-3.97-3.92-8.19-5.54-12.43c-1.18-3.09-2.56-6.09-4.3-8.91
			c-2.07-3.36-5.06-5.39-8.87-6.21c-4.21-0.9-8.48-0.47-12.73-0.46c-1.08,0-1.56,0.69-1.62,1.8c-0.08,1.43,0.54,2.57,1.45,3.58
			c1.48,1.64,2.13,3.59,2.32,5.75c0.46,5.15,0.49,10.31,0.35,15.48c-0.16,5.87-0.27,11.73,0.39,17.58c0.35,3.13,0.94,6.21,2.44,9.03
			c1.88,3.55,4.72,5.94,8.65,6.85c1.84,0.43,3.74,0.63,5.63,0.78c1.4,0.11,2.81-0.09,4.09-0.79c1.47-0.81,1.96-2.11,1.34-3.66
			c-0.25-0.61-0.57-1.19-0.92-1.75c-0.84-1.35-1.41-2.8-1.81-4.33c-1.02-4-1.21-8.07-1.02-12.17c0.03-0.53,0.1-1.08,0.25-1.59
			c0.08-0.27,0.35-0.57,0.6-0.66c0.15-0.05,0.54,0.22,0.64,0.43c0.29,0.59,0.55,1.2,0.73,1.83c0.92,3.24,2.38,6.25,4.13,9.11
			c0.66,1.09,1.47,2.1,2.31,3.05c0.54,0.61,1.22,1.12,1.92,1.54c1.6,0.96,3.13,0.79,4.38-0.57c0.65-0.71,1.24-1.58,1.57-2.48
			c0.62-1.7,1.06-3.47,1.54-5.22c0.59-2.11,1.12-4.23,1.74-6.32c0.15-0.52,0.38-1.24,1.12-1.09c0.64,0.13,0.59,0.82,0.61,1.34
			c0.07,1.77,0.15,3.55,0.17,5.32c0.04,3.3,0.6,6.48,1.81,9.56c1.57,3.99,4.48,6.5,8.56,7.56c1.9,0.49,3.9,0.69,5.86,0.87
			c1.44,0.13,2.89-0.08,4.2-0.82C190.52,186.73,191.01,185.44,190.41,183.95z"/>
		<path d="M307.68,183.95c-0.31-0.76-0.73-1.48-1.16-2.19c-0.91-1.52-1.45-3.16-1.63-4.9c-0.16-1.56-0.31-3.13-0.31-4.7
			c0-5.12,0.26-20.41,0.25-22.93c-0.01-2.23,0-4.46-0.05-6.69c-0.02-1.28-0.1-2.56-0.21-3.84c-0.52-6.12-4.42-10.35-10.52-10.95
			c-3.73-0.37-7.5-0.25-11.26-0.27c-1.36-0.01-2.2,1.13-1.87,2.47c0.21,0.87,0.6,1.71,1.01,2.52c1.4,2.81,1.88,5.77,1.68,8.89
			c-0.22,3.52-0.93,6.96-1.76,10.36c-0.5,2.04-1.17,4.04-1.84,6.03c-0.22,0.65-0.62,1.26-1.03,1.82c-0.6,0.81-1,0.81-1.71,0.12
			c-0.3-0.29-0.58-0.6-0.8-0.94c-0.7-1.07-1.42-2.13-2.05-3.24c-2.24-3.97-3.92-8.19-5.54-12.43c-1.18-3.09-2.56-6.09-4.3-8.91
			c-2.07-3.36-5.06-5.39-8.87-6.21c-4.21-0.9-8.48-0.47-12.73-0.46c-1.08,0-1.56,0.69-1.62,1.8c-0.08,1.43,0.54,2.57,1.45,3.58
			c1.48,1.64,2.13,3.59,2.32,5.75c0.46,5.15,0.49,10.31,0.35,15.48c-0.16,5.87-0.27,11.73,0.39,17.58c0.35,3.13,0.94,6.21,2.44,9.03
			c1.88,3.55,4.72,5.94,8.65,6.85c1.84,0.43,3.74,0.63,5.63,0.78c1.4,0.11,2.81-0.09,4.09-0.79c1.47-0.81,1.96-2.11,1.34-3.66
			c-0.25-0.61-0.57-1.19-0.92-1.75c-0.84-1.35-1.41-2.8-1.81-4.33c-1.02-4-1.21-8.07-1.02-12.17c0.03-0.53,0.1-1.08,0.25-1.59
			c0.08-0.27,0.35-0.57,0.6-0.66c0.15-0.05,0.54,0.22,0.64,0.43c0.29,0.59,0.55,1.2,0.73,1.83c0.92,3.24,2.38,6.25,4.13,9.11
			c0.66,1.09,1.47,2.1,2.31,3.05c0.54,0.61,1.22,1.12,1.92,1.54c1.6,0.96,3.13,0.79,4.38-0.57c0.65-0.71,1.24-1.58,1.57-2.48
			c0.62-1.7,1.06-3.47,1.54-5.22c0.59-2.11,1.12-4.23,1.74-6.32c0.15-0.52,0.38-1.24,1.12-1.09c0.64,0.13,0.59,0.82,0.61,1.34
			c0.07,1.77,0.15,3.55,0.17,5.32c0.04,3.3,0.6,6.48,1.81,9.56c1.57,3.99,4.48,6.5,8.56,7.56c1.9,0.49,3.9,0.69,5.86,0.87
			c1.44,0.13,2.89-0.08,4.2-0.82C307.79,186.73,308.28,185.44,307.68,183.95z"/>
		<path d="M241.62,158.34c-0.1,6.82-1.79,13.32-5.74,19.12c-2.9,4.25-6.61,7.58-11.5,9.35c-7.7,2.79-14.76,1.34-21.09-3.69
			c-4.98-3.96-8.12-9.21-9.8-15.29c-2.77-9.99-1.77-19.57,3.66-28.53c2.42-3.99,5.68-7.15,9.85-9.31c6.18-3.2,12.45-3.21,18.69-0.27
			c5.37,2.53,9.16,6.71,11.92,11.88C240.37,146.79,241.57,152.36,241.62,158.34z M219.97,178.29c0.12-0.5,0.32-0.95,0.33-1.4
			c0.01-0.93-0.05-1.86-0.12-2.78c-0.18-2.3-0.52-4.59-0.55-6.89c-0.06-4.21,0.02-8.41,0.11-12.62c0.06-2.8,0.08-5.59-0.39-8.35
			c-0.34-2.04-0.97-4.01-1.98-5.83c-0.35-0.63-0.75-1.25-1.69-1.38c-0.08,0.37-0.2,0.7-0.23,1.05c-0.07,0.97-0.1,1.94-0.14,2.91
			c-0.06,1.66-0.03,3.32-0.18,4.97c-0.38,4.23-0.9,8.44-1.25,12.67c-0.32,3.82,0.06,7.6,1.34,11.24c0.66,1.88,1.58,3.63,2.87,5.17
			C218.55,177.61,219.04,178.15,219.97,178.29z"/>
	</g>
	<g>
		<path class="st5" d="M264.43,260.93c-2.85-0.02-5.69-0.02-8.53-0.03c-28.79-0.04-57.57-0.1-86.36-0.12
			c-0.72,0-1.68-0.34-2.06,0.54c-0.41,0.95,0.56,1.42,1.1,1.96c2.2,2.18,4.46,4.3,6.66,6.47c1.33,1.3,1.28,2.2-0.14,3.43
			c-1.92,1.66-3.87,3.28-5.8,4.93c-1.08,0.92-2.2,1.8-3.23,2.78c-1.19,1.13-1.14,1.8,0.11,2.85c1.97,1.68,3.95,3.36,5.92,5.03
			c1.08,0.92,2.19,1.81,3.24,2.77c1.08,0.98,1.09,1.92,0.09,3.02c-0.23,0.26-0.5,0.49-0.75,0.75c-2.12,2.05-4.24,4.09-6.35,6.15
			c-0.49,0.48-1.24,0.94-0.87,1.76c0.35,0.75,1.15,0.5,1.79,0.5c6.9,0.01,13.81,0.01,20.71,0c24.72-0.03,49.44-0.08,74.17-0.12
			c0.64,0,1.28-0.04,1.95-0.07v-42.51C265.41,260.98,264.92,260.94,264.43,260.93z M223.51,292.9c-0.04,1-0.19,1.98-0.52,2.92
			c-0.49,1.39-1.44,2.26-2.88,2.56c-1.7,0.35-3.41,0.42-5.13,0.05c-0.36-0.08-0.72-0.21-1.06-0.36c-0.64-0.29-1.03-0.82-1.13-1.53
			c-0.07-0.49-0.1-1.01-0.12-1.51c-0.13-3.44-0.24-6.89-0.39-10.32c-0.02-0.46-0.15-0.91-0.28-1.35c-0.09-0.31-0.3-0.55-0.67-0.56
			c-0.35,0-0.58,0.22-0.7,0.51c-0.15,0.39-0.28,0.8-0.35,1.21c-0.23,1.48-0.43,2.97-0.65,4.45c-0.03,0.22-0.09,0.43-0.14,0.65
			c-0.2,0.9-0.77,1.51-1.64,1.73c-0.74,0.18-1.52,0.28-2.28,0.28c-0.95-0.01-1.63-0.54-1.94-1.44c-0.29-0.83-0.49-1.69-0.76-2.53
			c-0.34-1.08-0.69-2.14-1.05-3.21c-0.11-0.32-0.29-0.65-0.49-0.93c-0.38-0.5-0.95-0.43-1.2,0.15c-0.13,0.31-0.2,0.69-0.2,1.02
			c0.01,1.6,0.03,3.18,0.1,4.77c0.08,2.01,0.04,4.02-0.19,6.01c-0.11,0.89-0.43,1.71-1.01,2.41c-0.45,0.56-1.01,0.9-1.74,0.96
			c-1.15,0.1-2.3,0.04-3.43-0.22c-1.91-0.43-2.83-1.44-3.09-3.4c-0.12-0.98-0.16-1.98-0.19-2.97c-0.03-0.88-0.01-1.77-0.01-2.29
			c0.18-5.21,0.49-10.06,1.37-14.85c0.36-1.89,0.77-3.76,1.48-5.55c0.28-0.67,0.61-1.32,0.93-1.98c0.63-1.28,1.75-1.97,3.08-2.3
			c1.59-0.38,3.19-0.33,4.77,0.15c0.34,0.1,0.66,0.25,0.98,0.39c0.87,0.4,1.49,1.04,1.76,1.96c0.29,1.01,0.51,2.05,0.76,3.08
			c0.09,0.32,0.15,0.65,0.27,0.95c0.34,0.82,1.02,0.92,1.57,0.21c0.23-0.29,0.4-0.63,0.55-0.98c0.33-0.77,0.66-1.54,0.94-2.33
			c0.72-2.1,2.22-3.1,4.4-3.15c0.69-0.01,1.37-0.03,2.06,0.04c1.55,0.16,2.69,1.03,3.61,2.23c0.8,1.05,1.32,2.24,1.74,3.48
			c0.76,2.24,1.22,4.55,1.57,6.9c0.36,2.42,0.69,4.85,0.99,7.28C223.48,287.95,223.61,290.42,223.51,292.9z M252.1,294.19
			c-0.38,1.48-1.26,2.55-2.7,3.15c-1.22,0.51-2.5,0.76-3.8,0.9c-1.91,0.2-3.83,0.39-5.75,0.47c-2.45,0.1-4.91-0.06-7.32-0.58
			c-0.43-0.1-0.85-0.25-1.26-0.4c-1.14-0.41-1.96-1.17-2.54-2.23c-0.66-1.21-1.1-2.51-1.41-3.84c-0.66-2.83-1.11-5.69-1.36-8.58
			c-0.19-2.16-0.32-4.33-0.48-6.59c0.06-1.47,0.1-3.04,0.2-4.61c0.03-0.55,0.16-1.09,0.31-1.62c0.5-1.78,1.6-3.02,3.31-3.74
			c1.73-0.73,3.56-1.06,5.41-1.2c3.57-0.29,7.12-0.06,10.64,0.53c1.12,0.19,2.21,0.43,3.25,0.91c1.54,0.71,2.4,1.92,2.59,3.58
			c0.19,1.63,0.29,3.26-0.03,4.89c-0.1,0.51-0.26,1.02-0.47,1.51c-0.32,0.74-0.91,1.22-1.72,1.31c-0.89,0.09-1.81,0.13-2.71,0.08
			c-1.54-0.09-3.09-0.28-4.63-0.39c-0.68-0.05-1.37-0.08-2.06-0.03c-0.9,0.08-1.35,0.74-1.21,1.63c0.1,0.55,0.37,0.83,0.94,0.84
			c0.55,0.02,1.1-0.04,1.66-0.07c0.66-0.03,1.32-0.09,1.99-0.1c0.66-0.01,1.07,0.36,1.28,0.97c0.34,1.01,0.43,2.04,0.28,3.08
			c-0.13,0.89-0.58,1.36-1.47,1.45c-0.94,0.09-1.89,0.07-2.85,0.11c-0.26,0.01-0.54,0.02-0.78,0.09c-0.37,0.1-0.49,0.33-0.45,0.71
			c0.04,0.59,0.5,1.04,1.16,1.04c0.63-0.01,1.28-0.1,1.92-0.16c1.73-0.16,3.48-0.33,5.22-0.45c0.63-0.04,1.28,0.01,1.92,0.09
			c1.7,0.19,2.78,1.22,3.07,2.89C252.53,291.3,252.46,292.76,252.1,294.19z"/>
		<path class="st2" d="M287.61,303.55c0-14.3,0-28.33,0-42.47c0.52-0.04,0.96-0.1,1.41-0.1c6.7,0.01,13.4,0.02,20.1,0.03
			c0.3,0,0.61,0.04,0.91,0.02c2.74-0.21,4.35,1.31,5.44,3.59c1.16,2.44,1.82,5.04,2.39,7.68c1.93,8.93,1.13,17.64-1.98,26.18
			c-0.35,0.95-0.78,1.87-1.28,2.75c-0.81,1.43-2.06,2.19-3.74,2.21c-0.86,0.01-1.72,0.06-2.59,0.06
			c-6.24,0.02-12.49,0.03-18.73,0.04C288.93,303.55,288.33,303.55,287.61,303.55z"/>
		<path class="st8" d="M128.45,277.03c-0.06-1.22,0.3-1.86,1.51-2.36c8.51-3.57,16.97-7.23,25.45-10.86c1.16-0.5,2.33-1.01,3.5-1.49
			c1.84-0.76,3.46-0.44,4.88,0.96c2.28,2.24,4.75,4.32,6.86,6.7c1.02,1.15,1,1.82-0.15,2.82c-2.95,2.56-5.98,5.03-8.93,7.58
			c-1.55,1.34-1.56,2.44-0.01,3.77c2.89,2.48,5.77,4.96,8.72,7.36c1.27,1.04,1.51,1.95,0.17,3.26c-2.26,2.19-4.51,4.39-6.77,6.58
			c-1.5,1.45-3.2,1.55-5.06,0.76c-4.84-2.09-9.69-4.16-14.53-6.23c-4.8-2.05-9.58-4.14-14.41-6.13c-1.04-0.43-1.34-0.98-1.29-2.04
			C128.47,285.86,128.54,278.76,128.45,277.03z"/>
		<path class="st9" d="M269.6,261.04c4.83,0,9.58,0,14.32,0c0,4.88,0.1,37.58,0.1,42.27c-6.3,0-9.67,0.07-14.42,0.07
			C269.6,289.3,269.6,275.21,269.6,261.04z"/>
		<path d="M124.97,276.51c0,3.89,0,7.58,0,11.38c-0.42-0.12-0.76-0.19-1.07-0.32c-3.17-1.35-6.33-2.7-9.5-4.06
			c-0.14-0.06-0.31-0.09-0.41-0.19c-0.33-0.35-0.88-0.71-0.88-1.08c-0.01-0.35,0.49-0.86,0.89-1.04c2.72-1.23,5.48-2.38,8.23-3.56
			C123.09,277.28,123.97,276.92,124.97,276.51z"/>
	</g>
	<g>
		<path d="M235.98,321.48c0.34-0.46,0.55-0.74,0.76-1.03c3.96-5.5,13.26-6.43,17.81,0.22c1.49,2.18,2.35,4.6,2.87,7.16
			c0.81,3.91,1.27,7.87,1.29,11.85c0.04,8.47-0.02,16.94-0.06,25.41c-0.01,1.99-0.16,2.1-2.13,2.11c-1.13,0-2.26,0.02-3.4-0.01
			c-1.16-0.03-1.41-0.27-1.42-1.45c-0.02-2.37,0.01-4.75,0.01-7.12c0.01-5.88,0.05-11.76,0.03-17.64
			c-0.02-4.17-0.41-8.31-1.32-12.39c-0.31-1.36-0.81-2.64-1.55-3.84c-1.67-2.71-5.79-2.06-6.92,0.53c-0.72,1.65-1.11,3.4-1.39,5.16
			c-0.51,3.14-0.62,6.32-0.68,9.49c-0.05,2.36-0.05,2.36-2.41,2.36c-1.24,0-2.48,0.03-3.72-0.02c-1.23-0.04-1.42-0.25-1.51-1.51
			c-0.15-2.11-0.29-4.22-0.43-6.34c-0.17-2.59-0.52-5.15-1.29-7.65c-0.15-0.49-0.32-0.97-0.52-1.44c-0.66-1.48-1.88-2.21-3.44-2.34
			c-1.5-0.12-2.68,0.48-3.52,1.77c-0.96,1.47-1.42,3.11-1.75,4.8c-0.74,3.77-1.11,7.59-1.11,11.43c-0.01,7.01,0.04,14.02,0.05,21.03
			c0,1.28-0.02,2.56-0.09,3.83c-0.06,1.06-0.21,1.18-1.27,1.18c-1.42,0-2.85,0-4.27-0.05c-1.01-0.04-1.19-0.25-1.3-1.24
			c-0.02-0.22-0.03-0.44-0.03-0.66c-0.02-8.47-0.11-16.94-0.04-25.41c0.04-4.57,0.54-9.11,1.69-13.55c0.54-2.11,1.42-4.06,2.71-5.82
			c4.54-6.2,13.53-5.33,17.49,0.02C235.36,320.66,235.6,320.97,235.98,321.48z"/>
		<path d="M209.65,339.69c-0.2-2.91-0.78-5.74-1.77-8.48c-1.6-4.42-4.05-8.26-7.75-11.23c-6.73-5.38-15.4-5.15-21.83,0.57
			c-2.6,2.32-4.53,5.12-5.86,8.33c-3.19,7.73-3.26,15.56-0.45,23.41c1.6,4.47,4.17,8.28,7.97,11.19c6.76,5.18,15.5,4.76,21.75-1.03
			c1.99-1.85,3.59-4,4.82-6.42C209.13,350.89,210.05,345.42,209.65,339.69z M200.98,352.13c-1.06,2.32-2.48,4.36-4.49,5.97
			c-3.77,3-8.27,3.11-12.19,0.29c-2.6-1.87-4.38-4.4-5.59-7.31c-2.53-6.08-2.73-12.27-0.55-18.49c0.95-2.71,2.42-5.11,4.58-7.03
			c4-3.54,8.97-3.69,13.17-0.38c2.31,1.81,3.89,4.17,5.08,6.82c1.17,2.6,1.77,5.36,2.03,8.13
			C203.26,344.32,202.71,348.33,200.98,352.13z"/>
		<path d="M287.07,316.24c-0.2-0.01-0.41-0.01-0.62-0.01c-6.24,0-12.48,0-18.72,0.01c-0.55,0-1.1,0.02-1.64,0.1
			c-1.71,0.27-2.84,1.5-2.97,3.19c-0.02,0.31-0.03,0.62-0.03,0.93c-0.05,13.99-0.09,27.98-0.13,41.97c0,0.51,0.03,1.03,0.1,1.54
			c0.23,1.53,1.19,2.54,2.71,2.83c0.43,0.08,0.88,0.11,1.33,0.11c6.28,0.02,12.55,0.04,18.83,0.06c0.28,0,0.57,0.01,0.84-0.02
			c0.47-0.06,0.83-0.47,0.84-0.94c0.02-0.71,0.02-1.42-0.01-2.12c-0.04-0.82-0.09-1.64-0.22-2.45c-0.11-0.7-0.42-0.92-1.11-0.99
			c-0.31-0.03-0.62-0.02-0.93-0.02c-4.77-0.02-9.53-0.03-14.3-0.05c-0.27,0-0.55-0.01-0.82-0.01c-0.36-0.01-0.58-0.2-0.64-0.55
			c-0.04-0.23-0.06-0.48-0.06-0.71c0.01-4.08,0.02-8.16,0.04-12.24c0.01-1.15,0.16-1.28,1.33-1.27c3.43,0.04,6.86,0.08,10.29,0.12
			c0.34,0,0.69,0,1.03-0.02c0.48-0.02,0.78-0.28,0.79-0.76c0.02-1.54,0.04-3.09,0-4.63c-0.02-0.59-0.48-1.07-1.07-1.12
			c-0.3-0.03-0.61-0.02-0.91-0.02c-3.46-0.04-6.93-0.08-10.39-0.13c-0.95-0.01-0.99-0.06-1.01-0.99c-0.01-0.69,0-1.37,0.01-2.06
			c0.01-4.01,0.02-8.02,0.03-12.04c0-1.01,0.1-1.1,1.13-1.12c0.21-0.01,0.41,0,0.62,0c5.01,0,10.01-0.01,15.02-0.01
			c0.19,0,0.37,0,0.57,0c0.64,0,1.2-0.49,1.22-1.13c0,0,0-0.01,0-0.01c0.03-1.41,0.06-2.81,0.04-4.22
			C288.24,316.55,287.97,316.3,287.07,316.24z"/>
		<path d="M143.74,341.61c0.16-5.86,1.87-12,6.11-17.27c2.48-3.09,5.48-5.47,9.24-6.9c1.94-0.74,3.9-1.09,5.93-1.18
			c1.73-0.07,3.44,0.06,5.1,0.6c0.2,0.06,0.4,0.12,0.59,0.2c1.04,0.41,1.16,0.65,0.75,1.7c-0.45,1.19-0.91,2.38-1.4,3.56
			c-0.51,1.23-0.66,1.3-1.93,0.97c-1.76-0.47-3.56-0.61-5.31-0.12c-2.2,0.62-4.24,1.63-5.94,3.22c-2.67,2.52-4.49,5.56-5.51,9.07
			c-1.59,5.41-1.37,10.75,0.87,15.96c1.04,2.41,2.52,4.51,4.59,6.16c3.23,2.58,6.84,3.42,10.86,2.22c2.09-0.63,2.3-0.53,3.42,1.31
			c0.45,0.74,0.91,1.46,1.33,2.21c0.58,1.03,0.46,1.45-0.62,1.94c-2.97,1.36-6.1,1.97-9.36,1.58c-6.29-0.74-10.94-4.08-14.35-9.25
			C145.08,352.99,143.79,347.87,143.74,341.61z"/>
	</g>
	<g>
		<g>
			<path d="M258.87,70.14c-1.35-0.81-2.73-1.59-4.12-2.34c-0.6-0.32-0.89-0.23-1.32,0.28c-0.25,0.3-0.45,0.65-0.66,0.98
				c-3.72,5.89-7.43,11.78-11.14,17.66c-0.7,1.1-1.06,1.1-1.75,0.04c-0.1-0.15-0.19-0.3-0.29-0.45
				c-3.48-5.52-6.97-11.05-10.45-16.57c-0.21-0.33-0.42-0.67-0.65-0.99c-0.49-0.67-0.66-0.79-1.45-0.47
				c-1.49,0.6-2.96,1.28-4.4,1.99c-0.61,0.3-0.69,0.71-0.37,1.36c0.22,0.45,0.49,0.87,0.76,1.3c4.31,6.83,8.61,13.66,12.93,20.48
				c0.93,1.47,1.41,3.03,1.41,4.77c0.02,5.56,0.07,11.13,0.12,16.69c0.01,0.68,0.01,1.36,0.06,2.04c0.08,1.18,0.31,1.41,1.51,1.5
				c0.68,0.05,3.05-0.02,3.55-0.02c0.14,0,0.29-0.01,0.43-0.02c1.11-0.07,1.26-0.23,1.32-1.37c0.01-0.29,0.01-0.57,0.01-0.86
				c-0.02-2.48-0.04-4.95-0.05-7.43c-0.03-3.63-0.03-7.25-0.09-10.88c-0.03-1.56,0.34-2.92,1.2-4.26
				c4.41-6.89,8.75-13.82,13.11-20.74c0.27-0.42,0.54-0.85,0.74-1.31C259.55,70.88,259.46,70.5,258.87,70.14z"/>
			<path d="M199.73,72.9c0.34-0.46,0.55-0.74,0.76-1.03c3.96-5.5,13.26-6.43,17.81,0.22c1.49,2.18,2.35,4.6,2.87,7.16
				c0.81,3.91,1.27,7.87,1.29,11.85c0.04,8.47-0.02,16.94-0.06,25.41c-0.01,1.99-0.16,2.1-2.13,2.11c-1.13,0-2.26,0.02-3.4-0.01
				c-1.16-0.03-1.41-0.27-1.42-1.45c-0.02-2.37,0.01-4.75,0.01-7.12c0.01-5.88,0.05-11.76,0.03-17.64
				c-0.02-4.17-0.41-8.31-1.32-12.39c-0.31-1.36-0.81-2.64-1.55-3.84c-1.67-2.71-5.79-2.06-6.92,0.53c-0.72,1.65-1.11,3.4-1.39,5.16
				c-0.51,3.14-0.62,6.32-0.68,9.49c-0.05,2.36-0.05,2.36-2.41,2.36c-1.24,0-2.48,0.03-3.72-0.02c-1.23-0.04-1.42-0.25-1.51-1.51
				c-0.15-2.11-0.29-4.22-0.43-6.34c-0.17-2.59-0.52-5.15-1.29-7.65c-0.15-0.49-0.32-0.97-0.52-1.44c-0.66-1.48-1.88-2.21-3.44-2.34
				c-1.5-0.12-2.68,0.48-3.52,1.77c-0.96,1.47-1.42,3.11-1.75,4.8c-0.74,3.77-1.11,7.59-1.11,11.43
				c-0.01,7.01,0.04,14.02,0.05,21.03c0,1.28-0.02,2.56-0.09,3.83c-0.06,1.06-0.21,1.18-1.27,1.18c-1.42,0-2.85,0-4.27-0.05
				c-1.01-0.04-1.19-0.25-1.3-1.24c-0.02-0.22-0.03-0.44-0.03-0.66c-0.02-8.47-0.11-16.94-0.04-25.41
				c0.04-4.57,0.54-9.11,1.69-13.55c0.54-2.11,1.42-4.06,2.71-5.82c4.54-6.2,13.53-5.33,17.49,0.02
				C199.11,72.08,199.35,72.4,199.73,72.9z"/>
		</g>
		<g>
			<g>
				<path class="st5" d="M144.89,90.11c0,7.37-0.82,9.31,4.52,6.76c8.16-3.9,17.76-6.41,19.63-7c1.01-0.32,0.84-1.51,0.09-1.8
					c-2.56-0.98-3.16-0.87-9.4-2.5C143.87,81.43,144.89,77.87,144.89,90.11C144.89,90.11,144.89,90.11,144.89,90.11z"/>
				<path class="st5" d="M163.59,70.75c-8.42-6.87-8.13-7.63-10.63-3.08c-4.52,8.23-4.55,7.4,13.76,10.07
					C172.91,78.64,168.44,74.71,163.59,70.75z"/>
				<path class="st5" d="M152.79,105.98c-0.05-0.57,0.26,3.07,2.73,7.31c1.28,2.2,3.21,0.75,5.04-1.03
					c4.38-4.25,13.11-13.33,7.18-11.86c-13.52,3.33-13.22,3.26-14.04,3.66C153.05,104.37,152.73,104.93,152.79,105.98z"/>
			</g>
			<g>
				<path class="st5" d="M287.11,90.11c0,7.37,0.82,9.31-4.52,6.76c-8.16-3.9-17.76-6.41-19.63-7c-1.01-0.32-0.84-1.51-0.09-1.8
					c2.56-0.98,3.16-0.87,9.4-2.5C288.13,81.43,287.11,77.87,287.11,90.11C287.11,90.11,287.11,90.11,287.11,90.11z"/>
				<path class="st5" d="M268.41,70.75c8.42-6.87,8.13-7.63,10.63-3.08c4.52,8.23,4.55,7.4-13.76,10.07
					C259.09,78.64,263.56,74.71,268.41,70.75z"/>
				<path class="st5" d="M279.21,105.98c0.05-0.57-0.26,3.07-2.73,7.31c-1.28,2.2-3.21,0.75-5.04-1.03
					c-4.38-4.25-13.11-13.33-7.18-11.86c13.52,3.33,13.22,3.26,14.04,3.66C278.95,104.37,279.27,104.93,279.21,105.98z"/>
			</g>
		</g>
	</g>
	<path d="M178.89,247.35c0.88-0.75,1.17-1.47,1.53-2.14c1.87-3.49,3.23-7.18,4.33-10.97c0.21-0.71,0.22-1.54,0.1-2.28
		c-0.63-4.13-0.76-8.26-0.34-12.41c0.37-3.72,1.11-7.37,2.5-10.86c0.7-1.77,1.53-3.49,2.69-5c0.77-0.99,1.6-1.99,2.58-2.76
		c3.54-2.8,7.43-3.17,11.46-1.2c1.18,0.58,2.19,1.5,3.25,2.31c0.49,0.38,0.91,0.85,1.48,1.38c0.27-0.52,0.49-0.95,0.7-1.37
		c1.19-2.3,4.42-2.28,5.89-1.13c0.64,0.5,1.05,1.14,1.11,1.96c0.05,0.7,0.07,1.41,0.04,2.11c-0.2,3.79-0.41,7.59-0.65,11.38
		c-0.37,5.85-0.06,11.67,0.86,17.46c0.42,2.64,0.89,5.27,1.47,7.87c0.36,1.63,0.89,3.24,1.86,4.57c0.55,0.12,0.72-0.23,0.89-0.51
		c1.42-2.28,2.45-4.75,3.39-7.25c0.24-0.64,0.15-1.23-0.04-1.85c-1.24-3.96-1.45-8.01-1.08-12.11c0.22-2.47,0.82-4.86,1.89-7.1
		c0.48-1.01,1.06-2,1.76-2.87c2.65-3.33,6.58-4.37,10.61-2.92c1.82,0.66,3.36,1.74,4.8,3c0.46,0.4,0.93,0.79,1.52,1.29
		c0.33-1.13,0.4-2.1,0.53-3.05c0.38-2.87,1.03-5.67,2.12-8.36c0.61-1.51,1.35-2.94,2.4-4.2c1.3-1.56,2.88-2.67,4.92-3.04
		c2.92-0.53,5.5,0.65,6.93,3.26c1.11,2.04,1.43,4.25,1.2,6.54c-0.19,1.97-0.64,3.88-1.3,5.75c-1.78,5.04-4.5,9.52-8.12,13.53
		c-0.01,0.24-0.08,0.52-0.04,0.79c0.68,4.49,2.03,8.77,4.19,12.76c0.67,1.23,1.54,2.35,2.39,3.47c0.32,0.42,0.82,0.7,1.26,1.05
		c0.91-0.47,1.35-1.2,1.73-1.94c0.75-1.43,1.53-2.86,2.12-4.36c1.89-4.77,3.69-9.58,5.53-14.37c0.36-0.93,0.46-1.89,0.48-2.89
		c0.15-6.51,1.82-12.64,4.87-18.39c0.93-1.75,2.03-3.39,3.47-4.75c2.81-2.66,6.12-3.91,10.02-3.41c1.73,0.22,3.25,0.91,4.54,2.06
		c2.74,2.44,4.44,5.46,4.6,9.18c0.28,6.5-2.44,11.63-7.56,15.43c-3.13,2.32-6.69,2.84-10.39,1.21c-0.36-0.16-0.76-0.25-1.25-0.41
		c-0.2,1.55,0.03,2.94,0.27,4.3c0.58,3.35,1.68,6.53,3.27,9.54c1.16,2.2,2.64,4.15,4.5,5.81c1.28,1.14,2.72,1.98,4.34,2.55
		c2.87,1.01,5.65,0.85,8.39-0.47c2.48-1.19,4.4-3.01,5.93-5.26c1.35-1.99,2.43-4.12,3.32-6.34c2.03-5.06,3.28-10.31,3.91-15.72
		c0.17-1.47,0.3-2.94,0.47-4.41c0.06-0.49,0.14-0.98,0.29-1.44c0.29-0.92,1.13-1.44,2.12-1.36c0.79,0.06,1.34,0.53,1.36,1.33
		c0.03,1.05,0.01,2.11-0.09,3.16c-0.5,5.11-1.2,10.2-2.54,15.17c-1.05,3.89-2.49,7.62-4.66,11.04c-2.94,4.64-6.98,7.86-12.3,9.37
		c-4.11,1.17-8.21,1.03-12.24-0.39c-2.92-1.03-5.36-2.75-7.32-5.16c-2.43-2.99-4.06-6.4-5.3-10.02c-0.27-0.79-0.56-1.57-0.94-2.62
		c-0.32,0.76-0.53,1.24-0.72,1.74c-1.13,2.96-2.19,5.94-3.4,8.86c-0.64,1.55-1.41,3.09-2.38,4.44c-1.79,2.49-4.31,3.52-7.39,3.01
		c-1.35-0.23-2.5-0.9-3.58-1.71c-3.17-2.39-5.42-5.48-6.9-9.15c-0.34-0.84-0.65-1.7-1.06-2.76c-0.28,0.39-0.52,0.62-0.63,0.9
		c-0.83,2.16-1.63,4.35-2.47,6.51c-0.36,0.91-0.75,1.82-1.23,2.68c-0.37,0.67-0.83,1.31-1.37,1.86c-2.11,2.16-5.09,2.56-7.74,1.09
		c-1.44-0.8-2.59-1.93-3.6-3.21c-0.69-0.88-1.34-1.8-1.98-2.66c-0.56-0.05-0.57,0.38-0.72,0.66c-0.67,1.32-1.29,2.66-2,3.95
		c-0.4,0.74-0.89,1.44-1.44,2.08c-1.68,1.94-4.1,2.32-6.27,0.94c-0.82-0.52-1.54-1.23-2.19-1.95c-1.19-1.31-2.04-2.86-2.79-4.45
		c-1.14-2.43-1.98-4.96-2.52-7.59c-0.1-0.46-0.28-0.91-0.51-1.65c-0.32,0.79-0.54,1.28-0.73,1.78c-0.85,2.31-1.64,4.64-2.54,6.93
		c-0.46,1.17-1,2.34-1.69,3.39c-2.05,3.11-5.56,4.01-8.88,2.28c-0.92-0.48-1.78-1.14-2.56-1.84c-1.75-1.56-3.08-3.46-4.13-5.56
		c-0.24-0.47-0.5-0.93-0.8-1.48c-0.62,0.46-0.66,1.06-0.88,1.54c-0.91,1.98-1.75,3.99-2.71,5.94c-0.43,0.88-0.99,1.72-1.63,2.45
		c-1.81,2.09-4.61,2.34-6.83,0.7c-1.03-0.77-1.8-1.77-2.47-2.86c-1.76-2.84-2.9-5.93-3.71-9.15c-0.68-2.67-1.02-5.39-1.2-8.13
		c-0.22-3.3-0.35-6.61-0.45-9.91c-0.12-3.73-0.35-7.45-0.88-11.14c-0.13-0.89-0.35-1.76-0.57-2.87c-0.45,0.33-0.8,0.46-0.95,0.71
		c-0.81,1.31-1.68,2.61-2.32,4c-1.66,3.6-2.65,7.41-3.34,11.3c-1.36,7.61-1.47,15.25-0.62,22.92c0.05,0.49,0.12,0.98,0.12,1.47
		c0.01,1.68-0.9,2.87-2.59,3.43c-1.48,0.49-2.7,0.12-3.68-1.26c-0.61-0.86-1.12-1.79-1.6-2.73c-1.49-2.98-2.43-6.15-3-9.42
		c-0.77-4.43-1.44-8.88-2.14-13.33c-0.78-4.93-1.37-9.89-2.5-14.76c-0.17-0.75-0.39-1.49-0.57-2.18c-0.52-0.24-0.71,0.07-0.9,0.37
		c-1.33,2.1-2.15,4.42-2.79,6.8c-1.21,4.43-1.86,8.95-2.09,13.53c-0.38,7.54-0.01,15.05,1.12,22.52c0.35,2.29,0.53,4.64,1.15,6.86
		c0.64,2.27-1.72,4.59-4.1,4.37c-0.75-0.07-1.36-0.4-1.79-0.99c-0.45-0.62-0.86-1.29-1.23-1.96c-2.09-3.79-3.44-7.85-4.44-12.04
		c-1.51-6.3-2.53-12.68-3.1-19.14c-0.63-7.09-0.92-14.18-0.7-21.29c0.04-1.19,0.16-2.39,0.37-3.56c0.36-2.02,1.55-3.09,3.54-3.32
		c2.18-0.26,3.73,0.91,3.97,3.09c0.13,1.18,0.1,2.39,0.11,3.58c0.05,3.38,0.08,6.75,0.13,10.13c0.02,1.04,0.11,2.07,0.43,3.58
		c0.43-2.58,0.74-4.66,1.12-6.72c0.47-2.56,1.11-5.09,2.17-7.48c0.45-1.02,0.97-2.04,1.63-2.94c1.94-2.67,4.63-3.56,7.81-2.95
		c1.82,0.35,3.24,1.42,4.14,3.02c0.65,1.15,1.25,2.39,1.58,3.66c0.66,2.51,1.2,5.06,1.65,7.62c0.62,3.53,1.1,7.09,1.64,10.63
		c0.05,0.31,0.14,0.61,0.43,0.91c0.3-1.65,0.6-3.3,0.92-4.95c0.64-3.32,1.44-6.59,2.55-9.79c0.65-1.86,1.37-3.71,2.48-5.34
		c0.66-0.98,1.39-1.97,2.28-2.74c3.28-2.85,8.18-1.95,10.33,1.82c0.71,1.24,1.14,2.59,1.33,3.98c0.34,2.51,0.67,5.02,0.83,7.55
		c0.23,3.72,0.28,7.45,0.45,11.18c0.2,4.36,0.56,8.71,1.3,13.01c0.29,1.66,0.74,3.29,1.2,4.91
		C177.97,245.46,178.42,246.26,178.89,247.35z M198.95,245.66c0.42-0.47,0.82-0.79,1.05-1.19c0.6-1.03,1.21-2.07,1.68-3.16
		c2.04-4.79,3.8-9.68,5.32-14.66c0.2-0.66,0.33-1.37,0.32-2.06c-0.07-4.36,0.04-8.72,0.37-13.07c0.26-3.46,0.22-3.47-2.22-5.91
		c-0.64-0.64-1.36-1.23-2.09-1.77c-0.44-0.33-0.96-0.59-1.48-0.8c-0.92-0.36-1.84-0.28-2.55,0.43c-0.79,0.79-1.58,1.61-2.22,2.52
		c-1.61,2.26-2.59,4.82-3.3,7.48c-1.6,6.01-1.76,12.08-0.69,18.19c0.58,3.33,1.55,6.57,2.84,9.7
		C196.61,242.91,197.35,244.43,198.95,245.66z M236.4,245.14c1.05-1.09,1.69-2.25,2.2-3.47c1.73-4.14,3.4-8.31,5.07-12.47
		c0.18-0.44,0.3-0.95,0.27-1.42c-0.11-1.96-0.29-3.92-0.42-5.87c-0.03-0.51-0.18-0.96-0.51-1.34c-1.55-1.83-3.28-3.47-5.43-4.59
		c-0.56-0.29-1.16-0.49-1.76-0.69c-0.59-0.2-1.14-0.03-1.52,0.43c-0.44,0.54-0.86,1.12-1.17,1.73c-1.38,2.66-2.05,5.51-2.19,8.49
		c-0.13,2.89,0.19,5.74,0.72,8.58c0.41,2.22,0.99,4.38,1.89,6.45C234.19,242.44,234.91,243.89,236.4,245.14z M278.09,218.4
		c1.24,0.96,2.39,1.45,3.58,1.88c1.31,0.47,2.6,0.42,3.92-0.02c1.73-0.58,3.1-1.65,4.2-3.05c2.57-3.27,3.88-6.98,3.66-11.16
		c-0.13-2.41-1.05-4.5-2.71-6.25c-1.89-1.99-3.29-2.08-5.17-0.11c-1.06,1.11-1.96,2.39-2.75,3.71c-2.07,3.47-3.35,7.26-4.16,11.21
		C278.42,215.83,278.29,217.09,278.09,218.4z M251.91,220.96c0.31-0.32,0.49-0.45,0.59-0.63c1.75-2.89,3.31-5.87,4.31-9.11
		c0.45-1.47,0.79-2.98,1.03-4.5c0.27-1.69,0.1-3.37-0.76-4.9c-0.17-0.31-0.56-0.51-0.84-0.75
		C253.28,204.18,251.07,216.39,251.91,220.96z"/>
</g>
</svg>
