<?xml version="1.0" encoding="utf-8"?>
<!-- Generator: Adobe Illustrator 25.2.1, SVG Export Plug-In . SVG Version: 6.00 Build 0)  -->
<svg version="1.1" id="Calque_1" xmlns="http://www.w3.org/2000/svg" xmlns:xlink="http://www.w3.org/1999/xlink" x="0px" y="0px"
	 viewBox="0 0 432 432" style="enable-background:new 0 0 432 432;" xml:space="preserve">
<style type="text/css">
	.st0{fill:#F9D53D;}
	.st1{fill:#D3B844;}
	.st2{fill:#E0AAAF;}
	.st3{fill:#BA9196;}
	.st4{fill:#EAB978;}
	.st5{fill:#FBB03B;}
	.st6{fill:#A1C3CE;}
	.st7{fill:#8CC63F;}
	.st8{fill:#C7B299;}
	.st9{fill:#CCCCCC;}
	.st10{fill:#C44750;}
	.st11{fill:#998675;}
	.st12{fill:#29ABE2;}
	.st13{fill:#C79C52;}
	.st14{fill:#766FBF;}
	.st15{fill:#E8A3AB;}
</style>
<g>
	<g>
		<path d="M182.81,274.76c-1.96,0-2.23,0.28-2.27,2.25c-0.09,4.87,0.87,9.49,3.2,13.8c1.28,2.37,2.92,4.44,5.12,6.03
			c2.1,1.51,4.41,2.32,7.03,2.04c1.78-0.2,3.34-0.91,4.74-2c1.73-1.35,3.01-3.06,4-5c1.45-2.83,2.16-5.86,2.42-9.01
			c0.01-0.16,0.02-0.32,0.03-0.47c0.09-1.15,0.31-1.37,1.44-1.43c0.63-0.03,1.26-0.02,1.9-0.02c0.53,0,0.85,0.28,0.87,0.8
			c0.03,0.79,0.06,1.58-0.02,2.36c-0.38,3.99-1.5,7.75-3.59,11.2c-1.16,1.91-2.56,3.62-4.35,4.97c-4.74,3.55-9.78,3.99-15.05,1.31
			c-2.82-1.44-5.02-3.61-6.83-6.19c-2.4-3.42-3.89-7.23-4.67-11.32c-1.05-5.51-0.81-10.96,1.05-16.28c1.28-3.65,3.2-6.9,6.28-9.33
			c4.61-3.64,9.62-4.19,14.93-1.65c2.41,1.15,4.39,2.88,6.06,4.94c2.59,3.2,4.39,6.77,5.08,10.88c0.21,1.24-0.24,1.95-1.66,1.93
			C204.21,274.51,187.06,274.75,182.81,274.76z M201.16,270.22c0.79,0,1.58-0.02,2.37-0.03c1.38-0.02,1.56-0.26,0.88-1.5
			c-0.68-1.25-1.41-2.47-2.23-3.63c-1.16-1.64-2.63-2.99-4.38-4.01c-3.85-2.25-7.98-1.85-11.33,1.1c-1.94,1.71-3.27,3.85-4.2,6.24
			c-0.16,0.41-0.24,0.86-0.28,1.29c-0.04,0.52,0.12,0.66,0.65,0.72c0.16,0.02,0.32,0.01,0.47,0.01
			C186.54,270.4,198.57,270.23,201.16,270.22z"/>
		<path d="M234.88,279.46c0.05-5.21,0.88-9.83,2.94-14.19c1.26-2.66,2.9-5.05,5.16-6.96c2.59-2.2,5.55-3.41,9-3.27
			c2.31,0.1,4.39,0.89,6.31,2.14c2.2,1.43,3.92,3.33,5.33,5.53c2.16,3.36,3.44,7.06,4.08,10.98c0.94,5.75,0.57,11.41-1.35,16.93
			c-1.18,3.38-2.9,6.45-5.51,8.95c-2.61,2.49-5.65,4-9.34,3.94c-2.92-0.04-5.48-1.12-7.76-2.89c-2.31-1.8-4.03-4.09-5.38-6.66
			c-1.95-3.71-2.97-7.69-3.33-11.85C234.93,281.09,234.91,280.06,234.88,279.46z M263.12,285.59c0.64-3.04,0.71-6.16,0.38-9.25
			c-0.09-0.8-0.19-1.59-0.32-2.38c-0.62-3.56-1.85-6.89-4.02-9.83c-1.09-1.48-2.39-2.75-4.03-3.62c-2.53-1.34-5.06-1.35-7.58,0.04
			c-1.08,0.6-2.01,1.39-2.84,2.3c-1.58,1.74-2.71,3.75-3.53,5.94c-1.92,5.15-2.27,10.44-1.3,15.82c0.57,3.15,1.61,6.14,3.35,8.84
			c1.2,1.86,2.65,3.47,4.62,4.55c2.55,1.4,5.12,1.43,7.66,0c0.8-0.45,1.54-1.03,2.22-1.65c1.53-1.41,2.62-3.14,3.5-5.01
			C262.1,289.47,262.71,287.55,263.12,285.59z"/>
		<path d="M153.57,275.95c0.32-0.23,0.66-0.45,0.96-0.7c1.44-1.16,3.01-2.08,4.84-2.42c4.11-0.76,7.55,0.44,10.15,3.76
			c1.82,2.32,2.75,5.06,3.43,7.89c0.72,2.98,1.07,6.02,1.24,9.08c0.14,2.54,0.19,5.09,0.27,7.63c0,0.14,0.01,0.28,0.01,0.41
			c0,1.31-0.16,1.5-1.47,1.53c-0.72,0.02-1.44-0.03-2.16-0.09c-0.69-0.06-0.89-0.25-1-0.94c-0.07-0.41-0.08-0.82-0.1-1.23
			c-0.09-2.3-0.14-4.61-0.28-6.91c-0.21-3.47-0.6-6.92-1.65-10.26c-0.46-1.45-1.04-2.84-1.93-4.08c-1.55-2.16-4.3-2.89-6.69-1.73
			c-2.29,1.11-3.74,2.98-4.62,5.32c-0.81,2.15-1.07,4.41-1.17,6.68c-0.15,3.47-0.2,6.94-0.29,10.41c-0.02,0.62,0,1.24-0.06,1.86
			c-0.07,0.79-0.33,1.03-1.11,1.07c-0.72,0.03-1.45,0.02-2.17-0.01c-1.26-0.05-1.48-0.3-1.47-1.56c0.02-2.82,0.04-5.64,0.06-8.46
			c0.08-12.04,0.16-24.08,0.24-36.12c0-0.17,0-0.34,0-0.52c0.04-0.94,0.22-1.14,1.17-1.19c0.76-0.03,1.51-0.04,2.27-0.02
			c0.74,0.02,0.99,0.21,1.11,0.95c0.12,0.71,0.17,1.43,0.17,2.15c-0.03,5.4-0.08,10.8-0.12,16.2c0,0.4,0.06,0.79,0.09,1.19
			C153.39,275.87,153.48,275.91,153.57,275.95z"/>
		<path d="M217.05,255.35c0.37,0,0.74-0.02,1.11,0.01c0.72,0.06,0.93,0.28,1,1c0.01,0.13,0.01,0.27,0.01,0.4
			c0.14,10.77,0.28,21.54,0.43,32.31c0.03,1.82,0.09,3.63,0.2,5.45c0.04,0.7,0.23,1.39,0.43,2.06c0.32,1.06,1,1.78,2.07,2.19
			c1.23,0.47,1.27,0.58,1.12,1.86c-0.05,0.47-0.13,0.93-0.21,1.4c-0.18,0.97-0.65,1.33-1.64,1.16c-1.69-0.29-3.16-1.03-4.11-2.49
			c-0.54-0.83-0.97-1.77-1.28-2.72c-0.64-1.92-0.89-3.94-1-5.96c-0.12-2.35-0.2-4.71-0.24-7.06c-0.1-5.49-0.16-10.97-0.24-16.46
			c-0.05-3.63-0.1-7.27-0.14-10.9c0-0.47,0.06-0.94,0.12-1.4c0.08-0.54,0.43-0.83,0.96-0.86c0.47-0.03,0.94-0.01,1.41-0.01
			C217.05,255.34,217.05,255.34,217.05,255.35z"/>
		<path d="M227.97,255.35c0.37,0,0.74-0.02,1.11,0.01c0.72,0.06,0.93,0.28,1,1c0.01,0.13,0.01,0.27,0.01,0.4
			c0.14,10.77,0.28,21.54,0.43,32.31c0.03,1.82,0.09,3.63,0.2,5.45c0.04,0.7,0.23,1.39,0.43,2.06c0.32,1.06,1,1.78,2.07,2.19
			c1.23,0.47,1.27,0.58,1.12,1.86c-0.05,0.47-0.13,0.93-0.21,1.4c-0.18,0.97-0.65,1.33-1.64,1.16c-1.69-0.29-3.16-1.03-4.11-2.49
			c-0.54-0.83-0.97-1.77-1.28-2.72c-0.64-1.92-0.89-3.94-1-5.96c-0.12-2.35-0.2-4.71-0.24-7.06c-0.1-5.49-0.16-10.97-0.24-16.46
			c-0.05-3.63-0.1-7.27-0.14-10.9c0-0.47,0.06-0.94,0.12-1.4c0.08-0.54,0.43-0.83,0.96-0.86c0.47-0.03,0.94-0.01,1.41-0.01
			C227.97,255.34,227.97,255.34,227.97,255.35z"/>
	</g>
	<path d="M124.13,216.05c-3.05,3.21-6.28,6.01-9.71,8.73c0.27,0.39,0.5,0.74,0.75,1.08c1.51,2.08,2.51,4.38,3.03,6.9
		c0.8,3.85-0.07,7.23-2.71,10.14c-2.41,2.66-5.41,4.19-8.97,4.55c-4.86,0.49-9.25-2.6-10.41-7.35c-0.6-2.47-0.15-4.77,1.3-6.86
		c0.82-1.18,1.87-2.13,3.09-2.88c1.17-0.72,2.39-1.36,3.58-2.03c0.48-0.27,0.97-0.53,1.41-0.77c0.11-0.4-0.13-0.56-0.31-0.71
		c-1.3-1.12-2.6-2.24-3.92-3.33c-1.52-1.26-3.1-2.45-4.59-3.74c-1.74-1.5-3.14-3.28-4.21-5.33c-0.97-1.86-1.53-3.83-1.43-5.94
		c0.17-3.51,1.6-6.47,4.2-8.82c1.48-1.33,3.26-2.06,5.27-2.14c2.73-0.1,4.95,0.99,6.58,3.14c1.6,2.1,2.16,4.54,1.98,7.16
		c-0.07,0.94-0.66,1.45-1.5,1.39c-0.41-0.03-0.76-0.21-0.9-0.61c-0.16-0.44-0.29-0.9-0.41-1.35c-0.3-1.17-0.68-2.3-1.27-3.36
		c-0.4-0.72-0.88-1.37-1.51-1.91c-0.57-0.48-1.21-0.81-1.93-1c-0.56-0.15-1.05-0.03-1.39,0.41c-0.32,0.4-0.6,0.84-0.81,1.3
		c-0.67,1.54-0.78,3.14-0.49,4.79c0.47,2.71,1.7,5.04,3.66,6.94c1.1,1.07,2.33,2.02,3.54,2.99c1.61,1.29,3.25,2.54,4.86,3.82
		c0.57,0.45,1.09,0.97,1.65,1.48c0.2-0.12,0.4-0.22,0.56-0.34c3.37-2.6,6.61-5.35,9.51-8.47c0.41-0.44,0.78-0.92,1.19-1.35
		c0.45-0.46,0.62-0.98,0.64-1.62c0.07-1.84,0.16-3.69,0.33-5.52c0.1-1.06,0.26-2.14,0.58-3.15c0.59-1.86,2.27-2.89,4.19-2.71
		c1.11,0.1,1.97,0.64,2.42,1.66c0.26,0.58,0.44,1.22,0.52,1.84c0.14,1.19,0.22,2.39,0.23,3.59c0.03,3.82-0.03,7.64,0.03,11.46
		c0.08,5.57,1.02,11.01,2.58,16.35c0.57,1.94,1.39,3.79,2.54,5.46c0.46,0.67,0.95,1.32,1.72,1.78c0.18-0.21,0.37-0.38,0.49-0.58
		c0.55-0.93,0.92-1.93,1.2-2.97c1-3.64,1.83-7.32,2.53-11.03c0.8-4.26,1.52-8.53,2.25-12.8c0.12-0.71,0.13-1.45,0.15-2.18
		c0.06-1.97,0.1-3.95,0.15-5.92c0.01-0.26,0.03-0.51,0.06-0.77c0.35-2.73,2.93-4.39,5.57-3.58c1.07,0.33,1.79,1.02,2.08,2.09
		c0.18,0.66,0.29,1.35,0.32,2.03c0.1,2.1,0.19,4.2,0.22,6.3c0.04,3.17,0,6.35,0.29,9.52c0.37,4.06,0.7,8.12,1.55,12.12
		c0.36,1.68,0.84,3.33,1.57,4.89c0.36,0.77,0.74,1.53,1.37,2.12c0.5-0.31,0.65-0.78,0.83-1.2c0.57-1.3,1.13-2.59,1.63-3.92
		c2.36-6.32,4.09-12.82,5.42-19.43c0.35-1.73,0.48-3.48,0.76-5.22c0.11-0.72,0.25-1.45,0.51-2.12c0.75-1.96,2.87-3.03,4.92-2.57
		c1.05,0.24,1.77,0.85,2.09,1.88c0.13,0.41,0.22,0.83,0.24,1.26c0.06,1.11,0.09,2.23,0.09,3.34c-0.01,2.27-0.08,4.55-0.06,6.82
		c0.01,1.71,0.12,3.42,0.2,5.41c0.38-0.63,0.43-1.07,0.51-1.5c0.47-2.62,1.04-5.22,1.84-7.76c0.88-2.79,2-5.48,3.57-7.96
		c0.6-0.95,1.26-1.85,2.1-2.59c1.97-1.74,4.23-2.38,6.81-1.73c1.48,0.37,2.62,1.24,3.49,2.47c0.73,1.03,1.18,2.18,1.54,3.38
		c0.68,2.27,1.03,4.6,1.27,6.95c0.22,2.18,0.37,4.36,0.55,6.54c0.01,0.11,0.05,0.23,0.1,0.42c0.32-0.41,0.33-0.84,0.41-1.25
		c0.83-4.34,1.83-8.64,3.36-12.8c0.56-1.53,1.2-3.04,2.1-4.4c0.5-0.75,1.05-1.48,1.69-2.09c1.68-1.59,3.73-2.08,5.97-1.68
		c1.69,0.3,2.99,1.23,3.92,2.69c0.73,1.14,1.19,2.39,1.46,3.69c0.32,1.55,0.65,3.12,0.77,4.69c0.25,3.34,0.45,6.68,0.53,10.02
		c0.1,3.86,0.38,7.71,0.72,11.56c0.17,1.92,0.37,3.84,0.87,5.72c0.17,0.65,0.31,1.32,0.81,1.97c0.19-0.28,0.35-0.46,0.45-0.67
		c0.59-1.28,1.23-2.55,1.75-3.87c1.24-3.15,2.42-6.33,3.64-9.49c0.24-0.62,0.3-1.24,0.27-1.89c-0.16-3-0.1-6.01,0.03-9.01
		c0.05-1.24,0.18-2.48,0.27-3.72c0.02-0.21,0.06-0.43,0.1-0.63c0.54-2.59,3.23-4.1,5.72-3.21c1.01,0.36,1.69,1.02,1.91,2.08
		c0.12,0.58,0.22,1.19,0.23,1.78c0.03,1.67,0.01,3.35,0.01,5.02c0,0.51,0,1.02,0.08,1.55c0.25-0.48,0.34-1.01,0.43-1.53
		c0.4-2.19,0.85-4.38,1.56-6.5c0.28-0.85,0.62-1.69,1-2.51c1.88-4.09,7.86-4.48,10.28-0.67c0.52,0.83,0.97,1.72,1.34,2.63
		c0.94,2.32,1.44,4.75,1.82,7.22c0.11,0.71,0.22,1.42,0.36,2.35c0.27-0.73,0.33-1.28,0.41-1.82c0.51-3.27,1.15-6.5,2.31-9.61
		c0.56-1.49,1.21-2.93,2.11-4.26c0.94-1.38,2.13-2.47,3.71-3.08c3.2-1.23,6.96-0.31,8.96,3.02c0.98,1.64,1.56,3.43,1.95,5.29
		c0.47,2.23,0.73,4.49,0.79,6.77c0.07,2.32,0.1,4.63,0.1,6.95c0.01,3.95,0.33,7.89,0.74,11.81c0.09,0.89,0.29,1.77,0.48,2.88
		c0.25-0.38,0.42-0.55,0.49-0.75c0.95-2.76,1.88-5.52,2.82-8.28c0.01-0.04,0.02-0.08,0.03-0.12c0.75-2.07,1.08-4.19,1.05-6.42
		c-0.05-3.37,0.63-6.65,1.79-9.82c0.76-2.07,1.8-3.99,3.28-5.64c1.71-1.9,3.76-3.23,6.3-3.76c4.8-0.99,9.11,1.76,10.23,6.53
		c0.78,3.31-0.01,6.31-1.88,9.05c-2.42,3.55-5.86,5-10.1,4.67c-0.37-0.03-0.75-0.05-1.22-0.08c-0.07,0.84,0.01,1.6,0.12,2.35
		c0.64,4.52,2.19,8.72,4.65,12.57c0.91,1.42,2.02,2.67,3.35,3.71c0.81,0.64,1.7,1.15,2.69,1.48c1.13,0.37,2.14,0.18,3.01-0.58
		c0.61-0.54,1.18-1.13,1.69-1.76c0.93-1.13,1.67-2.39,2.36-3.68c1.64-3.08,2.81-6.35,3.8-9.69c1.15-3.87,2.04-7.8,2.54-11.81
		c0.17-1.4,0.24-2.82,0.34-4.23c0.02-0.3,0-0.59,0-0.92c-0.53-0.22-1.04-0.26-1.54-0.34c-1.94-0.32-3.72-1.03-5.27-2.26
		c-2.12-1.69-3-3.91-2.73-6.59c0.19-1.87,1.61-4.36,4.28-4.92c1.48-0.31,2.81,0.03,4.06,0.8c0.93,0.57,1.66,1.35,2.3,2.22
		c1.33,1.8,2.07,3.84,2.5,6.01c0.08,0.41,0.17,0.83,0.25,1.23c0.63,0.16,1.19,0.04,1.74,0c1.72-0.12,3.43-0.21,5.14,0.12
		c0.34,0.07,0.67,0.14,1,0.23c3.14,0.84,5.15,2.81,5.9,5.99c0.22,0.91,0.37,1.86,0.39,2.8c0.04,2.02-0.03,4.03-0.07,6.05
		c-0.05,2.83-0.16,5.66-0.16,8.49c0,2.89,0.54,5.72,1.29,8.5c0.29,1.09,0.77,2.09,1.63,2.87c0.38,0.34,0.75,0.72,1.34,0.73
		c0.6-0.29,0.93-0.86,1.26-1.4c0.63-1.03,1.06-2.16,1.43-3.3c0.76-2.33,1.27-4.73,1.54-7.16c0.32-2.81,0.54-5.64,0.8-8.45
		c0.03-0.34,0.06-0.69,0.13-1.02c0.25-1.17,1.46-1.62,2.25-1.48c0.52,0.09,0.85,0.4,0.94,0.91c0.04,0.21,0.04,0.43,0.04,0.64
		c-0.02,1.24,0,2.49-0.1,3.73c-0.2,2.65-0.41,5.3-0.72,7.94c-0.27,2.34-0.72,4.66-1.5,6.9c-0.44,1.26-0.97,2.48-1.76,3.56
		c-1.26,1.73-2.89,2.97-5.02,3.34c-2.84,0.49-5.36-0.32-7.52-2.2c-1.09-0.94-1.88-2.11-2.5-3.4c-0.81-1.68-1.23-3.47-1.51-5.3
		c-0.27-1.83-0.36-3.67-0.34-5.52c0.04-3.73,0.12-7.47,0.16-11.2c0.01-1.11-0.01-2.23-0.07-3.34c-0.06-1.16-0.35-2.28-0.81-3.36
		c-0.32-0.75-0.84-1.29-1.65-1.51c-0.95-0.25-1.91-0.41-2.92-0.27c-0.23,0.75-0.17,1.48-0.23,2.2c-0.55,7.67-2.22,15.09-4.98,22.26
		c-0.8,2.09-1.77,4.1-2.99,5.98c-0.72,1.11-1.49,2.22-2.38,3.19c-3.47,3.79-7.71,4.73-12.55,3.16c-1.99-0.64-3.72-1.76-5.29-3.11
		c-2.89-2.49-4.9-5.61-6.37-9.09c-0.32-0.75-0.55-1.53-0.83-2.3c-0.09-0.24-0.2-0.47-0.37-0.86c-0.17,0.51-0.3,0.86-0.41,1.21
		c-0.76,2.41-1.53,4.82-2.29,7.24c-0.35,1.1-0.95,2.01-1.92,2.66c-1.56,1.05-3.42,1.03-4.94-0.07c-0.77-0.56-1.39-1.27-1.93-2.05
		c-1.42-2.04-2.33-4.3-2.8-6.72c-0.26-1.34-0.44-2.71-0.51-4.08c-0.15-2.96-0.22-5.92-0.3-8.88c-0.07-2.7-0.16-5.4-0.5-8.09
		c-0.2-1.62-0.5-3.22-1.02-4.77c-0.17-0.52-0.4-1.03-0.64-1.66c-0.26,0.23-0.47,0.36-0.61,0.55c-1.32,1.78-2.19,3.78-2.86,5.87
		c-0.95,2.95-1.48,5.99-1.84,9.06c-0.46,3.93-0.57,7.87-0.53,11.82c0.02,2.49,0.03,4.98,0.04,7.47c0,0.43-0.01,0.86-0.02,1.29
		c-0.03,2.38-2.42,3.96-4.55,3.63c-0.57-0.09-1.08-0.33-1.47-0.74c-0.39-0.4-0.75-0.83-1.06-1.29c-1.74-2.55-2.87-5.37-3.45-8.39
		c-0.63-3.29-0.99-6.62-1.32-9.95c-0.37-3.67-0.72-7.34-1.54-10.95c-0.17-0.75-0.36-1.5-0.57-2.24c-0.06-0.23-0.19-0.43-0.32-0.71
		c-0.43,0.4-0.52,0.88-0.69,1.31c-0.85,2.21-1.36,4.51-1.79,6.83c-0.97,5.26-1.16,10.57-1.01,15.9c0.06,2.02,0.18,4.03,0.28,6.04
		c0.02,0.43,0.03,0.86,0.03,1.29c0.01,0.83-0.35,1.49-0.94,2.04c-0.54,0.52-1.18,0.86-1.91,1.01c-1.18,0.25-2.23-0.01-3.02-0.97
		c-0.33-0.4-0.62-0.82-0.88-1.27c-1.82-3.14-3.1-6.49-3.88-10.04c-0.1-0.44-0.2-0.88-0.37-1.58c-0.27,0.64-0.44,1.02-0.59,1.41
		c-0.87,2.28-1.73,4.57-2.62,6.85c-0.25,0.64-0.55,1.26-0.89,1.85c-0.43,0.76-1.02,1.37-1.75,1.86c-1.32,0.88-3.62,1.31-5.5-0.33
		c-0.79-0.69-1.41-1.5-1.93-2.4c-1.81-3.16-3.08-6.52-3.61-10.12c-0.27-1.86-0.41-3.75-0.52-5.63c-0.21-3.81-0.33-7.63-0.55-11.44
		c-0.15-2.52-0.42-5.04-1.1-7.61c-0.21,0.15-0.42,0.22-0.5,0.37c-0.6,1.04-1.23,2.07-1.74,3.15c-1.31,2.77-2.14,5.7-2.78,8.68
		c-0.81,3.74-1.33,7.52-1.61,11.33c-0.2,2.74-0.33,5.48-0.5,8.22c-0.05,0.77-0.12,1.54-0.24,2.3c-0.34,2.15-2.99,3.51-4.98,2.84
		c-0.54-0.18-1-0.51-1.34-0.97c-0.43-0.58-0.85-1.19-1.21-1.82c-1.42-2.49-2.29-5.17-2.76-7.98c-0.52-3.09-0.84-6.2-1.08-9.33
		c-0.3-3.81-0.55-7.62-1.25-11.38c-0.2-1.09-0.5-2.17-0.78-3.25c-0.07-0.27-0.23-0.51-0.37-0.8c-0.5,0.2-0.73,0.57-1,0.9
		c-0.84,1.04-1.52,2.18-2.11,3.38c-1.21,2.44-2.02,5.01-2.67,7.64c-0.9,3.63-1.47,7.31-1.85,11.03c-0.37,3.59-0.7,7.17-0.82,10.78
		c-0.01,0.38-0.1,0.77-0.12,1.15c-0.07,1.53-1.96,3.05-3.9,2.7c-0.62-0.11-1.11-0.46-1.46-0.98c-0.28-0.43-0.54-0.88-0.75-1.34
		c-1.71-3.76-3-7.66-3.74-11.74c-0.24-1.31-0.38-2.63-0.58-3.94c-0.04-0.28-0.15-0.56-0.28-1.07c-0.19,0.63-0.33,1.04-0.44,1.44
		c-1.11,3.88-2.3,7.73-3.84,11.46c-0.31,0.75-0.66,1.5-1.11,2.17c-0.91,1.35-2.19,2.15-3.83,2.32c-0.96,0.1-1.88-0.06-2.75-0.49
		c-0.81-0.41-1.53-0.95-2.18-1.59c-1.39-1.37-2.43-2.99-3.3-4.73c-1.34-2.66-2.21-5.48-2.81-8.39c-0.1-0.5-0.2-1-0.33-1.63
		c-0.3,0.39-0.33,0.76-0.4,1.1c-0.62,3.02-1.23,6.05-1.87,9.07c-0.2,0.92-0.48,1.82-0.78,2.72c-0.29,0.86-0.74,1.64-1.31,2.35
		c-1.85,2.27-4.8,2.93-7.43,1.66c-0.9-0.43-1.69-1.02-2.43-1.68c-1.59-1.41-2.88-3.06-3.94-4.9c-1.85-3.19-3.04-6.61-3.68-10.24
		c-0.65-3.69-0.84-7.41-0.95-11.15c-0.01-0.3-0.01-0.6-0.03-0.9C124.31,216.41,124.25,216.34,124.13,216.05z M107.47,229.69
		c-1.47,0.86-2.88,1.67-4.27,2.52c-0.51,0.31-0.98,0.69-1.42,1.1c-1.08,1.03-1.61,2.3-1.54,3.81c0.09,2.13,1.14,3.76,2.84,4.94
		c2.71,1.88,6.04,0.64,6.95-2.54c0.02-0.08,0.04-0.17,0.06-0.25C110.77,236.33,109.63,232.06,107.47,229.69z M286.13,220.77
		c1.02,0.29,2.06,0.48,3.14,0.4c1.88-0.13,3.36-0.97,4.44-2.5c0.75-1.07,1.23-2.25,1.48-3.53c0.39-2.04-0.01-3.92-1.09-5.67
		c-0.43-0.71-0.99-1.3-1.74-1.67c-1.04-0.52-1.76-0.43-2.56,0.4c-0.35,0.37-0.66,0.8-0.91,1.24c-0.3,0.52-0.55,1.07-0.75,1.63
		c-0.97,2.58-1.63,5.24-2,7.97C286.07,219.58,285.97,220.13,286.13,220.77z M310.3,207.35c0.01-0.97-0.25-1.78-0.48-2.59
		c-0.39-1.37-0.99-2.64-1.94-3.71c-0.36-0.41-0.81-0.75-1.25-1.08c-0.28-0.21-0.57-0.11-0.78,0.17c-0.45,0.62-0.55,1.33-0.53,2.07
		C305.4,204.85,307.4,206.96,310.3,207.35z"/>
	<path d="M130.43,346.68c-0.29-0.47-0.52-0.88-0.8-1.26c-1.18-1.67-2.5-3.24-3.94-4.69c-1.24-1.24-2.49-2.47-3.72-3.71
		c-1.23-1.25-2.41-2.55-3.41-3.99c-1.12-1.62-1.92-3.37-2.24-5.34c-0.78-4.84,2.15-10.02,6.73-11.76c3.14-1.19,6.07-0.75,8.59,1.51
		c3.35,3.01,4.73,6.81,4.19,11.29c-0.11,0.92-0.29,1.83-0.68,2.68c-0.21,0.45-0.47,0.85-0.92,1.1c-1.04,0.59-2,0.17-2.15-0.99
		c-0.1-0.72-0.09-1.46-0.09-2.18c-0.01-1.52-0.18-3.01-0.68-4.45c-0.56-1.63-1.35-3.13-2.59-4.35c-0.41-0.41-0.89-0.75-1.38-1.07
		c-0.4-0.26-0.75-0.18-1.01,0.22c-0.32,0.48-0.64,0.99-0.81,1.53c-0.67,2.08-0.45,4.13,0.39,6.13c0.49,1.18,1.19,2.24,2.05,3.18
		c0.89,0.97,1.82,1.9,2.75,2.82c1.25,1.23,2.54,2.42,3.78,3.65c1.45,1.44,2.79,2.99,3.97,4.67c0.16,0.23,0.35,0.45,0.57,0.73
		c0.29-0.14,0.56-0.24,0.79-0.39c1.61-1.09,3.22-2.2,4.83-3.29c0.47-0.32,0.69-0.73,0.78-1.32c0.33-2.17,0.89-4.28,1.69-6.33
		c0.69-1.79,1.64-3.42,2.9-4.86c1.07-1.22,2.29-2.25,3.81-2.89c3.1-1.31,6.33-0.55,8.41,2.08c2.16,2.73,2.92,5.89,2.64,9.32
		c-0.08,0.93-0.54,1.42-1.3,1.52c-0.64,0.09-1.17-0.21-1.37-0.83c-0.11-0.32-0.15-0.66-0.2-1c-0.28-1.84-0.78-3.61-1.65-5.27
		c-0.43-0.82-0.94-1.6-1.62-2.24c-0.43-0.4-0.87-0.78-1.52-0.83c-0.68,0.35-1.06,0.97-1.4,1.63c-0.57,1.09-0.86,2.27-1.08,3.47
		c-0.08,0.43-0.16,0.86-0.19,1.3c-0.34,5.41-0.45,10.8,1.06,16.09c0.61,2.16,1.42,4.24,2.49,6.22c0.72,1.34,1.59,2.56,2.72,3.6
		c1.48,1.36,3.15,1.68,4.99,0.85c0.57-0.26,1.13-0.57,1.66-0.91c0.61-0.4,1.19-0.84,1.76-1.3c1.98-1.61,3.59-3.56,5.15-5.56
		c0.35-0.45,0.33-0.87,0.19-1.36c-0.53-1.77-1.09-3.53-1.56-5.32c-1.57-6.02-2.31-12.14-1.93-18.36c0.15-2.44,0.63-4.82,1.5-7.12
		c0.76-2.03,1.85-3.86,3.45-5.35c1.09-1.01,2.33-1.75,3.81-2.04c2.41-0.48,4.43,0.21,6.06,2.03c0.86,0.96,1.42,2.09,1.85,3.29
		c0.69,1.89,1.05,3.84,1.18,5.84c0.28,4.04-0.37,7.95-1.61,11.79c-0.97,3.01-2.15,5.95-3.56,8.78c-0.22,0.44-0.42,0.87-0.69,1.42
		c1.05,3.15,2.12,6.37,3.2,9.59c0.43-0.06,0.36-0.36,0.43-0.55c0.08-0.23,0.11-0.47,0.16-0.71c0.76-3.72,1.6-7.42,2.66-11.06
		c1.01-3.46,2.22-6.85,3.83-10.08c0.54-1.09,1.12-2.17,1.81-3.17c0.63-0.91,1.36-1.79,2.18-2.53c1.92-1.73,4.22-2.19,6.68-1.58
		c2.32,0.57,3.79,2.1,4.45,4.39c0.41,1.42,0.5,2.88,0.53,4.34c0.03,1.95,0.04,3.89-0.01,5.84c-0.12,4.82,0.11,9.64,0.46,14.44
		c0.13,1.75,0.32,3.49,0.83,5.18c0.18,0.6,0.41,1.2,0.65,1.78c0.13,0.31,0.34,0.58,0.56,0.93c0.49-0.3,0.62-0.78,0.81-1.19
		c1.28-2.63,2.31-5.36,3.17-8.15c0.6-1.95,1.11-3.93,1.63-5.91c0.12-0.47,0.21-0.96,0.2-1.44c-0.05-2.29,0.03-4.57,0.24-6.85
		c0.03-0.34,0-0.68,0-1.02c-0.34-0.36-0.69-0.71-1.01-1.06c-3.81-4.15-4.77-10.19-1.86-15.45c3.48-6.3,10.56-7.79,16.11-5.11
		c1.51,0.73,2.83,1.71,4.04,2.86c3.23,3.07,5.28,6.83,6.38,11.12c0.4,1.55,0.68,3.13,1.02,4.7c1.14-0.27,3.35-1.65,4.65-2.92
		c0.06-0.53-0.3-0.97-0.49-1.45c-1.82-4.71-1.48-9.26,1.09-13.6c1.41-2.37,3.37-4.14,6-5.11c2.33-0.85,4.67-0.84,7,0.01
		c1.29,0.47,2.47,1.16,3.55,2c2.83,2.2,4.91,4.97,6.39,8.22c1.22,2.68,1.96,5.49,2.39,8.39c0.39,2.7,0.58,5.42,0.52,8.15
		c-0.01,0.33,0,0.67,0,1.05c0.65,0.2,1.1-0.08,1.64-0.32c0.03-0.3,0.1-0.64,0.08-0.96c-0.15-2.29-0.06-4.58,0.11-6.86
		c0.3-4,1.09-7.9,2.62-11.62c0.54-1.31,1.18-2.56,2-3.72c1-1.41,2.2-2.6,3.71-3.46c1.21-0.69,2.5-1.08,3.9-1.04
		c2.09,0.06,3.76,0.92,4.95,2.65c1.1,1.6,1.64,3.41,1.82,5.33c0.35,3.6-0.45,6.96-2.22,10.1c-1.6,2.84-3.69,5.28-6.29,7.22
		c-1.09,0.81-1.38,1.68-1.31,2.95c0.17,3.06,0.25,6.12,0.74,9.16c0.49,3.04,1.21,6.01,2.31,8.88c0.51,1.33,1.16,2.57,2.05,3.68
		c0.39,0.49,0.78,0.99,1.46,1.23c0.64-0.43,0.99-1.08,1.23-1.76c0.43-1.24,0.84-2.49,1.14-3.76c0.53-2.28,0.73-4.61,0.9-6.94
		c0.16-2.09,0.32-4.17,0.48-6.26c0.02-0.24,0.04-0.49,0.09-0.72c0.26-1.23,1.37-1.95,2.62-1.72c0.6,0.11,0.96,0.47,1.07,1.05
		c0.07,0.38,0.08,0.78,0.06,1.16c-0.08,1.6-0.15,3.21-0.28,4.81c-0.25,3.06-0.47,6.12-1.14,9.12c-0.24,1.09-0.54,2.17-0.9,3.23
		c-0.53,1.54-1.37,2.9-2.51,4.07c-1.61,1.64-3.55,2.14-5.76,1.57c-2.25-0.58-4.04-1.88-5.52-3.63c-1.33-1.57-2.33-3.36-3.13-5.25
		c-1.48-3.51-2.55-7.14-3.24-10.89c-0.23-1.24-0.4-2.5-0.6-3.75c-0.03-0.18-0.11-0.36-0.16-0.55c-0.75-0.12-1.35,0.27-2.02,0.35
		c-0.38,0.48-0.34,1.04-0.41,1.55c-0.56,4.01-1.46,7.94-2.94,11.72c-0.62,1.59-1.36,3.12-2.31,4.55c-0.9,1.36-2.01,2.5-3.43,3.32
		c-1.91,1.11-3.94,1.34-6.06,0.77c-1.83-0.49-3.38-1.47-4.75-2.76c-1.25-1.18-2.23-2.57-3.05-4.07c-1.91-3.45-3.08-7.14-3.49-11.06
		c-0.17-1.65-0.36-3.29-0.44-4.94c-0.07-1.55,0.01-3.11,0.02-4.67c0-0.47,0-0.94,0-1.54c-1.41,0.67-2.57,1.55-3.9,2.27
		c0,0.55-0.01,1.07,0,1.6c0.1,5.49-0.62,10.87-2.1,16.15c-0.34,1.21-0.79,2.4-1.26,3.58c-0.43,1.09-1.04,2.09-1.79,3
		c-2.66,3.21-6.76,4.15-10.55,2.39c-1.7-0.79-3.14-1.94-4.38-3.35c-1.4-1.59-2.46-3.38-3.25-5.34c-0.13-0.31-0.28-0.61-0.43-0.91
		c-0.02-0.04-0.08-0.05-0.17-0.1c-0.14,0.42-0.28,0.83-0.43,1.23c-0.86,2.27-1.71,4.55-2.6,6.82c-0.21,0.54-0.5,1.06-0.82,1.54
		c-1.57,2.36-5.06,3.65-8.1,1.55c-1.22-0.85-2.19-1.93-3-3.15c-1.89-2.84-3.04-5.97-3.58-9.33c-0.41-2.55-0.54-5.13-0.56-7.71
		c-0.02-3.65-0.02-7.3-0.03-10.95c0-0.52-0.04-1.04-0.06-1.52c-0.42-0.12-0.52,0.15-0.65,0.33c-1.54,2.15-2.7,4.5-3.69,6.94
		c-1.45,3.58-2.41,7.29-3.17,11.07c-0.61,3.05-1.17,6.12-1.76,9.17c-0.11,0.57-0.23,1.15-0.39,1.71c-0.74,2.66-4.35,4.21-6.85,2.08
		c-0.41-0.35-0.79-0.72-1.16-1.11c-1.8-1.88-3.23-4.01-4.41-6.32c-0.24-0.47-0.49-0.95-0.78-1.52c-0.26,0.19-0.5,0.32-0.68,0.5
		c-0.97,1.02-1.9,2.09-2.89,3.09c-1.56,1.56-3.3,2.88-5.24,3.93c-1.56,0.83-3.21,1.41-4.96,1.64c-3.57,0.46-6.76-0.47-9.6-2.64
		c-2.62-2-4.53-4.54-5.74-7.6c-1.38-3.47-2.07-7.09-2.29-10.8c-0.02-0.39-0.04-0.78-0.06-1.16c0-0.05-0.03-0.09-0.04-0.13
		c-0.09-0.02-0.21-0.08-0.27-0.05c-1.38,0.9-2.76,1.81-4.21,2.77c0.19,0.49,0.36,0.94,0.55,1.37c0.66,1.52,1.21,3.08,1.47,4.72
		c0.47,2.94,0.02,5.74-1.42,8.33c-3.17,5.74-9.72,8.82-16.23,7.52c-4.52-0.9-7.82-5.48-7.27-10.06c0.2-1.69,0.94-3.16,2.03-4.46
		c1.08-1.29,2.41-2.29,3.93-2.98c1.46-0.66,2.98-1.2,4.47-1.79C128.8,347.32,129.61,347.14,130.43,346.68z M268.52,339.88
		c0.03-0.56,0.09-1.04,0.09-1.52c0.01-2.63-0.16-5.25-0.53-7.85c-0.36-2.5-0.85-4.98-1.7-7.38c-0.89-2.51-2.19-4.76-4.05-6.68
		c-0.81-0.84-1.71-1.58-2.73-2.17c-1.86-1.07-3.62-0.91-5.31,0.37c-1.06,0.81-1.89,1.82-2.53,2.98c-1.28,2.34-1.67,4.85-1.38,7.48
		c0.02,0.22,0.16,0.43,0.25,0.66c0.51-0.06,0.94-0.14,1.37-0.16c2.1-0.13,3.57,1,3.95,3.05c0.09,0.48,0.14,0.96,0.14,1.45
		c0,0.92-0.05,1.85-0.09,2.77c-0.03,0.68-0.06,1.36-0.09,1.98C258.71,337.76,264.7,340.17,268.52,339.88z M227.05,337.94
		c3.75,1.45,7.25,0.7,10.65-1.09c0.18-1.14-0.1-2.18-0.25-3.23c-0.39-2.61-1.01-5.15-2.04-7.59c-0.98-2.31-2.29-4.4-4.11-6.15
		c-0.92-0.88-1.93-1.63-3.11-2.14c-1.09-0.47-2.23-0.69-3.42-0.59c-1.63,0.13-2.96,0.89-4.12,2c-2.87,2.75-4.02,7.54-2.15,11.75
		c0.06,0.13,0.17,0.23,0.3,0.41c0.32-0.48,0.57-0.89,0.86-1.27c1.22-1.61,3.38-2.32,5.21-1.75c1.11,0.35,1.86,1.05,2.1,2.21
		c0.12,0.57,0.21,1.15,0.21,1.73c0,1.17-0.09,2.33-0.13,3.5C227.02,336.45,226.85,337.17,227.05,337.94z M233.03,360.04
		c0.71-0.44,1.13-1.04,1.45-1.69c0.44-0.92,0.88-1.84,1.2-2.81c1.57-4.74,2.27-9.63,2.31-14.62c0-0.27,0.09-0.58-0.3-0.85
		c-1.62,0.72-3.33,1.41-5.17,1.67c-1.84,0.26-3.68,0.14-5.59-0.09c-0.05,0.37-0.14,0.7-0.14,1.02c-0.02,4.12,0.66,8.12,2.16,11.97
		c0.57,1.46,1.28,2.84,2.29,4.04C231.71,359.24,232.18,359.81,233.03,360.04z M255.85,340.14c0.03,0.73,0.04,1.31,0.09,1.89
		c0.22,2.52,0.6,5.02,1.12,7.49c0.46,2.19,1.11,4.33,2.08,6.36c0.42,0.87,0.93,1.71,1.48,2.5c0.38,0.55,0.84,1.07,1.56,1.28
		c0.7-0.33,1.1-0.95,1.52-1.54c0.88-1.23,1.53-2.6,2.06-4.01c1.26-3.34,2.05-6.79,2.46-10.33c0.03-0.22-0.03-0.45-0.04-0.65
		C262.96,342.48,263.7,343.18,255.85,340.14z M131.85,349.72c-1.38,0.32-5.45,1.89-6.48,2.49c-0.81,0.47-1.52,1.04-2.08,1.8
		c-0.61,0.84-1,1.76-1.04,2.82c-0.1,3.19,2.61,5.87,5.81,5.73c2.56-0.11,4.29-1.44,5.04-3.88c0.14-0.46,0.24-0.94,0.3-1.42
		c0.3-2.58-0.28-5.01-1.33-7.35C132.03,349.82,131.93,349.78,131.85,349.72z M181.47,338.45c0.09,0.02,0.19,0.04,0.28,0.06
		c0.14-0.3,0.32-0.59,0.43-0.9c0.58-1.75,1.22-3.49,1.71-5.27c0.92-3.36,1.3-6.78,0.95-10.26c-0.16-1.61-0.52-3.17-1.25-4.62
		c-0.37-0.74-0.78-1.45-1.56-1.86c-0.65,0.74-0.69,0.8-1,1.76c-0.55,1.73-0.78,3.51-0.85,5.32c-0.16,4.68,0.21,9.33,0.91,13.96
		C181.19,337.24,181.34,337.84,181.47,338.45z M287.96,316.29c-0.21,0.3-0.38,0.47-0.47,0.68c-0.43,1.08-0.9,2.15-1.23,3.26
		c-1.13,3.84-1.44,7.8-1.75,11.77c-0.01,0.13,0.05,0.26,0.11,0.5c0.2-0.16,0.36-0.26,0.47-0.39c0.91-1.08,1.68-2.25,2.31-3.52
		c1.35-2.75,2.09-5.62,1.79-8.71c-0.1-1.02-0.35-2-0.79-2.93C288.32,316.75,288.16,316.57,287.96,316.29z"/>
	<g>
		<g>
			<g>
				<path d="M245.09,156.4c0,0.56-0.06,1.12-0.16,1.67c-0.14,0.77-0.42,1.03-1.19,1.08c-0.8,0.05-1.61,0.05-2.41,0.02
					c-0.74-0.04-0.87-0.2-1.02-0.94c-0.03-0.17-0.04-0.35-0.1-0.51c-0.16-0.5-0.43-0.62-0.86-0.32c-0.42,0.3-0.79,0.68-1.19,1.02
					c-1.11,0.94-2.35,1.63-3.81,1.86c-3.32,0.52-6.5-0.92-8.27-3.77c-1.37-2.21-2-4.68-2.53-7.18c-0.82-3.88-1.09-7.82-1.27-11.77
					c-0.33-7.13-0.49-14.26-0.38-21.4c0.02-1.33,0.1-2.66,0.2-3.98c0.09-1.16,0.43-1.48,1.57-1.52c0.77-0.03,1.54-0.03,2.31,0.01
					c0.93,0.05,1.23,0.37,1.3,1.3c0.03,0.35,0.01,0.7,0.02,1.05c0.09,7.52,0.14,15.04,0.3,22.56c0.09,4.23,0.32,8.46,1.21,12.62
					c0.25,1.19,0.65,2.35,1.03,3.51c0.14,0.43,0.37,0.83,0.62,1.21c1.26,1.92,3.39,2.21,5.13,0.7c1.08-0.94,1.79-2.14,2.25-3.48
					c0.68-1.96,1.06-3.99,1.25-6.04c0.58-6.28,0.55-12.58,0.65-18.87c0.07-4.2,0.14-8.39,0.22-12.59c0.04-1.76,0.22-1.92,1.96-1.93
					c0.63-0.01,1.26-0.03,1.89,0.02c0.86,0.08,1.08,0.34,1.11,1.21c0.02,0.7,0.01,1.4,0.01,2.1
					C244.93,120.83,245.1,149.09,245.09,156.4z"/>
				<path d="M183.73,135.7c0.05-5.41,0.91-10.21,3.05-14.73c1.3-2.76,3.01-5.24,5.35-7.23c2.69-2.28,5.77-3.55,9.35-3.4
					c2.4,0.1,4.56,0.93,6.55,2.22c2.29,1.48,4.07,3.46,5.54,5.74c2.25,3.49,3.57,7.34,4.24,11.41c0.98,5.97,0.59,11.84-1.4,17.57
					c-1.22,3.51-3.01,6.7-5.72,9.3c-2.71,2.59-5.87,4.15-9.7,4.09c-3.03-0.05-5.69-1.16-8.05-3c-2.4-1.87-4.18-4.24-5.59-6.92
					c-2.03-3.86-3.08-7.99-3.46-12.31C183.79,137.39,183.76,136.32,183.73,135.7z M213.78,135.81c-0.22-1.94-0.34-3.9-0.67-5.82
					c-0.64-3.69-1.92-7.16-4.17-10.2c-1.14-1.54-2.48-2.86-4.18-3.76c-2.62-1.39-5.26-1.4-7.87,0.04c-1.13,0.62-2.09,1.44-2.95,2.39
					c-1.64,1.8-2.81,3.89-3.66,6.16c-2,5.35-2.35,10.84-1.35,16.43c0.59,3.27,1.67,6.37,3.48,9.18c1.24,1.93,2.75,3.6,4.79,4.73
					c2.65,1.46,5.32,1.49,7.95,0c0.83-0.47,1.6-1.07,2.3-1.71c1.59-1.46,2.72-3.26,3.63-5.21
					C212.9,144.16,213.62,140.06,213.78,135.81z"/>
				<path d="M260.35,148.12c0.04,1.42,0.16,2.84,0.37,4.25c0.24,1.61,1.02,2.84,2.7,3.37c0.89,0.28,0.97,0.52,0.88,1.5
					c-0.05,0.55-0.14,1.1-0.23,1.65c-0.18,1.09-0.65,1.47-1.72,1.28c-1.74-0.3-3.26-1.07-4.24-2.58c-0.56-0.86-1-1.83-1.32-2.81
					c-0.66-1.99-0.96-4.06-1.02-6.15c-0.15-4.69-0.21-9.37-0.31-14.06c-0.01-0.35,0-0.7-0.02-1.04c-0.06-0.8-0.22-0.97-1.02-0.98
					c-1.42-0.02-2.85-0.01-4.27-0.01c-1.33,0-1.48-0.15-1.49-1.5c-0.01-0.76-0.02-1.53,0.03-2.29c0.05-0.82,0.28-1.03,1.1-1.04
					c1.49-0.01,2.99,0.01,4.48,0c1.01,0,1.05-0.04,1.04-1.07c-0.06-4.48-0.13-8.96-0.18-13.44c-0.01-0.48,0.04-0.97,0.11-1.45
					c0.08-0.59,0.43-0.96,1.04-0.97c0.94-0.01,1.87,0.01,2.81,0.04c0.46,0.01,0.69,0.33,0.76,0.73c0.06,0.34,0.05,0.69,0.05,1.04
					c0.06,4.55,0.12,9.1,0.19,13.65c0,0.21,0,0.42,0.02,0.62c0.07,0.66,0.24,0.84,0.93,0.85c1.39,0.02,2.78,0.01,4.17,0.01
					c0.31,0,0.63-0.01,0.94,0.02c0.72,0.07,1.02,0.32,1.07,1.03c0.07,0.93,0.1,1.87,0.08,2.81c-0.01,0.82-0.17,0.96-1,0.97
					c-1.56,0.02-3.13,0-4.69,0c-0.24,0-0.49,0-0.73,0.01c-0.42,0.01-0.63,0.25-0.67,0.65c-0.03,0.28-0.01,0.56-0.01,0.83
					C260.17,136.59,260.3,145.97,260.35,148.12z"/>
			</g>
			<g>
				<path d="M278.62,129.63c-0.06,5.42-0.13,10.84-0.19,16.25c0,0.36,0.01,0.73-0.04,1.08c-0.09,0.68-0.4,0.97-1.1,1.02
					c-0.62,0.04-1.25,0.07-1.87,0.04c-1.02-0.06-1.34-0.4-1.4-1.39c-0.02-0.33-0.01-0.66-0.01-0.98c0.1-10.77,0.2-21.54,0.3-32.31
					c0.02-1.73,0.36-2.07,2.1-2.05c0.52,0.01,1.04,0.09,1.56,0.16c0.55,0.07,0.79,0.42,0.81,0.95c0.01,0.33,0.01,0.66,0.01,0.98
					c-0.06,5.42-0.12,10.84-0.18,16.25C278.61,129.63,278.62,129.63,278.62,129.63z"/>
				<path d="M276.05,160.08c-1.94-0.01-3.51-1.57-3.52-3.51c-0.01-1.97,1.61-3.59,3.57-3.57c1.98,0.02,3.55,1.63,3.51,3.62
					C279.58,158.56,278,160.09,276.05,160.08z"/>
			</g>
		</g>
		<g>
			<path d="M143.81,185.91c-3.85,0.09-7.05-0.22-10.21-1.02c-2.58-0.65-5.02-1.66-7.31-3.03c-2.18-1.3-4.01-2.99-5.53-5.01
				c-1.63-2.16-2.81-4.55-3.68-7.1c-0.8-2.35-1.35-4.75-1.76-7.2c-0.36-2.16-0.53-4.33-0.73-6.51c-0.26-2.75-0.53-5.51-0.87-8.25
				c-0.29-2.34-0.87-4.63-1.46-6.91c-0.43-1.69-0.86-3.38-1.21-5.09c-0.44-2.17-0.37-4.35,0.26-6.48c0.52-1.77,1.55-3.18,3.12-4.16
				c1.18-0.74,2.44-0.88,3.77-0.57c0.5,0.12,0.84,0.39,1.03,0.85c0.11,0.27,0.21,0.54,0.3,0.82c1.1,3.34,2.18,6.69,3.3,10.03
				c1.05,3.12,2.18,6.21,3.47,9.23c0.89,2.09,1.91,4.12,3.15,6.03c0.13,0.19,0.25,0.4,0.31,0.62c0.13,0.44,0.06,0.86-0.2,1.25
				c-0.62,0.92-1.49,1.25-2.56,1.13c-0.56-0.06-1.06-0.3-1.53-0.61c-0.62-0.4-1.12-0.92-1.57-1.5c-0.72-0.92-1.32-1.92-1.87-2.95
				c-1.2-2.23-2.24-4.54-3.22-6.87c-0.51-1.21-1.02-2.41-1.52-3.62c-0.09-0.21-0.18-0.43-0.29-0.63c-0.28-0.51-0.74-0.69-1.24-0.52
				c-0.52,0.18-0.83,0.69-0.73,1.24c0.04,0.2,0.1,0.4,0.18,0.58c1.51,3.66,3,7.32,4.88,10.82c0.65,1.21,1.36,2.38,2.21,3.45
				c0.66,0.83,1.43,1.54,2.35,2.06c1.26,0.71,2.6,0.99,4.03,0.6c0.83-0.23,1.55-0.65,2.16-1.26c0.79-0.8,0.87-0.8,1.71-0.08
				c1.58,1.34,3.41,1.98,5.48,1.87c2.38-0.13,4.15-1.21,5.15-3.43c0.64-1.43,0.97-2.92,0.95-4.49c-0.01-0.58-0.05-1.16-0.04-1.75
				c0-0.39,0.27-0.64,0.59-0.6c0.11,0.01,0.23,0.06,0.33,0.11c0.1,0.05,0.2,0.13,0.28,0.2c1.39,1.21,2.65,2.54,3.58,4.14
				c0.26,0.45,0.48,0.93,0.66,1.42c0.25,0.68,0.18,1.39-0.09,2.05c-0.21,0.51-0.46,1.01-0.74,1.48c-0.49,0.83-1.02,1.63-1.52,2.45
				c-0.93,1.48-1.78,3.01-2.44,4.63c-0.85,2.07-1.3,4.22-1.14,6.48c0.08,1.14,0.32,2.25,0.64,3.34c0.05,0.17,0.11,0.33,0.2,0.48
				c0.26,0.42,0.73,0.59,1.22,0.45c0.42-0.12,0.74-0.51,0.74-0.97c0-0.23-0.06-0.46-0.1-0.69c-0.15-0.77-0.31-1.54-0.46-2.31
				c-0.02-0.11-0.04-0.23-0.04-0.35c0-0.25,0.13-0.45,0.31-0.47c0.21-0.02,0.29,0.15,0.39,0.29c0.26,0.42,0.52,0.84,0.79,1.26
				c0.11,0.17,0.24,0.33,0.39,0.47c0.37,0.33,0.81,0.37,1.21,0.15c0.43-0.24,0.65-0.68,0.51-1.18c-0.07-0.27-0.23-0.53-0.39-0.77
				c-0.99-1.45-1.55-3.05-1.79-4.78c-0.08-0.6-0.02-1.17,0.18-1.72c0.2-0.54,0.43-1.08,0.72-1.58c0.6-1.03,1.24-2.04,1.86-3.06
				c0.42-0.7,0.84-1.4,1.22-2.12c0.34-0.65,0.55-1.34,0.63-2.08c0.1-0.98-0.06-1.91-0.46-2.81c-0.46-1.05-1.07-2-1.78-2.89
				c-1.59-2-3.5-3.66-5.6-5.09c-1.85-1.26-3.74-2.48-5.59-3.73c-1.01-0.68-2.01-1.38-2.99-2.11c-0.94-0.7-1.77-1.51-2.51-2.42
				c-1.34-1.64-1.89-3.52-1.68-5.62c0.05-0.49,0.17-0.98,0.34-1.44c0.4-1.11,1.19-1.85,2.3-2.23c0.69-0.24,1.41-0.35,2.14-0.37
				c1.65-0.05,3.24,0.23,4.83,0.63c3,0.75,5.89,1.82,8.73,3.03c3.64,1.56,7.22,3.24,10.62,5.29c2.83,1.7,5.46,3.66,7.79,6.01
				c0.63,0.64,1.23,1.32,1.8,2.02c2.19,2.69,3.43,5.78,3.93,9.2c0.26,1.8,0.22,3.6,0.03,5.4c-0.45,4.21-1.34,8.33-2.68,12.35
				c-0.92,2.76-2.25,5.29-4.15,7.52c-1.84,2.14-4.06,3.74-6.57,4.96c-3.45,1.67-7.05,2.89-10.84,3.51
				C147.39,185.7,145.3,185.85,143.81,185.91z"/>
			<path d="M124.02,74.08c-0.03-1.41,0.08-3.09,0.56-4.73c0.28-0.96,0.66-1.86,1.28-2.66c0.44-0.56,0.94-1.04,1.57-1.37
				c1.42-0.75,2.79-0.71,4.1,0.25c0.88,0.65,1.59,1.46,2.15,2.38c0.44,0.72,0.84,1.46,1.2,2.23c1.42,3.03,2.65,6.15,3.84,9.27
				c1.79,4.71,3.32,9.5,4.9,14.28c1.28,3.87,2.66,7.7,4.03,11.54c0.69,1.92,1.53,3.78,2.58,5.53c0.46,0.77,0.98,1.51,1.54,2.22
				c0.32,0.4,0.73,0.77,1.16,1.05c0.92,0.6,1.83,0.47,2.62-0.29c0.43-0.41,0.72-0.91,0.97-1.44c0.46-0.98,0.79-2,1.08-3.04
				c0.68-2.41,1.21-4.86,1.74-7.3c1.26-5.8,2.46-11.62,4.03-17.34c0.7-2.55,1.44-5.1,2.43-7.56c0.58-1.46,1.23-2.89,2.05-4.24
				c0.49-0.8,1.03-1.55,1.72-2.19c0.86-0.81,1.87-1.28,3.05-1.34c1.26-0.07,2.19,0.48,2.8,1.57c0.46,0.82,0.68,1.73,0.84,2.65
				c0.26,1.53,0.26,3.08,0.13,4.62c-0.24,2.9-0.76,5.77-1.24,8.64c-0.57,3.45-1.14,6.89-1.68,10.34c-0.4,2.56-0.78,5.12-1.13,7.69
				c-0.28,2.05-0.53,4.1-0.78,6.15c-0.22,1.88-0.43,3.76-0.62,5.64c-0.37,3.65-0.58,7.32-0.39,10.99c0.15,2.88,0.52,5.74,1.1,8.57
				c0.31,1.51,0.61,3.02,0.91,4.54c0.05,0.25,0.07,0.52,0.05,0.78c-0.01,0.11-0.15,0.27-0.26,0.31c-0.11,0.03-0.27-0.04-0.38-0.12
				c-0.11-0.08-0.19-0.22-0.28-0.33c-1.2-1.55-2.57-2.93-4.04-4.22c-2.84-2.49-5.99-4.53-9.32-6.27c-4.46-2.34-9.04-4.42-13.84-5.99
				c-1.71-0.56-3.45-1.06-5.23-1.34c-0.67-0.11-1.12-0.46-1.4-1.05c-0.14-0.29-0.25-0.59-0.36-0.89c-0.64-1.69-1.25-3.39-1.92-5.06
				c-0.61-1.52-1.13-3.05-1.31-4.69c-0.2-1.81-8.92-27.24-9.58-30.79C124.28,78.84,124.03,76.61,124.02,74.08z"/>
			<path d="M128.61,113.07c1.66,0.08,3.21,0.83,4.12,2.63c0.33,0.65,0.65,1.31,0.9,1.99c0.55,1.47,1.07,2.95,1.59,4.44
				c0.33,0.94,0.23,1.1-0.74,1.29c-0.2,0.04-0.4,0.08-0.6,0.13c-2.7,0.65-4.28,2.38-4.77,5.08c-0.49,2.68,0.1,5.15,1.69,7.36
				c0.82,1.14,1.8,2.14,2.91,3c0.99,0.77,2.01,1.49,3.04,2.2c0.93,0.65,1.88,1.27,2.84,1.87c0.94,0.58,1.55,1.39,1.83,2.45
				c0.5,1.91,0.71,3.83,0.27,5.79c-0.15,0.66-0.39,1.28-0.71,1.87c-0.49,0.9-1.25,1.45-2.24,1.65c-1.7,0.35-3.23-0.04-4.59-1.1
				c-0.32-0.25-0.6-0.55-0.88-0.85c-1.16-1.24-2.11-2.63-2.94-4.11c-1.24-2.18-2.21-4.49-3.12-6.82c-1.49-3.83-2.78-7.72-4.02-11.63
				c-0.6-1.91-1.26-3.81-1.87-5.72c-0.32-1-0.59-2.01-0.64-3.07c-0.08-1.64,0.22-3.19,0.98-4.64c0.26-0.48,0.58-0.95,0.95-1.35
				C123.95,114.06,126.34,113.06,128.61,113.07z"/>
		</g>
	</g>
	<path class="st12" d="M281.81,184.04c-6.23,5.18-13.39,7.81-21.38,8c-8.02,0.19-15.32-1.88-21.2-7.55
		c-14.02,10.16-27.57,7.59-41.18-0.87c-0.5,0.36-1.12,0.82-1.76,1.27c-3.84,2.69-8.04,4.54-12.72,5.12
		c-3.83,0.47-7.52-0.02-10.98-1.81c-0.81-0.42-1.61-0.95-2.24-1.59c-1.3-1.31-1.05-2.84,0.64-3.62c0.79-0.37,1.78-0.48,2.67-0.44
		c1.2,0.05,2.39,0.33,3.57,0.57c3.91,0.8,7.38-0.09,10.2-2.92c1.8-1.81,3.41-3.81,5.08-5.75c2.27-2.62,5.16-3.7,8.56-3.4
		c2.22,0.2,4.1,1.2,5.44,3.01c3.1,4.2,7.45,6.19,12.39,7.27c3.54,0.77,6.83,0.23,9.76-1.81c1.97-1.37,3.78-3,5.57-4.61
		c1.84-1.66,3.83-2.92,6.37-3.15c2.67-0.25,4.82,0.57,6.59,2.67c1.64,1.95,3.45,3.78,5.34,5.49c6.36,5.73,16.59,5.02,22.67-1.04
		c1.06-1.05,2.05-2.18,3.05-3.28c1.39-1.53,3.12-2.48,5.14-2.81c2.65-0.44,4.94,0.23,6.58,2.51c0.08,0.12,0.18,0.22,0.26,0.34
		c4.24,6.36,10.47,8.07,17.66,7.54c1.2-0.09,2.42-0.19,3.6-0.05c1.16,0.14,2.19,0.74,2.57,1.97c0.41,1.32-0.12,2.47-1.12,3.22
		c-1,0.75-2.15,1.53-3.34,1.76c-6.82,1.28-13.62,1.18-20.15-1.36c-2.28-0.89-4.28-2.47-6.4-3.76
		C282.62,184.75,282.27,184.4,281.81,184.04z"/>
</g>
</svg>
