<?xml version="1.0" encoding="utf-8"?>
<!-- Generator: Adobe Illustrator 25.2.1, SVG Export Plug-In . SVG Version: 6.00 Build 0)  -->
<svg version="1.1" id="Calque_1" xmlns="http://www.w3.org/2000/svg" xmlns:xlink="http://www.w3.org/1999/xlink" x="0px" y="0px"
	 viewBox="0 0 432 432" style="enable-background:new 0 0 432 432;" xml:space="preserve">
<style type="text/css">
	.st0{fill:#E0AAAF;}
	.st1{fill:#F9D53D;}
	.st2{fill:#FBB03B;}
	.st3{fill:#CCCCCC;}
	.st4{fill:#8CC63F;}
	.st5{fill:#C5D8A7;}
	.st6{fill:#C44750;}
	.st7{fill:#998675;}
	.st8{fill:#C7B299;}
	.st9{fill:none;}
	.st10{fill:#29ABE2;}
	.st11{fill:#B3B3B3;}
	.st12{fill:#C79C52;}
	.st13{fill:#65C8D0;}
	.st14{fill:#BA9BC9;}
	.st15{fill:#A57A7F;}
	.st16{fill:#FFFFFF;}
</style>
<g>
	<g>
		<g>
			<path class="st6" d="M359.64,234.46c-1.33-5.4-3.66-10.37-6.78-14.98c-2.17-3.2-4.74-6.04-7.83-8.38
				c-0.51-0.39-1.07-0.75-1.67-0.96c-1-0.36-2.1,0.11-2.65,0.99c-0.56,0.9-0.48,2.02,0.26,2.82c0.31,0.34,0.69,0.62,1.05,0.9
				c2.18,1.67,4.1,3.6,5.74,5.8c2.97,3.96,5.2,8.3,6.67,13.03c1.2,3.88,1.76,7.85,1.59,11.91c-0.2,4.89-1.32,9.54-3.83,13.77
				c-3.39,5.73-8.29,9.41-14.95,10.44c-4.51,0.7-8.85-0.01-12.99-1.93c-0.28-0.13-0.53-0.33-0.87-0.54c0.32-0.53,0.6-1,0.87-1.48
				c2.8-4.85,4.45-10.05,4.77-15.66c0.2-3.43-0.28-6.74-1.69-9.89c-0.77-1.71-1.8-3.23-3.27-4.42c-3.01-2.45-6.99-2.52-9.76-0.91
				c-1.39,0.81-2.54,1.85-3.51,3.11c-1.73,2.24-2.83,4.76-3.38,7.53c-0.97,4.9-0.18,9.58,1.89,14.07c1.38,2.97,3.38,5.51,5.8,7.72
				c0.37,0.34,0.74,0.68,1.1,1.01c-0.14,0.54-0.54,0.8-0.86,1.12c-2.36,2.33-5.06,4.16-8.1,5.51c-4.22,1.88-8.64,2.75-13.25,2.44
				c-6.87-0.46-12.79-3.18-17.86-7.78c-4.42-4.01-7.4-8.85-8.39-14.8c-0.16-0.98-0.42-1.95-0.31-3.12c0.37,0.32,0.65,0.54,0.9,0.8
				c1.5,1.51,2.99,3.03,4.49,4.53c0.36,0.36,0.73,0.72,1.16,0.98c0.9,0.55,2.09,0.37,2.82-0.34c0.78-0.77,0.93-1.97,0.34-2.93
				c-0.19-0.31-0.44-0.6-0.7-0.86c-2.82-2.87-5.69-5.7-8.47-8.6c-1.37-1.43-3.38-1.64-4.91,0.15c-2.92,3.41-5.96,6.71-8.95,10.06
				c-0.22,0.24-0.43,0.49-0.61,0.76c-0.69,1.07-0.54,2.36,0.36,3.15c0.89,0.78,2.22,0.77,3.18-0.04c0.32-0.27,0.58-0.59,0.86-0.9
				c1.33-1.48,2.65-2.97,3.99-4.44c0.16-0.18,0.4-0.3,0.7-0.53c0.21,1.09,0.38,2.04,0.56,2.98c0.7,3.48,1.92,6.77,3.83,9.77
				c3.25,5.11,7.58,9.1,12.89,11.95c9.5,5.09,19.27,5.43,29.18,1.26c3.93-1.66,7.33-4.12,10.28-7.19c0.31-0.33,0.64-0.64,0.98-0.98
				c0.31,0.15,0.56,0.26,0.8,0.39c3.11,1.66,6.42,2.62,9.91,2.98c7.05,0.73,13.41-0.99,18.96-5.46c3.64-2.93,6.28-6.65,8.07-10.96
				C361.34,250.52,361.62,242.55,359.64,234.46z M319.7,264.09c-0.09,0.15-0.23,0.27-0.44,0.5c-2.04-1.64-3.63-3.5-4.88-5.63
				c-1.9-3.24-2.77-6.74-2.5-10.5c0.16-2.2,0.75-4.28,1.88-6.19c0.57-0.96,1.24-1.84,2.12-2.55c1.82-1.48,3.99-1.35,5.61,0.33
				c0.75,0.78,1.28,1.69,1.68,2.69c0.71,1.74,1.05,3.55,1.08,5.42C324.32,253.92,322.67,259.2,319.7,264.09z"/>
			<path class="st6" d="M100.04,231.3c-0.24-0.32-0.4-0.59-0.61-0.82c-3.17-3.29-6.96-5.52-11.42-6.5
				c-6.59-1.45-12.48,0.21-17.71,4.33c-3.87,3.04-6.6,6.97-8.55,11.46c-1.62,3.72-2.54,7.63-2.82,11.68
				c-0.35,4.94,0.17,9.79,1.51,14.56c0.74,2.65,1.83,5.14,3.26,7.48c0.24,0.39,0.49,0.79,0.66,1.22c0.4,1.02,0.08,2.09-0.78,2.73
				c-0.83,0.62-2.03,0.66-2.83-0.03c-0.48-0.41-0.87-0.96-1.21-1.5c-2.04-3.3-3.41-6.87-4.27-10.64c-1.25-5.42-1.62-10.9-0.91-16.41
				c1.07-8.26,4.22-15.59,10.03-21.66c3.22-3.37,7.03-5.88,11.48-7.3c6.78-2.16,13.34-1.47,19.65,1.76c3.12,1.6,5.87,3.69,8.17,6.36
				c0.18,0.21,0.37,0.4,0.61,0.65c0.44-0.19,0.86-0.36,1.27-0.56c3.86-1.8,7.93-2.87,12.19-2.99c10.75-0.32,19.74,3.53,26.75,11.71
				c3.93,4.58,6.52,9.86,7.71,15.8c0.7,3.49,0.65,6.99,0.04,10.49c-0.17,0.95-0.35,1.9-0.55,2.98c0.37-0.1,0.63-0.13,0.85-0.24
				c1.78-0.89,3.55-1.8,5.32-2.7c0.37-0.19,0.74-0.39,1.13-0.53c1.19-0.41,2.43,0.06,2.98,1.11c0.55,1.06,0.23,2.32-0.8,3.07
				c-0.26,0.19-0.55,0.34-0.84,0.49c-4,2.04-8.03,4.02-11.98,6.15c-2.08,1.12-3.87,0.2-4.63-1.63c-1.55-3.72-3.19-7.39-4.79-11.08
				c-0.15-0.34-0.27-0.69-0.34-1.05c-0.21-1.11,0.37-2.18,1.37-2.61c0.94-0.4,2.11-0.14,2.76,0.7c0.3,0.4,0.52,0.87,0.73,1.33
				c0.86,1.95,1.7,3.9,2.55,5.85c0.14,0.33,0.33,0.63,0.56,1.07c0.52-1.05,0.64-2.05,0.84-3.02c1.23-5.91,0.2-11.5-2.47-16.83
				c-3.07-6.12-7.6-10.79-13.84-13.71c-4.19-1.96-8.61-2.74-13.23-2.51c-3.32,0.16-6.5,0.89-9.55,2.21
				c-0.41,0.18-0.88,0.28-1.21,0.73c0.22,0.44,0.44,0.89,0.67,1.34c1.46,2.93,2.41,6.02,2.62,9.29c0.32,4.93-0.64,9.58-3.32,13.8
				c-1.51,2.38-3.46,4.34-5.88,5.8c-1.36,0.82-2.81,1.38-4.39,1.63c-3.16,0.5-6.85-1-8.77-4.37c-0.94-1.64-1.36-3.43-1.45-5.3
				c-0.18-3.45,0.58-6.71,2-9.83c2.33-5.11,5.74-9.37,10.11-12.88C99.12,232.02,99.56,231.68,100.04,231.3z M102.89,235.35
				c-0.27,0.14-0.45,0.2-0.59,0.31c-4.54,3.49-7.98,7.82-9.99,13.22c-0.65,1.75-0.98,3.56-0.95,5.44c0.02,1.07,0.18,2.12,0.59,3.12
				c0.9,2.15,2.88,3.05,5.11,2.33c1.07-0.35,2.02-0.92,2.9-1.61c1.74-1.37,3.05-3.09,3.99-5.09c1.61-3.41,2.06-6.99,1.46-10.7
				C105.01,239.92,104.21,237.62,102.89,235.35z"/>
		</g>
		<g>
			<path d="M189.2,249.46c0.06-6.48,1.09-12.22,3.65-17.63c1.56-3.31,3.6-6.27,6.41-8.65c3.22-2.73,6.9-4.24,11.19-4.06
				c2.87,0.12,5.45,1.11,7.84,2.66c2.74,1.77,4.87,4.14,6.63,6.87c2.69,4.18,4.27,8.78,5.07,13.65c1.17,7.14,0.71,14.17-1.68,21.03
				c-1.46,4.2-3.6,8.02-6.85,11.13c-3.24,3.1-7.03,4.97-11.61,4.9c-3.63-0.05-6.8-1.39-9.64-3.6c-2.87-2.24-5.01-5.08-6.69-8.28
				c-2.42-4.61-3.69-9.56-4.14-14.73C189.27,251.48,189.24,250.2,189.2,249.46z M225.16,249.59c-0.26-2.32-0.41-4.67-0.81-6.97
				c-0.77-4.42-2.3-8.56-4.99-12.21c-1.36-1.84-2.97-3.42-5-4.5c-3.14-1.66-6.29-1.67-9.42,0.05c-1.35,0.74-2.5,1.73-3.53,2.86
				c-1.97,2.16-3.37,4.66-4.38,7.38c-2.39,6.4-2.82,12.97-1.62,19.66c0.7,3.92,2,7.62,4.17,10.99c1.49,2.31,3.3,4.31,5.74,5.66
				c3.17,1.74,6.37,1.78,9.52-0.01c0.99-0.56,1.92-1.28,2.76-2.05c1.9-1.75,3.26-3.9,4.35-6.23
				C224.1,259.58,224.96,254.68,225.16,249.59z"/>
			<path d="M241.96,226.3c0.28-0.3,0.56-0.6,0.83-0.91c2.61-2.85,5.72-4.88,9.55-5.67c3.26-0.67,6.42-0.19,9.49,0.94
				c1.41,0.52,2.76,1.21,4.09,1.91c1.33,0.7,1.5,1.34,0.83,2.65c-0.34,0.67-0.73,1.32-1.14,1.95c-0.73,1.13-0.96,1.19-2.14,0.63
				c-0.72-0.34-1.39-0.79-2.13-1.06c-1.41-0.51-2.83-1.06-4.29-1.33c-3.16-0.59-5.95,0.38-8.41,2.39c-2.26,1.86-3.73,4.26-4.79,6.95
				c-1.02,2.6-1.38,5.33-1.74,8.07c-0.54,4.21-0.47,8.43-0.46,12.66c0.02,6.95,0.01,13.89,0,20.84c0,2.38,0,2.71-2.85,2.72
				c-2.5,0.01-2.77-0.3-2.89-2.82c-0.03-0.54-0.03-1.09-0.03-1.63c0-17.08,0.01-34.15,0.02-51.23c0-0.5,0.01-1.01,0.1-1.5
				c0.16-0.85,0.5-1.2,1.33-1.25c1.04-0.06,2.09-0.06,3.13,0.01c0.84,0.06,1.15,0.43,1.19,1.33c0.05,0.96,0.03,1.92,0.03,2.89
				c0,0.45,0,0.9,0,1.35C241.79,226.23,241.88,226.26,241.96,226.3z"/>
			<path d="M171.26,252.41c0-0.33-0.01-0.66-0.02-0.99c-0.02-0.5-0.28-0.74-0.79-0.74c-0.95,0.01-1.89,0.02-2.84,0
				c-0.96-0.02-1.07-0.1-1.15-1.05c-0.08-1.06-0.14-2.14-0.08-3.2c0.07-1.11,0.45-1.41,1.58-1.46c0.66-0.03,1.32,0,1.98-0.02
				c1.21-0.03,1.44-0.25,1.52-1.43c0.26-3.82,0.49-7.64,1.21-11.41c0.4-2.11,0.96-4.17,2.06-6.04c2.17-3.69,5.43-5.76,9.65-6.32
				c1.1-0.15,2.22-0.21,3.32-0.21c1.17,0.01,1.45,0.34,1.48,1.49c0.02,0.91,0.02,1.81,0.01,2.72c-0.02,1.29-0.26,1.5-1.51,1.56
				c-1.07,0.05-2.15,0.06-3.19,0.26c-2.6,0.48-4.44,2.04-5.28,4.51c-0.64,1.89-1.03,3.9-1.3,5.88c-0.35,2.61-0.49,5.24-0.7,7.87
				c-0.08,0.99,0,1.08,0.98,1.09c1.15,0.01,2.31-0.03,3.46,0c1.29,0.03,1.6,0.33,1.65,1.61c0.04,0.9,0.04,1.81,0.01,2.72
				c-0.04,1.2-0.26,1.39-1.51,1.4c-1.15,0.02-2.31,0-3.46,0.01c-1.28,0.01-1.29,0.02-1.29,1.34c0,3.17,0.06,19.39,0.08,24.33
				c0,0.37,0.01,0.74-0.01,1.11c-0.07,1.12-0.32,1.38-1.42,1.41c-1.03,0.03-2.06,0.04-3.09,0.03c-0.94-0.01-1.13-0.21-1.2-1.17
				c-0.03-0.37-0.01-0.74-0.01-1.11C171.41,272.62,171.26,256.49,171.26,252.41z"/>
		</g>
	</g>
	<g>
		<path d="M266.93,305.43c-8.39-13.36-25.85-17.92-39.86-8.39c-14.58,9.92-18.18,30.76-7.8,45.01c9.08,12.49,25.88,15.5,38.59,6.75
			c9.22-6.34,13.49-15.43,13.85-24.5C271.71,316.26,270.06,310.44,266.93,305.43z M257.87,319.15l-6.55,6.31
			c-0.25,0.25-0.36,0.6-0.31,0.94l1.49,8.97c0.15,0.86-0.76,1.53-1.54,1.1l-8.03-4.27c-0.31-0.16-0.68-0.16-0.98,0l-8.07,4.19
			c-0.78,0.41-1.69-0.25-1.54-1.13l1.58-8.95c0.05-0.35-0.05-0.7-0.31-0.94l-6.47-6.38c-0.64-0.62-0.28-1.69,0.6-1.81l9-1.26
			c0.35-0.05,0.65-0.27,0.81-0.58l4.05-8.13c0.4-0.78,1.53-0.78,1.91,0.01l3.97,8.18c0.16,0.32,0.45,0.53,0.8,0.58l9,1.36
			C258.15,317.46,258.5,318.53,257.87,319.15z"/>
		<path d="M331.18,305.43c-8.39-13.36-25.85-17.92-39.86-8.39c-14.58,9.92-18.18,30.76-7.82,45.01c9.08,12.49,25.89,15.5,38.6,6.75
			c9.21-6.34,13.48-15.43,13.84-24.5C335.97,316.26,334.32,310.44,331.18,305.43z M322.12,319.15l-6.54,6.31
			c-0.25,0.25-0.37,0.6-0.31,0.94l1.49,8.97c0.15,0.86-0.77,1.53-1.54,1.1l-8.03-4.27c-0.31-0.16-0.68-0.16-1,0l-8.07,4.19
			c-0.77,0.41-1.69-0.25-1.53-1.13l1.58-8.95c0.05-0.35-0.05-0.7-0.31-0.94l-6.49-6.38c-0.62-0.62-0.27-1.69,0.6-1.81l9.01-1.26
			c0.35-0.05,0.65-0.27,0.8-0.58l4.07-8.13c0.4-0.78,1.52-0.78,1.9,0.01l3.99,8.18c0.16,0.32,0.45,0.53,0.8,0.58l9,1.36
			C322.41,317.46,322.75,318.53,322.12,319.15z"/>
		<path d="M160.07,322.86c-0.41-7.26-0.82-14.52-1.23-21.78c-0.12-2.22-0.25-4.44-0.34-6.66c-0.06-1.53,0.31-1.89,1.85-1.92
			c5.65-0.08,11.29-0.16,16.94-0.23c1.8-0.02,2.2,0.38,2.19,2.17c-0.04,6.8-0.1,13.6-0.13,20.4c0,0.64,0.05,1.29,0.18,1.9
			c0.18,0.85,0.58,1.18,1.44,1.16c2.39-0.05,4.79-0.13,7.18-0.25c0.91-0.04,1.34-0.51,1.41-1.51c0.07-0.98,0.06-1.97,0.05-2.95
			c-0.04-6.5-0.09-13-0.14-19.5c-0.02-2.3,0.3-2.62,2.56-2.6c5.52,0.06,11.03,0.12,16.55,0.18c0.38,0,0.77,0,1.15,0.02
			c1.32,0.08,1.78,0.55,1.67,1.86c-0.19,2.3-0.42,4.6-0.64,6.9c-0.57,5.96-1.15,11.92-1.73,17.87c-0.56,5.7-1.13,11.4-1.69,17.1
			c-0.45,4.6-0.89,9.19-1.34,13.79c-0.16,1.7-0.42,1.93-2.13,2.02c-3.71,0.2-7.43,0.42-11.14,0.63c-0.21,0.01-0.43,0.03-0.64,0.03
			c-1.6,0.03-2.09-0.42-2.11-2c-0.06-4.41-0.1-8.81-0.16-13.22c-0.01-0.43,0.01-0.86-0.03-1.28c-0.12-1.14-0.57-1.62-1.72-1.65
			c-1.24-0.03-2.48,0.01-3.72,0.04c-1.15,0.03-2.31,0.1-3.46,0.16c-1.01,0.05-1.37,0.33-1.55,1.33c-0.09,0.5-0.09,1.02-0.09,1.53
			c-0.05,5.26-0.09,10.52-0.14,15.78c-0.02,2.28-0.25,2.52-2.51,2.47c-4.19-0.1-8.38-0.22-12.57-0.34
			c-1.83-0.05-2.22-0.39-2.34-2.28c-0.21-3.2-0.38-6.4-0.55-9.61C160.78,335.92,160.43,329.39,160.07,322.86z"/>
		<path d="M83.94,291.5c4.68,0.17,8.96,0.55,13.16,1.52c0.63,0.15,1.26,0.35,1.87,0.6c1.49,0.62,1.73,1.12,1.37,2.67
			c-0.55,2.31-1.11,4.62-1.67,6.93c-0.63,2.59-1.26,5.17-1.89,7.76c-0.07,0.28-0.13,0.56-0.21,0.83c-0.41,1.32-1.45,1.77-2.68,1.14
			c-0.98-0.51-1.94-1.06-2.91-1.58c-1.46-0.78-2.99-1.39-4.64-1.49c-1-0.06-2.07-0.03-3.02,0.25c-2,0.59-2.42,2.34-0.87,3.74
			c0.93,0.84,2.05,1.49,3.17,2.07c1.01,0.52,2.12,0.85,3.21,1.21c2.45,0.81,4.88,1.69,7.13,2.96c4.48,2.53,7.25,6.3,8.05,11.42
			c0.49,3.11-0.17,6.03-1.71,8.75c-1.1,1.95-2.57,3.6-4.3,5.01c-4.76,3.87-10.2,6.36-16.14,7.74c-5.06,1.17-10.19,1.58-15.37,1
			c-3.4-0.38-6.64-1.39-9.8-2.67c-1.13-0.46-1.39-1.06-1.03-2.25c1.37-4.59,2.76-9.17,4.16-13.75c0.43-1.41,1.14-1.75,2.52-1.23
			c2.31,0.88,4.66,1.55,7.13,1.75c2.22,0.18,4.43,0.09,6.57-0.58c0.85-0.27,1.69-0.64,2.45-1.11c1.33-0.83,1.6-2.37,0.61-3.59
			c-0.56-0.68-1.26-1.3-2.02-1.75c-1.3-0.77-2.68-1.42-4.05-2.06c-2-0.94-4.08-1.73-6.03-2.76c-1.62-0.85-3.21-1.83-4.64-2.97
			c-4.13-3.31-5.58-8.29-4.04-13.36c1.15-3.8,3.39-6.88,6.36-9.45c4.31-3.73,9.33-5.86,14.99-6.44
			C81.21,291.64,82.76,291.58,83.94,291.5z"/>
		<path d="M107.05,322.34c0.24-2,0.46-4,0.72-6c0.42-3.23,1.44-6.3,2.92-9.17c3.94-7.65,9.8-13.03,18.46-14.81
			c5.77-1.19,11.22-0.12,16.36,2.69c2.83,1.54,5.17,3.69,7.45,5.92c0.51,0.49,0.59,1.03,0.34,1.65c-0.22,0.52-0.44,1.05-0.73,1.53
			c-2.35,3.91-4.71,7.8-7.07,11.7c-0.13,0.21-0.26,0.41-0.4,0.6c-0.59,0.84-1.34,1.22-2.39,0.97c-1.81-0.41-3.62-0.79-5.44-1.15
			c-2.43-0.48-4.88-0.66-7.33-0.14c-0.74,0.16-1.46,0.44-2.18,0.71c-2.69,1.01-4.31,4.37-2.78,7.58c1.05,2.21,2.83,3.58,5.02,4.47
			c3.07,1.25,6.23,1.22,9.39,0.44c1.52-0.37,2.99-0.95,4.48-1.45c1.49-0.51,2.04-0.36,3.01,0.91c0.27,0.35,0.51,0.73,0.74,1.11
			c2.08,3.45,4.16,6.91,6.24,10.36c0.19,0.31,0.33,0.65,0.53,0.95c0.72,1.09,0.45,2.08-0.31,3c-4.05,4.88-9.04,8.21-15.37,9.32
			c-5.99,1.06-11.55-0.17-16.72-3.25c-4.21-2.51-7.44-6.02-9.96-10.18c-1.77-2.91-3.03-6.06-3.8-9.37
			C107.57,327.99,107.18,325.19,107.05,322.34z"/>
		<path d="M341.25,325.45c0.2-11.01,0.37-20.16,0.54-29.32c0.01-0.54,0.01-1.08,0.07-1.61c0.11-1.15,0.4-1.41,1.56-1.49
			c1.45-0.09,2.89-0.19,4.34-0.29c4.42-0.3,8.84-0.61,13.27-0.91c1.49-0.1,1.98,0.33,1.91,1.86c-0.19,4.43-0.42,8.86-0.65,13.28
			c-0.21,4.1-0.44,8.19-0.66,12.28c-0.25,4.63-0.49,9.27-0.73,13.9c-0.12,2.36-0.05,2.42,2.3,2c4.28-0.76,8.56-1.52,12.84-2.27
			c1.47-0.26,2,0.15,1.96,1.69c-0.05,1.82-0.18,3.64-0.31,5.46c-0.19,2.64-0.42,5.28-0.64,7.92c-0.06,0.7-0.17,1.4-0.28,2.09
			c-0.14,0.96-0.73,1.44-1.67,1.53c-0.78,0.07-1.57,0.15-2.35,0.2c-5.25,0.37-10.49,0.73-15.74,1.11
			c-4.71,0.33-9.42,0.68-14.13,1.02c-0.25,0.02-0.5,0.05-0.74,0.03c-0.95-0.07-1.42-0.56-1.42-1.52c0.01-1.53,0.05-3.07,0.08-4.6
			C340.95,339.75,341.12,331.68,341.25,325.45z"/>
	</g>
	<g>
		<path d="M107.72,178.44c0.24-2,0.46-4,0.72-6c0.42-3.23,1.44-6.3,2.92-9.17c3.94-7.65,9.8-13.03,18.46-14.81
			c5.77-1.19,11.22-0.12,16.36,2.69c2.83,1.54,5.17,3.69,7.45,5.92c0.51,0.49,0.59,1.03,0.34,1.65c-0.22,0.52-0.44,1.05-0.73,1.53
			c-2.35,3.91-4.71,7.8-7.07,11.7c-0.13,0.21-0.26,0.41-0.4,0.6c-0.59,0.84-1.34,1.22-2.39,0.97c-1.81-0.41-3.62-0.79-5.44-1.15
			c-2.43-0.48-4.88-0.66-7.33-0.14c-0.74,0.16-1.46,0.44-2.18,0.71c-2.69,1.01-4.31,4.37-2.78,7.58c1.05,2.21,2.83,3.58,5.02,4.47
			c3.07,1.25,6.23,1.22,9.39,0.44c1.52-0.37,2.99-0.95,4.48-1.45c1.49-0.51,2.04-0.36,3.01,0.91c0.27,0.35,0.51,0.73,0.74,1.11
			c2.08,3.45,4.16,6.91,6.24,10.36c0.19,0.31,0.33,0.65,0.53,0.95c0.72,1.09,0.45,2.08-0.31,3c-4.05,4.88-9.04,8.21-15.37,9.32
			c-5.99,1.06-11.55-0.17-16.72-3.25c-4.21-2.51-7.44-6.02-9.96-10.18c-1.77-2.91-3.03-6.06-3.8-9.37
			C108.24,184.1,107.85,181.3,107.72,178.44z"/>
		<path d="M214.7,161.53c-8.39-13.36-25.85-17.92-39.85-8.39c-14.58,9.92-18.18,30.76-7.82,45.01c9.08,12.49,25.88,15.5,38.59,6.75
			c9.22-6.34,13.49-15.43,13.85-24.5C219.49,172.37,217.85,166.55,214.7,161.53z M206.49,175.25l-6.55,6.31
			c-0.24,0.25-0.36,0.6-0.31,0.94l1.5,8.97c0.13,0.86-0.77,1.53-1.56,1.1l-8.03-4.27c-0.31-0.16-0.68-0.16-0.98,0l-8.07,4.19
			c-0.78,0.41-1.69-0.25-1.54-1.13l1.58-8.95c0.07-0.35-0.05-0.7-0.31-0.94l-6.47-6.38c-0.63-0.62-0.28-1.69,0.6-1.81l9-1.26
			c0.35-0.05,0.65-0.27,0.81-0.58l4.05-8.13c0.4-0.78,1.53-0.78,1.91,0.01l3.99,8.18c0.15,0.32,0.45,0.53,0.8,0.58l8.99,1.36
			C206.79,173.56,207.12,174.64,206.49,175.25z"/>
		<path d="M278.95,161.53c-8.39-13.36-25.85-17.92-39.85-8.39c-14.58,9.92-18.18,30.76-7.82,45.01c9.08,12.49,25.88,15.5,38.59,6.75
			c9.22-6.34,13.49-15.43,13.85-24.5C283.75,172.37,282.09,166.55,278.95,161.53z M270.74,175.25l-6.54,6.31
			c-0.25,0.25-0.36,0.6-0.31,0.94l1.49,8.97c0.15,0.86-0.77,1.53-1.54,1.1l-8.03-4.27c-0.31-0.16-0.68-0.16-0.98,0l-8.08,4.19
			c-0.77,0.41-1.69-0.25-1.53-1.13l1.58-8.95c0.05-0.35-0.05-0.7-0.31-0.94l-6.47-6.38c-0.64-0.62-0.28-1.69,0.6-1.81l9-1.26
			c0.35-0.05,0.65-0.27,0.8-0.58l4.07-8.13c0.4-0.78,1.53-0.78,1.91,0.01l3.97,8.18c0.16,0.32,0.45,0.53,0.8,0.58l9,1.36
			C271.03,173.56,271.38,174.64,270.74,175.25z"/>
		<path d="M289.03,181.56c0.2-11.01,0.37-20.16,0.54-29.32c0.01-0.54,0.01-1.08,0.07-1.61c0.11-1.15,0.4-1.41,1.56-1.49
			c1.45-0.09,2.89-0.19,4.34-0.29c4.42-0.3,8.84-0.61,13.27-0.91c1.49-0.1,1.98,0.33,1.91,1.86c-0.19,4.43-0.42,8.86-0.65,13.28
			c-0.21,4.1-0.44,8.19-0.66,12.28c-0.25,4.63-0.49,9.27-0.73,13.9c-0.12,2.36-0.05,2.42,2.3,2c4.28-0.76,8.56-1.52,12.84-2.27
			c1.47-0.26,2,0.15,1.96,1.69c-0.05,1.82-0.18,3.64-0.31,5.46c-0.19,2.64-0.42,5.28-0.64,7.92c-0.06,0.7-0.17,1.4-0.28,2.09
			c-0.14,0.96-0.73,1.44-1.67,1.53c-0.78,0.07-1.57,0.15-2.35,0.2c-5.25,0.37-10.49,0.73-15.74,1.11
			c-4.71,0.33-9.42,0.68-14.13,1.02c-0.25,0.02-0.5,0.05-0.74,0.03c-0.95-0.07-1.42-0.56-1.42-1.52c0.01-1.53,0.05-3.07,0.08-4.6
			C288.73,195.86,288.9,187.78,289.03,181.56z"/>
	</g>
	<g>
		<g>
			<path d="M109.92,109.01c0.06-6.48,1.09-12.22,3.65-17.63c1.56-3.31,3.6-6.27,6.41-8.65c3.22-2.73,6.9-4.24,11.19-4.06
				c2.87,0.12,5.45,1.11,7.84,2.66c2.74,1.77,4.87,4.14,6.63,6.87c2.69,4.18,4.27,8.78,5.07,13.65c1.17,7.14,0.71,14.17-1.68,21.03
				c-1.46,4.2-3.6,8.02-6.85,11.13c-3.24,3.1-7.03,4.97-11.61,4.9c-3.63-0.05-6.8-1.39-9.64-3.6c-2.87-2.24-5.01-5.08-6.69-8.28
				c-2.42-4.61-3.69-9.56-4.14-14.73C109.99,111.03,109.96,109.75,109.92,109.01z M145.89,109.14c-0.26-2.32-0.41-4.67-0.81-6.97
				c-0.77-4.42-2.3-8.56-4.99-12.21c-1.36-1.84-2.97-3.42-5-4.5c-3.14-1.66-6.29-1.67-9.42,0.05c-1.35,0.74-2.5,1.72-3.53,2.86
				c-1.97,2.16-3.37,4.66-4.38,7.38c-2.39,6.4-2.82,12.97-1.62,19.66c0.7,3.92,2,7.62,4.17,10.99c1.49,2.31,3.3,4.31,5.74,5.66
				c3.17,1.74,6.37,1.78,9.52-0.01c0.99-0.56,1.92-1.28,2.76-2.05c1.9-1.75,3.26-3.9,4.35-6.23
				C144.83,119.13,145.69,114.23,145.89,109.14z"/>
			<path d="M155.63,109.01c0.06-6.48,1.09-12.22,3.65-17.63c1.56-3.31,3.6-6.27,6.41-8.65c3.22-2.73,6.9-4.24,11.19-4.06
				c2.87,0.12,5.45,1.11,7.84,2.66c2.74,1.77,4.87,4.14,6.63,6.87c2.69,4.18,4.27,8.78,5.07,13.65c1.17,7.14,0.71,14.17-1.68,21.03
				c-1.46,4.2-3.6,8.02-6.85,11.13c-3.24,3.1-7.03,4.97-11.61,4.9c-3.63-0.05-6.8-1.39-9.64-3.6c-2.87-2.24-5.01-5.08-6.69-8.28
				c-2.42-4.61-3.69-9.56-4.14-14.73C155.7,111.03,155.67,109.75,155.63,109.01z M191.6,109.14c-0.26-2.32-0.41-4.67-0.81-6.97
				c-0.77-4.42-2.3-8.56-4.99-12.21c-1.36-1.84-2.97-3.42-5-4.5c-3.14-1.66-6.29-1.67-9.42,0.05c-1.35,0.74-2.5,1.72-3.53,2.86
				c-1.97,2.16-3.37,4.66-4.38,7.38c-2.39,6.4-2.82,12.97-1.62,19.66c0.7,3.92,2,7.62,4.17,10.99c1.49,2.31,3.3,4.31,5.74,5.66
				c3.17,1.74,6.37,1.78,9.52-0.01c0.99-0.56,1.92-1.28,2.76-2.05c1.9-1.75,3.26-3.9,4.35-6.23
				C190.54,119.13,191.4,114.23,191.6,109.14z"/>
			<path d="M97.32,123.87c0.05,1.7,0.19,3.4,0.44,5.08c0.29,1.92,1.22,3.4,3.23,4.03c1.07,0.33,1.16,0.62,1.06,1.8
				c-0.06,0.66-0.17,1.32-0.28,1.97c-0.21,1.3-0.78,1.75-2.06,1.53c-2.08-0.36-3.9-1.28-5.07-3.08c-0.67-1.03-1.19-2.19-1.58-3.36
				c-0.79-2.38-1.14-4.86-1.22-7.35c-0.18-5.61-0.25-11.22-0.37-16.83c-0.01-0.42,0-0.83-0.03-1.25c-0.07-0.96-0.26-1.16-1.22-1.17
				c-1.7-0.02-3.41-0.01-5.11-0.01c-1.6,0-1.77-0.18-1.79-1.79c-0.01-0.91-0.02-1.83,0.03-2.74c0.06-0.99,0.34-1.23,1.32-1.24
				c1.79-0.02,3.57,0.01,5.36,0c1.21,0,1.26-0.05,1.24-1.27c-0.07-5.36-0.15-10.72-0.21-16.08c-0.01-0.58,0.05-1.16,0.13-1.73
				c0.09-0.71,0.51-1.15,1.24-1.16c1.12-0.02,2.24,0.02,3.36,0.05c0.54,0.02,0.82,0.39,0.91,0.87c0.07,0.4,0.05,0.83,0.06,1.24
				c0.08,5.44,0.15,10.89,0.22,16.33c0,0.25,0,0.5,0.03,0.75c0.08,0.79,0.28,1,1.11,1.01c1.66,0.03,3.33,0.01,4.99,0.02
				c0.37,0,0.75-0.01,1.12,0.02c0.87,0.08,1.22,0.38,1.28,1.23c0.08,1.12,0.12,2.24,0.1,3.36c-0.02,0.99-0.2,1.15-1.2,1.17
				c-1.87,0.02-3.74,0-5.61,0c-0.29,0-0.58,0-0.87,0.01c-0.5,0.02-0.76,0.3-0.8,0.78c-0.03,0.33-0.01,0.66-0.01,1
				C97.1,110.08,97.25,121.3,97.32,123.87z"/>
		</g>
		<path class="st6" d="M237.52,77.31c7.24,0.16,14.49,1.15,21.47,3.71c1.44,0.53,2.94,0.76,4.46,0.77
			c3.82,0.03,7.65,0.03,11.47,0.03c6.33,0,12.66,0,18.98,0c1.86,0,3.67-0.3,5.42-0.93c4.99-1.77,10.14-2.8,15.42-3.25
			c3.32-0.28,6.64-0.45,9.97-0.17c3.56,0.29,7.05,0.96,10.39,2.25c2.47,0.95,4.6,2.42,6.47,4.27c3.64,3.57,6.11,7.83,7.33,12.78
			c2.58,10.47,1.25,20.47-3.87,29.94c-1.86,3.44-4.49,6.24-7.62,8.59c-2.91,2.19-6.22,3.22-9.81,3.51
			c-4.72,0.37-9.06-0.91-13.25-2.91c-3.5-1.67-6.6-3.97-9.62-6.38c-8.09-6.45-14-14.52-17.9-24.08c-1.02-2.51-1.78-5.1-1.97-7.82
			c-0.11-1.49,0.04-2.96,0.34-4.42c0.16-0.76,0.14-0.81-0.53-1.16c-3.82-2.01-7.63-1.99-11.45,0c-0.5,0.26-0.65,0.59-0.53,1.11
			c0.87,3.56,0.26,7.01-0.92,10.38c-2.44,6.99-6.19,13.23-11.05,18.8c-3.95,4.52-8.48,8.38-13.52,11.64
			c-3.29,2.13-6.84,3.67-10.68,4.52c-3.82,0.84-7.59,0.62-11.31-0.58c-2.03-0.66-3.82-1.76-5.48-3.08c-4.6-3.66-7.6-8.41-9.55-13.9
			c-2.23-6.27-2.93-12.71-2.12-19.28c0.66-5.36,2.38-10.37,5.72-14.75c3.36-4.4,7.66-7.23,13.08-8.42
			C230.35,77.68,233.83,77.29,237.52,77.31z M279.02,85.11c-3.23,0-6.45,0-9.68,0c-0.26,0-0.54-0.05-0.79,0.02
			c-0.26,0.07-0.57,0.2-0.71,0.41c-0.21,0.3,0.09,0.53,0.3,0.74c0.68,0.67,1.38,1.32,2.03,2.02c0.73,0.78,1.18,0.92,2.17,0.53
			c0.18-0.07,0.36-0.16,0.54-0.24c4.05-1.78,8.1-1.79,12.15-0.01c0.27,0.12,0.53,0.27,0.81,0.35c0.72,0.21,1.32,0.12,1.84-0.52
			c0.58-0.71,1.28-1.32,1.93-1.97c0.25-0.25,0.63-0.44,0.47-0.89c-0.17-0.48-0.61-0.42-1-0.43c-0.2-0.01-0.4,0-0.59,0
			C285.35,85.1,282.19,85.1,279.02,85.11z"/>
	</g>
</g>
</svg>
